<?xml version="1.0" encoding="UTF-8" standalone="no"?>
<svg
   xmlns:dc="http://purl.org/dc/elements/1.1/"
   xmlns:cc="http://web.resource.org/cc/"
   xmlns:rdf="http://www.w3.org/1999/02/22-rdf-syntax-ns#"
   xmlns:svg="http://www.w3.org/2000/svg"
   xmlns="http://www.w3.org/2000/svg"
   xmlns:xlink="http://www.w3.org/1999/xlink"
   xmlns:sodipodi="http://sodipodi.sourceforge.net/DTD/sodipodi-0.dtd"
   xmlns:inkscape="http://www.inkscape.org/namespaces/inkscape"
   version="1.1"
   id="Layer_1"
   width="128"
   height="128"
   viewBox="0 0 128 128"
   overflow="visible"
   enable-background="new 0 0 128 128"
   xml:space="preserve"
   sodipodi:version="0.32"
   inkscape:version="0.45.1"
   sodipodi:docname="broken.svg"
   sodipodi:docbase="/home/changfu/Documents/Install/Cairo-Dock/plug-ins/rhythmbox/data"
   inkscape:output_extension="org.inkscape.output.svg.inkscape"><metadata
   id="metadata177"><rdf:RDF><cc:Work
       rdf:about=""><dc:format>image/svg+xml</dc:format><dc:type
         rdf:resource="http://purl.org/dc/dcmitype/StillImage" /></cc:Work></rdf:RDF></metadata><defs
   id="defs175"><linearGradient
     y2="-6.2254333"
     x2="-15.286263"
     y1="7.1375623"
     x1="-10.638614"
     gradientTransform="translate(22.43465,4.820297)"
     gradientUnits="userSpaceOnUse"
     id="linearGradient17223"
     xlink:href="#linearGradient9233"
     inkscape:collect="always" /><linearGradient
     id="linearGradient9233"><stop
       style="stop-color:#eeeeec;stop-opacity:1;"
       offset="0"
       id="stop9235" /><stop
       style="stop-color:#eeeeec;stop-opacity:0;"
       offset="1"
       id="stop9237" /></linearGradient><linearGradient
     y2="67.5428"
     x2="70.5428"
     y1="54.5889"
     x1="57.5889"
     gradientTransform="matrix(0.8807244,0,0,-0.8807244,7.1429605,118.97616)"
     gradientUnits="userSpaceOnUse"
     id="linearGradient2915"
     xlink:href="#XMLID_22_"
     inkscape:collect="always" /><linearGradient
     y2="80.726"
     x2="80.3542"
     y1="41.7246"
     x1="48.02"
     gradientTransform="matrix(0.8807244,0,0,-0.8807244,7.1429605,118.97616)"
     gradientUnits="userSpaceOnUse"
     id="linearGradient2913"
     xlink:href="#XMLID_21_"
     inkscape:collect="always" /><linearGradient
     y2="81.7672"
     x2="81.2175"
     y1="40.708"
     x1="47.1772"
     gradientTransform="matrix(0.8807244,0,0,-0.8807244,7.1429605,118.97616)"
     gradientUnits="userSpaceOnUse"
     id="linearGradient2911"
     xlink:href="#XMLID_20_"
     inkscape:collect="always" /><radialGradient
     r="21.9056"
     cy="111.8779"
     cx="28.3237"
     gradientTransform="matrix(0.8807244,0,0,-0.8807244,7.1429605,118.97616)"
     gradientUnits="userSpaceOnUse"
     id="radialGradient2909"
     xlink:href="#XMLID_19_"
     inkscape:collect="always" /><radialGradient
     r="29.1799"
     cy="3.6353"
     cx="84.2275"
     gradientTransform="matrix(0.8807244,0,0,-0.8807244,7.1429605,118.97616)"
     gradientUnits="userSpaceOnUse"
     id="radialGradient2907"
     xlink:href="#XMLID_18_"
     inkscape:collect="always" /><linearGradient
     y2="45.0119"
     x2="119.072"
     y1="20.0117"
     x1="18.7383"
     gradientTransform="matrix(0.8807244,0,0,-0.8807244,7.1429605,118.97616)"
     gradientUnits="userSpaceOnUse"
     id="linearGradient2905"
     xlink:href="#XMLID_17_"
     inkscape:collect="always" /><linearGradient
     y2="99.2332"
     x2="89.7672"
     y1="72.9668"
     x1="11.998"
     gradientTransform="matrix(0.8807244,0,0,-0.8807244,7.1429605,118.97616)"
     gradientUnits="userSpaceOnUse"
     id="linearGradient2903"
     xlink:href="#XMLID_16_"
     inkscape:collect="always" /><linearGradient
     y2="67.5428"
     x2="70.5428"
     y1="54.5889"
     x1="57.5889"
     gradientTransform="matrix(0.8807244,0,0,-0.8807244,7.1136737,118.97407)"
     gradientUnits="userSpaceOnUse"
     id="linearGradient2880"
     xlink:href="#XMLID_22_"
     inkscape:collect="always" /><linearGradient
     y2="80.726"
     x2="80.3542"
     y1="41.7246"
     x1="48.02"
     gradientTransform="matrix(0.8807244,0,0,-0.8807244,7.1136737,118.97407)"
     gradientUnits="userSpaceOnUse"
     id="linearGradient2878"
     xlink:href="#XMLID_21_"
     inkscape:collect="always" /><linearGradient
     y2="81.7672"
     x2="81.2175"
     y1="40.708"
     x1="47.1772"
     gradientTransform="matrix(0.8807244,0,0,-0.8807244,7.1136737,118.97407)"
     gradientUnits="userSpaceOnUse"
     id="linearGradient2876"
     xlink:href="#XMLID_20_"
     inkscape:collect="always" /><radialGradient
     r="21.9056"
     cy="111.8779"
     cx="28.3237"
     gradientTransform="matrix(0.8807244,0,0,-0.8807244,7.1136737,118.97407)"
     gradientUnits="userSpaceOnUse"
     id="radialGradient2874"
     xlink:href="#XMLID_19_"
     inkscape:collect="always" /><radialGradient
     r="29.1799"
     cy="3.6353"
     cx="84.2275"
     gradientTransform="matrix(0.8807244,0,0,-0.8807244,7.1136737,118.97407)"
     gradientUnits="userSpaceOnUse"
     id="radialGradient2872"
     xlink:href="#XMLID_18_"
     inkscape:collect="always" /><linearGradient
     y2="45.0119"
     x2="119.072"
     y1="20.0117"
     x1="18.7383"
     gradientTransform="matrix(0.8807244,0,0,-0.8807244,7.1136737,118.97407)"
     gradientUnits="userSpaceOnUse"
     id="linearGradient2870"
     xlink:href="#XMLID_17_"
     inkscape:collect="always" /><linearGradient
     y2="99.2332"
     x2="89.7672"
     y1="72.9668"
     x1="11.998"
     gradientTransform="matrix(0.8807244,0,0,-0.8807244,7.1136737,118.97407)"
     gradientUnits="userSpaceOnUse"
     id="linearGradient2868"
     xlink:href="#XMLID_16_"
     inkscape:collect="always" /><linearGradient
     id="linearGradient2297"><stop
       id="stop2299"
       offset="0"
       style="stop-color:#eeeeec;stop-opacity:1;" /><stop
       id="stop2301"
       offset="1"
       style="stop-color:#eeeeec;stop-opacity:0;" /></linearGradient><linearGradient
     inkscape:collect="always"
     xlink:href="#linearGradient9233"
     id="linearGradient2295"
     gradientUnits="userSpaceOnUse"
     gradientTransform="translate(22.43465,4.820297)"
     x1="-10.638614"
     y1="7.1375623"
     x2="-15.286263"
     y2="-6.2254333" /><linearGradient
     y2="-6.2254333"
     x2="-15.286263"
     y1="7.1375623"
     x1="-10.638614"
     gradientTransform="translate(22.43465,4.820297)"
     gradientUnits="userSpaceOnUse"
     id="linearGradient16129"
     xlink:href="#linearGradient9233"
     inkscape:collect="always" /><radialGradient
     r="7.0727725"
     fy="-0.12271554"
     fx="-1.7356542"
     cy="-0.12271554"
     cx="-1.7356542"
     gradientTransform="matrix(0.165071,1.084751,-0.978446,0.148892,8.093663,9.06132)"
     gradientUnits="userSpaceOnUse"
     id="radialGradient16127"
     xlink:href="#linearGradient9233"
     inkscape:collect="always" /><linearGradient
     id="linearGradient2385"><stop
       id="stop2387"
       offset="0"
       style="stop-color:#eeeeec;stop-opacity:1;" /><stop
       id="stop2389"
       offset="1"
       style="stop-color:#eeeeec;stop-opacity:0;" /></linearGradient><linearGradient
     inkscape:collect="always"
     xlink:href="#XMLID_16_"
     id="linearGradient2439"
     gradientUnits="userSpaceOnUse"
     gradientTransform="matrix(0.8807244,0,0,-0.8807244,7.1136737,118.97407)"
     x1="11.998"
     y1="72.9668"
     x2="89.7672"
     y2="99.2332" /><linearGradient
     inkscape:collect="always"
     xlink:href="#XMLID_17_"
     id="linearGradient2441"
     gradientUnits="userSpaceOnUse"
     gradientTransform="matrix(0.8807244,0,0,-0.8807244,7.1136737,118.97407)"
     x1="18.7383"
     y1="20.0117"
     x2="119.072"
     y2="45.0119" /><radialGradient
     inkscape:collect="always"
     xlink:href="#XMLID_18_"
     id="radialGradient2443"
     gradientUnits="userSpaceOnUse"
     gradientTransform="matrix(0.8807244,0,0,-0.8807244,7.1136737,118.97407)"
     cx="84.2275"
     cy="3.6353"
     r="29.1799" /><radialGradient
     inkscape:collect="always"
     xlink:href="#XMLID_19_"
     id="radialGradient2445"
     gradientUnits="userSpaceOnUse"
     gradientTransform="matrix(0.8807244,0,0,-0.8807244,7.1136737,118.97407)"
     cx="28.3237"
     cy="111.8779"
     r="21.9056" /><linearGradient
     inkscape:collect="always"
     xlink:href="#XMLID_20_"
     id="linearGradient2447"
     gradientUnits="userSpaceOnUse"
     gradientTransform="matrix(0.8807244,0,0,-0.8807244,7.1136737,118.97407)"
     x1="47.1772"
     y1="40.708"
     x2="81.2175"
     y2="81.7672" /><linearGradient
     inkscape:collect="always"
     xlink:href="#XMLID_21_"
     id="linearGradient2449"
     gradientUnits="userSpaceOnUse"
     gradientTransform="matrix(0.8807244,0,0,-0.8807244,7.1136737,118.97407)"
     x1="48.02"
     y1="41.7246"
     x2="80.3542"
     y2="80.726" /><linearGradient
     inkscape:collect="always"
     xlink:href="#XMLID_22_"
     id="linearGradient2451"
     gradientUnits="userSpaceOnUse"
     gradientTransform="matrix(0.8807244,0,0,-0.8807244,7.1136737,118.97407)"
     x1="57.5889"
     y1="54.5889"
     x2="70.5428"
     y2="67.5428" /><linearGradient
     inkscape:collect="always"
     xlink:href="#XMLID_16_"
     id="linearGradient2453"
     gradientUnits="userSpaceOnUse"
     gradientTransform="matrix(0.8807244,0,0,-0.8807244,7.1429605,118.97616)"
     x1="11.998"
     y1="72.9668"
     x2="89.7672"
     y2="99.2332" /><linearGradient
     inkscape:collect="always"
     xlink:href="#XMLID_17_"
     id="linearGradient2455"
     gradientUnits="userSpaceOnUse"
     gradientTransform="matrix(0.8807244,0,0,-0.8807244,7.1429605,118.97616)"
     x1="18.7383"
     y1="20.0117"
     x2="119.072"
     y2="45.0119" /><radialGradient
     inkscape:collect="always"
     xlink:href="#XMLID_18_"
     id="radialGradient2457"
     gradientUnits="userSpaceOnUse"
     gradientTransform="matrix(0.8807244,0,0,-0.8807244,7.1429605,118.97616)"
     cx="84.2275"
     cy="3.6353"
     r="29.1799" /><radialGradient
     inkscape:collect="always"
     xlink:href="#XMLID_19_"
     id="radialGradient2459"
     gradientUnits="userSpaceOnUse"
     gradientTransform="matrix(0.8807244,0,0,-0.8807244,7.1429605,118.97616)"
     cx="28.3237"
     cy="111.8779"
     r="21.9056" /><linearGradient
     inkscape:collect="always"
     xlink:href="#XMLID_20_"
     id="linearGradient2461"
     gradientUnits="userSpaceOnUse"
     gradientTransform="matrix(0.8807244,0,0,-0.8807244,7.1429605,118.97616)"
     x1="47.1772"
     y1="40.708"
     x2="81.2175"
     y2="81.7672" /><linearGradient
     inkscape:collect="always"
     xlink:href="#XMLID_21_"
     id="linearGradient2463"
     gradientUnits="userSpaceOnUse"
     gradientTransform="matrix(0.8807244,0,0,-0.8807244,7.1429605,118.97616)"
     x1="48.02"
     y1="41.7246"
     x2="80.3542"
     y2="80.726" /><linearGradient
     inkscape:collect="always"
     xlink:href="#XMLID_22_"
     id="linearGradient2465"
     gradientUnits="userSpaceOnUse"
     gradientTransform="matrix(0.8807244,0,0,-0.8807244,7.1429605,118.97616)"
     x1="57.5889"
     y1="54.5889"
     x2="70.5428"
     y2="67.5428" /><radialGradient
     inkscape:collect="always"
     xlink:href="#linearGradient9233"
     id="radialGradient2475"
     gradientUnits="userSpaceOnUse"
     gradientTransform="matrix(0.3512303,2.3033874,-2.0818914,0.316161,158.88026,40.881093)"
     cx="-1.7356542"
     cy="-0.12271554"
     fx="-1.7356542"
     fy="-0.12271554"
     r="7.0727725" /></defs><sodipodi:namedview
   inkscape:window-height="979"
   inkscape:window-width="1280"
   inkscape:pageshadow="2"
   inkscape:pageopacity="0.0"
   guidetolerance="10.0"
   gridtolerance="10.0"
   objecttolerance="10.0"
   borderopacity="1.0"
   bordercolor="#666666"
   pagecolor="#ffffff"
   id="base"
   inkscape:zoom="2.8284271"
   inkscape:cx="95.729292"
   inkscape:cy="53.146887"
   inkscape:window-x="0"
   inkscape:window-y="44"
   inkscape:current-layer="Layer_1" />



<linearGradient
   id="XMLID_16_"
   gradientUnits="userSpaceOnUse"
   x1="11.998"
   y1="72.9668"
   x2="89.7672"
   y2="99.2332"
   gradientTransform="matrix(0.8807244,0,0,0.8807244,7.1136737,9.0259305)">
	<stop
   offset="0"
   style="stop-color:#CED1E3"
   id="stop10" />
	<stop
   offset="0.1854"
   style="stop-color:#E7E6F0"
   id="stop12" />
	<stop
   offset="0.618"
   style="stop-color:#E7E6F0"
   id="stop14" />
	<stop
   offset="0.8933"
   style="stop-color:#DBC0C4"
   id="stop16" />
	<stop
   offset="1"
   style="stop-color:#D8BDB6"
   id="stop18" />
</linearGradient>

<linearGradient
   id="XMLID_17_"
   gradientUnits="userSpaceOnUse"
   x1="18.7383"
   y1="20.0117"
   x2="119.072"
   y2="45.0119"
   gradientTransform="matrix(0.8807244,0,0,0.8807244,7.1136737,9.0259305)">
	<stop
   offset="0"
   style="stop-color:#BBDBD8"
   id="stop23" />
	<stop
   offset="0.3708"
   style="stop-color:#DFECDB"
   id="stop25" />
	<stop
   offset="0.6798"
   style="stop-color:#DFECDB"
   id="stop27" />
	<stop
   offset="1"
   style="stop-color:#E2E3C9"
   id="stop29" />
</linearGradient>







<radialGradient
   id="XMLID_18_"
   cx="84.2275"
   cy="3.6353"
   r="29.1799"
   gradientUnits="userSpaceOnUse"
   gradientTransform="matrix(0.8807244,0,0,0.8807244,7.1136737,9.0259305)">
	<stop
   offset="0.4101"
   style="stop-color:#FFFFFF"
   id="stop46" />
	<stop
   offset="1"
   style="stop-color:#DFECDB"
   id="stop48" />
</radialGradient>

<radialGradient
   id="XMLID_19_"
   cx="28.3237"
   cy="111.8779"
   r="21.9056"
   gradientUnits="userSpaceOnUse"
   gradientTransform="matrix(0.8807244,0,0,0.8807244,7.1136737,9.0259305)">
	<stop
   offset="0"
   style="stop-color:#FFFFFF"
   id="stop53" />
	<stop
   offset="1"
   style="stop-color:#E7E6F0"
   id="stop55" />
</radialGradient>

<linearGradient
   id="XMLID_20_"
   gradientUnits="userSpaceOnUse"
   x1="47.1772"
   y1="40.708"
   x2="81.2175"
   y2="81.7672"
   gradientTransform="matrix(0.8807244,0,0,0.8807244,7.1136737,9.0259305)">
	<stop
   offset="0"
   style="stop-color:#879B95"
   id="stop60" />
	<stop
   offset="0.5056"
   style="stop-color:#8E8E9C"
   id="stop62" />
	<stop
   offset="1"
   style="stop-color:#9B8A91"
   id="stop64" />
</linearGradient>

<linearGradient
   id="XMLID_21_"
   gradientUnits="userSpaceOnUse"
   x1="48.02"
   y1="41.7246"
   x2="80.3542"
   y2="80.726"
   gradientTransform="matrix(0.8807244,0,0,0.8807244,7.1136737,9.0259305)">
	<stop
   offset="0"
   style="stop-color:#879B95"
   id="stop69" />
	<stop
   offset="0.5056"
   style="stop-color:#8E8E9C"
   id="stop71" />
	<stop
   offset="1"
   style="stop-color:#9B8A91"
   id="stop73" />
</linearGradient>

<linearGradient
   id="XMLID_22_"
   gradientUnits="userSpaceOnUse"
   x1="57.5889"
   y1="54.5889"
   x2="70.5428"
   y2="67.5428"
   gradientTransform="matrix(0.8807244,0,0,0.8807244,7.1136737,9.0259305)">
	<stop
   offset="0"
   style="stop-color:#BBDBD8"
   id="stop78" />
	<stop
   offset="1"
   style="stop-color:#D8BDB6"
   id="stop80" />
</linearGradient>





<g
   id="g2887"
   transform="matrix(0.9837109,-0.1797576,0.1797576,0.9837109,-7.2918108,14.619012)"><path
     id="path2304"
     d="M 77.25,12.53125 L 76.28125,27.78125 L 71,26.15625 L 68.96875,50.78125 L 64.46875,48.96875 L 64.71875,57.125 C 68.305688,57.665681 71.0625,60.763999 71.0625,64.5 C 71.0625,68.617386 67.70849,71.96875 63.59375,71.96875 C 61.929896,71.96875 60.398796,71.424298 59.15625,70.5 L 55.09375,79.9375 L 49.8125,75.65625 L 44.09375,97.03125 L 39.625,92.5625 L 33.8125,109.1875 C 42.346494,114.89934 52.575827,118.25 63.59375,118.25 C 93.21779,118.25 117.3125,94.125806 117.3125,64.5 C 117.3125,39.59399 100.28058,18.589067 77.25,12.53125 z "
     style="opacity:0.2;fill:#3d3d3d" /><path
     id="path2306"
     d="M 77.3125,11.6875 L 76.28125,27.78125 L 71,26.15625 L 68.96875,50.78125 L 64.46875,48.96875 L 64.6875,56.25 C 68.289866,56.777127 71.0625,59.878003 71.0625,63.625 C 71.0625,67.742388 67.70849,71.09375 63.59375,71.09375 C 62.050719,71.093749 60.628852,70.618079 59.4375,69.8125 L 55.09375,79.9375 L 49.8125,75.65625 L 44.09375,97.03125 L 39.625,92.5625 L 34.0625,108.46875 C 42.544496,114.07506 52.687316,117.34375 63.59375,117.34375 C 93.21779,117.34375 117.3125,93.250806 117.3125,63.625 C 117.3125,38.743183 100.30906,17.768424 77.3125,11.6875 z "
     style="opacity:0.2;fill:#3d3d3d" /><path
     id="path2308"
     d="M 77.34375,10.84375 L 76.28125,27.78125 L 71,26.15625 L 68.96875,50.78125 L 64.46875,48.96875 L 64.6875,55.8125 C 68.013763,56.374658 70.5625,59.266339 70.5625,62.75 C 70.562502,66.635755 67.38488,69.78125 63.5,69.78125 C 62.172128,69.78125 60.936393,69.422418 59.875,68.78125 L 55.09375,79.9375 L 49.8125,75.65625 L 44.09375,97.03125 L 39.625,92.5625 L 34.28125,107.78125 C 42.70263,113.26764 52.721181,116.46875 63.5,116.46875 C 93.124039,116.46875 117.21875,92.374045 117.21875,62.75 C 117.21875,37.912981 100.27732,16.967263 77.34375,10.84375 z "
     style="opacity:0.6;fill:#3d3d3d" /><path
     id="path2310"
     d="M 71.1875,66 C 69.921022,68.991818 66.95508,71.09375 63.5,71.09375 C 61.995352,71.093751 60.59384,70.696639 59.375,70 L 55.09375,79.9375 L 49.8125,75.65625 L 44.09375,97.03125 L 39.625,92.5625 L 34.59375,106.96875 C 42.903082,112.41265 52.824712,115.59375 63.5,115.59375 C 88.022889,115.59375 108.66338,98.869219 114.625,76.21875 L 71.1875,66 z "
     style="fill:url(#linearGradient2453)" /><path
     id="path2312"
     d="M 77.3125,11.71875 L 76.28125,27.78125 L 71,26.15625 L 68.96875,50.78125 L 64.46875,48.96875 L 64.625,54.46875 C 68.708993,55.011479 71.84375,58.518277 71.84375,62.75 C 71.843749,63.903748 71.61113,65.001259 71.1875,66 L 114.625,76.21875 C 115.75673,71.91289 116.34375,67.410793 116.34375,62.75 C 116.34375,38.341464 99.803029,17.788384 77.3125,11.71875 z "
     style="fill:url(#linearGradient2455)" /><path
     style="fill:#ebdfda"
     id="path2320"
     d="M 112.93204,81.459897 L 70.776171,66.839872 C 70.491691,67.343647 70.154381,67.813073 69.774781,68.245508 L 104.64354,95.905538 C 108.12153,91.596153 110.93544,86.730151 112.93204,81.459897 z " /><path
     style="fill:#d7c8b4"
     id="path2322"
     d="M 115.67198,71.201219 L 71.820711,63.402405 C 71.723831,64.645988 71.358331,65.810306 70.776171,66.840753 L 112.93204,81.460777 C 114.17298,78.182721 115.10039,74.7523 115.67198,71.201219 z " /><path
     style="fill:#f0eee3"
     id="path2324"
     d="M 71.853291,62.748027 C 71.853291,62.969089 71.836561,63.185747 71.820711,63.402405 L 115.67198,71.201219 C 116.1141,68.448075 116.35278,65.626234 116.35278,62.748027 C 116.35278,60.751425 116.23212,58.783887 116.01634,56.845412 L 71.781071,61.710534 C 71.823351,62.050493 71.853291,62.395737 71.853291,62.748027 z " /><path
     id="path2326"
     d="M 77.3125,11.75 L 76.28125,27.78125 L 71,26.15625 L 70.21875,35.71875 C 71.423978,36.392858 72.684203,37.021256 74,37.5625 C 86.008671,42.502484 98.937031,40.159172 106.875,32.59375 C 99.866694,22.533216 89.461736,15.033731 77.3125,11.75 z "
     style="fill:url(#radialGradient2457)" /><path
     id="path2328"
     d="M 39.625,92.5625 L 34.59375,106.9375 C 39.831507,110.37161 45.689415,112.91099 52,114.3125 C 53.841705,106.69783 51.018743,98.719146 44.96875,93.8125 L 44.09375,97.03125 L 39.625,92.5625 z "
     style="fill:url(#radialGradient2459)" /><path
     id="path2330"
     d="M 69.84375,40.1875 L 68.96875,50.78125 L 64.46875,48.96875 L 64.625,54.03125 C 68.949688,54.580137 72.28125,58.276676 72.28125,62.75 C 72.281253,67.601909 68.35279,71.53125 63.5,71.53125 C 61.933302,71.53125 60.460863,71.12461 59.1875,70.40625 L 55.09375,79.9375 L 49.8125,75.65625 L 48.46875,80.6875 C 52.53758,84.097798 57.775807,86.1875 63.5,86.1875 C 76.436079,86.1875 86.9375,75.68696 86.9375,62.75 C 86.937497,52.006099 79.704851,42.949101 69.84375,40.1875 z "
     style="opacity:0.2;fill:url(#linearGradient2461)" /><path
     id="path2332"
     d="M 69.75,41.375 L 68.96875,50.78125 L 64.46875,48.96875 L 64.625,54.46875 C 68.709554,55.011479 71.84375,58.518277 71.84375,62.75 C 71.843747,67.357949 68.10883,71.09375 63.5,71.09375 C 61.995352,71.09375 60.59384,70.696639 59.375,70 L 55.09375,79.9375 L 49.8125,75.65625 L 48.8125,79.4375 C 52.733499,82.893614 57.863039,85 63.5,85 C 75.786989,85.000001 85.75,75.037866 85.75,62.75 C 85.750002,52.628416 78.999264,44.073195 69.75,41.375 z "
     style="fill:url(#linearGradient2463)" /><path
     id="path2334"
     d="M 64.625,54.03125 L 64.625,54.46875 C 68.720559,55.012894 71.875,58.506145 71.875,62.75 C 71.875001,67.37116 68.12204,71.125 63.5,71.125 C 61.979964,71.125001 60.572045,70.708134 59.34375,70 L 59.1875,70.40625 C 60.467462,71.131625 61.923735,71.5625 63.5,71.5625 C 68.363359,71.562504 72.3125,67.61336 72.3125,62.75 C 72.3125,58.265777 68.958948,54.582209 64.625,54.03125 z "
     style="fill:url(#linearGradient2465)" /><path
     sodipodi:nodetypes="ccsccscccccc"
     style="opacity:0.07999998;fill:#ffffff"
     id="path2336"
     d="M 85.608451,60.189523 L 71.781951,61.710534 C 71.823351,62.050493 71.853291,62.395737 71.853291,62.748027 C 71.853291,62.969089 71.836561,63.185747 71.820711,63.402405 L 85.539751,65.842892 C 85.680671,64.83094 85.759051,63.798731 85.759051,62.748027 C 85.759051,61.882275 85.703561,61.029734 85.608451,60.189523 z M 69.774781,68.245508 L 80.680791,76.895983 C 82.035351,75.254313 83.158271,73.41448 84.002001,71.426685 L 70.776171,66.839872 C 70.491691,67.344527 70.154381,67.813953 69.774781,68.245508 z " /></g><g
   id="g2850"
   transform="matrix(0.8687089,-0.4953229,0.4953229,0.8687089,-21.211686,36.805814)"
   inkscape:transform-center-y="-7.1933514"
   inkscape:transform-center-x="5.002255"><g
     id="g2597"><path
       style="opacity:0.2;fill:#3d3d3d"
       d="M 63.5625,10.78125 C 33.938454,10.78125 9.84375,34.875955 9.84375,64.5 C 9.8437503,83.112285 19.363191,99.574145 33.78125,109.21875 L 39.625,92.5625 L 44.09375,97.03125 L 49.8125,75.65625 L 55.09375,79.9375 L 59.15625,70.5 C 57.319571,69.139057 56.09375,66.957486 56.09375,64.5 C 56.093751,60.385255 59.446875,57.0625 63.5625,57.0625 C 63.954471,57.0625 64.342917,57.097724 64.71875,57.15625 L 64.46875,48.96875 L 68.96875,50.78125 L 71,26.15625 L 76.28125,27.78125 L 77.25,12.5625 C 72.876034,11.408613 68.293977,10.78125 63.5625,10.78125 z "
       id="path2337" /><path
       style="opacity:0.2;fill:#3d3d3d"
       d="M 63.5625,9.90625 C 33.938454,9.9062496 9.84375,34.000956 9.84375,63.625 C 9.8437502,73.894578 12.919879,83.60381 18.100706,91.865353 C 22.366838,98.66829 28.060089,104.4896 34.638062,108.83384 L 40.137221,94.299908 L 44.605971,98.768658 L 50.324721,77.393658 L 55.605971,81.674908 L 60.013062,70.177587 C 58.015184,68.836891 56.09375,66.207828 56.09375,63.625 C 56.093751,59.510257 59.446875,56.15625 63.5625,56.15625 C 63.942043,56.15625 64.323022,56.19506 64.6875,56.25 L 64.46875,48.96875 L 68.96875,50.78125 L 71,26.15625 L 76.28125,27.78125 L 77.3125,11.6875 C 72.920875,10.523584 68.315192,9.90625 63.5625,9.90625 z "
       id="path2339"
       sodipodi:nodetypes="cssccccccssccccccc" /><path
       style="opacity:0.6;fill:#3d3d3d"
       d="M 63.46875,9.03125 C 33.844704,9.0312501 9.75,33.125955 9.75,62.75 C 9.7500002,81.610597 20.11311,98.589059 34.856812,108.17759 L 39.835474,93.503149 L 44.304224,97.971899 L 50.022974,76.596899 L 55.304224,80.878149 L 60.450562,69.146337 C 58.393986,67.914641 56.4375,65.317159 56.4375,62.75 C 56.4375,58.865124 59.583875,55.71875 63.46875,55.71875 C 63.880344,55.71875 64.295056,55.744436 64.6875,55.8125 L 64.46875,48.96875 L 68.96875,50.78125 L 71,26.15625 L 76.28125,27.78125 L 77.34375,10.84375 C 72.922085,9.6626556 68.257588,9.03125 63.46875,9.03125 z "
       id="path2341"
       sodipodi:nodetypes="csccccccssccccccc" /><path
       style="fill:url(#linearGradient2439)"
       d="M 11.75,52 C 11.031329,55.471817 10.625,59.064168 10.625,62.75 C 10.625,81.265577 20.178699,97.53185 34.59375,106.96875 L 39.625,92.5625 L 44.09375,97.03125 L 49.8125,75.65625 L 55.09375,79.9375 L 59.34375,70 C 56.829205,68.562789 55.125,65.854183 55.125,62.75 C 55.124999,62.574735 55.145681,62.391372 55.15625,62.21875 L 11.75,52 z "
       id="path2343" /><path
       style="fill:url(#linearGradient2441)"
       d="M 63.46875,9.90625 C 37.970017,9.9062496 16.718166,27.972958 11.75,52 L 55.15625,62.21875 C 55.425751,57.853878 59.035184,54.40625 63.46875,54.40625 C 63.855872,54.40625 64.251902,54.41773 64.625,54.46875 L 64.46875,48.96875 L 68.96875,50.78125 L 71,26.15625 L 76.28125,27.78125 L 77.3125,11.75 C 72.901383,10.556046 68.257455,9.90625 63.46875,9.90625 z "
       id="path2345" /><path
       d="M 13.683877,45.05108 L 56.283634,58.541135 C 56.548732,58.088443 56.853462,57.664814 57.196064,57.272011 L 21.583094,30.562284 C 18.238983,34.908658 15.555416,39.78611 13.683877,45.05108 z "
       id="path2347"
       style="fill:#dce8eb" /><path
       d="M 55.13605,62.750117 C 55.13605,62.196141 55.192416,61.655377 55.296342,61.131346 L 11.180858,55.212878 C 10.828569,57.676264 10.636571,60.189851 10.636571,62.750117 C 10.636571,65.504142 10.848825,68.207966 11.254839,70.847497 L 55.143976,62.891914 C 55.143096,62.844354 55.13605,62.798557 55.13605,62.750117 z "
       id="path2349"
       style="fill:#e6e9f0" /><path
       d="M 11.180858,55.212878 L 55.296342,61.131346 C 55.479532,60.202181 55.820373,59.332026 56.283634,58.542016 L 13.683877,45.05108 C 12.527486,48.304476 11.681991,51.702311 11.180858,55.212878 z "
       id="path2351"
       style="fill:#bacbd8" /><path
       style="fill:url(#radialGradient2443)"
       d="M 63.46875,9.90625 C 60.255866,9.9062496 57.117733,10.200428 54.0625,10.75 C 54.301303,20.562112 60.364709,30.254194 70.21875,35.75 L 71,26.15625 L 76.28125,27.78125 L 77.3125,11.75 C 72.904986,10.5567 68.254303,9.90625 63.46875,9.90625 z "
       id="path2353" /><path
       style="fill:url(#radialGradient2445)"
       d="M 31.96875,89.15625 C 27.670402,89.120427 23.513839,90.432767 20.0625,92.84375 C 23.948458,98.440615 28.888603,103.23483 34.59375,106.96875 L 39.625,92.5625 L 44.09375,97.03125 L 44.9375,93.84375 C 43.394804,92.590043 41.655794,91.515144 39.71875,90.71875 C 37.179622,89.674102 34.547759,89.177744 31.96875,89.15625 z "
       id="path2355" /><path
       style="opacity:0.2;fill:url(#linearGradient2447)"
       d="M 63.46875,39.3125 C 50.532669,39.312498 40.0625,49.812159 40.0625,62.75 C 40.062499,69.970817 43.331328,76.421627 48.46875,80.71875 L 49.8125,75.65625 L 55.09375,79.9375 L 59.1875,70.40625 C 56.503756,68.903082 54.6875,66.045116 54.6875,62.75 C 54.687502,57.898969 58.615959,53.96875 63.46875,53.96875 C 63.857903,53.96875 64.249248,53.982227 64.625,54.03125 L 64.46875,48.96875 L 68.96875,50.78125 L 69.84375,40.21875 C 67.818859,39.647989 65.676121,39.3125 63.46875,39.3125 z "
       id="path2357" /><path
       style="fill:url(#linearGradient2449)"
       d="M 63.46875,40.5 C 51.181763,40.499999 41.21875,50.461253 41.21875,62.75 C 41.21875,69.400502 44.155574,75.360258 48.78125,79.4375 L 49.8125,75.65625 L 55.09375,79.9375 L 59.34375,70 C 56.829205,68.562789 55.125,65.854183 55.125,62.75 C 55.124999,58.142049 58.859039,54.40625 63.46875,54.40625 C 63.855946,54.40625 64.251851,54.41773 64.625,54.46875 L 64.46875,48.96875 L 68.96875,50.78125 L 69.75,41.40625 C 67.758746,40.821599 65.649054,40.5 63.46875,40.5 z "
       id="path2359" /><path
       style="fill:url(#linearGradient2451)"
       d="M 63.46875,53.9375 C 58.604508,53.937502 54.6875,57.885759 54.6875,62.75 C 54.687499,66.043249 56.478472,68.926567 59.15625,70.4375 L 59.34375,70 C 56.824096,68.558297 55.125,65.861145 55.125,62.75 C 55.124999,58.128838 58.846709,54.375 63.46875,54.375 C 63.856981,54.375 64.250846,54.417597 64.625,54.46875 L 64.625,54.03125 C 64.24784,53.98195 63.859339,53.9375 63.46875,53.9375 z "
       id="path2361" /><path
       d="M 41.501556,59.280944 C 41.32453,60.411794 41.230293,61.569946 41.230293,62.750117 C 41.230293,63.642291 41.288421,64.520373 41.391465,65.385244 L 55.143976,62.891914 C 55.143096,62.844354 55.136931,62.797676 55.136931,62.749236 C 55.136931,62.195261 55.193297,61.654496 55.297222,61.130465 L 41.501556,59.280944 z M 42.894862,54.302209 L 56.283634,58.542016 C 56.548732,58.089324 56.853462,57.665695 57.196064,57.272892 L 46.058424,48.919222 C 44.766401,50.544158 43.696321,52.352285 42.894862,54.302209 z "
       id="path2363"
       style="opacity:0.07999998;fill:#ffffff"
       sodipodi:nodetypes="csccsccccccc" /></g><path
     id="path2338"
     d="M 63.5,9.90625 C 34.316319,9.9062504 10.65625,33.566317 10.65625,62.75 C 10.65625,81.175633 20.10857,97.386537 34.40625,106.84375 C 20.541891,97.405917 11.4375,81.425477 11.4375,63.3125 C 11.4375,34.316411 34.77645,10.8125 63.59375,10.8125 C 68.311412,10.8125 72.903312,11.444021 77.25,12.625 L 77.3125,11.71875 C 72.91258,10.531321 68.275148,9.90625 63.5,9.90625 z "
     style="opacity:0.5;fill:#ffffff" /></g><path
   d="M 125.5,29.22202 C 125.5,42.678662 114.53097,53.587425 101,53.587425 C 87.469022,53.587425 76.499998,42.678662 76.499998,29.22202 C 76.499998,15.765379 87.469022,4.856615 101,4.856615 C 114.53097,4.856615 125.5,15.765379 125.5,29.22202 L 125.5,29.22202 z "
   style="fill:#e62f14;fill-opacity:1;fill-rule:evenodd;stroke:none;stroke-width:1px;stroke-linecap:butt;stroke-linejoin:miter;stroke-opacity:1"
   id="path14961" /><g
   transform="matrix(3.4639881,0,0,3.4807706,73.480883,1.0816871)"
   id="g2901"><rect
     style="fill:none;fill-opacity:1;stroke:none;stroke-width:1.55158257;stroke-linecap:round;stroke-linejoin:round;stroke-miterlimit:4;stroke-dasharray:none;stroke-opacity:1"
     id="rect2942"
     width="5.4196706"
     height="3.3571696"
     x="1.8729681"
     y="7.4712706"
     transform="matrix(0.963005,-0.269485,0.269485,0.963005,0,0)" /><g
     inkscape:label="Layer 1"
     id="layer1"
     transform="translate(4.12207e-2,7.47524e-2)"><path
       sodipodi:nodetypes="cscssscc"
       id="path2394"
       d="M 7.9427597,0.86404707 C 4.0385897,0.86404707 0.84900969,4.0000455 0.84900969,7.8640471 C 0.84900969,8.0858123 0.86349668,8.4076816 0.88391068,8.6241956 C 1.3397607,8.3659402 1.7383699,8.0386301 2.2682039,7.8091296 C 3.7929949,7.1486588 5.5835057,6.4835094 7.5990097,6.1140471 C 9.6145137,5.7445847 11.805164,5.551547 14.13026,5.551547 C 14.274086,5.551547 14.393542,5.5812424 14.53651,5.582797 C 13.570792,2.8541184 11.028181,0.86404707 7.9427597,0.86404707 z "
       style="fill:url(#linearGradient17223);fill-opacity:1;fill-rule:evenodd;stroke:none;stroke-width:1px;stroke-linecap:butt;stroke-linejoin:miter;stroke-opacity:1" /></g></g><rect
   y="14.412305"
   x="98.478271"
   height="18.98728"
   width="6.3805857"
   id="rect9207"
   style="fill:#ffffff;fill-opacity:1;stroke:#ffffff;stroke-width:2.95396399;stroke-linecap:round;stroke-linejoin:round;stroke-miterlimit:4;stroke-dasharray:none;stroke-opacity:1" /><rect
   y="38.854691"
   x="98.037941"
   height="6.698246"
   width="7.4409399"
   id="rect9209"
   style="fill:#ffffff;fill-opacity:1;stroke:#ffffff;stroke-width:1.8946892;stroke-linecap:round;stroke-linejoin:round;stroke-miterlimit:4;stroke-dasharray:none;stroke-opacity:1" /></svg>