<?xml version="1.0" encoding="UTF-8" standalone="no"?>
<!-- Created with Inkscape (http://www.inkscape.org/) -->
<svg
   xmlns:ns="http://creativecommons.org/ns#"
   xmlns:dc="http://purl.org/dc/elements/1.1/"
   xmlns:cc="http://web.resource.org/cc/"
   xmlns:rdf="http://www.w3.org/1999/02/22-rdf-syntax-ns#"
   xmlns:svg="http://www.w3.org/2000/svg"
   xmlns="http://www.w3.org/2000/svg"
   xmlns:sodipodi="http://sodipodi.sourceforge.net/DTD/sodipodi-0.dtd"
   xmlns:inkscape="http://www.inkscape.org/namespaces/inkscape"
   version="1.0"
   width="50"
   height="30"
   id="svg2"
   sodipodi:version="0.32"
   inkscape:version="0.45.1"
   sodipodi:docname="broken.svg"
   inkscape:output_extension="org.inkscape.output.svg.inkscape"
   sodipodi:docbase="/home/changfu/.cairo-dock/stacks/nVidia/data">
  <sodipodi:namedview
     inkscape:window-height="856"
     inkscape:window-width="1438"
     inkscape:pageshadow="2"
     inkscape:pageopacity="0.0"
     guidetolerance="10.0"
     gridtolerance="10.0"
     objecttolerance="10.0"
     borderopacity="1.0"
     bordercolor="#666666"
     pagecolor="#ffffff"
     id="base"
     showgrid="false"
     inkscape:zoom="5.89"
     inkscape:cx="41.511036"
     inkscape:cy="15"
     inkscape:window-x="1"
     inkscape:window-y="43"
     inkscape:current-layer="svg2" />
  <metadata
     id="metadata2444">
    <rdf:RDF>
      <ns:Work
         rdf:about="">
        <dc:format>image/svg+xml</dc:format>
        <dc:type
           rdf:resource="http://purl.org/dc/dcmitype/StillImage" />
      </ns:Work>
      <cc:Work
         rdf:about="">
        <dc:format>image/svg+xml</dc:format>
        <dc:type
           rdf:resource="http://purl.org/dc/dcmitype/StillImage" />
      </cc:Work>
    </rdf:RDF>
  </metadata>
  <defs
     id="defs24">
    <inkscape:perspective
       id="perspective2446"
       inkscape:vp_y="0 : 1000 : 0"
       inkscape:vp_x="0 : 160 : 1"
       inkscape:vp_z="400 : 160 : 1"
       inkscape:persp3d-origin="200 : 106.66667 : 1"
       sodipodi:type="inkscape:persp3d" />
    <clipPath
       id="clippath1">
      <path
         id="path9"
         d="M 0,332 L 0,792 L 480,792 L 480,332 L 0,332 z" />
    </clipPath>
  </defs>
  <title
     id="title4">generated by pstoedit version:3.44 from NVBadge_2D.eps</title>
  <path
     id="path21"
     d="M 9.2082499,13.231738 C 9.2082499,13.231738 12.776939,7.9663981 19.902428,7.4218335 L 19.902428,5.511417 C 12.010046,6.1452627 5.1756007,12.829737 5.1756007,12.829737 C 5.1756007,12.829737 9.0464979,24.020111 19.902428,25.044698 L 19.902428,23.014238 C 11.935671,22.01185 9.2082499,13.231738 9.2082499,13.231738 z M 19.902428,18.975991 L 19.902428,20.835503 C 13.881451,19.762074 12.210174,13.50307 12.210174,13.50307 C 12.210174,13.50307 15.101092,10.300541 19.902428,9.7813499 L 19.902428,11.821801 C 19.898779,11.821801 19.896242,11.820691 19.893229,11.820691 C 17.373229,11.518279 15.404615,13.872243 15.404615,13.872243 C 15.404615,13.872243 16.507858,17.835482 19.902428,18.975991 M 19.902428,1.988081 L 19.902428,5.511417 C 20.134111,5.4934972 20.365798,5.4785912 20.598752,5.4706624 C 29.571539,5.1682497 35.417919,12.829737 35.417919,12.829737 C 35.417919,12.829737 28.703155,20.994718 21.707545,20.994718 C 21.066406,20.994718 20.466179,20.935249 19.902428,20.835503 L 19.902428,23.014238 C 20.384511,23.075448 20.884355,23.111447 21.405925,23.111447 C 27.915803,23.111447 32.623574,19.786812 37.182122,15.85196 C 37.937918,16.457261 41.032134,17.929678 41.668202,18.574465 C 37.333887,22.203258 27.232479,25.128429 21.505673,25.128429 C 20.953655,25.128429 20.423522,25.09497 19.902428,25.044698 L 19.902428,28.106091 L 44.646018,28.106091 L 44.646018,1.988081 L 19.902428,1.988081 z M 19.902428,9.7813499 L 19.902428,7.4218335 C 20.131734,7.4058174 20.362785,7.3934477 20.598752,7.3859947 C 27.051065,7.183329 31.284367,12.930753 31.284367,12.930753 C 31.284367,12.930753 26.712181,19.280782 21.809831,19.280782 C 21.104307,19.280782 20.471729,19.167398 19.902428,18.975991 L 19.902428,11.821801 C 22.414337,12.125323 22.919892,13.234911 24.43005,15.752371 L 27.788783,12.920129 C 27.788783,12.920129 25.336972,9.7045959 21.203894,9.7045959 C 20.75432,9.7045959 20.324409,9.7361529 19.902428,9.7813499"
     style="fill:#919191;fill-opacity:1;fill-rule:nonzero;stroke-width:0;stroke-linecap:butt;stroke-linejoin:miter;stroke-miterlimit:10" />
</svg>
