<?xml version="1.0" encoding="UTF-8" standalone="no"?>
<!-- Generator: Adobe Illustrator 12.0.0, SVG Export Plug-In . SVG Version: 6.00 Build 51448)  -->
<svg
   xmlns:dc="http://purl.org/dc/elements/1.1/"
   xmlns:cc="http://web.resource.org/cc/"
   xmlns:rdf="http://www.w3.org/1999/02/22-rdf-syntax-ns#"
   xmlns:svg="http://www.w3.org/2000/svg"
   xmlns="http://www.w3.org/2000/svg"
   xmlns:sodipodi="http://sodipodi.sourceforge.net/DTD/sodipodi-0.dtd"
   xmlns:inkscape="http://www.inkscape.org/namespaces/inkscape"
   height="48"
   id="Layer_1"
   inkscape:version="0.45.1"
   sodipodi:docbase="/opt/cairo-dock/trunk/plug-ins/showDesklets/data"
   sodipodi:docname="hide-desklets.svg"
   sodipodi:version="0.32"
   style="overflow:visible;enable-background:new 0 0 257.226 166.406;"
   version="1.0"
   viewBox="0 0 257.226 166.406"
   width="48"
   xml:space="preserve"
   inkscape:output_extension="org.inkscape.output.svg.inkscape"><metadata
   id="metadata35387"><rdf:RDF><cc:Work
       rdf:about=""><dc:title>Lampada di Aladino (Aladin)</dc:title><dc:description /><dc:subject><rdf:Bag><rdf:li>unsorted</rdf:li></rdf:Bag></dc:subject><dc:publisher><cc:Agent
           rdf:about="http://www.openclipart.org"><dc:title>Architetto Francesco Rollandin</dc:title></cc:Agent></dc:publisher><dc:creator><cc:Agent><dc:title>Architetto Francesco Rollandin</dc:title></cc:Agent></dc:creator><dc:rights><cc:Agent><dc:title>Architetto Francesco Rollandin</dc:title></cc:Agent></dc:rights><dc:date /><dc:format>image/svg+xml</dc:format><dc:type
         rdf:resource="http://purl.org/dc/dcmitype/StillImage" /><cc:license
         rdf:resource="http://web.resource.org/cc/PublicDomain" /><dc:language>en</dc:language></cc:Work><cc:License
       rdf:about="http://web.resource.org/cc/PublicDomain"><cc:permits
         rdf:resource="http://web.resource.org/cc/Reproduction" /><cc:permits
         rdf:resource="http://web.resource.org/cc/Distribution" /><cc:permits
         rdf:resource="http://web.resource.org/cc/DerivativeWorks" /></cc:License></rdf:RDF></metadata>
<defs
   id="defs138" />
<sodipodi:namedview
   bordercolor="#666666"
   borderopacity="1.0"
   id="base"
   inkscape:current-layer="g3"
   inkscape:cx="40.059418"
   inkscape:cy="24.371653"
   inkscape:pageopacity="0.0"
   inkscape:pageshadow="2"
   inkscape:window-height="627"
   inkscape:window-width="910"
   inkscape:window-x="22"
   inkscape:window-y="45"
   inkscape:zoom="6.2016779"
   pagecolor="#ffffff"
   width="48px"
   height="48px" />

<g
   id="g3"
   transform="matrix(0.9509886,0,0,1.0283202,4.8301137,37.642777)">
	<path
   d="M 74.164,96.810348 C 42.522,94.347 1.828,77.875882 0.066,40.753022 C -0.824,21.982106 7.242,6.8991459 25.378,0.24103855 C 42.468,-6.0334325 60.457,4.7891467 71.202,17.617739 C 82.257,30.816844 81.125,52.370132 68.141,63.293668 C 55.222,74.162687 33.528,72.364645 26.121,55.915738 C 20.218,42.806485 24.49,17.642979 44.032,26.404018 C 47.78,28.084951 50.174,30.771413 51.99,34.439177 C 53.974,38.447167 58.071,39.534472 58.905,44.558087 C 60.455,53.893571 44.886,57.261493 43.364,48.001727 C 42.524,42.894317 47.62,29.455945 38.157,31.761801 C 30.413,33.648685 31.566,47.158737 32.851,52.997074 C 34.602,60.948439 42.642,66.744375 50.663,65.816581 C 59.466,64.797926 64.242,57.22313 66.803,49.458535 C 72.048,33.552776 61.035,12.274091 46.201,6.0319261 C 28.091,-1.58931 12.096,13.000981 9.43,30.479648 C 5.452,56.553786 23.257,78.392781 49.529,80.355383 C 55.238,80.781421 60.5,79.21659 65.54,76.672476 C 71.979,73.421664 74.251,70.17489 80.831,75.346912 C 85.557,79.061116 88.189,85.398181 88.189,91.237527 C 88.188,96.940583 77.728,97.988515 74.164,96.810348"
   id="path5" />

	<path
   d="M 81.363,92.600445 C 64.563,91.056815 48.1,88.647983 32.473,81.8869 C 17.938,75.597285 3.636,60.105449 2.002,43.637361 C 0.184,25.314693 6.236,9.5310921 24.134,2.2985401 C 39.574,-3.9416057 58.9,3.921927 68.633,16.697013 C 78.859,30.118223 80.873,51.793668 66.203,62.754558 C 51.5,73.739678 31.506,68.575733 26.207,50.725544 C 24.543,45.120417 25.728,32.104045 31.546,29.167209 C 40.287,24.755392 47.352,27.484257 51.134,36.649124 C 52.499,39.956472 57.329,41.228529 57.487,45.53535 C 57.625,49.30609 53.878,51.64829 50.287,50.893133 C 39.722,48.673091 49.105,36.854067 45.345,31.166155 C 39.674,22.586838 30.433,29.390323 28.872,37.308373 C 27.562,43.948307 26.981,55.04448 31.751,60.553698 C 44.807,75.631611 67.306,66.869561 69.615,47.8301 C 71.477,32.476575 64.109,11.953048 49.667,4.6629506 C 36.186,-2.1425538 12.647,0.63477044 7.68,18.160887 C 3.768,31.961695 2.988,44.170413 9.495,57.302886 C 15.033,68.478814 28.231,77.166155 39.846,80.514895 C 46.111,82.321014 52.816,83.483028 59.274,81.706187 C 64.87,80.166594 71.259,74.148553 76.436,73.85174 C 82.074,73.528678 88.847,79.207503 91.976,83.417406 C 98.102,91.655489 86.963,92.395503 81.363,92.600445"
   id="path7"
   style="fill:#6b7419" />

	<path
   d="M 78.713,151.52596 C 83.847,141.79169 103.991,144.58113 113.201,139.28089 C 118.242,136.38041 124.362,128.57845 117.82,123.86276 C 111.257,119.13091 103.969,117.52569 96.523,114.79279 C 121.539,114.79279 146.555,114.79279 171.571,114.79279 C 164.631,117.33993 154.111,118.63925 149.192,124.85517 C 143.411,132.15939 153.38,139.25263 159.712,140.99313 C 167.125,143.03145 177.627,143.10716 184.171,147.23327 C 185.971,148.36803 188.782,149.58455 189.004,151.52697 C 189.484,155.72475 182.921,158.42131 179.993,159.65299 C 164.091,166.34138 144.265,166.88453 127.308,166.16571 C 118.681,165.80126 110.379,164.81391 101.853,163.45099 C 96.401,162.57872 81.506,160.06085 79.652,153.51178 C 79.525,153.06151 78.753,151.63903 78.713,151.52596"
   id="path9" />

	<path
   d="M 85.535,151.52596 C 87.912,146.02078 99.392,146.62248 104.427,145.98544 C 111.752,145.05866 119.841,144.67199 126.253,140.78919 C 131.971,137.32435 131.561,128.25438 128.378,123.42461 C 124.457,117.47319 115.79,116.22436 109.412,114.79279 C 127.352,114.79279 145.292,114.79279 163.232,114.79279 C 155.952,117.46512 147.545,119.29446 143.818,126.82584 C 140.214,134.10483 151.31,139.77457 156.19,141.67055 C 163.275,144.42263 171.604,145.08793 179.016,146.81531 C 181.78,147.45941 187.303,148.28221 186.541,152.1004 C 185.818,155.7187 180.278,156.88576 177.348,157.87312 C 162.895,162.74126 145.941,162.24051 130.911,162.24051 C 122.791,162.24051 114.815,161.72866 106.758,160.70899 C 100.846,159.96091 87.43,158.66563 85.535,151.52596"
   id="path11"
   style="fill:#6b7419" />

	<path
   d="M 134.047,120.14957 C 152.326,119.62358 170.363,118.32628 187.706,112.01951 C 199.123,107.86816 227.644,92.839713 211.001,77.336773 C 185.384,53.474601 141.02,52.885012 108.275,57.013139 C 94.253,58.780895 81.402,62.999883 68.383,68.373819 C 57.554,72.8452 46.151,88.105845 57.091,98.296433 C 77.493,117.29753 107.551,119.38734 134.047,120.14957"
   id="path13" />

	<path
   d="M 241.44295,0.61296799 C 239.33789,18.636599 246.40348,30.664649 252.98422,46.758627 C 257.29789,57.310842 257.70233,82.652153 240.75101,82.652153 C 233.5843,82.652153 231.10891,70.72003 231.67538,65.595196 C 232.52812,57.883959 238.20984,51.782612 238.20984,43.846313 C 238.20984,36.330624 236.9831,29.058449 236.36547,21.588267 C 236.03899,17.653938 235.85504,14.287805 236.82474,10.401441 C 237.64336,7.1201687 241.30651,2.91773 241.44295,0.61296799"
   id="path15" />

	<path
   d="M 237.99446,-10.904997 C 236.70089,8.7961501 244.29673,21.812341 251.4461,39.443376 C 255.50864,49.46111 256.92197,80.117291 240.23862,80.736682 C 231.51479,81.059065 226.86828,70.518951 227.76418,63.242959 C 228.81381,54.723705 235.9144,48.943209 236.87385,40.007544 C 237.80375,31.346503 233.77077,22.461583 232.38998,13.988596 C 230.72386,3.7693728 233.89052,-2.3872358 237.99446,-10.904997"
   id="path17"
   style="fill:#fc3026" />

	<path
   d="M 134.806,115.17643 C 153.031,115.17643 170.952,114.15878 188.54,108.98373 C 195.208,107.02214 206.011,103.57345 209.747,97.097065 C 215.072,87.868596 212.908,79.904106 204.542,73.469113 C 190.594,62.740424 171.191,60.038818 154.201,58.432593 C 135.557,56.669886 117.032,57.197891 98.716,61.160449 C 82.257,64.720189 44.592,80.818776 69.251,99.970299 C 78.174,106.89897 90.328,109.23713 101.013,111.82567 C 106.149,113.07047 111.44,113.88519 116.692,114.43237 C 121.16,114.89879 131.394,117.12691 134.806,115.17643"
   id="path19"
   style="fill:#6b7419" />

	<path
   d="M 135.564,109.43602 C 152.606,109.43602 172.058,110.12959 188.57,105.12819 C 195.61,102.99598 206.72,99.948089 209.849,92.216809 C 213.607,82.930794 206.888,75.107644 199.98,70.279885 C 186.771,61.050406 165.529,60.076172 150.044,60.076172 C 132.993,60.076172 114.282,59.528985 98.019,65.581351 C 90.643,68.326369 81.503,71.710445 77.572,79.208513 C 73.041,87.852443 79.566,94.72054 86.713,98.568007 C 101.44,106.49413 120.284,109.43602 135.564,109.43602"
   id="path21"
   style="fill:#d1b21b" />

	<path
   d="M 201.511,72.702851 C 188.059,65.320883 171.903,67.132049 157.302,69.241039 C 149.622,70.349545 111.904,76.424122 129.682,88.980131 C 141.553,97.363592 162.069,96.685161 175.823,95.526177 C 186.933,94.590306 214.307,87.989744 201.511,72.702851"
   id="path23"
   style="fill:#d1b21b" />

	<path
   d="M 200.374,73.086487 C 191.058,65.244155 170.992,67.961915 160.017,69.711498 C 153.033,70.825053 145.616,71.784143 139.018,74.447386 C 132.425,77.1076 124.818,83.918153 134.938,88.630821 C 146.813,94.161239 163.121,95.860344 176.116,94.131961 C 183.668,93.127441 189.975,91.65347 196.489,87.544524 C 201.592,84.325009 207.576,77.461959 200.374,73.086487"
   id="path25"
   style="fill:#d7ba32" />

	<path
   d="M 199.615,73.469113 C 188,67.27036 174.33,69.080517 161.747,70.488866 C 155.124,71.22989 148.063,72.677611 141.845,75.09149 C 135.905,77.397347 131.074,83.640521 138.807,87.542505 C 150.444,93.415167 165.104,93.579727 177.788,92.157245 C 182.943,91.579771 212.589,80.412928 199.615,73.469113"
   id="path27"
   style="fill:#ddc34a" />

	<path
   d="M 198.856,73.469113 C 187.241,69.064364 175.598,69.659001 163.328,71.115809 C 157.279,71.834621 128.545,79.100489 144.185,87.005414 C 153.76,91.845288 166.798,92.635781 177.255,90.687312 C 181.36,89.923069 210.384,79.634551 198.856,73.469113"
   id="path29"
   style="fill:#e3cc63" />

	<path
   d="M 197.721,73.85174 C 189.932,68.204211 175.865,70.695828 167.062,71.882071 C 162.154,72.543339 135.586,77.237835 147.313,85.712157 C 155.825,91.86346 169.665,90.59948 179.121,88.206801 C 184.158,86.932725 189.779,85.658649 194.312,83.034779 C 197.093,81.424517 203.474,76.046543 197.721,73.85174"
   id="path31"
   style="fill:#e8d57e" />

	<path
   d="M 196.962,74.232348 C 189.081,69.978024 178.56,71.224842 170.01,72.37676 C 165.023,73.049133 141.072,77.002605 151.37,85.315396 C 158.202,90.830671 170.703,88.612648 178.363,86.676295 C 183.221,85.448659 188.316,84.795468 192.723,82.255393 C 195.055,80.911656 202.222,76.543251 196.962,74.232348"
   id="path33"
   style="fill:#eedf9a" />

	<path
   d="M 196.206,74.232348 C 187.375,72.583722 180.159,71.779095 171.028,73.198549 C 166.564,73.893133 146.03,77.31961 154.515,84.946903 C 159.922,89.806968 171.865,86.800472 178.203,85.520339 C 180.997,84.956999 203.552,78.028327 196.206,74.232348"
   id="path35"
   style="fill:#f4e9b6" />

	<path
   d="M 171.189,85.331549 C 179.092,83.922191 189.597,83.566823 195.636,77.486189 C 199.939,73.153119 180.451,72.827028 178.284,73.026923 C 172.795,73.531707 157.668,74.865347 155.269,81.122656 C 152.503,88.343093 168.863,86.226027 171.189,85.331549"
   id="path37"
   style="fill:#faf2d4" />

	<path
   d="M 87.048,60.841425 C 92.3,54.5296 102.959,53.573538 110.17,49.936061 C 121.13,44.408671 126.399,37.756621 121.919,25.256138 C 129.626,25.256138 137.334,25.256138 145.041,25.256138 C 139.119,41.676777 150.836,48.206669 164.609,53.115194 C 168.326,54.440758 177.039,56.212551 178.961,60.076172 C 181.613,65.407705 169.61,68.089121 166.265,68.876585 C 153.378,71.90832 138.541,73.682133 125.31,72.277822 C 117.082,71.404545 89.365,71.820487 87.048,60.841425"
   id="path39" />

	<path
   d="M 95.388,59.693545 C 97.486,57.191833 101.926,56.710269 104.863,55.867279 C 109.762,54.460949 114.165,52.369123 118.669,49.922937 C 130.01,43.763557 129.789,36.466392 126.089,25.256138 C 131.647,25.383344 137.205,25.51055 142.763,25.638765 C 140.481,31.407442 138.144,38.659176 142.763,44.004843 C 146.67,48.526703 153.406,50.744726 158.8,52.666945 C 163.059,54.184327 170.992,55.297882 174.222,58.545665 C 178.578,62.927195 171.988,65.248193 167.884,66.377901 C 155.379,69.821541 141.389,69.259211 128.515,69.259211 C 120.757,69.259211 97.617,69.498479 95.388,59.693545"
   id="path41"
   style="fill:#6b7419" />

	<path
   d="M 107.517,59.310919 C 109.09,56.450809 113.067,55.867279 115.856,54.719399 C 120.171,52.942557 123.29,50.853759 126.811,47.80688 C 134.099,41.500103 132.438,30.690648 129.879,22.576742 C 134.173,23.597417 138.468,24.618091 142.763,25.638765 C 140.673,30.92083 138.648,36.725851 141.642,42.02205 C 144.27,46.670105 150.376,49.665497 155.249,51.401955 C 158.695,52.630601 184.132,59.098909 172.915,64.753505 C 164.665,68.912929 108.082,73.121822 107.517,59.310919"
   id="path43"
   style="fill:#d1b21b" />

	<path
   d="M 133.289,34.439177 C 140.101,34.818775 148.313,31.644691 149.775,24.300077 C 151.504,15.614755 140.083,12.846517 133.976,11.963144 C 127.33,11.002034 116.991,15.879262 116.991,23.343005 C 116.992,30.533155 127.464,35.940407 133.289,34.439177"
   id="path45" />

	<path
   d="M 133.289,30.996547 C 137.448,31.222691 145.935,30.210093 147.502,25.447957 C 149.755,18.596012 142.414,14.737439 136.701,14.159966 C 131.999,13.685469 122.3,15.931759 122.3,22.194115 C 122.3,28.106151 127.821,30.835017 133.289,30.996547"
   id="path47"
   style="fill:#6b7419" />

	<path
   d="M 135.564,29.082405 C 140.047,29.082405 146.201,28.974381 147.88,23.91644 C 150.059,17.35828 139.547,14.613262 135.183,14.924209 C 122.792,15.805563 126.637,31.658825 135.564,29.082405"
   id="path49"
   style="fill:#d1b21b" />

	<path
   d="M 134.425,35.204431 C 134.425,39.851477 133.706,46.287479 135.942,50.510506 C 138.588,55.510901 145.423,56.231733 147.313,61.606679 C 149.327,67.335982 147.774,68.294063 155.271,67.728705 C 160.47,67.336992 165.374,66.49804 170.265,64.852443 C 177.97,62.259869 169.756,59.214 166.052,57.965163 C 161.546,56.446771 156.674,55.428116 152.408,53.273696 C 148.135,51.116247 143.847,48.951731 141.25,44.772116 C 139.947,42.676251 139.472,40.496591 139.072,38.097855 C 138.364,33.838484 137.289,36.374521 134.425,35.204431"
   id="path51"
   style="fill:#d1b21b" />

	<path
   d="M 134.425,35.588067 C 135.101,40.275496 134.538,44.998259 136.699,49.362626 C 139.254,54.521523 145.248,55.312016 148.996,59.097899 C 152.982,63.126079 146.366,66.317327 152.239,67.728705 C 156.971,68.865479 164.424,66.565681 168.987,65.249203 C 181.237,61.715712 157.643,55.713824 154.133,54.336772 C 145.508,50.952697 138.036,45.728178 138.595,35.204431 C 137.21,35.37 135.815,35.498215 134.425,35.588067"
   id="path53"
   style="fill:#dbc144" />

	<path
   d="M 134.806,35.588067 C 135.441,39.946376 134.761,44.606547 137.078,48.597373 C 139.942,53.531136 145.877,54.723437 150.273,57.893484 C 155.625,61.752056 148.814,66.157815 152.62,67.728705 C 155.785,69.035087 164.478,66.549528 167.71,65.617696 C 181.565,61.621822 157.405,56.284231 153.376,54.720409 C 144.416,51.242443 137.652,45.731207 138.215,35.205441 C 137.191,35.319522 135.752,35.198373 134.806,35.588067"
   id="path55"
   style="fill:#e6d170" />

	<path
   d="M 135.184,35.588067 C 134.863,43.561643 137.502,49.874477 144.66,53.571519 C 148.143,55.370571 151.598,56.528547 154.798,58.952521 C 158.665,61.8833 152.969,65.358237 151.862,67.346078 C 157.981,67.346078 164.836,67.110849 170.433,64.285065 C 176.229,61.359334 161.638,57.218082 159.442,56.633541 C 146.882,53.289849 138.215,49.713956 138.215,35.204431 C 137.276,35.32356 136.048,35.221593 135.184,35.588067"
   id="path57"
   style="fill:#f0e1a1" />

	<path
   d="M 135.184,35.588067 C 136.067,43.880667 138.231,50.510506 146.766,53.386768 C 149.75,54.392299 156.099,56.078279 157.924,58.927282 C 160.528,62.993826 155.629,65.026089 152.62,66.962442 C 155.829,68.051767 166.85,67.005853 169.676,64.666682 C 175.008,60.249818 162.56,57.860168 158.992,56.831417 C 146.786,53.31105 136.84,50.183405 137.837,35.204431 C 137.034,35.378077 135.921,35.283177 135.184,35.588067"
   id="path59"
   style="fill:#faf2d4" />

	<path
   d="M 137.837,15.307846 C 141.802,15.075645 147.762,17.702543 147.313,22.577752 C 146.876,27.315659 139.903,27.901209 136.154,27.269219 C 133.223,26.77453 128.725,24.717029 128.74,21.047245 C 128.758,16.186171 134.425,15.619803 137.837,15.307846"
   id="path61"
   style="fill:#d1b21b" />

	<path
   d="M 138.215,15.690473 C 141.726,15.401735 147.903,18.169974 147.313,22.577752 C 146.718,27.017836 139.669,27.461037 136.321,26.786645 C 126.569,24.823033 131.222,14.473942 138.215,15.690473"
   id="path63"
   style="fill:#d9be3c" />

	<path
   d="M 138.974,16.074109 C 149.168,17.675285 148.952,26.404018 138.217,26.404018 C 135.38,26.404018 131.611,24.193062 131.775,21.047245 C 131.974,17.229055 137.206,16.380008 138.974,16.074109"
   id="path65"
   style="fill:#e0ca5e" />

	<path
   d="M 139.732,16.456735 C 148.548,18.420347 148.491,28.235376 138.973,25.830583 C 130.542,23.699383 132.843,18.075074 139.732,16.456735"
   id="path67"
   style="fill:#e8d783" />

	<path
   d="M 140.491,17.219969 C 144.053,17.432989 145.338,18.984696 146.744,21.812499 C 148.366,25.075425 141.196,25.256138 139.732,25.256138 C 132.722,25.256138 133.548,16.60918 140.491,17.219969"
   id="path69"
   style="fill:#f0e4aa" />

	<path
   d="M 140.868,17.603605 C 147.558,18.453663 148.306,25.481272 140.868,24.873511 C 133.646,24.282914 136.262,16.921137 140.868,17.603605"
   id="path71"
   style="fill:#f7f1d3" />

	<path
   d="M 141.627,17.987242 C 146.729,18.745428 148.432,24.109268 142.195,24.109268 C 135.61,24.109268 137.219,19.239107 141.627,17.987242"
   id="path73"
   style="fill:#ffffff" />

	<path
   d="M 214.018,84.18165 C 228.241,86.178577 242.9,87.213385 257.226,87.625289 C 252.386,105.93079 240.974,110.86254 223.421,113.48742 C 207.533,115.86293 191.357,115.49949 175.361,115.17643 C 183.606,113.25723 192.657,111.58943 199.671,106.43962 C 205.931,101.84406 215.205,92.370264 214.018,84.18165"
   id="path75" />

	<path
   d="M 178.011,114.02955 C 192.661,114.35665 207.079,114.50103 221.657,112.73529 C 237.842,110.77571 250.806,105.87527 255.331,88.775189 C 248.109,88.565199 240.769,87.541495 233.537,87.052864 C 229.531,86.782299 225.576,86.136175 221.57,85.847439 C 219.642,85.708118 217.398,84.823736 215.534,84.947913 C 212.277,85.163961 212.967,84.262415 211.899,88.036184 C 207.359,104.08934 193.711,112.36276 178.011,114.02955"
   id="path77"
   style="fill:#faf2d4" />

	<path
   d="M 245.478,90.687312 C 248.762,90.050274 252.047,89.412227 255.332,88.774179 C 250.147,105.7521 239.079,110.39814 222.695,113.57929 C 207.392,116.55045 190.83,115.48939 175.362,115.17542 C 198.733,107.01305 222.105,98.850687 245.478,90.687312"
   id="path79"
   style="fill:#6b7419" />

	<path
   d="M 205.682,85.712157 C 204.472,105.11103 186.675,113.0846 169.676,116.3233 C 185.169,116.3233 201.58,117.43181 216.957,115.13301 C 225.222,113.89629 232.422,112.26079 240.098,108.86763 C 247.197,105.7309 249.502,96.238932 251.163,89.537413 C 243.183,89.537413 235.332,89.101279 227.378,88.430926 C 221.535,87.938256 210.25,88.780237 205.682,85.712157"
   id="path81" />

	<path
   d="M 205.682,85.712157 C 202.168,102.23476 185.913,113.76808 169.676,116.3233 C 185.169,116.3233 201.58,117.43181 216.957,115.13301 C 225.222,113.89629 232.422,112.26079 240.098,108.86763 C 247.197,105.7309 249.502,96.238932 251.163,89.537413 C 243.183,89.537413 235.332,89.101279 227.378,88.430926 C 221.535,87.938256 210.25,88.780237 205.682,85.712157"
   id="path83"
   style="fill:#d1b21b" />

	<path
   d="M 175.738,113.26229 C 190.609,113.63885 205.278,114.45963 220.08,112.59395 C 235.655,110.63135 246.074,104.95757 251.163,89.538423 C 245.988,106.15795 230.276,108.01959 215.844,110.10334 C 209.973,110.95138 201.089,110.62731 195.448,108.67077 C 191.65,107.35328 191.62,104.61533 187.994,106.63749 C 184.055,108.83331 179.942,111.78529 175.738,113.26229"
   id="path85"
   style="fill:#6b7419" />

	<path
   d="M 205.682,85.712157 C 203.589,108.78485 174.661,117.91741 155.652,115.17643 C 174.672,113.69539 200.235,107.02517 205.682,85.712157"
   id="path87" />

	<path
   d="M 169.295,116.3233 C 184.914,116.3233 201.457,117.44997 216.957,115.13301 C 225.222,113.89629 232.422,112.26079 240.098,108.86763 C 247.197,105.7309 249.502,96.238932 251.163,89.537413 C 245.272,107.38558 232.322,111.05032 215.088,113.2219 C 207.1,114.22844 199.167,113.89125 191.152,113.65299 C 187.117,113.53285 183.081,113.44199 179.046,113.33699 C 175.2,113.23907 172.897,115.22287 169.295,116.3233"
   id="path89" />

	<path
   d="M 212.881,84.565286 C 210.482,85.075119 208.081,85.584951 205.682,86.095793 C 210.736,86.605625 215.789,87.115457 220.843,87.626299 C 220.718,84.294721 215.512,84.963056 212.881,84.565286"
   id="path91"
   style="fill:#faf2d4" />

	<path
   d="M 141.25,132.77725 C 144.6,143.84515 160.579,145.2848 169.842,146.8355 C 172.269,147.24135 183.319,147.74512 183.319,151.33515 C 183.319,156.25377 170.454,157.47737 167.079,158.11541 C 155.066,160.38795 142.645,160.66761 130.448,160.13556 C 123.81,159.84581 117.301,159.49852 110.715,158.59294 C 106.856,158.06191 96.66,158.13056 94.252,154.97161 C 110.979,151.97219 145.394,160.47881 141.25,132.77725"
   id="path93"
   style="fill:#d1b21b" />

	<path
   d="M 164.745,151.52596 C 168.373,150.61028 171.96,149.45836 175.738,149.61283 C 177.673,149.69258 183.74,151.12011 179.149,153.43808 C 172.12,156.98671 163.98,157.57631 156.243,158.35266 C 148.612,159.11893 140.789,158.79687 133.118,158.79687 C 125.87,158.79687 116.22,159.62775 109.411,156.88273 C 128.215,155.96099 146.402,156.67274 164.745,151.52596"
   id="path95"
   style="fill:#d1b21b" />

	<path
   d="M 163.99,151.90959 C 164.911,151.85104 181.802,149.23827 178.39,152.67384 C 173.535,157.56318 163.701,157.12402 157.355,157.8398 C 150.236,158.64241 143.101,158.41223 135.941,158.41223 C 129.533,158.41223 120.666,159.61261 114.719,156.88374 C 122.561,157.17753 130.75,156.58491 138.595,156.11748 C 143.94,155.80047 161.562,155.93777 163.99,151.90959"
   id="path97"
   style="fill:#d9be3c" />

	<path
   d="M 163.609,152.67384 C 166.002,151.86215 176.791,149.08684 176.497,152.67384 C 176.15,156.90595 161.446,157.37843 158.528,157.70755 C 151.931,158.4516 144.858,158.69995 138.215,158.41223 C 133.404,158.20425 124.516,159.40564 120.404,156.88374 C 133.455,156.88475 152.681,158.09017 163.609,152.67384"
   id="path99"
   style="fill:#e1ca5e" />

	<path
   d="M 163.231,153.05647 C 164.835,152.88484 174.555,149.62191 174.602,153.05647 C 174.648,156.42843 161.37,157.26536 159.371,157.26536 C 153.685,157.26536 147.943,158.03263 142.195,158.03263 C 137.911,158.03263 129.278,159.33699 125.708,156.88475 C 136.139,156.88475 155.211,158.51722 163.231,153.05647"
   id="path101"
   style="fill:#ead783" />

	<path
   d="M 162.851,153.4401 C 165.754,152.88685 170.099,151.08175 172.707,153.05647 C 170.243,157.83071 158.06,157.49251 153.376,157.64798 C 147.196,157.85293 136.526,159.50458 131.016,156.88475 C 135.841,156.88475 161.997,157.53188 162.851,153.4401"
   id="path103"
   style="fill:#f2e5ab" />

	<path
   d="M 162.474,153.82071 C 163.532,153.84897 170.339,151.91969 170.431,153.82071 C 170.557,156.43448 161.845,156.73433 160.201,156.88475 C 152.919,157.55309 143.202,159.13508 136.321,156.88475 C 141.36,156.88475 160.289,157.79437 162.474,153.82071"
   id="path105"
   style="fill:#faf2d4" />

	<path
   d="M 55.973,9.9510728 C 48.431,1.8038513 35.735,-3.6266201 25.082,1.1496506 C 13.152,6.4993565 4.853,18.471835 4.806,31.761801 C 10.879,19.838791 13.341,10.163082 25.895,3.3424344 C 35.727,-1.999195 48.865,5.620022 55.973,9.9510728"
   id="path107" />

	<path
   d="M 69.238,46.301613 C 67.978,59.943918 63.718,67.402614 49.739,68.81702 C 37.853,70.019417 28.993,61.497645 28.168,49.772511 C 27.978,47.062828 30.01,43.630293 30.977,47.535306 C 31.738,50.606415 32.714,53.543251 33.988,56.441723 C 36.434,62.005458 41.25,66.205265 47.184,67.062389 C 57.187,68.508092 70.014,56.153997 69.238,46.301613"
   id="path109" />

	<path
   d="M 26.029,36.734937 C 30.381,27.925439 42.839,22.893747 49.529,32.527054 C 46.969,26.468631 40.377,24.309163 34.369,25.639775 C 27.225,27.220759 26.768,31.223701 26.029,36.734937"
   id="path111" />

	<path
   d="M 57.868,8.4205663 C 72.45,19.128055 80.408,34.847043 71.888,52.041013 C 73.269,44.378384 72.757,35.789981 70.374,28.316142 C 69.215,24.682703 67.201,21.365259 65.403,18.034691 C 63.409,14.342698 59.878,11.820795 57.868,8.4205663"
   id="path113"
   style="fill:#d1b21b" />

	<path
   d="M 4.806,18.750476 C 1.284,31.188365 0.977,41.774705 5.657,53.921839 C 10.365,66.144691 20.138,73.172301 31.338,78.824877 C 21.855,72.603913 12.945,65.574285 7.995,54.960686 C 5.243,49.062784 3.283,43.313289 2.911,36.734937 C 2.737,33.656761 2.912,30.599787 3.288,27.551898 C 3.604,24.997689 5.42,20.809997 4.806,18.750476"
   id="path115"
   style="fill:#d1b21b" />

	<path
   d="M 49.906,49.361617 C 56.366,50.61853 54.694,39.263907 49.529,39.031707 C 43.663,38.769219 45.73,49.606942 49.906,49.361617"
   id="path117"
   style="fill:#d1b21b" />

	<path
   d="M 48.011,39.414333 C 48.963,36.623885 48.313,33.691087 46.498,31.379174 C 49.937,33.63758 50.077,37.751573 50.665,41.327467 C 49.802,40.705572 48.764,40.163433 48.011,39.414333"
   id="path119"
   style="fill:#d1b21b" />

	<path
   d="M 66.584,18.368859 C 72.634,24.481799 77.334,32.786513 74.164,41.708074 C 72.773,33.790025 71.537,24.932067 66.584,18.368859"
   id="path121"
   style="fill:#ffffff" />

	<path
   d="M 49.529,48.213737 C 54.953,46.450019 44.472,45.051767 49.529,48.213737"
   id="path123"
   style="fill:#ffffff" />

	<path
   d="M 240.00441,23.702468 C 244.60607,34.495154 252.12625,45.372023 252.2992,57.380699 C 252.41347,65.318927 248.23644,82.247681 237.07972,78.652718 C 223.61443,74.31257 231.30446,60.726227 235.91231,53.835621 C 241.371,45.669785 241.52851,32.060057 240.00441,23.702468"
   id="path125"
   style="fill:#ffde38" />

	

	<path
   d="M 243.92483,38.984798 C 246.65501,47.848526 252.7385,55.940069 250.64176,65.540203 C 249.53285,70.619034 245.13119,82.239074 238.33155,78.816416 C 231.8553,75.554755 232.59211,67.367808 235.5305,62.148851 C 240.30279,53.666743 243.89676,49.290037 243.92483,38.984798"
   id="path129"
   style="fill:#ffee9c" />

	<path
   d="M 245.79056,48.038612 C 248.36073,55.551634 251.3292,60.66188 249.70715,68.866379 C 248.74799,73.723407 244.82588,81.865297 238.99921,78.622176 C 234.00356,75.840966 235.76754,68.576987 237.9546,64.912303 C 241.66449,58.694581 245.4667,55.717198 245.79056,48.038612"
   id="path131"
   style="fill:#fff7cd" />

	<path
   d="M 247.12113,54.567403 C 249.85634,59.773374 250.40951,65.243803 248.63301,70.84982 C 247.94022,73.035309 242.4126,84.276874 239.31039,77.972791 C 233.85325,66.884262 247.27004,65.01559 247.12113,54.567403"
   id="path133"
   style="fill:#ffffff" />

	<path
   d="M 242.064,88.007916 C 242.895,87.83528 250.146,87.010462 249.268,88.775189 C 248.463,90.394537 241.93,89.185074 242.064,88.007916"
   id="path135" />

</g>


  
</svg>