<?xml version="1.0" encoding="UTF-8" standalone="no"?>
<!-- Created with Inkscape (http://www.inkscape.org/) -->
<svg
   xmlns:dc="http://purl.org/dc/elements/1.1/"
   xmlns:cc="http://creativecommons.org/ns#"
   xmlns:rdf="http://www.w3.org/1999/02/22-rdf-syntax-ns#"
   xmlns:svg="http://www.w3.org/2000/svg"
   xmlns="http://www.w3.org/2000/svg"
   xmlns:xlink="http://www.w3.org/1999/xlink"
   xmlns:sodipodi="http://sodipodi.sourceforge.net/DTD/sodipodi-0.dtd"
   xmlns:inkscape="http://www.inkscape.org/namespaces/inkscape"
   width="128"
   height="128"
   id="svg2391"
   sodipodi:version="0.32"
   inkscape:version="0.46"
   version="1.0"
   sodipodi:docname="arrows.svg"
   inkscape:output_extension="org.inkscape.output.svg.inkscape">
  <defs
     id="defs2393">
    <linearGradient
       id="linearGradient2076">
      <stop
         id="stop2078"
         offset="0.0000000"
         style="stop-color:#afd9ed;stop-opacity:1.0000000;" />
      <stop
         id="stop2080"
         offset="1.0000000"
         style="stop-color:#cfc3db;stop-opacity:1.0000000;" />
    </linearGradient>
    <linearGradient
       gradientTransform="matrix(-1.186331,0,0,-0.780016,61.16353,67.13542)"
       gradientUnits="userSpaceOnUse"
       id="linearGradient2082"
       x1="12.615197"
       x2="48.374069"
       xlink:href="#linearGradient2076"
       y1="25.909756"
       y2="62.720371" />
    <linearGradient
       id="linearGradient2088">
      <stop
         id="stop2090"
         offset="0.0000000"
         style="stop-color:#87a8b7;stop-opacity:1.0000000;" />
      <stop
         id="stop2092"
         offset="1.0000000"
         style="stop-color:#7f718e;stop-opacity:1.0000000;" />
    </linearGradient>
    <linearGradient
       gradientTransform="matrix(-1.186331,0,0,-0.780016,63.3302,67.13542)"
       gradientUnits="userSpaceOnUse"
       id="linearGradient2086"
       x1="12.615197"
       x2="48.374069"
       xlink:href="#linearGradient2088"
       y1="25.909756"
       y2="62.720371" />
    <inkscape:perspective
       sodipodi:type="inkscape:persp3d"
       inkscape:vp_x="0 : 526.18109 : 1"
       inkscape:vp_y="0 : 1000 : 0"
       inkscape:vp_z="744.09448 : 526.18109 : 1"
       inkscape:persp3d-origin="372.04724 : 350.78739 : 1"
       id="perspective2399" />
    <linearGradient
       inkscape:collect="always"
       xlink:href="#linearGradient2088"
       id="linearGradient2420"
       gradientUnits="userSpaceOnUse"
       gradientTransform="matrix(-1.186331,0,0,-0.780016,63.3302,67.13542)"
       x1="12.615197"
       y1="25.909756"
       x2="48.374069"
       y2="62.720371" />
    <linearGradient
       inkscape:collect="always"
       xlink:href="#linearGradient2076"
       id="linearGradient2422"
       gradientUnits="userSpaceOnUse"
       gradientTransform="matrix(-1.186331,0,0,-0.780016,61.16353,67.13542)"
       x1="12.615197"
       y1="25.909756"
       x2="48.374069"
       y2="62.720371" />
    <linearGradient
       inkscape:collect="always"
       xlink:href="#linearGradient2088"
       id="linearGradient2434"
       gradientUnits="userSpaceOnUse"
       gradientTransform="matrix(-1.186331,0,0,-0.780016,63.3302,67.13542)"
       x1="12.615197"
       y1="25.909756"
       x2="48.374069"
       y2="62.720371" />
    <linearGradient
       inkscape:collect="always"
       xlink:href="#linearGradient2076"
       id="linearGradient2436"
       gradientUnits="userSpaceOnUse"
       gradientTransform="matrix(-1.186331,0,0,-0.780016,61.16353,67.13542)"
       x1="12.615197"
       y1="25.909756"
       x2="48.374069"
       y2="62.720371" />
    <linearGradient
       inkscape:collect="always"
       xlink:href="#linearGradient2088"
       id="linearGradient2448"
       gradientUnits="userSpaceOnUse"
       gradientTransform="matrix(-1.186331,0,0,-0.780016,63.3302,67.13542)"
       x1="12.615197"
       y1="25.909756"
       x2="48.374069"
       y2="62.720371" />
    <linearGradient
       inkscape:collect="always"
       xlink:href="#linearGradient2076"
       id="linearGradient2450"
       gradientUnits="userSpaceOnUse"
       gradientTransform="matrix(-1.186331,0,0,-0.780016,61.16353,67.13542)"
       x1="12.615197"
       y1="25.909756"
       x2="48.374069"
       y2="62.720371" />
    <linearGradient
       inkscape:collect="always"
       xlink:href="#linearGradient2088"
       id="linearGradient2462"
       gradientUnits="userSpaceOnUse"
       gradientTransform="matrix(-1.186331,0,0,-0.780016,63.3302,67.13542)"
       x1="12.615197"
       y1="25.909756"
       x2="48.374069"
       y2="62.720371" />
    <linearGradient
       inkscape:collect="always"
       xlink:href="#linearGradient2076"
       id="linearGradient2464"
       gradientUnits="userSpaceOnUse"
       gradientTransform="matrix(-1.186331,0,0,-0.780016,61.16353,67.13542)"
       x1="12.615197"
       y1="25.909756"
       x2="48.374069"
       y2="62.720371" />
  </defs>
  <sodipodi:namedview
     id="base"
     pagecolor="#ffffff"
     bordercolor="#666666"
     borderopacity="1.0"
     inkscape:pageopacity="0.0"
     inkscape:pageshadow="2"
     inkscape:zoom="1.3277206"
     inkscape:cx="117.47785"
     inkscape:cy="-15.977159"
     inkscape:document-units="px"
     inkscape:current-layer="layer1"
     showgrid="false"
     showguides="true"
     inkscape:guide-bbox="true"
     inkscape:window-width="641"
     inkscape:window-height="719"
     inkscape:window-x="293"
     inkscape:window-y="0" />
  <metadata
     id="metadata2396">
    <rdf:RDF>
      <cc:Work
         rdf:about="">
        <dc:format>image/svg+xml</dc:format>
        <dc:type
           rdf:resource="http://purl.org/dc/dcmitype/StillImage" />
      </cc:Work>
    </rdf:RDF>
  </metadata>
  <g
     inkscape:label="Calque 1"
     inkscape:groupmode="layer"
     id="layer1">
    <g
       id="g2409"
       transform="matrix(0,0.8161651,-1.764176,0,125.43391,77.398373)">
      <path
         d="M 32.186126,52.104166 C 32.931029,52.568927 46.362619,43.287677 47.107522,42.822916 C 47.852425,42.358155 62,34.471188 62,33.541666 C 62,32.612144 47.852425,24.693927 47.107522,24.229166 C 46.362619,23.764405 32.931028,14.483154 32.186126,14.947916 C 31.736229,15.228616 31.839046,20.824428 31.983704,26.041666 L 5.900179,26.041666 C 5.643855,26.041666 5.4375,26.264666 5.4375,26.541666 L 5.4375,40.541666 C 5.4375,40.818666 5.643855,41.041666 5.900179,41.041666 L 31.983704,41.041666 C 31.839045,46.258903 31.73623,51.823466 32.186126,52.104166 z"
         id="path2084"
         style="fill:url(#linearGradient2420);fill-opacity:1;stroke:none;stroke-width:0.375;stroke-miterlimit:4;stroke-opacity:1" />
      <path
         d="M 30.019459,52.104166 C 30.764362,52.568927 44.195952,43.287677 44.940855,42.822916 C 45.685758,42.358155 59.833333,34.471188 59.833333,33.541666 C 59.833333,32.612144 45.685758,24.693927 44.940855,24.229166 C 44.195952,23.764405 30.764361,14.483154 30.019459,14.947916 C 29.569562,15.228616 29.672379,20.824428 29.817037,26.041666 L 3.733512,26.041666 C 3.477188,26.041666 3.270833,26.264666 3.270833,26.541666 L 3.270833,40.541666 C 3.270833,40.818666 3.477188,41.041666 3.733512,41.041666 L 29.817037,41.041666 C 29.672378,46.258903 29.569563,51.823466 30.019459,52.104166 z"
         id="rect1303"
         style="fill:url(#linearGradient2422);fill-opacity:1;stroke:none;stroke-width:0.375;stroke-miterlimit:4;stroke-opacity:1" />
      <path
         d="M 56,32.498092 C 56,32.498092 46.143163,28.758884 45.393163,27.459846 C 44.643163,26.160808 31.765602,20.067541 32.131627,18.701516 C 32.497652,17.33549 43.893163,24.86177 43.893163,24.86177 C 43.893163,24.86177 52.611644,28.295956 56,32.498092 z"
         id="path2096"
         style="fill:#d0f1fc;fill-opacity:1;fill-rule:evenodd;stroke:none;stroke-width:1px;stroke-linecap:butt;stroke-linejoin:miter;stroke-opacity:1" />
      <rect
         height="1"
         id="rect2098"
         rx="0.5"
         ry="0.5"
         style="fill:#d0f1fc;fill-opacity:1;stroke:none;stroke-width:0.375;stroke-miterlimit:4;stroke-opacity:1"
         transform="scale(-1,-1)"
         width="23"
         x="-27.270832"
         y="-28" />
    </g>
    <g
       id="g2424"
       transform="matrix(0,-0.8161651,-1.6782543,0,122.04356,52.382073)">
      <path
         d="M 32.186126,52.104166 C 32.931029,52.568927 46.362619,43.287677 47.107522,42.822916 C 47.852425,42.358155 62,34.471188 62,33.541666 C 62,32.612144 47.852425,24.693927 47.107522,24.229166 C 46.362619,23.764405 32.931028,14.483154 32.186126,14.947916 C 31.736229,15.228616 31.839046,20.824428 31.983704,26.041666 L 5.900179,26.041666 C 5.643855,26.041666 5.4375,26.264666 5.4375,26.541666 L 5.4375,40.541666 C 5.4375,40.818666 5.643855,41.041666 5.900179,41.041666 L 31.983704,41.041666 C 31.839045,46.258903 31.73623,51.823466 32.186126,52.104166 z"
         id="path2426"
         style="fill:url(#linearGradient2434);fill-opacity:1;stroke:none;stroke-width:0.375;stroke-miterlimit:4;stroke-opacity:1" />
      <path
         d="M 30.019459,52.104166 C 30.764362,52.568927 44.195952,43.287677 44.940855,42.822916 C 45.685758,42.358155 59.833333,34.471188 59.833333,33.541666 C 59.833333,32.612144 45.685758,24.693927 44.940855,24.229166 C 44.195952,23.764405 30.764361,14.483154 30.019459,14.947916 C 29.569562,15.228616 29.672379,20.824428 29.817037,26.041666 L 3.733512,26.041666 C 3.477188,26.041666 3.270833,26.264666 3.270833,26.541666 L 3.270833,40.541666 C 3.270833,40.818666 3.477188,41.041666 3.733512,41.041666 L 29.817037,41.041666 C 29.672378,46.258903 29.569563,51.823466 30.019459,52.104166 z"
         id="path2428"
         style="fill:url(#linearGradient2436);fill-opacity:1;stroke:none;stroke-width:0.375;stroke-miterlimit:4;stroke-opacity:1" />
      <path
         d="M 56,32.498092 C 56,32.498092 46.143163,28.758884 45.393163,27.459846 C 44.643163,26.160808 31.765602,20.067541 32.131627,18.701516 C 32.497652,17.33549 43.893163,24.86177 43.893163,24.86177 C 43.893163,24.86177 52.611644,28.295956 56,32.498092 z"
         id="path2430"
         style="fill:#d0f1fc;fill-opacity:1;fill-rule:evenodd;stroke:none;stroke-width:1px;stroke-linecap:butt;stroke-linejoin:miter;stroke-opacity:1" />
      <rect
         height="1"
         id="rect2432"
         rx="0.5"
         ry="0.5"
         style="fill:#d0f1fc;fill-opacity:1;stroke:none;stroke-width:0.375;stroke-miterlimit:4;stroke-opacity:1"
         transform="scale(-1,-1)"
         width="23"
         x="-27.270832"
         y="-28" />
    </g>
    <g
       id="g2438"
       transform="matrix(-0.8161651,0,0,-1.6496137,51.134197,122.05924)">
      <path
         d="M 32.186126,52.104166 C 32.931029,52.568927 46.362619,43.287677 47.107522,42.822916 C 47.852425,42.358155 62,34.471188 62,33.541666 C 62,32.612144 47.852425,24.693927 47.107522,24.229166 C 46.362619,23.764405 32.931028,14.483154 32.186126,14.947916 C 31.736229,15.228616 31.839046,20.824428 31.983704,26.041666 L 5.900179,26.041666 C 5.643855,26.041666 5.4375,26.264666 5.4375,26.541666 L 5.4375,40.541666 C 5.4375,40.818666 5.643855,41.041666 5.900179,41.041666 L 31.983704,41.041666 C 31.839045,46.258903 31.73623,51.823466 32.186126,52.104166 z"
         id="path2440"
         style="fill:url(#linearGradient2448);fill-opacity:1;stroke:none;stroke-width:0.375;stroke-miterlimit:4;stroke-opacity:1" />
      <path
         d="M 30.019459,52.104166 C 30.764362,52.568927 44.195952,43.287677 44.940855,42.822916 C 45.685758,42.358155 59.833333,34.471188 59.833333,33.541666 C 59.833333,32.612144 45.685758,24.693927 44.940855,24.229166 C 44.195952,23.764405 30.764361,14.483154 30.019459,14.947916 C 29.569562,15.228616 29.672379,20.824428 29.817037,26.041666 L 3.733512,26.041666 C 3.477188,26.041666 3.270833,26.264666 3.270833,26.541666 L 3.270833,40.541666 C 3.270833,40.818666 3.477188,41.041666 3.733512,41.041666 L 29.817037,41.041666 C 29.672378,46.258903 29.569563,51.823466 30.019459,52.104166 z"
         id="path2442"
         style="fill:url(#linearGradient2450);fill-opacity:1;stroke:none;stroke-width:0.375;stroke-miterlimit:4;stroke-opacity:1" />
      <path
         d="M 56,32.498092 C 56,32.498092 46.143163,28.758884 45.393163,27.459846 C 44.643163,26.160808 31.765602,20.067541 32.131627,18.701516 C 32.497652,17.33549 43.893163,24.86177 43.893163,24.86177 C 43.893163,24.86177 52.611644,28.295956 56,32.498092 z"
         id="path2444"
         style="fill:#d0f1fc;fill-opacity:1;fill-rule:evenodd;stroke:none;stroke-width:1px;stroke-linecap:butt;stroke-linejoin:miter;stroke-opacity:1" />
      <rect
         height="1"
         id="rect2446"
         rx="0.5"
         ry="0.5"
         style="fill:#d0f1fc;fill-opacity:1;stroke:none;stroke-width:0.375;stroke-miterlimit:4;stroke-opacity:1"
         transform="scale(-1,-1)"
         width="23"
         x="-27.270832"
         y="-28" />
    </g>
    <g
       id="g2452"
       transform="matrix(0.8161651,0,0,-1.6496137,77.748214,121.52667)">
      <path
         d="M 32.186126,52.104166 C 32.931029,52.568927 46.362619,43.287677 47.107522,42.822916 C 47.852425,42.358155 62,34.471188 62,33.541666 C 62,32.612144 47.852425,24.693927 47.107522,24.229166 C 46.362619,23.764405 32.931028,14.483154 32.186126,14.947916 C 31.736229,15.228616 31.839046,20.824428 31.983704,26.041666 L 5.900179,26.041666 C 5.643855,26.041666 5.4375,26.264666 5.4375,26.541666 L 5.4375,40.541666 C 5.4375,40.818666 5.643855,41.041666 5.900179,41.041666 L 31.983704,41.041666 C 31.839045,46.258903 31.73623,51.823466 32.186126,52.104166 z"
         id="path2454"
         style="fill:url(#linearGradient2462);fill-opacity:1;stroke:none;stroke-width:0.375;stroke-miterlimit:4;stroke-opacity:1" />
      <path
         d="M 30.019459,52.104166 C 30.764362,52.568927 44.195952,43.287677 44.940855,42.822916 C 45.685758,42.358155 59.833333,34.471188 59.833333,33.541666 C 59.833333,32.612144 45.685758,24.693927 44.940855,24.229166 C 44.195952,23.764405 30.764361,14.483154 30.019459,14.947916 C 29.569562,15.228616 29.672379,20.824428 29.817037,26.041666 L 3.733512,26.041666 C 3.477188,26.041666 3.270833,26.264666 3.270833,26.541666 L 3.270833,40.541666 C 3.270833,40.818666 3.477188,41.041666 3.733512,41.041666 L 29.817037,41.041666 C 29.672378,46.258903 29.569563,51.823466 30.019459,52.104166 z"
         id="path2456"
         style="fill:url(#linearGradient2464);fill-opacity:1;stroke:none;stroke-width:0.375;stroke-miterlimit:4;stroke-opacity:1" />
      <path
         d="M 56,32.498092 C 56,32.498092 46.143163,28.758884 45.393163,27.459846 C 44.643163,26.160808 31.765602,20.067541 32.131627,18.701516 C 32.497652,17.33549 43.893163,24.86177 43.893163,24.86177 C 43.893163,24.86177 52.611644,28.295956 56,32.498092 z"
         id="path2458"
         style="fill:#d0f1fc;fill-opacity:1;fill-rule:evenodd;stroke:none;stroke-width:1px;stroke-linecap:butt;stroke-linejoin:miter;stroke-opacity:1" />
      <rect
         height="1"
         id="rect2460"
         rx="0.5"
         ry="0.5"
         style="fill:#d0f1fc;fill-opacity:1;stroke:none;stroke-width:0.375;stroke-miterlimit:4;stroke-opacity:1"
         transform="scale(-1,-1)"
         width="23"
         x="-27.270832"
         y="-28" />
    </g>
  </g>
</svg>
