<?xml version="1.0" encoding="UTF-8" standalone="no"?>
<!-- Created with Inkscape (http://www.inkscape.org/) -->

<svg
   xmlns:dc="http://purl.org/dc/elements/1.1/"
   xmlns:cc="http://creativecommons.org/ns#"
   xmlns:rdf="http://www.w3.org/1999/02/22-rdf-syntax-ns#"
   xmlns:svg="http://www.w3.org/2000/svg"
   xmlns="http://www.w3.org/2000/svg"
   xmlns:xlink="http://www.w3.org/1999/xlink"
   xmlns:sodipodi="http://sodipodi.sourceforge.net/DTD/sodipodi-0.dtd"
   xmlns:inkscape="http://www.inkscape.org/namespaces/inkscape"
   version="1.0"
   width="48"
   height="48"
   id="svg6476"
   inkscape:version="0.48.2 r9819"
   sodipodi:docname="broken.svg"
   inkscape:export-filename="/opt/cairo-dock_bzr/cairo-dock-plug-ins/alsaMixer/data/icon.png"
   inkscape:export-xdpi="120"
   inkscape:export-ydpi="120">
  <metadata
     id="metadata89">
    <rdf:RDF>
      <cc:Work
         rdf:about="">
        <dc:format>image/svg+xml</dc:format>
        <dc:type
           rdf:resource="http://purl.org/dc/dcmitype/StillImage" />
        <dc:title />
      </cc:Work>
    </rdf:RDF>
  </metadata>
  <sodipodi:namedview
     pagecolor="#ffffff"
     bordercolor="#666666"
     borderopacity="1"
     objecttolerance="10"
     gridtolerance="10"
     guidetolerance="10"
     inkscape:pageopacity="0"
     inkscape:pageshadow="2"
     inkscape:window-width="849"
     inkscape:window-height="678"
     id="namedview87"
     showgrid="false"
     inkscape:zoom="6.9532168"
     inkscape:cx="50.534022"
     inkscape:cy="17.214782"
     inkscape:window-x="171"
     inkscape:window-y="187"
     inkscape:window-maximized="0"
     inkscape:current-layer="svg6476" />
  <defs
     id="defs6478">
    <linearGradient
       id="linearGradient17123">
      <stop
         id="stop17125"
         style="stop-color:#000000;stop-opacity:1"
         offset="0" />
      <stop
         id="stop17127"
         style="stop-color:#000000;stop-opacity:0"
         offset="1" />
    </linearGradient>
    <linearGradient
       id="linearGradient6700">
      <stop
         id="stop6702"
         style="stop-color:#ffffff;stop-opacity:1"
         offset="0" />
      <stop
         id="stop6704"
         style="stop-color:#ffffff;stop-opacity:0"
         offset="1" />
    </linearGradient>
    <linearGradient
       id="linearGradient6628">
      <stop
         id="stop6630"
         style="stop-color:#000000;stop-opacity:1"
         offset="0" />
      <stop
         id="stop6632"
         style="stop-color:#000000;stop-opacity:0"
         offset="1" />
    </linearGradient>
    <linearGradient
       id="linearGradient3844">
      <stop
         id="stop3846"
         style="stop-color:#e8e8e8;stop-opacity:1"
         offset="0" />
      <stop
         id="stop3848"
         style="stop-color:#a5a6a8;stop-opacity:1"
         offset="1" />
    </linearGradient>
    <linearGradient
       id="linearGradient6589-510-471-936">
      <stop
         id="stop5849"
         style="stop-color:#878a85;stop-opacity:1"
         offset="0" />
      <stop
         id="stop5851"
         style="stop-color:#3e3f3d;stop-opacity:1"
         offset="1" />
    </linearGradient>
    <linearGradient
       id="linearGradient6643">
      <stop
         id="stop6645"
         style="stop-color:#4c4c4c;stop-opacity:1"
         offset="0" />
      <stop
         id="stop6647"
         style="stop-color:#d3d7cf;stop-opacity:1"
         offset="1" />
    </linearGradient>
    <linearGradient
       id="linearGradient4718">
      <stop
         id="stop4720"
         style="stop-color:#767973;stop-opacity:1"
         offset="0" />
      <stop
         id="stop4722"
         style="stop-color:#202120;stop-opacity:1"
         offset="1" />
    </linearGradient>
    <linearGradient
       id="linearGradient6573">
      <stop
         id="stop6575"
         style="stop-color:#ffffff;stop-opacity:1"
         offset="0" />
      <stop
         id="stop6577"
         style="stop-color:#ffffff;stop-opacity:0"
         offset="1" />
    </linearGradient>
    <linearGradient
       id="linearGradient6379">
      <stop
         id="stop6381"
         style="stop-color:#ffffff;stop-opacity:0"
         offset="0" />
      <stop
         id="stop21606"
         style="stop-color:#ffffff;stop-opacity:1"
         offset="0.5" />
      <stop
         id="stop6383"
         style="stop-color:#ffffff;stop-opacity:0"
         offset="1" />
    </linearGradient>
    <linearGradient
       id="linearGradient6651">
      <stop
         id="stop6653"
         style="stop-color:#ffffff;stop-opacity:1"
         offset="0" />
      <stop
         id="stop6655"
         style="stop-color:#ffffff;stop-opacity:0"
         offset="1" />
    </linearGradient>
    <linearGradient
       id="linearGradient5292">
      <stop
         id="stop5294"
         style="stop-color:#4b4b4b;stop-opacity:1"
         offset="0" />
      <stop
         id="stop5296"
         style="stop-color:#babdb6;stop-opacity:1"
         offset="1" />
    </linearGradient>
    <linearGradient
       id="linearGradient6633">
      <stop
         id="stop6635"
         style="stop-color:#eeeeec;stop-opacity:1"
         offset="0" />
      <stop
         id="stop6637"
         style="stop-color:#61635f;stop-opacity:1"
         offset="1" />
    </linearGradient>
    <linearGradient
       id="linearGradient6546-397-668-696-989">
      <stop
         id="stop4870"
         style="stop-color:#383937;stop-opacity:1"
         offset="0" />
      <stop
         id="stop4872"
         style="stop-color:#595b57;stop-opacity:1"
         offset="1" />
    </linearGradient>
    <linearGradient
       id="linearGradient6531">
      <stop
         id="stop6533"
         style="stop-color:#ffffff;stop-opacity:1"
         offset="0" />
      <stop
         id="stop6535"
         style="stop-color:#ffffff;stop-opacity:0"
         offset="1" />
    </linearGradient>
    <linearGradient
       id="linearGradient3858">
      <stop
         id="stop3860"
         style="stop-color:#a0a0a0;stop-opacity:1"
         offset="0" />
      <stop
         id="stop3862"
         style="stop-color:#4a4a4a;stop-opacity:1"
         offset="1" />
    </linearGradient>
    <linearGradient
       id="linearGradient5262">
      <stop
         id="stop5264"
         style="stop-color:#babdb6;stop-opacity:1"
         offset="0" />
      <stop
         id="stop5266"
         style="stop-color:#eeeeec;stop-opacity:1"
         offset="0.43738842" />
      <stop
         id="stop5268"
         style="stop-color:#555753;stop-opacity:1"
         offset="1" />
    </linearGradient>
    <radialGradient
       cx="11.402097"
       cy="36.863068"
       r="10.69499"
       fx="11.402097"
       fy="36.863068"
       id="radialGradient2484"
       xlink:href="#linearGradient17123"
       gradientUnits="userSpaceOnUse"
       gradientTransform="matrix(1.5365906,0,0,0.7999924,5.9134667,7.9539732)" />
    <linearGradient
       x1="16.790216"
       y1="21.270329"
       x2="29.694229"
       y2="46.259285"
       id="linearGradient2518"
       xlink:href="#linearGradient6700"
       gradientUnits="userSpaceOnUse"
       gradientTransform="matrix(1.0594031,-0.2838662,0.2890959,1.0789209,-5.9281637,2.5280165)" />
    <linearGradient
       x1="23.238182"
       y1="12.158657"
       x2="29.892563"
       y2="26.354361"
       id="linearGradient2522"
       xlink:href="#linearGradient6628"
       gradientUnits="userSpaceOnUse"
       gradientTransform="matrix(0.8724491,-0.233772,0.2578423,0.9622808,0.1485293,4.3923641)" />
    <radialGradient
       cx="30.685316"
       cy="42.261425"
       r="8.22791"
       fx="30.685316"
       fy="42.261425"
       id="radialGradient2525"
       xlink:href="#linearGradient3844"
       gradientUnits="userSpaceOnUse"
       gradientTransform="matrix(3.8810698,-0.9188044,-0.6548214,-2.443827,-70.445197,143.99571)" />
    <radialGradient
       cx="20.8839"
       cy="20.434256"
       r="3.9999843"
       fx="20.8839"
       fy="20.434256"
       id="radialGradient2528"
       xlink:href="#linearGradient6589-510-471-936"
       gradientUnits="userSpaceOnUse"
       gradientTransform="matrix(1.2647773,-0.338896,0.4038853,1.5073206,-9.1988578,0.7346025)" />
    <radialGradient
       cx="23.164974"
       cy="30.23279"
       r="8.1890125"
       fx="23.164974"
       fy="30.23279"
       id="radialGradient2531"
       xlink:href="#linearGradient4718"
       gradientUnits="userSpaceOnUse"
       gradientTransform="matrix(2.0486131,-0.4421144,0.7771044,3.5969389,-43.958363,-67.860573)" />
    <linearGradient
       x1="33.430557"
       y1="45.052155"
       x2="33.430557"
       y2="0.31037101"
       id="linearGradient2533"
       xlink:href="#linearGradient6643"
       gradientUnits="userSpaceOnUse"
       gradientTransform="matrix(1.1840375,-0.3172619,0.3047227,1.137241,-9.5117579,1.7419412)" />
    <linearGradient
       x1="19.240318"
       y1="4.8111696"
       x2="11.323519"
       y2="35.457581"
       id="linearGradient2536"
       xlink:href="#linearGradient6573"
       gradientUnits="userSpaceOnUse"
       gradientTransform="matrix(0.8726262,-0.2338194,0.225423,0.8412903,5.4410434,11.950896)" />
    <linearGradient
       x1="20.226221"
       y1="20.33363"
       x2="11.4375"
       y2="21.75"
       id="linearGradient2539"
       xlink:href="#linearGradient6379"
       gradientUnits="userSpaceOnUse"
       gradientTransform="matrix(0.6439506,-0.172546,0.258819,0.9659258,3.1093861,6.5309846)" />
    <radialGradient
       cx="23.986883"
       cy="27.053167"
       r="7.75"
       fx="23.986883"
       fy="27.053167"
       id="radialGradient2542"
       xlink:href="#linearGradient6651"
       gradientUnits="userSpaceOnUse"
       gradientTransform="matrix(-0.3108119,0.08328179,-0.3332154,-1.2435769,37.151926,59.349344)" />
    <radialGradient
       cx="9.3203983"
       cy="18.817093"
       r="12.5"
       fx="9.3203983"
       fy="18.817093"
       id="radialGradient2545"
       xlink:href="#linearGradient6633"
       gradientUnits="userSpaceOnUse"
       gradientTransform="matrix(0.8240862,0.3197539,-0.5914388,1.3785376,21.450007,-4.2930362)" />
    <linearGradient
       x1="7.75"
       y1="33.046577"
       x2="4.6431866"
       y2="12.063652"
       id="linearGradient2547"
       xlink:href="#linearGradient5292"
       gradientUnits="userSpaceOnUse"
       gradientTransform="matrix(0.8804012,-0.2359028,0.227447,0.8488439,5.2526753,11.823244)" />
    <linearGradient
       x1="80.693359"
       y1="31.561478"
       x2="77.125"
       y2="14"
       id="linearGradient2550"
       xlink:href="#linearGradient6546-397-668-696-989"
       gradientUnits="userSpaceOnUse"
       gradientTransform="matrix(0.9659258,-0.258819,0.258819,0.9659258,-65.660814,28.06373)" />
    <linearGradient
       x1="9.883214"
       y1="14.05074"
       x2="5.1012387"
       y2="30.00112"
       id="linearGradient2553"
       xlink:href="#linearGradient6531"
       gradientUnits="userSpaceOnUse"
       gradientTransform="matrix(0.8632962,-0.2313195,0.258819,0.9659258,3.1764917,9.6188321)" />
    <linearGradient
       x1="102.35701"
       y1="-41.092239"
       x2="82.681335"
       y2="-41.092239"
       id="linearGradient2556"
       xlink:href="#linearGradient5262"
       gradientUnits="userSpaceOnUse"
       gradientTransform="matrix(0.1184963,0.4422342,-0.4175562,0.1118838,-16.290518,-10.902463)"
       spreadMethod="reflect" />
    <linearGradient
       x1="84.425995"
       y1="8.2933674"
       x2="102.42599"
       y2="8.2933674"
       id="linearGradient2558"
       xlink:href="#linearGradient3858"
       gradientUnits="userSpaceOnUse"
       gradientTransform="matrix(0.258819,0.9659258,-0.9659258,0.258819,-0.8545962,-63.246654)" />
    <linearGradient
       gradientTransform="matrix(2.1153735,0,0,2.1153253,-107.57709,32.426559)"
       gradientUnits="userSpaceOnUse"
       xlink:href="#linearGradient4873"
       id="linearGradient2478"
       y2="5.4675598"
       x2="63.397362"
       y1="-12.489107"
       x1="63.397362" />
    <linearGradient
       id="linearGradient4873">
      <stop
         offset="0"
         style="stop-color:white;stop-opacity:1"
         id="stop4875" />
      <stop
         offset="1"
         style="stop-color:white;stop-opacity:0"
         id="stop4877" />
    </linearGradient>
    <radialGradient
       gradientTransform="matrix(0,2.2874593,-3.0194057,0,36.047437,-50.630156)"
       gradientUnits="userSpaceOnUse"
       xlink:href="#linearGradient3242-9"
       id="radialGradient2481"
       fy="3.9900031"
       fx="23.895569"
       r="20.397499"
       cy="3.9900031"
       cx="23.895569" />
    <linearGradient
       id="linearGradient3242-9">
      <stop
         offset="0"
         style="stop-color:#f8b17e;stop-opacity:1"
         id="stop3244" />
      <stop
         offset="0.26238"
         style="stop-color:#e35d4f;stop-opacity:1"
         id="stop3246" />
      <stop
         offset="0.66093999"
         style="stop-color:#c6262e;stop-opacity:1"
         id="stop3248" />
      <stop
         offset="1"
         style="stop-color:#690b54;stop-opacity:1"
         id="stop3250" />
    </linearGradient>
    <linearGradient
       gradientTransform="matrix(0.9584364,0,0,0.9584366,0.9975246,1.9975253)"
       gradientUnits="userSpaceOnUse"
       xlink:href="#linearGradient2490"
       id="linearGradient2483"
       y2="3.0816143"
       x2="18.379412"
       y1="44.980297"
       x1="18.379412" />
    <linearGradient
       id="linearGradient2490">
      <stop
         offset="0"
         style="stop-color:#791235;stop-opacity:1"
         id="stop2492" />
      <stop
         offset="1"
         style="stop-color:#dd3b27;stop-opacity:1"
         id="stop2494" />
    </linearGradient>
    <radialGradient
       gradientTransform="matrix(2.1647059,0,0,0.7529402,-111.56471,36.517647)"
       gradientUnits="userSpaceOnUse"
       xlink:href="#linearGradient8838"
       id="radialGradient2486"
       fy="4.625"
       fx="62.625"
       r="10.625"
       cy="4.625"
       cx="62.625" />
    <linearGradient
       id="linearGradient8838">
      <stop
         offset="0"
         style="stop-color:black;stop-opacity:1"
         id="stop8840" />
      <stop
         offset="1"
         style="stop-color:black;stop-opacity:0"
         id="stop8842" />
    </linearGradient>
    <radialGradient
       id="radialGradient6964"
       xlink:href="#linearGradient6958"
       gradientUnits="userSpaceOnUse"
       cy="22.844"
       cx="72.496002"
       gradientTransform="matrix(2.6999,0,0,3.5714,-122.47,-58.74)"
       r="4.8202" />
    <linearGradient
       id="linearGradient6958">
      <stop
         id="stop6960"
         style="stop-color:#729fcf"
         offset="0" />
      <stop
         id="stop6966"
         style="stop-color:#729fcf"
         offset="0.6" />
      <stop
         id="stop6962"
         style="stop-color:#729fcf;stop-opacity:0"
         offset="1" />
    </linearGradient>
    <radialGradient
       id="radialGradient6968"
       xlink:href="#linearGradient6958"
       gradientUnits="userSpaceOnUse"
       cy="22.844"
       cx="72.496002"
       gradientTransform="matrix(2.6999,0,0,3.6828,-122.47,-61.286)"
       r="4.8202" />
    <linearGradient
       id="linearGradient3402">
      <stop
         id="stop3404"
         style="stop-color:#729fcf"
         offset="0" />
      <stop
         id="stop3406"
         style="stop-color:#729fcf"
         offset="0.6" />
      <stop
         id="stop3408"
         style="stop-color:#729fcf;stop-opacity:0"
         offset="1" />
    </linearGradient>
    <radialGradient
       id="radialGradient6976"
       xlink:href="#linearGradient6958"
       gradientUnits="userSpaceOnUse"
       cy="22.733999"
       cx="70.530998"
       gradientTransform="matrix(1.8087,0,0,3.5234,-57.039,-57.369)"
       r="3.5975001" />
    <linearGradient
       id="linearGradient3411">
      <stop
         id="stop3413"
         style="stop-color:#729fcf"
         offset="0" />
      <stop
         id="stop3415"
         style="stop-color:#729fcf"
         offset="0.6" />
      <stop
         id="stop3417"
         style="stop-color:#729fcf;stop-opacity:0"
         offset="1" />
    </linearGradient>
    <radialGradient
       id="radialGradient6984"
       xlink:href="#linearGradient6958"
       gradientUnits="userSpaceOnUse"
       cy="22.656"
       cx="60.640999"
       gradientTransform="matrix(2.1455,0,0,3.0192,-69.461,-45.747)"
       r="2.6194" />
    <linearGradient
       id="linearGradient3420">
      <stop
         id="stop3422"
         style="stop-color:#729fcf"
         offset="0" />
      <stop
         id="stop3424"
         style="stop-color:#729fcf"
         offset="0.6" />
      <stop
         id="stop3426"
         style="stop-color:#729fcf;stop-opacity:0"
         offset="1" />
    </linearGradient>
    <radialGradient
       id="radialGradient7118"
       gradientUnits="userSpaceOnUse"
       cy="36.862999"
       cx="11.402"
       gradientTransform="matrix(1,0,0,0.33058,0,24.677)"
       r="10.695">
      <stop
         id="stop17125-7"
         offset="0" />
      <stop
         id="stop17127-6"
         style="stop-opacity:0"
         offset="1" />
    </radialGradient>
    <linearGradient
       id="linearGradient5545"
       y2="14.001"
       gradientUnits="userSpaceOnUse"
       x2="78.5"
       gradientTransform="matrix(0.90625,0,0,1,-65.922,19)"
       y1="-4.0064998"
       x1="78.5">
      <stop
         id="stop2795"
         style="stop-color:#babdb6"
         offset="0" />
      <stop
         id="stop2801"
         style="stop-color:#eeeeec"
         offset=".25301" />
      <stop
         id="stop2797"
         style="stop-color:#555753"
         offset="1" />
    </linearGradient>
    <linearGradient
       id="linearGradient5547"
       y2="-4.0088"
       gradientUnits="userSpaceOnUse"
       x2="80.061996"
       gradientTransform="matrix(0.90625,0,0,1,-65.922,19)"
       y1="14"
       x1="80.061996">
      <stop
         id="stop5535"
         style="stop-color:#555753"
         offset="0" />
      <stop
         id="stop5537"
         style="stop-color:#babdb6"
         offset="1" />
    </linearGradient>
    <linearGradient
       id="linearGradient6537"
       y2="39.883999"
       gradientUnits="userSpaceOnUse"
       x2="3.8448999"
       y1="15.561"
       x1="3.8448999">
      <stop
         id="stop6533-3"
         style="stop-color:#fff"
         offset="0" />
      <stop
         id="stop6535-1"
         style="stop-color:#fff;stop-opacity:0"
         offset="1" />
    </linearGradient>
    <linearGradient
       id="linearGradient6558"
       y2="14"
       gradientUnits="userSpaceOnUse"
       x2="77.125"
       gradientTransform="translate(-70,2)"
       y1="31.561001"
       x1="80.693001">
      <stop
         id="stop6548"
         style="stop-color:#555753"
         offset="0" />
      <stop
         id="stop6550"
         style="stop-color:#888a85"
         offset="1" />
    </linearGradient>
    <radialGradient
       id="radialGradient6553"
       gradientUnits="userSpaceOnUse"
       cy="18.816999"
       cx="9.3204002"
       gradientTransform="matrix(0.71325,0.52215,-0.92808,1.1785,22.517,-6.7083)"
       r="12.5">
      <stop
         id="stop6635-7"
         style="stop-color:#eeeeec"
         offset="0" />
      <stop
         id="stop6637-5"
         style="stop-color:#61635f"
         offset="1" />
    </radialGradient>
    <linearGradient
       id="linearGradient6545"
       y2="12.064"
       gradientUnits="userSpaceOnUse"
       x2="4.6431999"
       gradientTransform="matrix(0.91146,0,0,0.87879,2.7005,4.6667)"
       y1="33.047001"
       x1="7.75">
      <stop
         id="stop6629"
         style="stop-color:#555753"
         offset="0" />
      <stop
         id="stop6631"
         style="stop-color:#babdb6"
         offset="1" />
    </linearGradient>
    <radialGradient
       id="radialGradient6657"
       gradientUnits="userSpaceOnUse"
       cy="27.052999"
       cx="23.987"
       gradientTransform="matrix(-0.24329,0,0,-1.2543,25.221,61.871)"
       r="7.75">
      <stop
         id="stop6653-9"
         style="stop-color:#fff"
         offset="0" />
      <stop
         id="stop6655-6"
         style="stop-color:#fff;stop-opacity:0"
         offset="1" />
    </radialGradient>
    <linearGradient
       id="linearGradient6641"
       y2="21.75"
       gradientUnits="userSpaceOnUse"
       x2="11.438"
       gradientTransform="matrix(0.66667,0,0,1,2,-1)"
       y1="20.334"
       x1="20.226">
      <stop
         id="stop6381-2"
         style="stop-color:#fff;stop-opacity:0"
         offset="0" />
      <stop
         id="stop21606-1"
         style="stop-color:#fff"
         offset=".5" />
      <stop
         id="stop6383-7"
         style="stop-color:#fff;stop-opacity:0"
         offset="1" />
    </linearGradient>
    <linearGradient
       id="linearGradient6579"
       y2="47.497002"
       gradientUnits="userSpaceOnUse"
       x2="12.198"
       y1="9.2596998"
       x1="12.198">
      <stop
         id="stop6575-8"
         style="stop-color:#fff"
         offset="0" />
      <stop
         id="stop6577-5"
         style="stop-color:#fff;stop-opacity:0"
         offset="1" />
    </linearGradient>
    <radialGradient
       id="radialGradient6595"
       gradientUnits="userSpaceOnUse"
       cy="30.233"
       cx="23.165001"
       gradientTransform="matrix(1.7346,-0.16988,0.32776,3.6175,-27.429,-73.697)"
       r="8.1890001">
      <stop
         id="stop6669"
         style="stop-color:#babdb6"
         offset="0" />
      <stop
         id="stop6671"
         style="stop-color:#555753"
         offset="1" />
    </radialGradient>
    <linearGradient
       id="linearGradient6801"
       y2="0.31037"
       gradientUnits="userSpaceOnUse"
       x2="33.431"
       y1="45.051998"
       x1="33.431">
      <stop
         id="stop6645-7"
         style="stop-color:#555753"
         offset="0" />
      <stop
         id="stop6647-4"
         style="stop-color:#d3d7cf"
         offset="1" />
    </linearGradient>
    <radialGradient
       id="radialGradient6603"
       gradientUnits="userSpaceOnUse"
       cy="20.434"
       cx="20.884001"
       gradientTransform="matrix(1.3094,0,0,1.5605,-8.3886,-9.7845)"
       r="4">
      <stop
         id="stop6591"
         style="stop-color:#babdb6"
         offset="0" />
      <stop
         id="stop6593"
         style="stop-color:#555753"
         offset="1" />
    </radialGradient>
    <radialGradient
       id="radialGradient6625"
       gradientUnits="userSpaceOnUse"
       cy="42.261002"
       cx="30.684999"
       gradientTransform="matrix(3.9866,0.117,0,-2.53,-104.63,112.74)"
       r="8.2278996">
      <stop
         id="stop6609"
         style="stop-color:#eeeeec"
         offset="0" />
      <stop
         id="stop6611"
         style="stop-color:#babdb6"
         offset="1" />
    </radialGradient>
    <linearGradient
       id="linearGradient6634"
       y2="26.354"
       gradientUnits="userSpaceOnUse"
       x2="29.893"
       y1="12.159"
       x1="23.238001">
      <stop
         id="stop6630-1"
         offset="0" />
      <stop
         id="stop6632-8"
         style="stop-opacity:0"
         offset="1" />
    </linearGradient>
    <linearGradient
       id="linearGradient6706"
       y2="25.698999"
       gradientUnits="userSpaceOnUse"
       x2="28.555"
       y1="25.587"
       x1="17.5">
      <stop
         id="stop6702-5"
         style="stop-color:#fff"
         offset="0" />
      <stop
         id="stop6704-9"
         style="stop-color:#fff;stop-opacity:0"
         offset="1" />
    </linearGradient>
  </defs>
  <g
     transform="translate(0.21351772,0.09251233)"
     id="layer1">
    <path
       inkscape:connector-curvature="0"
       id="path16236-7"
       style="opacity:0.2;fill:url(#radialGradient7118)"
       d="m 22.097,36.863 a 10.695,3.5355 0 1 1 -21.39,0 10.695,3.5355 0 1 1 21.39,0 z"
       transform="matrix(1.5366,0,0,2.42,-1.1723,-56.385)" />
    <path
       inkscape:connector-curvature="0"
       id="path5330-5"
       style="fill:#2e3436;stroke:#555753;stroke-width:1.30270004;stroke-linecap:round"
       d="m 8,25 a 4,7 0 1 1 -8,0 4,7 0 1 1 8,0 z"
       transform="matrix(0.75,0,0,0.78571,1.5,4.3572)" />
    <path
       inkscape:connector-curvature="0"
       id="path6659-3"
       style="fill:#babdb6"
       d="m 4.5,20.75 a 0.75,0.75 0 1 1 -1.5,0 0.75,0.75 0 1 1 1.5,0 z"
       transform="translate(-1.5312,0.65625)" />
    <path
       inkscape:connector-curvature="0"
       id="path2766-8"
       style="fill:url(#linearGradient5545);stroke:url(#linearGradient5547);stroke-linecap:round"
       d="M 6.125,15.5 C 4.124,15.5 2.5,19.308 2.5,24 c 0,4.692 1.624,8.5 3.625,8.5 H 9.75 c 2.001,0 3.625,-3.808 3.625,-8.5 0,-4.692 -1.624,-8.5 -3.625,-8.5 H 6.125 z" />
    <path
       inkscape:connector-curvature="0"
       id="path5556-8"
       style="opacity:0.6;fill:none;stroke:url(#linearGradient6537);stroke-width:1.05780005;stroke-linecap:round"
       d="M 5.5,14.5 C 4.974,14.5 4.2339,15.046 3.5938,16.406 2.9536,17.767 2.5,19.782 2.5,22 c 0,2.218 0.4536,4.233 1.0938,5.594 C 4.2339,28.954 4.974,29.5 5.5,29.5 h 4 c 0.526,0 1.266,-0.546 1.906,-1.906 C 12.046,26.233 12.5,24.218 12.5,22 12.5,19.782 12.046,17.767 11.406,16.406 10.766,15.046 10.026,14.5 9.5,14.5 h -4 z"
       transform="matrix(0.89375,0,0,1,1.2656,2)" />
    <path
       inkscape:connector-curvature="0"
       id="path6556-3"
       style="fill:url(#linearGradient6558)"
       d="M 9.6969,16 C 7.6562,16 6,19.577 6,23.984 c 0,4.408 1.6562,7.985 3.6969,7.985 h 0.6371 c 2.041,0 3.697,-3.577 3.697,-7.985 C 14.031,19.577 12.375,16 10.334,16 H 9.6969 z" />
    <path
       inkscape:connector-curvature="0"
       id="path1871-1"
       style="fill:url(#radialGradient6553);stroke:url(#linearGradient6545);stroke-linecap:round"
       d="m 8.625,24 c 0,9.227 9.187,14.5 14.875,14.5 3.938,0 7,-6.496 7,-14.5 0,-8.004 -3.062,-14.5 -7,-14.5 C 17.812,9.5 8.625,14.773 8.625,24 z" />
    <path
       inkscape:connector-curvature="0"
       id="path6649-8"
       style="fill:url(#radialGradient6657)"
       d="m 33,27.938 a 7.75,16.562 0 1 1 -15.5,0 7.75,16.562 0 1 1 15.5,0 z"
       transform="matrix(1.3226,0,0,1.0264,-12.145,-4.6755)" />
    <path
       inkscape:connector-curvature="0"
       id="path6639-9"
       style="opacity:0.73358998;fill:url(#linearGradient6641);fill-rule:evenodd"
       d="m 16,13.375 c -2.583,1.395 -5.458,4.196 -8,8.125 2.7,-1.126 5.491,-1.96 8,-1.75 v -6.375 z" />
    <path
       inkscape:connector-curvature="0"
       id="path6567-6"
       style="opacity:0.58621;fill:none;stroke:url(#linearGradient6579);stroke-width:1.12730002;stroke-linecap:round"
       d="m 22.812,6.5 c -2.795,0 -6.724,1.4333 -9.843,4.094 C 9.849,13.254 7.5,17.074 7.5,22 c 0,4.926 2.349,8.746 5.469,11.406 3.119,2.661 7.048,4.094 9.843,4.094 1.583,0 3.233,-1.444 4.532,-4.25 C 28.642,30.444 29.5,26.429 29.5,22 29.5,17.571 28.642,13.556 27.344,10.75 26.045,7.9437 24.395,6.5 22.812,6.5 z"
       transform="matrix(0.90341,0,0,0.87097,2.8494,4.8387)" />
    <path
       inkscape:connector-curvature="0"
       id="path1873-4"
       style="fill:url(#radialGradient6595);stroke:url(#linearGradient6801);stroke-width:0.83240998;stroke-linecap:round"
       d="m 33,27.938 a 7.75,16.562 0 1 1 -15.5,0 7.75,16.562 0 1 1 15.5,0 z"
       transform="matrix(1.2258,0,0,1.1774,-8.9516,-8.8925)" />
    <path
       inkscape:connector-curvature="0"
       id="path3672-3"
       style="fill:url(#radialGradient6603);stroke:#555753;stroke-linecap:round"
       d="m 21.616,24 c 0,2.484 -2.383,4.5 -4.066,4.5 -1.684,0 -3.05,-2.016 -3.05,-4.5 0,-2.484 1.366,-4.5 3.05,-4.5 1.683,0 4.066,2.016 4.066,4.5 z" />
    <path
       inkscape:connector-curvature="0"
       id="path6605-3"
       style="fill:url(#radialGradient6625)"
       d="m 22,5 c -2.632,0 -4.858,2.2498 -6.438,5.688 -1.579,3.437 -2.531,8.142 -2.531,13.312 0,5.17 0.952,9.875 2.531,13.312 C 17.142,40.75 19.368,43 22,43 c 2.632,0 4.858,-2.25 6.438,-5.688 0.987,-2.148 1.737,-4.811 2.156,-7.75 0.013,-0.092 0.018,-0.187 0.031,-0.281 0.076,-0.567 0.136,-1.131 0.187,-1.719 0.051,-0.546 0.098,-1.093 0.126,-1.656 0.001,-0.031 -0.002,-0.062 0,-0.094 0.027,-0.595 0.031,-1.2 0.031,-1.812 0,-0.644 -0.001,-1.28 -0.031,-1.906 C 30.912,21.537 30.86,20.979 30.812,20.438 30.761,19.85 30.701,19.286 30.625,18.719 30.612,18.624 30.608,18.532 30.594,18.438 30.175,15.499 29.425,12.836 28.438,10.688 26.858,7.2498 24.632,5 22,5 z m 0.5,2 c 1.922,0 3.78,1.7656 5.188,4.844 0.879,1.924 1.576,4.335 1.968,7.031 0.079,0.539 0.134,1.095 0.188,1.656 0.047,0.526 0.099,1.054 0.125,1.594 0.032,0.62 0.062,1.236 0.062,1.875 0,0.596 -0.034,1.17 -0.062,1.75 -0.002,0.041 0.002,0.084 0,0.125 -0.028,0.537 -0.075,1.073 -0.125,1.594 -0.054,0.561 -0.109,1.117 -0.188,1.656 -0.392,2.696 -1.089,5.107 -1.968,7.031 C 26.28,39.234 24.422,41 22.5,41 20.578,41 18.72,39.234 17.312,36.156 15.905,33.078 14.969,28.766 14.969,24 c 0,-4.766 0.936,-9.078 2.343,-12.156 C 18.72,8.7656 20.578,7 22.5,7 z" />
    <path
       inkscape:connector-curvature="0"
       id="path6615-3"
       style="opacity:0.36637998;fill:none;stroke:url(#linearGradient6634);stroke-width:1.05420005;stroke-linecap:round"
       d="m 33,27.938 a 7.75,16.562 0 1 1 -15.5,0 7.75,16.562 0 1 1 15.5,0 z"
       transform="matrix(0.90323,0,0,0.99623,-0.30645,-3.8321)" />
    <path
       inkscape:connector-curvature="0"
       id="path6661-8"
       style="fill:#ffffff"
       d="m 21.5,13.5 a 1,1 0 1 1 -2,0 1,1 0 1 1 2,0 z"
       transform="translate(-16,5.3125)" />
    <path
       inkscape:connector-curvature="0"
       id="path6698-6"
       style="opacity:0.65517004;fill:none;stroke:url(#linearGradient6706);stroke-width:0.90347999;stroke-linecap:round"
       d="m 33,27.938 a 7.75,16.562 0 1 1 -15.5,0 7.75,16.562 0 1 1 15.5,0 z"
       transform="matrix(1.0968,0,0,1.117,-5.6936,-7.2057)" />
    <path
       inkscape:connector-curvature="0"
       id="path5501-0"
       style="fill:#ffffff"
       d="m 21.5,13.5 a 1,1 0 1 1 -2,0 1,1 0 1 1 2,0 z"
       transform="translate(-5,-1.875)" />
  </g>
  <g
     id="layer1-8"
     transform="matrix(0.49350937,0,0,0.49350937,25.69236,-1.5672096)">
    <path
       style="opacity:0.3;fill:url(#radialGradient2486);fill-opacity:1;fill-rule:evenodd;stroke:none;stroke-width:0.99999988;marker:none;visibility:visible;display:inline;overflow:visible"
       id="path8836"
       d="m 46.999997,40 c 0,4.418278 -10.297452,8 -23,8 -12.702548,0 -23.0000002,-3.581722 -23.0000002,-8 0,-4.418278 10.2974522,-8 23.0000002,-8 12.702548,0 23,3.581722 23,8 l 0,0 z" />
    <path
       style="fill:url(#radialGradient2481);fill-opacity:1;stroke:url(#linearGradient2483);stroke-width:1.003654;stroke-linecap:round;stroke-linejoin:round;stroke-miterlimit:4;stroke-opacity:1;stroke-dasharray:none;stroke-dashoffset:0"
       id="path2555"
       d="M 24.000002,5.5018088 C 13.241573,5.5018088 4.5018088,14.24157 4.5018088,25 c 0,10.75843 8.7397642,19.498195 19.4981932,19.498192 10.758425,0 19.498199,-8.739762 19.498189,-19.498192 0,-10.75843 -8.739764,-19.4981912 -19.498189,-19.4981912 z" />
    <path
       style="opacity:0.4;fill:none;stroke:url(#linearGradient2478);stroke-width:1;stroke-miterlimit:4;stroke-opacity:1;stroke-dasharray:none"
       id="path8655"
       d="M 42.500002,24.999344 C 42.500002,35.216942 34.21666,43.5 24.000235,43.5 13.782875,43.5 5.5000003,35.216848 5.5000003,24.999344 c 0,-10.217125 8.2828747,-18.4993439 18.5002347,-18.4993439 10.216425,0 18.499767,8.2822189 18.499767,18.4993439 l 0,0 z" />
    <path
       style="font-size:89.63063812px;font-style:normal;font-variant:normal;font-weight:normal;font-stretch:normal;text-align:start;line-height:125%;writing-mode:lr-tb;text-anchor:start;opacity:0.2;fill:#000000;fill-opacity:1;stroke:none;font-family:Georgia"
       id="path2975"
       d="m 9,26 c 10.000001,0 20,0 30,0 0,-1.666666 0,-3.333333 0,-5 -10,0 -19.999999,0 -30,0 0,1.666667 0,3.333334 0,5 z" />
    <path
       style="font-size:89.63063812px;font-style:normal;font-variant:normal;font-weight:normal;font-stretch:normal;text-align:start;line-height:125%;writing-mode:lr-tb;text-anchor:start;fill:#ffffff;fill-opacity:1;stroke:none;font-family:Georgia"
       id="path3360"
       d="m 9,27 c 10.000001,0 20,0 30,0 0,-1.666666 0,-3.333333 0,-5 -10,0 -19.999999,0 -30,0 0,1.666667 0,3.333334 0,5 z" />
  </g>
</svg>
