<?xml version="1.0" encoding="UTF-8" standalone="no"?>
<!-- Created with Inkscape (http://www.inkscape.org/) -->

<svg
   xmlns:dc="http://purl.org/dc/elements/1.1/"
   xmlns:cc="http://creativecommons.org/ns#"
   xmlns:rdf="http://www.w3.org/1999/02/22-rdf-syntax-ns#"
   xmlns:svg="http://www.w3.org/2000/svg"
   xmlns="http://www.w3.org/2000/svg"
   xmlns:xlink="http://www.w3.org/1999/xlink"
   xmlns:sodipodi="http://sodipodi.sourceforge.net/DTD/sodipodi-0.dtd"
   xmlns:inkscape="http://www.inkscape.org/namespaces/inkscape"
   version="1.0"
   width="48"
   height="48"
   id="svg6476"
   inkscape:version="0.48.2 r9819"
   sodipodi:docname="mute.svg"
   inkscape:export-filename="/opt/cairo-dock_bzr/cairo-dock-plug-ins/alsaMixer/data/icon.png"
   inkscape:export-xdpi="120"
   inkscape:export-ydpi="120">
  <metadata
     id="metadata89">
    <rdf:RDF>
      <cc:Work
         rdf:about="">
        <dc:format>image/svg+xml</dc:format>
        <dc:type
           rdf:resource="http://purl.org/dc/dcmitype/StillImage" />
        <dc:title />
      </cc:Work>
    </rdf:RDF>
  </metadata>
  <sodipodi:namedview
     pagecolor="#ffffff"
     bordercolor="#666666"
     borderopacity="1"
     objecttolerance="10"
     gridtolerance="10"
     guidetolerance="10"
     inkscape:pageopacity="0"
     inkscape:pageshadow="2"
     inkscape:window-width="678"
     inkscape:window-height="561"
     id="namedview87"
     showgrid="false"
     inkscape:zoom="6.9532168"
     inkscape:cx="33.440956"
     inkscape:cy="25.133788"
     inkscape:window-x="0"
     inkscape:window-y="24"
     inkscape:window-maximized="0"
     inkscape:current-layer="svg6476" />
  <defs
     id="defs6478">
    <linearGradient
       id="linearGradient17123">
      <stop
         id="stop17125"
         style="stop-color:#000000;stop-opacity:1"
         offset="0" />
      <stop
         id="stop17127"
         style="stop-color:#000000;stop-opacity:0"
         offset="1" />
    </linearGradient>
    <linearGradient
       id="linearGradient6700">
      <stop
         id="stop6702"
         style="stop-color:#ffffff;stop-opacity:1"
         offset="0" />
      <stop
         id="stop6704"
         style="stop-color:#ffffff;stop-opacity:0"
         offset="1" />
    </linearGradient>
    <linearGradient
       id="linearGradient6628">
      <stop
         id="stop6630"
         style="stop-color:#000000;stop-opacity:1"
         offset="0" />
      <stop
         id="stop6632"
         style="stop-color:#000000;stop-opacity:0"
         offset="1" />
    </linearGradient>
    <linearGradient
       id="linearGradient3844">
      <stop
         id="stop3846"
         style="stop-color:#e8e8e8;stop-opacity:1"
         offset="0" />
      <stop
         id="stop3848"
         style="stop-color:#a5a6a8;stop-opacity:1"
         offset="1" />
    </linearGradient>
    <linearGradient
       id="linearGradient6589-510-471-936">
      <stop
         id="stop5849"
         style="stop-color:#878a85;stop-opacity:1"
         offset="0" />
      <stop
         id="stop5851"
         style="stop-color:#3e3f3d;stop-opacity:1"
         offset="1" />
    </linearGradient>
    <linearGradient
       id="linearGradient6643">
      <stop
         id="stop6645"
         style="stop-color:#4c4c4c;stop-opacity:1"
         offset="0" />
      <stop
         id="stop6647"
         style="stop-color:#d3d7cf;stop-opacity:1"
         offset="1" />
    </linearGradient>
    <linearGradient
       id="linearGradient4718">
      <stop
         id="stop4720"
         style="stop-color:#767973;stop-opacity:1"
         offset="0" />
      <stop
         id="stop4722"
         style="stop-color:#202120;stop-opacity:1"
         offset="1" />
    </linearGradient>
    <linearGradient
       id="linearGradient6573">
      <stop
         id="stop6575"
         style="stop-color:#ffffff;stop-opacity:1"
         offset="0" />
      <stop
         id="stop6577"
         style="stop-color:#ffffff;stop-opacity:0"
         offset="1" />
    </linearGradient>
    <linearGradient
       id="linearGradient6379">
      <stop
         id="stop6381"
         style="stop-color:#ffffff;stop-opacity:0"
         offset="0" />
      <stop
         id="stop21606"
         style="stop-color:#ffffff;stop-opacity:1"
         offset="0.5" />
      <stop
         id="stop6383"
         style="stop-color:#ffffff;stop-opacity:0"
         offset="1" />
    </linearGradient>
    <linearGradient
       id="linearGradient6651">
      <stop
         id="stop6653"
         style="stop-color:#ffffff;stop-opacity:1"
         offset="0" />
      <stop
         id="stop6655"
         style="stop-color:#ffffff;stop-opacity:0"
         offset="1" />
    </linearGradient>
    <linearGradient
       id="linearGradient5292">
      <stop
         id="stop5294"
         style="stop-color:#4b4b4b;stop-opacity:1"
         offset="0" />
      <stop
         id="stop5296"
         style="stop-color:#babdb6;stop-opacity:1"
         offset="1" />
    </linearGradient>
    <linearGradient
       id="linearGradient6633">
      <stop
         id="stop6635"
         style="stop-color:#eeeeec;stop-opacity:1"
         offset="0" />
      <stop
         id="stop6637"
         style="stop-color:#61635f;stop-opacity:1"
         offset="1" />
    </linearGradient>
    <linearGradient
       id="linearGradient6546-397-668-696-989">
      <stop
         id="stop4870"
         style="stop-color:#383937;stop-opacity:1"
         offset="0" />
      <stop
         id="stop4872"
         style="stop-color:#595b57;stop-opacity:1"
         offset="1" />
    </linearGradient>
    <linearGradient
       id="linearGradient6531">
      <stop
         id="stop6533"
         style="stop-color:#ffffff;stop-opacity:1"
         offset="0" />
      <stop
         id="stop6535"
         style="stop-color:#ffffff;stop-opacity:0"
         offset="1" />
    </linearGradient>
    <linearGradient
       id="linearGradient3858">
      <stop
         id="stop3860"
         style="stop-color:#a0a0a0;stop-opacity:1"
         offset="0" />
      <stop
         id="stop3862"
         style="stop-color:#4a4a4a;stop-opacity:1"
         offset="1" />
    </linearGradient>
    <linearGradient
       id="linearGradient5262">
      <stop
         id="stop5264"
         style="stop-color:#babdb6;stop-opacity:1"
         offset="0" />
      <stop
         id="stop5266"
         style="stop-color:#eeeeec;stop-opacity:1"
         offset="0.43738842" />
      <stop
         id="stop5268"
         style="stop-color:#555753;stop-opacity:1"
         offset="1" />
    </linearGradient>
    <radialGradient
       cx="11.402097"
       cy="36.863068"
       r="10.69499"
       fx="11.402097"
       fy="36.863068"
       id="radialGradient2484"
       xlink:href="#linearGradient17123"
       gradientUnits="userSpaceOnUse"
       gradientTransform="matrix(1.5365906,0,0,0.7999924,5.9134667,7.9539732)" />
    <linearGradient
       x1="16.790216"
       y1="21.270329"
       x2="29.694229"
       y2="46.259285"
       id="linearGradient2518"
       xlink:href="#linearGradient6700"
       gradientUnits="userSpaceOnUse"
       gradientTransform="matrix(1.0594031,-0.2838662,0.2890959,1.0789209,-5.9281637,2.5280165)" />
    <linearGradient
       x1="23.238182"
       y1="12.158657"
       x2="29.892563"
       y2="26.354361"
       id="linearGradient2522"
       xlink:href="#linearGradient6628"
       gradientUnits="userSpaceOnUse"
       gradientTransform="matrix(0.8724491,-0.233772,0.2578423,0.9622808,0.1485293,4.3923641)" />
    <radialGradient
       cx="30.685316"
       cy="42.261425"
       r="8.22791"
       fx="30.685316"
       fy="42.261425"
       id="radialGradient2525"
       xlink:href="#linearGradient3844"
       gradientUnits="userSpaceOnUse"
       gradientTransform="matrix(3.8810698,-0.9188044,-0.6548214,-2.443827,-70.445197,143.99571)" />
    <radialGradient
       cx="20.8839"
       cy="20.434256"
       r="3.9999843"
       fx="20.8839"
       fy="20.434256"
       id="radialGradient2528"
       xlink:href="#linearGradient6589-510-471-936"
       gradientUnits="userSpaceOnUse"
       gradientTransform="matrix(1.2647773,-0.338896,0.4038853,1.5073206,-9.1988578,0.7346025)" />
    <radialGradient
       cx="23.164974"
       cy="30.23279"
       r="8.1890125"
       fx="23.164974"
       fy="30.23279"
       id="radialGradient2531"
       xlink:href="#linearGradient4718"
       gradientUnits="userSpaceOnUse"
       gradientTransform="matrix(2.0486131,-0.4421144,0.7771044,3.5969389,-43.958363,-67.860573)" />
    <linearGradient
       x1="33.430557"
       y1="45.052155"
       x2="33.430557"
       y2="0.31037101"
       id="linearGradient2533"
       xlink:href="#linearGradient6643"
       gradientUnits="userSpaceOnUse"
       gradientTransform="matrix(1.1840375,-0.3172619,0.3047227,1.137241,-9.5117579,1.7419412)" />
    <linearGradient
       x1="19.240318"
       y1="4.8111696"
       x2="11.323519"
       y2="35.457581"
       id="linearGradient2536"
       xlink:href="#linearGradient6573"
       gradientUnits="userSpaceOnUse"
       gradientTransform="matrix(0.8726262,-0.2338194,0.225423,0.8412903,5.4410434,11.950896)" />
    <linearGradient
       x1="20.226221"
       y1="20.33363"
       x2="11.4375"
       y2="21.75"
       id="linearGradient2539"
       xlink:href="#linearGradient6379"
       gradientUnits="userSpaceOnUse"
       gradientTransform="matrix(0.6439506,-0.172546,0.258819,0.9659258,3.1093861,6.5309846)" />
    <radialGradient
       cx="23.986883"
       cy="27.053167"
       r="7.75"
       fx="23.986883"
       fy="27.053167"
       id="radialGradient2542"
       xlink:href="#linearGradient6651"
       gradientUnits="userSpaceOnUse"
       gradientTransform="matrix(-0.3108119,0.08328179,-0.3332154,-1.2435769,37.151926,59.349344)" />
    <radialGradient
       cx="9.3203983"
       cy="18.817093"
       r="12.5"
       fx="9.3203983"
       fy="18.817093"
       id="radialGradient2545"
       xlink:href="#linearGradient6633"
       gradientUnits="userSpaceOnUse"
       gradientTransform="matrix(0.8240862,0.3197539,-0.5914388,1.3785376,21.450007,-4.2930362)" />
    <linearGradient
       x1="7.75"
       y1="33.046577"
       x2="4.6431866"
       y2="12.063652"
       id="linearGradient2547"
       xlink:href="#linearGradient5292"
       gradientUnits="userSpaceOnUse"
       gradientTransform="matrix(0.8804012,-0.2359028,0.227447,0.8488439,5.2526753,11.823244)" />
    <linearGradient
       x1="80.693359"
       y1="31.561478"
       x2="77.125"
       y2="14"
       id="linearGradient2550"
       xlink:href="#linearGradient6546-397-668-696-989"
       gradientUnits="userSpaceOnUse"
       gradientTransform="matrix(0.9659258,-0.258819,0.258819,0.9659258,-65.660814,28.06373)" />
    <linearGradient
       x1="9.883214"
       y1="14.05074"
       x2="5.1012387"
       y2="30.00112"
       id="linearGradient2553"
       xlink:href="#linearGradient6531"
       gradientUnits="userSpaceOnUse"
       gradientTransform="matrix(0.8632962,-0.2313195,0.258819,0.9659258,3.1764917,9.6188321)" />
    <linearGradient
       x1="102.35701"
       y1="-41.092239"
       x2="82.681335"
       y2="-41.092239"
       id="linearGradient2556"
       xlink:href="#linearGradient5262"
       gradientUnits="userSpaceOnUse"
       gradientTransform="matrix(0.1184963,0.4422342,-0.4175562,0.1118838,-16.290518,-10.902463)"
       spreadMethod="reflect" />
    <linearGradient
       x1="84.425995"
       y1="8.2933674"
       x2="102.42599"
       y2="8.2933674"
       id="linearGradient2558"
       xlink:href="#linearGradient3858"
       gradientUnits="userSpaceOnUse"
       gradientTransform="matrix(0.258819,0.9659258,-0.9659258,0.258819,-0.8545962,-63.246654)" />
    <radialGradient
       gradientUnits="userSpaceOnUse"
       xlink:href="#linearGradient6057"
       id="radialGradient2532"
       fy="6.2806997"
       fx="18.031223"
       r="3.1819806"
       cy="6.2806997"
       cx="18.031223" />
    <linearGradient
       id="linearGradient6057">
      <stop
         offset="0"
         style="stop-color:white;stop-opacity:1"
         id="stop6059" />
      <stop
         offset="1"
         style="stop-color:white;stop-opacity:0"
         id="stop6061" />
    </linearGradient>
    <filter
       id="filter5745"
       color-interpolation-filters="sRGB">
      <feGaussianBlur
         id="feGaussianBlur5747"
         stdDeviation="0.8362597" />
    </filter>
    <linearGradient
       gradientTransform="translate(0,-1.926279)"
       gradientUnits="userSpaceOnUse"
       xlink:href="#linearGradient10591"
       id="linearGradient2534"
       y2="17.470011"
       x2="27.192274"
       y1="2.9136841"
       x1="10.650842" />
    <linearGradient
       id="linearGradient10591">
      <stop
         offset="0"
         style="stop-color:#cad0c6;stop-opacity:1"
         id="stop10593" />
      <stop
         offset="0.5"
         style="stop-color:#eaece9;stop-opacity:1"
         id="stop10599" />
      <stop
         offset="1"
         style="stop-color:#c5cbc0;stop-opacity:1"
         id="stop10595" />
    </linearGradient>
    <linearGradient
       gradientTransform="translate(1.6824037,1.125)"
       gradientUnits="userSpaceOnUse"
       xlink:href="#linearGradient6227"
       id="linearGradient2536-7"
       y2="14.849737"
       x2="33.004314"
       y1="14.849737"
       x1="35.004684" />
    <linearGradient
       id="linearGradient6227">
      <stop
         offset="0"
         style="stop-color:black;stop-opacity:1"
         id="stop6229" />
      <stop
         offset="1"
         style="stop-color:black;stop-opacity:0"
         id="stop6231" />
    </linearGradient>
    <filter
       id="filter6251"
       color-interpolation-filters="sRGB"
       height="1.0951581"
       width="1.4848505"
       y="-0.047579072"
       x="-0.24242526">
      <feGaussianBlur
         id="feGaussianBlur6253"
         stdDeviation="0.24444548" />
    </filter>
    <linearGradient
       gradientTransform="translate(-19.532826,1.7437184)"
       gradientUnits="userSpaceOnUse"
       xlink:href="#linearGradient6227"
       id="linearGradient2538"
       y2="13.789077"
       x2="35.020981"
       y1="13.789077"
       x1="32.128025" />
    <radialGradient
       gradientTransform="matrix(1.3870968,0,0,0.8113208,10.987903,1.9296697)"
       gradientUnits="userSpaceOnUse"
       xlink:href="#linearGradient6075"
       id="radialGradient2527"
       fy="20.3125"
       fx="15.9375"
       r="3.3125"
       cy="20.3125"
       cx="15.9375" />
    <linearGradient
       id="linearGradient6075">
      <stop
         offset="0"
         style="stop-color:black;stop-opacity:1"
         id="stop6077" />
      <stop
         offset="1"
         style="stop-color:black;stop-opacity:0"
         id="stop6079" />
    </linearGradient>
    <radialGradient
       gradientTransform="matrix(1.3870968,0,0,0.8113208,-7.0120971,1.9296697)"
       gradientUnits="userSpaceOnUse"
       xlink:href="#linearGradient6075"
       id="radialGradient2530"
       fy="20.3125"
       fx="15.9375"
       r="3.3125"
       cy="20.3125"
       cx="15.9375" />
    <filter
       id="filter5957"
       color-interpolation-filters="sRGB"
       height="1.1647059"
       width="1.9882354"
       y="-0.082352944"
       x="-0.49411765">
      <feGaussianBlur
         id="feGaussianBlur5959"
         stdDeviation="0.69878785" />
    </filter>
    <linearGradient
       gradientTransform="matrix(0.9413543,0,0,0.7755502,1.4105206,6.2414233)"
       gradientUnits="userSpaceOnUse"
       xlink:href="#linearGradient12071"
       id="linearGradient3236"
       y2="18.037588"
       x2="21.941509"
       y1="21.550869"
       x1="21.941509" />
    <linearGradient
       id="linearGradient12071">
      <stop
         offset="0"
         style="stop-color:white;stop-opacity:1"
         id="stop12073" />
      <stop
         offset="1"
         style="stop-color:white;stop-opacity:0"
         id="stop12075" />
    </linearGradient>
    <linearGradient
       gradientTransform="matrix(0.9422167,0,0,1.5,1.3898222,-9.4028767)"
       gradientUnits="userSpaceOnUse"
       xlink:href="#linearGradient5881"
       id="linearGradient3239"
       y2="17"
       x2="24.75"
       y1="21"
       x1="24.875" />
    <linearGradient
       id="linearGradient5881">
      <stop
         offset="0"
         style="stop-color:#d6c8a7;stop-opacity:1"
         id="stop5883" />
      <stop
         offset="1"
         style="stop-color:#d0bd99;stop-opacity:1"
         id="stop5885" />
    </linearGradient>
    <linearGradient
       gradientTransform="matrix(0.9405192,0,0,1.1176137,1.4447998,-5.9978884)"
       gradientUnits="userSpaceOnUse"
       xlink:href="#linearGradient9845"
       id="linearGradient3242"
       y2="36.127281"
       x2="30.875446"
       y1="25.002281"
       x1="10.907269" />
    <linearGradient
       id="linearGradient9845">
      <stop
         offset="0"
         style="stop-color:white;stop-opacity:1"
         id="stop9847" />
      <stop
         offset="1"
         style="stop-color:white;stop-opacity:0.49484536"
         id="stop9849" />
    </linearGradient>
    <linearGradient
       gradientTransform="matrix(0.943025,0,0,1.1298556,1.3703378,-7.8420138)"
       gradientUnits="userSpaceOnUse"
       xlink:href="#linearGradient2411"
       id="linearGradient3255"
       y2="32.161697"
       x2="40.938126"
       y1="32.161697"
       x1="6.72682" />
    <linearGradient
       id="linearGradient2411">
      <stop
         offset="0"
         style="stop-color:#fee7b1;stop-opacity:1"
         id="stop2413" />
      <stop
         offset="0.25796592"
         style="stop-color:#ebd4b4;stop-opacity:1"
         id="stop2419" />
      <stop
         offset="0.50796592"
         style="stop-color:#c8a775;stop-opacity:1"
         id="stop2421" />
      <stop
         offset="0.74009573"
         style="stop-color:#b0935b;stop-opacity:1"
         id="stop2423" />
      <stop
         offset="1"
         style="stop-color:#fcebbf;stop-opacity:1"
         id="stop2415" />
    </linearGradient>
    <linearGradient
       gradientUnits="userSpaceOnUse"
       xlink:href="#linearGradient3257"
       id="linearGradient3263"
       y2="13.996504"
       x2="22.015385"
       y1="45"
       x1="22.015385" />
    <linearGradient
       id="linearGradient3257">
      <stop
         offset="0"
         style="stop-color:#957747;stop-opacity:1"
         id="stop3259" />
      <stop
         offset="1"
         style="stop-color:#ae8c56;stop-opacity:1"
         id="stop3261" />
    </linearGradient>
    <radialGradient
       gradientTransform="matrix(1.0196564,0,0,0.2039312,-0.935075,33.441752)"
       gradientUnits="userSpaceOnUse"
       xlink:href="#linearGradient3437"
       id="radialGradient2498"
       fy="46.869949"
       fx="24.45439"
       r="19.61445"
       cy="46.869949"
       cx="24.45439" />
    <linearGradient
       id="linearGradient3437">
      <stop
         offset="0"
         style="stop-color:black;stop-opacity:1"
         id="stop3439" />
      <stop
         offset="1"
         style="stop-color:black;stop-opacity:0"
         id="stop3441" />
    </linearGradient>
    <radialGradient
       id="radialGradient6964"
       xlink:href="#linearGradient6958"
       gradientUnits="userSpaceOnUse"
       cy="22.844"
       cx="72.496002"
       gradientTransform="matrix(2.6999,0,0,3.5714,-122.47,-58.74)"
       r="4.8202" />
    <linearGradient
       id="linearGradient6958">
      <stop
         id="stop6960"
         style="stop-color:#729fcf"
         offset="0" />
      <stop
         id="stop6966"
         style="stop-color:#729fcf"
         offset="0.6" />
      <stop
         id="stop6962"
         style="stop-color:#729fcf;stop-opacity:0"
         offset="1" />
    </linearGradient>
    <radialGradient
       id="radialGradient6968"
       xlink:href="#linearGradient6958"
       gradientUnits="userSpaceOnUse"
       cy="22.844"
       cx="72.496002"
       gradientTransform="matrix(2.6999,0,0,3.6828,-122.47,-61.286)"
       r="4.8202" />
    <linearGradient
       id="linearGradient3402">
      <stop
         id="stop3404"
         style="stop-color:#729fcf"
         offset="0" />
      <stop
         id="stop3406"
         style="stop-color:#729fcf"
         offset="0.6" />
      <stop
         id="stop3408"
         style="stop-color:#729fcf;stop-opacity:0"
         offset="1" />
    </linearGradient>
    <radialGradient
       id="radialGradient6976"
       xlink:href="#linearGradient6958"
       gradientUnits="userSpaceOnUse"
       cy="22.733999"
       cx="70.530998"
       gradientTransform="matrix(1.8087,0,0,3.5234,-57.039,-57.369)"
       r="3.5975001" />
    <linearGradient
       id="linearGradient3411">
      <stop
         id="stop3413"
         style="stop-color:#729fcf"
         offset="0" />
      <stop
         id="stop3415"
         style="stop-color:#729fcf"
         offset="0.6" />
      <stop
         id="stop3417"
         style="stop-color:#729fcf;stop-opacity:0"
         offset="1" />
    </linearGradient>
    <radialGradient
       id="radialGradient6984"
       xlink:href="#linearGradient6958"
       gradientUnits="userSpaceOnUse"
       cy="22.656"
       cx="60.640999"
       gradientTransform="matrix(2.1455,0,0,3.0192,-69.461,-45.747)"
       r="2.6194" />
    <linearGradient
       id="linearGradient3420">
      <stop
         id="stop3422"
         style="stop-color:#729fcf"
         offset="0" />
      <stop
         id="stop3424"
         style="stop-color:#729fcf"
         offset="0.6" />
      <stop
         id="stop3426"
         style="stop-color:#729fcf;stop-opacity:0"
         offset="1" />
    </linearGradient>
    <radialGradient
       id="radialGradient7118"
       gradientUnits="userSpaceOnUse"
       cy="36.862999"
       cx="11.402"
       gradientTransform="matrix(1,0,0,0.33058,0,24.677)"
       r="10.695">
      <stop
         id="stop17125-2"
         offset="0" />
      <stop
         id="stop17127-0"
         style="stop-opacity:0"
         offset="1" />
    </radialGradient>
    <linearGradient
       id="linearGradient5545"
       y2="14.001"
       gradientUnits="userSpaceOnUse"
       x2="78.5"
       gradientTransform="matrix(0.90625,0,0,1,-65.922,19)"
       y1="-4.0064998"
       x1="78.5">
      <stop
         id="stop2795"
         style="stop-color:#babdb6"
         offset="0" />
      <stop
         id="stop2801"
         style="stop-color:#eeeeec"
         offset=".25301" />
      <stop
         id="stop2797"
         style="stop-color:#555753"
         offset="1" />
    </linearGradient>
    <linearGradient
       id="linearGradient5547"
       y2="-4.0088"
       gradientUnits="userSpaceOnUse"
       x2="80.061996"
       gradientTransform="matrix(0.90625,0,0,1,-65.922,19)"
       y1="14"
       x1="80.061996">
      <stop
         id="stop5535"
         style="stop-color:#555753"
         offset="0" />
      <stop
         id="stop5537"
         style="stop-color:#babdb6"
         offset="1" />
    </linearGradient>
    <linearGradient
       id="linearGradient6537"
       y2="39.883999"
       gradientUnits="userSpaceOnUse"
       x2="3.8448999"
       y1="15.561"
       x1="3.8448999">
      <stop
         id="stop6533-5"
         style="stop-color:#fff"
         offset="0" />
      <stop
         id="stop6535-5"
         style="stop-color:#fff;stop-opacity:0"
         offset="1" />
    </linearGradient>
    <linearGradient
       id="linearGradient6558"
       y2="14"
       gradientUnits="userSpaceOnUse"
       x2="77.125"
       gradientTransform="translate(-70,2)"
       y1="31.561001"
       x1="80.693001">
      <stop
         id="stop6548"
         style="stop-color:#555753"
         offset="0" />
      <stop
         id="stop6550"
         style="stop-color:#888a85"
         offset="1" />
    </linearGradient>
    <radialGradient
       id="radialGradient6553"
       gradientUnits="userSpaceOnUse"
       cy="18.816999"
       cx="9.3204002"
       gradientTransform="matrix(0.71325,0.52215,-0.92808,1.1785,22.517,-6.7083)"
       r="12.5">
      <stop
         id="stop6635-2"
         style="stop-color:#eeeeec"
         offset="0" />
      <stop
         id="stop6637-9"
         style="stop-color:#61635f"
         offset="1" />
    </radialGradient>
    <linearGradient
       id="linearGradient6545"
       y2="12.064"
       gradientUnits="userSpaceOnUse"
       x2="4.6431999"
       gradientTransform="matrix(0.91146,0,0,0.87879,2.7005,4.6667)"
       y1="33.047001"
       x1="7.75">
      <stop
         id="stop6629"
         style="stop-color:#555753"
         offset="0" />
      <stop
         id="stop6631"
         style="stop-color:#babdb6"
         offset="1" />
    </linearGradient>
    <radialGradient
       id="radialGradient6657"
       gradientUnits="userSpaceOnUse"
       cy="27.052999"
       cx="23.987"
       gradientTransform="matrix(-0.24329,0,0,-1.2543,25.221,61.871)"
       r="7.75">
      <stop
         id="stop6653-0"
         style="stop-color:#fff"
         offset="0" />
      <stop
         id="stop6655-2"
         style="stop-color:#fff;stop-opacity:0"
         offset="1" />
    </radialGradient>
    <linearGradient
       id="linearGradient6641"
       y2="21.75"
       gradientUnits="userSpaceOnUse"
       x2="11.438"
       gradientTransform="matrix(0.66667,0,0,1,2,-1)"
       y1="20.334"
       x1="20.226">
      <stop
         id="stop6381-8"
         style="stop-color:#fff;stop-opacity:0"
         offset="0" />
      <stop
         id="stop21606-3"
         style="stop-color:#fff"
         offset=".5" />
      <stop
         id="stop6383-8"
         style="stop-color:#fff;stop-opacity:0"
         offset="1" />
    </linearGradient>
    <linearGradient
       id="linearGradient6579"
       y2="47.497002"
       gradientUnits="userSpaceOnUse"
       x2="12.198"
       y1="9.2596998"
       x1="12.198">
      <stop
         id="stop6575-0"
         style="stop-color:#fff"
         offset="0" />
      <stop
         id="stop6577-4"
         style="stop-color:#fff;stop-opacity:0"
         offset="1" />
    </linearGradient>
    <radialGradient
       id="radialGradient6595"
       gradientUnits="userSpaceOnUse"
       cy="30.233"
       cx="23.165001"
       gradientTransform="matrix(1.7346,-0.16988,0.32776,3.6175,-27.429,-73.697)"
       r="8.1890001">
      <stop
         id="stop6669"
         style="stop-color:#babdb6"
         offset="0" />
      <stop
         id="stop6671"
         style="stop-color:#555753"
         offset="1" />
    </radialGradient>
    <linearGradient
       id="linearGradient6801"
       y2="0.31037"
       gradientUnits="userSpaceOnUse"
       x2="33.431"
       y1="45.051998"
       x1="33.431">
      <stop
         id="stop6645-0"
         style="stop-color:#555753"
         offset="0" />
      <stop
         id="stop6647-9"
         style="stop-color:#d3d7cf"
         offset="1" />
    </linearGradient>
    <radialGradient
       id="radialGradient6603"
       gradientUnits="userSpaceOnUse"
       cy="20.434"
       cx="20.884001"
       gradientTransform="matrix(1.3094,0,0,1.5605,-8.3886,-9.7845)"
       r="4">
      <stop
         id="stop6591"
         style="stop-color:#babdb6"
         offset="0" />
      <stop
         id="stop6593"
         style="stop-color:#555753"
         offset="1" />
    </radialGradient>
    <radialGradient
       id="radialGradient6625"
       gradientUnits="userSpaceOnUse"
       cy="42.261002"
       cx="30.684999"
       gradientTransform="matrix(3.9866,0.117,0,-2.53,-104.63,112.74)"
       r="8.2278996">
      <stop
         id="stop6609"
         style="stop-color:#eeeeec"
         offset="0" />
      <stop
         id="stop6611"
         style="stop-color:#babdb6"
         offset="1" />
    </radialGradient>
    <linearGradient
       id="linearGradient6634"
       y2="26.354"
       gradientUnits="userSpaceOnUse"
       x2="29.893"
       y1="12.159"
       x1="23.238001">
      <stop
         id="stop6630-1"
         offset="0" />
      <stop
         id="stop6632-9"
         style="stop-opacity:0"
         offset="1" />
    </linearGradient>
    <linearGradient
       id="linearGradient6706"
       y2="25.698999"
       gradientUnits="userSpaceOnUse"
       x2="28.555"
       y1="25.587"
       x1="17.5">
      <stop
         id="stop6702-6"
         style="stop-color:#fff"
         offset="0" />
      <stop
         id="stop6704-2"
         style="stop-color:#fff;stop-opacity:0"
         offset="1" />
    </linearGradient>
  </defs>
  <g
     transform="translate(0.06969943,-0.05130591)"
     id="layer1-5">
    <path
       inkscape:connector-curvature="0"
       id="path16236"
       style="opacity:0.2;fill:url(#radialGradient7118)"
       d="m 22.097,36.863 a 10.695,3.5355 0 1 1 -21.39,0 10.695,3.5355 0 1 1 21.39,0 z"
       transform="matrix(1.5366,0,0,2.42,-1.1723,-56.385)" />
    <path
       inkscape:connector-curvature="0"
       id="path5330"
       style="fill:#2e3436;stroke:#555753;stroke-width:1.30270004;stroke-linecap:round"
       d="m 8,25 a 4,7 0 1 1 -8,0 4,7 0 1 1 8,0 z"
       transform="matrix(0.75,0,0,0.78571,1.5,4.3572)" />
    <path
       inkscape:connector-curvature="0"
       id="path6659"
       style="fill:#babdb6"
       d="m 4.5,20.75 a 0.75,0.75 0 1 1 -1.5,0 0.75,0.75 0 1 1 1.5,0 z"
       transform="translate(-1.5312,0.65625)" />
    <path
       inkscape:connector-curvature="0"
       id="path2766"
       style="fill:url(#linearGradient5545);stroke:url(#linearGradient5547);stroke-linecap:round"
       d="M 6.125,15.5 C 4.124,15.5 2.5,19.308 2.5,24 c 0,4.692 1.624,8.5 3.625,8.5 H 9.75 c 2.001,0 3.625,-3.808 3.625,-8.5 0,-4.692 -1.624,-8.5 -3.625,-8.5 H 6.125 z" />
    <path
       inkscape:connector-curvature="0"
       id="path5556"
       style="opacity:0.6;fill:none;stroke:url(#linearGradient6537);stroke-width:1.05780005;stroke-linecap:round"
       d="M 5.5,14.5 C 4.974,14.5 4.2339,15.046 3.5938,16.406 2.9536,17.767 2.5,19.782 2.5,22 c 0,2.218 0.4536,4.233 1.0938,5.594 C 4.2339,28.954 4.974,29.5 5.5,29.5 h 4 c 0.526,0 1.266,-0.546 1.906,-1.906 C 12.046,26.233 12.5,24.218 12.5,22 12.5,19.782 12.046,17.767 11.406,16.406 10.766,15.046 10.026,14.5 9.5,14.5 h -4 z"
       transform="matrix(0.89375,0,0,1,1.2656,2)" />
    <path
       inkscape:connector-curvature="0"
       id="path6556"
       style="fill:url(#linearGradient6558)"
       d="M 9.6969,16 C 7.6562,16 6,19.577 6,23.984 c 0,4.408 1.6562,7.985 3.6969,7.985 h 0.6371 c 2.041,0 3.697,-3.577 3.697,-7.985 C 14.031,19.577 12.375,16 10.334,16 H 9.6969 z" />
    <path
       inkscape:connector-curvature="0"
       id="path1871"
       style="fill:url(#radialGradient6553);stroke:url(#linearGradient6545);stroke-linecap:round"
       d="m 8.625,24 c 0,9.227 9.187,14.5 14.875,14.5 3.938,0 7,-6.496 7,-14.5 0,-8.004 -3.062,-14.5 -7,-14.5 C 17.812,9.5 8.625,14.773 8.625,24 z" />
    <path
       inkscape:connector-curvature="0"
       id="path6649"
       style="fill:url(#radialGradient6657)"
       d="m 33,27.938 a 7.75,16.562 0 1 1 -15.5,0 7.75,16.562 0 1 1 15.5,0 z"
       transform="matrix(1.3226,0,0,1.0264,-12.145,-4.6755)" />
    <path
       inkscape:connector-curvature="0"
       id="path6639"
       style="opacity:0.73358998;fill:url(#linearGradient6641);fill-rule:evenodd"
       d="m 16,13.375 c -2.583,1.395 -5.458,4.196 -8,8.125 2.7,-1.126 5.491,-1.96 8,-1.75 v -6.375 z" />
    <path
       inkscape:connector-curvature="0"
       id="path6567"
       style="opacity:0.58621;fill:none;stroke:url(#linearGradient6579);stroke-width:1.12730002;stroke-linecap:round"
       d="m 22.812,6.5 c -2.795,0 -6.724,1.4333 -9.843,4.094 C 9.849,13.254 7.5,17.074 7.5,22 c 0,4.926 2.349,8.746 5.469,11.406 3.119,2.661 7.048,4.094 9.843,4.094 1.583,0 3.233,-1.444 4.532,-4.25 C 28.642,30.444 29.5,26.429 29.5,22 29.5,17.571 28.642,13.556 27.344,10.75 26.045,7.9437 24.395,6.5 22.812,6.5 z"
       transform="matrix(0.90341,0,0,0.87097,2.8494,4.8387)" />
    <path
       inkscape:connector-curvature="0"
       id="path1873"
       style="fill:url(#radialGradient6595);stroke:url(#linearGradient6801);stroke-width:0.83240998;stroke-linecap:round"
       d="m 33,27.938 a 7.75,16.562 0 1 1 -15.5,0 7.75,16.562 0 1 1 15.5,0 z"
       transform="matrix(1.2258,0,0,1.1774,-8.9516,-8.8925)" />
    <path
       inkscape:connector-curvature="0"
       id="path3672"
       style="fill:url(#radialGradient6603);stroke:#555753;stroke-linecap:round"
       d="m 21.616,24 c 0,2.484 -2.383,4.5 -4.066,4.5 -1.684,0 -3.05,-2.016 -3.05,-4.5 0,-2.484 1.366,-4.5 3.05,-4.5 1.683,0 4.066,2.016 4.066,4.5 z" />
    <path
       inkscape:connector-curvature="0"
       id="path6605"
       style="fill:url(#radialGradient6625)"
       d="m 22,5 c -2.632,0 -4.858,2.2498 -6.438,5.688 -1.579,3.437 -2.531,8.142 -2.531,13.312 0,5.17 0.952,9.875 2.531,13.312 C 17.142,40.75 19.368,43 22,43 c 2.632,0 4.858,-2.25 6.438,-5.688 0.987,-2.148 1.737,-4.811 2.156,-7.75 0.013,-0.092 0.018,-0.187 0.031,-0.281 0.076,-0.567 0.136,-1.131 0.187,-1.719 0.051,-0.546 0.098,-1.093 0.126,-1.656 0.001,-0.031 -0.002,-0.062 0,-0.094 0.027,-0.595 0.031,-1.2 0.031,-1.812 0,-0.644 -0.001,-1.28 -0.031,-1.906 C 30.912,21.537 30.86,20.979 30.812,20.438 30.761,19.85 30.701,19.286 30.625,18.719 30.612,18.624 30.608,18.532 30.594,18.438 30.175,15.499 29.425,12.836 28.438,10.688 26.858,7.2498 24.632,5 22,5 z m 0.5,2 c 1.922,0 3.78,1.7656 5.188,4.844 0.879,1.924 1.576,4.335 1.968,7.031 0.079,0.539 0.134,1.095 0.188,1.656 0.047,0.526 0.099,1.054 0.125,1.594 0.032,0.62 0.062,1.236 0.062,1.875 0,0.596 -0.034,1.17 -0.062,1.75 -0.002,0.041 0.002,0.084 0,0.125 -0.028,0.537 -0.075,1.073 -0.125,1.594 -0.054,0.561 -0.109,1.117 -0.188,1.656 -0.392,2.696 -1.089,5.107 -1.968,7.031 C 26.28,39.234 24.422,41 22.5,41 20.578,41 18.72,39.234 17.312,36.156 15.905,33.078 14.969,28.766 14.969,24 c 0,-4.766 0.936,-9.078 2.343,-12.156 C 18.72,8.7656 20.578,7 22.5,7 z" />
    <path
       inkscape:connector-curvature="0"
       id="path6615"
       style="opacity:0.36637998;fill:none;stroke:url(#linearGradient6634);stroke-width:1.05420005;stroke-linecap:round"
       d="m 33,27.938 a 7.75,16.562 0 1 1 -15.5,0 7.75,16.562 0 1 1 15.5,0 z"
       transform="matrix(0.90323,0,0,0.99623,-0.30645,-3.8321)" />
    <path
       inkscape:connector-curvature="0"
       id="path6661"
       style="fill:#ffffff"
       d="m 21.5,13.5 a 1,1 0 1 1 -2,0 1,1 0 1 1 2,0 z"
       transform="translate(-16,5.3125)" />
    <path
       inkscape:connector-curvature="0"
       id="path6698"
       style="opacity:0.65517004;fill:none;stroke:url(#linearGradient6706);stroke-width:0.90347999;stroke-linecap:round"
       d="m 33,27.938 a 7.75,16.562 0 1 1 -15.5,0 7.75,16.562 0 1 1 15.5,0 z"
       transform="matrix(1.0968,0,0,1.117,-5.6936,-7.2057)" />
    <path
       inkscape:connector-curvature="0"
       id="path5501"
       style="fill:#ffffff"
       d="m 21.5,13.5 a 1,1 0 1 1 -2,0 1,1 0 1 1 2,0 z"
       transform="translate(-5,-1.875)" />
  </g>
  <g
     id="layer1"
     transform="matrix(0.51186441,0,0,0.51186441,25.138983,0.49203434)">
    <path
       style="opacity:0.4;fill:url(#radialGradient2498);fill-opacity:1;stroke:none"
       id="path3435"
       d="m 44,43 c 0,2.209138 -8.954306,4 -20,4 -11.045695,0 -20.0000001,-1.790862 -20.0000001,-4 0,-2.209139 8.9543051,-4.000001 20.0000001,-4.000001 11.045694,0 20,1.790862 20,4.000001 z" />
    <path
       style="fill:url(#linearGradient3255);fill-opacity:1;fill-rule:evenodd;stroke:url(#linearGradient3263);stroke-width:0.99999946;stroke-linecap:round;stroke-linejoin:round;stroke-miterlimit:4;stroke-opacity:1;stroke-dashoffset:0"
       id="rect1314"
       d="m 9.6076372,15.597122 c 9.5073408,-1.443399 19.1158448,-1.219316 28.7847248,0 1.167633,0 2.107638,1.04357 2.107638,2.339844 l 0,23.320312 c 0,1.296274 -1.000672,2.152344 -2.107638,2.339844 -10.02436,1.208603 -18.619576,1.199062 -28.7847248,0 -1.3496328,-0.4375 -2.107637,-1.04357 -2.107637,-2.339844 l 0,-23.320312 c 0,-1.296274 0.9400061,-2.339844 2.107637,-2.339844 z" />
    <g
       id="g4695"
       transform="matrix(0.9706771,0,0,1,-0.7507553,-1.9028777)">
      <path
         style="opacity:0.14117647;fill:#000000;fill-opacity:1;fill-rule:evenodd;stroke:none;stroke-width:1;marker:none;visibility:visible;display:inline;overflow:visible;enable-background:accumulate"
         id="path6193"
         d="m 41.940271,24.444505 c -0.398206,1.330312 -4.534152,1.670412 -5.302076,1.773431 0,0 -16.308875,0.480472 -16.308875,0.480472 0,0 16.26324,0.159134 16.26324,0.159134 0.825913,-0.09712 5.218651,0.103389 5.4361,-1.70593 l -0.08839,-0.707107 z" />
      <path
         style="opacity:0.14117647;fill:#000000;fill-opacity:1;fill-rule:evenodd;stroke:none;stroke-width:1;marker:none;visibility:visible;display:inline;overflow:visible;enable-background:accumulate"
         id="path4678"
         d="m 41.940271,26.444505 c -0.398206,1.330312 -4.534152,1.670412 -5.302076,1.773431 0,0 -19.058875,0.480472 -19.058875,0.480472 0,0 19.01324,0.159134 19.01324,0.159134 0.825913,-0.09712 5.218651,0.103389 5.4361,-1.70593 l -0.08839,-0.707107 z" />
      <path
         style="opacity:0.14117647;fill:#000000;fill-opacity:1;fill-rule:evenodd;stroke:none;stroke-width:1;marker:none;visibility:visible;display:inline;overflow:visible;enable-background:accumulate"
         id="path4680"
         d="m 41.940271,28.444505 c -0.398206,1.330312 -4.534152,1.670412 -5.302076,1.773431 0,0 -16.308875,0.480472 -16.308875,0.480472 0,0 16.26324,0.159134 16.26324,0.159134 0.825913,-0.09712 5.218651,0.103389 5.4361,-1.70593 l -0.08839,-0.707107 z" />
      <path
         style="opacity:0.14117647;fill:#000000;fill-opacity:1;fill-rule:evenodd;stroke:none;stroke-width:1;marker:none;visibility:visible;display:inline;overflow:visible;enable-background:accumulate"
         id="path4682"
         d="m 41.940271,30.444505 c -0.398206,1.330312 -4.534152,1.670412 -5.302076,1.773431 0,0 -11.058875,0.480472 -11.058875,0.480472 0,0 11.01324,0.159134 11.01324,0.159134 0.825913,-0.09712 5.218651,0.103389 5.4361,-1.70593 l -0.08839,-0.707107 z" />
      <path
         style="opacity:0.14117647;fill:#000000;fill-opacity:1;fill-rule:evenodd;stroke:none;stroke-width:1;marker:none;visibility:visible;display:inline;overflow:visible;enable-background:accumulate"
         id="path4684"
         d="m 41.940271,32.444505 c -0.398206,1.330312 -4.534152,1.670412 -5.302076,1.773431 0,0 -16.308875,0.480472 -16.308875,0.480472 0,0 16.26324,0.159134 16.26324,0.159134 0.825913,-0.09712 5.218651,0.103389 5.4361,-1.70593 l -0.08839,-0.707107 z" />
      <path
         style="opacity:0.14117647;fill:#000000;fill-opacity:1;fill-rule:evenodd;stroke:none;stroke-width:1;marker:none;visibility:visible;display:inline;overflow:visible;enable-background:accumulate"
         id="path4686"
         d="m 41.940271,34.444505 c -0.398206,1.330312 -4.534152,1.670412 -5.302076,1.773431 0,0 -18.746375,0.480472 -18.746375,0.480472 0,0 18.70074,0.159134 18.70074,0.159134 0.825913,-0.09712 5.218651,0.103389 5.4361,-1.70593 l -0.08839,-0.707107 z" />
      <path
         style="opacity:0.14117647;fill:#000000;fill-opacity:1;fill-rule:evenodd;stroke:none;stroke-width:1;marker:none;visibility:visible;display:inline;overflow:visible;enable-background:accumulate"
         id="path4688"
         d="m 41.940271,36.444505 c -0.398206,1.330312 -4.534152,1.670412 -5.302076,1.773431 0,0 -13.996375,0.480472 -13.996375,0.480472 0,0 13.95074,0.159134 13.95074,0.159134 0.825913,-0.09712 5.218651,0.103389 5.4361,-1.70593 l -0.08839,-0.707107 z" />
      <path
         style="opacity:0.14117647;fill:#000000;fill-opacity:1;fill-rule:evenodd;stroke:none;stroke-width:1;marker:none;visibility:visible;display:inline;overflow:visible;enable-background:accumulate"
         id="path4690"
         d="m 41.940271,38.444505 c -0.398206,1.330312 -4.534152,1.670412 -5.302076,1.773431 0,0 -8.433875,0.480472 -8.433875,0.480472 0,0 8.38824,0.159134 8.38824,0.159134 0.825913,-0.09712 5.218651,0.103389 5.4361,-1.70593 l -0.08839,-0.707107 z" />
      <path
         style="opacity:0.14117647;fill:#000000;fill-opacity:1;fill-rule:evenodd;stroke:none;stroke-width:1;marker:none;visibility:visible;display:inline;overflow:visible;enable-background:accumulate"
         id="path4692"
         d="m 41.940271,40.444505 c -0.398206,1.330312 -4.534152,1.670412 -5.302076,1.773431 0,0 -16.308875,0.480472 -16.308875,0.480472 0,0 16.26324,0.159134 16.26324,0.159134 0.825913,-0.09712 5.218651,0.103389 5.4361,-1.70593 l -0.08839,-0.707107 z" />
    </g>
    <path
       style="opacity:0.37999998;fill:none;stroke:url(#linearGradient3242);stroke-width:1.00000024;stroke-linecap:round;stroke-linejoin:round;stroke-miterlimit:4;stroke-opacity:0.60109289;stroke-dashoffset:0"
       id="rect6903"
       d="m 9.6836237,17.092483 28.6396773,0 c 0.671971,0 1.212946,0.586115 1.212946,1.314159 l 0,22.876321 c 0,0.728044 -0.480307,1.064159 -1.212946,1.314159 -9.364556,1.203613 -18.60778,1.200821 -28.6396773,0 -0.6719726,-0.25 -1.2129464,-0.586115 -1.2129464,-1.314159 l 0,-22.876321 c 0,-0.728044 0.5409738,-1.314159 1.2129464,-1.314159 z" />
    <path
       style="fill:url(#linearGradient3239);fill-opacity:1;fill-rule:evenodd;stroke:none;stroke-width:2;marker:none;visibility:visible;display:inline;overflow:visible"
       id="rect1460"
       d="m 9.545921,16.097122 c 9.638068,-1.460747 19.276134,-1.200569 28.914203,0 0.864562,0 1.560583,0.717046 1.560583,1.607725 l 0,2.78455 c 0,0.890679 -0.696021,1.607725 -1.560583,1.607725 -10.057893,0.6901 -19.312035,0.44381 -28.914203,0 -0.8645622,0 -1.5605819,-0.717046 -1.5605819,-1.607725 l 0,-2.78455 c 0,-0.890679 0.6960197,-1.607725 1.5605819,-1.607725 z" />
    <path
       style="opacity:0.6;fill:none;stroke:url(#linearGradient3236);stroke-width:1;stroke-linecap:round;stroke-linejoin:round;stroke-miterlimit:4;stroke-opacity:1;stroke-dashoffset:0;marker:none;visibility:visible;display:inline;overflow:visible"
       id="rect1593"
       d="m 9.6004853,19.813555 28.8050767,0 c 0.625913,0 1.129809,0.398555 1.129809,0.893623 l 0,0.539405 c 0,0.495067 -0.503896,0.893623 -1.129809,0.893623 -9.512086,0.977722 -19.131629,1.037555 -28.8050767,0 -0.625914,0 -1.129808,-0.398556 -1.129808,-0.893623 l 0,-0.539405 c 0,-0.495068 0.503894,-0.893623 1.129808,-0.893623 z" />
    <rect
       style="opacity:0.2;fill:#ffffff;fill-opacity:1;fill-rule:evenodd;stroke:none;stroke-width:1;marker:none;visibility:visible;display:inline;overflow:visible;filter:url(#filter5957);enable-background:accumulate"
       id="rect5887"
       transform="matrix(1.9144392,0,0,1.2283366,-15.858733,-7.2062543)"
       y="23.226137"
       x="14.594036"
       ry="1.6077254"
       rx="1.6077254"
       height="16.970562"
       width="2.8284271" />
    <path
       style="opacity:0.3;fill:url(#radialGradient2530);fill-opacity:1;fill-rule:evenodd;stroke:none;stroke-width:1;marker:none;visibility:visible;display:inline;overflow:visible;enable-background:accumulate"
       id="path6073"
       d="m 19.689516,18.409623 c 0,1.484266 -2.057144,2.6875 -4.594758,2.6875 -2.537615,0 -4.594758,-1.203234 -4.594758,-2.6875 0,-1.484266 2.057143,-2.6875 4.594758,-2.6875 2.537614,0 4.594758,1.203234 4.594758,2.6875 z" />
    <path
       style="opacity:0.3;fill:url(#radialGradient2527);fill-opacity:1;fill-rule:evenodd;stroke:none;stroke-width:1;marker:none;visibility:visible;display:inline;overflow:visible;enable-background:accumulate"
       id="path6083"
       d="m 37.689516,18.409623 c 0,1.484266 -2.057143,2.6875 -4.594758,2.6875 -2.537614,0 -4.594758,-1.203234 -4.594758,-2.6875 0,-1.484266 2.057144,-2.6875 4.594758,-2.6875 2.537615,0 4.594758,1.203234 4.594758,2.6875 z" />
    <g
       id="g1387"
       transform="matrix(0.8563683,0,0,0.9968005,3.3880698,-2.4746473)">
      <path
         style="fill:url(#linearGradient2534);fill-opacity:1;fill-rule:evenodd;stroke:#888a85;stroke-width:1.08234417;stroke-linecap:butt;stroke-linejoin:miter;stroke-miterlimit:4;stroke-opacity:1;stroke-dasharray:none"
         id="path2086"
         d="m 10.6402,20.234846 0,-5.734846 C 10.6402,6.6298666 15.897609,2.8910066 24.020027,2.9892921 32.18664,3.0875777 37.5,6.5372782 37.5,14.5 l 0,5.984846 c 0,1.954229 -5.490701,2.202951 -5.490701,0 l 0,-3.984846 c 0,-2 0.568453,-8.471853 -7.932058,-8.471853 -8.430413,0 -7.81615,6.511738 -7.783459,8.463879 l 0,3.776498 c 0,2.35462 -5.653582,2.344609 -5.653582,-0.03368 z" />
      <path
         style="opacity:0.18235294;fill:url(#linearGradient2536-7);fill-opacity:1;fill-rule:evenodd;stroke:none;filter:url(#filter6251)"
         id="rect1345"
         d="m 34.687087,10.837069 1.263948,0.125 c 0.927239,2.822733 0.736052,9.510413 0.736052,9.510413 -0.0625,1.125 -2.03125,0.53125 -2,0 l 0,-9.635413 z" />
      <path
         style="opacity:0.14117647;fill:url(#linearGradient2538);fill-opacity:1;fill-rule:evenodd;stroke:none;filter:url(#filter6251)"
         id="path6332"
         transform="matrix(-1,0,0,1,29.05878,-0.6187184)"
         d="m 12.926606,11.544175 0.371719,0.169195 c 1.720331,1.054966 2.173532,9.37783 2.173532,9.37783 -0.0625,1.125 -2.03125,0.53125 -2,0 0,0 0.37822,-6.87064 -0.545251,-9.547025 z" />
    </g>
    <path
       style="opacity:0.62352941;fill:none;stroke:#ffffff;stroke-width:2.0439775;stroke-linecap:round;stroke-linejoin:miter;stroke-miterlimit:4;stroke-opacity:1;stroke-dasharray:none;stroke-dashoffset:0;marker:none;visibility:visible;display:inline;overflow:visible;filter:url(#filter5745);enable-background:accumulate"
       id="path5675"
       transform="matrix(0.9605048,0,0,0.9968005,0.9443375,-0.08738921)"
       d="m 13.876557,17.722122 0.124999,-7.5 c 0,-9.8763728 18.6875,-10.6764 18.6875,0.875 l 0,6.875" />
    <g
       id="g6067"
       transform="matrix(0.9605048,0,0,0.9968005,0.3540496,-2.5128119)">
      <path
         style="fill:url(#radialGradient2532);fill-opacity:1;fill-rule:evenodd;stroke:none;stroke-width:1;marker:none;visibility:visible;display:inline;overflow:visible;enable-background:accumulate"
         id="path6055"
         d="m 21.213204,6.2806997 c 4.41e-4,1.7576709 -1.42431,3.1827783 -3.181981,3.1827783 -1.75767,0 -3.182421,-1.4251074 -3.18198,-3.1827783 -4.41e-4,-1.7576709 1.42431,-3.1827783 3.18198,-3.1827783 1.757671,0 3.182422,1.4251074 3.181981,3.1827783 l 0,0 z" />
      <path
         style="fill:#ffffff;fill-opacity:1;fill-rule:evenodd;stroke:none;stroke-width:1;marker:none;visibility:visible;display:inline;overflow:visible;enable-background:accumulate"
         id="path6065"
         transform="matrix(0.4343344,0,0,0.4343344,10.199642,3.5527756)"
         d="m 21.213204,6.2806997 c 4.41e-4,1.7576709 -1.42431,3.1827783 -3.181981,3.1827783 -1.75767,0 -3.182421,-1.4251074 -3.18198,-3.1827783 -4.41e-4,-1.7576709 1.42431,-3.1827783 3.18198,-3.1827783 1.757671,0 3.182422,1.4251074 3.181981,3.1827783 l 0,0 z" />
    </g>
  </g>
</svg>
