/* XPM */
static char * climber_xpm[] = {
"240 60 64 1",
" 	c None",
".	c #FFA627",
"+	c #FFA713",
"@	c #FF9803",
"#	c #FEC948",
"$	c #FFBA34",
"%	c #787878",
"&	c #FFB715",
"*	c #181818",
"=	c #FFB821",
"-	c #F6B150",
";	c #F68F11",
">	c #080808",
",	c #252525",
"'	c #FFA900",
")	c #FD8801",
"!	c #FFB508",
"~	c #FFC832",
"{	c #DEBD6B",
"]	c #000000",
"^	c #FF9912",
"/	c #FFCD56",
"(	c #555555",
"_	c #FF962A",
":	c #464645",
"<	c #8F8F8F",
"[	c #AD9452",
"}	c #9C7342",
"|	c #101010",
"1	c #FFBD63",
"2	c #343434",
"3	c #F9CE7B",
"4	c #A58439",
"5	c #AAA9A9",
"6	c #D3BD8A",
"7	c #676767",
"8	c #ADADB5",
"9	c #B58410",
"0	c #9C846B",
"a	c #B9B9BA",
"b	c #CED6D6",
"c	c #CBCBCB",
"d	c #CC911A",
"e	c #6B6352",
"f	c #ECECEC",
"g	c #DBDBDB",
"h	c #FFFFF7",
"i	c #F7F7F7",
"j	c #F5D496",
"k	c #4F300B",
"l	c #342708",
"m	c #FFDEB5",
"n	c #EFEBDF",
"o	c #080000",
"p	c #B5AD94",
"q	c #393942",
"r	c #9A691D",
"s	c #C66B10",
"t	c #61491F",
"u	c #563914",
"v	c #181000",
"w	c #BD6C01",
"x	c #24190D",
"y	c #8A5006",
"                                                                                                                                                                                                                                                ",
"                                                                                                                                                                                                                                                ",
"                                                                                                                                                                                                                                                ",
"                                                                                                                                                                                                                                                ",
"      .+                                                                                                                                                                                                                                        ",
"     @.#$     %                                                                                                              +&&     *                                                                                 &                        ",
"    @=#-;     >,      @'         )+               @$                           '!             #~              @!           $+~#${    ]>       '$         ^/               @+                           @=             ++       (      @#        ",
"   @+/-_^     ]](    ;@&        @$~        :     )'$                          )'#            !&$  <<<<       )'$          -@&#[}%%%  *]|     @'1        )+~  %%%%        )@~               %%<<<      )@#            -&&/      ]2    )'3        ",
"  @'&/_44[<5  ]]>    )@&       )=//6<%<<%< ],    @+~                          )'#           '&/<7<5855%75    @'$         -))90%5abc5%2]]2    @'&       .+~de75a8<0<%     )@&         ~  ='{bfgga(%    )@&           1+$~#55<%7(>](   )@#        ",
"  @&~_4hhhg85<%2>:   )@'/      ;#/-%5gfif8%(>>   @'+j       $    %7%<<<7%     )'!3         ^@{<cfhb55<<a<0   )!'/        ))kl:%<abihha*]]7   )+'~      )$de8hhic85gc<<   )@'/       +$ 1+=mhhhhhh8(   )''~          ^$~&nhhhhhic7>:  )@+&       ",
" ^'__4hhhhhhhhgc2,5  )@@@~    )+/#0ghhhhhhhg<:,  @@@={      =/ 7%aihhhhhf<%<  )@@+3        )%<8cc%2*>>*:%(%  @!@&{      ))ko>*2(7%<afg(]],%  )@)+{    -+d}ahhf%*]]2%5<2  )@@+{      +~j.&-gfhhhhhhc:7 )@@&{        -+~&&hhhhhhhhhg*< )@@&j      ",
" -d44paafihhhhhhc7qa )^++*7*  )$/6fhhhhhhhhhf<,|r)+^+*7]    ##%5bihihhhhhh<>:4)@;+*72     .s<<<5<2:2|]>]*:,,t)+^+*72    )u]]]]>*,,,2:,:,]>(5 )+;+*72  ;de5cggg872|]],(*|})@;+*7,    @-[++6cgfffffa%*]k@+++*7,      @$&{cbihhhhhhic2|}).$+*7|    ",
" :vl2%<8abgfffffc:|,0;^#<*i*2 )+/6bihhhhhiic<:>]k)+#<*f],   $/68abfihhhii5*>>k)^$<*f>(    wl|222*>|::2>]],:]k)+-<*i]]   )v]]]]]]]]]]]]*(]](,kd.-<*f]2 )t<ca888572(2]]|:|x).-<*i]:   @ry@&{aaca5<7,>]ol)./<*f](    -@.=cacbggggga%,]]ow.j<*f],   ",
"5]]o*q7<<58aaaa5(>]]|s@.3ia>>%)+-88bfffffc8%2|]]x))#jh5]]%  $/<<<5cfc5<%%2>>>l);#6f:>,%   r*]>>]]]]]|(:*]]2]vw;#mg:]]%  o>]]]]]]]]]]]]>(|],(]y^#mi2]]%su0<<0%7:*]*:,]],:vs+3mf*]]%  ):w@&{5<7(2,,22:,>s^/nf2],%   ^@46caa858a5%:*]]]]y)/mi(]]%  ",
"(]]]>,2(7%%<%%(2|]]]]k)={<2]]])+{<58a8aa5%(,|]]]]y)&j%|]]]  ./}(%55<(2,,,::2|>y)#[>>>*]   /t]]]]]]]]]],:>]>]]y)_[,]]]]  ]]]]]]]]]]]]]]],>]](]y^de]]]]]w9d222,,|]]]>:|]],|t@/[]]]]]  ru)^~}2,|>,:(7(:,ot@/[,]]|]   )s4p885<<<7:,>]]>]]xs$[(]]]]  ",
"2]]]]>|,,2222,|>]]]]]]yye,]]]])d}7%%<<%%(,|]]]]]]]ky%:]]]]  ^#r,2(7:*>>>>>|,*>vwd0*>>2]   #{*]]]]]]]]]],|]]]]xyy%]]]]]  ]]]]]]]]]]]]]]]]]]]>]lyt(]]]]]s;$2|>]]]]]]]*,]]]]>y902]]>]  uw)./:]]],(2>]]]]]]ty7|>]*]   )k,:((((:2,|]]]:2]]]ur7o]]]]  ",
"2]]]]]]]>>>>]]]]]]]]o]]]:(]]]%;tl,22222,|]]>,]]]]]]],7]]>%  @=9|>2(*|>>>>>>>>>>vv(:>>>>   +/t]]]]]]]]]]]]]]]]]oo(,]]*%  ]]]]]]]]]]]]]]]]]]]]]]>|(*]],%w)~}>]>]]]]]]]>]]]]]]o2(]]|%  t))~-,]]*(,]]]]]]]]]o:2o]2%   y]>||**||>]]]]2(|]]]]](*]]]%  ",
":]]]]]]]]]]]]]]]>]]]|,]]|(]], }]]]>>|>>]]]|:,]]]]]]]]:>],   )'9>>2(:((22*>>>>>>>>,2>>>    @~[*]]]]]]]]]]]]]]]]]],2]]7   }x>]]]]]]]]]]]]]]]]]]]]],*]]% 4)=/2]]]]]]]]]]]]]]]]]]2]]:   l)^#}]]|(2>7777>]]]]]|2]](    k]]]]]]]]]]]]2(|]]||]],,]]|   ",
"r]]]]]]]]]]]]]|:2]]]|,]]]>],  k]]]]]]]]]]*(2]]],>]]]]]],    )'9>>*,*|*,22>>>>>>>>>>>:     )&#t]]]]]]]]]]]]]]]]]]]>]2    ^-r|]]]]]]]]]]]]]]]>]]]]]>*%  0)+~d*]]]]]]]]]]]]]]]]]]>(    >w+9>]],7777,,,>]]]]]]>]2     k]]]]]]]]]]>2(|]]],|]]]]]]    ",
";x]]]]]]]]]]]*(:|]]](7|>>27   :]]]]]]]]]|(,]]]2:> 7,*,7     dwl>>>>>>>>>>>>>>>> 7>*7      _@&+l]]]]]]]]]]]]]| 7,,2%     ^~/}l]]]]]]]]]]]]]|( 7]]]%    7y@&~t]]]]]]]]]]]], %2*:      ]>l>]]]>|>]]]]]]]]: (*2%      y]]]]]]]]]],(]]]]*,:2]]>:     ",
"_u]]]]]]]]]]>(,]]]]>          7]]]]]]]]]::]]],(|            uv>>>>>>>>>>>>>>>q             )+&y]]]]]]]]]]]]:            ;@=/[l]]]]]]]]]>,2            <l)@~-l]]]]]]]]]]:            ]]]]]]]]]]]]]]]>:             s>]]]]]]]]]:2]]]|2            ",
" _]]]]]]]]]|(:]]]]|            ]]]]]]]]](,]>2(*             :>>>>>>>>>>>>>,(               ^@!;v]]]]]]]]|:              -)'=#4u]]]]*22:2(              ]y@&~y]]]|**,,:              |]]]]]]]]]]]]2                 k]]]]]]]]]:*]]|2             ",
" _o]]vluue  <,]]]2             |]]2(:(7<7>*(7                >>>>>>>>*,2(                   ..9(((:::(%                  .)@&$drr    ,|*               *|s@!&e7(2,:                  ]]*                           }]]*,]]],]7,]2               ",
"  k]]y+~/   %>]*<               ]]*     7,<                  *>2                            0t,                           ky)+&&=   7]|<               %]2d'=   ,,                   ]]*                            >]2      <*2                ",
"   >ou@&~~  %]]%                 >]                           >2                             >]                            ::-..    %]2                 :|e                           ]*                            ]]]       *                 ",
"    :})@@+  %]]                                                                                                                      ]:                                                                              ]>                         ",
"       ))    %%                                                                                                                      <                                                                                                          ",
"                                                                                                                                                                                                                                                ",
"                                                                                                                                                                                                                                                ",
"                                                                                                                                                                                                                                                ",
"                                                                                                                                                                                                                                                ",
"                                                                                                                                                                                                                                                ",
"                                                                                                                                                                                                                                                ",
"                                                                                                                                                                                                                                                ",
"                                                                                                                                                                                                                                        +.      ",
"                        &                                                                                 *     &&+                                                                                                              %     $#+@     ",
"        #@      (       ++             =@                           +@               /^         $'       >]    {$#~+$           !@              ~#             !'                           $@               +)         '@      ,>     ;-/=@    ",
"        3@@    2]      #&&-            #@)      %<<%%               ~@)        %%%%  ~&)        1'@     |]*  %%%}[#&@-          $')       <%<0  $&!            #')                          ~')     :        ~$@        =@;    (]]     @_-/+@   ",
"        #@)   (]>(%%<55#~$+1           &@)    %(aggfb{'=  ~         &@)     %<<<a857ed~+.       ~'@    2]]2%5cba5%09))-         $'@    57%58a5%7</&'           #')                          $+@    ,] <%<<%<6//=)       &@)    >]]  5<[44_/='@  ",
"       &&@)  :>7cihhhhhn&~$^          ~'')   (5hhhhhhm=+1 $+       /'@)   <<cg55cihh8ed$)      ~'+)   7]]*ahhiba<%:lk))        /'!)   <<a5<55ghfc<{@;         3!')     %%<<<%7%    $       j+'@   >>(%8fifg5%-/#;      /'@)   :>2%5<5ghhh4_~&@  ",
"      j&@@) <*bhhhhhhhhi&&~+-        {=@@) 7(chhhhhhfg-&.j~+      {+@@)  2<8%2]]*%fhha}d+-    {+)@)  %,]](gfa<%7(2*>ok))      {&@!)  %7%2*>>*2%cc8<<)        3+@@)  <%<ghhhhhia%7 /=      {&@@@  ,:<ghhhhhhhg0//+)    ~@@@)  5,2cghhhhhhhh4__'^ ",
"    |7*+$.)}|2cihhhhhhibc{&$@      ,7*+++^ko*%afffffgc6++[-@    ,7*+;@)}|*(,]]|278ggbc5e;;  27*+;+) 5(>],:,:2,,,*>]]]]t)    27*+^+)t2,:*]]]|2:2<5<<<s.     27*+^@)4:><hhhhhhhhib5%##    ]7*+^+)r|,<fhhhhhhhhhg6/$)  *7*++@) aq7chhhhhhifaap44d- ",
"   ,]f*<j.wo]],%agggggbcac&+@-    (]f*</.)l]]>,7<5acaa{&@yr@   :]f*<#.)x|:>]]2(2758858c<t) 2]f*<-.dk,(]](*]]]]]]]]]]]]v)   ]]i*<-+)lo:,]]>2::|>,222*lw    (>f*<$^)k>>*5iihhihfba86/$   ,]f*<#+)k]>:<cfihhhhhib6#+) 2*i*<#^;0,|(cfffffgba55%2xv: ",
"  %]](fm/)y]]]]*q%5aa558ac64@^   %,]2in/^so,:22,,2(%<5{=@w:)  %]]*fm3^sv:,]],:*]*:7%<<<0us%]]2im/^y](*]|(>]]]]]]]]]]]]>]  %]]:gm~)wv]2]]*::|]]]]]>>]*r   %,>:f6#;)l>>>2%%<5cfc55<</$  %]]5hj#))x]]>2%5cfffffb58-+)%>>ai3.@s|]]>(5aaa855<<7:*o]]<",
"  ]]]]([$sx]]>]]>,:7<<5588p4s)   ]|]],[#@to,:(7(q,>|,2}~^)ur  ]]]]][/@t|,]]|:|]]]|,,222d9s]]]]]ed@y](]]>,]]]]]]]]]]]]]]]  ]]]],[_)y]]>]>(,]]]]]]]]]>t#   ]*>>>[#)y>|2q:,*,2(<5<%(}/$  ]]]|%j=)y]]]]|,(%8aa8a555{+)]]]2<{=)k]]]]|2(%%<%%7(2,>]]o(",
"  ]]]]]7ruo]]2:]]]|,2:((((:,k)   ]*]]|7yt]]]]]]>2(,]]]:#+)wu  ]>]]209y>]]]],*]]]]]]]>|2$;s]]]]](trl]>]]]]]]]]]]]]]]]]]]]  ]]]]]%yyx]]]]|,]]]]]]]]]]*{#   ]2>>*0dwv>*,|>>>>>*:7(2,r#^  ]]]]:%yko]]]]]]|,(%%<<%77}d)]]]],eyy]]]]]]>|,2222,,|>]]]]:",
"  %]]]*(]]]]]|(2]]]]>||***|]oy   %2]]2(]o]]]]]]]],(*]],-~)st  %|]](2o]]]]]]>]]]]]]]>]>}~)s%,]]*(|]]]]]]]]]]]]]]]]]]]]]]]  %*]]2(oo]]]]]]]]]]]]]]]]]:/+   >>>>:(vv>>>>>>>>>>|*(2>>9=@  %>]]7,]]]]]]],|]]|,22222,xt@%]]](:]]]o]]]]]]]]>>>>]]]]]]]2",
"   |]],,]]|>]]|(2>]]]]]]]]]]]k    (]]2|]]]]]>7777>2(|]]}#^)k   :]]2]]]]]]]]]]]]]]]]]]:#=)4 %]]*,]]]]]]]]]]]]]]]]]]]]]>l}   7]],,]]]]]]]]]]]]]]]]]]|[~@    >>>2,>>>>>>>>*22((:(2>>9')   ,]>:]]]]]]]],(|]]]>>||>]]]} ,]](|]],>]]]>]]]]]]]]]]]]]]]:",
"    ]]]]]]|,]]]*(2]]]]]]]]]]]k     2]>]]]]]]>,,,7777,]]>9+w>    (>]]]]]]]]]]]]]]]]]]|d~+)0  %*>]]]]]>]]]]]]]]]]]]]]]|r-^    2]>]]]]]]]]]]]]]]]]]]]t#&@     :>>>>>>>>>>>22,*>*,*>>9'@    ,]]]]]]>,]]]2(*]]]]]]]]]]k  ,]>]]],|]]]2:|]]]]]]]]]]]]]r",
"     :>]]2:,*]]]](,]]]]]]]]]]y      %2*( :]]]]]]]]>|>]]]>l>]      :,2% ,]]]]]]]]]]]]t~&@y7    %]]]7 (|]]]]]]]]]]]]]l}/~@     %2,,7 |]]]]]]]]]]]]]x.&^_      7*>7 >>>>>>>>>>>>>>>>lwd     7,*,7 >:2]]],(>]]]]]]]]]:   72>>|7(]]]|:(*]]]]]]]]]]]x;",
"            2|]]]2:]]]]]]]]]>s             :>]]]]]]]]]]]]]]]            :]]]]]]]]]]l-~@)l<            2,>]]]]]]]]]l[/=@;            :]]]]]]]]]]]]r&')             :>>>>>>>>>>>>>>>vu            |(,]]]::]]]]]]]]]7          >]]]],(]]]]o]]]]]]u_",
"             2|]]*:]]]]]]]]]k                 2]]]]]]]]]]]]|              :,,**|]]]y~+@y]              (2:22*]]]]u4#=')-              :|]]]]]]]]v;!@^               (,>>>>>>>>>>>>>:             *(2>],(]]]]]]]]]            |]]]]:(*]]>]]]]]]_ ",
"               2],7],]]],*]]}                           *]]                  :,2(7e+!'s|*               ,|,    rrd$&@).                  %(:::(((9+.                   (2,*>>>>>>>>                7(*>7<7(:(2]]|             2]]],<  e2ulv]]o_ ",
"                2*<      2]>                            *]]                   ,,   =@d:]%               <>]7   =&&+)yk                           ,t0                            2>*                  <,7     *]]               <*]>%   /~+yo]k  ",
"                 *       ]]]                            *]                           e|:                 2]%    ..-::                            ]>                             2>                           ]>                 %]]%  ~~&@u]>   ",
"                         >]                                                                              :]                                                                                                                      ]]%  +@@)}:    ",
"                                                                                                          <                                                                                                                      %%    ))       ",
"                                                                                                                                                                                                                                                ",
"                                                                                                                                                                                                                                                ",
"                                                                                                                                                                                                                                                "};
