<?xml version="1.0" encoding="UTF-8" standalone="no"?>
<!-- Created with Inkscape (http://www.inkscape.org/) -->
<svg
   xmlns:dc="http://purl.org/dc/elements/1.1/"
   xmlns:cc="http://web.resource.org/cc/"
   xmlns:rdf="http://www.w3.org/1999/02/22-rdf-syntax-ns#"
   xmlns:svg="http://www.w3.org/2000/svg"
   xmlns="http://www.w3.org/2000/svg"
   xmlns:xlink="http://www.w3.org/1999/xlink"
   xmlns:sodipodi="http://sodipodi.sourceforge.net/DTD/sodipodi-0.dtd"
   xmlns:inkscape="http://www.inkscape.org/namespaces/inkscape"
   height="175.00000"
   id="svg1"
   version="1.0"
   width="200.00000"
   x="0.0000000"
   y="0.0000000"
   sodipodi:version="0.32"
   inkscape:version="0.45"
   sodipodi:docname="recycling_box_3d_a.j._as_01.svg"
   sodipodi:docbase="/usr/share/openclipart/svg/containers"
   inkscape:output_extension="org.inkscape.output.svg.inkscape"
   sodipodi:modified="true">
  <sodipodi:namedview
     inkscape:window-height="633"
     inkscape:window-width="872"
     inkscape:pageshadow="2"
     inkscape:pageopacity="0.0"
     guidetolerance="10.0"
     gridtolerance="10.0"
     objecttolerance="10.0"
     borderopacity="1.0"
     bordercolor="#666666"
     pagecolor="#ffffff"
     id="base"
     inkscape:zoom="2.3257143"
     inkscape:cx="100"
     inkscape:cy="87.5"
     inkscape:window-x="162"
     inkscape:window-y="137"
     inkscape:current-layer="svg1" />
  <metadata
     id="metadata4370">
    <rdf:RDF>
      <cc:Work
         rdf:about="">
        <dc:title>recycling_box_3d</dc:title>
        <dc:description />
        <dc:subject>
          <rdf:Bag>
            <rdf:li>recycling</rdf:li>
            <rdf:li>recyclables</rdf:li>
            <rdf:li>recycle</rdf:li>
            <rdf:li>container</rdf:li>
          </rdf:Bag>
        </dc:subject>
        <dc:publisher>
          <cc:Agent
             rdf:about="http://www.openclipart.org">
            <dc:title>A.J. Ashton</dc:title>
          </cc:Agent>
        </dc:publisher>
        <dc:creator>
          <cc:Agent>
            <dc:title>A.J. Ashton</dc:title>
          </cc:Agent>
        </dc:creator>
        <dc:rights>
          <cc:Agent>
            <dc:title>A.J. Ashton</dc:title>
          </cc:Agent>
        </dc:rights>
        <dc:date />
        <dc:format>image/svg+xml</dc:format>
        <dc:type
           rdf:resource="http://purl.org/dc/dcmitype/StillImage" />
        <cc:license
           rdf:resource="http://web.resource.org/cc/PublicDomain" />
        <dc:language>en</dc:language>
      </cc:Work>
      <cc:License
         rdf:about="http://web.resource.org/cc/PublicDomain">
        <cc:permits
           rdf:resource="http://web.resource.org/cc/Reproduction" />
        <cc:permits
           rdf:resource="http://web.resource.org/cc/Distribution" />
        <cc:permits
           rdf:resource="http://web.resource.org/cc/DerivativeWorks" />
      </cc:License>
    </rdf:RDF>
  </metadata>
  <defs
     id="defs3">
    <linearGradient
       id="linearGradient3888">
      <stop
         id="stop3889"
         offset="0.0000000"
         style="stop-color:#2a832d;stop-opacity:0.94845361;" />
      <stop
         id="stop3890"
         offset="1.0000000"
         style="stop-color:#6bed71;stop-opacity:0.82474226;" />
    </linearGradient>
    <linearGradient
       id="linearGradient3864">
      <stop
         id="stop3865"
         offset="0.0000000"
         style="stop-color:#868686;stop-opacity:1.0000000;" />
      <stop
         id="stop3866"
         offset="1.0000000"
         style="stop-color:#e8e8e8;stop-opacity:1.0000000;" />
    </linearGradient>
    <linearGradient
       id="linearGradient3793">
      <stop
         id="stop3794"
         offset="0.0000000"
         style="stop-color:#000409;stop-opacity:1.0000000;" />
      <stop
         id="stop3795"
         offset="1.0000000"
         style="stop-color:#000409;stop-opacity:0.0000000;" />
    </linearGradient>
    <linearGradient
       id="linearGradient3768">
      <stop
         id="stop3769"
         offset="0.0000000"
         style="stop-color:#dddddd;stop-opacity:1.0000000;" />
      <stop
         id="stop3770"
         offset="1.0000000"
         style="stop-color:#ffffff;stop-opacity:1.0000000;" />
    </linearGradient>
    <linearGradient
       id="linearGradient3764">
      <stop
         id="stop3765"
         offset="0.0000000"
         style="stop-color:#ffffff;stop-opacity:1.0000000;" />
      <stop
         id="stop3766"
         offset="1.0000000"
         style="stop-color:#ffffff;stop-opacity:0.0000000;" />
    </linearGradient>
    <linearGradient
       id="linearGradient3758">
      <stop
         id="stop3759"
         offset="0.0000000"
         style="stop-color:#3b7fc5;stop-opacity:1.0000000;" />
      <stop
         id="stop3760"
         offset="1.0000000"
         style="stop-color:#396da1;stop-opacity:1.0000000;" />
    </linearGradient>
    <linearGradient
       id="linearGradient3753">
      <stop
         id="stop3754"
         offset="0.0000000"
         style="stop-color:#000409;stop-opacity:1.0000000;" />
      <stop
         id="stop3755"
         offset="1.0000000"
         style="stop-color:#000409;stop-opacity:0.0000000;" />
    </linearGradient>
    <linearGradient
       gradientTransform="matrix(1.001864,0.000000,0.000000,0.998140,-0.683612,32.41730)"
       gradientUnits="userSpaceOnUse"
       id="linearGradient3756"
       x1="51.893795"
       x2="34.797581"
       xlink:href="#linearGradient3753"
       y1="39.395336"
       y2="103.56419" />
    <linearGradient
       gradientTransform="matrix(1.176705,0.000000,0.000000,0.849830,-0.683612,32.41730)"
       gradientUnits="userSpaceOnUse"
       id="linearGradient3763"
       x1="79.201416"
       x2="91.426697"
       xlink:href="#linearGradient3758"
       y1="54.738117"
       y2="156.74283" />
    <linearGradient
       gradientTransform="matrix(2.156205,0.000000,0.000000,0.463778,2.879134,26.81870)"
       gradientUnits="userSpaceOnUse"
       id="linearGradient3767"
       spreadMethod="reflect"
       x1="43.776001"
       x2="37.945000"
       xlink:href="#linearGradient3764"
       y1="47.678745"
       y2="74.252792" />
    <linearGradient
       gradientTransform="matrix(1.010798,-3.401142e-16,0.131934,0.989317,-9.095966,26.81870)"
       gradientUnits="userSpaceOnUse"
       id="linearGradient3779"
       x1="36.659988"
       x2="34.213860"
       xlink:href="#linearGradient3768"
       y1="54.479355"
       y2="81.603989" />
    <linearGradient
       gradientTransform="matrix(0.852803,0.000000,0.000000,1.172604,2.879134,26.81870)"
       gradientUnits="userSpaceOnUse"
       id="linearGradient3784"
       spreadMethod="reflect"
       x1="163.93758"
       x2="174.67641"
       xlink:href="#linearGradient3764"
       y1="66.834419"
       y2="101.41290" />
    <linearGradient
       gradientTransform="matrix(1.302365,0.000000,0.000000,0.767834,2.879134,26.81870)"
       gradientUnits="userSpaceOnUse"
       id="linearGradient3790"
       x1="115.59602"
       x2="127.98763"
       xlink:href="#linearGradient3753"
       y1="60.110321"
       y2="79.867683" />
    <linearGradient
       gradientTransform="matrix(2.190067,0.000000,0.000000,0.456607,2.879134,26.81870)"
       gradientUnits="userSpaceOnUse"
       id="linearGradient3796"
       x1="19.054567"
       x2="60.603821"
       xlink:href="#linearGradient3793"
       y1="110.85932"
       y2="-14.247867" />
    <linearGradient
       gradientTransform="matrix(0.387254,3.369707e-19,2.834586e-17,5.253698,-96.21402,21.61075)"
       gradientUnits="userSpaceOnUse"
       id="linearGradient3801"
       spreadMethod="reflect"
       x1="542.22687"
       x2="549.92670"
       xlink:href="#linearGradient3764"
       y1="21.063189"
       y2="21.063189" />
    <radialGradient
       cx="56.758472"
       cy="178.72423"
       fx="56.758472"
       fy="178.72423"
       gradientTransform="scale(1.597871,0.625833)"
       gradientUnits="userSpaceOnUse"
       id="radialGradient3806"
       r="54.055691"
       xlink:href="#linearGradient3753" />
    <radialGradient
       cx="56.758472"
       cy="178.72423"
       fx="56.758472"
       fy="178.72423"
       gradientTransform="scale(1.597871,0.625833)"
       gradientUnits="userSpaceOnUse"
       id="radialGradient3808"
       r="54.055691"
       xlink:href="#linearGradient3753" />
    <linearGradient
       gradientTransform="matrix(0.823217,0.000000,0.000000,1.214747,0.000000,22.50000)"
       gradientUnits="userSpaceOnUse"
       id="linearGradient3875"
       spreadMethod="reflect"
       x1="89.196388"
       x2="106.56554"
       xlink:href="#linearGradient3864"
       y1="29.040941"
       y2="23.231722" />
    <radialGradient
       cx="60.952446"
       cy="7.3031745"
       fx="60.952446"
       fy="7.3031745"
       gradientTransform="matrix(1.092396,0.000000,0.000000,0.915419,0.000000,22.50000)"
       gradientUnits="userSpaceOnUse"
       id="radialGradient3878"
       r="1.5434121"
       spreadMethod="reflect"
       xlink:href="#linearGradient3793" />
    <linearGradient
       gradientTransform="matrix(1.357933,0.000000,0.000000,0.736413,0.000000,22.50000)"
       gradientUnits="userSpaceOnUse"
       id="linearGradient3886"
       spreadMethod="reflect"
       x1="98.577805"
       x2="86.998856"
       xlink:href="#linearGradient3768"
       y1="51.009369"
       y2="56.070068" />
    <radialGradient
       cx="80.399055"
       cy="1.9145001"
       fx="80.399055"
       fy="1.9145001"
       gradientTransform="matrix(0.709033,0.000000,0.000000,1.410371,0.000000,22.50000)"
       gradientUnits="userSpaceOnUse"
       id="radialGradient3910"
       r="9.7997169"
       xlink:href="#linearGradient3793" />
    <radialGradient
       cx="59.478207"
       cy="17.471869"
       fx="59.478207"
       fy="17.471869"
       gradientTransform="matrix(0.560913,0.430133,-0.610509,0.871305,24.27009,-1.657940)"
       gradientUnits="userSpaceOnUse"
       id="radialGradient3913"
       r="19.739889"
       xlink:href="#linearGradient3764" />
    <linearGradient
       gradientTransform="matrix(0.641801,6.949280e-2,-0.166754,1.540059,-5.943584,17.02612)"
       gradientUnits="userSpaceOnUse"
       id="linearGradient3914"
       spreadMethod="reflect"
       x1="103.45367"
       x2="83.031464"
       xlink:href="#linearGradient3888"
       y1="24.839106"
       y2="19.990744" />
    <linearGradient
       gradientTransform="matrix(1.089182,0.225749,-0.104129,0.892963,-2.290338,-0.210819)"
       gradientUnits="userSpaceOnUse"
       id="linearGradient2402"
       x1="95.439049"
       x2="99.515228"
       xlink:href="#linearGradient3768"
       y1="48.820446"
       y2="3.6300881" />
    <radialGradient
       cx="106.92339"
       cy="58.526436"
       fx="106.92339"
       fy="58.526436"
       gradientTransform="scale(0.994856,1.005170)"
       gradientUnits="userSpaceOnUse"
       id="radialGradient3029"
       r="12.337215"
       xlink:href="#linearGradient3793" />
    <linearGradient
       gradientTransform="scale(1.180150,0.847350)"
       gradientUnits="userSpaceOnUse"
       id="linearGradient3033"
       x1="90.015602"
       x2="87.464302"
       xlink:href="#linearGradient3864"
       y1="75.272751"
       y2="42.978302" />
    <linearGradient
       gradientTransform="matrix(1.109941,7.013468e-2,2.042775e-2,0.865015,-0.786894,17.12097)"
       gradientUnits="userSpaceOnUse"
       id="linearGradient3035"
       x1="95.439049"
       x2="99.515228"
       xlink:href="#linearGradient3768"
       y1="48.820446"
       y2="3.6300881" />
    <linearGradient
       gradientTransform="matrix(1.168798,-0.157157,0.117244,0.807671,1.510584,17.01692)"
       gradientUnits="userSpaceOnUse"
       id="linearGradient3036"
       x1="90.015602"
       x2="87.464302"
       xlink:href="#linearGradient3864"
       y1="75.272751"
       y2="42.978302" />
    <radialGradient
       cx="106.92339"
       cy="58.526436"
       fx="106.92339"
       fy="58.526436"
       gradientTransform="scale(0.994856,1.005170)"
       gradientUnits="userSpaceOnUse"
       id="radialGradient3038"
       r="12.337215"
       xlink:href="#linearGradient3793" />
    <linearGradient
       gradientTransform="scale(1.515168,0.659993)"
       gradientUnits="userSpaceOnUse"
       id="linearGradient3042"
       spreadMethod="reflect"
       x1="84.461273"
       x2="83.232246"
       xlink:href="#linearGradient3864"
       y1="106.35049"
       y2="80.095093" />
  </defs>
  <path
     d="M 177.06673,111.85148 C 177.06673,130.53518 138.39577,145.68130 90.692713,145.68130 C 42.989660,145.68130 4.3186951,130.53518 4.3186951,111.85148 C 4.3186951,93.167784 42.989660,78.021656 90.692713,78.021656 C 138.39577,78.021656 177.06673,93.167784 177.06673,111.85148 z "
     id="path3802"
     style="fill:url(#radialGradient3806);fill-opacity:1.0000000;stroke:none;stroke-width:1.2500000;stroke-linecap:round;stroke-linejoin:round;stroke-miterlimit:4.0000000;stroke-opacity:0.59444445"
     transform="matrix(1.025000,0.000000,0.000000,0.808511,-4.426668,50.39642)" />
  <path
     d="M 177.06673,111.85148 C 177.06673,130.53518 138.39577,145.68130 90.692713,145.68130 C 42.989660,145.68130 4.3186951,130.53518 4.3186951,111.85148 C 4.3186951,93.167784 42.989660,78.021656 90.692713,78.021656 C 138.39577,78.021656 177.06673,93.167784 177.06673,111.85148 z "
     id="path3807"
     style="opacity:0.27488151;fill:url(#radialGradient3808);fill-opacity:1.0000000;stroke:none;stroke-width:1.2500000;stroke-linecap:round;stroke-linejoin:round;stroke-miterlimit:4.0000000;stroke-opacity:0.59444445"
     transform="matrix(0.610756,-6.659492e-3,-2.560688e-2,0.276213,58.31970,131.7722)" />
  <path
     d="M 13.612192,69.008022 L 20.183902,133.81126 C 20.268729,135.25333 20.862520,137.96780 22.728721,138.64642 L 106.52845,169.30427 C 109.41258,170.74634 114.28775,170.15255 116.66292,169.04979 L 173.38198,137.11953 C 175.92680,136.01677 177.70818,134.15057 177.96266,131.52093 L 185.29781,70.445276 C 185.72195,66.642987 189.19988,68.184819 189.62401,64.891494 L 190.51470,56.875315 C 190.68435,55.814974 189.58160,54.627391 188.09712,54.203255 L 80.136027,39.742607 C 77.972932,39.148816 75.091211,39.191229 73.055357,39.742606 L 11.441880,53.319783 C 9.8301615,53.828747 8.7274070,55.355638 8.8970615,56.373566 L 8.8970617,64.008022 C 9.2811899,66.707556 12.464617,65.036079 13.612192,69.008022 z "
     id="path3748"
     style="fill:url(#linearGradient3763);fill-opacity:1.0000000;fill-rule:evenodd;stroke:#00287b;stroke-width:0.31250000;stroke-linecap:butt;stroke-linejoin:miter;stroke-miterlimit:4.0000000;stroke-opacity:1.0000000" />
  <path
     d="M 20.152780,53.893451 L 113.74270,73.898315 L 181.06170,55.735416 L 77.053000,41.339747 L 20.152780,53.893451 z "
     id="path3750"
     style="opacity:0.59715641;fill:url(#linearGradient3796);fill-opacity:1.0000000;fill-rule:evenodd;stroke:url(#linearGradient3767);stroke-width:1.2500000;stroke-linecap:butt;stroke-linejoin:round;stroke-miterlimit:4.0000000;stroke-opacity:0.59444445" />
  <path
     d="M 13.562985,66.953806 L 108.84696,90.372345 L 110.10129,166.45857 L 19.110433,114.39777 L 13.562985,66.953806 z "
     id="path3752"
     style="opacity:0.35071090;fill:url(#linearGradient3756);fill-opacity:1.0000000;fill-rule:evenodd;stroke:none;stroke-width:0.25000000pt;stroke-linecap:butt;stroke-linejoin:miter;stroke-opacity:1.0000000" />
  <path
     d="M 32.309679,86.099951 C 32.006198,86.146673 31.708544,86.279259 31.430524,86.537451 L 28.309843,92.662451 L 35.420462,100.75620 L 38.518215,94.224951 C 37.087613,90.249741 34.434051,85.772894 32.309679,86.099951 z M 34.240934,86.287451 C 36.129139,87.755167 37.397479,90.078860 38.530683,92.912451 L 41.582957,100.56870 L 39.712148,101.53745 L 46.876803,104.41245 L 50.126627,97.381201 L 47.972479,98.099950 L 46.180699,93.568701 C 45.605448,91.885383 44.113114,89.993116 42.866016,89.568701 L 34.240934,86.287451 z M 23.455750,95.631201 L 25.703743,98.662450 L 24.037185,103.03745 C 23.200575,105.01529 25.042545,107.96971 26.170672,109.19370 C 27.281248,110.39865 28.940084,111.15036 30.476985,111.72495 L 32.864359,106.66245 L 35.051918,109.00620 L 30.830821,98.443700 L 23.455750,95.631201 z M 51.456020,106.41245 L 45.129010,109.34995 L 48.895913,118.84995 C 52.103840,120.36262 55.967166,120.30560 54.966666,115.63120 L 51.456020,106.41245 z M 24.524800,107.63120 L 29.700125,120.66245 C 30.700995,122.58263 32.449841,123.62164 34.210632,124.25620 L 38.929428,126.13120 L 38.285412,115.44370 L 29.270738,111.81870 C 27.882799,111.38583 26.051966,110.28548 24.524800,107.63120 z M 43.941638,114.50620 L 40.970986,121.75620 L 45.039989,131.88120 L 44.921152,128.41245 L 48.123267,129.69370 C 49.307159,130.29521 50.773404,129.80384 51.241987,128.47495 L 54.714682,119.59995 C 53.468417,120.93833 51.747610,120.73476 49.729274,119.94370 L 44.289638,117.81870 L 43.941638,114.50620 z "
     id="path2742"
     style="fill:url(#linearGradient3779);fill-opacity:1.0000000;fill-rule:evenodd;stroke:none;stroke-width:0.25000000pt;stroke-linecap:butt;stroke-linejoin:miter;stroke-opacity:1.0000000" />
  <path
     d="M 68.640494,104.50470 L 68.908003,101.64624 C 68.956331,101.15420 68.580301,100.62882 68.431561,100.52454 C 68.183469,100.36766 67.992600,100.51994 68.036325,101.07895 L 68.288558,104.37850 L 68.640494,104.50470 M 70.538831,105.18545 L 70.806336,102.32699 C 70.854664,101.83494 70.478633,101.30957 70.329893,101.20529 C 70.081802,101.04840 69.890933,101.20069 69.934658,101.75971 L 70.186891,105.05924 L 70.538831,105.18545 M 76.007376,106.97670 L 78.054701,115.72508 L 78.267993,115.80157 L 79.675216,105.81302 C 79.710047,105.57082 79.836397,105.12373 80.284316,105.28436 L 80.223728,104.95701 L 78.304067,104.26861 L 78.364655,104.59596 C 78.535289,104.65715 79.371637,104.87217 79.232329,105.84097 L 78.223420,112.76328 L 76.446549,105.04574 C 76.150307,103.76793 76.700943,103.99935 77.031554,104.11790 L 76.970967,103.79055 L 74.496732,102.90329 L 74.557319,103.23064 C 74.759943,103.30331 75.217404,103.56923 75.418261,104.43928 L 75.738066,105.84439 L 74.977958,111.58246 L 73.215112,103.88693 C 72.918875,102.60913 73.469511,102.84055 73.800117,102.95911 L 73.739530,102.63175 L 71.265298,101.74449 L 71.325886,102.07184 C 71.528510,102.14450 71.975306,102.40659 72.186828,103.28048 L 74.865925,114.58158 L 75.089882,114.66189 L 76.007376,106.97670 M 85.188887,116.72133 C 85.043480,116.95784 84.792557,117.05463 84.563528,117.10833 C 84.334502,117.16203 83.861882,116.97557 83.429164,116.41290 C 83.059860,115.92390 82.775385,114.87103 82.736199,113.90616 C 83.250376,113.88679 83.853245,113.91621 84.398882,113.63646 C 84.844035,113.40556 85.124188,112.92873 85.166390,112.02698 C 85.209724,111.02378 84.601899,110.16059 83.940681,109.92348 C 82.788890,109.51044 81.587446,111.30388 81.849848,114.01279 C 81.984414,115.38542 82.563008,116.62865 83.053552,117.12716 C 83.727634,117.81035 84.167155,117.76422 84.392251,117.74306 C 84.981650,117.69973 85.517266,116.72024 85.564989,116.60152 C 85.620015,116.46844 85.508906,116.19088 85.425252,116.33067 L 85.188887,116.72133 M 82.754762,113.52229 C 82.737475,112.51431 82.765604,111.91314 83.086224,111.00936 C 83.215368,110.63119 83.446666,110.37455 83.643697,110.30938 C 83.933916,110.20969 84.230829,110.46898 84.368268,111.26536 C 84.546096,112.27996 84.277636,113.62693 82.754762,113.52229 M 64.253489,121.74453 L 64.977560,122.10606 L 67.340046,128.52246 L 68.897108,129.08082 L 68.836523,128.75348 C 68.665882,128.69229 68.156238,128.30576 68.000234,127.89326 L 65.906536,122.33732 C 66.738423,122.31303 67.493993,122.09157 67.516033,120.75813 C 67.552173,118.80149 66.398277,116.97842 64.830560,116.41623 L 62.207018,115.47542 L 62.267605,115.80277 C 62.576884,115.91368 63.091028,116.21691 63.106653,117.05450 L 63.320691,125.68880 C 63.354241,126.83844 63.056197,126.68063 62.736256,126.56591 L 62.796841,126.89325 L 65.249742,127.77286 L 65.189157,127.44552 C 64.879880,127.33461 64.365733,127.03137 64.350110,126.19379 L 64.253489,121.74453 M 64.143406,117.22253 C 64.139506,116.93248 64.190035,116.88269 64.355071,116.80604 C 64.746874,116.87862 65.309308,117.01239 65.716197,117.65071 C 66.165184,118.35505 66.346413,119.06525 66.382236,120.01196 C 66.449943,121.93790 65.651174,121.87220 64.241763,121.19699 L 64.143406,117.22253 M 72.838854,129.27184 C 72.693442,129.50834 72.442519,129.60514 72.213489,129.65882 C 71.984468,129.71254 71.511849,129.52608 71.079125,128.96340 C 70.709827,128.47441 70.425345,127.42154 70.386161,126.45666 C 70.900343,126.43729 71.503201,126.46671 72.048844,126.18696 C 72.494001,125.95607 72.774154,125.47923 72.816356,124.57749 C 72.859691,123.57428 72.251866,122.71109 71.590648,122.47398 C 70.438858,122.06094 69.237411,123.85439 69.499814,126.56328 C 69.634381,127.93593 70.212975,129.17915 70.703521,129.67768 C 71.377602,130.36087 71.817123,130.31473 72.042218,130.29356 C 72.631618,130.25024 73.167232,129.27074 73.214956,129.15202 C 73.269982,129.01894 73.158868,128.74138 73.075218,128.88118 L 72.838854,129.27184 M 70.404728,126.07279 C 70.387437,125.06481 70.415572,124.46364 70.736191,123.55988 C 70.865335,123.18170 71.096628,122.92506 71.293663,122.85988 C 71.583882,122.76020 71.880796,123.01949 72.018235,123.81586 C 72.196058,124.83046 71.927598,126.17743 70.404728,126.07279 M 77.430217,131.08810 C 77.247747,131.44715 76.373693,132.05059 75.603170,130.41594 C 75.373081,129.92593 74.952192,128.94301 74.947869,127.41333 C 74.927284,125.74198 75.119922,124.79230 75.680160,124.48383 C 76.014171,124.29798 76.306059,124.36869 76.504188,124.52464 C 76.610270,124.61362 76.836461,124.81359 76.783099,125.11706 C 76.744909,125.34107 76.760567,125.85606 76.921071,126.18529 C 77.081577,126.51451 77.261742,126.68100 77.390287,126.67615 C 77.590117,126.67991 77.664809,126.38408 77.659777,126.19550 C 77.646347,125.80016 77.374733,125.19339 77.122180,124.79719 C 76.858960,124.39717 76.720317,124.34745 76.382975,124.19252 C 75.012281,123.56515 73.977621,124.80715 74.155803,127.70659 C 74.282998,129.73876 75.000203,131.35431 76.246851,131.90324 C 76.463509,131.99791 76.790754,132.09828 77.207850,131.82337 C 77.473939,131.64713 77.800683,131.15304 77.843946,130.79502 C 77.842286,130.62463 77.762595,130.40927 77.682310,130.56726 L 77.430217,131.08810 M 80.066200,135.41225 C 79.769855,135.10223 79.421847,134.94348 79.378020,135.35225 C 79.358356,135.51498 79.386383,135.88160 79.578878,136.22228 C 79.757350,136.54099 80.158105,136.76959 80.405669,136.65462 C 80.725077,136.49749 81.042863,135.84739 81.119784,135.67122 C 81.574010,134.62857 81.962656,132.74740 82.298046,130.20194 C 82.368275,129.66681 82.439701,128.38501 82.404381,128.03277 C 82.353359,127.48812 82.185627,126.52806 81.707980,126.15302 C 81.258395,125.82201 81.197168,126.19057 81.197696,126.46243 C 81.201030,126.80321 81.588291,127.28167 81.852079,127.63096 C 82.038412,127.88456 82.052402,128.22915 82.085495,128.46175 C 82.220062,129.83439 81.737098,131.85152 81.633783,132.15406 C 81.005910,129.89139 80.420088,128.01733 79.522226,125.64087 C 79.425146,125.38533 79.418981,125.29822 79.165825,125.27536 L 77.888808,125.20793 L 77.949963,125.48456 C 78.227819,125.53327 78.626948,125.26889 79.247599,126.90073 C 79.809322,128.37560 80.747579,130.97032 81.340588,133.79778 C 81.187811,134.69383 80.926155,135.43199 80.535415,135.90312 L 80.066200,135.41225 M 86.886892,134.47929 C 86.704420,134.83833 85.830367,135.44178 85.059852,133.80714 C 84.829758,133.31711 84.408872,132.33420 84.404551,130.80453 C 84.383965,129.13318 84.576602,128.18350 85.136841,127.87503 C 85.470853,127.68918 85.762732,127.75988 85.960868,127.91583 C 86.066944,128.00481 86.293142,128.20479 86.239781,128.50826 C 86.201584,128.73227 86.217247,129.24726 86.377751,129.57649 C 86.538252,129.90571 86.718424,130.07220 86.846967,130.06735 C 87.046796,130.07110 87.121484,129.77527 87.116458,129.58669 C 87.103028,129.19136 86.831412,128.58458 86.578855,128.18838 C 86.315640,127.78837 86.176998,127.73865 85.839656,127.58371 C 84.468962,126.95634 83.434302,128.19835 83.612484,131.09778 C 83.739679,133.12996 84.456880,134.74551 85.703532,135.29444 C 85.920188,135.38910 86.247433,135.48947 86.664532,135.21457 C 86.930618,135.03831 87.257365,134.54424 87.300626,134.18621 C 87.298958,134.01581 87.219275,133.80046 87.138989,133.95845 L 86.886892,134.47929 M 89.306536,125.58392 C 89.295344,125.30823 89.284146,125.03255 89.208961,124.73391 L 87.746713,124.63403 L 87.807300,124.96138 C 88.372539,125.16408 88.515112,125.18125 88.540837,126.07340 L 88.802564,134.91157 C 88.844512,136.26797 89.427675,136.78272 89.757189,136.68017 C 90.229839,136.54402 90.372485,135.91601 90.514000,135.38947 C 90.603284,135.06492 90.538765,134.77011 90.411883,134.94535 C 90.310267,135.09568 90.258542,135.89214 89.982916,135.96308 C 89.535529,136.07432 89.588962,135.12566 89.569366,134.64322 L 89.306536,125.58392 M 94.710031,137.11491 C 94.564618,137.35141 94.313696,137.44821 94.084665,137.50190 C 93.855639,137.55560 93.383026,137.36915 92.950302,136.80647 C 92.581004,136.31748 92.296523,135.26462 92.257339,134.29974 C 92.771508,134.28035 93.374378,134.30978 93.920021,134.03003 C 94.365175,133.79913 94.645328,133.32229 94.687533,132.42057 C 94.730867,131.41735 94.123036,130.55417 93.461824,130.31705 C 92.310024,129.90401 91.108588,131.69746 91.370988,134.40635 C 91.505557,135.77900 92.084148,137.02221 92.574695,137.52074 C 93.248770,138.20394 93.688300,138.15780 93.913395,138.13664 C 94.502789,138.09331 95.038408,137.11381 95.086130,136.99508 C 95.141156,136.86200 95.030044,136.58446 94.946390,136.72425 L 94.710031,137.11491 M 92.275906,133.91588 C 92.258618,132.90789 92.286746,132.30671 92.607368,131.40295 C 92.736510,131.02477 92.967805,130.76813 93.164838,130.70295 C 93.455059,130.60328 93.751972,130.86256 93.889410,131.65893 C 94.067234,132.67354 93.798770,134.02051 92.275906,133.91588 M 97.083319,136.20013 C 97.159361,133.86728 97.258251,133.00284 97.368472,131.12372 C 97.477563,129.34606 97.335627,128.63296 97.197022,128.26066 C 97.037656,127.82995 96.853554,127.69602 96.735671,127.70469 C 96.510584,127.72585 96.465088,127.96422 96.438114,128.14132 C 96.395993,128.39789 96.426748,129.47861 96.504654,130.49134 L 96.909884,136.07002 L 97.083319,136.20013 M 96.613256,138.34074 C 96.707502,138.84996 97.016189,139.33421 97.314795,139.44129 C 97.613407,139.54836 97.773984,139.23242 97.679735,138.72319 C 97.585489,138.21398 97.276810,137.72973 96.978198,137.62266 C 96.679590,137.51557 96.519007,137.83152 96.613256,138.34074 M 99.824508,132.66664 L 100.09202,129.80819 C 100.14034,129.31614 99.764309,128.79077 99.615565,128.68649 C 99.367476,128.52961 99.176609,128.68189 99.220338,129.24091 L 99.472571,132.54044 L 99.824508,132.66664 M 101.72284,133.34739 L 101.99034,130.48893 C 102.03867,129.99688 101.66264,129.47152 101.51390,129.36724 C 101.26582,129.21036 101.07495,129.36264 101.11867,129.92166 L 101.37090,133.22119 L 101.72284,133.34739"
     id="text2783"
     style="font-size:18.000000;font-style:normal;font-variant:normal;font-weight:normal;font-stretch:normal;fill:#ffffff;fill-opacity:1.0000000;stroke:#ffffff;stroke-width:0.75451201;stroke-linecap:butt;stroke-linejoin:miter;stroke-miterlimit:4.0000000;stroke-opacity:1.0000000;font-family:TempoFontItalic;text-anchor:middle;writing-mode:lr" />
  <path
     d="M 117.80808,93.323821 L 183.90466,71.370426 L 179.52422,106.47576 C 173.79092,143.65836 123.01433,113.14879 115.24518,165.34583 L 117.80808,93.323821 z "
     id="path3780"
     style="opacity:0.26066348;fill:url(#linearGradient3784);fill-opacity:1.0000000;fill-rule:evenodd;stroke:none;stroke-width:0.25000000pt;stroke-linecap:butt;stroke-linejoin:miter;stroke-opacity:1.0000000" />
  <rect
     height="74.679146"
     id="rect3797"
     rx="2.5192332"
     ry="1.4394121"
     style="opacity:0.34597155;fill:url(#linearGradient3801);fill-opacity:1.0000000;stroke:none;stroke-width:1.2500000;stroke-linecap:round;stroke-linejoin:round;stroke-miterlimit:4.0000000;stroke-opacity:0.59444445"
     transform="matrix(0.999998,2.088167e-3,-7.632985e-3,0.999971,0.000000,0.000000)"
     width="5.5046554"
     x="111.24268"
     y="92.189056" />
  <path
     d="M 185.70413,68.491292 L 118.78609,90.528266 C 115.47783,91.546194 111.53711,91.629772 108.78522,90.379195 L 109.04460,112.70686 C 110.69873,112.45238 112.66535,112.62328 115.54448,111.90350 C 118.42362,111.18371 182.12445,88.870426 182.12445,88.870426 L 185.70413,68.491292 z "
     id="path3786"
     style="opacity:0.40758291;fill:url(#linearGradient3790);fill-opacity:1.0000000;fill-rule:evenodd;stroke:none;stroke-width:0.25000000pt;stroke-linecap:butt;stroke-linejoin:miter;stroke-opacity:1.0000000" />
  <path
     d="M 12.952999,54.711062 L 20.078492,53.333243 L 114.08771,74.516986 L 182.03437,55.325435 L 187.88746,55.728990 L 114.08771,78.079732 L 12.952999,54.711062 z "
     id="path3791"
     style="opacity:0.20379145;fill:#ffffff;fill-opacity:1.0000000;fill-rule:evenodd;stroke:none;stroke-width:0.25000000pt;stroke-linecap:butt;stroke-linejoin:miter;stroke-opacity:1.0000000" />
  <rect
     height="10.436860"
     id="rect3809"
     rx="2.3868029"
     ry="2.0711098"
     style="opacity:0.29999998;fill:#000409;fill-opacity:0.46666667;stroke:none;stroke-width:1.2500000;stroke-linecap:round;stroke-linejoin:round;stroke-miterlimit:4.0000000;stroke-opacity:0.59444445"
     transform="matrix(0.971329,0.237738,0.000000,1.000000,0.000000,0.000000)"
     width="105.96719"
     x="10.374410"
     y="52.349014" />
  <path
     d="M 105.35550,-33.675140 C 105.35550,-33.675140 105.35550,-33.675140 105.35550,-33.675140 z "
     id="path3916"
     style="fill:none;fill-opacity:0.75000000;fill-rule:evenodd;stroke:#000000;stroke-width:1.0000000pt;stroke-linecap:butt;stroke-linejoin:miter;stroke-opacity:1.0000000" />
</svg>
