<?xml version="1.0" encoding="UTF-8" standalone="no"?>
<!-- Created with Inkscape (http://www.inkscape.org/) -->
<svg
   xmlns:dc="http://purl.org/dc/elements/1.1/"
   xmlns:cc="http://creativecommons.org/ns#"
   xmlns:rdf="http://www.w3.org/1999/02/22-rdf-syntax-ns#"
   xmlns:svg="http://www.w3.org/2000/svg"
   xmlns="http://www.w3.org/2000/svg"
   xmlns:xlink="http://www.w3.org/1999/xlink"
   xmlns:sodipodi="http://sodipodi.sourceforge.net/DTD/sodipodi-0.dtd"
   xmlns:inkscape="http://www.inkscape.org/namespaces/inkscape"
   width="48"
   height="48"
   id="svg2687"
   sodipodi:version="0.32"
   inkscape:version="0.46"
   version="1.0"
   sodipodi:docname="broken.svg"
   inkscape:output_extension="org.inkscape.output.svg.inkscape">
  <defs
     id="defs2689">
    <linearGradient
       inkscape:collect="always"
       xlink:href="#linearGradient2780"
       id="linearGradient2621"
       gradientUnits="userSpaceOnUse"
       gradientTransform="matrix(2.136116,0,0,1.825981,2.348697,-1.012826)"
       spreadMethod="pad"
       x1="26.974447"
       y1="68.680031"
       x2="26.974447"
       y2="44.981197" />
    <radialGradient
       inkscape:collect="always"
       xlink:href="#linearGradient2780"
       id="radialGradient2619"
       gradientUnits="userSpaceOnUse"
       gradientTransform="matrix(0.621397,0,0,1.882058,2.388831,-9.409409)"
       cx="20.36058"
       cy="22.546398"
       fx="20.36058"
       fy="22.546396"
       r="15.156592" />
    <radialGradient
       inkscape:collect="always"
       xlink:href="#linearGradient2780"
       id="radialGradient2617"
       gradientUnits="userSpaceOnUse"
       gradientTransform="matrix(0.500069,0,0,1.675192,5.00297,-5.108149)"
       cx="20.36058"
       cy="22.546398"
       fx="20.36058"
       fy="22.546396"
       r="15.156592" />
    <radialGradient
       inkscape:collect="always"
       xlink:href="#linearGradient2780"
       id="radialGradient2615"
       gradientUnits="userSpaceOnUse"
       gradientTransform="matrix(0.433337,0,0,1.434961,6.40989,-0.113137)"
       cx="20.36058"
       cy="22.546398"
       fx="20.36058"
       fy="22.546396"
       r="15.156592" />
    <radialGradient
       inkscape:collect="always"
       xlink:href="#linearGradient2780"
       id="radialGradient2613"
       gradientUnits="userSpaceOnUse"
       gradientTransform="matrix(0.621397,0,0,1.882058,2.388831,-9.409409)"
       cx="20.36058"
       cy="22.546398"
       fx="20.36058"
       fy="22.546396"
       r="15.156592" />
    <radialGradient
       inkscape:collect="always"
       xlink:href="#linearGradient2780"
       id="radialGradient2611"
       gradientUnits="userSpaceOnUse"
       gradientTransform="matrix(0.500069,0,0,1.675192,5.00297,-5.108149)"
       cx="20.36058"
       cy="22.546398"
       fx="20.36058"
       fy="22.546396"
       r="15.156592" />
    <radialGradient
       inkscape:collect="always"
       xlink:href="#linearGradient2780"
       id="radialGradient2609"
       gradientUnits="userSpaceOnUse"
       gradientTransform="matrix(0.433337,0,0,1.434961,6.40989,-0.113137)"
       cx="20.36058"
       cy="22.546398"
       fx="20.36058"
       fy="22.546396"
       r="15.156592" />
    <linearGradient
       inkscape:collect="always"
       xlink:href="#linearGradient2713"
       id="linearGradient2607"
       gradientUnits="userSpaceOnUse"
       gradientTransform="matrix(2.21879,0,0,1.825981,-5.13035e-2,-1.012826)"
       spreadMethod="reflect"
       x1="17.68186"
       y1="60.433849"
       x2="17.425413"
       y2="62.779984" />
    <linearGradient
       inkscape:collect="always"
       xlink:href="#linearGradient2713"
       id="linearGradient2605"
       gradientUnits="userSpaceOnUse"
       gradientTransform="matrix(2.21879,0,0,1.825981,-5.13035e-2,-1.012826)"
       spreadMethod="reflect"
       x1="24.261463"
       y1="44.011002"
       x2="24.605862"
       y2="45.887836" />
    <linearGradient
       id="linearGradient2713">
      <stop
         id="stop2715"
         offset="0.00000000"
         style="stop-color:#000000;stop-opacity:1.0000000;" />
      <stop
         id="stop2717"
         offset="1.0000000"
         style="stop-color:#ffffff;stop-opacity:1.0000000;" />
    </linearGradient>
    <linearGradient
       inkscape:collect="always"
       xlink:href="#linearGradient2713"
       id="linearGradient2603"
       gradientUnits="userSpaceOnUse"
       gradientTransform="matrix(2.21879,0,0,1.825981,-5.13035e-2,-1.012826)"
       spreadMethod="reflect"
       x1="29.093641"
       y1="46.357063"
       x2="29.093641"
       y2="47.295517" />
    <linearGradient
       id="linearGradient2701">
      <stop
         id="stop2703"
         offset="0.00000000"
         style="stop-color:#a47c44;stop-opacity:1.0000000;" />
      <stop
         id="stop2770"
         offset="0.75000000"
         style="stop-color:#baa363;stop-opacity:1.0000000;" />
      <stop
         id="stop2705"
         offset="1.0000000"
         style="stop-color:#d6c795;stop-opacity:1.0000000;" />
    </linearGradient>
    <linearGradient
       inkscape:collect="always"
       xlink:href="#linearGradient2701"
       id="linearGradient2601"
       gradientUnits="userSpaceOnUse"
       gradientTransform="matrix(2.151801,0,0,1.77085,-5.13035e-2,4.351838)"
       spreadMethod="reflect"
       x1="29.613848"
       y1="52.608921"
       x2="44.723549"
       y2="52.608921" />
    <radialGradient
       inkscape:collect="always"
       xlink:href="#linearGradient3057"
       id="radialGradient2599"
       gradientUnits="userSpaceOnUse"
       gradientTransform="scale(3.741657,0.267261)"
       cx="8.0178375"
       cy="231.98276"
       fx="8.0178375"
       fy="231.98276"
       r="7.483315" />
    <radialGradient
       inkscape:collect="always"
       xlink:href="#linearGradient3057"
       id="radialGradient2597"
       gradientUnits="userSpaceOnUse"
       gradientTransform="scale(3.741657,0.267261)"
       cx="8.0178375"
       cy="231.98276"
       fx="8.0178375"
       fy="231.98276"
       r="7.483315" />
    <linearGradient
       id="linearGradient3057">
      <stop
         id="stop3059"
         offset="0.00000000"
         style="stop-color:#282828;stop-opacity:1.0000000;" />
      <stop
         id="stop3061"
         offset="1.0000000"
         style="stop-color:#282828;stop-opacity:0.00000000;" />
    </linearGradient>
    <radialGradient
       inkscape:collect="always"
       xlink:href="#linearGradient3057"
       id="radialGradient2595"
       gradientUnits="userSpaceOnUse"
       gradientTransform="scale(3.741657,0.267261)"
       cx="8.0178375"
       cy="231.98276"
       fx="8.0178375"
       fy="231.98276"
       r="7.483315" />
    <radialGradient
       inkscape:collect="always"
       xlink:href="#linearGradient2834"
       id="radialGradient2593"
       gradientUnits="userSpaceOnUse"
       gradientTransform="matrix(-2.846279,0,0,2.087943,139.5254,-3.586178)"
       cx="21.595108"
       cy="8.9813547"
       fx="21.595108"
       fy="8.9813547"
       r="6.0678878" />
    <radialGradient
       inkscape:collect="always"
       xlink:href="#linearGradient2834"
       id="radialGradient2591"
       gradientUnits="userSpaceOnUse"
       gradientTransform="matrix(3.085042,0,0,2.052895,-15.9848,-3.14928)"
       cx="21.595108"
       cy="8.9813547"
       fx="21.595108"
       fy="8.9813547"
       r="6.0678878" />
    <linearGradient
       inkscape:collect="always"
       xlink:href="#linearGradient2780"
       id="linearGradient2589"
       gradientUnits="userSpaceOnUse"
       gradientTransform="matrix(2.161083,0,0,1.804543,-5.13035e-2,2.267068)"
       x1="33.184048"
       y1="24.384579"
       x2="33.184048"
       y2="-13.170087" />
    <linearGradient
       inkscape:collect="always"
       xlink:href="#linearGradient2780"
       id="linearGradient2587"
       gradientUnits="userSpaceOnUse"
       gradientTransform="matrix(2.210222,0,0,1.964283,-1.515862,-2.171324)"
       x1="33.184048"
       y1="24.384579"
       x2="33.184048"
       y2="-13.170087" />
    <linearGradient
       inkscape:collect="always"
       xlink:href="#linearGradient2780"
       id="linearGradient2585"
       gradientUnits="userSpaceOnUse"
       gradientTransform="matrix(1.632005,0,0,2.482509,-5.13035e-2,-1.2826e-2)"
       x1="38.781849"
       y1="9.5745525"
       x2="38.781849"
       y2="7.5863166" />
    <radialGradient
       inkscape:collect="always"
       xlink:href="#linearGradient2834"
       id="radialGradient2583"
       gradientUnits="userSpaceOnUse"
       gradientTransform="matrix(-2.366562,0,0,1.726511,129.1226,-0.112925)"
       cx="21.595108"
       cy="8.9813547"
       fx="21.595108"
       fy="8.9813547"
       r="6.0678878" />
    <linearGradient
       id="linearGradient2834">
      <stop
         id="stop2836"
         offset="0.00000000"
         style="stop-color:#ffe19c;stop-opacity:1.0000000;" />
      <stop
         id="stop2838"
         offset="1.0000000"
         style="stop-color:#b79e4f;stop-opacity:0.00000000;" />
    </linearGradient>
    <radialGradient
       inkscape:collect="always"
       xlink:href="#linearGradient2834"
       id="radialGradient2581"
       gradientUnits="userSpaceOnUse"
       gradientTransform="matrix(2.366562,0,0,1.726511,-0.404355,-1.2826e-2)"
       cx="21.595108"
       cy="8.9813547"
       fx="21.595108"
       fy="8.9813547"
       r="6.0678878" />
    <linearGradient
       inkscape:collect="always"
       xlink:href="#linearGradient2780"
       id="linearGradient2579"
       gradientUnits="userSpaceOnUse"
       gradientTransform="matrix(1.63752,0,0,2.47415,-5.13035e-2,-1.2826e-2)"
       x1="38.362892"
       y1="11.170151"
       x2="39.723621"
       y2="6.0918369" />
    <linearGradient
       id="linearGradient2780">
      <stop
         id="stop2782"
         offset="0.00000000"
         style="stop-color:#ffffff;stop-opacity:1.0000000;" />
      <stop
         id="stop2784"
         offset="1.0000000"
         style="stop-color:#ffffff;stop-opacity:0.00000000;" />
    </linearGradient>
    <linearGradient
       inkscape:collect="always"
       xlink:href="#linearGradient2780"
       id="linearGradient2577"
       gradientUnits="userSpaceOnUse"
       gradientTransform="matrix(1.632005,0,0,2.436073,-5.13035e-2,2.009678)"
       x1="35.995708"
       y1="1.624638"
       x2="35.995708"
       y2="11.710631" />
    <linearGradient
       id="linearGradient3144">
      <stop
         style="stop-color:white;stop-opacity:0.37168142;"
         offset="0"
         id="stop3146" />
      <stop
         style="stop-color:white;stop-opacity:0;"
         offset="1"
         id="stop3148" />
    </linearGradient>
    <linearGradient
       y2="19.078604"
       x2="21.490063"
       y1="10.930093"
       x1="15.750581"
       gradientTransform="matrix(0.948476,0,0,0.921117,0.653706,0.208969)"
       gradientUnits="userSpaceOnUse"
       id="linearGradient4332"
       xlink:href="#linearGradient3144"
       inkscape:collect="always" />
    <linearGradient
       inkscape:collect="always"
       id="linearGradient5300">
      <stop
         style="stop-color:white;stop-opacity:1"
         offset="0"
         id="stop5302" />
      <stop
         style="stop-color:white;stop-opacity:0.43529412"
         offset="1"
         id="stop5304" />
    </linearGradient>
    <linearGradient
       y2="31.254026"
       x2="40.456577"
       y1="-0.81652474"
       x1="35.514278"
       gradientTransform="matrix(1.049982,0,0,0.871128,-24.12306,10.7764)"
       gradientUnits="userSpaceOnUse"
       id="linearGradient4335"
       xlink:href="#linearGradient5300"
       inkscape:collect="always" />
    <linearGradient
       id="linearGradient5175"
       inkscape:collect="always">
      <stop
         id="stop5177"
         offset="0"
         style="stop-color:#840000;stop-opacity:1" />
      <stop
         id="stop5179"
         offset="1"
         style="stop-color:#840000;stop-opacity:0" />
    </linearGradient>
    <linearGradient
       y2="25.250847"
       x2="19.084003"
       y1="22.81179"
       x1="6.6535807"
       gradientTransform="matrix(0.975635,0,0,0.979534,0.37688,6.46705e-2)"
       gradientUnits="userSpaceOnUse"
       id="linearGradient4338"
       xlink:href="#linearGradient5175"
       inkscape:collect="always" />
    <linearGradient
       id="linearGradient5224"
       inkscape:collect="always">
      <stop
         id="stop5226"
         offset="0"
         style="stop-color:white;stop-opacity:1;" />
      <stop
         id="stop5228"
         offset="1"
         style="stop-color:white;stop-opacity:0;" />
    </linearGradient>
    <linearGradient
       y2="32.249214"
       x2="44.913944"
       y1="22.960079"
       x1="44.27161"
       gradientTransform="matrix(1.011567,0,0,0.90547,-26.2119,7.087393)"
       gradientUnits="userSpaceOnUse"
       id="linearGradient4341"
       xlink:href="#linearGradient5224"
       inkscape:collect="always" />
    <linearGradient
       id="linearGradient6068">
      <stop
         id="stop6070"
         offset="0"
         style="stop-color:#bf0000;stop-opacity:1" />
      <stop
         id="stop6072"
         offset="1"
         style="stop-color:#ae0000;stop-opacity:1;" />
    </linearGradient>
    <linearGradient
       y2="40.254692"
       x2="21.564571"
       y1="9.2547073"
       x1="13.477225"
       gradientTransform="matrix(0.999847,0,0,0.965306,2.582175e-3,0.160266)"
       gradientUnits="userSpaceOnUse"
       id="linearGradient4344"
       xlink:href="#linearGradient6068"
       inkscape:collect="always" />
    <linearGradient
       id="linearGradient6092"
       inkscape:collect="always">
      <stop
         id="stop6094"
         offset="0"
         style="stop-color:white;stop-opacity:1" />
      <stop
         id="stop6096"
         offset="1"
         style="stop-color:#79796d;stop-opacity:1" />
    </linearGradient>
    <radialGradient
       r="2"
       fy="42.006283"
       fx="16.301373"
       cy="42.006283"
       cx="16.301373"
       gradientTransform="matrix(1.333333,0,0,4.562108,-5.433799,-149.7912)"
       gradientUnits="userSpaceOnUse"
       id="radialGradient4347"
       xlink:href="#linearGradient6092"
       inkscape:collect="always" />
    <linearGradient
       id="linearGradient5129"
       inkscape:collect="always">
      <stop
         id="stop5131"
         offset="0"
         style="stop-color:black;stop-opacity:0.48351648" />
      <stop
         id="stop3005"
         offset="1"
         style="stop-color:black;stop-opacity:0;" />
    </linearGradient>
    <radialGradient
       r="7.9555426"
       fy="40.154495"
       fx="10.919224"
       cy="40.154495"
       cx="10.919224"
       gradientTransform="matrix(1,0,0,0.385115,0,24.6904)"
       gradientUnits="userSpaceOnUse"
       id="radialGradient4350"
       xlink:href="#linearGradient5129"
       inkscape:collect="always" />
    <linearGradient
       inkscape:collect="always"
       id="linearGradient5131">
      <stop
         style="stop-color:white;stop-opacity:1;"
         offset="0"
         id="stop5133" />
      <stop
         style="stop-color:white;stop-opacity:0.44705883"
         offset="1"
         id="stop5135" />
    </linearGradient>
    <linearGradient
       inkscape:collect="always"
       xlink:href="#linearGradient5131"
       id="linearGradient3138"
       gradientUnits="userSpaceOnUse"
       gradientTransform="matrix(4.305798,0,0,3.55119,-16.56253,7.25117)"
       x1="16.374376"
       y1="4.2241836"
       x2="42.454079"
       y2="60.704338" />
    <linearGradient
       id="linearGradient5139">
      <stop
         style="stop-color:#fef080;stop-opacity:1"
         offset="0"
         id="stop5141" />
      <stop
         style="stop-color:#e1ce37;stop-opacity:1"
         offset="1"
         id="stop5143" />
    </linearGradient>
    <linearGradient
       inkscape:collect="always"
       xlink:href="#linearGradient5139"
       id="linearGradient3136"
       gradientUnits="userSpaceOnUse"
       gradientTransform="matrix(4.214667,0,0,3.489365,-13.96601,9.135136)"
       x1="25.213207"
       y1="16.421766"
       x2="30.698416"
       y2="45.58992" />
    <linearGradient
       inkscape:collect="always"
       id="linearGradient5388">
      <stop
         style="stop-color:black;stop-opacity:1;"
         offset="0"
         id="stop5390" />
      <stop
         style="stop-color:black;stop-opacity:0;"
         offset="1"
         id="stop5392" />
    </linearGradient>
    <radialGradient
       inkscape:collect="always"
       xlink:href="#linearGradient5388"
       id="radialGradient3134"
       gradientUnits="userSpaceOnUse"
       gradientTransform="matrix(1.998827,0,0,0.191404,-100.2505,122.0944)"
       cx="101.20975"
       cy="344.29547"
       fx="101.20975"
       fy="344.29547"
       r="96.999954" />
    <inkscape:perspective
       sodipodi:type="inkscape:persp3d"
       inkscape:vp_x="0 : 526.18109 : 1"
       inkscape:vp_y="0 : 1000 : 0"
       inkscape:vp_z="744.09448 : 526.18109 : 1"
       inkscape:persp3d-origin="372.04724 : 350.78739 : 1"
       id="perspective2695" />
  </defs>
  <sodipodi:namedview
     id="base"
     pagecolor="#ffffff"
     bordercolor="#666666"
     borderopacity="1.0"
     inkscape:pageopacity="0.0"
     inkscape:pageshadow="2"
     inkscape:zoom="0.35"
     inkscape:cx="375"
     inkscape:cy="520"
     inkscape:document-units="px"
     inkscape:current-layer="layer1"
     showgrid="false"
     inkscape:window-width="1002"
     inkscape:window-height="716"
     inkscape:window-x="662"
     inkscape:window-y="308" />
  <metadata
     id="metadata2692">
    <rdf:RDF>
      <cc:Work
         rdf:about="">
        <dc:format>image/svg+xml</dc:format>
        <dc:type
           rdf:resource="http://purl.org/dc/dcmitype/StillImage" />
      </cc:Work>
    </rdf:RDF>
  </metadata>
  <g
     inkscape:label="Calque 1"
     inkscape:groupmode="layer"
     id="layer1">
    <g
       transform="translate(-3.9995092,-6.475456)"
       id="g2638">
      <g
         inkscape:transform-center-y="-2.4347578"
         inkscape:transform-center-x="9.753941"
         transform="matrix(0.1811476,-3.1089822e-2,3.1089822e-2,0.1811476,3.2477397,9.5375985)"
         id="g3101">
        <path
           style="opacity:0.5;fill:url(#radialGradient3134);fill-opacity:1;stroke:none;stroke-width:1.99999964;stroke-linejoin:round;stroke-miterlimit:4;stroke-dasharray:none;stroke-dashoffset:0;stroke-opacity:1"
           d="M 14.974447,46.475504 L 194.76189,46.475504 L 195.4725,104.34263 C 195.79018,131.68638 200.02052,177.15322 204,202.78328 C 177.35165,202.56155 145.01834,205.66557 118.37001,205.44385 C 97.509577,206.59336 75.569645,206.73241 52.81508,206.109 L 10.000086,205.44385 C 12.089211,184.60282 14.661461,164.42691 14.974447,143.58588 L 14.974447,46.475504 z"
           id="path5386"
           sodipodi:nodetypes="ccccccccc" />
        <path
           style="fill:url(#linearGradient3136);fill-opacity:1;stroke:#c3a53f;stroke-width:2.00000048;stroke-linejoin:round;stroke-miterlimit:4;stroke-dasharray:none;stroke-dashoffset:0;stroke-opacity:1"
           d="M 10.07922,33.475237 L 193.65651,33.475237 L 194.38212,92.789011 C 194.70649,120.81635 199.02601,167.41981 203.08935,193.69064 C 175.87925,193.46337 142.86438,196.64498 115.65431,196.41772 C 94.35416,197.59595 71.951743,197.73851 48.717521,197.09948 L 5.0000051,196.41772 C 7.1331668,175.05567 9.7596385,154.37537 10.07922,133.01331 L 10.07922,33.475237 z"
           id="rect1872"
           sodipodi:nodetypes="ccccccccc" />
        <path
           style="opacity:0.5;fill:none;fill-opacity:1;stroke:url(#linearGradient3138);stroke-width:1.99999964;stroke-linejoin:round;stroke-miterlimit:4;stroke-dasharray:none;stroke-dashoffset:0;stroke-opacity:1"
           d="M 11.974364,35.47524 L 191.76181,35.47524 L 192.47242,93.342368 C 192.7901,120.68612 197.02044,166.15296 200.99992,191.78302 C 174.35157,191.56129 142.01826,194.66531 115.36993,194.44359 C 94.509494,195.5931 72.569562,195.73215 49.814997,195.10874 L 7.0000032,194.44359 C 9.0891279,173.60256 11.661378,153.42665 11.974364,132.58562 L 11.974364,35.47524 z"
           id="path5129"
           sodipodi:nodetypes="ccccccccc" />
      </g>
      <g
         inkscape:transform-center-y="-17.699152"
         inkscape:transform-center-x="12.90131"
         inkscape:label="Ebene 1"
         id="g3080"
         transform="matrix(0.1811476,-3.1089822e-2,3.1089822e-2,0.1811476,19.190345,7.6262675)">
        <path
           sodipodi:type="arc"
           style="opacity:0.48128345;fill:url(#radialGradient4350);fill-opacity:1;stroke:none;stroke-width:1.14015388;stroke-linejoin:miter;stroke-miterlimit:4;stroke-dasharray:none;stroke-dashoffset:0;stroke-opacity:1"
           id="path5705"
           sodipodi:cx="10.919671"
           sodipodi:cy="40.154495"
           sodipodi:rx="7.9550548"
           sodipodi:ry="3.0634372"
           d="M 18.035359,41.524144 A 7.9550548,3.0634372 0 1 1 18.874341,40.184619"
           transform="matrix(0.94274,0,0,0.815983,6.007393,16.77101)"
           sodipodi:start="0.46351537"
           sodipodi:end="6.2930189"
           sodipodi:open="true" />
        <path
           style="fill:url(#radialGradient4347);fill-opacity:1;fill-rule:nonzero;stroke:#363631;stroke-width:1;stroke-linecap:round;stroke-linejoin:round;stroke-miterlimit:4;stroke-dasharray:none;stroke-opacity:1"
           d="M 18.301367,37.662712 C 18.301367,42.42598 16.968033,50.477466 16.301366,50.477466 C 15.6347,50.477466 14.301366,42.42598 14.301366,37.662712 C 14.301366,32.899445 14.461366,33.219251 16.301366,33.219251 C 18.141366,33.219251 18.301367,32.899445 18.301367,37.662712 z"
           id="path4281"
           sodipodi:nodetypes="czzzz" />
        <path
           style="fill:url(#linearGradient4344);fill-opacity:1;fill-rule:nonzero;stroke:#620000;stroke-width:1;stroke-linecap:round;stroke-linejoin:round;stroke-miterlimit:4;stroke-dasharray:none;stroke-opacity:1"
           d="M 16.613922,9.5765533 C 12.198587,9.5765533 8.4765643,11.189665 8.4765643,13.085378 C 8.4765643,14.131423 9.3649907,16.084488 11.084863,17.474553 L 9.802458,28.087404 C 7.6535861,29.98274 6.30299,32.420284 6.30299,33.846336 C 6.30299,36.431401 11.188492,38.535752 16.707658,38.535751 C 22.226824,38.535751 26.299949,36.431402 26.29995,33.846336 C 26.29995,32.40626 24.923542,29.935694 22.737992,28.032556 L 21.518058,17.035636 C 23.23793,15.64557 24.126355,14.131423 24.126355,13.085378 C 24.126356,11.189665 21.029255,9.5765533 16.613922,9.5765533 z"
           id="path5149"
           sodipodi:nodetypes="csccsssccsc" />
        <path
           style="opacity:0.55614971;fill:url(#linearGradient4341);fill-opacity:1;fill-rule:nonzero;stroke:none;stroke-width:1;stroke-linecap:round;stroke-linejoin:round;stroke-miterlimit:4;stroke-dasharray:none;stroke-opacity:0.78571424"
           d="M 22.420417,33.111594 C 22.420417,35.013205 20.696244,35.035397 18.571816,35.035397 C 16.447388,35.035397 15.422961,33.939456 15.422961,32.037845 C 15.422961,30.136237 16.947207,29.666651 18.571816,29.666651 C 19.896535,29.666651 22.420417,31.209985 22.420417,33.111594 z"
           id="path5221"
           sodipodi:nodetypes="cssss" />
        <path
           style="fill:url(#linearGradient4338);fill-opacity:1;fill-rule:nonzero;stroke:none;stroke-width:1;stroke-linecap:round;stroke-linejoin:round;stroke-miterlimit:4;stroke-dasharray:none;stroke-opacity:0.38461537"
           d="M 14.817606,15.98669 C 11.257188,15.98669 9.9394331,12.408035 9.9394331,14.027624 C 9.9394331,14.962293 10.809089,15.60266 12.307379,16.810209 L 11.155589,28.865772 C 9.2359002,30.608914 7.9881637,32.930547 7.9881637,34.277891 C 7.9881637,35.577349 11.890703,37.536415 15.793241,37.536415 C 24.573954,37.536415 4.0856247,35.114682 15.793241,28.720618 L 15.793241,17.945757 C 18.720145,17.945757 20.671415,16.91097 20.671415,15.98669 C 20.671417,14.3671 18.378026,15.98669 14.817606,15.98669 z"
           id="path5173"
           sodipodi:nodetypes="csccscccsc" />
        <path
           style="fill:none;fill-opacity:1;fill-rule:nonzero;stroke:url(#linearGradient4335);stroke-width:1;stroke-linecap:round;stroke-linejoin:round;stroke-miterlimit:4;stroke-dasharray:none;stroke-opacity:0.38461537"
           d="M 16.596667,10.531415 C 12.539519,10.531415 9.4443166,11.799255 9.4443166,13.107924 C 9.4443166,13.996478 10.730014,16.161487 12.015709,17.033933 L 10.730014,28.375736 C 8.5871863,30.120626 7.3014848,32.329543 7.3014848,33.610413 C 7.3014848,35.834404 11.478777,37.536417 16.695105,37.536417 C 21.911431,37.536417 25.301218,35.834406 25.301217,33.610413 C 25.301217,32.333002 24.015532,30.120626 21.872705,28.375736 L 20.58701,16.597709 C 22.301271,15.289039 23.158401,13.986604 23.158401,13.107924 C 23.158401,11.799255 20.65381,10.531415 16.596667,10.531415 z"
           id="path5177"
           sodipodi:nodetypes="csccsssccsc" />
        <path
           style="fill:url(#linearGradient4332);fill-opacity:1;fill-rule:nonzero;stroke:none;stroke-width:1;stroke-linecap:round;stroke-linejoin:round;stroke-miterlimit:4;stroke-dasharray:none;stroke-opacity:0.38461537"
           d="M 16.806417,11.036415 C 11.801372,11.036415 10.301372,12.457247 10.301372,13.246831 C 10.301372,14.036415 11.145918,14.343046 12.739591,14.886621 C 15.103005,15.692743 18.082893,15.678846 20.430597,14.868607 C 21.998783,14.327394 22.801372,13.828318 22.801372,13.246831 C 22.801373,12.22791 20.227201,11.036415 16.806417,11.036415 z"
           id="path6080"
           sodipodi:nodetypes="czsssc" />
      </g>
      <path
         id="text3089"
         d="M 21.366419,20.28683 L 22.200091,20.42382 C 22.878208,20.5784 23.202672,20.744546 23.173482,20.922261 C 23.199318,20.926516 23.202686,20.986802 23.183584,21.103122 C 23.056063,21.374207 22.922837,21.498331 22.783905,21.475493 L 22.777261,21.394756 L 22.660934,21.375641 C 22.073662,21.172955 21.713791,21.060723 21.58132,21.038947 L 20.767036,20.905142 C 19.933352,20.768158 18.343924,20.666269 15.998745,20.599476 C 14.999527,20.581306 14.213581,20.598173 13.640904,20.650078 C 13.597891,20.911819 13.298184,21.685567 12.74178,22.971324 C 12.040916,24.65149 11.655707,25.703219 11.586152,26.126516 C 11.4224,26.557568 11.31026,26.957277 11.249731,27.325643 L 11.263019,27.487116 C 11.229567,27.690687 11.02428,27.84943 10.647161,27.963343 L 10.569611,27.9506 C 10.484443,27.903419 10.451949,27.818435 10.472126,27.695646 C 10.625045,26.765036 11.129828,25.26836 11.986477,23.205613 C 12.450295,22.160169 12.782134,21.312056 12.981994,20.661271 C 11.967912,20.733578 11.192859,20.805331 10.65683,20.876532 C 10.22725,20.885595 9.9979648,20.907651 9.9689738,20.942703 C 9.9626018,20.981486 9.8991288,21.004241 9.7785558,21.010969 C 9.7365488,21.004074 9.7169788,20.921213 9.7198468,20.762388 C 9.8061518,20.600694 9.9770908,20.489404 10.232667,20.42852 C 11.175383,20.225034 12.084908,20.102369 12.961243,20.060525 C 13.121696,20.073624 13.280954,20.033423 13.439019,19.939921 L 13.519755,19.933276 L 13.645912,20.013741 C 14.605145,19.97226 15.45784,19.953087 16.204002,19.956222 C 18.689143,20.019466 20.409946,20.129669 21.366419,20.28683 M 16.334584,24.099305 C 16.748185,24.167273 16.997737,24.415689 17.08324,24.844552 C 17.123178,25.126557 17.134123,25.322489 17.116074,25.432351 L 17.06988,25.713473 C 16.997663,26.15293 16.641879,26.65198 16.002526,27.210627 C 15.146685,27.975954 14.394021,28.305256 13.744534,28.198531 C 13.275996,28.121539 12.989634,27.784112 12.885447,27.186247 C 12.860734,26.973119 12.858997,26.801929 12.880237,26.672677 C 13.033687,25.738836 13.600393,24.955866 14.580357,24.323761 C 14.792725,24.20269 15.064168,24.136124 15.394688,24.12406 C 15.403181,24.072363 15.585612,24.042608 15.941983,24.034792 L 16.334584,24.099305 M 13.749796,26.25805 C 13.711639,26.995134 13.92683,27.40217 14.395368,27.479161 C 14.679719,27.525886 14.979622,27.427493 15.295078,27.183978 C 15.857685,26.72887 16.164211,26.347829 16.214657,26.040855 L 16.239347,25.8906 C 16.275449,25.670875 16.232563,25.396686 16.11069,25.068031 L 16.086454,25.064049 C 15.968137,25.117618 15.868589,25.137765 15.787811,25.124488 L 15.368039,24.831508 C 14.789287,24.819373 14.489824,24.874699 14.469649,24.997484 C 14.067799,25.362864 13.827848,25.783053 13.749796,26.25805 M 18.104443,24.355287 L 18.1723,24.366438 C 18.324169,24.391398 18.355592,25.068565 18.26657,26.397941 L 18.88029,25.692384 C 19.502517,25.177385 19.967117,24.945105 20.274093,24.995544 L 20.298327,24.999526 C 20.446963,25.023955 20.581979,25.212068 20.703375,25.563866 C 20.781254,25.958298 20.803737,26.255683 20.77082,26.45602 L 20.795055,26.460002 C 21.696961,25.596056 22.340178,25.195674 22.724708,25.258856 L 22.865268,25.281953 C 23.198085,25.336646 23.368325,25.744593 23.375991,26.505794 L 23.318531,27.158401 L 23.001838,28.510103 L 22.915024,29.038419 C 22.856611,29.393859 22.589028,29.618691 22.112274,29.712914 C 22.02064,29.664671 21.973695,29.617134 21.971441,29.570304 L 22.096485,28.809336 L 22.405213,27.506103 C 22.502451,26.712361 22.424606,26.216722 22.171677,26.019185 L 22.152289,26.016 C 21.952748,26.099363 21.658563,26.344713 21.269735,26.752049 C 20.873328,27.144871 20.643534,27.533543 20.580352,27.918064 C 20.473623,28.567554 20.173294,28.951272 19.679365,29.06922 L 19.587273,29.054088 C 19.520961,29.013325 19.487229,28.976256 19.486079,28.942881 L 19.539442,28.618136 L 19.782065,27.717199 L 19.831445,27.41669 C 19.872525,26.782964 19.846957,26.312508 19.75474,26.00532 L 19.601618,25.786025 C 19.203924,26.085717 18.875492,26.539485 18.616321,27.147328 C 18.195081,28.216369 17.926299,28.74133 17.809973,28.722216 C 17.593446,28.908977 17.406015,28.989349 17.247683,28.963332 L 17.179826,28.952182 C 17.089349,28.937314 17.070964,28.665491 17.124669,28.136713 L 17.287942,27.143092 C 17.39626,26.483911 17.415673,25.790209 17.34618,25.061982 L 17.345043,24.917438 C 17.380617,24.700946 17.584242,24.52202 17.955918,24.38066 L 18.104443,24.355287 M 29.49506,23.892427 C 28.509634,23.547986 27.363977,23.522337 26.058083,23.81548 C 25.37285,24.087837 24.950187,24.297141 24.790096,24.443393 L 24.745153,24.565431 L 24.763812,24.603342 C 24.911434,24.654153 25.246813,24.531721 25.769951,24.236047 C 26.644413,24.084397 27.466064,24.143086 28.234901,24.412114 L 28.578374,24.533266 C 29.372126,24.872771 29.78676,25.15661 29.82228,25.384782 L 29.804622,25.431659 L 29.604579,25.52821 L 28.038062,25.912934 C 27.126317,26.00869 26.611609,26.222781 26.493936,26.555205 L 26.481123,26.602878 L 26.544405,26.732744 C 26.682331,26.781961 26.92408,26.795137 27.26965,26.772273 C 28.775591,26.857128 29.840786,27.008933 30.465235,27.227689 L 30.930744,27.393784 L 31.190227,27.511089 C 31.805239,27.847769 32.034392,28.240507 31.877691,28.689306 C 31.717739,29.137575 30.553006,29.480468 28.383481,29.717984 L 24.741109,30.224535 C 24.833284,29.804953 24.932059,29.44619 25.037436,29.148244 L 25.954015,26.690486 L 26.06454,26.290512 C 26.145593,25.716453 26.134398,25.410968 26.030954,25.374054 C 25.848847,25.310949 25.611665,25.411353 25.31941,25.675267 L 25.195959,26.426542 C 24.649016,27.614307 24.269907,28.507749 24.058628,29.106871 L 24.017736,29.234552 L 23.663451,30.39092 C 22.573733,30.580213 21.982604,30.804975 21.890063,31.065208 L 21.881233,31.088647 C 21.878626,31.124721 21.908882,31.172833 21.972005,31.232986 C 22.160574,31.297155 22.695011,31.235641 23.575317,31.048442 C 23.531595,31.233732 23.580315,31.351249 23.721475,31.400995 L 23.74976,31.41062 C 24.206827,31.416036 24.485371,31.275969 24.585391,30.990419 L 24.616657,30.891022 C 27.543839,30.505884 29.395951,30.241098 30.173,30.096664 C 31.778503,29.696777 32.699998,29.157944 32.937486,28.480162 L 32.972804,28.386409 C 33.059978,28.138573 33.061049,27.899814 32.976014,27.670133 C 32.766124,27.230785 32.383445,26.914035 31.827976,26.71988 L 31.211346,26.504064 C 30.885372,26.387452 30.337624,26.277534 29.568099,26.174309 L 29.544662,26.16548 C 30.311109,25.863337 30.747551,25.56006 30.853997,25.255648 L 30.935847,25.030162 C 30.932185,24.608113 30.451924,24.228868 29.49506,23.892427 M 35.993743,27.32974 C 36.407346,27.397709 36.656896,27.646125 36.7424,28.074987 C 36.782338,28.356993 36.793282,28.552925 36.775234,28.662787 L 36.72904,28.943908 C 36.656822,29.383366 36.30104,29.882416 35.661686,30.441063 C 34.805845,31.20639 34.053182,31.535691 33.403695,31.428966 C 32.935157,31.351975 32.648794,31.014547 32.544606,30.416682 C 32.519893,30.203554 32.518159,30.032365 32.539397,29.903112 C 32.692848,28.969272 33.259553,28.186301 34.239518,27.554197 C 34.451886,27.433126 34.723329,27.36656 35.053849,27.354496 C 35.062341,27.302799 35.244771,27.273043 35.601142,27.265228 L 35.993743,27.32974 M 33.408956,29.488485 C 33.3708,30.225569 33.58599,30.632606 34.054528,30.709597 C 34.338878,30.756322 34.638783,30.657929 34.954238,30.414414 C 35.516845,29.959305 35.823371,29.578264 35.873818,29.271291 L 35.898508,29.121036 C 35.934609,28.90131 35.891724,28.627122 35.76985,28.298467 L 35.745614,28.294485 C 35.627298,28.348054 35.527749,28.3682 35.446969,28.354923 L 35.0272,28.061943 C 34.448446,28.049809 34.148984,28.105134 34.12881,28.22792 C 33.726958,28.5933 33.487008,29.013488 33.408956,29.488485 M 41.216894,28.441888 L 41.241128,28.44587 C 41.300439,28.488806 41.326113,28.534507 41.318155,28.582973 C 41.259211,28.941649 40.991637,29.287608 40.515427,29.620852 C 39.174798,30.973546 38.239134,32.143891 37.708427,33.131891 C 37.499347,33.515669 37.258963,33.746629 36.987279,33.824773 L 36.776608,33.864822 L 36.703903,33.852875 L 36.618046,33.739211 L 36.622029,33.714976 C 36.659728,33.485553 36.987932,32.932192 37.606645,32.054892 L 37.58241,32.05091 C 37.2868,31.789948 37.146408,30.897423 37.161234,29.37333 C 37.103314,28.998776 37.084444,28.750104 37.104622,28.627312 C 37.14232,28.397894 37.393282,28.203517 37.857512,28.044179 L 37.983532,28.064887 C 38.099859,28.084006 38.175487,28.906156 38.210423,30.531341 L 38.34816,31.0866 L 39.373506,29.935967 C 40.00799,29.366567 40.329216,29.057631 40.337184,29.009159 C 40.642532,28.584787 40.935766,28.395697 41.216894,28.441888"
         inkscape:transform-center-y="-3.9102109"
         inkscape:transform-center-x="11.007304"
         style="font-size:40.37952042px;font-style:normal;font-weight:normal;fill:#000000;fill-opacity:1;stroke:none;stroke-width:1px;stroke-linecap:butt;stroke-linejoin:miter;stroke-opacity:1;font-family:Bitstream Vera Sans" />
      <g
         transform="matrix(0.213756,0,0,0.213756,27.888283,24.967965)"
         id="layer2">
        <path
           style="fill:#282828;fill-opacity:1;fill-rule:evenodd;stroke:none;stroke-width:0.625;stroke-linecap:round;stroke-linejoin:round;stroke-miterlimit:4;stroke-dashoffset:0;stroke-opacity:1"
           id="rect2723"
           d="M 64.359126,2 C 44.287226,2 28.128259,18.158966 28.128259,38.230867 L 28.128259,78.487385 L 38.192389,78.487385 L 38.192389,38.230867 C 38.192389,23.734494 49.862754,12.06413 64.359126,12.06413 C 78.855498,12.06413 90.525863,23.734494 90.525863,38.230867 L 90.525863,78.487385 L 100.58999,78.487385 L 100.58999,38.230867 C 100.58999,18.158966 84.431026,2 64.359126,2 z" />
        <path
           style="opacity:0.65;fill:url(#linearGradient2577);fill-opacity:1;fill-rule:evenodd;stroke:none;stroke-width:0.625;stroke-linecap:round;stroke-linejoin:round;stroke-miterlimit:4;stroke-dashoffset:0;stroke-opacity:1"
           id="path3082"
           d="M 64.359126,4.6292539 C 45.402331,4.6292539 30.141085,20.935813 30.141085,39.538022 L 30.141085,77.066368 C 30.141085,91.15557 38.917475,103.11605 51.401559,108.11367 C 42.456647,104.04079 36.179563,95.313819 36.179563,84.967072 L 36.179563,37.562846 C 36.179563,23.337627 47.849928,10.941742 62.3463,10.941742 L 66.371952,10.941742 C 80.868324,10.941742 92.538689,23.337627 92.538689,37.562846 L 92.538689,84.967072 C 92.538689,95.313819 86.261604,104.04079 77.316693,108.11367 C 89.800776,103.11605 98.577166,91.15557 98.577166,77.066368 L 98.577166,39.538022 C 98.577166,20.935813 83.31592,4.6292539 64.359126,4.6292539 z" />
        <path
           style="opacity:0.5;fill:url(#linearGradient2579);fill-opacity:1;fill-rule:evenodd;stroke:none;stroke-width:0.625;stroke-linecap:round;stroke-linejoin:round;stroke-miterlimit:4;stroke-dashoffset:0;stroke-opacity:1"
           id="path2931"
           d="M 64.359126,2.8539414 C 44.8491,2.8539414 29.142472,18.454974 29.142472,37.833835 L 29.142472,76.929009 C 29.142472,91.606445 38.17499,104.06629 51.023407,109.27255 C 41.817448,105.02963 35.357175,95.938304 35.357175,85.159575 L 35.357175,35.776195 C 35.357175,20.957066 47.368128,6.6939225 62.287558,6.6939225 L 66.430694,6.6939225 C 81.350124,6.6939225 93.361077,20.957066 93.361077,35.776195 L 93.361077,85.159575 C 93.361077,95.938304 86.900804,105.02963 77.694844,109.27255 C 90.543262,104.06629 99.57578,91.606445 99.57578,76.929009 L 99.57578,37.833835 C 99.57578,18.454974 83.869152,2.8539414 64.359126,2.8539414 z" />
        <path
           style="opacity:0.8;fill:url(#radialGradient2581);fill-opacity:1;fill-rule:evenodd;stroke:none;stroke-width:1px;stroke-linecap:butt;stroke-linejoin:miter;stroke-opacity:1"
           id="path2861"
           d="M 49.470641,12.003202 C 44.032247,15.40845 40.97192,21.213331 41.571128,23.148345 C 42.216771,25.233301 46.03779,15.914775 56.854306,13.028936 C 65.194873,10.80368 56.853813,7.380231 49.470641,12.003202 z" />
        <path
           style="opacity:0.8;fill:url(#radialGradient2583);fill-opacity:1;fill-rule:evenodd;stroke:none;stroke-width:1px;stroke-linecap:butt;stroke-linejoin:miter;stroke-opacity:1"
           id="path2871"
           d="M 79.247611,11.903104 C 84.686005,15.308352 87.746331,21.113233 87.147123,23.048247 C 86.501481,25.133203 82.680461,15.814677 71.863945,12.928838 C 63.523378,10.703581 71.864438,7.280132 79.247611,11.903104 z" />
        <path
           style="opacity:0.5;fill:url(#linearGradient2585);fill-opacity:1;fill-rule:evenodd;stroke:none;stroke-width:0.625;stroke-linecap:round;stroke-linejoin:round;stroke-miterlimit:4;stroke-dashoffset:0;stroke-opacity:1"
           id="rect2875"
           d="M 64.359126,6.2794038 C 45.402331,6.2794038 30.141085,19.274072 30.141085,38.230867 L 30.141085,76.474559 C 30.141085,90.832324 38.917475,103.02079 51.401559,108.11367 C 42.456647,103.96315 36.179563,95.069836 36.179563,84.525863 L 36.179563,36.218041 C 36.179563,21.721668 47.849928,10.035751 62.3463,10.035751 L 66.371952,10.035751 C 80.868324,10.035751 92.538689,21.721668 92.538689,36.218041 L 92.538689,84.525863 C 92.538689,95.069836 86.261604,103.96315 77.316693,108.11367 C 89.800776,103.02079 98.577166,90.832324 98.577166,76.474559 L 98.577166,38.230867 C 98.577166,19.274072 83.31592,6.2794038 64.359126,6.2794038 z" />
        <path
           style="opacity:0.8;fill:url(#linearGradient2587);fill-opacity:1;fill-rule:evenodd;stroke:none;stroke-width:0.625;stroke-linecap:round;stroke-linejoin:round;stroke-miterlimit:4;stroke-dashoffset:0;stroke-opacity:1"
           id="path2933"
           d="M 64.359126,4.0389347 C 37.597412,4.0389347 31.421633,27.354187 31.421633,37.899012 C 31.421633,69.53349 33.480224,69.53349 33.480224,37.899012 C 33.480224,14.700396 49.942868,5.5442086 64.359126,5.5442086 C 78.775384,5.5442086 95.238027,15.646794 95.238027,37.899012 C 95.238027,69.53349 97.296619,69.53349 97.296619,37.899012 C 97.296619,27.354187 91.12084,4.0389347 64.359126,4.0389347 z" />
        <path
           style="opacity:0.6;fill:url(#linearGradient2589);fill-opacity:1;fill-rule:evenodd;stroke:none;stroke-width:0.625;stroke-linecap:round;stroke-linejoin:round;stroke-miterlimit:4;stroke-dashoffset:0;stroke-opacity:1"
           id="path2885"
           d="M 64.359126,7.091337 C 38.192389,7.091337 32.153911,29.391473 32.153911,39.078761 C 32.153911,68.140624 34.166737,68.140624 34.166737,39.078761 C 34.166737,17.766728 50.263376,8.474197 64.359126,8.474197 C 78.454875,8.474197 94.551515,18.636162 94.551515,39.078761 C 94.551515,68.140624 96.564341,68.140624 96.564341,39.078761 C 96.564341,29.391473 90.525863,7.091337 64.359126,7.091337 z" />
        <path
           style="opacity:0.8;fill:#ffffff;fill-opacity:1;fill-rule:evenodd;stroke:none;stroke-width:1px;stroke-linecap:butt;stroke-linejoin:miter;stroke-opacity:1"
           id="path2897"
           d="M 36.979617,16.487555 C 34.10437,21.735798 40.00668,18.418682 41.377593,16.761368 C 45.231503,12.102333 51.745249,8.725083 57.462695,7.62284 C 62.257428,6.6984824 62.988478,4.847127 59.040233,4.5406553 C 51.168146,3.9296066 39.736027,11.456231 36.979617,16.487555 z" />
        <path
           style="opacity:0.6;fill:#ffffff;fill-opacity:1;fill-rule:evenodd;stroke:none;stroke-width:1px;stroke-linecap:butt;stroke-linejoin:miter;stroke-opacity:1"
           id="path2901"
           d="M 32.623431,25.155638 C 32.928211,27.720405 37.886922,19.357836 41.791152,15.431911 C 46.559495,10.637072 53.787418,7.28111 57.264611,6.8376665 C 63.463032,6.0471897 60.520985,3.0096623 56.635935,3.7770922 C 42.515997,6.5662613 31.846251,18.615574 32.623431,25.155638 z" />
        <path
           style="opacity:0.8;fill:#ffffff;fill-opacity:1;fill-rule:evenodd;stroke:none;stroke-width:1px;stroke-linecap:butt;stroke-linejoin:miter;stroke-opacity:1"
           id="path2909"
           d="M 91.579935,16.451601 C 94.474486,21.689224 88.560004,18.393859 87.183,16.741604 C 83.311963,12.096789 76.785826,8.743542 71.06436,7.662356 C 66.266258,6.7556569 64.915924,4.9102192 68.863013,4.5892139 C 76.732798,3.9491874 88.805023,11.430459 91.579935,16.451601 z" />
        <path
           style="opacity:0.6;fill:#ffffff;fill-opacity:1;fill-rule:evenodd;stroke:none;stroke-width:1px;stroke-linecap:butt;stroke-linejoin:miter;stroke-opacity:1"
           id="path2911"
           d="M 95.798321,24.924688 C 95.502987,27.490558 90.51352,19.146303 86.594864,15.234779 C 81.808901,10.457527 74.568672,7.128199 71.089869,6.6975603 C 64.88858,5.9299082 67.797417,3.002405 71.706633,3.6353351 C 85.848263,5.9367719 96.551418,18.381806 95.798321,24.924688 z" />
        <path
           style="opacity:0.4;fill:url(#radialGradient2591);fill-opacity:1;fill-rule:evenodd;stroke:none;stroke-width:1px;stroke-linecap:butt;stroke-linejoin:miter;stroke-opacity:1"
           id="path2953"
           d="M 49.032092,11.138281 C 41.942618,15.187263 37.953187,22.089508 38.734312,24.390321 C 39.575969,26.86942 44.557039,15.789305 58.657416,12.357921 C 69.530154,9.711999 58.656774,5.6413744 49.032092,11.138281 z" />
        <path
           style="opacity:0.4;fill:url(#radialGradient2593);fill-opacity:1;fill-rule:evenodd;stroke:none;stroke-width:1px;stroke-linecap:butt;stroke-linejoin:miter;stroke-opacity:1"
           id="path2957"
           d="M 79.540422,10.945305 C 86.081213,15.063412 89.761889,22.083498 89.041216,24.423589 C 88.264698,26.945014 83.669133,15.675732 70.66004,12.185767 C 60.628786,9.494672 70.660632,5.3545529 79.540422,10.945305 z" />
        <path
           transform="matrix(2.012826,0,0,2.012826,3.974348,-1.2826e-2)"
           style="opacity:0.4;fill:url(#radialGradient2595);fill-opacity:1;fill-rule:evenodd;stroke:none;stroke-width:0.625;stroke-linecap:round;stroke-linejoin:round;stroke-miterlimit:4;stroke-dashoffset:0;stroke-opacity:1"
           id="path3055"
           d="M 58,62 C 58,63.104569 45.463973,64 30,64 C 14.536027,64 2,63.104569 2,62 C 2,60.895431 14.536027,60 30,60 C 45.463973,60 58,60.895431 58,62 L 58,62 z" />
        <path
           transform="matrix(2.012826,0,0,2.516032,3.974348,-34.23087)"
           style="opacity:0.4;fill:url(#radialGradient2597);fill-opacity:1;fill-rule:evenodd;stroke:none;stroke-width:0.625;stroke-linecap:round;stroke-linejoin:round;stroke-miterlimit:4;stroke-dashoffset:0;stroke-opacity:1"
           id="path3065"
           d="M 58,62 C 58,63.104569 45.463973,64 30,64 C 14.536027,64 2,63.104569 2,62 C 2,60.895431 14.536027,60 30,60 C 45.463973,60 58,60.895431 58,62 L 58,62 z" />
        <path
           transform="matrix(2.012826,0,0,2.012826,3.974348,-2.025652)"
           style="opacity:0.4;fill:url(#radialGradient2599);fill-opacity:1;fill-rule:evenodd;stroke:none;stroke-width:0.625;stroke-linecap:round;stroke-linejoin:round;stroke-miterlimit:4;stroke-dashoffset:0;stroke-opacity:1"
           id="path3067"
           d="M 58,62 C 58,63.104569 45.463973,64 30,64 C 14.536027,64 2,63.104569 2,62 C 2,60.895431 14.536027,60 30,60 C 45.463973,60 58,60.895431 58,62 L 58,62 z" />
      </g>
      <g
         transform="matrix(0.213756,0,0,0.213756,27.888283,24.967965)"
         id="g168791">
        <rect
           y="57.359127"
           x="24.102608"
           width="80.513039"
           style="fill:url(#linearGradient2601);fill-opacity:1;fill-rule:evenodd;stroke:none;stroke-width:0.625;stroke-linecap:round;stroke-linejoin:round;stroke-miterlimit:4;stroke-dashoffset:0;stroke-opacity:1"
           ry="0.5"
           rx="0.49999997"
           id="rect1941"
           height="66.259109" />
        <rect
           y="57.359127"
           x="24.102608"
           width="80.513039"
           style="opacity:0.02999998;fill:url(#linearGradient2603);fill-opacity:1;fill-rule:evenodd;stroke:none;stroke-width:0.625;stroke-linecap:round;stroke-linejoin:round;stroke-miterlimit:4;stroke-dashoffset:0;stroke-opacity:1"
           ry="0.5"
           rx="0.49999997"
           id="rect2709"
           height="66.259109" />
        <rect
           y="57.359127"
           x="24.102608"
           width="80.513039"
           style="opacity:0.02999998;fill:url(#linearGradient2605);fill-opacity:1;fill-rule:evenodd;stroke:none;stroke-width:0.625;stroke-linecap:round;stroke-linejoin:round;stroke-miterlimit:4;stroke-dashoffset:0;stroke-opacity:1"
           ry="0.5"
           rx="0.49999997"
           id="rect2734"
           height="66.259109" />
        <rect
           y="57.359127"
           x="24.102608"
           width="80.513039"
           style="opacity:0.02999998;fill:url(#linearGradient2607);fill-opacity:1;fill-rule:evenodd;stroke:none;stroke-width:0.625;stroke-linecap:round;stroke-linejoin:round;stroke-miterlimit:4;stroke-dashoffset:0;stroke-opacity:1"
           ry="0.5"
           rx="0.49999997"
           id="rect2738"
           height="66.259109" />
        <path
           style="opacity:0.5;fill:#ffffff;fill-opacity:1;fill-rule:evenodd;stroke:none;stroke-width:0.625;stroke-linecap:round;stroke-linejoin:round;stroke-miterlimit:4;stroke-dashoffset:0;stroke-opacity:1"
           id="path2727"
           d="M 26.61864,57.359126 C 28.42873,59.480775 44.763964,61.14536 65.274048,61.14536 C 85.50262,61.14536 101.5673,59.498208 103.75791,57.418285 C 103.72708,57.415066 103.7324,57.359126 103.70072,57.359126 L 26.61864,57.359126 z" />
        <g
           transform="matrix(1.719497,0,0,1.981605,4.420926,1.487591)"
           id="g2798">
          <path
             style="opacity:0.40277776;fill:url(#radialGradient2609);fill-opacity:1;fill-rule:evenodd;stroke:none;stroke-width:1px;stroke-linecap:butt;stroke-linejoin:miter;stroke-opacity:1"
             id="path2778"
             d="M 13.971247,30.766863 C 13.531705,33.396386 13.04037,50.075728 14.667687,53.646863 C 16.25955,57.140196 16.060569,36.980196 19.940738,33.806863 C 23.861905,30.600002 14.385794,28.286863 13.971247,30.766863 z" />
          <path
             style="opacity:0.3;fill:url(#radialGradient2611);fill-opacity:1;fill-rule:evenodd;stroke:none;stroke-width:1px;stroke-linecap:butt;stroke-linejoin:miter;stroke-opacity:1"
             id="path2790"
             d="M 13.728722,30.941568 C 13.221493,34.011307 12.654496,53.482989 14.53241,57.651979 C 16.36941,61.730142 16.139785,38.195094 20.617473,34.490503 C 25.142472,30.746772 14.207108,28.046383 13.728722,30.941568 z" />
          <path
             style="opacity:0.2;fill:url(#radialGradient2613);fill-opacity:1;fill-rule:evenodd;stroke:none;stroke-width:1px;stroke-linecap:butt;stroke-linejoin:miter;stroke-opacity:1"
             id="path2794"
             d="M 13.231668,31.092008 C 12.601372,34.540822 11.896808,56.41702 14.23035,61.100829 C 16.513051,65.682595 16.227713,39.241256 21.791801,35.079193 C 27.414678,30.873157 13.826121,27.839303 13.231668,31.092008 z" />
        </g>
        <g
           transform="matrix(-1.719497,0,0,1.981605,124.2973,1.487605)"
           id="g2803">
          <path
             style="opacity:0.40277776;fill:url(#radialGradient2615);fill-opacity:1;fill-rule:evenodd;stroke:none;stroke-width:1px;stroke-linecap:butt;stroke-linejoin:miter;stroke-opacity:1"
             id="path2805"
             d="M 13.971247,30.766863 C 13.531705,33.396386 13.04037,50.075728 14.667687,53.646863 C 16.25955,57.140196 16.060569,36.980196 19.940738,33.806863 C 23.861905,30.600002 14.385794,28.286863 13.971247,30.766863 z" />
          <path
             style="opacity:0.3;fill:url(#radialGradient2617);fill-opacity:1;fill-rule:evenodd;stroke:none;stroke-width:1px;stroke-linecap:butt;stroke-linejoin:miter;stroke-opacity:1"
             id="path2807"
             d="M 13.728722,30.941568 C 13.221493,34.011307 12.654496,53.482989 14.53241,57.651979 C 16.36941,61.730142 16.139785,38.195094 20.617473,34.490503 C 25.142472,30.746772 14.207108,28.046383 13.728722,30.941568 z" />
          <path
             style="opacity:0.2;fill:url(#radialGradient2619);fill-opacity:1;fill-rule:evenodd;stroke:none;stroke-width:1px;stroke-linecap:butt;stroke-linejoin:miter;stroke-opacity:1"
             id="path2809"
             d="M 13.231668,31.092008 C 12.601372,34.540822 11.896808,56.41702 14.23035,61.100829 C 16.513051,65.682595 16.227713,39.241256 21.791801,35.079193 C 27.414678,30.873157 13.826121,27.839303 13.231668,31.092008 z" />
        </g>
        <path
           style="opacity:0.24999994;fill:url(#linearGradient2621);fill-opacity:1;fill-rule:evenodd;stroke:none;stroke-width:0.625;stroke-linecap:round;stroke-linejoin:round;stroke-miterlimit:4;stroke-dashoffset:0;stroke-opacity:1"
           id="rect3077"
           d="M 103.11564,114.72466 L 103.11564,122.61182 C 103.11564,123.16937 102.6835,123.61823 102.14673,123.61823 L 26.57152,123.61823 C 26.034743,123.61823 25.602607,123.16937 25.602607,122.61182 L 25.602607,94.596405 C 25.602607,124.11291 103.11564,73.717412 103.11564,114.72466 z" />
        <path
           style="opacity:0.5;fill:#000000;fill-opacity:1;fill-rule:evenodd;stroke:none;stroke-width:0.625;stroke-linecap:round;stroke-linejoin:round;stroke-miterlimit:4;stroke-dashoffset:0;stroke-opacity:1"
           id="path2768"
           d="M 25.646537,123.61824 C 27.456628,121.49659 43.791857,119.832 64.301941,119.832 C 84.530518,119.832 100.5952,121.47915 102.7858,123.55908 C 102.75497,123.5623 102.7603,123.61824 102.72862,123.61824 L 25.646537,123.61824 z" />
      </g>
    </g>
  </g>
</svg>
