<?xml version="1.0" encoding="UTF-8" standalone="no"?>
<!-- Created with Inkscape (http://www.inkscape.org/) -->

<svg
   xmlns:dc="http://purl.org/dc/elements/1.1/"
   xmlns:cc="http://creativecommons.org/ns#"
   xmlns:rdf="http://www.w3.org/1999/02/22-rdf-syntax-ns#"
   xmlns:svg="http://www.w3.org/2000/svg"
   xmlns="http://www.w3.org/2000/svg"
   xmlns:xlink="http://www.w3.org/1999/xlink"
   xmlns:sodipodi="http://sodipodi.sourceforge.net/DTD/sodipodi-0.dtd"
   xmlns:inkscape="http://www.inkscape.org/namespaces/inkscape"
   width="200"
   height="200"
   id="svg2736"
   sodipodi:version="0.32"
   inkscape:version="0.48.3.1 r9886"
   version="1.0"
   sodipodi:docname="note.svg"
   inkscape:output_extension="org.inkscape.output.svg.inkscape">
  <defs
     id="defs2738">
    <linearGradient
       id="linearGradient3144">
      <stop
         style="stop-color:white;stop-opacity:0.37168142;"
         offset="0"
         id="stop3146" />
      <stop
         style="stop-color:white;stop-opacity:0;"
         offset="1"
         id="stop3148" />
    </linearGradient>
    <linearGradient
       inkscape:collect="always"
       xlink:href="#linearGradient3144"
       id="linearGradient2568"
       gradientUnits="userSpaceOnUse"
       gradientTransform="matrix(0.948476,0,0,0.921117,0.653706,0.208969)"
       x1="15.750581"
       y1="10.930093"
       x2="21.490063"
       y2="19.078604" />
    <linearGradient
       inkscape:collect="always"
       id="linearGradient5300">
      <stop
         style="stop-color:white;stop-opacity:1"
         offset="0"
         id="stop5302" />
      <stop
         style="stop-color:white;stop-opacity:0.43529412"
         offset="1"
         id="stop5304" />
    </linearGradient>
    <linearGradient
       inkscape:collect="always"
       xlink:href="#linearGradient5300"
       id="linearGradient2566"
       gradientUnits="userSpaceOnUse"
       gradientTransform="matrix(1.049982,0,0,0.871128,-24.12306,10.7764)"
       x1="35.514278"
       y1="-0.81652474"
       x2="40.456577"
       y2="31.254026" />
    <linearGradient
       id="linearGradient5175"
       inkscape:collect="always">
      <stop
         id="stop5177"
         offset="0"
         style="stop-color:#840000;stop-opacity:1" />
      <stop
         id="stop5179"
         offset="1"
         style="stop-color:#840000;stop-opacity:0" />
    </linearGradient>
    <linearGradient
       inkscape:collect="always"
       xlink:href="#linearGradient5175"
       id="linearGradient2564"
       gradientUnits="userSpaceOnUse"
       gradientTransform="matrix(0.975635,0,0,0.979534,0.37688,0.0646705)"
       x1="6.6535807"
       y1="22.81179"
       x2="19.084003"
       y2="25.250847" />
    <linearGradient
       id="linearGradient5224"
       inkscape:collect="always">
      <stop
         id="stop5226"
         offset="0"
         style="stop-color:white;stop-opacity:1;" />
      <stop
         id="stop5228"
         offset="1"
         style="stop-color:white;stop-opacity:0;" />
    </linearGradient>
    <linearGradient
       inkscape:collect="always"
       xlink:href="#linearGradient5224"
       id="linearGradient2562"
       gradientUnits="userSpaceOnUse"
       gradientTransform="matrix(1.011567,0,0,0.90547,-26.2119,7.087393)"
       x1="44.27161"
       y1="22.960079"
       x2="44.913944"
       y2="32.249214" />
    <linearGradient
       id="linearGradient6068">
      <stop
         id="stop6070"
         offset="0"
         style="stop-color:#bf0000;stop-opacity:1" />
      <stop
         id="stop6072"
         offset="1"
         style="stop-color:#ae0000;stop-opacity:1;" />
    </linearGradient>
    <linearGradient
       inkscape:collect="always"
       xlink:href="#linearGradient6068"
       id="linearGradient2560"
       gradientUnits="userSpaceOnUse"
       gradientTransform="matrix(0.999847,0,0,0.965306,0.00258217,0.160266)"
       x1="13.477225"
       y1="9.2547073"
       x2="21.564571"
       y2="40.254692" />
    <linearGradient
       id="linearGradient6092"
       inkscape:collect="always">
      <stop
         id="stop6094"
         offset="0"
         style="stop-color:white;stop-opacity:1" />
      <stop
         id="stop6096"
         offset="1"
         style="stop-color:#79796d;stop-opacity:1" />
    </linearGradient>
    <radialGradient
       inkscape:collect="always"
       xlink:href="#linearGradient6092"
       id="radialGradient2558"
       gradientUnits="userSpaceOnUse"
       gradientTransform="matrix(1.333333,0,0,4.562108,-5.433799,-149.7912)"
       cx="16.301373"
       cy="42.006283"
       fx="16.301373"
       fy="42.006283"
       r="2" />
    <linearGradient
       id="linearGradient5129"
       inkscape:collect="always">
      <stop
         id="stop5131"
         offset="0"
         style="stop-color:black;stop-opacity:0.48351648" />
      <stop
         id="stop3005"
         offset="1"
         style="stop-color:black;stop-opacity:0;" />
    </linearGradient>
    <radialGradient
       inkscape:collect="always"
       xlink:href="#linearGradient5129"
       id="radialGradient2556"
       gradientUnits="userSpaceOnUse"
       gradientTransform="matrix(1,0,0,0.385115,0,24.6904)"
       cx="10.919224"
       cy="40.154495"
       fx="10.919224"
       fy="40.154495"
       r="7.9555426" />
    <linearGradient
       inkscape:collect="always"
       id="linearGradient5131">
      <stop
         style="stop-color:white;stop-opacity:1;"
         offset="0"
         id="stop5133" />
      <stop
         style="stop-color:white;stop-opacity:0.44705883"
         offset="1"
         id="stop5135" />
    </linearGradient>
    <linearGradient
       inkscape:collect="always"
       xlink:href="#linearGradient5131"
       id="linearGradient2554"
       gradientUnits="userSpaceOnUse"
       gradientTransform="matrix(4.2808533,-0.00482228,-0.00118979,3.6923291,-15.228554,-1.4365826)"
       x1="16.374376"
       y1="4.2241836"
       x2="42.454079"
       y2="60.704338" />
    <linearGradient
       id="linearGradient5139">
      <stop
         style="stop-color:#fef080;stop-opacity:1"
         offset="0"
         id="stop5141" />
      <stop
         style="stop-color:#e1ce37;stop-opacity:1"
         offset="1"
         id="stop5143" />
    </linearGradient>
    <linearGradient
       inkscape:collect="always"
       xlink:href="#linearGradient5139"
       id="linearGradient2552"
       gradientUnits="userSpaceOnUse"
       gradientTransform="matrix(4.2146948,-0.00378859,-9.3833551e-4,3.6169233,-12.81437,0.67420368)"
       x1="25.213207"
       y1="16.421766"
       x2="30.698416"
       y2="45.58992" />
    <linearGradient
       inkscape:collect="always"
       id="linearGradient5388">
      <stop
         style="stop-color:black;stop-opacity:1;"
         offset="0"
         id="stop5390" />
      <stop
         style="stop-color:black;stop-opacity:0;"
         offset="1"
         id="stop5392" />
    </linearGradient>
    <radialGradient
       inkscape:collect="always"
       xlink:href="#linearGradient5388"
       id="radialGradient2550"
       gradientUnits="userSpaceOnUse"
       gradientTransform="matrix(2.0471031,0.00146554,4.1982805e-5,0.19032071,-105.1413,123.97881)"
       cx="101.20975"
       cy="344.29547"
       fx="101.20975"
       fy="344.29547"
       r="96.999957" />
    <inkscape:perspective
       sodipodi:type="inkscape:persp3d"
       inkscape:vp_x="0 : 526.18109 : 1"
       inkscape:vp_y="0 : 1000 : 0"
       inkscape:vp_z="744.09448 : 526.18109 : 1"
       inkscape:persp3d-origin="372.04724 : 350.78739 : 1"
       id="perspective2744" />
  </defs>
  <sodipodi:namedview
     id="base"
     pagecolor="#ffffff"
     bordercolor="#666666"
     borderopacity="1.0"
     inkscape:pageopacity="0.0"
     inkscape:pageshadow="2"
     inkscape:zoom="2.8"
     inkscape:cx="121.49166"
     inkscape:cy="98.267599"
     inkscape:document-units="px"
     inkscape:current-layer="layer1"
     showgrid="false"
     inkscape:window-width="1174"
     inkscape:window-height="834"
     inkscape:window-x="65"
     inkscape:window-y="24"
     inkscape:window-maximized="0" />
  <metadata
     id="metadata2741">
    <rdf:RDF>
      <cc:Work
         rdf:about="">
        <dc:format>image/svg+xml</dc:format>
        <dc:type
           rdf:resource="http://purl.org/dc/dcmitype/StillImage" />
      </cc:Work>
    </rdf:RDF>
  </metadata>
  <g
     inkscape:label="Calque 1"
     inkscape:groupmode="layer"
     id="layer1">
    <g
       transform="matrix(1.1641301,0.11701534,-0.13085362,1.2080595,-8.7427788,-35.618933)"
       id="g2746">
      <g
         transform="matrix(1.1341203,-0.1640015,0.1640015,1.1341203,-12.261381,30.758192)"
         id="g2536">
        <g
           id="g3101"
           transform="matrix(0.7377564,-0.00229412,0.00229412,0.7377564,12.537577,-5.2732756)"
           inkscape:transform-center-x="38.447325"
           inkscape:transform-center-y="-16.382391">
          <path
             sodipodi:nodetypes="ccccccccc"
             id="path5386"
             d="m 12.850003,48.872395 184.129707,0.131816 0.74047,57.540129 c 0.33135,27.18922 4.67383,72.40182 8.75504,97.88974 -27.29201,-0.24001 -60.40556,2.82273 -87.69756,2.58273 -21.363999,1.12771 -43.833799,1.24988 -67.138074,0.61331 L 7.7903681,206.93736 c 2.1350116,-20.72155 4.7649609,-40.78138 5.0809349,-61.50423 l -0.02127,-96.560735 z"
             style="opacity:0.5;fill:url(#radialGradient2550);fill-opacity:1;stroke:none"
             inkscape:connector-curvature="0" />
          <path
             sodipodi:nodetypes="ccccccccc"
             id="rect1872"
             d="m 11.224473,25.882475 183.578507,-0.165019 0.70966,61.481414 c 0.31684,29.05163 4.62386,77.35485 8.68016,104.58239 -27.21022,-0.21111 -60.22616,3.11648 -87.43635,2.90537 -21.300614,1.24045 -43.703217,1.40836 -66.937421,0.76686 L 6.1014073,194.7861 c 2.1389203,-22.14488 4.7709697,-43.58354 5.0962987,-65.72681 l 0.02677,-103.176815 z"
             style="fill:url(#linearGradient2552);fill-opacity:1;stroke:#c3a53f;stroke-width:2.03623509;stroke-linejoin:round;stroke-miterlimit:4;stroke-opacity:1;stroke-dasharray:none;stroke-dashoffset:0"
             inkscape:connector-curvature="0" />
          <path
             sodipodi:nodetypes="ccccccccc"
             id="path5129"
             d="m 13.133561,27.877271 178.745899,-0.201353 0.68711,60.166212 c 0.30667,28.43016 4.49728,75.69929 8.44512,102.34355 -26.4939,-0.2007 -58.64093,3.0629 -85.13481,2.86221 -20.739983,1.21855 -42.552857,1.3877 -65.175391,0.765 L 8.1347576,193.16926 c 2.0840044,-21.67168 4.6481134,-42.65234 4.9662684,-64.32204 l 0.03253,-100.969949 z"
             style="opacity:0.5;fill:none;stroke:url(#linearGradient2554);stroke-width:2.03344035;stroke-linejoin:round;stroke-miterlimit:4;stroke-opacity:1;stroke-dasharray:none;stroke-dashoffset:0"
             inkscape:connector-curvature="0" />
        </g>
        <g
           transform="matrix(0.7377564,-0.00229412,0.00229412,0.7377564,76.916806,-2.2102065)"
           id="g3080"
           inkscape:label="Ebene 1"
           inkscape:transform-center-x="39.171039"
           inkscape:transform-center-y="-78.646786">
          <path
             sodipodi:open="true"
             sodipodi:end="6.2930189"
             sodipodi:start="0.46351537"
             transform="matrix(0.94274,0,0,0.815983,6.007393,16.77101)"
             d="m 18.035359,41.524144 c -1.964294,1.513372 -6.74247,2.12699 -10.6723556,1.370554 -3.9298858,-0.756436 -5.5233133,-2.596479 -3.55902,-4.109851 1.9642933,-1.513372 6.7424696,-2.12699 10.6723556,-1.370554 2.720787,0.523705 4.427913,1.599033 4.398002,2.770326"
             sodipodi:ry="3.0634372"
             sodipodi:rx="7.9550548"
             sodipodi:cy="40.154495"
             sodipodi:cx="10.919671"
             id="path5705"
             style="opacity:0.48128345;fill:url(#radialGradient2556);fill-opacity:1;stroke:none"
             sodipodi:type="arc" />
          <path
             sodipodi:nodetypes="czzzz"
             id="path4281"
             d="m 18.301367,37.662712 c 0,4.763268 -1.333334,12.814754 -2.000001,12.814754 -0.666666,0 -2,-8.051486 -2,-12.814754 0,-4.763267 0.16,-4.443461 2,-4.443461 1.84,0 2.000001,-0.319806 2.000001,4.443461 z"
             style="fill:url(#radialGradient2558);fill-opacity:1;fill-rule:nonzero;stroke:#363631;stroke-width:1;stroke-linecap:round;stroke-linejoin:round;stroke-miterlimit:4;stroke-opacity:1;stroke-dasharray:none"
             inkscape:connector-curvature="0" />
          <path
             sodipodi:nodetypes="csccsssccsc"
             id="path5149"
             d="m 16.613922,9.5765533 c -4.415335,0 -8.1373577,1.6131117 -8.1373577,3.5088247 0,1.046045 0.8884264,2.99911 2.6082987,4.389175 L 9.802458,28.087404 c -2.1488719,1.895336 -3.499468,4.33288 -3.499468,5.758932 0,2.585065 4.885502,4.689416 10.404668,4.689415 5.519166,0 9.592291,-2.104349 9.592292,-4.689415 0,-1.440076 -1.376408,-3.910642 -3.561958,-5.81378 l -1.219934,-10.99692 c 1.719872,-1.390066 2.608297,-2.904213 2.608297,-3.950258 1e-6,-1.895713 -3.0971,-3.5088247 -7.512433,-3.5088247 z"
             style="fill:url(#linearGradient2560);fill-opacity:1;fill-rule:nonzero;stroke:#620000;stroke-width:1;stroke-linecap:round;stroke-linejoin:round;stroke-miterlimit:4;stroke-opacity:1;stroke-dasharray:none"
             inkscape:connector-curvature="0" />
          <path
             sodipodi:nodetypes="cssss"
             id="path5221"
             d="m 22.420417,33.111594 c 0,1.901611 -1.724173,1.923803 -3.848601,1.923803 -2.124428,0 -3.148855,-1.095941 -3.148855,-2.997552 0,-1.901608 1.524246,-2.371194 3.148855,-2.371194 1.324719,0 3.848601,1.543334 3.848601,3.444943 z"
             style="opacity:0.55614971;fill:url(#linearGradient2562);fill-opacity:1;fill-rule:nonzero;stroke:none"
             inkscape:connector-curvature="0" />
          <path
             sodipodi:nodetypes="csccscccsc"
             id="path5173"
             d="m 14.817606,15.98669 c -3.560418,0 -4.8781729,-3.578655 -4.8781729,-1.959066 0,0.934669 0.8696559,1.575036 2.3679459,2.782585 l -1.15179,12.055563 c -1.9196888,1.743142 -3.1674253,4.064775 -3.1674253,5.412119 0,1.299458 3.9025393,3.258524 7.8050773,3.258524 8.780713,0 -11.7076163,-2.421733 0,-8.815797 l 0,-10.774861 c 2.926904,0 4.878174,-1.034787 4.878174,-1.959067 2e-6,-1.61959 -2.293389,0 -5.853809,0 z"
             style="fill:url(#linearGradient2564);fill-opacity:1;fill-rule:nonzero;stroke:none"
             inkscape:connector-curvature="0" />
          <path
             sodipodi:nodetypes="csccsssccsc"
             id="path5177"
             d="m 16.596667,10.531415 c -4.057148,0 -7.1523504,1.26784 -7.1523504,2.576509 0,0.888554 1.2856974,3.053563 2.5713924,3.926009 l -1.285695,11.341803 c -2.1428277,1.74489 -3.4285292,3.953807 -3.4285292,5.234677 0,2.223991 4.1772922,3.926004 9.3936202,3.926004 5.216326,0 8.606113,-1.702011 8.606112,-3.926004 0,-1.277411 -1.285685,-3.489787 -3.428512,-5.234677 L 20.58701,16.597709 c 1.714261,-1.30867 2.571391,-2.611105 2.571391,-3.489785 0,-1.308669 -2.504591,-2.576509 -6.561734,-2.576509 z"
             style="fill:none;stroke:url(#linearGradient2566);stroke-width:1;stroke-linecap:round;stroke-linejoin:round;stroke-miterlimit:4;stroke-opacity:0.38461537;stroke-dasharray:none"
             inkscape:connector-curvature="0" />
          <path
             sodipodi:nodetypes="czsssc"
             id="path6080"
             d="m 16.806417,11.036415 c -5.005045,0 -6.505045,1.420832 -6.505045,2.210416 0,0.789584 0.844546,1.096215 2.438219,1.63979 2.363414,0.806122 5.343302,0.792225 7.691006,-0.01801 1.568186,-0.541213 2.370775,-1.040289 2.370775,-1.621776 1e-6,-1.018921 -2.574171,-2.210416 -5.994955,-2.210416 z"
             style="fill:url(#linearGradient2568);fill-opacity:1;fill-rule:nonzero;stroke:none"
             inkscape:connector-curvature="0" />
        </g>
      </g>
    </g>
  </g>
</svg>
