<?xml version="1.0" encoding="UTF-8" standalone="no"?>
<!-- Created with Inkscape (http://www.inkscape.org/) -->

<svg
   xmlns:dc="http://purl.org/dc/elements/1.1/"
   xmlns:cc="http://creativecommons.org/ns#"
   xmlns:rdf="http://www.w3.org/1999/02/22-rdf-syntax-ns#"
   xmlns:svg="http://www.w3.org/2000/svg"
   xmlns="http://www.w3.org/2000/svg"
   xmlns:xlink="http://www.w3.org/1999/xlink"
   xmlns:sodipodi="http://sodipodi.sourceforge.net/DTD/sodipodi-0.dtd"
   xmlns:inkscape="http://www.inkscape.org/namespaces/inkscape"
   version="1.1"
   width="48"
   height="48"
   id="svg15137"
   inkscape:version="0.47 r22583"
   sodipodi:docname="icon.svg"
   inkscape:export-filename="/opt/cairo-dock_bzr/cairo-dock-plug-ins/weblets/data/icon.png"
   inkscape:export-xdpi="120"
   inkscape:export-ydpi="120">
  <metadata
     id="metadata39">
    <rdf:RDF>
      <cc:Work
         rdf:about="">
        <dc:format>image/svg+xml</dc:format>
        <dc:type
           rdf:resource="http://purl.org/dc/dcmitype/StillImage" />
        <dc:title></dc:title>
      </cc:Work>
    </rdf:RDF>
  </metadata>
  <sodipodi:namedview
     pagecolor="#ffffff"
     bordercolor="#666666"
     borderopacity="1"
     objecttolerance="10"
     gridtolerance="10"
     guidetolerance="10"
     inkscape:pageopacity="0"
     inkscape:pageshadow="2"
     inkscape:window-width="801"
     inkscape:window-height="619"
     id="namedview37"
     showgrid="false"
     inkscape:zoom="4.9166667"
     inkscape:cx="24"
     inkscape:cy="36.263277"
     inkscape:window-x="0"
     inkscape:window-y="24"
     inkscape:window-maximized="0"
     inkscape:current-layer="svg15137" />
  <defs
     id="defs15139">
    <linearGradient
       id="linearGradient8838">
      <stop
         id="stop8840"
         style="stop-color:black;stop-opacity:1"
         offset="0" />
      <stop
         id="stop8842"
         style="stop-color:black;stop-opacity:0"
         offset="1" />
    </linearGradient>
    <radialGradient
       cx="62.625"
       cy="4.625"
       r="10.625"
       fx="62.625"
       fy="4.625"
       id="radialGradient2612"
       xlink:href="#linearGradient8838"
       gradientUnits="userSpaceOnUse"
       gradientTransform="matrix(1,0,0,0.341176,0,3.047059)" />
    <linearGradient
       id="linearGradient4873">
      <stop
         id="stop4875"
         style="stop-color:white;stop-opacity:1"
         offset="0" />
      <stop
         id="stop4877"
         style="stop-color:white;stop-opacity:0"
         offset="1" />
    </linearGradient>
    <linearGradient
       x1="62.200409"
       y1="-12.489107"
       x2="62.200409"
       y2="0.24325986"
       id="linearGradient15133"
       xlink:href="#linearGradient4873"
       gradientUnits="userSpaceOnUse"
       gradientTransform="matrix(2.149872,0,0,2.149872,-110.11554,31.935342)" />
    <linearGradient
       id="linearGradient8740-304-201-142-419-164">
      <stop
         id="stop14118"
         style="stop-color:#9e9e9e;stop-opacity:1"
         offset="0" />
      <stop
         id="stop14120"
         style="stop-color:#9e9e9e;stop-opacity:0"
         offset="1" />
    </linearGradient>
    <linearGradient
       id="linearGradient12067-267-678-820-366-564">
      <stop
         id="stop14112"
         style="stop-color:#557695;stop-opacity:1"
         offset="0" />
      <stop
         id="stop14114"
         style="stop-color:#15395c;stop-opacity:1"
         offset="1" />
    </linearGradient>
    <linearGradient
       id="linearGradient8647">
      <stop
         id="stop8649"
         style="stop-color:#8fb1dc;stop-opacity:1"
         offset="0" />
      <stop
         id="stop8651"
         style="stop-color:#3465a4;stop-opacity:1"
         offset="1" />
    </linearGradient>
    <radialGradient
       cx="62.200352"
       cy="-8.7256308"
       r="9.7552834"
       fx="62.200352"
       fy="-8.7256308"
       id="radialGradient15127"
       xlink:href="#linearGradient8647"
       gradientUnits="userSpaceOnUse"
       gradientTransform="matrix(2.4129174,0,0,2.4129712,-126.47708,34.230797)" />
    <linearGradient
       id="linearGradient4845">
      <stop
         id="stop4847"
         style="stop-color:white;stop-opacity:1"
         offset="0" />
      <stop
         id="stop4849"
         style="stop-color:#b6b6b6;stop-opacity:1"
         offset="1" />
    </linearGradient>
    <radialGradient
       cx="17.81411"
       cy="24.149399"
       r="9.125"
       fx="17.81411"
       fy="24.149399"
       id="radialGradient2418"
       xlink:href="#linearGradient4845"
       gradientUnits="userSpaceOnUse"
       gradientTransform="matrix(-2.643979,0,2.93653e-8,2.534421,78.72514,-37.986139)" />
    <radialGradient
       cx="23.859564"
       cy="13.066691"
       r="18.09778"
       fx="23.859564"
       fy="13.066691"
       id="radialGradient5145"
       xlink:href="#linearGradient12067-267-678-820-366-564"
       gradientUnits="userSpaceOnUse"
       gradientTransform="matrix(-1.5425322,0,0,-0.8455253,60.718461,23.829235)" />
    <radialGradient
       cx="62.225391"
       cy="-3.4420195"
       r="10.081216"
       fx="62.225391"
       fy="-3.4420195"
       id="radialGradient5147"
       xlink:href="#linearGradient8740-304-201-142-419-164"
       gradientUnits="userSpaceOnUse"
       gradientTransform="matrix(1.103501,0,0,1.0265131,-4.1555224,-1.8158014)" />
    <radialGradient
       inkscape:collect="always"
       xlink:href="#linearGradient8838"
       id="radialGradient2844"
       gradientUnits="userSpaceOnUse"
       gradientTransform="matrix(1,0,0,0.341176,0,3.047059)"
       cx="62.625"
       cy="4.625"
       fx="62.625"
       fy="4.625"
       r="10.625" />
    <radialGradient
       inkscape:collect="always"
       xlink:href="#linearGradient8647"
       id="radialGradient2846"
       gradientUnits="userSpaceOnUse"
       gradientTransform="matrix(2.4129174,0,0,2.4129712,-126.47708,34.230797)"
       cx="62.200352"
       cy="-8.7256308"
       fx="62.200352"
       fy="-8.7256308"
       r="9.7552834" />
    <radialGradient
       inkscape:collect="always"
       xlink:href="#linearGradient12067-267-678-820-366-564"
       id="radialGradient2848"
       gradientUnits="userSpaceOnUse"
       gradientTransform="matrix(-1.5425322,0,0,-0.8455253,60.718461,23.829235)"
       cx="23.859564"
       cy="13.066691"
       fx="23.859564"
       fy="13.066691"
       r="18.09778" />
    <radialGradient
       inkscape:collect="always"
       xlink:href="#linearGradient8740-304-201-142-419-164"
       id="radialGradient2850"
       gradientUnits="userSpaceOnUse"
       gradientTransform="matrix(1.103501,0,0,1.0265131,-4.1555224,-1.8158014)"
       cx="62.225391"
       cy="-3.4420195"
       fx="62.225391"
       fy="-3.4420195"
       r="10.081216" />
    <linearGradient
       inkscape:collect="always"
       xlink:href="#linearGradient4873"
       id="linearGradient2852"
       gradientUnits="userSpaceOnUse"
       gradientTransform="matrix(2.149872,0,0,2.149872,-110.11554,31.935342)"
       x1="62.200409"
       y1="-12.489107"
       x2="62.200409"
       y2="0.24325986" />
    <radialGradient
       inkscape:collect="always"
       xlink:href="#linearGradient4845"
       id="radialGradient2854"
       gradientUnits="userSpaceOnUse"
       gradientTransform="matrix(-2.643979,0,2.93653e-8,2.534421,78.72514,-37.986139)"
       cx="17.81411"
       cy="24.149399"
       fx="17.81411"
       fy="24.149399"
       r="9.125" />
    <radialGradient
       inkscape:collect="always"
       xlink:href="#linearGradient8838"
       id="radialGradient2864"
       gradientUnits="userSpaceOnUse"
       gradientTransform="matrix(2.1647059,0,0,0.87466073,-111.56471,34.661405)"
       cx="62.625"
       cy="4.625"
       fx="62.625"
       fy="4.625"
       r="10.625" />
    <radialGradient
       inkscape:collect="always"
       xlink:href="#linearGradient4845"
       id="radialGradient2866"
       gradientUnits="userSpaceOnUse"
       gradientTransform="matrix(-2.643979,0,2.93653e-8,2.534421,78.72514,-37.986139)"
       cx="17.81411"
       cy="24.149399"
       fx="17.81411"
       fy="24.149399"
       r="9.125" />
    <linearGradient
       id="linearGradient2490-182-124">
      <stop
         id="stop2788"
         style="stop-color:#1f4b6a;stop-opacity:1"
         offset="0" />
      <stop
         id="stop2790"
         style="stop-color:#4083c2;stop-opacity:1"
         offset="1" />
    </linearGradient>
    <linearGradient
       id="linearGradient3242-187-536">
      <stop
         id="stop2778"
         style="stop-color:#8badea;stop-opacity:1"
         offset="0" />
      <stop
         id="stop2780"
         style="stop-color:#6396cd;stop-opacity:1"
         offset="0.26238" />
      <stop
         id="stop2782"
         style="stop-color:#3b7caf;stop-opacity:1"
         offset="0.66093999" />
      <stop
         id="stop2784-2"
         style="stop-color:#194c70;stop-opacity:1"
         offset="1" />
    </linearGradient>
    <radialGradient
       gradientTransform="matrix(2.2554569,0,-2.1857407e-8,2.0564463,-32.641879,-17.341228)"
       gradientUnits="userSpaceOnUse"
       xlink:href="#linearGradient2490-182-124"
       id="radialGradient6332"
       fy="15.240479"
       fx="26"
       r="15.074549"
       cy="15.240479"
       cx="26" />
    <radialGradient
       gradientTransform="matrix(1.9524671,-0.05018139,0.03650944,1.4214826,-20.408334,-5.9089096)"
       gradientUnits="userSpaceOnUse"
       xlink:href="#linearGradient3242-187-536"
       id="radialGradient5551"
       fy="12.610249"
       fx="20.038782"
       r="22.463524"
       cy="12.610249"
       cx="20.038782" />
    <radialGradient
       gradientTransform="matrix(1.0099925,-0.1119962,0.05668752,0.5112133,-5.8375646,1.7934718)"
       gradientUnits="userSpaceOnUse"
       xlink:href="#linearGradient3156"
       id="radialGradient5540"
       fy="10.874998"
       fx="22.125"
       r="20"
       cy="10.874998"
       cx="22.125" />
    <radialGradient
       gradientTransform="matrix(1.3571044,0.01021839,-0.00631345,0.8384895,-10.874695,1.3057951)"
       gradientUnits="userSpaceOnUse"
       xlink:href="#linearGradient3156"
       id="radialGradient5537"
       fy="4.7612267"
       fx="22.944935"
       r="14"
       cy="11.222695"
       cx="22.944935" />
    <linearGradient
       gradientUnits="userSpaceOnUse"
       xlink:href="#linearGradient3156"
       id="linearGradient5751"
       y2="24.653727"
       x2="29.724815"
       y1="55.647495"
       x1="30.501778" />
    <linearGradient
       gradientUnits="userSpaceOnUse"
       xlink:href="#linearGradient3156"
       id="linearGradient5749"
       y2="20.663898"
       x2="28.290144"
       y1="-2.3103411"
       x1="28.220636" />
    <linearGradient
       gradientUnits="userSpaceOnUse"
       xlink:href="#linearGradient3156"
       id="linearGradient5747"
       y2="20.663898"
       x2="28.290144"
       y1="-0.81503254"
       x1="27.888655" />
    <linearGradient
       gradientUnits="userSpaceOnUse"
       xlink:href="#linearGradient3156"
       id="linearGradient5745"
       y2="20.663898"
       x2="28.290144"
       y1="61.852856"
       x1="24.335312" />
    <radialGradient
       gradientTransform="matrix(1,0,0,0.341176,0,3.047059)"
       gradientUnits="userSpaceOnUse"
       xlink:href="#linearGradient8838-6"
       id="radialGradient5729"
       fy="4.625"
       fx="62.625"
       r="10.625"
       cy="4.625"
       cx="62.625" />
    <linearGradient
       id="linearGradient8838-6">
      <stop
         offset="0"
         style="stop-color:black;stop-opacity:1"
         id="stop8840-4" />
      <stop
         offset="1"
         style="stop-color:black;stop-opacity:0"
         id="stop8842-3" />
    </linearGradient>
    <linearGradient
       id="linearGradient3156">
      <stop
         offset="0"
         style="stop-color:white;stop-opacity:1"
         id="stop3158" />
      <stop
         offset="1"
         style="stop-color:white;stop-opacity:0"
         id="stop3160" />
    </linearGradient>
  </defs>
  <g
     id="layer1"
     transform="translate(0.20339076,-0.29661015)">
    <g
       id="g6334">
      <path
         style="opacity:0.4;fill:url(#radialGradient5729);fill-opacity:1;fill-rule:evenodd;stroke:none;stroke-width:0.49589729;marker:none;visibility:visible;display:inline;overflow:visible"
         id="path8836"
         transform="matrix(1.9262213,0,0,2.1088276,-97.163508,29.602172)"
         d="m 73.25,4.625 c 0,2.0020323 -4.756974,3.6250001 -10.625,3.6250001 C 56.756974,8.2500001 52,6.6270323 52,4.625 52,2.6229677 56.756974,0.99999989 62.625,0.99999989 c 5.868026,0 10.625,1.62296781 10.625,3.62500011 l 0,0 z" />
      <path
         style="fill:url(#radialGradient5551);fill-opacity:1;stroke:#1f4b6a;stroke-width:0.99815506;stroke-linecap:round;stroke-linejoin:round;stroke-miterlimit:4;stroke-opacity:1;stroke-dasharray:none;stroke-dashoffset:0"
         id="path1307"
         d="m 44.500921,23 c 0,11.316512 -9.178384,20.500922 -20.487463,20.500922 -11.30908,0 -20.4874629,-9.18441 -20.4874629,-20.500922 0,-11.316509 9.1783829,-20.5009224 20.4874629,-20.5009224 11.309079,0 20.487463,9.1844134 20.487463,20.5009224 z" />
      <path
         style="fill:url(#radialGradient6332);fill-opacity:1;fill-rule:nonzero;stroke:none"
         id="path6628"
         d="M 43.219099,18.237303 43.03226,18.957842 C 42.479353,18.498341 41.858575,18.11192 41.228194,17.708339 l -1.383757,0.143595 -1.264237,-1.007844 0,1.247283 1.083135,0.577996 0.720932,0.57578 0.963449,-0.768406 c 0.242517,0.320344 0.481723,0.640687 0.722585,0.961031 l 0,0.95998 -1.08479,0.864133 -1.985167,0.961031 -1.503445,1.058044 -0.963448,-0.770739 0.481724,-0.864133 -0.961957,-0.768403 -1.62462,-2.448926 -1.383757,-1.103574 -0.362204,0.287307 0.54314,1.393213 1.021718,0.816269 c 0.583533,1.18798 1.160774,2.323424 1.927064,3.458986 1.188253,0 2.30847,-0.08896 3.48861,-0.193795 l 0,0.672677 -1.443683,2.497372 -1.323998,1.05571 -1.083133,1.634872 c 0,0.896122 0,1.792244 0,2.688249 l 0.362204,1.058043 -0.601411,0.478882 -1.325653,0.576827 -1.383756,0.816269 1.14455,0.912115 -1.564859,0.962198 0.300623,0.622477 -2.347372,1.874314 -1.563204,0 -1.323998,0.576828 -0.843926,0 0,-0.768404 -0.358894,-1.539144 c -0.465667,-0.964534 -0.950536,-1.92218 -1.443684,-2.879825 0,-0.70688 0.05976,-1.406872 0.119686,-2.113636 l 0.603068,-0.95998 -0.843929,-1.153773 0.06142,-1.584674 -1.14455,-0.912115 0.572274,-1.32025 -0.931169,-0.745056 -1.626273,0 -0.541485,-0.432068 -1.62462,0.721124 -0.661169,-0.529547 -1.5051,0.912582 c -1.02172,-0.816853 -2.045094,-1.633121 -3.068303,-2.44939 L 13.07,21.741935 l 1.083137,-1.151436 -0.601412,-0.479933 1.322342,-2.210651 c 1.086444,-0.953092 2.221227,-1.867425 3.369089,-2.785143 l 2.046584,-0.384204 2.285956,-0.191576 1.564859,0.288473 2.226032,1.583506 0.78251,-0.623643 1.081479,-0.09573 2.046584,0.479932 1.564861,0 1.083134,-0.672675 0.481723,-0.479932 -1.08479,-0.479932 -1.80572,-0.09573 c -0.501093,-0.490204 -0.966759,-1.005508 -1.561715,-1.441076 l -0.603065,0.191574 -0.240865,1.249502 -1.083133,-0.864131 -0.239207,-0.962199 -1.20282,-0.670338 -0.48338,0 1.20431,0.959978 -0.481723,0.864134 -0.961959,0.191576 0.60141,-0.864134 -1.084791,-0.383036 -0.960303,-0.768403 -1.807377,0.287304 -0.239206,0.383036 -1.083134,0.481099 -0.601411,1.056877 -1.503445,0.527797 -0.662824,-0.527797 -0.720932,0 0,-1.729435 1.564859,-0.576829 1.20282,0 -0.242517,-0.671507 -0.960303,-0.672675 1.62313,-0.240609 0.902032,-0.719371 0.720931,-0.8653012 1.325654,0 -0.362206,-0.6715064 0.843929,-0.3842031 0,0.7684043 1.804066,0.2873052 1.804067,-1.0557095 0.121174,-0.481099 1.563205,-0.7678216 c -0.56582,0.049618 -1.131638,0.08604 -1.684545,0.1921611 l 0,-0.8651834 0.601409,-0.9605654 -0.601409,0 -1.321678,0.8641345 -0.362207,0.4805153 0.362207,0.673259 -0.603067,1.1514366 -0.96196,-0.3842011 -0.840618,-0.6715065 -1.325651,0.6715065 -0.481725,-1.5362228 2.285956,-1.0562945 0,-0.5768291 L 25.223524,3.6847867 27.509479,3.3 l 1.56486,0.3847867 2.166268,0.9599803 -1.564858,0 1.564858,1.1526075 1.202823,-0.9599824 c 0,0 4.786235,2.4031505 7.258281,5.7266459 2.405352,3.233831 3.412213,6.909414 3.517388,7.673265 z" />
      <path
         style="opacity:0.7;fill:none;stroke:url(#radialGradient5540);stroke-width:0.99647081;stroke-linecap:round;stroke-linejoin:round;stroke-miterlimit:4;stroke-opacity:1;stroke-dasharray:none;stroke-dashoffset:0"
         id="path3164"
         d="m 43.501763,23 c 0,10.764976 -8.736791,19.501764 -19.501765,19.501764 C 13.235024,42.501764 4.4982338,33.764976 4.4982338,23 c 0,-10.764974 8.7367902,-19.5017646 19.5017642,-19.5017646 10.764974,0 19.501765,8.7367906 19.501765,19.5017646 z" />
      <path
         style="opacity:0.5;fill:url(#radialGradient5537);fill-opacity:1;stroke:none"
         id="path3154"
         d="m 42.999998,16.746704 c 0,7.114117 -8.512001,11.02908 -18.999999,11.02908 -10.488002,0 -19.0000006,-3.914963 -19.0000006,-11.02908 C 4.9999984,9.632588 13.511997,2 23.999999,2 34.487997,2 42.999998,9.632588 42.999998,16.746704 z" />
      <path
         style="opacity:0.5;fill:none;stroke:url(#linearGradient5745);stroke-width:1.09524393;stroke-linecap:round;stroke-linejoin:miter;stroke-miterlimit:4;stroke-opacity:1;stroke-dasharray:none;stroke-dashoffset:0"
         id="path2218"
         transform="matrix(1.076193,-0.2912862,0.1952728,0.7143165,-11.182741,14.979481)"
         d="m 46,24.25 c 0,9.664983 -7.835017,17.5 -17.5,17.5 -9.664983,0 -17.5,-7.835017 -17.5,-17.5 0,-9.664983 7.835017,-17.5 17.5,-17.5 9.664983,0 17.5,7.835017 17.5,17.5 l 0,0 z" />
      <path
         style="opacity:0.5;fill:none;stroke:url(#linearGradient5747);stroke-width:1.0902828;stroke-linecap:round;stroke-linejoin:miter;stroke-miterlimit:4;stroke-opacity:1;stroke-dasharray:none;stroke-dashoffset:0"
         id="path2230"
         transform="matrix(1.1247273,-0.00679075,0.00112312,0.7429216,-7.8873839,2.6776872)"
         d="m 46,24.25 c 0,9.664983 -7.835017,17.5 -17.5,17.5 -9.664983,0 -17.5,-7.835017 -17.5,-17.5 0,-9.664983 7.835017,-17.5 17.5,-17.5 9.664983,0 17.5,7.835017 17.5,17.5 l 0,0 z" />
      <path
         style="opacity:0.5;fill:none;stroke:url(#linearGradient5749);stroke-width:1.12890089;stroke-linecap:round;stroke-linejoin:miter;stroke-miterlimit:4;stroke-opacity:1;stroke-dasharray:none;stroke-dashoffset:0"
         id="path2234"
         transform="matrix(-0.09940095,-1.1197712,0.6946105,-0.03998764,8.1749534,56.475018)"
         d="m 46,24.25 c 0,9.664983 -7.835017,17.5 -17.5,17.5 -9.664983,0 -17.5,-7.835017 -17.5,-17.5 0,-9.664983 7.835017,-17.5 17.5,-17.5 9.664983,0 17.5,7.835017 17.5,17.5 l 0,0 z" />
      <path
         style="opacity:0.5;fill:none;stroke:url(#linearGradient5751);stroke-width:1.36711621;stroke-linecap:round;stroke-linejoin:miter;stroke-miterlimit:4;stroke-opacity:1;stroke-dasharray:none;stroke-dashoffset:0"
         id="path2240"
         transform="matrix(-0.1600777,-1.1032472,0.4856389,0.01692093,16.935466,54.089297)"
         d="m 46,24.25 c 0,9.664983 -7.835017,17.5 -17.5,17.5 -9.664983,0 -17.5,-7.835017 -17.5,-17.5 0,-9.664983 7.835017,-17.5 17.5,-17.5 9.664983,0 17.5,7.835017 17.5,17.5 l 0,0 z" />
      <path
         style="opacity:0.4;fill:#ffffff;fill-opacity:1;stroke:none"
         id="path2255"
         transform="matrix(0.7873429,-0.2144143,0.2141677,0.7882494,1.2604149,11.541737)"
         d="m 31.375,37.875 c 0,0.966498 -0.783502,1.75 -1.75,1.75 -0.966498,0 -1.75,-0.783502 -1.75,-1.75 0,-0.966498 0.783502,-1.75 1.75,-1.75 0.966498,0 1.75,0.783502 1.75,1.75 l 0,0 z" />
      <path
         style="opacity:0.4;fill:#ffffff;fill-opacity:1;stroke:none"
         id="path2275"
         transform="matrix(0.6748654,-0.1837837,0.2141677,0.7882494,-14.193998,12.29353)"
         d="m 31.375,37.875 c 0,0.966498 -0.783502,1.75 -1.75,1.75 -0.966498,0 -1.75,-0.783502 -1.75,-1.75 0,-0.966498 0.783502,-1.75 1.75,-1.75 0.966498,0 1.75,0.783502 1.75,1.75 l 0,0 z" />
      <path
         style="opacity:0.4;fill:#ffffff;fill-opacity:1;stroke:none"
         id="path2283"
         transform="matrix(0.7873429,-0.2144143,0.324169,0.6373544,-8.3660962,-9.8985024)"
         d="m 31.375,37.875 c 0,0.966498 -0.783502,1.75 -1.75,1.75 -0.966498,0 -1.75,-0.783502 -1.75,-1.75 0,-0.966498 0.783502,-1.75 1.75,-1.75 0.966498,0 1.75,0.783502 1.75,1.75 l 0,0 z" />
      <path
         style="opacity:0.4;fill:#ffffff;fill-opacity:1;stroke:none"
         id="path2291"
         transform="matrix(0.7873429,-0.2144143,-0.01326253,0.7292459,-10.705973,-10.742804)"
         d="m 31.375,37.875 c 0,0.966498 -0.783502,1.75 -1.75,1.75 -0.966498,0 -1.75,-0.783502 -1.75,-1.75 0,-0.966498 0.783502,-1.75 1.75,-1.75 0.966498,0 1.75,0.783502 1.75,1.75 l 0,0 z" />
    </g>
  </g>
  <g
     id="g2414"
     transform="matrix(0.9999061,-0.01370139,0.01370139,0.9999061,-0.86497119,0.33246397)">
    <path
       style="fill:url(#radialGradient2866);fill-opacity:1;fill-rule:evenodd;stroke:#666666;stroke-width:1;stroke-linecap:butt;stroke-linejoin:round;stroke-miterlimit:4;stroke-opacity:1;stroke-dasharray:none;stroke-dashoffset:0;marker:none;visibility:visible;display:inline;overflow:visible"
       id="path3970"
       d="m 30.5,20.93716 17,16.500001 -7.75,0.25 c 0,0 3.25,6.75 3.25,6.75 1,3 -3.5,4.125 -4.25,1.875 0,0 -3,-6.75 -3,-6.75 l -5.5,5.875 0.25,-24.500001 z" />
    <path
       style="opacity:0.4;fill:none;stroke:#ffffff;stroke-width:1;stroke-linecap:butt;stroke-linejoin:miter;stroke-miterlimit:4;stroke-opacity:1;stroke-dasharray:none;stroke-dashoffset:0;marker:none;visibility:visible;display:inline;overflow:visible"
       id="path4853"
       d="m 31.657235,23.378571 13.475546,13.185793 -6.921861,0.277459 c 0,0 3.872136,7.756567 3.872136,7.756567 0.402731,1.650134 -2.028275,2.412565 -2.5071,1.152867 0,0 -3.683065,-7.844955 -3.683065,-7.844955 l -4.424727,4.708334 0.189071,-19.236065 z" />
  </g>
</svg>
