<?xml version="1.0" encoding="UTF-8" standalone="no"?>
<!-- Generator: Adobe Illustrator 12.0.0, SVG Export Plug-In . SVG Version: 6.00 Build 51448)  -->
<svg
   xmlns:dc="http://purl.org/dc/elements/1.1/"
   xmlns:cc="http://web.resource.org/cc/"
   xmlns:rdf="http://www.w3.org/1999/02/22-rdf-syntax-ns#"
   xmlns:svg="http://www.w3.org/2000/svg"
   xmlns="http://www.w3.org/2000/svg"
   xmlns:sodipodi="http://sodipodi.sourceforge.net/DTD/sodipodi-0.dtd"
   xmlns:inkscape="http://www.inkscape.org/namespaces/inkscape"
   height="48"
   id="Layer_1"
   inkscape:version="0.45.1"
   sodipodi:docbase="/opt/cairo-dock/trunk/plug-ins/showDesklets/data"
   sodipodi:docname="show-desklets.svg"
   sodipodi:version="0.32"
   style="overflow:visible;enable-background:new 0 0 257.226 166.406;"
   version="1.0"
   viewBox="0 0 257.226 166.406"
   width="48"
   xml:space="preserve"
   inkscape:output_extension="org.inkscape.output.svg.inkscape"><metadata
   id="metadata35387"><rdf:RDF><cc:Work
       rdf:about=""><dc:title>Lampada di Aladino (Aladin)</dc:title><dc:description /><dc:subject><rdf:Bag><rdf:li>unsorted</rdf:li></rdf:Bag></dc:subject><dc:publisher><cc:Agent
           rdf:about="http://www.openclipart.org"><dc:title>Architetto Francesco Rollandin</dc:title></cc:Agent></dc:publisher><dc:creator><cc:Agent><dc:title>Architetto Francesco Rollandin</dc:title></cc:Agent></dc:creator><dc:rights><cc:Agent><dc:title>Architetto Francesco Rollandin</dc:title></cc:Agent></dc:rights><dc:date /><dc:format>image/svg+xml</dc:format><dc:type
         rdf:resource="http://purl.org/dc/dcmitype/StillImage" /><cc:license
         rdf:resource="http://web.resource.org/cc/PublicDomain" /><dc:language>en</dc:language></cc:Work><cc:License
       rdf:about="http://web.resource.org/cc/PublicDomain"><cc:permits
         rdf:resource="http://web.resource.org/cc/Reproduction" /><cc:permits
         rdf:resource="http://web.resource.org/cc/Distribution" /><cc:permits
         rdf:resource="http://web.resource.org/cc/DerivativeWorks" /></cc:License></rdf:RDF></metadata>
<defs
   id="defs138" />
<sodipodi:namedview
   bordercolor="#666666"
   borderopacity="1.0"
   id="base"
   inkscape:current-layer="Layer_1"
   inkscape:cx="30.019886"
   inkscape:cy="22.805024"
   inkscape:pageopacity="0.0"
   inkscape:pageshadow="2"
   inkscape:window-height="627"
   inkscape:window-width="910"
   inkscape:window-x="421"
   inkscape:window-y="22"
   inkscape:zoom="6.201678"
   pagecolor="#ffffff"
   width="48px"
   height="48px" />

<g
   id="g3"
   transform="matrix(0.9509886,0,0,1.0969692,6.5583153,24.75804)">
	<path
   d="M 74.164,97.47 C 42.522,95.03 1.828,78.715 0.066,41.944 C -0.824,23.351 7.242,8.411 25.378,1.816 C 42.468,-4.399 60.457,6.321 71.202,19.028 C 82.257,32.102 81.125,53.451 68.141,64.271 C 55.222,75.037 33.528,73.256 26.121,56.963 C 20.218,43.978 24.49,19.053 44.032,27.731 C 47.78,29.396 50.174,32.057 51.99,35.69 C 53.974,39.66 58.071,40.737 58.905,45.713 C 60.455,54.96 44.886,58.296 43.364,49.124 C 42.524,44.065 47.62,30.754 38.157,33.038 C 30.413,34.907 31.566,48.289 32.851,54.072 C 34.602,61.948 42.642,67.689 50.663,66.77 C 59.466,65.761 64.242,58.258 66.803,50.567 C 72.048,34.812 61.035,13.735 46.201,7.552 C 28.091,0.003 12.096,14.455 9.43,31.768 C 5.452,57.595 23.257,79.227 49.529,81.171 C 55.238,81.593 60.5,80.043 65.54,77.523 C 71.979,74.303 74.251,71.087 80.831,76.21 C 85.557,79.889 88.189,86.166 88.189,91.95 C 88.188,97.599 77.728,98.637 74.164,97.47"
   id="path5" />

	<path
   d="M 81.363,93.3 C 64.563,91.771 48.1,89.385 32.473,82.688 C 17.938,76.458 3.636,61.113 2.002,44.801 C 0.184,26.652 6.236,11.018 24.134,3.854 C 39.574,-2.327 58.9,5.462 68.633,18.116 C 78.859,31.41 80.873,52.88 66.203,63.737 C 51.5,74.618 31.506,69.503 26.207,51.822 C 24.543,46.27 25.728,33.377 31.546,30.468 C 40.287,26.098 47.352,28.801 51.134,37.879 C 52.499,41.155 57.329,42.415 57.487,46.681 C 57.625,50.416 53.878,52.736 50.287,51.988 C 39.722,49.789 49.105,38.082 45.345,32.448 C 39.674,23.95 30.433,30.689 28.872,38.532 C 27.562,45.109 26.981,56.1 31.751,61.557 C 44.807,76.492 67.306,67.813 69.615,48.954 C 71.477,33.746 64.109,13.417 49.667,6.196 C 36.186,-0.545 12.647,2.206 7.68,19.566 C 3.768,33.236 2.988,45.329 9.495,58.337 C 15.033,69.407 28.231,78.012 39.846,81.329 C 46.111,83.118 52.816,84.269 59.274,82.509 C 64.87,80.984 71.259,75.023 76.436,74.729 C 82.074,74.409 88.847,80.034 91.976,84.204 C 98.102,92.364 86.963,93.097 81.363,93.3"
   id="path7"
   style="fill:#6b7419" />

	<path
   d="M 78.713,151.667 C 83.847,142.025 103.991,144.788 113.201,139.538 C 118.242,136.665 124.362,128.937 117.82,124.266 C 111.257,119.579 103.969,117.989 96.523,115.282 C 121.539,115.282 146.555,115.282 171.571,115.282 C 164.631,117.805 154.111,119.092 149.192,125.249 C 143.411,132.484 153.38,139.51 159.712,141.234 C 167.125,143.253 177.627,143.328 184.171,147.415 C 185.971,148.539 188.782,149.744 189.004,151.668 C 189.484,155.826 182.921,158.497 179.993,159.717 C 164.091,166.342 144.265,166.88 127.308,166.168 C 118.681,165.807 110.379,164.829 101.853,163.479 C 96.401,162.615 81.506,160.121 79.652,153.634 C 79.525,153.188 78.753,151.779 78.713,151.667"
   id="path9" />

	<path
   d="M 85.535,151.667 C 87.912,146.214 99.392,146.81 104.427,146.179 C 111.752,145.261 119.841,144.878 126.253,141.032 C 131.971,137.6 131.561,128.616 128.378,123.832 C 124.457,117.937 115.79,116.7 109.412,115.282 C 127.352,115.282 145.292,115.282 163.232,115.282 C 155.952,117.929 147.545,119.741 143.818,127.201 C 140.214,134.411 151.31,140.027 156.19,141.905 C 163.275,144.631 171.604,145.29 179.016,147.001 C 181.78,147.639 187.303,148.454 186.541,152.236 C 185.818,155.82 180.278,156.976 177.348,157.954 C 162.895,162.776 145.941,162.28 130.911,162.28 C 122.791,162.28 114.815,161.773 106.758,160.763 C 100.846,160.022 87.43,158.739 85.535,151.667"
   id="path11"
   style="fill:#6b7419" />

	<path
   d="M 134.047,120.588 C 152.326,120.067 170.363,118.782 187.706,112.535 C 199.123,108.423 227.644,93.537 211.001,78.181 C 185.384,54.545 141.02,53.961 108.275,58.05 C 94.253,59.801 81.402,63.98 68.383,69.303 C 57.554,73.732 46.151,88.848 57.091,98.942 C 77.493,117.763 107.551,119.833 134.047,120.588"
   id="path13" />

	

	

	<path
   d="M 134.806,115.662 C 153.031,115.662 170.952,114.654 188.54,109.528 C 195.208,107.585 206.011,104.169 209.747,97.754 C 215.072,88.613 212.908,80.724 204.542,74.35 C 190.594,63.723 171.191,61.047 154.201,59.456 C 135.557,57.71 117.032,58.233 98.716,62.158 C 82.257,65.684 44.592,81.63 69.251,100.6 C 78.174,107.463 90.328,109.779 101.013,112.343 C 106.149,113.576 111.44,114.383 116.692,114.925 C 121.16,115.387 131.394,117.594 134.806,115.662"
   id="path19"
   style="fill:#6b7419" />

	<path
   d="M 135.564,109.976 C 152.606,109.976 172.058,110.663 188.57,105.709 C 195.61,103.597 206.72,100.578 209.849,92.92 C 213.607,83.722 206.888,75.973 199.98,71.191 C 186.771,62.049 165.529,61.084 150.044,61.084 C 132.993,61.084 114.282,60.542 98.019,66.537 C 90.643,69.256 81.503,72.608 77.572,80.035 C 73.041,88.597 79.566,95.4 86.713,99.211 C 101.44,107.062 120.284,109.976 135.564,109.976"
   id="path21"
   style="fill:#d1b21b" />

	<path
   d="M 201.511,73.591 C 188.059,66.279 171.903,68.073 157.302,70.162 C 149.622,71.26 111.904,77.277 129.682,89.714 C 141.553,98.018 162.069,97.346 175.823,96.198 C 186.933,95.271 214.307,88.733 201.511,73.591"
   id="path23"
   style="fill:#d1b21b" />

	<path
   d="M 200.374,73.971 C 191.058,66.203 170.992,68.895 160.017,70.628 C 153.033,71.731 145.616,72.681 139.018,75.319 C 132.425,77.954 124.818,84.7 134.938,89.368 C 146.813,94.846 163.121,96.529 176.116,94.817 C 183.668,93.822 189.975,92.362 196.489,88.292 C 201.592,85.103 207.576,78.305 200.374,73.971"
   id="path25"
   style="fill:#d7ba32" />

	<path
   d="M 199.615,74.35 C 188,68.21 174.33,70.003 161.747,71.398 C 155.124,72.132 148.063,73.566 141.845,75.957 C 135.905,78.241 131.074,84.425 138.807,88.29 C 150.444,94.107 165.104,94.27 177.788,92.861 C 182.943,92.289 212.589,81.228 199.615,74.35"
   id="path27"
   style="fill:#ddc34a" />

	<path
   d="M 198.856,74.35 C 187.241,69.987 175.598,70.576 163.328,72.019 C 157.279,72.731 128.545,79.928 144.185,87.758 C 153.76,92.552 166.798,93.335 177.255,91.405 C 181.36,90.648 210.384,80.457 198.856,74.35"
   id="path29"
   style="fill:#e3cc63" />

	<path
   d="M 197.721,74.729 C 189.932,69.135 175.865,71.603 167.062,72.778 C 162.154,73.433 135.586,78.083 147.313,86.477 C 155.825,92.57 169.665,91.318 179.121,88.948 C 184.158,87.686 189.779,86.424 194.312,83.825 C 197.093,82.23 203.474,76.903 197.721,74.729"
   id="path31"
   style="fill:#e8d57e" />

	<path
   d="M 196.962,75.106 C 189.081,70.892 178.56,72.127 170.01,73.268 C 165.023,73.934 141.072,77.85 151.37,86.084 C 158.202,91.547 170.703,89.35 178.363,87.432 C 183.221,86.216 188.316,85.569 192.723,83.053 C 195.055,81.722 202.222,77.395 196.962,75.106"
   id="path33"
   style="fill:#eedf9a" />

	<path
   d="M 196.206,75.106 C 187.375,73.473 180.159,72.676 171.028,74.082 C 166.564,74.77 146.03,78.164 154.515,85.719 C 159.922,90.533 171.865,87.555 178.203,86.287 C 180.997,85.729 203.552,78.866 196.206,75.106"
   id="path35"
   style="fill:#f4e9b6" />

	<path
   d="M 171.189,86.1 C 179.092,84.704 189.597,84.352 195.636,78.329 C 199.939,74.037 180.451,73.714 178.284,73.912 C 172.795,74.412 157.668,75.733 155.269,81.931 C 152.503,89.083 168.863,86.986 171.189,86.1"
   id="path37"
   style="fill:#faf2d4" />

	<path
   d="M 87.048,61.842 C 92.3,55.59 102.959,54.643 110.17,51.04 C 121.13,45.565 126.399,38.976 121.919,26.594 C 129.626,26.594 137.334,26.594 145.041,26.594 C 139.119,42.859 150.836,49.327 164.609,54.189 C 168.326,55.502 177.039,57.257 178.961,61.084 C 181.613,66.365 169.61,69.021 166.265,69.801 C 153.378,72.804 138.541,74.561 125.31,73.17 C 117.082,72.305 89.365,72.717 87.048,61.842"
   id="path39" />

	<path
   d="M 95.388,60.705 C 97.486,58.227 101.926,57.75 104.863,56.915 C 109.762,55.522 114.165,53.45 118.669,51.027 C 130.01,44.926 129.789,37.698 126.089,26.594 C 131.647,26.72 137.205,26.846 142.763,26.973 C 140.481,32.687 138.144,39.87 142.763,45.165 C 146.67,49.644 153.406,51.841 158.8,53.745 C 163.059,55.248 170.992,56.351 174.222,59.568 C 178.578,63.908 171.988,66.207 167.884,67.326 C 155.379,70.737 141.389,70.18 128.515,70.18 C 120.757,70.18 97.617,70.417 95.388,60.705"
   id="path41"
   style="fill:#6b7419" />

	<path
   d="M 107.517,60.326 C 109.09,57.493 113.067,56.915 115.856,55.778 C 120.171,54.018 123.29,51.949 126.811,48.931 C 134.099,42.684 132.438,31.977 129.879,23.94 C 134.173,24.951 138.468,25.962 142.763,26.973 C 140.673,32.205 138.648,37.955 141.642,43.201 C 144.27,47.805 150.376,50.772 155.249,52.492 C 158.695,53.709 184.132,60.116 172.915,65.717 C 164.665,69.837 108.082,74.006 107.517,60.326"
   id="path43"
   style="fill:#d1b21b" />

	<path
   d="M 133.289,35.69 C 140.101,36.066 148.313,32.922 149.775,25.647 C 151.504,17.044 140.083,14.302 133.976,13.427 C 127.33,12.475 116.991,17.306 116.991,24.699 C 116.992,31.821 127.464,37.177 133.289,35.69"
   id="path45" />

	<path
   d="M 133.289,32.28 C 137.448,32.504 145.935,31.501 147.502,26.784 C 149.755,19.997 142.414,16.175 136.701,15.603 C 131.999,15.133 122.3,17.358 122.3,23.561 C 122.3,29.417 127.821,32.12 133.289,32.28"
   id="path47"
   style="fill:#6b7419" />

	<path
   d="M 135.564,30.384 C 140.047,30.384 146.201,30.277 147.88,25.267 C 150.059,18.771 139.547,16.052 135.183,16.36 C 122.792,17.233 126.637,32.936 135.564,30.384"
   id="path49"
   style="fill:#d1b21b" />

	<path
   d="M 134.425,36.448 C 134.425,41.051 133.706,47.426 135.942,51.609 C 138.588,56.562 145.423,57.276 147.313,62.6 C 149.327,68.275 147.774,69.224 155.271,68.664 C 160.47,68.276 165.374,67.445 170.265,65.815 C 177.97,63.247 169.756,60.23 166.052,58.993 C 161.546,57.489 156.674,56.48 152.408,54.346 C 148.135,52.209 143.847,50.065 141.25,45.925 C 139.947,43.849 139.472,41.69 139.072,39.314 C 138.364,35.095 137.289,37.607 134.425,36.448"
   id="path51"
   style="fill:#d1b21b" />

	<path
   d="M 134.425,36.828 C 135.101,41.471 134.538,46.149 136.699,50.472 C 139.254,55.582 145.248,56.365 148.996,60.115 C 152.982,64.105 146.366,67.266 152.239,68.664 C 156.971,69.79 164.424,67.512 168.987,66.208 C 181.237,62.708 157.643,56.763 154.133,55.399 C 145.508,52.047 138.036,46.872 138.595,36.448 C 137.21,36.612 135.815,36.739 134.425,36.828"
   id="path53"
   style="fill:#dbc144" />

	<path
   d="M 134.806,36.828 C 135.441,41.145 134.761,45.761 137.078,49.714 C 139.942,54.601 145.877,55.782 150.273,58.922 C 155.625,62.744 148.814,67.108 152.62,68.664 C 155.785,69.958 164.478,67.496 167.71,66.573 C 181.565,62.615 157.405,57.328 153.376,55.779 C 144.416,52.334 137.652,46.875 138.215,36.449 C 137.191,36.562 135.752,36.442 134.806,36.828"
   id="path55"
   style="fill:#e6d170" />

	<path
   d="M 135.184,36.828 C 134.863,44.726 137.502,50.979 144.66,54.641 C 148.143,56.423 151.598,57.57 154.798,59.971 C 158.665,62.874 152.969,66.316 151.862,68.285 C 157.981,68.285 164.836,68.052 170.433,65.253 C 176.229,62.355 161.638,58.253 159.442,57.674 C 146.882,54.362 138.215,50.82 138.215,36.448 C 137.276,36.566 136.048,36.465 135.184,36.828"
   id="path57"
   style="fill:#f0e1a1" />

	<path
   d="M 135.184,36.828 C 136.067,45.042 138.231,51.609 146.766,54.458 C 149.75,55.454 156.099,57.124 157.924,59.946 C 160.528,63.974 155.629,65.987 152.62,67.905 C 155.829,68.984 166.85,67.948 169.676,65.631 C 175.008,61.256 162.56,58.889 158.992,57.87 C 146.786,54.383 136.84,51.285 137.837,36.448 C 137.034,36.62 135.921,36.526 135.184,36.828"
   id="path59"
   style="fill:#faf2d4" />

	<path
   d="M 137.837,16.74 C 141.802,16.51 147.762,19.112 147.313,23.941 C 146.876,28.634 139.903,29.214 136.154,28.588 C 133.223,28.098 128.725,26.06 128.74,22.425 C 128.758,17.61 134.425,17.049 137.837,16.74"
   id="path61"
   style="fill:#d1b21b" />

	<path
   d="M 138.215,17.119 C 141.726,16.833 147.903,19.575 147.313,23.941 C 146.718,28.339 139.669,28.778 136.321,28.11 C 126.569,26.165 131.222,15.914 138.215,17.119"
   id="path63"
   style="fill:#d9be3c" />

	<path
   d="M 138.974,17.499 C 149.168,19.085 148.952,27.731 138.217,27.731 C 135.38,27.731 131.611,25.541 131.775,22.425 C 131.974,18.643 137.206,17.802 138.974,17.499"
   id="path65"
   style="fill:#e0ca5e" />

	<path
   d="M 139.732,17.878 C 148.548,19.823 148.491,29.545 138.973,27.163 C 130.542,25.052 132.843,19.481 139.732,17.878"
   id="path67"
   style="fill:#e8d783" />

	<path
   d="M 140.491,18.634 C 144.053,18.845 145.338,20.382 146.744,23.183 C 148.366,26.415 141.196,26.594 139.732,26.594 C 132.722,26.594 133.548,18.029 140.491,18.634"
   id="path69"
   style="fill:#f0e4aa" />

	<path
   d="M 140.868,19.014 C 147.558,19.856 148.306,26.817 140.868,26.215 C 133.646,25.63 136.262,18.338 140.868,19.014"
   id="path71"
   style="fill:#f7f1d3" />

	<path
   d="M 141.627,19.394 C 146.729,20.145 148.432,25.458 142.195,25.458 C 135.61,25.458 137.219,20.634 141.627,19.394"
   id="path73"
   style="fill:#ffffff" />

	<path
   d="M 214.018,84.961 C 228.241,86.939 242.9,87.964 257.226,88.372 C 252.386,106.504 240.974,111.389 223.421,113.989 C 207.533,116.342 191.357,115.982 175.361,115.662 C 183.606,113.761 192.657,112.109 199.671,107.008 C 205.931,102.456 215.205,93.072 214.018,84.961"
   id="path75" />

	<path
   d="M 178.011,114.526 C 192.661,114.85 207.079,114.993 221.657,113.244 C 237.842,111.303 250.806,106.449 255.331,89.511 C 248.109,89.303 240.769,88.289 233.537,87.805 C 229.531,87.537 225.576,86.897 221.57,86.611 C 219.642,86.473 217.398,85.597 215.534,85.72 C 212.277,85.934 212.967,85.041 211.899,88.779 C 207.359,104.68 193.711,112.875 178.011,114.526"
   id="path77"
   style="fill:#faf2d4" />

	<path
   d="M 245.478,91.405 C 248.762,90.774 252.047,90.142 255.332,89.51 C 250.147,106.327 239.079,110.929 222.695,114.08 C 207.392,117.023 190.83,115.972 175.362,115.661 C 198.733,107.576 222.105,99.491 245.478,91.405"
   id="path79"
   style="fill:#6b7419" />

	<path
   d="M 205.682,86.477 C 204.472,105.692 186.675,113.59 169.676,116.798 C 185.169,116.798 201.58,117.896 216.957,115.619 C 225.222,114.394 232.422,112.774 240.098,109.413 C 247.197,106.306 249.502,96.904 251.163,90.266 C 243.183,90.266 235.332,89.834 227.378,89.17 C 221.535,88.682 210.25,89.516 205.682,86.477"
   id="path81" />

	<path
   d="M 205.682,86.477 C 202.168,102.843 185.913,114.267 169.676,116.798 C 185.169,116.798 201.58,117.896 216.957,115.619 C 225.222,114.394 232.422,112.774 240.098,109.413 C 247.197,106.306 249.502,96.904 251.163,90.266 C 243.183,90.266 235.332,89.834 227.378,89.17 C 221.535,88.682 210.25,89.516 205.682,86.477"
   id="path83"
   style="fill:#d1b21b" />

	<path
   d="M 175.738,113.766 C 190.609,114.139 205.278,114.952 220.08,113.104 C 235.655,111.16 246.074,105.54 251.163,90.267 C 245.988,106.729 230.276,108.573 215.844,110.637 C 209.973,111.477 201.089,111.156 195.448,109.218 C 191.65,107.913 191.62,105.201 187.994,107.204 C 184.055,109.379 179.942,112.303 175.738,113.766"
   id="path85"
   style="fill:#6b7419" />

	<path
   d="M 205.682,86.477 C 203.589,109.331 174.661,118.377 155.652,115.662 C 174.672,114.195 200.235,107.588 205.682,86.477"
   id="path87" />

	<path
   d="M 169.295,116.798 C 184.914,116.798 201.457,117.914 216.957,115.619 C 225.222,114.394 232.422,112.774 240.098,109.413 C 247.197,106.306 249.502,96.904 251.163,90.266 C 245.272,107.945 232.322,111.575 215.088,113.726 C 207.1,114.723 199.167,114.389 191.152,114.153 C 187.117,114.034 183.081,113.944 179.046,113.84 C 175.2,113.743 172.897,115.708 169.295,116.798"
   id="path89" />

	<path
   d="M 212.881,85.341 C 210.482,85.846 208.081,86.351 205.682,86.857 C 210.736,87.362 215.789,87.867 220.843,88.373 C 220.718,85.073 215.512,85.735 212.881,85.341"
   id="path91"
   style="fill:#faf2d4" />

	<path
   d="M 141.25,133.096 C 144.6,144.059 160.579,145.485 169.842,147.021 C 172.269,147.423 183.319,147.922 183.319,151.478 C 183.319,156.35 170.454,157.562 167.079,158.194 C 155.066,160.445 142.645,160.722 130.448,160.195 C 123.81,159.908 117.301,159.564 110.715,158.667 C 106.856,158.141 96.66,158.209 94.252,155.08 C 110.979,152.109 145.394,160.535 141.25,133.096"
   id="path93"
   style="fill:#d1b21b" />

	<path
   d="M 164.745,151.667 C 168.373,150.76 171.96,149.619 175.738,149.772 C 177.673,149.851 183.74,151.265 179.149,153.561 C 172.12,157.076 163.98,157.66 156.243,158.429 C 148.612,159.188 140.789,158.869 133.118,158.869 C 125.87,158.869 116.22,159.692 109.411,156.973 C 128.215,156.06 146.402,156.765 164.745,151.667"
   id="path95"
   style="fill:#d1b21b" />

	<path
   d="M 163.99,152.047 C 164.911,151.989 181.802,149.401 178.39,152.804 C 173.535,157.647 163.701,157.212 157.355,157.921 C 150.236,158.716 143.101,158.488 135.941,158.488 C 129.533,158.488 120.666,159.677 114.719,156.974 C 122.561,157.265 130.75,156.678 138.595,156.215 C 143.94,155.901 161.562,156.037 163.99,152.047"
   id="path97"
   style="fill:#d9be3c" />

	<path
   d="M 163.609,152.804 C 166.002,152 176.791,149.251 176.497,152.804 C 176.15,156.996 161.446,157.464 158.528,157.79 C 151.931,158.527 144.858,158.773 138.215,158.488 C 133.404,158.282 124.516,159.472 120.404,156.974 C 133.455,156.975 152.681,158.169 163.609,152.804"
   id="path99"
   style="fill:#e1ca5e" />

	<path
   d="M 163.231,153.183 C 164.835,153.013 174.555,149.781 174.602,153.183 C 174.648,156.523 161.37,157.352 159.371,157.352 C 153.685,157.352 147.943,158.112 142.195,158.112 C 137.911,158.112 129.278,159.404 125.708,156.975 C 136.139,156.975 155.211,158.592 163.231,153.183"
   id="path101"
   style="fill:#ead783" />

	<path
   d="M 162.851,153.563 C 165.754,153.015 170.099,151.227 172.707,153.183 C 170.243,157.912 158.06,157.577 153.376,157.731 C 147.196,157.934 136.526,159.57 131.016,156.975 C 135.841,156.975 161.997,157.616 162.851,153.563"
   id="path103"
   style="fill:#f2e5ab" />

	<path
   d="M 162.474,153.94 C 163.532,153.968 170.339,152.057 170.431,153.94 C 170.557,156.529 161.845,156.826 160.201,156.975 C 152.919,157.637 143.202,159.204 136.321,156.975 C 141.36,156.975 160.289,157.876 162.474,153.94"
   id="path105"
   style="fill:#faf2d4" />

	<path
   d="M 55.973,11.434 C 48.431,3.364 35.735,-2.015 25.082,2.716 C 13.152,8.015 4.853,19.874 4.806,33.038 C 10.879,21.228 13.341,11.644 25.895,4.888 C 35.727,-0.403 48.865,7.144 55.973,11.434"
   id="path107" />

	<path
   d="M 69.238,47.44 C 67.978,60.953 63.718,68.341 49.739,69.742 C 37.853,70.933 28.993,62.492 28.168,50.878 C 27.978,48.194 30.01,44.794 30.977,48.662 C 31.738,51.704 32.714,54.613 33.988,57.484 C 36.434,62.995 41.25,67.155 47.184,68.004 C 57.187,69.436 70.014,57.199 69.238,47.44"
   id="path109" />

	<path
   d="M 26.029,37.964 C 30.381,29.238 42.839,24.254 49.529,33.796 C 46.969,27.795 40.377,25.656 34.369,26.974 C 27.225,28.54 26.768,32.505 26.029,37.964"
   id="path111" />

	<path
   d="M 57.868,9.918 C 72.45,20.524 80.408,36.094 71.888,53.125 C 73.269,45.535 72.757,37.028 70.374,29.625 C 69.215,26.026 67.201,22.74 65.403,19.441 C 63.409,15.784 59.878,13.286 57.868,9.918"
   id="path113"
   style="fill:#d1b21b" />

	<path
   d="M 4.806,20.15 C 1.284,32.47 0.977,42.956 5.657,54.988 C 10.365,67.095 20.138,74.056 31.338,79.655 C 21.855,73.493 12.945,66.53 7.995,56.017 C 5.243,50.175 3.283,44.48 2.911,37.964 C 2.737,34.915 2.912,31.887 3.288,28.868 C 3.604,26.338 5.42,22.19 4.806,20.15"
   id="path115"
   style="fill:#d1b21b" />

	<path
   d="M 49.906,50.471 C 56.366,51.716 54.694,40.469 49.529,40.239 C 43.663,39.979 45.73,50.714 49.906,50.471"
   id="path117"
   style="fill:#d1b21b" />

	<path
   d="M 48.011,40.618 C 48.963,37.854 48.313,34.949 46.498,32.659 C 49.937,34.896 50.077,38.971 50.665,42.513 C 49.802,41.897 48.764,41.36 48.011,40.618"
   id="path119"
   style="fill:#d1b21b" />

	<path
   d="M 66.584,19.772 C 72.634,25.827 77.334,34.053 74.164,42.89 C 72.773,35.047 71.537,26.273 66.584,19.772"
   id="path121"
   style="fill:#ffffff" />

	<path
   d="M 49.529,49.334 C 54.953,47.587 44.472,46.202 49.529,49.334"
   id="path123"
   style="fill:#ffffff" />

	

	

	

	

	

	<path
   d="M 242.064,88.751 C 242.895,88.58 250.146,87.763 249.268,89.511 C 248.463,91.115 241.93,89.917 242.064,88.751"
   id="path135" />

</g>


  
</svg>