<?xml version="1.0" encoding="UTF-8" standalone="no"?>
<!-- Created with Inkscape (http://www.inkscape.org/) -->
<svg
   xmlns:dc="http://purl.org/dc/elements/1.1/"
   xmlns:cc="http://web.resource.org/cc/"
   xmlns:rdf="http://www.w3.org/1999/02/22-rdf-syntax-ns#"
   xmlns:svg="http://www.w3.org/2000/svg"
   xmlns="http://www.w3.org/2000/svg"
   xmlns:xlink="http://www.w3.org/1999/xlink"
   xmlns:sodipodi="http://sodipodi.sourceforge.net/DTD/sodipodi-0.dtd"
   xmlns:inkscape="http://www.inkscape.org/namespaces/inkscape"
   width="48px"
   height="48px"
   id="svg2160"
   sodipodi:version="0.32"
   inkscape:version="0.45.1"
   sodipodi:docbase="/home/changfu/Documents/Cairo-Dock/plug-ins/compiz-icon/data"
   sodipodi:docname="1.svg"
   inkscape:output_extension="org.inkscape.output.svg.inkscape">
  <defs
     id="defs2162" />
  <sodipodi:namedview
     id="base"
     pagecolor="#ffffff"
     bordercolor="#666666"
     borderopacity="1.0"
     inkscape:pageopacity="0.0"
     inkscape:pageshadow="2"
     inkscape:zoom="7"
     inkscape:cx="24"
     inkscape:cy="24"
     inkscape:current-layer="layer1"
     showgrid="true"
     inkscape:grid-bbox="true"
     inkscape:document-units="px"
     inkscape:window-width="762"
     inkscape:window-height="635"
     inkscape:window-x="30"
     inkscape:window-y="149" />
  <metadata
     id="metadata2165">
    <rdf:RDF>
      <cc:Work
         rdf:about="">
        <dc:format>image/svg+xml</dc:format>
        <dc:type
           rdf:resource="http://purl.org/dc/dcmitype/StillImage" />
      </cc:Work>
    </rdf:RDF>
  </metadata>
  <g
     id="layer1"
     inkscape:label="Layer 1"
     inkscape:groupmode="layer">
    <image
       y="0"
       x="1.8571428"
       id="image2175"
       height="48"
       width="44.25"
       sodipodi:absref="/usr/share/pixmaps/emerald-theme-manager-icon.png"
       xlink:href="/usr/share/pixmaps/emerald-theme-manager-icon.png" />
    <g
       id="g2178">
      <path
         style="fill:#c8e3ad"
         d="M 12.650825,31.6875 C 3.9657412,18.08929 2.2515875,14.938218 2.3490028,12.75 C 2.5778109,7.6103377 3.6654576,6.238816 10.06361,3.021888 C 15.977428,0.048478469 16.204203,-3.4066529e-15 24.199557,8.703975e-16 L 32.325268,5.2171808e-15 L 38.278705,3.1875 C 44.215914,6.3663109 44.234953,6.3862448 45.263179,10.5 L 46.294215,14.625 L 35.513179,31.305408 C 29.583609,40.479631 24.35805,47.989007 23.900825,47.992908 C 23.4436,47.996809 18.3811,40.659375 12.650825,31.6875 z M 26.382384,42.1875 C 27.531042,40.228125 28.366447,38.169257 28.238838,37.612236 C 28.111228,37.055216 28.343572,36.807596 28.755158,37.06197 C 29.166744,37.316344 29.747712,37.129316 30.0462,36.646352 C 30.385143,36.097932 30.263804,35.969161 29.723024,36.303381 C 28.477983,37.072859 28.572365,36.735743 31.530097,29.848827 C 33.368647,25.567865 35.151506,22.749859 37.241357,20.821549 C 38.912425,19.279651 40.51642,18.164422 40.80579,18.343262 C 41.095161,18.522103 41.967046,17.589906 42.743313,16.271714 C 43.953216,14.21716 43.451046,14.491848 39.225783,18.195811 L 34.296857,22.516622 L 32.799696,16.555031 L 31.302536,10.593438 L 33.464612,8.5220385 L 35.626687,6.4506384 L 39.2782,10.047244 C 41.994089,12.722295 43.07934,13.385206 43.513672,12.634425 C 43.834849,12.079241 43.882639,11.814007 43.619871,12.045016 C 43.047548,12.548166 34.415514,4.612918 34.634805,3.7852318 C 34.718769,3.4683188 33.875019,2.7966008 32.759805,2.2925251 L 30.732143,1.376024 L 32.934961,3.688012 L 35.137779,6 L 32.982143,8.25 C 30.895337,10.428156 30.60796,10.5 23.982143,10.5 C 17.356326,10.5 17.068949,10.428156 14.982143,8.25 L 12.826506,6 L 14.982143,3.75 C 17.345813,1.2828599 16.588384,0.61643155 14.078401,2.9548369 C 13.21953,3.7549972 12.284015,4.1768722 11.99948,3.8923369 C 11.714944,3.6078017 11.594643,3.7449146 11.732143,4.1970324 C 11.869643,4.6491502 10.576527,6.5510344 8.8585521,8.423442 C 6.6023856,10.88242 5.5077229,11.60058 4.9166768,11.009534 C 4.3256305,10.418488 4.1242895,10.806877 4.1916484,12.408124 C 4.3075672,15.163731 5.5832159,18 6.7066667,18 C 9.5696133,18 19.330754,33.817901 17.898192,36.135835 C 17.568457,36.669357 17.71368,36.772682 18.291423,36.415617 C 18.860933,36.06364 19.125159,36.232594 18.989892,36.862236 C 18.749136,37.982913 22.919715,45.748026 23.763027,45.749237 C 24.055014,45.749657 25.233724,44.146875 26.382384,42.1875 z M 19.904015,36.375 C 17.730771,31.8375 15.47664,27.028125 14.894837,25.6875 L 13.837013,23.25 L 21.909578,23.091827 L 29.982143,22.933654 L 22.294643,22.690589 C 17.575694,22.541385 14.607143,22.143174 14.607143,21.659363 C 14.607143,21.225874 15.187087,18.694741 15.895908,16.034624 L 17.184673,11.198045 L 23.948883,11.411523 L 30.713092,11.625 L 32.065738,16.5 C 32.809694,19.18125 33.268358,22.3875 33.084993,23.625 C 32.901627,24.8625 30.749948,30.09375 28.303485,35.25 L 23.855369,44.625 L 19.904015,36.375 z M 8.6257778,18.319854 C 6.5148553,16.345333 5.0038321,14.290222 5.0650877,13.477033 C 5.1236152,12.700062 5.3333737,12.226231 5.5312178,12.424075 C 5.7290619,12.621919 7.3490786,11.352731 9.1312549,9.6036577 L 12.371575,6.4235235 L 14.382849,8.434797 L 16.394122,10.44607 L 15.061669,16.098035 C 14.32882,19.206616 13.406041,21.75 13.011049,21.75 C 12.616057,21.75 10.642685,20.206434 8.6257778,18.319854 z "
         id="path2192" />
      <path
         style="fill:#b2d590"
         d="M 12.517893,31.176169 L 1.8036429,14.356517 L 2.7954931,10.365758 C 3.7797279,6.4056409 3.8331993,6.350724 9.7597428,3.2132296 C 15.695462,0.070877831 15.781763,0.051301134 23.811291,0.025729579 C 31.763529,0.00040417099 31.984087,0.047085451 37.852103,2.997466 C 43.779658,5.9777822 43.820663,6.0186518 45.01896,10.140647 L 46.224151,14.286362 L 35.478147,31.120078 C 29.567845,40.378621 24.394643,47.963249 23.982143,47.974807 C 23.569643,47.986364 18.41073,40.426977 12.517893,31.176169 z M 34.94008,29.028865 C 43.871193,14.82515 45.45191,11.25 42.800826,11.25 C 42.316071,11.25 40.414809,9.6949215 38.575799,7.7942707 L 35.232143,4.3385416 L 38.456383,5.9532573 C 40.229716,6.841351 41.980198,8.3120542 42.346344,9.2214862 C 42.727492,10.168183 43.027476,10.394104 43.048119,9.75 C 43.106514,7.9279425 42.251256,7.1453647 37.035068,4.2479406 C 32.17443,1.5480131 31.945105,1.5004143 23.910068,1.5237111 C 15.931591,1.5468439 15.604407,1.6154369 10.494641,4.3362111 C 5.6281862,6.9274303 5.1890009,7.3694093 4.2953363,10.57495 L 3.3335336,14.0249 L 12.532838,28.662104 C 17.592456,36.712565 22.20561,44.097496 22.784292,45.07306 C 23.779908,46.751506 23.880656,46.772223 24.659292,45.458618 C 25.11186,44.695111 29.738214,37.301722 34.94008,29.028865 z M 22.959948,42.666516 C 22.58091,41.681183 20.546467,37.199855 18.438965,32.708011 C 16.331463,28.216167 14.607143,24.250542 14.607143,23.895511 C 14.607143,23.201375 32.083227,22.976084 32.768528,23.661385 C 33.112946,24.005804 24.811095,43.280801 23.936851,44.166516 C 23.778594,44.32685 23.338988,43.65185 22.959948,42.666516 z M 28.857143,36.574676 C 28.857143,36.340747 30.167009,33.331373 31.767957,29.887176 C 33.669587,25.796107 35.788,22.584896 37.87815,20.625 C 41.526237,17.204254 41.581749,17.077136 34.602886,28.125 C 28.968201,37.044968 28.857143,37.208289 28.857143,36.574676 z M 12.701867,27.532978 C 9.8310191,22.911562 7.4776031,18.737731 7.4720544,18.257795 C 7.4665058,17.777861 6.8142929,16.669516 6.0226922,15.794806 C 4.5885906,14.210142 4.5966357,14.191008 8.26142,10.470276 L 11.939421,6.7361248 L 14.048716,8.8454198 L 16.158012,10.954715 L 14.862577,16.352357 C 14.150088,19.32106 13.353724,21.75 13.092879,21.75 C 12.832033,21.75 11.825952,20.90625 10.857143,19.875 C 9.888334,18.84375 8.7485079,18 8.3241965,18 C 7.8998851,18 8.7786619,19.265625 10.277034,20.8125 C 12.589982,23.200319 18.836793,35.020351 18.149187,35.707956 C 18.024009,35.833133 15.572715,32.154393 12.701867,27.532978 z M 14.610072,21.9375 C 14.611683,21.628125 15.232176,19.18125 15.988945,16.5 L 17.364889,11.625 L 23.8317,11.408728 L 30.298512,11.192455 L 31.511542,15.533728 C 32.178708,17.921428 32.889644,20.465625 33.091398,21.1875 C 33.426736,22.387334 32.649132,22.5 24.032684,22.5 C 18.848636,22.5 14.608461,22.246875 14.610072,21.9375 z M 33.84817,20.4375 C 33.65014,19.715625 33.079157,17.31841 32.579317,15.110357 C 31.703035,11.239355 31.738502,11.027732 33.570575,9.1956585 L 35.470631,7.295603 L 39.288887,10.515204 C 41.388927,12.285985 43.102884,13.935099 43.097679,14.179903 C 43.086748,14.693966 35.152979,21.75 34.585899,21.75 C 34.378178,21.75 34.0462,21.159375 33.84817,20.4375 z M 5.0821225,10.2455 C 5.3708837,9.4930005 5.6071428,8.5731075 5.6071428,8.2012935 C 5.6071428,7.8294802 7.3790178,6.6320926 9.5446428,5.5404329 C 13.310129,3.6423068 13.416614,3.6289823 11.982143,5.2354291 C 11.157143,6.1593368 9.1490087,7.9724055 7.5196225,9.264471 C 5.3653205,10.972782 4.7003354,11.240421 5.0821225,10.2455 z M 18.637224,9.9643583 C 17.347518,9.801786 15.516812,8.8432987 14.568988,7.834386 L 12.845672,6 L 14.607143,4.125 C 16.250066,2.3761886 16.855771,2.25 23.607143,2.25 C 30.28281,2.25 30.977473,2.390296 32.540666,4.0542383 C 33.935131,5.5385789 34.088241,6.1339304 33.404213,7.4120496 C 32.946917,8.266515 31.927688,9.3108578 31.13926,9.7328115 C 29.762902,10.469416 23.555883,10.584374 18.637224,9.9643583 z "
         id="path2190" />
      <path
         style="fill:#9bcf69"
         d="M 12.732143,31.345712 C 6.2636642,21.114026 2.3129681,14.139616 2.4426502,13.18103 C 3.2605008,7.1356372 3.9131391,6.2680825 10.041611,3.0797011 C 15.897918,0.032915142 16.047142,7.5313725e-16 24.00369,-3.9590726e-15 C 32.039072,-8.7179715e-15 32.051424,0.0028227074 37.951915,3.1875 C 43.695593,6.2875406 43.889185,6.4834296 45.007489,10.326772 L 46.157343,14.278543 L 35.444743,30.894724 C 29.552813,40.033625 24.394643,47.610684 23.982143,47.732635 C 23.569643,47.854585 18.507143,40.48047 12.732143,31.345712 z M 33.410195,31.5 C 38.432773,23.45625 42.991002,16.359607 43.539591,15.729684 C 44.354817,14.79359 44.366805,13.903041 43.605216,10.854684 C 42.695403,7.2130474 42.532456,7.0503594 36.702774,3.9632296 C 30.994455,0.9403677 30.438101,0.80032875 24.039291,0.77572957 C 17.631571,0.75109613 17.084421,0.88416743 11.196143,3.8992848 C 5.1704182,6.9847824 5.029153,7.1208918 4.2216377,10.619239 L 3.3974284,14.189909 L 10.229545,25.117695 C 13.987209,31.127978 17.228661,35.878482 17.432772,35.674371 C 17.636882,35.470261 15.565866,31.792597 12.830512,27.501786 C 10.095159,23.210974 7.8571428,19.423347 7.8571428,19.084837 C 7.8571428,18.746326 8.9042336,19.460632 10.184011,20.672182 C 12.600252,22.959607 18.638754,34.93758 17.943118,36.063143 C 17.476413,36.818288 22.988166,46.50718 23.755188,46.279951 C 24.042863,46.194728 28.387616,39.54375 33.410195,31.5 z M 19.144643,34.0875 C 16.561463,28.489429 14.637664,23.719478 14.869534,23.487608 C 15.39829,22.958853 32.607143,23.998453 32.607143,24.559151 C 32.607143,24.937978 24.363291,43.628887 24.001467,44.070405 C 23.913393,44.177878 21.727823,39.68557 19.144643,34.0875 z M 29.615977,35.156133 C 29.580185,33.256461 35.209406,23.142497 37.494984,21 C 39.647686,18.982061 40.089549,18.773542 39.405647,20.09834 C 38.037679,22.748253 29.625971,35.686561 29.615977,35.156133 z M 14.607143,22.01836 C 14.607143,21.753457 15.296434,19.222207 16.138902,16.39336 L 17.67066,11.25 L 23.984994,11.25 L 30.299327,11.25 L 31.126247,14.4375 C 31.581053,16.190625 32.241857,18.721875 32.5947,20.0625 L 33.236232,22.5 L 23.921688,22.5 C 18.798688,22.5 14.607143,22.283262 14.607143,22.01836 z M 8.6101188,17.96021 L 4.4880949,14.301205 L 8.2137582,10.518665 L 11.939421,6.7361248 L 14.091507,8.8882095 L 16.243591,11.040295 L 14.938848,15.832647 C 14.22124,18.468441 13.431164,20.848698 13.183125,21.122107 C 12.935085,21.395515 10.877232,19.972661 8.6101188,17.96021 z M 32.964495,16.427983 L 31.660267,11.105967 L 33.628089,9.1381455 L 35.59591,7.1703238 L 39.247023,10.766537 L 42.898137,14.362749 L 38.992672,18.056375 C 36.844667,20.087869 34.903048,21.75 34.677965,21.75 C 34.452881,21.75 33.681819,19.355092 32.964495,16.427983 z M 5.4049604,9.4724002 C 5.6251754,8.3204197 6.8512009,7.1944884 9.0470333,6.1276707 C 10.867593,5.2431742 12.357143,4.6524313 12.357143,4.8149089 C 12.357143,4.9773864 10.71821,6.4825146 8.7150699,8.1596385 C 5.4436472,10.898628 5.1067806,11.032227 5.4049604,9.4724002 z M 38.196854,7.3884097 L 35.232143,4.2768194 L 38.598804,6.0859412 C 40.450467,7.0809583 42.078339,8.481174 42.216297,9.1975313 C 42.618037,11.283601 41.375184,10.724203 38.196854,7.3884097 z M 14.550378,7.8120908 L 12.732143,5.8741809 L 14.836466,4.0620905 C 16.734516,2.4276272 17.622291,2.25 23.89323,2.25 C 30.339442,2.25 30.97393,2.3865247 32.607143,4.125 L 34.368614,6 L 32.607143,7.875 C 30.96422,9.6238117 30.358515,9.75 23.607143,9.75 C 16.792506,9.75 16.262137,9.6365145 14.550378,7.8120908 z "
         id="path2188" />
      <path
         style="fill:#84db2e"
         d="M 20.375932,43.037767 C 18.54406,40.198245 13.671244,32.565895 9.5474531,26.07699 L 2.0496503,14.278981 L 3.1676119,10.262387 C 4.2850444,6.2476941 4.2885534,6.2443153 10.582381,3.1228966 C 16.632957,0.12211793 17.156943,-5.415784e-15 23.982143,-4.733193e-15 C 30.811464,-4.05019e-15 31.328558,0.12074385 37.404802,3.1342523 C 43.71068,6.2616476 43.727001,6.2772761 44.865056,10.277815 L 46.005606,14.287126 L 35.512884,30.581063 C 29.741888,39.542729 24.724614,47.173245 24.363387,47.537767 C 23.985551,47.919048 22.292031,46.007843 20.375932,43.037767 z M 43.984382,15 C 44.418786,14.287329 44.303664,12.640712 43.670283,10.507367 C 42.754656,7.4233687 42.199287,6.8748452 37.076295,3.9946643 C 31.597204,0.9142824 31.331396,0.84857003 24.152995,0.79979715 C 17.065788,0.75164385 16.629064,0.84793477 10.923277,3.7167482 C 5.1023407,6.6434578 5.0105401,6.7342177 4.1211062,10.441794 L 3.2195046,14.200091 L 13.518327,30.645479 L 23.817151,47.090867 L 33.557898,31.607934 C 38.915309,23.09232 43.607227,15.61875 43.984382,15 z M 19.291408,34.110921 L 14.716577,24 L 23.66186,24 C 28.581765,24 32.607143,24.128351 32.607143,24.285224 C 32.607143,24.442096 30.64044,28.99201 28.236692,34.396144 L 23.86624,44.221841 L 19.291408,34.110921 z M 30.376474,33.646705 C 30.307623,31.94321 35.330241,23.094429 37.57959,20.956354 C 39.16133,19.452862 39.958453,19.001335 39.488607,19.875 C 38.009082,22.626131 30.396093,34.132094 30.376474,33.646705 z M 12.140732,26.177591 C 8.3172678,20.191078 8.0890428,19.626545 10.090563,21.106332 C 11.98504,22.50698 17.365047,31.992096 16.663146,32.693997 C 16.542143,32.815 14.507057,29.882618 12.140732,26.177591 z M 14.889141,21.1875 C 15.099835,20.465625 15.821527,17.934375 16.492901,15.5625 L 17.713581,11.25 L 24.035361,11.25 C 27.512341,11.25 30.357143,11.423022 30.357143,11.634493 C 30.357143,11.845966 31.010641,14.377216 31.809361,17.259493 L 33.26158,22.5 L 23.883821,22.5 C 15.306686,22.5 14.538767,22.387946 14.889141,21.1875 z M 8.7435333,17.855654 L 4.7549238,14.046107 L 8.3685333,10.806663 C 10.356018,9.0249683 12.176437,7.5520935 12.413907,7.533609 C 12.651378,7.5151238 13.562224,8.262735 14.43801,9.1949663 C 15.993554,10.850767 16.002834,11.002408 14.839633,15.757466 C 14.18474,18.43461 13.442643,20.859045 13.19053,21.1451 C 12.938418,21.431155 10.937268,19.950904 8.7435333,17.855654 z M 33.102216,16.354472 L 31.80729,10.958945 L 33.710805,9.0554288 L 35.61432,7.1519139 L 39.154131,10.691725 L 42.693942,14.231536 L 38.991236,17.990768 C 36.954748,20.058346 35.087968,21.75 34.842837,21.75 C 34.597705,21.75 33.814426,19.322012 33.102216,16.354472 z M 5.7288697,9.2968103 C 5.9456168,8.1713332 12.357143,3.6861335 12.357143,4.6599848 C 12.357143,4.8097892 10.805042,6.2297518 8.9080303,7.8154575 C 6.2905634,10.003388 5.5240082,10.360571 5.7288697,9.2968103 z M 38.576552,7.4184572 L 35.232143,4.4007325 L 38.384906,6.0689485 C 41.128391,7.520604 42.898083,9.4590592 42.156706,10.200437 C 42.027046,10.330096 40.415977,9.0782055 38.576552,7.4184572 z M 15.357143,7.875 L 13.595672,6 L 15.357143,4.125 C 16.987173,2.3899127 17.630771,2.25 23.982143,2.25 C 30.333515,2.25 30.977113,2.3899127 32.607143,4.125 L 34.368614,6 L 32.607143,7.875 C 30.977113,9.6100875 30.333515,9.75 23.982143,9.75 C 17.630771,9.75 16.987173,9.6100875 15.357143,7.875 z "
         id="path2186" />
      <path
         style="fill:#75cc21"
         d="M 20.375932,43.037767 C 18.54406,40.198245 13.671244,32.565895 9.5474531,26.07699 L 2.0496503,14.278981 L 3.1676119,10.262387 C 4.2850444,6.2476941 4.2885534,6.2443153 10.582381,3.1228966 C 16.632957,0.12211793 17.156943,-5.415784e-15 23.982143,-4.733193e-15 C 30.807343,-4.050602e-15 31.331328,0.12211793 37.381905,3.1228966 L 43.678712,6.2457932 L 44.811188,10.314534 L 45.943664,14.383274 L 35.481914,30.629137 C 29.727951,39.564362 24.724614,47.173245 24.363387,47.537767 C 23.985551,47.919048 22.292031,46.007843 20.375932,43.037767 z M 43.984382,15 C 44.418786,14.287329 44.303664,12.640712 43.670283,10.507367 C 42.754656,7.4233687 42.199287,6.8748452 37.076295,3.9946643 C 31.597204,0.9142824 31.331396,0.84857003 24.152995,0.79979715 C 17.065788,0.75164385 16.629064,0.84793477 10.923277,3.7167482 C 5.1023407,6.6434578 5.0105401,6.7342177 4.1211062,10.441794 L 3.2195046,14.200091 L 13.518327,30.645479 L 23.817151,47.090867 L 33.557898,31.607934 C 38.915309,23.09232 43.607227,15.61875 43.984382,15 z M 22.625984,41.25 C 21.990217,39.80625 20.115447,35.594819 18.459829,31.891265 C 16.80421,28.18771 15.572748,25.034395 15.723246,24.883898 C 16.185036,24.422107 26.407279,30.036042 27.694434,31.458332 C 28.816188,32.697857 28.717682,33.199173 26.343158,38.335162 L 23.781922,43.875 L 22.625984,41.25 z M 12.140732,26.177591 C 8.3172678,20.191078 8.0890428,19.626545 10.090563,21.106332 C 11.98504,22.50698 17.365047,31.992096 16.663146,32.693997 C 16.542143,32.815 14.507057,29.882618 12.140732,26.177591 z M 31.107143,32.115632 C 31.107143,30.550554 35.214816,23.187964 37.090649,21.390802 C 38.33722,20.196511 39.357143,19.440733 39.357143,19.711295 C 39.357143,20.235315 32.830965,30.637527 31.74936,31.8375 C 31.39614,32.229375 31.107143,32.354534 31.107143,32.115632 z M 8.7879188,17.897995 L 4.8436947,14.130789 L 8.4129188,10.845173 C 10.375992,9.038085 12.176437,7.5461573 12.413907,7.5297788 C 12.651378,7.5134003 13.562224,8.262735 14.43801,9.1949663 C 15.993554,10.850767 16.002834,11.002408 14.839633,15.757466 C 14.18474,18.43461 13.442643,20.859045 13.19053,21.1451 C 12.938418,21.431155 10.957242,19.969957 8.7879188,17.897995 z M 33.102216,16.354472 L 31.80729,10.958945 L 33.710805,9.0554288 L 35.61432,7.1519139 L 39.154131,10.691725 L 42.693942,14.231536 L 38.991236,17.990768 C 36.954748,20.058346 35.087968,21.75 34.842837,21.75 C 34.597705,21.75 33.814426,19.322012 33.102216,16.354472 z M 15.636962,18.9375 C 15.846457,18.215625 16.388459,16.190625 16.841411,14.4375 L 17.664959,11.25 L 23.918751,11.25 L 30.172542,11.25 L 31.306095,15.75 L 32.439647,20.25 L 23.847854,20.25 C 16.02009,20.25 15.289933,20.133286 15.636962,18.9375 z M 5.7284134,9.3850313 C 5.8818092,8.5398097 7.4556592,7.1122856 9.3654821,6.0861131 C 11.217146,5.0911906 12.394643,4.581363 11.982143,4.9531628 C 11.569643,5.3249626 9.9329621,6.8094759 8.345074,8.2520812 C 6.0023627,10.380448 5.5089907,10.594066 5.7284134,9.3850313 z M 38.964573,7.817022 L 35.982143,5.2239047 L 38.761672,6.4851391 C 41.153861,7.570614 42.895035,9.4621072 42.169727,10.187416 C 42.047229,10.309914 40.60491,9.243237 38.964573,7.817022 z M 15.357143,7.875 L 13.595672,6 L 15.357143,4.125 C 16.987173,2.3899127 17.630771,2.25 23.982143,2.25 C 30.333515,2.25 30.977113,2.3899127 32.607143,4.125 L 34.368614,6 L 32.607143,7.875 C 30.977113,9.6100875 30.333515,9.75 23.982143,9.75 C 17.630771,9.75 16.987173,9.6100875 15.357143,7.875 z "
         id="path2184" />
      <path
         style="fill:#57a70b"
         d="M 23.065752,47.0625 C 22.666969,46.546875 22.103764,45.61875 21.814184,45 C 21.524604,44.38125 21.84842,44.630909 22.533774,45.554798 C 23.761674,47.210062 23.932694,46.992624 34.243477,30.666839 L 44.707082,14.099083 L 43.785777,10.504343 C 42.900819,7.0514139 42.63645,6.7881071 37.084307,3.8298018 C 31.464162,0.8352633 31.103699,0.75 24.063993,0.75 C 17.115991,0.75 16.583958,0.87061365 10.878747,3.7391377 C 5.5334514,6.4266997 4.854542,7.0131258 4.1495777,9.5516377 C 3.7183395,11.104487 3.363626,12.85715 3.3613255,13.446444 C 3.359025,14.035738 6.9502223,20.279488 11.341764,27.321444 C 22.057839,44.504962 21.740036,43.975575 20.82901,43.125 C 19.139125,41.547247 2.6071428,14.996135 2.6071428,13.859856 C 2.6071428,13.202262 2.9687849,11.22802 3.4107917,9.4726507 C 4.1763353,6.4324016 4.5146928,6.1321617 10.546815,3.1405358 C 16.637261,0.11998353 17.150555,-5.4164228e-15 23.982143,-4.733193e-15 C 30.813731,-4.0499633e-15 31.327025,0.11998353 37.417471,3.1405358 C 43.449593,6.1321617 43.78795,6.4324016 44.553494,9.4726507 C 44.995501,11.22802 45.357143,13.208397 45.357143,13.87349 C 45.357143,14.881217 24.627511,48 23.996757,48 C 23.883486,48 23.464533,47.578125 23.065752,47.0625 z M 22.990403,41.762013 C 22.503915,40.59987 21.730954,38.91237 21.272712,38.012013 C 20.536149,36.564807 20.6743,36.602014 22.464213,38.332914 C 23.855046,39.677891 24.392779,40.851851 24.181904,42.082914 C 23.876523,43.865688 23.870331,43.864021 22.990403,41.762013 z M 12.010719,25.697507 C 9.1489957,21.038532 8.8411015,20.249688 10.469965,21.75 C 12.479641,23.60107 16.499678,30.607465 15.89756,31.209583 C 15.726822,31.38032 13.977744,28.899886 12.010719,25.697507 z M 31.857143,30.350067 C 31.857143,29.225312 35.65259,22.687424 37.026078,21.446259 C 39.426653,19.276963 38.934126,20.768549 35.519049,26.010211 C 32.646167,30.41968 31.857143,31.354781 31.857143,30.350067 z M 8.9560264,17.973484 L 5.2703439,14.231536 L 8.8101548,10.691725 L 12.349966,7.1519139 L 14.225295,9.0272423 L 16.100623,10.902572 L 14.627959,16.05221 C 13.817994,18.884511 13.039738,21.317405 12.898502,21.458641 C 12.757266,21.599877 10.983152,20.031557 8.9560264,17.973484 z M 33.516604,17.325567 C 32.813549,14.279763 32.875131,13.12496 33.876561,10.575567 C 34.541025,8.884005 35.300712,7.5 35.564754,7.5 C 35.828796,7.5 37.549476,9.037404 39.388487,10.916453 L 42.732143,14.332906 L 39.2133,17.666453 C 37.277937,19.499904 35.395277,21 35.029611,21 C 34.663946,21 33.983093,19.346505 33.516604,17.325567 z M 16.867384,15.5625 C 16.873017,15.046875 17.08113,13.865625 17.329857,12.9375 C 17.752596,11.360057 18.186453,11.25 23.982143,11.25 C 29.777832,11.25 30.21169,11.360057 30.634428,12.9375 C 31.573875,16.443033 31.467499,16.5 23.982143,16.5 C 18.776681,16.5 16.859902,16.247429 16.867384,15.5625 z M 5.9019012,9.3136597 C 6.1522841,8.6611717 6.3571428,7.9948387 6.3571428,7.8329197 C 6.3571428,7.671 7.4540178,6.9840675 8.7946428,6.3064031 L 11.232143,5.0742861 L 8.6475177,7.7871427 C 5.8030291,10.772756 5.2169536,11.098604 5.9019012,9.3136597 z M 39.684961,8.1880117 L 37.482143,5.876024 L 39.481077,6.7794359 C 40.580491,7.2763123 41.645769,8.3167073 41.848362,9.0914235 C 42.328433,10.927217 42.272616,10.903908 39.684961,8.1880117 z M 15.413907,7.9496003 L 13.595672,6 L 15.357143,4.125 C 16.849224,2.5367529 17.79395,2.25 21.534456,2.25 C 25.985357,2.25 32.992656,4.0534848 33.834554,5.415705 C 34.084596,5.820282 33.579727,6.860749 32.712622,7.7278538 C 31.392154,9.0483225 30.006835,9.3527153 24.184106,9.6018038 C 17.485232,9.8883728 17.165949,9.8282242 15.413907,7.9496003 z "
         id="path2182" />
      <path
         style="fill:#4e9a06"
         d="M 28.499805,40.075459 C 29.197073,38.810711 30.434617,36.954461 31.249903,35.950459 L 32.732241,34.125 L 31.464481,36.424541 C 30.767213,37.689289 29.529669,39.545539 28.714383,40.549541 L 27.232044,42.375 L 28.499805,40.075459 z M 33.478743,32.25 C 34.109468,31.21875 36.918213,26.71559 39.7204,22.242977 L 44.815285,14.110954 L 43.667327,9.9865898 C 43.035951,7.71819 42.774306,6.1463506 43.085895,6.4936133 C 43.889613,7.3893473 45.357143,11.968317 45.357143,13.580336 C 45.357143,14.832289 34.959738,31.672391 33.135535,33.375 C 32.693576,33.7875 32.84802,33.28125 33.478743,32.25 z M 13.71031,28.3125 C 13.122169,27.384375 11.851853,25.275 10.887384,23.625 L 9.1338063,20.625 L 11.088922,22.5 C 12.164235,23.53125 13.569015,25.640625 14.210655,27.1875 C 15.523785,30.353213 15.309212,30.83567 13.71031,28.3125 z M 9.3571428,25.5 C 8.9156162,24.675 8.7231172,24 8.9293672,24 C 9.1356172,24 9.6656163,24.675 10.107143,25.5 C 10.548669,26.325 10.741169,27 10.534919,27 C 10.328669,27 9.7986693,26.325 9.3571428,25.5 z M 34.857143,24.880736 C 34.857143,24.54014 35.760824,23.443265 36.865322,22.443236 L 38.873502,20.625 L 37.189251,23.0625 C 35.489577,25.522322 34.857143,26.015402 34.857143,24.880736 z M 5.4517145,19.3125 C 3.6558757,16.501148 3.1718154,15.285052 4.4814806,16.875 C 5.9452213,18.651997 7.2904464,21 6.8447881,21 C 6.6714664,21 6.0445832,20.240625 5.4517145,19.3125 z M 8.8505609,17.749717 L 5.2321428,14.311272 L 8.650687,10.87196 L 12.069231,7.4326485 L 14.006844,8.9567752 L 15.944458,10.480902 L 14.796688,15.177951 C 14.165415,17.761328 13.383432,20.170462 13.058949,20.531582 C 12.734466,20.892702 10.840691,19.640863 8.8505609,17.749717 z M 36.737097,17.567553 C 38.178122,15.679707 39.357143,13.823457 39.357143,13.442553 C 39.357143,12.444468 41.41923,12.589187 42.064048,13.632526 C 42.569139,14.44978 36.03904,20.946825 34.674597,20.984575 C 34.367946,20.993059 35.296071,19.455399 36.737097,17.567553 z M 23.044643,12.94312 C 19.751219,12.786347 17.607143,12.359378 17.607143,11.860301 C 17.607143,11.298762 19.075476,11.189787 22.217161,11.518158 C 24.752671,11.783171 27.621421,12 28.592161,12 C 29.562901,12 30.357143,12.3375 30.357143,12.75 C 30.357143,13.1625 29.935268,13.432939 29.419643,13.350977 C 28.904018,13.269015 26.035268,13.085479 23.044643,12.94312 z M 3.4163534,10.1875 C 3.3837875,9.3968752 3.5610491,8.9539065 3.8102678,9.2031248 C 4.0594865,9.4523438 4.0861313,10.099219 3.8694783,10.640625 C 3.6300586,11.238925 3.4523413,11.061207 3.4163534,10.1875 z M 40.482143,9 C 39.340344,7.7383268 39.307977,7.5 40.278429,7.5 C 40.913001,7.5 41.608713,8.175 41.824455,9 C 42.040197,9.825 42.131868,10.5 42.028169,10.5 C 41.924469,10.5 41.228757,9.825 40.482143,9 z M 6.0469402,8.7265875 C 6.2629364,8.1637103 7.349219,7.2902048 8.4609017,6.7854634 L 10.482143,5.8677519 L 8.6639073,7.8088762 C 6.6914893,9.9146033 5.4199475,10.360505 6.0469402,8.7265875 z M 15.372066,7.8908858 C 13.659202,6.0676246 13.648363,5.9738097 14.980526,4.501787 C 16.183918,3.1720535 16.496152,3.1195675 17.54681,4.0703991 C 18.204717,4.6657975 20.428062,5.2591546 22.487574,5.3889708 C 27.426388,5.7002762 27.280827,7.0196507 22.251931,7.5248468 C 20.062815,7.7447618 18.015664,8.3389988 17.702707,8.8453733 C 17.291618,9.5105303 16.644777,9.2456242 15.372066,7.8908858 z M 4.1071428,7.5442628 C 4.1071428,7.1561072 4.4407769,6.6323282 4.848552,6.3803094 C 5.2736971,6.1175553 5.3994326,6.4186028 5.1433104,7.0860467 C 4.6447172,8.3853593 4.1071428,8.6230867 4.1071428,7.5442628 z M 7.8571428,4.8965928 C 7.8571428,4.6903428 9.8725181,3.5042344 12.335755,2.2607964 C 16.386546,0.21596357 17.499884,-2.8304733e-19 23.990634,4.2511567e-16 C 29.710883,8.000163e-16 31.769518,0.30743283 34.137021,1.5152429 C 35.770588,2.3486265 37.107143,3.1992358 37.107143,3.4054858 C 37.107143,3.6117358 35.770588,3.0986265 34.137021,2.2652429 C 31.769518,1.0574328 29.710883,0.75 23.990634,0.75 C 17.499884,0.75 16.386546,0.96596355 12.335755,3.0107964 C 9.8725181,4.2542344 7.8571428,5.1028428 7.8571428,4.8965928 z "
         id="path2180" />
    </g>
  </g>
</svg>
