<?xml version="1.0" encoding="UTF-8" standalone="no"?>
<!-- Created with Inkscape (http://www.inkscape.org/) -->
<svg
   xmlns:dc="http://purl.org/dc/elements/1.1/"
   xmlns:cc="http://creativecommons.org/ns#"
   xmlns:rdf="http://www.w3.org/1999/02/22-rdf-syntax-ns#"
   xmlns:svg="http://www.w3.org/2000/svg"
   xmlns="http://www.w3.org/2000/svg"
   xmlns:xlink="http://www.w3.org/1999/xlink"
   xmlns:sodipodi="http://sodipodi.sourceforge.net/DTD/sodipodi-0.dtd"
   xmlns:inkscape="http://www.inkscape.org/namespaces/inkscape"
   width="217"
   height="203"
   id="svg4424"
   sodipodi:version="0.32"
   inkscape:version="0.46"
   version="1.0"
   sodipodi:docname="2.svg"
   inkscape:output_extension="org.inkscape.output.svg.inkscape">
  <defs
     id="defs4426">
    <linearGradient
       inkscape:collect="always"
       id="linearGradient3884">
      <stop
         style="stop-color:#f8fefd;stop-opacity:1;"
         offset="0"
         id="stop3886" />
      <stop
         style="stop-color:#f8fefd;stop-opacity:0;"
         offset="1"
         id="stop3888" />
    </linearGradient>
    <linearGradient
       inkscape:collect="always"
       xlink:href="#linearGradient3884"
       id="linearGradient3890"
       x1="37.395267"
       y1="106.34793"
       x2="73.228287"
       y2="143.09486"
       gradientUnits="userSpaceOnUse" />
    <linearGradient
       inkscape:collect="always"
       xlink:href="#linearGradient2797"
       id="linearGradient2509"
       gradientUnits="userSpaceOnUse"
       x1="5.9649176"
       y1="26.048164"
       x2="52.854097"
       y2="26.048164" />
    <linearGradient
       inkscape:collect="always"
       id="linearGradient2797">
      <stop
         style="stop-color:#ffffff;stop-opacity:1;"
         offset="0"
         id="stop2799" />
      <stop
         style="stop-color:#ffffff;stop-opacity:0;"
         offset="1"
         id="stop2801" />
    </linearGradient>
    <linearGradient
       inkscape:collect="always"
       xlink:href="#linearGradient2797"
       id="linearGradient2507"
       gradientUnits="userSpaceOnUse"
       x1="5.9649176"
       y1="26.048164"
       x2="52.854097"
       y2="26.048164" />
    <linearGradient
       id="linearGradient2682">
      <stop
         style="stop-color:#3977c3;stop-opacity:1;"
         offset="0"
         id="stop2684" />
      <stop
         style="stop-color:#89aedc;stop-opacity:0;"
         offset="1"
         id="stop2686" />
    </linearGradient>
    <linearGradient
       inkscape:collect="always"
       xlink:href="#linearGradient2682"
       id="linearGradient2522"
       gradientUnits="userSpaceOnUse"
       x1="36.713837"
       y1="31.455952"
       x2="37.124462"
       y2="24.842253"
       gradientTransform="matrix(1.1129548,0,0,1.1129548,-2.7671001,-2.4797732)" />
    <linearGradient
       inkscape:collect="always"
       id="linearGradient3319">
      <stop
         style="stop-color:#000000;stop-opacity:1;"
         offset="0"
         id="stop3321" />
      <stop
         style="stop-color:#000000;stop-opacity:0;"
         offset="1"
         id="stop3323" />
    </linearGradient>
    <linearGradient
       inkscape:collect="always"
       xlink:href="#linearGradient3319"
       id="linearGradient3325"
       x1="28.256515"
       y1="29.38137"
       x2="44.910089"
       y2="29.38137"
       gradientUnits="userSpaceOnUse" />
    <linearGradient
       inkscape:collect="always"
       id="linearGradient2847">
      <stop
         style="stop-color:#3465a4;stop-opacity:1;"
         offset="0"
         id="stop2849" />
      <stop
         style="stop-color:#3465a4;stop-opacity:0;"
         offset="1"
         id="stop2851" />
    </linearGradient>
    <linearGradient
       inkscape:collect="always"
       xlink:href="#linearGradient2847"
       id="linearGradient2529"
       gradientUnits="userSpaceOnUse"
       gradientTransform="matrix(-1.1129548,0,0,-1.1129548,50.129315,48.546322)"
       x1="37.128052"
       y1="29.729605"
       x2="37.065414"
       y2="26.194071" />
    <linearGradient
       inkscape:collect="always"
       id="linearGradient8662">
      <stop
         style="stop-color:#000000;stop-opacity:1;"
         offset="0"
         id="stop8664" />
      <stop
         style="stop-color:#000000;stop-opacity:0;"
         offset="1"
         id="stop8666" />
    </linearGradient>
    <radialGradient
       inkscape:collect="always"
       xlink:href="#linearGradient8662"
       id="radialGradient1503"
       gradientUnits="userSpaceOnUse"
       gradientTransform="matrix(1,0,0,0.536723,0,16.87306)"
       cx="24.837126"
       cy="36.421127"
       fx="24.837126"
       fy="36.421127"
       r="15.644737" />
    <linearGradient
       id="linearGradient5825-657-108-749"
       inkscape:collect="always">
      <stop
         id="stop3830"
         offset="0"
         style="stop-color:#ffffff;stop-opacity:1;" />
      <stop
         id="stop3832"
         offset="1"
         style="stop-color:#ffffff;stop-opacity:0;" />
    </linearGradient>
    <linearGradient
       inkscape:collect="always"
       xlink:href="#linearGradient5825-657-108-749"
       id="linearGradient3092"
       gradientUnits="userSpaceOnUse"
       x1="130.8455"
       y1="4.1470113"
       x2="94.44487"
       y2="199.92337"
       gradientTransform="matrix(1.0069047,0,0,1,-24.022448,-9.2354855)" />
    <linearGradient
       id="linearGradient6423-802-41-653">
      <stop
         id="stop3836"
         offset="0"
         style="stop-color:#ffffff;stop-opacity:1;" />
      <stop
         id="stop3838"
         offset="1"
         style="stop-color:#ffffff;stop-opacity:0;" />
    </linearGradient>
    <linearGradient
       inkscape:collect="always"
       xlink:href="#linearGradient6423-802-41-653"
       id="linearGradient2772"
       gradientUnits="userSpaceOnUse"
       gradientTransform="matrix(-0.7321061,0,0,-1.0886946,302.27388,261.79011)"
       x1="98.380074"
       y1="13.493117"
       x2="182.49374"
       y2="234.84828" />
    <filter
       id="filter10611"
       height="1.0334942"
       y="-0.016747089"
       width="1.2875712"
       x="-0.1437856"
       inkscape:collect="always">
      <feGaussianBlur
         id="feGaussianBlur10613"
         stdDeviation="1.5777183"
         inkscape:collect="always" />
    </filter>
    <inkscape:perspective
       sodipodi:type="inkscape:persp3d"
       inkscape:vp_x="0 : 526.18109 : 1"
       inkscape:vp_y="0 : 1000 : 0"
       inkscape:vp_z="744.09448 : 526.18109 : 1"
       inkscape:persp3d-origin="372.04724 : 350.78739 : 1"
       id="perspective4432" />
  </defs>
  <sodipodi:namedview
     id="base"
     pagecolor="#ffffff"
     bordercolor="#666666"
     borderopacity="1.0"
     inkscape:pageopacity="0.0"
     inkscape:pageshadow="2"
     inkscape:zoom="0.35"
     inkscape:cx="375"
     inkscape:cy="520"
     inkscape:document-units="px"
     inkscape:current-layer="layer1"
     showgrid="false"
     inkscape:window-width="982"
     inkscape:window-height="716"
     inkscape:window-x="0"
     inkscape:window-y="308" />
  <metadata
     id="metadata4429">
    <rdf:RDF>
      <cc:Work
         rdf:about="">
        <dc:format>image/svg+xml</dc:format>
        <dc:type
           rdf:resource="http://purl.org/dc/dcmitype/StillImage" />
      </cc:Work>
    </rdf:RDF>
  </metadata>
  <g
     inkscape:label="Calque 1"
     inkscape:groupmode="layer"
     id="layer1">
    <g
       id="g4400"
       transform="translate(2.291e-4,2.1481187e-4)">
      <path
         style="opacity:0.3;fill:#ffffff;fill-opacity:1;fill-rule:evenodd;stroke:none;stroke-width:1px;stroke-linecap:butt;stroke-linejoin:miter;stroke-opacity:1;filter:url(#filter10611)"
         d="M 181.91309,17.172788 L 170.04663,19.017358 C 170.04663,19.017358 179.78028,19.595168 179.89884,22.130641 L 182.24246,205.58979 L 183.4781,197.49245 L 184.64864,25.896281 C 184.64864,23.452371 191.99206,21.63064 191.99206,21.63064 L 181.91309,17.172788 z"
         id="path5671"
         sodipodi:nodetypes="cccccccc"
         transform="matrix(1.0886946,0,0,1.0886946,-30.289838,-16.915709)" />
      <path
         style="fill:#171717;fill-opacity:1;fill-rule:evenodd;stroke:#171717;stroke-width:1px;stroke-linecap:butt;stroke-linejoin:miter;stroke-opacity:1"
         d="M 167.57935,0.23313833 L 1.5480967,23.639388 L 2.1105967,174.45188 L 166.4856,198.38938 L 214.95435,177.17063 L 214.95435,25.295638 L 167.57935,0.23313833 z M 133.1731,21.358138 L 149.26685,53.358138 L 59.610597,159.29563 L 22.048097,103.63938 L 30.579347,90.670643 L 59.610597,127.29563 L 133.1731,21.358138 z"
         id="path4724" />
      <path
         sodipodi:nodetypes="cccsccc"
         id="path5801"
         d="M 168.6691,3.3612319 L 168.6691,4.2117719 L 168.6691,117.94633 C 168.6691,117.94633 172.02987,108.97591 179.82822,102.67059 C 187.58665,96.397532 207.50508,104.86701 215.75514,107.50167 L 215.75514,28.265112 L 168.6691,3.3612319 z"
         style="opacity:0.3;fill:url(#linearGradient2772);fill-opacity:1;fill-rule:evenodd;stroke:none;stroke-width:1px;stroke-linecap:butt;stroke-linejoin:miter;stroke-opacity:1" />
      <path
         style="opacity:0.3;fill:#ffffff;fill-opacity:1;fill-rule:evenodd;stroke:none;stroke-width:1px;stroke-linecap:butt;stroke-linejoin:miter;stroke-opacity:1;filter:url(#filter10611)"
         d="M 181.91309,17.172788 L 170.04663,19.017358 C 170.04663,19.017358 179.78028,19.595168 179.89884,22.130641 L 182.24246,205.58979 L 183.4781,197.49245 L 184.64864,25.896281 C 184.64864,23.452371 191.99206,21.63064 191.99206,21.63064 L 181.91309,17.172788 z"
         id="path5835"
         sodipodi:nodetypes="cccccccc"
         transform="matrix(1.0886946,0,0,1.0886946,-30.289749,-16.915772)" />
      <path
         id="path2781"
         d="M 119.13415,13.347366 L 15.203657,31.833147 L 15.555764,150.9418 L 118.4495,169.84716 L 148.78946,153.08902 L 148.78946,33.14122 L 119.13415,13.347366 z M 97.596884,30.031463 L 107.67108,55.304415 L 51.549009,138.97172 L 28.036031,95.015524 L 33.376334,84.773077 L 51.549009,113.69875 L 97.596884,30.031463 z"
         style="fill:#171717;fill-opacity:1;fill-rule:evenodd;stroke:#171717;stroke-width:0.70312017px;stroke-linecap:butt;stroke-linejoin:miter;stroke-opacity:1" />
      <path
         style="fill:#171717;fill-opacity:1;fill-rule:evenodd;stroke:#171717;stroke-width:0.33799341px;stroke-linecap:butt;stroke-linejoin:miter;stroke-opacity:1"
         d="M 53.534646,72.440802 L 15.021093,83.968022 L 15.151574,158.24087 L 53.280936,170.02973 L 64.524024,159.57982 L 64.524024,84.783699 L 53.534646,72.440802 z M 45.553576,82.844542 L 49.286773,98.604052 L 28.489602,150.77666 L 19.77639,123.3668 L 21.755347,116.97989 L 28.489602,135.01714 L 45.553576,82.844542 z"
         id="path2783" />
      <path
         id="path2785"
         d="M 54.617313,42.667469 L 16.10376,54.194689 L 16.234241,128.46754 L 54.363603,140.2564 L 65.606691,129.80649 L 65.606691,55.010366 L 54.617313,42.667469 z M 46.636243,53.071209 L 50.36944,68.830719 L 29.572269,121.00333 L 20.859057,93.593467 L 22.838014,87.206557 L 29.572269,105.24381 L 46.636243,53.071209 z"
         style="fill:#171717;fill-opacity:1;fill-rule:evenodd;stroke:#171717;stroke-width:0.33799341px;stroke-linecap:butt;stroke-linejoin:miter;stroke-opacity:1" />
      <path
         style="opacity:0.3;fill:url(#linearGradient3092);fill-opacity:1;fill-rule:evenodd;stroke:none;stroke-width:1px;stroke-linecap:butt;stroke-linejoin:miter;stroke-opacity:1"
         d="M 166.21961,0.38951448 L 107.75621,8.3895145 L -1.2412291,23.639514 L -0.95803717,100.54576 C 6.204781,101.02202 9.5729977,102.52277 20.564551,103.77216 L 26.063357,103.6853 L 41.214254,107.04171 C 29.253645,102.90113 52.998961,104.74114 73.808331,103.64703 L 85.424567,104.42163 L 94.309037,104.26807 L 103.66566,104.79576 C 117.96918,104.93703 132.29336,104.89859 146.5535,104.57701 C 164.74467,104.20338 166.2196,88.983264 166.21961,88.983264 L 166.21961,1.2332645 L 166.21961,0.38951448 z"
         id="path5812"
         sodipodi:nodetypes="ccccccccccccccc" />
      <g
         transform="matrix(2.8407146,0,0,2.8407146,14.462295,32.151427)"
         id="g2787">
        <path
           transform="matrix(-1.489736,0,0,-1.001252,61.20865,75.2819)"
           d="M 40.481863,36.421127 A 15.644737,8.3968935 0 1 1 9.1923885,36.421127 A 15.644737,8.3968935 0 1 1 40.481863,36.421127 z"
           sodipodi:ry="8.3968935"
           sodipodi:rx="15.644737"
           sodipodi:cy="36.421127"
           sodipodi:cx="24.837126"
           id="path8660"
           style="opacity:0.38333333;fill:url(#radialGradient1503);fill-opacity:1;fill-rule:evenodd;stroke:none;stroke-width:1;stroke-linecap:butt;stroke-linejoin:miter;marker:none;marker-start:none;marker-mid:none;marker-end:none;stroke-miterlimit:10;stroke-dasharray:none;stroke-dashoffset:0;stroke-opacity:1;visibility:visible;display:inline;overflow:visible"
           sodipodi:type="arc"
           inkscape:r_cx="true"
           inkscape:r_cy="true" />
        <path
           style="fill:#000000;fill-opacity:1;fill-rule:nonzero;stroke:url(#linearGradient2529);stroke-width:1.11295438;stroke-linecap:butt;stroke-linejoin:miter;marker:none;marker-start:none;marker-mid:none;marker-end:none;stroke-miterlimit:4;stroke-dasharray:none;stroke-dashoffset:0;stroke-opacity:1;visibility:visible;display:block;overflow:visible"
           d="M 19.662181,9.1059794 C 19.662181,9.1059794 9.7151476,8.4103827 12.775773,20.096408 L 4.2199335,20.096408 C 4.2199335,20.096408 4.7764109,6.8800698 19.662181,9.1059794 z"
           id="path2865"
           inkscape:r_cx="true"
           inkscape:r_cy="true"
           sodipodi:nodetypes="cccc" />
        <g
           id="g1878"
           transform="matrix(-0.6444576,-0.5444887,-0.5444887,0.6444576,60.577668,12.401957)"
           inkscape:r_cx="true"
           inkscape:r_cy="true"
           style="fill:#000000;fill-opacity:1;stroke:#f9978e;stroke-opacity:1">
          <path
             sodipodi:nodetypes="ccccccc"
             id="path1880"
             d="M 44.306783,50.229694 C 62.821497,35.818859 49.664587,13.411704 22.462411,12.49765 L 22.113843,3.1515478 L 7.6245439,20.496754 L 22.714328,33.219189 C 22.714328,33.219189 22.462411,23.337969 22.462411,23.337969 C 41.292171,24.336946 55.444038,37.409698 44.306783,50.229694 z"
             style="opacity:1;fill:#000000;fill-opacity:1;fill-rule:nonzero;stroke:#f9978e;stroke-width:1.31916928;stroke-linecap:butt;stroke-linejoin:miter;marker:none;marker-start:none;marker-mid:none;marker-end:none;stroke-miterlimit:4;stroke-dasharray:none;stroke-dashoffset:0;stroke-opacity:1;visibility:visible;display:block;overflow:visible"
             inkscape:r_cx="true"
             inkscape:r_cy="true" />
        </g>
        <path
           sodipodi:nodetypes="cccc"
           inkscape:r_cy="true"
           inkscape:r_cx="true"
           id="path2839"
           d="M 28.812992,34.734653 C 28.812992,34.734653 38.760026,35.43025 35.6994,23.744224 L 44.353612,23.744224 C 44.353612,25.416552 43.698763,36.960563 28.812992,34.734653 z"
           style="fill:url(#linearGradient3325);fill-opacity:1;fill-rule:nonzero;stroke:url(#linearGradient2522);stroke-width:1.11295438;stroke-linecap:butt;stroke-linejoin:miter;marker:none;marker-start:none;marker-mid:none;marker-end:none;stroke-miterlimit:4;stroke-dasharray:none;stroke-dashoffset:0;stroke-opacity:1;visibility:visible;display:block;overflow:visible" />
        <g
           style="fill:#000000;fill-opacity:1;fill-rule:nonzero;stroke:#f9978e;stroke-width:1.31916928;stroke-linecap:butt;stroke-linejoin:miter;marker:none;marker-start:none;marker-mid:none;marker-end:none;stroke-miterlimit:4;stroke-dasharray:none;stroke-dashoffset:0;stroke-opacity:1;visibility:visible;display:block;overflow:visible"
           inkscape:r_cy="true"
           inkscape:r_cx="true"
           transform="matrix(0.6444576,0.5444887,0.5444887,-0.6444576,-11.582841,31.505403)"
           id="g2779">
          <path
             inkscape:r_cy="true"
             inkscape:r_cx="true"
             style="opacity:1;fill:#000000;fill-opacity:1;fill-rule:nonzero;stroke:#f9978e;stroke-width:1.31916928;stroke-linecap:butt;stroke-linejoin:miter;marker:none;marker-start:none;marker-mid:none;marker-end:none;stroke-miterlimit:4;stroke-dasharray:none;stroke-dashoffset:0;stroke-opacity:1;visibility:visible;display:block;overflow:visible"
             d="M 44.306783,50.229694 C 62.821497,35.818859 49.664587,13.411704 22.462411,12.49765 L 22.399432,3.0690297 L 7.793943,20.424005 L 22.462411,33.006349 C 22.462411,33.006349 22.462411,23.337969 22.462411,23.337969 C 41.292171,24.336946 55.444038,37.409698 44.306783,50.229694 z"
             id="path2829"
             sodipodi:nodetypes="ccccccc" />
        </g>
        <g
           id="g2793"
           transform="matrix(0.5659776,0.4781821,0.4781821,-0.5659776,-7.1890788,31.511191)"
           inkscape:r_cx="true"
           inkscape:r_cy="true"
           style="opacity:0.5;fill:none;fill-opacity:1;stroke:#ffffff;stroke-opacity:1">
          <path
             sodipodi:nodetypes="ccccccc"
             id="path2795"
             d="M 51.090265,45.943705 C 60.210465,30.723955 46.631614,12.20113 19.485058,11.948579 L 19.513464,3.7032834 L 6.5341979,19.296639 L 19.367661,30.26876 C 19.367661,30.26876 19.423281,21.261882 19.423281,21.261882 C 36.951096,21.037973 54.618466,31.365254 51.090265,45.943705 z"
             style="opacity:1;fill:none;fill-opacity:1;fill-rule:nonzero;stroke:url(#linearGradient2507);stroke-width:1.50208926;stroke-linecap:butt;stroke-linejoin:miter;marker:none;marker-start:none;marker-mid:none;marker-end:none;stroke-miterlimit:4;stroke-dasharray:none;stroke-dashoffset:0;stroke-opacity:1;visibility:visible;display:block;overflow:visible"
             inkscape:r_cx="true"
             inkscape:r_cy="true" />
        </g>
        <g
           style="opacity:0.5;fill:none;fill-opacity:1;stroke:#ffffff;stroke-opacity:1"
           inkscape:r_cy="true"
           inkscape:r_cx="true"
           transform="matrix(-0.5659776,-0.4781821,-0.4781821,0.5659776,56.274039,12.395402)"
           id="g2805">
          <path
             inkscape:r_cy="true"
             inkscape:r_cx="true"
             style="opacity:1;fill:none;fill-opacity:1;fill-rule:nonzero;stroke:url(#linearGradient2509);stroke-width:1.50208926;stroke-linecap:butt;stroke-linejoin:miter;marker:none;marker-start:none;marker-mid:none;marker-end:none;stroke-miterlimit:4;stroke-dasharray:none;stroke-dashoffset:0;stroke-opacity:1;visibility:visible;display:block;overflow:visible"
             d="M 51.389927,46.505946 C 60.510127,31.286196 47.050763,12.432359 19.628482,12.069755 L 19.342824,4.0507204 L 6.3413093,19.379475 L 19.809059,30.764589 C 19.809059,30.764589 19.627294,21.311346 19.627294,21.311346 C 37.872231,21.693318 54.411175,32.236592 51.389927,46.505946 z"
             id="path2807"
             sodipodi:nodetypes="ccccccc" />
        </g>
        <path
           style="opacity:0.27222224;fill:#ffffff;fill-opacity:1;fill-rule:nonzero;stroke:none;stroke-width:0.99999982;stroke-linecap:round;stroke-linejoin:miter;marker:none;marker-start:none;marker-mid:none;marker-end:none;stroke-miterlimit:4;stroke-dasharray:none;stroke-dashoffset:0;stroke-opacity:1;visibility:visible;display:inline;overflow:visible"
           d="M 4.6381278,16.414311 C 8.6374585,4.7936468 22.939314,9.5756412 27.105903,11.406014 C 31.75283,11.641377 33.421627,8.2507832 37.122496,8.0671501 C 21.485775,-2.8286733 5.0554858,0.83294389 4.6381278,16.414311 z"
           id="path2811"
           inkscape:r_cx="true"
           inkscape:r_cy="true"
           sodipodi:nodetypes="cccc" />
      </g>
      <path
         sodipodi:nodetypes="cccccscccccc"
         id="path3104"
         d="M 31.248682,101.94595 L 30.324569,139.9885 L 41.321057,127.90936 L 46.316439,131.03726 L 49.761463,134.09952 C 49.761463,134.09952 55.508736,132.13846 58.948194,132.56839 C 68.134926,133.71673 70.814389,132.18561 70.814389,132.18561 L 75.407755,129.88893 L 62.056877,122.93321 L 50.322032,114.08282 L 61.310552,101.67528 L 31.248682,101.94595 z"
         style="opacity:0.37083333;fill:url(#linearGradient3890);fill-opacity:1;fill-rule:evenodd;stroke:none;stroke-width:1px;stroke-linecap:butt;stroke-linejoin:miter;stroke-opacity:1" />
    </g>
  </g>
</svg>
