<?xml version="1.0" encoding="UTF-8" standalone="no"?>
<!-- Created with Inkscape (http://www.inkscape.org/) -->
<svg
   xmlns:ns="http://creativecommons.org/ns#"
   xmlns:dc="http://purl.org/dc/elements/1.1/"
   xmlns:cc="http://web.resource.org/cc/"
   xmlns:rdf="http://www.w3.org/1999/02/22-rdf-syntax-ns#"
   xmlns:svg="http://www.w3.org/2000/svg"
   xmlns="http://www.w3.org/2000/svg"
   xmlns:xlink="http://www.w3.org/1999/xlink"
   xmlns:sodipodi="http://sodipodi.sourceforge.net/DTD/sodipodi-0.dtd"
   xmlns:inkscape="http://www.inkscape.org/namespaces/inkscape"
   id="svg2"
   sodipodi:version="0.32"
   inkscape:version="0.45.1"
   width="550"
   height="500"
   version="1.0"
   sodipodi:docname="scotch+frame.svg"
   inkscape:output_extension="org.inkscape.output.svg.inkscape"
   sodipodi:docbase="/opt/cairo-dock/trunk/plug-ins/rendering/data">
  <metadata
     id="metadata7">
    <rdf:RDF>
      <ns:Work
         rdf:about="">
        <dc:format>image/svg+xml</dc:format>
        <dc:type
           rdf:resource="http://purl.org/dc/dcmitype/StillImage" />
      </ns:Work>
      <cc:Work
         rdf:about="">
        <dc:format>image/svg+xml</dc:format>
        <dc:type
           rdf:resource="http://purl.org/dc/dcmitype/StillImage" />
      </cc:Work>
    </rdf:RDF>
  </metadata>
  <defs
     id="defs5">
    <linearGradient
       id="linearGradient3234">
      <stop
         style="stop-color:#d6d5d6;stop-opacity:0.25954199;"
         offset="0"
         id="stop3236" />
      <stop
         style="stop-color:#d6d5d6;stop-opacity:0;"
         offset="1"
         id="stop3238" />
    </linearGradient>
    <linearGradient
       id="linearGradient3187">
      <stop
         style="stop-color:#ffffff;stop-opacity:1;"
         offset="0"
         id="stop3189" />
      <stop
         id="stop3195"
         offset="0.5"
         style="stop-color:#f3f2f2;stop-opacity:1;" />
      <stop
         style="stop-color:#ebe9ea;stop-opacity:1;"
         offset="0.75"
         id="stop3197" />
      <stop
         style="stop-color:#cfcdce;stop-opacity:1;"
         offset="1"
         id="stop3191" />
    </linearGradient>
    <linearGradient
       id="linearGradient3177">
      <stop
         style="stop-color:#a7a7a7;stop-opacity:1;"
         offset="0"
         id="stop3179" />
      <stop
         style="stop-color:#757575;stop-opacity:1;"
         offset="1"
         id="stop3181" />
    </linearGradient>
    <linearGradient
       id="linearGradient3167">
      <stop
         style="stop-color:#d5d3d4;stop-opacity:1;"
         offset="0"
         id="stop3169" />
      <stop
         style="stop-color:#ebe9ea;stop-opacity:1;"
         offset="1"
         id="stop3171" />
    </linearGradient>
    <inkscape:perspective
       sodipodi:type="inkscape:persp3d"
       inkscape:vp_x="0 : 526.18109 : 1"
       inkscape:vp_y="0 : 1000 : 0"
       inkscape:vp_z="744.09448 : 526.18109 : 1"
       inkscape:persp3d-origin="372.04724 : 350.78739 : 1"
       id="perspective9" />
    <linearGradient
       inkscape:collect="always"
       xlink:href="#linearGradient3167"
       id="linearGradient3223"
       gradientUnits="userSpaceOnUse"
       gradientTransform="translate(-99.902428,28.056007)"
       x1="428.96875"
       y1="82.625"
       x2="428.96875"
       y2="432.00711" />
    <radialGradient
       inkscape:collect="always"
       xlink:href="#linearGradient3187"
       id="radialGradient3225"
       gradientUnits="userSpaceOnUse"
       gradientTransform="matrix(0.7265747,-0.2067624,0.3766377,1.323526,-56.063858,-50.943753)"
       cx="532.11432"
       cy="497.84561"
       fx="532.11432"
       fy="497.84561"
       r="24.330086" />
    <linearGradient
       inkscape:collect="always"
       xlink:href="#linearGradient3177"
       id="linearGradient3227"
       gradientUnits="userSpaceOnUse"
       gradientTransform="translate(118.84757,36.84507)"
       x1="405.16016"
       y1="452.3125"
       x2="380.96875"
       y2="487.27344" />
    <linearGradient
       inkscape:collect="always"
       xlink:href="#linearGradient3167"
       id="linearGradient3282"
       gradientUnits="userSpaceOnUse"
       gradientTransform="translate(-99.902428,28.056007)"
       x1="428.96875"
       y1="82.625"
       x2="428.96875"
       y2="432.00711" />
    <radialGradient
       inkscape:collect="always"
       xlink:href="#linearGradient3187"
       id="radialGradient3284"
       gradientUnits="userSpaceOnUse"
       gradientTransform="matrix(0.7265747,-0.2067624,0.3766377,1.323526,-56.063858,-50.943753)"
       cx="532.11432"
       cy="497.84561"
       fx="532.11432"
       fy="497.84561"
       r="24.330086" />
    <linearGradient
       inkscape:collect="always"
       xlink:href="#linearGradient3177"
       id="linearGradient3286"
       gradientUnits="userSpaceOnUse"
       gradientTransform="translate(118.84757,36.84507)"
       x1="405.16016"
       y1="452.3125"
       x2="380.96875"
       y2="487.27344" />
    <linearGradient
       inkscape:collect="always"
       xlink:href="#linearGradient3167"
       id="linearGradient3290"
       gradientUnits="userSpaceOnUse"
       gradientTransform="translate(757.46455,7.063775)"
       x1="428.96875"
       y1="82.625"
       x2="428.96875"
       y2="432.00711" />
    <linearGradient
       inkscape:collect="always"
       xlink:href="#linearGradient3167"
       id="linearGradient3293"
       gradientUnits="userSpaceOnUse"
       gradientTransform="translate(757.46455,7.063775)"
       x1="428.96875"
       y1="82.625"
       x2="428.96875"
       y2="432.00711" />
    <filter
       inkscape:collect="always"
       id="filter3317">
      <feGaussianBlur
         inkscape:collect="always"
         stdDeviation="10.441405"
         id="feGaussianBlur3319" />
    </filter>
    <radialGradient
       inkscape:collect="always"
       xlink:href="#linearGradient3234"
       id="radialGradient2240"
       gradientUnits="userSpaceOnUse"
       gradientTransform="matrix(0.5610294,0.3001513,-0.6586042,1.2310334,156.36426,-70.922281)"
       cx="109.95124"
       cy="164.13332"
       fx="109.95124"
       fy="164.13332"
       r="10.546199" />
    <radialGradient
       inkscape:collect="always"
       xlink:href="#linearGradient3234"
       id="radialGradient2242"
       gradientUnits="userSpaceOnUse"
       gradientTransform="matrix(2.9038412e-2,0.692509,-2.1977742,1.6975193,533.14996,-225.24846)"
       cx="109.95124"
       cy="164.13332"
       fx="109.95124"
       fy="164.13332"
       r="10.546199" />
    <radialGradient
       inkscape:collect="always"
       xlink:href="#linearGradient3234"
       id="radialGradient2249"
       gradientUnits="userSpaceOnUse"
       gradientTransform="matrix(0.5610294,0.3001513,-0.6586042,1.2310334,156.36426,-70.922281)"
       cx="109.95124"
       cy="164.13332"
       fx="109.95124"
       fy="164.13332"
       r="10.546199" />
    <radialGradient
       inkscape:collect="always"
       xlink:href="#linearGradient3234"
       id="radialGradient2251"
       gradientUnits="userSpaceOnUse"
       gradientTransform="matrix(2.9038412e-2,0.692509,-2.1977742,1.6975193,533.14996,-225.24846)"
       cx="109.95124"
       cy="164.13332"
       fx="109.95124"
       fy="164.13332"
       r="10.546199" />
  </defs>
  <sodipodi:namedview
     inkscape:window-height="624"
     inkscape:window-width="910"
     inkscape:pageshadow="2"
     inkscape:pageopacity="0.0"
     guidetolerance="10.0"
     gridtolerance="10.0"
     objecttolerance="10.0"
     borderopacity="1.0"
     bordercolor="#666666"
     pagecolor="#ffffff"
     id="base"
     showgrid="false"
     inkscape:zoom="0.90509668"
     inkscape:cx="-260.70437"
     inkscape:cy="515.84109"
     inkscape:window-x="5"
     inkscape:window-y="333"
     inkscape:current-layer="svg2"
     width="550px"
     height="500px" />
  <g
     id="g3219"
     transform="translate(-59.452423,-41.984465)">
    <path
       id="path2386"
       d="M 545.53507,107.14976 L 128.22257,107.21226 L 128.22257,525.14976 L 498.56632,525.14976 L 545.53507,478.18101 L 545.53507,107.14976 z M 146.19132,116.14976 L 523.78507,116.14976 L 523.78507,493.74351 L 146.19132,493.74351 L 146.19132,116.14976 z "
       style="fill:url(#linearGradient3223);fill-opacity:1;fill-rule:evenodd;stroke:#a7a7a7;stroke-width:3;stroke-linecap:butt;stroke-linejoin:miter;stroke-miterlimit:4;stroke-dasharray:none;stroke-opacity:1" />
    <path
       sodipodi:nodetypes="cccc"
       id="path3175"
       d="M 543.65226,478.61069 C 531.93598,489.087 511.35812,499.82954 495.99601,478.41538 C 495.75045,493.8009 507.1516,505.73336 499.51164,524.89975 L 543.65226,478.61069 z "
       style="fill:url(#radialGradient3225);fill-opacity:1;fill-rule:evenodd;stroke:url(#linearGradient3227);stroke-width:1px;stroke-linecap:butt;stroke-linejoin:miter;stroke-opacity:1" />
  </g>
  <path
     id="path3278"
     d="M 475.28458,77.317415 L 475.28458,86.317415 L 480.90958,86.317415 L 480.90958,463.91117 L 103.31592,463.91117 L 103.31592,461.69242 L 85.347167,461.69242 L 85.347167,495.31742 L 455.69088,495.31742 L 502.65958,448.34867 L 502.65958,77.317415 L 475.28458,77.317415 z "
     style="opacity:0.24923078;fill:#000000;fill-opacity:1;fill-rule:evenodd;stroke:none;stroke-width:3;stroke-linecap:butt;stroke-linejoin:miter;stroke-miterlimit:4;stroke-dasharray:none;stroke-opacity:1;filter:url(#filter3317)" />
  <g
     transform="matrix(-1.022111,0,0,1.022111,614.57557,-31.20413)"
     id="g3262">
    <path
       style="fill:#d6d5d6;fill-opacity:0.58823529;fill-rule:evenodd;stroke:#8c8c8c;stroke-width:1px;stroke-linecap:butt;stroke-linejoin:miter;stroke-opacity:0.58823529"
       d="M 227.04756,30.807775 L 62.976698,173.33398 C 64.405951,178.11309 67.293375,177.05951 70.158252,176.09612 C 68.294218,189.75065 78.924661,179.45743 85.073781,177.7534 C 63.700709,203.94709 82.704121,191.59958 91.702911,188.80194 C 76.567291,208.35698 84.939621,204.40408 89.493201,204.26991 C 88.264191,211.8984 92.695071,211.74452 97.227181,211.45146 C 94.192691,223.34669 100.48295,215.2603 102.19903,216.97573 L 261.85048,84.393211 C 260.65206,82.414427 262.54738,78.888773 257.43106,78.868939 C 261.1407,66.021919 255.0136,71.208936 250.24951,73.897095 C 252.40509,70.199069 252.12547,67.475121 246.93494,66.715541 C 245.31857,64.027811 253.62604,50.96517 237.54368,63.400978 C 236.3006,55.7567 241.46283,37.792769 228.15242,49.590299 C 224.81638,48.275713 223.76915,43.146439 227.04756,30.807775 z "
       id="path3264"
       sodipodi:nodetypes="ccccccccccccccc" />
    <path
       style="opacity:0.65230767;fill:url(#radialGradient2240);fill-opacity:1;fill-rule:evenodd;stroke:none;stroke-width:2.2218349;stroke-linecap:round;stroke-linejoin:round;stroke-miterlimit:4;stroke-opacity:0.2575251"
       d="M 112.49653,145.67083 C 111.55165,145.63287 110.67992,146.14068 110.08094,146.7729 C 109.91902,148.14799 111.07962,149.23434 111.29539,150.54356 C 111.68815,152.07971 111.66666,153.82706 110.66837,155.1761 C 108.85033,156.96484 106.36536,158.09262 104.70346,160.02845 C 103.86223,161.16462 104.01042,162.62761 104.38879,163.88544 C 104.68488,165.37813 105.42318,166.80816 105.35211,168.35005 C 105.2281,169.03825 105.04827,169.75924 104.58098,170.32521 C 103.71446,171.36192 102.34274,171.84505 101.24505,172.63331 C 100.34134,173.16639 99.919124,174.10308 99.575034,174.99074 C 99.129504,176.03262 99.596354,177.29624 100.54853,177.97122 C 102.48653,179.40628 104.23138,181.11414 106.48441,182.14785 C 108.25961,182.9245 110.41572,182.64734 112.038,181.68734 C 113.35366,180.92026 114.35299,179.78932 115.31369,178.68503 C 116.37588,177.3391 117.52822,176.03817 118.40584,174.58238 C 118.77202,173.95164 118.52275,173.20736 118.03922,172.69407 C 116.76657,171.42645 115.29366,170.34054 113.9039,169.18301 C 113.28563,168.74779 112.51106,168.10816 112.86563,167.31564 C 113.13712,166.54726 114.01862,166.18993 114.60884,165.65469 C 116.3555,164.38532 118.28239,163.30385 119.81173,161.80038 C 120.61144,160.73303 120.74011,159.26358 120.04692,158.12432 C 118.94066,155.79067 117.25357,153.62919 116.88178,151.05349 C 116.5792,149.61006 116.4964,147.97653 115.32447,146.85379 C 114.5838,146.16771 113.5517,145.72345 112.49653,145.67083 z "
       id="path3266" />
    <path
       id="path3268"
       d="M 202.83618,101.22358 C 202.14837,100.79856 200.77204,101.26711 199.43921,102.03823 C 197.4334,104.15594 196.85748,106.32645 195.23735,108.48555 C 193.44567,111.07277 191.04111,113.8349 188.41616,115.58837 C 184.54866,117.72246 181.06221,118.55113 177.11593,120.97871 C 174.90482,122.45531 173.02167,124.8321 171.59906,126.97249 C 169.7911,129.45349 168.41495,132.00586 166.25233,134.4231 C 165.21482,135.46637 164.08882,136.54007 162.94962,137.25699 C 160.85463,138.56612 159.1206,138.8025 157.18415,139.62847 C 155.74824,140.12475 154.13774,141.44684 152.65539,142.72138 C 150.8829,144.20127 149.52164,146.38501 149.34468,147.82283 C 148.90082,150.8464 147.93295,154.22794 148.28416,156.73679 C 148.61256,158.65358 150.67917,159.04663 153.26096,158.15094 C 155.33913,157.4427 157.66686,156.03543 159.92793,154.6555 C 162.59864,152.93165 165.27844,151.31395 167.9548,149.34464 C 169.10336,148.48598 169.92528,147.20967 170.24815,146.20916 C 170.98409,143.70795 171.31492,141.41753 171.80872,139.04568 C 171.91944,138.11692 172.18715,136.8037 173.54768,135.68407 C 174.81019,134.57062 175.98854,134.34443 177.182,133.72367 C 180.28393,132.38549 183.27017,131.4148 186.52187,129.62152 C 188.60644,128.23801 190.71516,125.95786 191.7293,123.88391 C 194.05221,119.75675 195.68511,115.67833 198.91373,111.451 C 200.64931,109.04559 202.81669,106.42365 203.43348,104.19105 C 203.79118,102.8173 203.59029,101.71441 202.83618,101.22358 z "
       style="opacity:0.65230767;fill:url(#radialGradient2242);fill-opacity:1;fill-rule:evenodd;stroke:none;stroke-width:2.2218349;stroke-linecap:round;stroke-linejoin:round;stroke-miterlimit:4;stroke-opacity:0.2575251"
       inkscape:transform-center-x="33.155204"
       inkscape:transform-center-y="43.74555" />
    <path
       style="opacity:0.65230767;fill:#d6d6d6;fill-opacity:0.58823529;fill-rule:evenodd;stroke:none;stroke-width:3;stroke-linecap:round;stroke-linejoin:round;stroke-miterlimit:4;stroke-opacity:0.2575251"
       d="M 212.20401,79.005824 C 212.22819,80.928796 212.24877,83.003841 213.36626,84.659291 C 214.93209,86.17684 217.21754,86.558984 219.3184,86.493326 C 220.7482,86.455473 222.14941,86.133139 223.52512,85.764388 C 224.33676,85.533896 225.19588,84.999735 225.94306,84.888669 C 226.70352,85.525493 227.63356,85.860106 228.53508,86.231033 C 229.90268,86.664282 231.3066,86.979112 232.74058,87.084018 C 233.84493,87.266891 235.04438,87.28934 236.02812,86.67287 C 237.92217,85.647159 238.86609,83.373072 238.68204,81.283535 C 238.59594,80.324232 238.302,79.294787 237.64088,78.580063 C 236.41533,77.572925 234.6421,77.446122 233.18067,77.954708 C 231.98378,78.173403 230.81541,78.614447 229.7795,79.248582 C 228.58193,80.059043 227.23301,80.78888 226.49056,82.086945 C 226.73141,82.643834 225.46865,83.528092 225.72324,82.508633 C 225.45159,81.384758 224.67764,80.441036 223.82539,79.692155 C 222.35329,78.520715 220.7036,77.542067 218.88832,77.009808 C 217.31222,76.507765 215.51788,76.146303 213.94204,76.832709 C 213.11264,77.251979 212.11441,77.952079 212.20401,79.005824 z "
       id="path3270" />
  </g>
  <g
     id="g3252"
     transform="matrix(1.0352093,0,0,1.0352093,-64.27575,-30.624461)">
    <path
       sodipodi:nodetypes="ccccccccccccccc"
       id="path3229"
       d="M 227.04756,30.807775 L 62.976698,173.33398 C 64.405951,178.11309 67.293375,177.05951 70.158252,176.09612 C 68.294218,189.75065 78.924661,179.45743 85.073781,177.7534 C 63.700709,203.94709 82.704121,191.59958 91.702911,188.80194 C 76.567291,208.35698 84.939621,204.40408 89.493201,204.26991 C 88.264191,211.8984 92.695071,211.74452 97.227181,211.45146 C 94.192691,223.34669 100.48295,215.2603 102.19903,216.97573 L 261.85048,84.393211 C 260.65206,82.414427 262.54738,78.888773 257.43106,78.868939 C 261.1407,66.021919 255.0136,71.208936 250.24951,73.897095 C 252.40509,70.199069 252.12547,67.475121 246.93494,66.715541 C 245.31857,64.027811 253.62604,50.96517 237.54368,63.400978 C 236.3006,55.7567 241.46283,37.792769 228.15242,49.590299 C 224.81638,48.275713 223.76915,43.146439 227.04756,30.807775 z "
       style="fill:#d6d5d6;fill-opacity:0.58823529;fill-rule:evenodd;stroke:#8c8c8c;stroke-width:1px;stroke-linecap:butt;stroke-linejoin:miter;stroke-opacity:0.2575251" />
    <path
       id="path3231"
       d="M 112.49653,145.67083 C 111.55165,145.63287 110.67992,146.14068 110.08094,146.7729 C 109.91902,148.14799 111.07962,149.23434 111.29539,150.54356 C 111.68815,152.07971 111.66666,153.82706 110.66837,155.1761 C 108.85033,156.96484 106.36536,158.09262 104.70346,160.02845 C 103.86223,161.16462 104.01042,162.62761 104.38879,163.88544 C 104.68488,165.37813 105.42318,166.80816 105.35211,168.35005 C 105.2281,169.03825 105.04827,169.75924 104.58098,170.32521 C 103.71446,171.36192 102.34274,171.84505 101.24505,172.63331 C 100.34134,173.16639 99.919124,174.10308 99.575034,174.99074 C 99.129504,176.03262 99.596354,177.29624 100.54853,177.97122 C 102.48653,179.40628 104.23138,181.11414 106.48441,182.14785 C 108.25961,182.9245 110.41572,182.64734 112.038,181.68734 C 113.35366,180.92026 114.35299,179.78932 115.31369,178.68503 C 116.37588,177.3391 117.52822,176.03817 118.40584,174.58238 C 118.77202,173.95164 118.52275,173.20736 118.03922,172.69407 C 116.76657,171.42645 115.29366,170.34054 113.9039,169.18301 C 113.28563,168.74779 112.51106,168.10816 112.86563,167.31564 C 113.13712,166.54726 114.01862,166.18993 114.60884,165.65469 C 116.3555,164.38532 118.28239,163.30385 119.81173,161.80038 C 120.61144,160.73303 120.74011,159.26358 120.04692,158.12432 C 118.94066,155.79067 117.25357,153.62919 116.88178,151.05349 C 116.5792,149.61006 116.4964,147.97653 115.32447,146.85379 C 114.5838,146.16771 113.5517,145.72345 112.49653,145.67083 z "
       style="opacity:0.65230767;fill:url(#radialGradient2249);fill-opacity:1;fill-rule:evenodd;stroke:none;stroke-width:2.2218349;stroke-linecap:round;stroke-linejoin:round;stroke-miterlimit:4;stroke-opacity:0.2575251" />
    <path
       inkscape:transform-center-y="43.74555"
       inkscape:transform-center-x="33.155204"
       style="opacity:0.65230767;fill:url(#radialGradient2251);fill-opacity:1;fill-rule:evenodd;stroke:none;stroke-width:2.2218349;stroke-linecap:round;stroke-linejoin:round;stroke-miterlimit:4;stroke-opacity:0.2575251"
       d="M 202.83618,101.22358 C 202.14837,100.79856 200.77204,101.26711 199.43921,102.03823 C 197.4334,104.15594 196.85748,106.32645 195.23735,108.48555 C 193.44567,111.07277 191.04111,113.8349 188.41616,115.58837 C 184.54866,117.72246 181.06221,118.55113 177.11593,120.97871 C 174.90482,122.45531 173.02167,124.8321 171.59906,126.97249 C 169.7911,129.45349 168.41495,132.00586 166.25233,134.4231 C 165.21482,135.46637 164.08882,136.54007 162.94962,137.25699 C 160.85463,138.56612 159.1206,138.8025 157.18415,139.62847 C 155.74824,140.12475 154.13774,141.44684 152.65539,142.72138 C 150.8829,144.20127 149.52164,146.38501 149.34468,147.82283 C 148.90082,150.8464 147.93295,154.22794 148.28416,156.73679 C 148.61256,158.65358 150.67917,159.04663 153.26096,158.15094 C 155.33913,157.4427 157.66686,156.03543 159.92793,154.6555 C 162.59864,152.93165 165.27844,151.31395 167.9548,149.34464 C 169.10336,148.48598 169.92528,147.20967 170.24815,146.20916 C 170.98409,143.70795 171.31492,141.41753 171.80872,139.04568 C 171.91944,138.11692 172.18715,136.8037 173.54768,135.68407 C 174.81019,134.57062 175.98854,134.34443 177.182,133.72367 C 180.28393,132.38549 183.27017,131.4148 186.52187,129.62152 C 188.60644,128.23801 190.71516,125.95786 191.7293,123.88391 C 194.05221,119.75675 195.68511,115.67833 198.91373,111.451 C 200.64931,109.04559 202.81669,106.42365 203.43348,104.19105 C 203.79118,102.8173 203.59029,101.71441 202.83618,101.22358 z "
       id="path3242" />
    <path
       id="path3249"
       d="M 212.20401,79.005824 C 212.22819,80.928796 212.24877,83.003841 213.36626,84.659291 C 214.93209,86.17684 217.21754,86.558984 219.3184,86.493326 C 220.7482,86.455473 222.14941,86.133139 223.52512,85.764388 C 224.33676,85.533896 225.19588,84.999735 225.94306,84.888669 C 226.70352,85.525493 227.63356,85.860106 228.53508,86.231033 C 229.90268,86.664282 231.3066,86.979112 232.74058,87.084018 C 233.84493,87.266891 235.04438,87.28934 236.02812,86.67287 C 237.92217,85.647159 238.86609,83.373072 238.68204,81.283535 C 238.59594,80.324232 238.302,79.294787 237.64088,78.580063 C 236.41533,77.572925 234.6421,77.446122 233.18067,77.954708 C 231.98378,78.173403 230.81541,78.614447 229.7795,79.248582 C 228.58193,80.059043 227.23301,80.78888 226.49056,82.086945 C 226.73141,82.643834 225.46865,83.528092 225.72324,82.508633 C 225.45159,81.384758 224.67764,80.441036 223.82539,79.692155 C 222.35329,78.520715 220.7036,77.542067 218.88832,77.009808 C 217.31222,76.507765 215.51788,76.146303 213.94204,76.832709 C 213.11264,77.251979 212.11441,77.952079 212.20401,79.005824 z "
       style="opacity:0.65230767;fill:#d6d6d6;fill-opacity:0.58823529;fill-rule:evenodd;stroke:none;stroke-width:3;stroke-linecap:round;stroke-linejoin:round;stroke-miterlimit:4;stroke-opacity:0.2575251" />
  </g>
</svg>
