<?xml version="1.0" encoding="UTF-8" standalone="no"?>
<!-- Created with Inkscape (http://www.inkscape.org/) -->
<svg
   xmlns:dc="http://purl.org/dc/elements/1.1/"
   xmlns:cc="http://web.resource.org/cc/"
   xmlns:rdf="http://www.w3.org/1999/02/22-rdf-syntax-ns#"
   xmlns:svg="http://www.w3.org/2000/svg"
   xmlns="http://www.w3.org/2000/svg"
   xmlns:sodipodi="http://inkscape.sourceforge.net/DTD/sodipodi-0.dtd"
   xmlns:inkscape="http://www.inkscape.org/namespaces/inkscape"
   width="100"
   height="100"
   id="svg2"
   sodipodi:version="0.32"
   inkscape:version="0.43"
   version="1.0"
   sodipodi:docbase="/home/mirco/.cairo-clock/themes/antique"
   sodipodi:docname="clock-hour-hand-shadow.svg">
  <defs
     id="defs4">
    <linearGradient
       id="linearGradient2202">
      <stop
         style="stop-color:#a5adad;stop-opacity:1;"
         offset="0"
         id="stop2204" />
      <stop
         style="stop-color:#e8f4ed;stop-opacity:1;"
         offset="1"
         id="stop2206" />
    </linearGradient>
  </defs>
  <sodipodi:namedview
     id="base"
     pagecolor="#ffffff"
     bordercolor="#666666"
     borderopacity="1.0"
     inkscape:pageopacity="0.0"
     inkscape:pageshadow="2"
     inkscape:zoom="66.005292"
     inkscape:cx="8.9507701"
     inkscape:cy="99.999819"
     inkscape:document-units="px"
     inkscape:current-layer="layer1"
     showguides="true"
     inkscape:guide-bbox="true"
     inkscape:window-width="1592"
     inkscape:window-height="1150"
     inkscape:window-x="0"
     inkscape:window-y="0">
    <sodipodi:guide
       orientation="horizontal"
       position="50"
       id="guide1307" />
    <sodipodi:guide
       orientation="vertical"
       position="50"
       id="guide1309" />
    <sodipodi:guide
       orientation="horizontal"
       position="100"
       id="guide1311" />
    <sodipodi:guide
       orientation="vertical"
       position="0"
       id="guide1313" />
    <sodipodi:guide
       orientation="vertical"
       position="100"
       id="guide1315" />
    <sodipodi:guide
       orientation="horizontal"
       position="0"
       id="guide1317" />
    <sodipodi:guide
       orientation="horizontal"
       position="90.060241"
       id="guide1319" />
    <sodipodi:guide
       orientation="vertical"
       position="10.040161"
       id="guide1321" />
    <sodipodi:guide
       orientation="vertical"
       position="90.060241"
       id="guide1323" />
    <sodipodi:guide
       orientation="horizontal"
       position="10.040161"
       id="guide1325" />
    <sodipodi:guide
       orientation="vertical"
       position="-10.040161"
       id="guide4953" />
    <sodipodi:guide
       orientation="vertical"
       position="40.060241"
       id="guide4955" />
    <sodipodi:guide
       orientation="vertical"
       position="30.02008"
       id="guide4957" />
  </sodipodi:namedview>
  <metadata
     id="metadata7">
    <rdf:RDF>
      <cc:Work
         rdf:about="">
        <dc:format>image/svg+xml</dc:format>
        <dc:type
           rdf:resource="http://purl.org/dc/dcmitype/StillImage" />
      </cc:Work>
    </rdf:RDF>
  </metadata>
  <g
     inkscape:label="Ebene 1"
     inkscape:groupmode="layer"
     id="layer1">
    <path
       style="fill:#000000;fill-opacity:0.25098041;fill-rule:evenodd;stroke:none;stroke-width:1px;stroke-linecap:butt;stroke-linejoin:miter;stroke-opacity:1;display:inline"
       d="M 14.52016,-0.22339926 C 14.52016,-0.22339926 13.76016,-0.18339926 12.52016,-0.18339926 C 12.407921,-0.37046566 12.504577,-0.73236826 12.51766,-0.77839926 C 12.463759,-0.72153926 11.846763,-0.11453206 10.34141,-0.34339946 C 9.8192854,-0.65667406 10.149819,-1.5673425 10.09391,-1.6483993 C 10.093583,-1.6487295 10.092843,-1.6494491 10.09266,-1.6496495 C 10.092518,-1.6497711 10.091561,-1.6507801 10.09141,-1.6508993 C 10.090753,-1.6512401 10.089275,-1.6519685 10.08891,-1.6521493 C 10.088487,-1.6521521 10.086846,-1.6521697 10.08641,-1.6521493 C 10.085775,-1.6521621 10.084402,-1.6521705 10.08391,-1.6521493 C 10.083296,-1.6520901 10.082063,-1.6522709 10.08141,-1.6521493 C 10.071661,-1.6499309 10.057457,-1.6405787 10.04016,-1.6233993 C 9.8599574,-1.4444145 8.4401604,-1.2033995 8.4401604,-1.2033995 C 8.4401604,-1.2033995 7.5201605,-1.5836341 7.2801605,-2.4846493 C 6.9201605,-1.7662741 6.4002657,-2.5833995 5.3364105,-1.1033995 C 4.8984389,-1.1833993 4.9601605,-1.8233993 4.5201605,-1.7433995 C 4.5201605,-1.3433993 4.5601605,-0.86339926 4.5601605,-0.66339946 C 4.1492141,-0.40188766 3.0588833,-1.2568071 1.9389105,-0.45839926 C 1.7189257,-1.3239197 0.93381675,-1.9646493 0.00016045078,-1.9646493 C -1.1038396,-1.9646493 -1.9998396,-1.0686493 -1.9998396,0.035350739 C -1.9998396,1.1393507 -1.1038396,2.0353504 0.00016045078,2.0353504 C 0.95178565,2.0353504 1.7495117,1.3699361 1.9514105,0.47910074 C 3.0669893,1.2622983 4.1507449,0.41481354 4.5601605,0.67535074 C 4.5601605,0.87535054 4.5201605,1.3553507 4.5201605,1.7553504 C 4.9601605,1.8353504 4.8984389,1.1953505 5.3364105,1.1153505 C 6.4002657,2.5953504 6.9201605,1.7782254 7.2801605,2.4966004 C 7.5201605,1.5955851 8.4401604,1.2153507 8.4401604,1.2153507 C 8.4401604,1.2153503 9.8599574,1.4563659 10.04016,1.6353507 C 10.05798,1.6530497 10.072795,1.6620423 10.08266,1.6641005 C 10.083093,1.6643383 10.084736,1.6651299 10.08516,1.6653507 C 10.085364,1.6653597 10.08621,1.6653487 10.08641,1.6653507 C 10.086606,1.6653451 10.087468,1.6653633 10.08766,1.6653507 C 10.087884,1.6651189 10.088688,1.6643339 10.08891,1.6641005 C 10.089022,1.6641025 10.090026,1.6640951 10.09016,1.6641005 C 10.090273,1.6641029 10.091275,1.6640931 10.09141,1.6641005 C 10.091635,1.6638723 10.092436,1.6630807 10.09266,1.6628505 C 10.093101,1.6624309 10.094727,1.6608027 10.09516,1.6603507 C 10.095384,1.6599065 10.096218,1.6582635 10.09641,1.6578507 C 10.145745,1.5644635 9.8234414,0.66613194 10.34141,0.35535074 C 11.858903,0.12463734 12.473674,0.74456774 12.51891,0.79285074 C 12.509595,0.76074854 12.405363,0.38667874 12.52016,0.19535054 C 13.76016,0.19535054 14.52016,0.23535054 14.52016,0.23535054 L 14.52016,-0.22339926 z M 9.8176604,0.0041007388 C 9.8178934,0.0043203388 9.8174304,0.0051429388 9.8176604,0.0053507388 C 9.8167414,0.0061243388 9.8161184,0.0081303388 9.8151604,0.0091007388 C 9.7547194,0.072799539 9.6219194,0.51684454 9.6226604,0.95535074 C 8.7850974,0.59535074 8.1965054,0.77535074 8.0201604,0.89535074 C 7.8924909,0.44033934 7.5606733,0.19535054 7.3976605,0.0053507388 C 7.5606733,-0.20464946 7.8924909,-0.42963806 8.0201604,-0.88464946 C 8.1965054,-0.76464946 8.7850974,-0.58464926 9.6226604,-0.94464946 C 9.6219134,-0.50263546 9.7566594,-0.058605861 9.8164104,0.0028507388 C 9.8166454,0.0030825388 9.8174284,0.0038811388 9.8176604,0.0041007388 z M 7.8626605,-1.1646495 C 7.6012393,-0.024040261 5.5601605,-0.38464946 5.5601605,-0.38464946 C 5.5601605,-0.38464946 5.5013789,-0.54464926 5.3401605,-0.78464926 C 5.7801605,-0.78464926 6.7781937,-2.5634311 7.8626605,-1.1646495 z M 7.8626605,1.1953505 C 6.7781937,2.5941324 5.7801605,0.81410074 5.3401605,0.81410074 C 5.5013789,0.57410074 5.5601605,0.41410054 5.5601605,0.41410054 C 5.5601605,0.41410054 7.6012393,0.054741339 7.8626605,1.1953505 z M 4.0776605,-0.028399261 C 4.0777981,-0.027576061 4.0775349,-0.026723661 4.0776605,-0.025899261 C 4.0776545,-0.025482461 4.0776697,-0.023816461 4.0776605,-0.023399461 C 4.0776749,-0.023294861 4.0776653,-0.022409661 4.0776605,-0.022149261 C 4.0776317,-0.021525661 4.0776749,-0.020274661 4.0776605,-0.019649261 C 4.0776569,-0.019388861 4.0776493,-0.018504261 4.0776605,-0.018399261 C 4.0783093,-0.012367661 4.0776605,-0.0069966612 4.0776605,-0.00089946115 C 4.0776609,0.22208534 3.6391417,0.40285074 3.0989105,0.40285074 C 2.5586789,0.40285074 2.1201605,0.22208534 2.1201605,-0.00089946115 C 2.1201593,-0.22388426 2.5586793,-0.40464926 3.0989105,-0.40464926 C 3.6161997,-0.40464926 4.0425397,-0.23827286 4.0776605,-0.028399261 z "
       id="path5911" />
  </g>
</svg>
