<?xml version="1.0" encoding="UTF-8" standalone="no"?>
<!-- Created with Inkscape (http://www.inkscape.org/) -->
<svg
   xmlns:dc="http://purl.org/dc/elements/1.1/"
   xmlns:cc="http://creativecommons.org/ns#"
   xmlns:rdf="http://www.w3.org/1999/02/22-rdf-syntax-ns#"
   xmlns:svg="http://www.w3.org/2000/svg"
   xmlns="http://www.w3.org/2000/svg"
   xmlns:xlink="http://www.w3.org/1999/xlink"
   xmlns:sodipodi="http://sodipodi.sourceforge.net/DTD/sodipodi-0.dtd"
   xmlns:inkscape="http://www.inkscape.org/namespaces/inkscape"
   inkscape:export-ydpi="90.000000"
   inkscape:export-xdpi="90.000000"
   inkscape:export-filename="/home/jimmac/Desktop/wi-fi.png"
   width="32"
   height="32"
   id="svg11300"
   sodipodi:version="0.32"
   inkscape:version="0.45+devel"
   sodipodi:docbase="/home/andrew/Desktop/stuff/images"
   sodipodi:docname="plugin-widget.svg"
   inkscape:output_extension="org.inkscape.output.svg.inkscape"
   version="1.0">
  <defs
     id="defs3">
    <linearGradient
       id="linearGradient4376">
      <stop
         style="stop-color:#babdb6;stop-opacity:1"
         offset="0"
         id="stop4378" />
      <stop
         style="stop-color:#eeeeec;stop-opacity:1"
         offset="1"
         id="stop4380" />
    </linearGradient>
    <linearGradient
       id="linearGradient3678"
       inkscape:collect="always">
      <stop
         id="stop3680"
         offset="0"
         style="stop-color:white;stop-opacity:1;" />
      <stop
         id="stop3682"
         offset="1"
         style="stop-color:white;stop-opacity:0;" />
    </linearGradient>
    <linearGradient
       id="linearGradient5502"
       inkscape:collect="always">
      <stop
         id="stop5504"
         offset="0"
         style="stop-color:white;stop-opacity:1;" />
      <stop
         id="stop5506"
         offset="1"
         style="stop-color:white;stop-opacity:0;" />
    </linearGradient>
    <linearGradient
       id="linearGradient5526"
       inkscape:collect="always">
      <stop
         id="stop5528"
         offset="0"
         style="stop-color:white;stop-opacity:1;" />
      <stop
         id="stop5530"
         offset="1"
         style="stop-color:white;stop-opacity:0;" />
    </linearGradient>
    <linearGradient
       id="linearGradient5534"
       inkscape:collect="always">
      <stop
         id="stop5536"
         offset="0"
         style="stop-color:white;stop-opacity:1;" />
      <stop
         id="stop5538"
         offset="1"
         style="stop-color:white;stop-opacity:0;" />
    </linearGradient>
    <linearGradient
       id="linearGradient2853">
      <stop
         id="stop2855"
         offset="0"
         style="stop-color:#416797;stop-opacity:1;" />
      <stop
         id="stop2857"
         offset="1"
         style="stop-color:#a7bed8;stop-opacity:1;" />
    </linearGradient>
    <linearGradient
       inkscape:collect="always"
       id="linearGradient5150">
      <stop
         style="stop-color:white;stop-opacity:1;"
         offset="0"
         id="stop5152" />
      <stop
         style="stop-color:white;stop-opacity:0;"
         offset="1"
         id="stop5154" />
    </linearGradient>
    <linearGradient
       id="linearGradient5142">
      <stop
         style="stop-color:#f1ff74;stop-opacity:1;"
         offset="0"
         id="stop5144" />
      <stop
         style="stop-color:#ffc10f;stop-opacity:1;"
         offset="1"
         id="stop5146" />
    </linearGradient>
    <linearGradient
       id="linearGradient5134">
      <stop
         style="stop-color:#ffdf1a;stop-opacity:1;"
         offset="0"
         id="stop5136" />
      <stop
         style="stop-color:#fff9ce;stop-opacity:1;"
         offset="1"
         id="stop5138" />
    </linearGradient>
    <linearGradient
       inkscape:collect="always"
       id="linearGradient5125">
      <stop
         style="stop-color:#ffc10f;stop-opacity:1;"
         offset="0"
         id="stop5127" />
      <stop
         style="stop-color:#ffc10f;stop-opacity:0;"
         offset="1"
         id="stop5129" />
    </linearGradient>
    <linearGradient
       id="linearGradient5101">
      <stop
         style="stop-color:white;stop-opacity:1;"
         offset="0"
         id="stop5103" />
      <stop
         style="stop-color:#edd400;stop-opacity:0.1262136;"
         offset="1"
         id="stop5105" />
    </linearGradient>
    <linearGradient
       id="linearGradient6732">
      <stop
         style="stop-color:#ffffff;stop-opacity:1;"
         offset="0"
         id="stop6734" />
      <stop
         style="stop-color:#dddddd;stop-opacity:1;"
         offset="1"
         id="stop6736" />
    </linearGradient>
    <linearGradient
       id="linearGradient2959"
       gradientTransform="scale(1.2034584,0.8309385)"
       x1="1.7063013"
       y1="28.281273"
       x2="39.013512"
       y2="28.281273"
       gradientUnits="userSpaceOnUse">
      <stop
         style="stop-color:#416797;stop-opacity:1;"
         offset="0"
         id="stop2961" />
      <stop
         style="stop-color:#a7bed8;stop-opacity:1;"
         offset="1"
         id="stop2963" />
    </linearGradient>
    <linearGradient
       inkscape:collect="always"
       xlink:href="#linearGradient5502"
       id="linearGradient8315"
       gradientUnits="userSpaceOnUse"
       gradientTransform="matrix(0.6363876,0,0,-0.7095286,9.08371e-2,32.6878)"
       x1="3.870008"
       y1="37.710594"
       x2="5.3180737"
       y2="33.51659" />
    <linearGradient
       inkscape:collect="always"
       xlink:href="#linearGradient5534"
       id="linearGradient8318"
       gradientUnits="userSpaceOnUse"
       gradientTransform="matrix(0,-0.7282899,0.6968062,0,3.0031297,28.962314)"
       x1="7.31251"
       y1="37.000011"
       x2="3.93751"
       y2="37.875011" />
    <linearGradient
       inkscape:collect="always"
       xlink:href="#linearGradient4376"
       id="linearGradient8321"
       gradientUnits="userSpaceOnUse"
       gradientTransform="matrix(0.6970464,0,0,0.7282899,-0.5150575,-1.2508522)"
       x1="43.75"
       y1="39.187508"
       x2="42.375"
       y2="33.500008" />
    <linearGradient
       inkscape:collect="always"
       xlink:href="#linearGradient5502"
       id="linearGradient8325"
       gradientUnits="userSpaceOnUse"
       gradientTransform="matrix(-0.6251815,0,0,-0.6541332,31.875546,30.511929)"
       x1="5.5493865"
       y1="37.843178"
       x2="3.8596659"
       y2="33.251427" />
    <linearGradient
       inkscape:collect="always"
       xlink:href="#linearGradient4376"
       id="linearGradient8328"
       gradientUnits="userSpaceOnUse"
       gradientTransform="matrix(0.6988542,0,0,0.7282899,-0.5920886,-1.6810942)"
       x1="41.375"
       y1="14.75"
       x2="42.0625"
       y2="9.875" />
    <linearGradient
       inkscape:collect="always"
       xlink:href="#linearGradient4376"
       id="linearGradient8331"
       gradientUnits="userSpaceOnUse"
       gradientTransform="matrix(0.7099133,0,0,0.7282899,-0.9846965,-1.6808502)"
       x1="7.5"
       y1="15.75"
       x2="6.3125"
       y2="10" />
    <linearGradient
       inkscape:collect="always"
       xlink:href="#linearGradient5526"
       id="linearGradient8337"
       gradientUnits="userSpaceOnUse"
       gradientTransform="matrix(0.7099133,0,0,0.7282899,-0.2435332,-1.2664772)"
       x1="3.875"
       y1="33.875"
       x2="4.1875"
       y2="39.375" />
    <linearGradient
       inkscape:collect="always"
       xlink:href="#linearGradient4376"
       id="linearGradient8340"
       gradientUnits="userSpaceOnUse"
       gradientTransform="matrix(0.7099133,0,0,0.7310473,-0.9846965,-1.3600632)"
       x1="9.562501"
       y1="39.312511"
       x2="7.5000014"
       y2="34.187511" />
    <linearGradient
       inkscape:collect="always"
       xlink:href="#linearGradient3678"
       id="linearGradient8348"
       gradientUnits="userSpaceOnUse"
       gradientTransform="matrix(0.6760611,0,0,0.7039813,0.4478639,-0.8862362)"
       x1="4.625"
       y1="-7.625"
       x2="23.875"
       y2="47.75" />
    <linearGradient
       inkscape:collect="always"
       xlink:href="#linearGradient2853"
       id="linearGradient8355"
       gradientUnits="userSpaceOnUse"
       gradientTransform="matrix(0.6928211,0,0,0.7245164,38.054945,-0.5967502)"
       x1="-31.831854"
       y1="7.9310017"
       x2="-31.831854"
       y2="37.930984" />
    <radialGradient
       inkscape:collect="always"
       xlink:href="#linearGradient5101"
       id="radialGradient8377"
       gradientUnits="userSpaceOnUse"
       cx="23.142857"
       cy="24.285715"
       fx="23.142857"
       fy="24.285715"
       r="23.142857" />
    <radialGradient
       inkscape:collect="always"
       xlink:href="#linearGradient5125"
       id="radialGradient8379"
       gradientUnits="userSpaceOnUse"
       cx="23.071428"
       cy="23.142857"
       fx="23.071428"
       fy="23.142857"
       r="22.825405" />
    <radialGradient
       inkscape:collect="always"
       xlink:href="#linearGradient5142"
       id="radialGradient8381"
       gradientUnits="userSpaceOnUse"
       gradientTransform="matrix(1.421498,0,0,1.421498,-9.724552,-9.754659)"
       cx="23.071423"
       cy="30.798319"
       fx="23.071423"
       fy="30.798319"
       r="22.856438" />
    <linearGradient
       inkscape:collect="always"
       xlink:href="#linearGradient5134"
       id="linearGradient8383"
       gradientUnits="userSpaceOnUse"
       x1="20.908642"
       y1="52.221584"
       x2="15.422572"
       y2="-4.3302984" />
    <radialGradient
       inkscape:collect="always"
       xlink:href="#linearGradient5150"
       id="radialGradient8388"
       gradientUnits="userSpaceOnUse"
       gradientTransform="matrix(0,-0.332654,0.4731049,0,-2.4823168,19.310495)"
       cx="25.245258"
       cy="25.618958"
       fx="25.245258"
       fy="25.618958"
       r="14.760339" />
    <linearGradient
       inkscape:collect="always"
       xlink:href="#linearGradient6732"
       id="linearGradient8395"
       gradientUnits="userSpaceOnUse"
       gradientTransform="matrix(0.5024065,0,0,8.7637262e-2,4.7205933,9.3893375)"
       x1="16.25"
       y1="12.25"
       x2="31.5"
       y2="36.625" />
    <linearGradient
       inkscape:collect="always"
       xlink:href="#linearGradient2959"
       id="linearGradient8399"
       gradientUnits="userSpaceOnUse"
       gradientTransform="matrix(0.4583214,0,0,0.2167488,5.9697705,7.9372588)"
       x1="93.621719"
       y1="-14.691302"
       x2="93.871719"
       y2="-4.6441493" />
    <linearGradient
       inkscape:collect="always"
       xlink:href="#linearGradient2959"
       id="linearGradient8402"
       gradientUnits="userSpaceOnUse"
       gradientTransform="matrix(0.4640761,0,0,0.2333924,5.9444978,7.5193901)"
       x1="93.621719"
       y1="-14.691302"
       x2="93.871719"
       y2="-4.6441493" />
  </defs>
  <sodipodi:namedview
     stroke="#ef2929"
     fill="#eeeeec"
     id="base"
     pagecolor="#ffffff"
     bordercolor="#666666"
     borderopacity="0.25490196"
     inkscape:pageopacity="0.0"
     inkscape:pageshadow="2"
     inkscape:zoom="8"
     inkscape:cx="11.298567"
     inkscape:cy="19.254549"
     inkscape:current-layer="layer1"
     showgrid="false"
     inkscape:grid-bbox="true"
     inkscape:document-units="px"
     inkscape:showpageshadow="false"
     inkscape:window-width="906"
     inkscape:window-height="680"
     inkscape:window-x="91"
     inkscape:window-y="61"
     showguides="true"
     inkscape:guide-bbox="true">
    <inkscape:grid
       type="xygrid"
       id="grid7939"
       visible="true"
       enabled="true" />
  </sodipodi:namedview>
  <metadata
     id="metadata4">
    <rdf:RDF>
      <cc:Work
         rdf:about="">
        <dc:format>image/svg+xml</dc:format>
        <dc:type
           rdf:resource="http://purl.org/dc/dcmitype/StillImage" />
        <dc:creator>
          <cc:Agent>
            <dc:title>Patrick Niklaus</dc:title>
          </cc:Agent>
        </dc:creator>
        <dc:source />
        <cc:license
           rdf:resource="http://creativecommons.org/licenses/GPL/2.0/" />
        <dc:title>Zoom</dc:title>
        <dc:subject>
          <rdf:Bag />
        </dc:subject>
      </cc:Work>
      <cc:License
         rdf:about="http://creativecommons.org/licenses/GPL/2.0/">
        <cc:permits
           rdf:resource="http://web.resource.org/cc/Reproduction" />
        <cc:permits
           rdf:resource="http://web.resource.org/cc/Distribution" />
        <cc:requires
           rdf:resource="http://web.resource.org/cc/Notice" />
        <cc:permits
           rdf:resource="http://web.resource.org/cc/DerivativeWorks" />
        <cc:requires
           rdf:resource="http://web.resource.org/cc/ShareAlike" />
        <cc:requires
           rdf:resource="http://web.resource.org/cc/SourceCode" />
      </cc:License>
    </rdf:RDF>
  </metadata>
  <g
     id="layer1"
     inkscape:label="Layer 1"
     inkscape:groupmode="layer">
    <g
       id="layer6"
       inkscape:label="Shadow"
       transform="translate(-42.70823,29.563374)" />
    <g
       style="display:inline"
       inkscape:label="Base"
       id="g6461"
       transform="translate(-42.70823,29.563374)" />
    <g
       id="g2637"
       inkscape:label="base"
       style="display:inline"
       transform="translate(-54.97336,77.063364)" />
    <g
       id="g8261"
       inkscape:label="Shadow"
       transform="translate(-40.137756,33.858686)" />
    <g
       style="display:inline"
       inkscape:label="Base"
       id="g8263"
       transform="translate(-40.137756,33.858686)" />
    <g
       id="g8265"
       inkscape:label="base"
       style="display:inline"
       transform="translate(-52.402886,81.358676)" />
    <path
       d="M 2.5636065,5.2929018 C 2.3622688,5.2929018 2.2099134,5.4525448 2.2099134,5.6635098 L 2.2099134,10.852016 C 2.2099134,11.062982 2.3622688,11.222625 2.5636065,11.222624 L 2.9172995,10.852016 L 2.9172995,22.711485 L 2.5636065,22.340876 C 2.3622688,22.340876 2.2099134,22.500518 2.2099134,22.711485 L 2.2099134,27.529391 C 2.2099134,27.740357 2.3622688,27.9 2.5636065,27.9 L 7.5153101,27.9 C 7.7166471,27.9 7.8690031,27.740358 7.8690031,27.529391 L 7.5153101,27.529391 L 25.90735,27.529391 L 25.553657,27.529391 C 25.553657,27.740357 25.706012,27.9 25.90735,27.9 L 30.505359,27.9 C 30.706696,27.9 30.859051,27.740357 30.859052,27.529391 L 30.859052,22.711485 C 30.859052,22.500518 30.706698,22.340876 30.505359,22.340876 L 30.505359,22.711485 L 30.505359,10.852016 L 30.505359,11.222624 C 30.706696,11.222624 30.859052,11.062982 30.859052,10.852016 L 30.859052,5.6635098 C 30.859052,5.4525438 30.706698,5.2929018 30.505359,5.2929018 L 25.90735,5.2929018 C 25.706012,5.2929018 25.553658,5.4525428 25.553657,5.6635098 L 25.90735,6.0341184 L 7.5153101,6.0341184 L 7.8690031,5.6635098 C 7.8690031,5.4525438 7.7166471,5.2929018 7.5153101,5.2929018 L 2.5636065,5.2929018 z"
       id="path8196"
       style="opacity:0.2;fill:#000000;fill-opacity:1;fill-rule:nonzero;stroke:#000000;stroke-width:0.99999964;stroke-linecap:round;stroke-linejoin:round;marker:none;marker-start:none;marker-mid:none;marker-end:none;stroke-miterlimit:4;stroke-dasharray:none;stroke-dashoffset:1.20000057;stroke-opacity:1;visibility:visible;display:inline;overflow:visible" />
    <rect
       width="27.020008"
       height="21.010962"
       x="2.4911635"
       y="5.511651"
       id="rect8198"
       style="fill:url(#linearGradient8355);fill-opacity:1;fill-rule:nonzero;stroke:#888a85;stroke-width:0.99999952;stroke-linecap:round;stroke-linejoin:round;marker:none;marker-start:none;marker-mid:none;marker-end:none;stroke-miterlimit:4;stroke-dasharray:none;stroke-dashoffset:1.20000057;stroke-opacity:1;visibility:visible;display:inline;overflow:visible" />
    <g
       transform="matrix(-0.7099133,0,0,-0.7282897,32.381233,33.332054)"
       id="g8200"
       style="opacity:0.1;display:inline">
      <path
         d="M 11.5,10.013768 L 4.013757,17.500012 C 3.729135,17.500012 3.5,17.270877 3.5,16.986255 L 3.5,10.013768 C 3.5,9.7291462 3.729135,9.5000105 4.013757,9.5000105 L 10.986243,9.5000105 C 11.270865,9.5000105 11.5,9.7291462 11.5,10.013768 z"
         id="path8202"
         style="fill:#000000;fill-opacity:1;fill-rule:nonzero;stroke:#000000;stroke-width:1.39073801;stroke-linecap:round;stroke-linejoin:round;marker:none;marker-start:none;marker-mid:none;marker-end:none;stroke-miterlimit:4;stroke-dashoffset:1.20000057;stroke-opacity:1;visibility:visible;display:inline;overflow:visible" />
      <path
         d="M 41.986242,17.50001 L 34.499998,10.013767 C 34.499998,9.729145 34.729133,9.50001 35.013755,9.50001 L 41.986242,9.50001 C 42.270864,9.50001 42.5,9.729145 42.5,10.013767 L 42.5,16.986253 C 42.5,17.270875 42.270864,17.50001 41.986242,17.50001 z"
         id="path8204"
         style="fill:#000000;fill-opacity:1;fill-rule:nonzero;stroke:#000000;stroke-width:1.39073801;stroke-linecap:round;stroke-linejoin:round;marker:none;marker-start:none;marker-mid:none;marker-end:none;stroke-miterlimit:4;stroke-dashoffset:1.20000057;stroke-opacity:1;visibility:visible;display:inline;overflow:visible" />
    </g>
    <rect
       ry="0.85826492"
       rx="1.0877346"
       y="9.5032253"
       x="7.1294985"
       height="7.0017748"
       width="20.371862"
       id="rect5857"
       style="fill:url(#linearGradient8402);fill-opacity:1;fill-rule:evenodd;stroke:#939393;stroke-width:1;stroke-linecap:butt;stroke-linejoin:miter;marker:none;marker-start:none;marker-mid:none;marker-end:none;stroke-miterlimit:4;stroke-dasharray:none;stroke-dashoffset:0;stroke-opacity:1;visibility:visible;display:inline;overflow:visible" />
    <rect
       style="fill:url(#linearGradient8399);fill-opacity:1;fill-rule:evenodd;stroke:#ffffff;stroke-width:1;stroke-linecap:butt;stroke-linejoin:miter;marker:none;marker-start:none;marker-mid:none;marker-end:none;stroke-miterlimit:4;stroke-dasharray:none;stroke-dashoffset:0;stroke-opacity:0.56188121;visibility:visible;display:inline;overflow:visible"
       id="rect6740"
       width="18.334867"
       height="4.9972367"
       x="8.1744471"
       y="10.50187" />
    <path
       id="flowRoot3043"
       d="M 14.701803,11.024889 L 17.813053,11.024889 L 17.813053,11.625014 L 16.2035,15.153863 L 15.166416,15.153863 L 16.690237,11.807541 L 14.701803,11.807541 L 14.701803,11.024889 M 19.677037,11.359521 C 19.544289,11.359525 19.431823,11.405618 19.339639,11.497799 C 19.247453,11.589987 19.201361,11.702453 19.201362,11.835197 C 19.201361,11.967947 19.246532,12.079491 19.336874,12.169829 C 19.429058,12.260173 19.542445,12.305344 19.677037,12.305341 C 19.809782,12.305344 19.922248,12.260173 20.014435,12.169829 C 20.106618,12.077647 20.15271,11.966103 20.152712,11.835197 C 20.15271,11.702453 20.105696,11.589987 20.011669,11.497799 C 19.919482,11.405618 19.807938,11.359525 19.677037,11.359521 M 19.677037,10.911501 C 19.79872,10.911506 19.915795,10.935474 20.028263,10.983405 C 20.140727,11.029502 20.241208,11.095875 20.329708,11.182525 C 20.41636,11.271027 20.481811,11.370587 20.526062,11.481206 C 20.572153,11.591831 20.595199,11.709828 20.595201,11.835197 C 20.595199,11.958728 20.572153,12.076725 20.526062,12.189188 C 20.481811,12.299813 20.418204,12.396607 20.335239,12.479571 C 20.246739,12.568071 20.145336,12.636288 20.031028,12.684222 C 19.916717,12.730317 19.796876,12.753364 19.671506,12.753361 C 19.411543,12.753364 19.193064,12.665788 19.016069,12.490633 C 18.840917,12.313641 18.753341,12.095162 18.753342,11.835197 C 18.753341,11.575238 18.841839,11.356759 19.018835,11.17976 C 19.197673,11.000925 19.417074,10.911506 19.677037,10.911501 M 24.887343,14.927087 C 24.691907,15.028491 24.488178,15.105005 24.276156,15.156628 C 24.064127,15.208252 23.842882,15.234064 23.612422,15.234064 C 22.924719,15.234064 22.379905,15.042319 21.977979,14.658829 C 21.576051,14.273495 21.375088,13.751728 21.375088,13.093524 C 21.375088,12.433481 21.576051,11.911713 21.977979,11.52822 C 22.379905,11.14289 22.924719,10.950223 23.612422,10.950219 C 23.842882,10.950223 24.064127,10.976035 24.276156,11.027654 C 24.488178,11.079282 24.691907,11.155796 24.887343,11.257196 L 24.887343,12.111752 C 24.690063,11.977165 24.495553,11.878527 24.303811,11.815838 C 24.112063,11.753155 23.910178,11.721812 23.698154,11.721809 C 23.318349,11.721812 23.01967,11.843497 22.802115,12.086862 C 22.584556,12.330234 22.475778,12.665788 22.475779,13.093524 C 22.475778,13.519422 22.584556,13.854053 22.802115,14.097421 C 23.01967,14.34079 23.318349,14.462475 23.698154,14.462474 C 23.910178,14.462475 24.112063,14.431132 24.303811,14.368445 C 24.495553,14.30576 24.690063,14.207122 24.887343,14.072531 L 24.887343,14.927087"
       style="fill:#555753;stroke-width:1.66120934;stroke-miterlimit:4;stroke-dasharray:none" />
    <rect
       y="10.528038"
       x="7.4447184"
       height="2.6680036"
       width="18.976831"
       id="rect3032"
       style="opacity:0.29799996;fill:url(#linearGradient8395);fill-opacity:1;fill-rule:evenodd;stroke:#eeeeec;stroke-width:1.09715974;stroke-linecap:butt;stroke-linejoin:miter;marker:none;marker-start:none;marker-mid:none;marker-end:none;stroke-miterlimit:4;stroke-dasharray:none;stroke-dashoffset:0;stroke-opacity:1;visibility:visible;display:inline;overflow:visible" />
    <path
       transform="matrix(0.1885456,0,0,0.1885418,5.2366906,8.4289142)"
       d="M 46.285713,24.285715 A 23.142857,23.142857 0 1 1 0,24.285715 A 23.142857,23.142857 0 1 1 46.285713,24.285715 z"
       sodipodi:ry="23.142857"
       sodipodi:rx="23.142857"
       sodipodi:cy="24.285715"
       sodipodi:cx="23.142857"
       id="path4226"
       style="fill:url(#radialGradient8377);fill-opacity:1;fill-rule:evenodd;stroke:none;stroke-width:4.15856361;stroke-linecap:round;stroke-linejoin:miter;marker:none;marker-start:none;marker-mid:none;marker-end:none;stroke-miterlimit:4;stroke-dasharray:none;stroke-dashoffset:0;stroke-opacity:1;visibility:visible;display:inline;overflow:visible"
       sodipodi:type="arc" />
    <path
       transform="matrix(0.2210635,-7.5230364e-2,7.5231812e-2,0.2210589,2.7983015,9.6084032)"
       d="M 45.294142,35.650815 L 31.887448,31.859136 L 35.036916,45.43106 L 25.808424,34.993091 L 21.120389,48.113251 L 19.000079,34.342973 L 7.9629591,42.845811 L 13.624016,30.11519 L -0.25798184,31.301114 L 11.387095,23.652033 L -0.9323434,17.144522 L 12.999525,17.005509 L 6.1539794,4.8706506 L 17.949369,12.285842 L 18.751129,-1.6236314 L 24.665087,10.991494 L 32.8596,-0.27643573 L 31.014486,13.53341 L 44.000052,8.4845125 L 34.981677,19.10455 L 48.63547,21.877674 L 35.307105,25.936117 L 45.294142,35.650815 z"
       inkscape:randomized="0"
       inkscape:rounded="0"
       inkscape:flatsided="false"
       sodipodi:arg2="0.80919811"
       sodipodi:arg1="0.52359878"
       sodipodi:r2="12.137954"
       sodipodi:r1="25.152658"
       sodipodi:cy="23.074486"
       sodipodi:cx="23.511301"
       sodipodi:sides="11"
       id="path5113"
       style="opacity:0.66292138;fill:#edd400;fill-opacity:1;fill-rule:evenodd;stroke:none;stroke-width:3.98107457;stroke-linecap:round;stroke-linejoin:miter;marker:none;marker-start:none;marker-mid:none;marker-end:none;stroke-miterlimit:4;stroke-dasharray:none;stroke-dashoffset:0;stroke-opacity:1;visibility:visible;display:inline;overflow:visible"
       sodipodi:type="star" />
    <path
       transform="matrix(0.1518614,0,0,0.1518586,6.1638498,9.5337495)"
       d="M 45.214285,23.142857 A 22.142857,22.142857 0 1 1 0.9285717,23.142857 A 22.142857,22.142857 0 1 1 45.214285,23.142857 z"
       sodipodi:ry="22.142857"
       sodipodi:rx="22.142857"
       sodipodi:cy="23.142857"
       sodipodi:cx="23.071428"
       id="path1314"
       style="fill:url(#radialGradient8379);fill-opacity:1;fill-rule:evenodd;stroke:#ff9e1a;stroke-width:6.58501251;stroke-linecap:butt;stroke-linejoin:round;marker:none;marker-start:none;marker-mid:none;marker-end:none;stroke-miterlimit:4;stroke-dasharray:none;stroke-dashoffset:0;stroke-opacity:1;visibility:visible;display:inline;overflow:visible"
       sodipodi:type="arc" />
    <path
       transform="matrix(0.1079561,0,0,0.1121875,7.1641217,10.356784)"
       d="M 45.214285,23.142857 A 22.142857,22.142857 0 1 1 0.9285717,23.142857 A 22.142857,22.142857 0 1 1 45.214285,23.142857 z"
       sodipodi:ry="22.142857"
       sodipodi:rx="22.142857"
       sodipodi:cy="23.142857"
       sodipodi:cx="23.071428"
       id="path2044"
       style="fill:url(#radialGradient8381);fill-opacity:1;fill-rule:evenodd;stroke:url(#linearGradient8383);stroke-width:9.08665752;stroke-linecap:butt;stroke-linejoin:round;marker:none;marker-start:none;marker-mid:none;marker-end:none;stroke-miterlimit:4;stroke-dasharray:none;stroke-dashoffset:0;stroke-opacity:1;visibility:visible;display:inline;overflow:visible"
       sodipodi:type="arc" />
    <path
       sodipodi:nodetypes="cssc"
       id="path2046"
       d="M 12.415681,12.303903 C 11.252581,11.352307 6.1285817,14.688444 6.9491132,12.052313 C 7.3718413,10.694206 8.5658458,9.9802787 9.5660872,9.9557341 C 10.847668,9.924285 12.027981,10.812983 12.415681,12.303903 z"
       style="opacity:0.73033711;fill:url(#radialGradient8388);fill-opacity:1;fill-rule:evenodd;stroke:none;stroke-width:1;stroke-linecap:butt;stroke-linejoin:round;marker:none;marker-start:none;marker-mid:none;marker-end:none;stroke-miterlimit:4;stroke-dasharray:none;stroke-dashoffset:0;stroke-opacity:1;visibility:visible;display:inline;overflow:visible" />
    <rect
       width="25.014271"
       height="19.007475"
       x="3.4901254"
       y="6.5055704"
       id="rect8206"
       style="fill:none;fill-opacity:1;fill-rule:nonzero;stroke:url(#linearGradient8348);stroke-width:0.99999952;stroke-linecap:round;stroke-linejoin:round;marker:none;marker-start:none;marker-mid:none;marker-end:none;stroke-miterlimit:4;stroke-dasharray:none;stroke-dashoffset:1.20000057;stroke-opacity:1;visibility:visible;display:inline;overflow:visible" />
    <path
       d="M 1.8647238,21.667919 L 7.1793082,27.140717 C 7.1793082,27.348788 7.0166424,27.516297 6.8145848,27.516297 L 1.8647238,27.516297 C 1.6626667,27.516297 1.5,27.348788 1.5,27.140717 L 1.5,22.0435 C 1.5,21.835427 1.6626667,21.667919 1.8647238,21.667919 z"
       id="path8208"
       style="fill:url(#linearGradient8340);fill-opacity:1;fill-rule:nonzero;stroke:#888a85;stroke-width:1;stroke-linecap:round;stroke-linejoin:round;marker:none;marker-start:none;marker-mid:none;marker-end:none;stroke-miterlimit:4;stroke-dashoffset:1.20000057;stroke-opacity:1;visibility:visible;display:inline;overflow:visible" />
    <path
       d="M 2.5067883,23.835701 L 2.5067883,26.444545 L 5.1319741,26.507045 L 2.5067883,23.835701 z"
       id="path8210"
       style="opacity:0.6;fill:none;fill-opacity:1;fill-rule:nonzero;stroke:url(#linearGradient8337);stroke-width:0.99999994;stroke-linecap:round;stroke-linejoin:miter;marker:none;marker-start:none;marker-mid:none;marker-end:none;stroke-miterlimit:4;stroke-dasharray:none;stroke-dashoffset:1.20000057;stroke-opacity:1;visibility:visible;display:inline;overflow:visible" />
    <g
       transform="matrix(0.7099133,0,0,0.7282897,-0.2747832,-1.6258512)"
       id="g8212"
       style="opacity:0.1">
      <path
         d="M 11.5,10.013768 L 4.013757,17.500012 C 3.729135,17.500012 3.5,17.270877 3.5,16.986255 L 3.5,10.013768 C 3.5,9.7291462 3.729135,9.5000105 4.013757,9.5000105 L 10.986243,9.5000105 C 11.270865,9.5000105 11.5,9.7291462 11.5,10.013768 z"
         id="path8214"
         style="fill:#000000;fill-opacity:1;fill-rule:nonzero;stroke:#000000;stroke-width:1.39073801;stroke-linecap:round;stroke-linejoin:round;marker:none;marker-start:none;marker-mid:none;marker-end:none;stroke-miterlimit:4;stroke-dashoffset:1.20000057;stroke-opacity:1;visibility:visible;display:inline;overflow:visible" />
      <path
         d="M 41.986242,17.50001 L 34.499998,10.013767 C 34.499998,9.729145 34.729133,9.50001 35.013755,9.50001 L 41.986242,9.50001 C 42.270864,9.50001 42.5,9.729145 42.5,10.013767 L 42.5,16.986253 C 42.5,17.270875 42.270864,17.50001 41.986242,17.50001 z"
         id="path8216"
         style="fill:#000000;fill-opacity:1;fill-rule:nonzero;stroke:#000000;stroke-width:1.39073801;stroke-linecap:round;stroke-linejoin:round;marker:none;marker-start:none;marker-mid:none;marker-end:none;stroke-miterlimit:4;stroke-dashoffset:1.20000057;stroke-opacity:1;visibility:visible;display:inline;overflow:visible" />
    </g>
    <path
       d="M 7.1793068,4.8837848 L 1.8647229,10.335932 C 1.662666,10.335932 1.5,10.169057 1.5,9.9617682 L 1.5,4.8837848 C 1.5,4.6764978 1.662666,4.5096208 1.8647229,4.5096208 L 6.8145835,4.5096208 C 7.016641,4.5096208 7.1793068,4.6764978 7.1793068,4.8837848 z"
       id="path8218"
       style="fill:url(#linearGradient8331);fill-opacity:1;fill-rule:nonzero;stroke:#888a85;stroke-width:1;stroke-linecap:round;stroke-linejoin:round;marker:none;marker-start:none;marker-mid:none;marker-end:none;stroke-miterlimit:4;stroke-dashoffset:1.20000057;stroke-opacity:1;visibility:visible;display:inline;overflow:visible" />
    <path
       d="M 30.14788,10.335685 L 24.916087,4.8835408 C 24.916087,4.6762528 25.076218,4.5093768 25.275128,4.5093768 L 30.14788,4.5093768 C 30.346791,4.5093768 30.506924,4.6762528 30.506924,4.8835408 L 30.506924,9.9615222 C 30.506924,10.168811 30.346791,10.335685 30.14788,10.335685 z"
       id="path8220"
       style="fill:url(#linearGradient8328);fill-opacity:1;fill-rule:nonzero;stroke:#888a85;stroke-width:1;stroke-linecap:round;stroke-linejoin:round;marker:none;marker-start:none;marker-mid:none;marker-end:none;stroke-miterlimit:4;stroke-dashoffset:1.20000057;stroke-opacity:1;visibility:visible;display:inline;overflow:visible" />
    <path
       d="M 25.760487,5.0007358 L 26.307521,5.5526608 L 26.405205,5.6548688 L 27.264831,5.6548688 L 29.374818,5.6548688 L 29.374818,7.8625664 L 29.374818,8.7619984 L 29.472502,8.8642074 L 30,9.4365714 L 30,8.6393494 L 30,5.3278028 L 30,5.0007358 L 29.687408,5.0007358 L 26.522428,5.0007358 L 25.760487,5.0007358 z"
       id="path8222"
       style="opacity:0.5;fill:url(#linearGradient8325);fill-opacity:1;fill-rule:nonzero;stroke:none;stroke-width:1;stroke-linecap:round;stroke-linejoin:miter;marker:none;stroke-miterlimit:4;stroke-dashoffset:1.20000057;stroke-opacity:1;visibility:visible;display:inline;overflow:visible" />
    <path
       d="M 24.927137,27.142427 L 30.145396,21.690272 C 30.343794,21.690272 30.50351,21.857149 30.50351,22.064437 L 30.50351,27.142427 C 30.50351,27.349714 30.343794,27.516591 30.145396,27.516591 L 25.28525,27.516591 C 25.086858,27.516591 24.927137,27.349714 24.927137,27.142427 z"
       id="path8224"
       style="fill:url(#linearGradient8321);fill-opacity:1;fill-rule:nonzero;stroke:#888a85;stroke-width:1;stroke-linecap:round;stroke-linejoin:round;marker:none;marker-start:none;marker-mid:none;marker-end:none;stroke-miterlimit:4;stroke-dashoffset:1.20000057;stroke-opacity:1;visibility:visible;display:inline;overflow:visible" />
    <path
       d="M 26.708839,26.725801 L 29.470795,26.491426 L 29.470795,23.851332 L 26.708839,26.725801 z"
       id="path8226"
       style="opacity:0.6;fill:none;fill-opacity:1;fill-rule:nonzero;stroke:url(#linearGradient8318);stroke-width:0.99999994;stroke-linecap:round;stroke-linejoin:miter;marker:none;marker-start:none;marker-mid:none;marker-end:none;stroke-miterlimit:4;stroke-dasharray:none;stroke-dashoffset:1.20000057;stroke-opacity:1;visibility:visible;display:inline;overflow:visible" />
    <path
       d="M 6.3155036,5.0161838 L 5.7586647,5.6148488 L 5.6592289,5.7257124 L 4.7841958,5.7257124 L 2.6363877,5.7257124 L 2.6363877,8.1203684 L 2.6363877,9.0959694 L 2.5369522,9.2068344 L 2,9.8276684 L 2,8.9629334 L 2,5.3709478 L 2,5.0161838 L 2.3181938,5.0161838 L 5.5399063,5.0161838 L 6.3155036,5.0161838 z"
       id="path8228"
       style="opacity:0.5;fill:url(#linearGradient8315);fill-opacity:1;fill-rule:nonzero;stroke:none;stroke-width:1;stroke-linecap:round;stroke-linejoin:miter;marker:none;stroke-miterlimit:4;stroke-dashoffset:1.20000057;stroke-opacity:1;visibility:visible;display:inline;overflow:visible" />
    <g
       transform="translate(-41.317284,-33.330001)"
       id="g8230" />
    <g
       transform="translate(-41.317284,-33.330001)"
       id="g8232"
       style="display:inline" />
    <g
       transform="translate(-53.582414,14.169989)"
       id="g8234"
       style="display:inline" />
    <g
       transform="translate(-57.16787,-121.0957)"
       id="layer2" />
  </g>
</svg>
