<?xml version="1.0" encoding="UTF-8" standalone="no"?>
<!-- Created with Inkscape (http://www.inkscape.org/) -->

<svg
   xmlns:dc="http://purl.org/dc/elements/1.1/"
   xmlns:cc="http://creativecommons.org/ns#"
   xmlns:rdf="http://www.w3.org/1999/02/22-rdf-syntax-ns#"
   xmlns:svg="http://www.w3.org/2000/svg"
   xmlns="http://www.w3.org/2000/svg"
   xmlns:xlink="http://www.w3.org/1999/xlink"
   xmlns:sodipodi="http://sodipodi.sourceforge.net/DTD/sodipodi-0.dtd"
   xmlns:inkscape="http://www.inkscape.org/namespaces/inkscape"
   version="1.1"
   width="48"
   height="48"
   id="svg2579"
   inkscape:version="0.48.1 r9760"
   sodipodi:docname="icon.svg">
  <metadata
     id="metadata66">
    <rdf:RDF>
      <cc:Work
         rdf:about="">
        <dc:format>image/svg+xml</dc:format>
        <dc:type
           rdf:resource="http://purl.org/dc/dcmitype/StillImage" />
      </cc:Work>
    </rdf:RDF>
  </metadata>
  <sodipodi:namedview
     pagecolor="#ffffff"
     bordercolor="#666666"
     borderopacity="1"
     objecttolerance="10"
     gridtolerance="10"
     guidetolerance="10"
     inkscape:pageopacity="0"
     inkscape:pageshadow="2"
     inkscape:window-width="640"
     inkscape:window-height="480"
     id="namedview64"
     showgrid="false"
     inkscape:zoom="6.1458333"
     inkscape:cx="24"
     inkscape:cy="25.708475"
     inkscape:window-x="38"
     inkscape:window-y="29"
     inkscape:window-maximized="0"
     inkscape:current-layer="svg2579" />
  <defs
     id="defs2581">
    <linearGradient
       id="linearGradient6117">
      <stop
         id="stop6119"
         style="stop-color:black;stop-opacity:1"
         offset="0" />
      <stop
         id="stop6121"
         style="stop-color:black;stop-opacity:0"
         offset="1" />
    </linearGradient>
    <linearGradient
       id="linearGradient6091">
      <stop
         id="stop6093"
         style="stop-color:#888a85;stop-opacity:1"
         offset="0" />
      <stop
         id="stop6095"
         style="stop-color:#81837e;stop-opacity:0.98648649"
         offset="1" />
    </linearGradient>
    <linearGradient
       id="linearGradient6105">
      <stop
         id="stop6107"
         style="stop-color:white;stop-opacity:0"
         offset="0" />
      <stop
         id="stop6113"
         style="stop-color:white;stop-opacity:1"
         offset="0.45209709" />
      <stop
         id="stop6109"
         style="stop-color:white;stop-opacity:0"
         offset="1" />
    </linearGradient>
    <linearGradient
       id="linearGradient6041">
      <stop
         id="stop6043"
         style="stop-color:#888a85;stop-opacity:1"
         offset="0" />
      <stop
         id="stop6045"
         style="stop-color:#2e3436;stop-opacity:1"
         offset="1" />
    </linearGradient>
    <linearGradient
       id="linearGradient6296">
      <stop
         id="stop6298"
         style="stop-color:white;stop-opacity:1"
         offset="0" />
      <stop
         id="stop6300"
         style="stop-color:white;stop-opacity:0"
         offset="1" />
    </linearGradient>
    <linearGradient
       id="linearGradient6304">
      <stop
         id="stop6306"
         style="stop-color:#eeeeec;stop-opacity:1"
         offset="0" />
      <stop
         id="stop6308"
         style="stop-color:#80827d;stop-opacity:1"
         offset="1" />
    </linearGradient>
    <radialGradient
       inkscape:collect="always"
       xlink:href="#linearGradient6117"
       id="radialGradient3062"
       gradientUnits="userSpaceOnUse"
       gradientTransform="matrix(1.0959323,0,0,0.8089025,-8.2651612,11.473831)"
       cx="26.927441"
       cy="25.766438"
       fx="26.927441"
       fy="25.766438"
       r="19.161766" />
    <linearGradient
       inkscape:collect="always"
       xlink:href="#linearGradient6091"
       id="linearGradient3064"
       gradientUnits="userSpaceOnUse"
       gradientTransform="matrix(0.5479662,0,0,0.3392172,6.4901656,29.075948)"
       x1="10.602306"
       y1="35.894798"
       x2="47.001671"
       y2="35.690231" />
    <linearGradient
       inkscape:collect="always"
       xlink:href="#linearGradient6105"
       id="linearGradient3066"
       gradientUnits="userSpaceOnUse"
       gradientTransform="translate(-2.7545076,-0.1836338)"
       x1="15.551565"
       y1="41"
       x2="23.73423"
       y2="41" />
    <radialGradient
       inkscape:collect="always"
       xlink:href="#linearGradient6041"
       id="radialGradient3068"
       gradientUnits="userSpaceOnUse"
       gradientTransform="matrix(0.94560281,0,0,0.8204423,-3.8927993,3.5285007)"
       cx="29.922518"
       cy="32.704834"
       fx="29.922518"
       fy="32.704834"
       r="19.736389" />
    <linearGradient
       inkscape:collect="always"
       xlink:href="#linearGradient6296"
       id="linearGradient3070"
       gradientUnits="userSpaceOnUse"
       gradientTransform="translate(-2.7545076,-0.1836338)"
       x1="34.825703"
       y1="42.345951"
       x2="28.763092"
       y2="32.737347" />
    <radialGradient
       inkscape:collect="always"
       xlink:href="#linearGradient6304"
       id="radialGradient3072"
       gradientUnits="userSpaceOnUse"
       gradientTransform="matrix(0.4228001,0,0,0.3113668,9.6432324,19.361684)"
       cx="17.831682"
       cy="18.914896"
       fx="17.831682"
       fy="18.914896"
       r="19.736389" />
    <radialGradient
       cx="17.058823"
       cy="41.058823"
       r="5.7384715"
       fx="14.68769"
       fy="37.45607"
       id="radialGradient3198-9"
       xlink:href="#linearGradient7067-5-6"
       gradientUnits="userSpaceOnUse"
       gradientTransform="matrix(0.68315419,-0.12185712,0.02398557,0.64784268,16.537607,-0.2005913)" />
    <linearGradient
       id="linearGradient7067-5-6">
      <stop
         id="stop7069-9-4"
         style="stop-color:white;stop-opacity:1"
         offset="0" />
      <stop
         id="stop7071-3-3"
         style="stop-color:white;stop-opacity:0"
         offset="1" />
    </linearGradient>
    <linearGradient
       x1="28.503141"
       y1="137.53885"
       x2="26.256771"
       y2="125.39074"
       id="linearGradient3201-3"
       xlink:href="#linearGradient2372-9-3"
       gradientUnits="userSpaceOnUse"
       gradientTransform="matrix(0.23013199,0,0,0.23039255,26.420462,-25.009524)" />
    <linearGradient
       id="linearGradient2372-9-3">
      <stop
         id="stop2374-9-8"
         style="stop-color:white;stop-opacity:1"
         offset="0" />
      <stop
         id="stop2376-4-6"
         style="stop-color:white;stop-opacity:0.34482759"
         offset="1" />
    </linearGradient>
    <radialGradient
       cx="17.058823"
       cy="41.058823"
       r="5.7384715"
       fx="14.757765"
       fy="37.841019"
       id="radialGradient3204-0"
       xlink:href="#linearGradient3668-5-4"
       gradientUnits="userSpaceOnUse"
       gradientTransform="matrix(0.7193066,-0.11623586,0.01570024,0.6700801,28.786465,-3.1666868)" />
    <linearGradient
       id="linearGradient3668-5-4">
      <stop
         id="stop3670-7-8"
         style="stop-color:white;stop-opacity:1"
         offset="0" />
      <stop
         id="stop3672-4-8"
         style="stop-color:white;stop-opacity:0"
         offset="1" />
    </linearGradient>
    <linearGradient
       x1="28.739122"
       y1="144.11652"
       x2="26.256771"
       y2="125.39074"
       id="linearGradient3207-8"
       xlink:href="#linearGradient2372-9-3"
       gradientUnits="userSpaceOnUse"
       gradientTransform="matrix(0.31763863,0,0,0.23039255,37.064825,-26.912905)" />
  </defs>
  <g
     id="g3043"
     transform="translate(2.9288136,-0.440678)">
    <path
       style="opacity:0.78165935;fill:url(#radialGradient3062);fill-opacity:1;fill-rule:evenodd;stroke:none;stroke-width:1.06208694;marker:none;visibility:visible;display:inline;overflow:visible;enable-background:accumulate"
       id="path6115"
       d="m 42.245489,32.316367 a 20.999999,15.500001 0 0 1 -41.99999657,0 20.999999,15.500001 0 1 1 41.99999657,0 z"
       inkscape:connector-curvature="0" />
    <path
       style="fill:url(#linearGradient3064);fill-opacity:1;fill-rule:evenodd;stroke:#2e3436;stroke-width:1;stroke-linecap:round;stroke-linejoin:miter;stroke-miterlimit:4;stroke-opacity:1;stroke-dasharray:none;stroke-dashoffset:0;marker:none;visibility:visible;display:inline;overflow:visible;enable-background:accumulate"
       id="path6051"
       d="m 31.745493,37.816367 a 10.5,6.5000007 0 0 1 -21,0 10.5,6.5000007 0 1 1 21,0 z"
       inkscape:connector-curvature="0" />
    <path
       style="fill:none;stroke:#ffffff;stroke-width:1;stroke-linecap:round;stroke-linejoin:miter;stroke-miterlimit:4;stroke-opacity:0.35585584;stroke-dasharray:none;stroke-dashoffset:0;marker:none;visibility:visible;display:inline;overflow:visible;enable-background:accumulate"
       id="path6099"
       d="m 30.745492,37.816365 a 9.4999995,5.4999999 0 0 1 -18.999999,0 9.4999995,5.4999999 0 1 1 18.999999,0 z"
       inkscape:connector-curvature="0" />
    <path
       style="opacity:0.56768559;fill:url(#linearGradient3066);fill-opacity:1;fill-rule:evenodd;stroke:none;display:inline"
       id="path6103"
       d="m 11.813706,39.816366 c 0,0 2.431786,4 9.431786,4 l 0,-6 -9.409006,0 -0.02278,2 z"
       inkscape:connector-curvature="0" />
    <path
       style="fill:#555753;fill-opacity:1;fill-rule:evenodd;stroke:#2e3436;stroke-width:1;stroke-linecap:round;stroke-linejoin:miter;stroke-miterlimit:4;stroke-opacity:1;stroke-dasharray:none;stroke-dashoffset:0;marker:none;visibility:visible;display:inline;overflow:visible;enable-background:accumulate"
       id="path6216"
       d="m 40.745492,24.316367 a 19.5,17.000001 0 0 1 -39,0 19.5,17.000001 0 1 1 39,0 z"
       inkscape:connector-curvature="0" />
    <path
       style="fill:#555753;fill-opacity:1;fill-rule:evenodd;stroke:#2e3436;stroke-width:1;stroke-linecap:round;stroke-linejoin:miter;stroke-miterlimit:4;stroke-opacity:1;stroke-dasharray:none;stroke-dashoffset:0;marker:none;visibility:visible;display:inline;overflow:visible;enable-background:accumulate"
       id="path6011"
       d="m 40.745492,23.316368 a 19.5,17.000001 0 0 1 -39,0 19.5,17.000001 0 1 1 39,0 z"
       inkscape:connector-curvature="0" />
    <path
       style="fill:url(#radialGradient3068);fill-opacity:1;fill-rule:evenodd;stroke:#2e3436;stroke-width:1;stroke-linecap:round;stroke-linejoin:miter;stroke-miterlimit:4;stroke-opacity:1;stroke-dasharray:none;stroke-dashoffset:0;marker:none;visibility:visible;display:inline;overflow:visible;enable-background:accumulate"
       id="path6013"
       d="m 39.120493,23.816367 a 17.6875,15.500001 0 0 1 -35.3750008,0 17.6875,15.500001 0 1 1 35.3750008,0 z"
       inkscape:connector-curvature="0" />
    <path
       style="fill:#ffffff;fill-opacity:0.37387384;fill-rule:evenodd;stroke:none;stroke-width:0.57255107;marker:none;visibility:visible;display:inline;overflow:visible;enable-background:accumulate"
       id="path6089"
       d="m 22.739342,34.816366 a 1.000001,1.0000011 0 1 1 -2.000002,0 1.000001,1.0000011 0 1 1 2.000002,0 z"
       inkscape:connector-curvature="0" />
    <path
       style="fill:none;stroke:#ffffff;stroke-width:0.99999994;stroke-linecap:round;stroke-linejoin:miter;stroke-miterlimit:4;stroke-opacity:0.27477477;stroke-dasharray:none;stroke-dashoffset:0;marker:none;visibility:visible;display:inline;overflow:visible;enable-background:accumulate"
       id="path6015"
       d="m 39.66216,23.316366 a 18.458334,16 0 0 1 -36.9166679,0 18.458334,16 0 1 1 36.9166679,0 z"
       inkscape:connector-curvature="0" />
    <path
       style="fill:url(#linearGradient3070);fill-opacity:1;fill-rule:evenodd;stroke:none;display:inline"
       id="path6039"
       d="m 14.279663,38.815551 c 4.370294,2.255137 21.03988,1.981742 24.965829,-10.999185 0,0 -5.636347,14.203426 -24.965829,10.999185 z"
       inkscape:connector-curvature="0" />
    <path
       style="fill:none;stroke:#ffffff;stroke-width:1;stroke-linecap:round;stroke-linejoin:miter;stroke-miterlimit:4;stroke-opacity:0.26576574;stroke-dasharray:none;stroke-dashoffset:0;marker:none;visibility:visible;display:inline;overflow:visible;enable-background:accumulate"
       id="path6055"
       d="m 28.469316,28.468733 c 0,2.484 -3.29488,4.847635 -6.882881,4.847635 -3.588,0 -5.840945,-2.016001 -5.840945,-4.500001 0,-2.484001 2.912001,-5.500001 6.500001,-5.500001 3.588001,0 6.223825,2.668366 6.223825,5.152367 z"
       inkscape:connector-curvature="0" />
    <path
       style="fill:#ffffff;fill-opacity:0.37387384;fill-rule:evenodd;stroke:none;stroke-width:0.57255107;marker:none;visibility:visible;display:inline;overflow:visible;enable-background:accumulate"
       id="path6087"
       d="m 19.739342,34.816366 a 1.000001,1.0000011 0 1 1 -2.000002,0 1.000001,1.0000011 0 1 1 2.000002,0 z"
       inkscape:connector-curvature="0" />
    <path
       style="fill:#2e3436;fill-opacity:1;fill-rule:evenodd;stroke:none;stroke-width:0.80970943;marker:none;visibility:visible;display:inline;overflow:visible;enable-background:accumulate"
       id="path6083"
       d="m 19.739342,35.816366 a 0.50000043,1.0000009 0 1 1 -1,0 0.50000043,1.0000009 0 1 1 1,0 z"
       inkscape:connector-curvature="0" />
    <path
       style="fill:#2e3436;fill-opacity:1;fill-rule:evenodd;stroke:none;stroke-width:0.80970943;marker:none;visibility:visible;display:inline;overflow:visible;enable-background:accumulate"
       id="path6085"
       d="m 22.739342,35.816366 a 0.50000043,1.0000009 0 1 1 -1,0 0.50000043,1.0000009 0 1 1 1,0 z"
       inkscape:connector-curvature="0" />
    <g
       style="display:inline"
       id="g2589">
      <path
         style="fill:url(#radialGradient3072);fill-opacity:1;fill-rule:evenodd;stroke:#2e3436;stroke-width:1;stroke-linecap:round;stroke-linejoin:miter;stroke-miterlimit:4;stroke-opacity:1;stroke-dasharray:none;stroke-dashoffset:0;marker:none;visibility:visible;display:inline;overflow:visible;enable-background:accumulate"
         id="path6047"
         d="m 27.745492,27.816367 c 0,2.484 -2.912,4.500001 -6.500001,4.500001 -3.588,0 -6.500001,-2.016001 -6.500001,-4.500001 0,-2.484001 2.912001,-5.500001 6.500001,-5.500001 3.588001,0 6.500001,3.016 6.500001,5.500001 z"
         inkscape:connector-curvature="0" />
      <path
         style="fill:#eeeeee;fill-opacity:1;fill-rule:evenodd;stroke:none;stroke-width:11.06305599;marker:none;visibility:visible;display:inline;overflow:visible;enable-background:accumulate"
         id="path6208"
         transform="matrix(0.1043744,0,0,0.07828089,16.434954,25.299346)"
         d="m 46.089207,25.766438 a 19.161766,19.161766 0 1 1 -38.3235324,0 19.161766,19.161766 0 1 1 38.3235324,0 z"
         inkscape:connector-curvature="0" />
    </g>
  </g>
  <g
     id="g3155"
     transform="matrix(0.84764242,0,0,0.84764242,7.1251737,0.14770955)">
    <path
       style="fill:#6a9ab8;fill-opacity:1;stroke:#2f5371;stroke-width:1.00000012;stroke-linecap:round;stroke-linejoin:round;stroke-miterlimit:4;stroke-opacity:1;stroke-dasharray:none"
       id="path3406"
       d="m 44.988466,1.470611 c -4.281846,0.682425 -8.575548,1.2952791 -12.854035,1.9951361 -1.164518,0.582411 -0.747806,2.061595 -0.822837,3.105017 -1e-6,4.5144259 0,9.0288539 0,13.5432809 -2.989902,-0.664117 -6.440524,1.660678 -6.466088,4.818689 -0.134616,2.028017 1.828741,3.708429 3.803895,3.5227 2.677392,-0.136845 4.876234,-2.72166 4.589556,-5.481694 -10e-7,-4.514918 0,-9.733437 0,-14.2483529 3.531124,-0.507439 7.469018,-1.065543 11,-1.573941 -2e-6,3.4804009 0,7.6644049 0,11.1448089 -2.865041,-0.822601 -6.474407,1.063113 -6.949161,4.077642 -0.396968,1.7765 0.848645,3.562052 2.550074,4.069766 3.184888,1.040469 6.774713,-2.028268 6.399087,-5.309882 -0.0087,-6.155364 0.02682,-12.3107429 0,-18.466088 C 46.164117,2.05586 45.657131,1.4396746 44.988466,1.470611 z"
       inkscape:connector-curvature="0" />
    <path
       style="opacity:0.4;fill:url(#linearGradient3207-8);fill-opacity:1;fill-rule:evenodd;stroke:none"
       id="path3996-9"
       d="m 44.446579,18.617507 0.04234,-11.7365379 c 0.44614,-0.0578 0.0685,-0.0093 0.670099,-0.09587 0.0081,2.192268 0.01129,3.6688349 0.01129,11.9484439 0,0.06161 -0.259835,-0.03092 -0.723739,-0.116032 l 3e-6,0 z"
       inkscape:connector-curvature="0" />
    <path
       style="opacity:0.6;fill:url(#radialGradient3204-0);fill-opacity:1;stroke:none"
       id="path2716-1"
       d="m 45.829343,21.662952 c 0,2.091875 -1.848044,4.101181 -4.127723,4.487912 -2.279675,0.38673 -4.127719,-0.995562 -4.127719,-3.087436 0,-2.091875 1.848044,-4.101183 4.127719,-4.487914 2.279679,-0.38673 4.127723,0.995563 4.127723,3.087438 z"
       inkscape:connector-curvature="0" />
    <path
       style="opacity:0.4;fill:url(#linearGradient3201-3);fill-opacity:1;fill-rule:evenodd;stroke:none"
       id="path2720-9"
       d="m 31.670941,20.627225 0,-15.9625759 c 0,0 0.08338,-0.8857 0.837768,-0.888753 0.06556,0.113136 12.727381,-2.0473481 12.727381,-2.0473481 0,0 0.484543,0.783694 -4.991113,1.5675571 -7.793798,1.115713 -7.861261,1.160176 -7.861261,1.961935 0,2.364917 0,7.1339979 0,15.7450079 -0.167574,-0.142514 -0.376677,-0.290712 -0.712775,-0.375823 l 0,0 z"
       inkscape:connector-curvature="0" />
    <path
       style="opacity:0.6;fill:url(#radialGradient3198-9);fill-opacity:1;stroke:none"
       id="path2712-6"
       d="m 33.096492,23.643063 c 0,2.0233 -1.75516,3.96674 -3.92026,4.340793 -2.165102,0.374054 -3.920262,-0.962926 -3.920262,-2.986227 0,-2.023301 1.75516,-3.966741 3.920262,-4.340795 2.1651,-0.374053 3.92026,0.962927 3.92026,2.986229 z"
       inkscape:connector-curvature="0" />
  </g>
</svg>
