<?xml version="1.0" encoding="UTF-8" standalone="no"?>
<!-- Created with Inkscape (http://www.inkscape.org/) -->
<svg
   xmlns:dc="http://purl.org/dc/elements/1.1/"
   xmlns:cc="http://creativecommons.org/ns#"
   xmlns:rdf="http://www.w3.org/1999/02/22-rdf-syntax-ns#"
   xmlns:svg="http://www.w3.org/2000/svg"
   xmlns="http://www.w3.org/2000/svg"
   xmlns:sodipodi="http://sodipodi.sourceforge.net/DTD/sodipodi-0.dtd"
   xmlns:inkscape="http://www.inkscape.org/namespaces/inkscape"
   width="750"
   height="750"
   id="svg2"
   sodipodi:version="0.32"
   inkscape:version="0.46"
   sodipodi:docname="cd_box_cover.svg"
   inkscape:output_extension="org.inkscape.output.svg.inkscape"
   version="1.0">
  <defs
     id="defs4">
    <inkscape:perspective
       sodipodi:type="inkscape:persp3d"
       inkscape:vp_x="0 : 526.18109 : 1"
       inkscape:vp_y="0 : 1000 : 0"
       inkscape:vp_z="744.09448 : 526.18109 : 1"
       inkscape:persp3d-origin="372.04724 : 350.78739 : 1"
       id="perspective10" />
    <inkscape:perspective
       id="perspective2447"
       inkscape:persp3d-origin="372.04724 : 350.78739 : 1"
       inkscape:vp_z="744.09448 : 526.18109 : 1"
       inkscape:vp_y="0 : 1000 : 0"
       inkscape:vp_x="0 : 526.18109 : 1"
       sodipodi:type="inkscape:persp3d" />
    <filter
       inkscape:collect="always"
       id="filter3856">
      <feGaussianBlur
         inkscape:collect="always"
         stdDeviation="17.827642"
         id="feGaussianBlur3858" />
    </filter>
    <filter
       inkscape:collect="always"
       id="filter3890"
       x="-0.14265955"
       width="1.2853191"
       y="-0.24381824"
       height="1.4876365">
      <feGaussianBlur
         inkscape:collect="always"
         stdDeviation="16.544809"
         id="feGaussianBlur3892" />
    </filter>
    <filter
       inkscape:collect="always"
       id="filter3922"
       x="-0.13500209"
       width="1.2700042"
       y="-0.26999164"
       height="1.5399833">
      <feGaussianBlur
         inkscape:collect="always"
         stdDeviation="32.956737"
         id="feGaussianBlur3924" />
    </filter>
    <filter
       inkscape:collect="always"
       id="filter4093"
       x="-0.061759599"
       width="1.1235192"
       y="-0.47320178"
       height="1.9464036">
      <feGaussianBlur
         inkscape:collect="always"
         stdDeviation="1.6292243"
         id="feGaussianBlur4095" />
    </filter>
    <filter
       inkscape:collect="always"
       id="filter4097"
       x="-1.7564947"
       width="4.5129895"
       y="-0.0065904715"
       height="1.0131809">
      <feGaussianBlur
         inkscape:collect="always"
         stdDeviation="1.6292243"
         id="feGaussianBlur4099" />
    </filter>
    <filter
       inkscape:collect="always"
       id="filter4101"
       x="-0.20431945"
       width="1.4086389"
       y="-0.0065903969"
       height="1.0131808">
      <feGaussianBlur
         inkscape:collect="always"
         stdDeviation="1.6292243"
         id="feGaussianBlur4103" />
    </filter>
    <filter
       inkscape:collect="always"
       id="filter4105"
       x="-0.005751224"
       width="1.0115024"
       y="-2.5607511"
       height="6.1215023">
      <feGaussianBlur
         inkscape:collect="always"
         stdDeviation="1.6292243"
         id="feGaussianBlur4107" />
    </filter>
    <filter
       inkscape:collect="always"
       id="filter4109"
       x="-7.8045802"
       width="16.60916"
       y="-0.0065861678"
       height="1.0131723">
      <feGaussianBlur
         inkscape:collect="always"
         stdDeviation="1.6292243"
         id="feGaussianBlur4111" />
    </filter>
    <filter
       inkscape:collect="always"
       id="filter4113"
       x="-0.0056682008"
       width="1.0113364"
       y="-2.5607511"
       height="6.1215023">
      <feGaussianBlur
         inkscape:collect="always"
         stdDeviation="1.6292243"
         id="feGaussianBlur4115" />
    </filter>
    <filter
       inkscape:collect="always"
       id="filter4117"
       x="-0.76713283"
       width="2.5342657"
       y="-0.0065116517"
       height="1.0130233">
      <feGaussianBlur
         inkscape:collect="always"
         stdDeviation="1.6292243"
         id="feGaussianBlur4119" />
    </filter>
    <filter
       inkscape:collect="always"
       id="filter4121"
       x="-0.0057335988"
       width="1.0114672"
       y="-1.618649"
       height="4.237298">
      <feGaussianBlur
         inkscape:collect="always"
         stdDeviation="1.6292243"
         id="feGaussianBlur4123" />
    </filter>
    <filter
       inkscape:collect="always"
       id="filter4125">
      <feGaussianBlur
         inkscape:collect="always"
         stdDeviation="1.6292243"
         id="feGaussianBlur4127" />
    </filter>
  </defs>
  <sodipodi:namedview
     id="base"
     pagecolor="#6d92d7"
     bordercolor="#666666"
     borderopacity="1.0"
     inkscape:pageopacity="1"
     inkscape:pageshadow="2"
     inkscape:zoom="0.69999999"
     inkscape:cx="157.36309"
     inkscape:cy="319.362"
     inkscape:document-units="px"
     inkscape:current-layer="layer1"
     showgrid="false"
     inkscape:window-width="1152"
     inkscape:window-height="816"
     inkscape:window-x="0"
     inkscape:window-y="48" />
  <metadata
     id="metadata7">
    <rdf:RDF>
      <cc:Work
         rdf:about="">
        <dc:format>image/svg+xml</dc:format>
        <dc:type
           rdf:resource="http://purl.org/dc/dcmitype/StillImage" />
      </cc:Work>
    </rdf:RDF>
  </metadata>
  <g
     inkscape:label="Calque 1"
     inkscape:groupmode="layer"
     id="layer1">
    <rect
       style="opacity:0.97899996;fill:#ffffff;fill-opacity:0.01838235;stroke:none;stroke-width:8;stroke-linejoin:round;stroke-miterlimit:4;stroke-dasharray:none;stroke-dashoffset:79.99999729;stroke-opacity:1;filter:url(#filter4125)"
       id="rect2453"
       width="627.34088"
       height="603.16443"
       x="73.818275"
       y="83.513802" />
    <rect
       style="opacity:0.97899996;fill:#e6e6e6;fill-opacity:0.17647059;stroke:none;stroke-width:8;stroke-linejoin:round;stroke-miterlimit:4;stroke-dasharray:none;stroke-dashoffset:79.99999729;stroke-opacity:1;filter:url(#filter4121)"
       id="rect3273"
       width="681.9693"
       height="2.4156802"
       x="6.1684728"
       y="78.300819" />
    <rect
       y="78.927872"
       x="686.34155"
       height="600.48334"
       width="5.0970812"
       id="rect3277"
       style="opacity:0.97899996;fill:#e6e6e6;fill-opacity:0.39338235;stroke:none;stroke-width:8;stroke-linejoin:round;stroke-miterlimit:4;stroke-dasharray:none;stroke-dashoffset:79.99999729;stroke-opacity:1;filter:url(#filter4117)" />
    <rect
       y="679.43567"
       x="6.88518"
       height="1.5269498"
       width="689.83765"
       id="rect3288"
       style="opacity:0.97899996;fill:#e6e6e6;fill-opacity:0.79044118;stroke:none;stroke-width:8;stroke-linejoin:round;stroke-miterlimit:4;stroke-dasharray:none;stroke-dashoffset:79.99999729;stroke-opacity:1;filter:url(#filter4113)" />
    <rect
       y="78.83036"
       x="672.11603"
       height="593.68945"
       width="0.50100559"
       id="rect3294"
       style="opacity:0.97899996;fill:#ffff71;fill-opacity:0.79044118;stroke:none;stroke-width:8;stroke-linejoin:round;stroke-miterlimit:4;stroke-dasharray:none;stroke-dashoffset:79.99999729;stroke-opacity:1;filter:url(#filter4109)" />
    <rect
       y="672.52606"
       x="6.4685636"
       height="1.5269498"
       width="679.87933"
       id="rect3296"
       style="opacity:0.97899996;fill:#e6e6e6;fill-opacity:0.50367647;stroke:none;stroke-width:8;stroke-linejoin:round;stroke-miterlimit:4;stroke-dasharray:none;stroke-dashoffset:79.99999729;stroke-opacity:1;filter:url(#filter4105)" />
    <rect
       style="opacity:0.97899996;fill:#e6e6e6;fill-opacity:0.11764706;stroke:none;stroke-width:8;stroke-linejoin:round;stroke-miterlimit:4;stroke-dasharray:none;stroke-dashoffset:79.99999729;stroke-opacity:1;filter:url(#filter4101)"
       id="rect3300"
       width="19.137377"
       height="593.30847"
       x="-85.196739"
       y="76.654419"
       transform="matrix(-0.3401966,0,0,1,49.64711,4.0406102)" />
    <rect
       style="opacity:0.97899996;fill:#e6e6e6;fill-opacity:1;stroke:none;stroke-width:8;stroke-linejoin:round;stroke-miterlimit:4;stroke-dasharray:none;stroke-dashoffset:79.99999729;stroke-opacity:1;filter:url(#filter4097)"
       id="rect3304"
       width="2.2261031"
       height="593.30176"
       x="71.827309"
       y="80.621384" />
    <rect
       style="opacity:0.97899996;fill:#ffffff;fill-opacity:0.21568627;stroke:none;stroke-width:8;stroke-linejoin:round;stroke-miterlimit:4;stroke-dasharray:none;stroke-dashoffset:79.99999729;stroke-opacity:1;filter:url(#filter4093)"
       id="rect3674"
       width="63.312237"
       height="8.2631521"
       x="6.5618434"
       y="674.13141" />
    <path
       style="opacity:0.97899996;fill:#ffffff;fill-opacity:0.19607843;stroke:none;stroke-width:8;stroke-linejoin:round;stroke-miterlimit:4;stroke-dasharray:none;stroke-dashoffset:79.99999729;stroke-opacity:1"
       d="M 143.88651,79.197296 C 143.86534,79.581266 143.85526,79.968196 143.85526,80.356616 C 143.85526,93.756846 156.57612,104.65319 172.26151,104.65319 C 187.94688,104.65319 200.699,93.756856 200.69901,80.356616 C 200.69901,79.968166 200.65767,79.581296 200.63651,79.197296 L 143.88651,79.197296 z M 145.32401,79.320626 L 199.29276,79.320626 C 199.31288,79.687596 199.35526,80.059386 199.35526,80.430616 C 199.35525,93.236976 187.24083,103.64185 172.32401,103.64185 C 157.40718,103.64185 145.29276,93.236966 145.29276,80.430616 C 145.29276,80.059426 145.30389,79.687586 145.32401,79.320626 z"
       id="path3937" />
    <path
       style="opacity:0.97899996;fill:#ffffff;fill-opacity:0.11764706;stroke:none;stroke-width:8;stroke-linejoin:round;stroke-miterlimit:4;stroke-dasharray:none;stroke-dashoffset:79.99999729;stroke-opacity:1"
       d="M 144.58685,79.101791 C 144.56635,79.485751 144.56104,79.871511 144.56104,80.259921 C 144.56104,93.659851 156.90086,104.54454 172.09642,104.54454 C 187.29197,104.54454 199.63178,93.659851 199.63179,80.259921 C 199.63179,79.871491 199.60067,79.485781 199.58018,79.101791 L 144.58685,79.101791 z"
       id="path3932" />
    <path
       style="opacity:0.97899996;fill:#ffffff;fill-opacity:0.19607843;stroke:none;stroke-width:8;stroke-linejoin:round;stroke-miterlimit:4;stroke-dasharray:none;stroke-dashoffset:79.99999729;stroke-opacity:1"
       d="M 565.53607,78.384976 C 565.5149,78.768946 565.50482,79.155876 565.50482,79.544296 C 565.50482,92.944526 578.22568,103.84087 593.91107,103.84087 C 609.59644,103.84087 622.34856,92.944536 622.34857,79.544296 C 622.34857,79.155846 622.30723,78.768976 622.28607,78.384976 L 565.53607,78.384976 z M 566.97357,78.508306 L 620.94232,78.508306 C 620.96244,78.875276 621.00482,79.247066 621.00482,79.618296 C 621.00481,92.424656 608.89039,102.82953 593.97357,102.82953 C 579.05674,102.82953 566.94232,92.424646 566.94232,79.618296 C 566.94232,79.247106 566.95345,78.875266 566.97357,78.508306 z"
       id="path3948" />
    <path
       style="opacity:0.97899996;fill:#ffffff;fill-opacity:0.11764706;stroke:none;stroke-width:8;stroke-linejoin:round;stroke-miterlimit:4;stroke-dasharray:none;stroke-dashoffset:79.99999729;stroke-opacity:1"
       d="M 566.23641,78.289471 C 566.21591,78.673431 566.21061,79.059191 566.21061,79.447601 C 566.21061,92.847531 578.55041,103.73222 593.74601,103.73222 C 608.94151,103.73222 621.28131,92.847531 621.28131,79.447601 C 621.28131,79.059171 621.25021,78.673461 621.22971,78.289471 L 566.23641,78.289471 z"
       id="path3950" />
    <path
       style="opacity:0.97899996;fill:#ffffff;fill-opacity:0.19607843;stroke:none;stroke-width:8;stroke-linejoin:round;stroke-miterlimit:4;stroke-dasharray:none;stroke-dashoffset:79.99999729;stroke-opacity:1"
       d="M 625.10659,678.52607 C 625.12775,678.1421 625.13783,677.75517 625.13782,677.36675 C 625.1376,663.96652 612.41657,653.07038 596.73118,653.07064 C 581.04581,653.07089 568.29386,663.96743 568.29407,677.36767 C 568.29408,677.75612 568.33542,678.14299 568.35659,678.52699 L 625.10659,678.52607 z M 623.66909,678.40276 L 569.70034,678.40364 C 569.68021,678.03667 569.63783,677.66488 569.63782,677.29365 C 569.63762,664.48729 581.75187,654.08222 596.66869,654.08198 C 611.58552,654.08174 623.70011,664.48642 623.70032,677.29277 C 623.70033,677.66396 623.6892,678.0358 623.66909,678.40276 z"
       id="path3954" />
    <path
       style="opacity:0.97899996;fill:#ffffff;fill-opacity:0.11764706;stroke:none;stroke-width:8;stroke-linejoin:round;stroke-miterlimit:4;stroke-dasharray:none;stroke-dashoffset:79.99999729;stroke-opacity:1"
       d="M 624.82205,678.41637 C 624.84255,678.03241 624.84795,677.64665 624.84795,677.25824 C 624.84825,663.85831 612.50865,652.97335 597.31305,652.97302 C 582.11755,652.97269 569.77745,663.85712 569.77715,677.25705 C 569.77715,677.64548 569.80825,678.03119 569.82875,678.41518 L 624.82205,678.41637 z"
       id="path3956" />
    <path
       style="opacity:0.97899996;fill:#ffffff;fill-opacity:0.19607843;stroke:none;stroke-width:8;stroke-linejoin:round;stroke-miterlimit:4;stroke-dasharray:none;stroke-dashoffset:79.99999729;stroke-opacity:1"
       d="M 203.45704,679.34524 C 203.47821,678.96127 203.48828,678.57434 203.48827,678.18592 C 203.48806,664.78569 190.76702,653.88956 175.08163,653.88981 C 159.39626,653.89007 146.64432,664.7866 146.64452,678.18684 C 146.64453,678.57529 146.68588,678.96216 146.70704,679.34616 L 203.45704,679.34524 z M 202.01954,679.22193 L 148.05079,679.22281 C 148.03067,678.85584 147.98828,678.48405 147.98827,678.11282 C 147.98808,665.30646 160.10233,654.9014 175.01915,654.90115 C 189.93598,654.90091 202.05057,665.30559 202.05077,678.11194 C 202.05078,678.48313 202.03966,678.85497 202.01954,679.22193 z"
       id="path3960" />
    <path
       style="opacity:0.97899996;fill:#ffffff;fill-opacity:0.11764706;stroke:none;stroke-width:8;stroke-linejoin:round;stroke-miterlimit:4;stroke-dasharray:none;stroke-dashoffset:79.99999729;stroke-opacity:1"
       d="M 203.17251,679.21953 C 203.19301,678.83557 203.19833,678.44981 203.19834,678.0614 C 203.19863,664.66147 190.85905,653.77652 175.66349,653.77619 C 160.46794,653.77586 148.12789,664.66028 148.12759,678.06021 C 148.12758,678.44864 148.15869,678.83435 148.17918,679.21834 L 203.17251,679.21953 z"
       id="path3962" />
    <rect
       style="opacity:1;fill:#ffffff;fill-opacity:0.23529412;stroke:none;stroke-width:8;stroke-linejoin:round;stroke-miterlimit:4;stroke-dasharray:none;stroke-dashoffset:79.99999729;stroke-opacity:1"
       id="rect4020"
       width="2.8331251"
       height="88.571426"
       x="676.75421"
       y="526.82593" />
    <rect
       style="opacity:1;fill:#ffffff;fill-opacity:0.23529412;stroke:none;stroke-width:8;stroke-linejoin:round;stroke-miterlimit:4;stroke-dasharray:none;stroke-dashoffset:79.99999729;stroke-opacity:1"
       id="rect4022"
       width="2.9427831"
       height="88.715004"
       x="676.93567"
       y="152.92896" />
    <path
       style="fill:#ffffff;fill-opacity:0.11764706;fill-rule:evenodd;stroke:none;stroke-width:1px;stroke-linecap:butt;stroke-linejoin:miter;stroke-opacity:1;filter:url(#filter3856)"
       d="M 84.852814,77.238405 C 83.043671,84.254528 86.873119,96.233593 86.873119,107.54298 C 86.873119,118.00234 84.852814,126.86156 84.852814,137.84756 C 84.852814,147.27328 88.893424,153.81381 88.893424,164.11152 C 88.893424,172.10965 90.913729,181.92237 90.913729,192.3958 C 90.913729,202.43154 88.893424,211.88454 88.893424,222.70037 C 88.893424,234.97653 86.823559,243.10166 84.852814,250.98464 C 82.650348,259.79451 84.852814,272.15449 84.852814,281.28922 C 84.852814,289.04546 116.43993,304.47448 123.23861,309.57349 C 128.60126,313.59548 141.04715,317.56116 149.50258,319.67502 C 158.60694,321.95111 170.54183,330.19464 177.78685,333.81715 C 191.48084,340.66415 210.94398,348.16735 226.27417,351.9999 C 242.46803,356.04836 255.99056,361.80733 268.70058,368.16234 C 284.66296,376.14353 302.78745,382.23989 319.2082,386.34508 C 341.87622,392.01209 363.21674,402.90306 385.87827,408.56844 C 404.81769,413.30329 423.69445,414.91949 442.44681,418.66997 C 457.79371,421.73934 475.18563,423.9277 488.91383,430.7918 C 503.88692,438.27834 523.44969,440.94099 539.42146,444.93393 C 553.72441,448.50967 566.48389,455.74015 579.82756,459.07607 C 593.24478,462.43037 604.24292,470.73575 614.17275,473.2182 C 622.66895,475.34225 633.5779,482.92078 642.45702,487.36034 C 651.03564,491.64965 660.4106,496.33713 666.70068,499.48217 C 677.33872,504.80119 671.69976,479.07239 670.74129,475.23851 C 668.18703,465.02145 669.14936,454.72866 666.70068,444.93393 C 664.48219,436.05999 664.68037,427.53275 664.68037,416.64966 C 664.68037,406.1554 664.36643,395.68207 666.70068,386.34508 C 669.03337,377.01434 666.70068,363.72481 666.70068,354.0202 C 666.70068,343.40106 668.34351,333.30673 670.74129,323.71563 C 672.97899,314.76484 672.76159,302.3251 672.76159,293.41105 C 672.76159,282.63609 672.76159,271.86113 672.76159,261.08617 C 672.76159,250.10422 670.74129,241.75647 670.74129,230.78159 C 670.74129,224.44936 668.66669,210.36137 666.70068,202.49732 C 663.88992,191.25427 668.4731,181.26549 670.74129,172.19274 C 673.39328,161.58477 670.74129,146.66156 670.74129,135.82725 C 670.74129,126.27866 668.72098,116.07954 668.72098,105.52268 C 668.72098,95.421151 668.72098,85.319626 668.72098,75.2181 C 668.72098,65.116575 648.51793,75.2181 638.41641,75.2181 C 627.63621,75.2181 619.15347,73.197795 608.11183,73.197795 C 598.01031,73.197795 587.90878,73.197795 577.80726,73.197795 C 570.98764,73.197795 559.26518,75.2181 549.52298,75.2181 C 539.42146,75.2181 529.31993,75.2181 519.21841,75.2181 C 508.67645,75.2181 498.35657,74.87772 488.91383,77.238405 C 480.10397,79.440871 467.74398,77.238405 458.60926,77.238405 C 448.93057,77.238405 437.19185,75.2181 426.28437,75.2181 C 416.18285,75.2181 406.08132,75.2181 395.9798,75.2181 C 387.39944,75.2181 374.09361,77.154113 365.67522,79.25871 C 356.34447,81.591397 343.05495,79.25871 333.35034,79.25871 C 323.3146,79.25871 313.86159,81.279015 303.04576,81.279015 C 291.54068,81.279015 281.36783,83.29932 270.72088,83.29932 C 260.61936,83.29932 250.51783,83.29932 240.41631,83.29932 C 229.09711,83.29932 221.72702,81.152381 214.15234,79.25871 C 204.07024,76.738185 193.15641,77.238405 183.84776,77.238405 C 173.81202,77.238405 164.35902,75.2181 153.54319,75.2181 C 142.81832,75.2181 133.14131,75.257865 123.23861,77.238405 C 111.54891,79.576345 95.977026,79.463248 84.852814,77.238405 z"
       id="path3788"
       transform="matrix(1.0113863,0,0,1.0008548,-4.08649,10.65617)" />
    <path
       style="fill:#ffffff;fill-opacity:0.27450982;fill-rule:evenodd;stroke:none;stroke-width:1px;stroke-linecap:butt;stroke-linejoin:miter;stroke-opacity:1;filter:url(#filter3922)"
       d="M -69.4329,-659.49835 C -67.109564,-652.88557 -71.453205,-639.62777 -71.453205,-629.19378 C -71.453205,-619.64518 -73.47351,-609.44606 -73.47351,-598.8892 C -73.47351,-589.46348 -69.4329,-582.92295 -69.4329,-572.62523 C -69.4329,-556.8216 -63.654753,-562.08932 -49.229854,-558.4831 C -29.894004,-553.64914 -10.950014,-545.89593 9.3589957,-538.28005 C 61.239866,-518.82472 114.72166,-505.17947 166.9428,-487.77242 C 215.08295,-471.7257 266.78678,-460.85597 312.40477,-441.3054 C 328.97671,-434.20314 348.02845,-426.50351 364.9327,-423.12266 C 380.33324,-420.04255 392.83568,-413.02113 409.37941,-413.02113 C 418.55197,-413.02113 432.10698,-406.70811 439.68399,-402.91961 C 447.80566,-398.85877 456.18,-395.68175 465.94795,-390.79778 C 475.05928,-386.24211 483.92489,-384.78831 492.21192,-382.71656 C 505.81501,-379.31578 510.39466,-378.70476 510.39466,-392.81808 C 510.39466,-403.59828 512.41497,-412.08102 512.41497,-423.12266 C 512.41497,-432.2651 508.37436,-438.67098 508.37436,-449.38662 C 508.37436,-459.48815 508.37436,-469.58967 508.37436,-479.6912 C 508.37436,-489.79273 508.37436,-499.89425 508.37436,-509.99578 C 508.37436,-523.81495 500.06453,-519.64938 490.19161,-522.11761 C 473.1887,-526.36834 456.62074,-526.57355 439.68399,-532.21913 C 419.33656,-539.00161 394.01895,-542.16026 373.01392,-546.36127 C 343.8361,-552.19683 313.96082,-563.14485 284.12049,-570.60493 C 251.61135,-578.73222 218.27588,-586.49222 187.14585,-596.8689 C 170.00144,-602.5837 153.40159,-608.84049 136.63822,-613.03134 C 119.34507,-617.35462 105.19102,-628.97436 88.150896,-633.23439 C 75.708796,-636.34491 64.077366,-640.26292 51.785406,-643.33591 C 38.072976,-646.76402 26.203286,-650.23652 13.399606,-653.43744 C -2.7240043,-657.46834 -16.633284,-664.29275 -33.067404,-667.57957 C -43.858334,-669.73776 -51.242384,-673.64049 -61.35168,-673.64049 C -72.728666,-673.64049 -69.4329,-671.6783 -69.4329,-659.49835 z"
       id="path3830"
       transform="matrix(1.0254506,0,0,1.0151814,150.87454,790.37994)" />
    <path
       style="fill:#ffffff;fill-opacity:0.11764706;fill-rule:evenodd;stroke:none;stroke-width:1px;stroke-linecap:butt;stroke-linejoin:miter;stroke-opacity:1;filter:url(#filter3890)"
       d="M -68.571428,-275.71429 C -68.571428,-268.36953 -68.571428,-243.13005 -68.571428,-227.14286 C -68.571428,-212.35109 -71.428571,-199.82226 -71.428571,-184.28572 C -71.428571,-170 -71.428571,-155.71429 -71.428571,-141.42857 C -71.428571,-120.24123 -72.959337,-118.57143 -51.428574,-118.57143 C -38.247984,-118.57143 -27.866164,-121.96654 -14.285714,-118.57143 C 0.45105571,-114.88724 12.900776,-112.85715 28.571426,-112.85715 C 42.857146,-112.85715 57.142856,-112.85715 71.428576,-112.85715 C 85.714286,-112.85715 99.999996,-112.85715 114.28572,-112.85715 C 128.98222,-112.85715 144.00702,-115.71429 160,-115.71429 C 172.82025,-115.71429 188.34738,-112.85715 202.85715,-112.85715 C 218.04866,-112.85715 186.01336,-124.92524 177.14286,-127.14286 C 159.37808,-131.58406 140.72677,-144.45493 125.71429,-155.71429 C 107.68674,-169.23495 78.992636,-177.64654 59.999996,-187.14286 C 43.576906,-195.35441 33.149016,-207.71121 17.142856,-215.71429 C 3.8528757,-222.35928 -12.963794,-237.57999 -25.714284,-247.14286 C -36.349154,-255.11902 -40.788184,-260.3941 -54.285714,-267.14286 C -59.252725,-269.62637 -63.809524,-272.85715 -68.571428,-275.71429 z"
       id="path3860"
       transform="matrix(1.0254506,0,0,1.0151814,150.87454,790.37994)" />
  </g>
</svg>
