<?xml version="1.0" encoding="UTF-8" standalone="no"?>
<!-- Created with Inkscape (http://www.inkscape.org/) -->
<svg
   xmlns:dc="http://purl.org/dc/elements/1.1/"
   xmlns:cc="http://web.resource.org/cc/"
   xmlns:rdf="http://www.w3.org/1999/02/22-rdf-syntax-ns#"
   xmlns:svg="http://www.w3.org/2000/svg"
   xmlns="http://www.w3.org/2000/svg"
   xmlns:xlink="http://www.w3.org/1999/xlink"
   xmlns:sodipodi="http://sodipodi.sourceforge.net/DTD/sodipodi-0.dtd"
   xmlns:inkscape="http://www.inkscape.org/namespaces/inkscape"
   width="48"
   height="48"
   id="svg2"
   sodipodi:version="0.32"
   inkscape:version="0.45.1"
   version="1.0"
   sodipodi:docbase="/home/pg/cairodocksrc/plug-ins/switcher/data"
   sodipodi:docname="broken.svg"
   inkscape:output_extension="org.inkscape.output.svg.inkscape">
  <defs
     id="defs4">
    <linearGradient
       id="linearGradient5167">
      <stop
         style="stop-color:#b3b3b3;stop-opacity:1"
         offset="0"
         id="stop5169" />
      <stop
         style="stop-color:#4d4d4d;stop-opacity:0.80740738"
         offset="1"
         id="stop5171" />
    </linearGradient>
    <linearGradient
       inkscape:collect="always"
       xlink:href="#linearGradient5167"
       id="linearGradient7140"
       x1="24.203581"
       y1="48.251492"
       x2="24.203581"
       y2="-0.74850821"
       gradientUnits="userSpaceOnUse" />
  </defs>
  <sodipodi:namedview
     id="base"
     pagecolor="#ffffff"
     bordercolor="#666666"
     borderopacity="1.0"
     inkscape:pageopacity="0.0"
     inkscape:pageshadow="2"
     inkscape:zoom="4.912069"
     inkscape:cx="30"
     inkscape:cy="21.428571"
     inkscape:document-units="px"
     inkscape:current-layer="layer1"
     width="48px"
     height="48px"
     inkscape:window-width="872"
     inkscape:window-height="627"
     inkscape:window-x="6"
     inkscape:window-y="48" />
  <metadata
     id="metadata7">
    <rdf:RDF>
      <cc:Work
         rdf:about="">
        <dc:format>image/svg+xml</dc:format>
        <dc:type
           rdf:resource="http://purl.org/dc/dcmitype/StillImage" />
      </cc:Work>
    </rdf:RDF>
  </metadata>
  <g
     inkscape:label="Calque 1"
     inkscape:groupmode="layer"
     id="layer1">
    <rect
       style="fill:url(#linearGradient7140);fill-opacity:1;stroke:#c4c4c4;stroke-opacity:1"
       id="rect2160"
       width="48"
       height="48"
       x="0.2035802"
       y="-0.24850824"
       rx="4"
       ry="4" />
    <path
       style="fill:#b3b3b3;fill-opacity:1;stroke:#c4c4c4;stroke-opacity:1"
       id="path7170"
       d="M 8.6280464,42.074553 C 8.6294286,41.575554 8.7948427,41.10611 8.9390057,40.634839 C 9.1586223,39.845575 9.4968446,39.101775 9.8430843,38.362689 C 10.293458,37.378369 10.987253,36.546395 11.686674,35.73155 C 12.778907,34.564254 13.892508,33.415544 15.038568,32.300727 C 15.94278,31.36935 16.987912,30.616301 18.067189,29.907754 C 19.77199,28.650497 21.285696,27.971852 23.232233,27.541557 C 24.241165,27.350845 25.244068,27.419737 26.254571,27.533982 C 28.208185,27.953847 30.16359,28.405231 32.084412,28.960077 C 33.800131,29.503317 35.540736,30.023845 37.154399,30.832015 C 37.955233,31.228947 38.615728,31.79338 39.250493,32.408703 C 39.721753,32.934263 40.12037,33.518118 40.535128,34.08772 C 40.958161,34.686122 41.256033,35.355257 41.555122,36.020198 C 41.822732,36.634737 41.980347,37.284441 42.120808,37.936482 C 42.185125,38.550066 42.273563,39.160401 42.359513,39.771315 C 42.384661,39.941208 42.394856,40.112644 42.412528,40.283309 L 39.768613,41.656618 C 39.767247,41.638519 39.738671,41.158506 39.730461,41.150977 C 39.651005,40.542922 39.568417,39.93561 39.508907,39.325361 C 39.384598,38.691682 39.233981,38.064097 38.988122,37.464103 C 38.701654,36.815911 38.409413,36.165693 37.995333,35.58636 C 37.589957,35.029296 37.200202,34.458019 36.736741,33.946511 C 36.136852,33.352442 35.505846,32.809917 34.756052,32.40583 C 33.180225,31.641029 31.567007,30.952388 29.875408,30.475204 C 27.915783,29.951049 25.923018,29.511614 23.919891,29.195299 C 22.91067,29.109534 21.902364,29.102227 20.904448,29.306212 C 19.731661,29.599309 16.387257,31.02787 20.76693,28.863288 C 19.651275,29.557273 18.563708,30.291971 17.632382,31.23046 C 16.495635,32.337244 15.389047,33.473359 14.298202,34.625434 C 13.630662,35.414061 12.962705,36.218346 12.511445,37.1551 C 12.156612,37.870748 11.814056,38.593071 11.60723,39.368697 C 11.480531,39.803524 11.32125,40.246227 11.322814,40.7015 L 8.6280464,42.074553 z " />
    <path
       style="fill:#b3b3b3;fill-opacity:1;stroke:#c4c4c4;stroke-opacity:1"
       id="path7172"
       d="M 21.632226,22.471481 C 21.147937,22.085643 20.683753,21.677188 20.216431,21.270291 C 19.658172,20.81378 19.204295,20.264019 18.787377,19.68157 C 18.43511,19.190685 18.18778,18.635728 17.922713,18.095409 C 17.639297,17.655587 17.812849,17.349472 17.879706,16.92308 C 19.928855,15.39837 23.258393,13.720398 18.855369,16.233989 C 20.129112,15.273146 21.167982,14.795761 22.506033,14.342254 C 22.720902,14.223621 22.971751,14.230698 23.202247,14.175485 L 20.807348,15.981214 C 20.586852,16.050527 20.35472,16.088585 20.143806,16.189798 C 19.051497,16.608156 17.092969,17.459756 21.651791,15.15939 C 20.684959,15.718382 19.721285,16.28287 18.751296,16.836366 C 18.118741,17.197315 21.268487,15.370381 20.646825,15.749784 C 20.539976,16.074512 20.22315,16.179565 20.512311,16.632681 C 20.760522,17.162969 20.992584,17.706321 21.335334,18.184807 C 21.735294,18.748154 22.172332,19.277252 22.713588,19.714871 C 23.187306,20.116946 23.654247,20.527083 24.182086,20.858716 L 21.632226,22.471481 z " />
    <path
       style="fill:#b3b3b3;fill-opacity:1;stroke:#c4c4c4;stroke-opacity:1"
       id="path7174"
       d="M 32.264996,11.891774 C 32.790223,11.961529 33.272422,11.839876 33.774788,11.708787 C 34.538167,11.465928 35.232292,11.064286 35.929656,10.679763 C 31.593096,13.570663 34.626598,11.263149 35.542311,10.397477 C 36.106319,9.8897511 36.547547,9.2858454 36.961321,8.6566237 C 37.151172,8.3938616 37.19591,8.077758 37.291736,7.7799708 L 39.978734,6.4750996 C 39.891866,6.8083367 39.863791,7.1589988 39.667667,7.4576842 C 39.250665,8.1150079 38.817628,8.7563226 38.239767,9.2888743 C 36.815025,10.63015 35.593093,11.740513 33.648261,12.522898 C 32.934275,12.900023 32.221367,13.289615 31.436858,13.503444 C 30.899706,13.609495 30.369922,13.695796 29.818199,13.669476 L 32.264996,11.891774 z " />
    <path
       style="fill:#b3b3b3;fill-opacity:1;stroke:#c4c4c4;stroke-opacity:1"
       id="path7176"
       d="M 14.537416,13.818214 C 14.014334,13.675085 13.539718,13.385788 13.057796,13.141253 C 12.047427,12.544645 11.042774,11.939509 10.019916,11.364599 C 9.4529216,11.086488 9.0160187,10.666316 8.5806328,10.230065 C 8.3112041,9.8729545 8.2179199,9.456395 8.1004444,9.0385401 C 8.029576,8.6287192 8.0358761,8.2123124 8.0276708,7.7982067 C 7.9954237,7.53533 8.0559025,7.274901 8.0698912,7.015605 L 10.770843,5.7064523 C 10.745081,5.9495296 10.637597,6.1855734 10.693269,6.4384054 C 10.700301,6.8361939 10.687207,7.2358312 10.741878,7.6312192 C 10.851038,7.9990522 10.893932,8.3814165 11.146003,8.6963962 C 11.545373,9.1054716 11.948775,9.5061287 12.462656,9.7816352 C 13.456155,10.38875 14.431257,11.035149 15.488768,11.527766 C 15.989365,11.74739 16.482818,12.00937 17.026282,12.101492 L 14.537416,13.818214 z " />
  </g>
</svg>
