<?xml version="1.0" encoding="UTF-8" standalone="no"?>
<!-- Created with Inkscape (http://www.inkscape.org/) -->
<svg
   xmlns:dc="http://purl.org/dc/elements/1.1/"
   xmlns:cc="http://creativecommons.org/ns#"
   xmlns:rdf="http://www.w3.org/1999/02/22-rdf-syntax-ns#"
   xmlns:svg="http://www.w3.org/2000/svg"
   xmlns="http://www.w3.org/2000/svg"
   xmlns:xlink="http://www.w3.org/1999/xlink"
   xmlns:sodipodi="http://sodipodi.sourceforge.net/DTD/sodipodi-0.dtd"
   xmlns:inkscape="http://www.inkscape.org/namespaces/inkscape"
   id="svg2"
   sodipodi:version="0.32"
   inkscape:version="0.46"
   width="48"
   height="48"
   version="1.0"
   sodipodi:docbase="/home/arkham/Desktop/Icones/A Faire"
   sodipodi:docname="icon.svg"
   inkscape:output_extension="org.inkscape.output.svg.inkscape">
  <sodipodi:namedview
     inkscape:window-height="722"
     inkscape:window-width="910"
     inkscape:pageshadow="2"
     inkscape:pageopacity="0.0"
     guidetolerance="10.0"
     gridtolerance="10.0"
     objecttolerance="10.0"
     borderopacity="1.0"
     bordercolor="#666666"
     pagecolor="#ffffff"
     id="base"
     width="48px"
     height="48px"
     inkscape:zoom="2.2483786"
     inkscape:cx="23.272727"
     inkscape:cy="11.500672"
     inkscape:window-x="94"
     inkscape:window-y="105"
     inkscape:current-layer="svg2"
     showgrid="false" />
  <metadata
     id="metadata7">
    <rdf:RDF>
      <cc:Work
         rdf:about="">
        <dc:format>image/svg+xml</dc:format>
        <dc:type
           rdf:resource="http://purl.org/dc/dcmitype/StillImage" />
      </cc:Work>
    </rdf:RDF>
  </metadata>
  <defs
     id="defs5">
    <linearGradient
       id="linearGradient844">
      <stop
         id="stop845"
         offset="0.0000000"
         style="stop-color:#7a7f7f;stop-opacity:1.0000000;" />
      <stop
         id="stop848"
         offset="0.75000000"
         style="stop-color:#ffffff;stop-opacity:1.0000000;" />
      <stop
         id="stop846"
         offset="1.0000000"
         style="stop-color:#1e1d1f;stop-opacity:1.0000000;" />
    </linearGradient>
    <linearGradient
       gradientTransform="matrix(9.3406535e-2,0,0,4.3855937e-2,21.087509,-18.697876)"
       gradientUnits="userSpaceOnUse"
       id="linearGradient17176"
       inkscape:collect="always"
       x1="89.025635"
       x2="382.29233"
       xlink:href="#linearGradient844"
       y1="595.91766"
       y2="628.98285" />
    <linearGradient
       gradientTransform="matrix(9.8342052e-2,0,0,4.1654897e-2,21.087509,-18.697876)"
       gradientUnits="userSpaceOnUse"
       id="linearGradient17173"
       inkscape:collect="always"
       x1="61.514473"
       x2="388.23587"
       xlink:href="#linearGradient839"
       y1="612.05463"
       y2="612.05463" />
    <linearGradient
       id="linearGradient839">
      <stop
         id="stop840"
         offset="0.0000000"
         style="stop-color:#e1dfdf;stop-opacity:1.0000000;" />
      <stop
         id="stop841"
         offset="1.0000000"
         style="stop-color:#1e1d1f;stop-opacity:1.0000000;" />
    </linearGradient>
    <linearGradient
       gradientTransform="matrix(9.8130328e-2,0,0,4.1744786e-2,21.087509,-18.697876)"
       gradientUnits="userSpaceOnUse"
       id="linearGradient17170"
       inkscape:collect="always"
       x1="145.34209"
       x2="248.13947"
       xlink:href="#linearGradient839"
       y1="593.37512"
       y2="593.37512" />
    <linearGradient
       id="linearGradient865">
      <stop
         id="stop866"
         offset="0.0000000"
         style="stop-color:#000000;stop-opacity:1.0000000;" />
      <stop
         id="stop867"
         offset="0.75000000"
         style="stop-color:#e4e3e4;stop-opacity:1.0000000;" />
      <stop
         id="stop868"
         offset="1.0000000"
         style="stop-color:#000000;stop-opacity:1.0000000;" />
    </linearGradient>
    <linearGradient
       gradientTransform="scale(4.046889,0.247103)"
       gradientUnits="userSpaceOnUse"
       id="linearGradient17212"
       inkscape:collect="always"
       x1="143.09009"
       x2="143.63585"
       xlink:href="#linearGradient865"
       y1="1054.8884"
       y2="1105.4794" />
    <radialGradient
       cx="118.80224"
       cy="379.42868"
       fx="118.80224"
       fy="379.42868"
       gradientTransform="scale(0.975659,1.024949)"
       gradientUnits="userSpaceOnUse"
       id="radialGradient17210"
       inkscape:collect="always"
       r="45.171547"
       xlink:href="#linearGradient897" />
    <radialGradient
       cx="146.94307"
       cy="337.3605"
       fx="146.94307"
       fy="337.3605"
       gradientTransform="scale(1.021346,0.9791)"
       gradientUnits="userSpaceOnUse"
       id="radialGradient17208"
       inkscape:collect="always"
       r="19.954281"
       xlink:href="#linearGradient897" />
    <radialGradient
       cx="155.34338"
       cy="448.72061"
       fx="155.34338"
       fy="448.72061"
       gradientTransform="scale(1.001203,0.998798)"
       gradientUnits="userSpaceOnUse"
       id="radialGradient17206"
       inkscape:collect="always"
       r="20.357552"
       xlink:href="#linearGradient897" />
    <radialGradient
       cx="27.147141"
       cy="354.15024"
       fx="27.147141"
       fy="354.15024"
       gradientTransform="scale(0.986887,1.013287)"
       gradientUnits="userSpaceOnUse"
       id="radialGradient17204"
       inkscape:collect="always"
       r="15.965594"
       xlink:href="#linearGradient897" />
    <radialGradient
       cx="93.934479"
       cy="302.54745"
       fx="93.934479"
       fy="302.54745"
       gradientTransform="scale(1.022888,0.977624)"
       gradientUnits="userSpaceOnUse"
       id="radialGradient17202"
       inkscape:collect="always"
       r="16.899773"
       xlink:href="#linearGradient897" />
    <radialGradient
       cx="127.13639"
       cy="239.40109"
       fx="127.13639"
       fy="239.40109"
       gradientTransform="scale(1.004463,0.995557)"
       gradientUnits="userSpaceOnUse"
       id="radialGradient17200"
       inkscape:collect="always"
       r="11.784214"
       xlink:href="#linearGradient897" />
    <radialGradient
       cx="95.238358"
       cy="338.68164"
       fx="95.238358"
       fy="338.68164"
       gradientTransform="scale(0.990726,1.009361)"
       gradientUnits="userSpaceOnUse"
       id="radialGradient17198"
       inkscape:collect="always"
       r="11.309457"
       xlink:href="#linearGradient897" />
    <linearGradient
       id="linearGradient897">
      <stop
         id="stop898"
         offset="0.0000000"
         style="stop-color:#ffff00;stop-opacity:1.0000000;" />
      <stop
         id="stop899"
         offset="0.58044773"
         style="stop-color:#ff8200;stop-opacity:1.0000000;" />
      <stop
         id="stop900"
         offset="1.0000000"
         style="stop-color:#ff0000;stop-opacity:1.0000000;" />
    </linearGradient>
    <radialGradient
       cx="158.87154"
       cy="383.68256"
       fx="158.87154"
       fy="383.68256"
       gradientTransform="scale(1.059165,0.94414)"
       gradientUnits="userSpaceOnUse"
       id="radialGradient17196"
       inkscape:collect="always"
       r="19.123625"
       xlink:href="#linearGradient897" />
    <linearGradient
       id="linearGradient955">
      <text
         id="text627" />
      <text
         id="text628" />
      <text
         id="text629" />
      <stop
         id="stop956"
         offset="0.0000000"
         style="stop-color:#3360a2;stop-opacity:1.0000000;" />
      <text
         id="text631" />
      <text
         id="text632" />
      <text
         id="text633" />
      <stop
         id="stop957"
         offset="1.0000000"
         style="stop-color:#6a3eff;stop-opacity:1.0000000;" />
      <text
         id="text635" />
      <text
         id="text636" />
      <text
         id="text637" />
    </linearGradient>
    <linearGradient
       inkscape:collect="always"
       xlink:href="#linearGradient955"
       id="linearGradient3389"
       gradientUnits="userSpaceOnUse"
       gradientTransform="matrix(0.7120342,0,0,0.7120342,-0.7946276,7.3583103)"
       x1="65.254700"
       y1="59.735355"
       x2="12.357862"
       y2="10.985075" />
    <linearGradient
       id="linearGradient990">
      <text
         id="text567" />
      <text
         id="text568" />
      <text
         id="text569" />
      <stop
         id="stop992"
         offset="0"
         style="stop-color:#ffffff;stop-opacity:1.0000;" />
      <stop
         style="stop-color:#e5f1ff;stop-opacity:1.0000000;"
         offset="0.80181819"
         id="stop3307" />
      <text
         id="text571" />
      <text
         id="text572" />
      <text
         id="text573" />
      <stop
         id="stop991"
         offset="1"
         style="stop-color:#72afff;stop-opacity:1.0000;" />
      <text
         id="text575" />
      <text
         id="text576" />
      <text
         id="text577" />
    </linearGradient>
    <radialGradient
       inkscape:collect="always"
       xlink:href="#linearGradient990"
       id="radialGradient3387"
       gradientUnits="userSpaceOnUse"
       gradientTransform="matrix(0.7719789,0,0,0.5373074,-3.0211442,13.280085)"
       cx="37.142853"
       cy="35.360432"
       fx="25.795912"
       fy="19.653742"
       r="28.107143" />
    <inkscape:perspective
       sodipodi:type="inkscape:persp3d"
       inkscape:vp_x="0 : 24 : 1"
       inkscape:vp_y="0 : 1000 : 0"
       inkscape:vp_z="48 : 24 : 1"
       inkscape:persp3d-origin="24 : 16 : 1"
       id="perspective7" />
  </defs>
  <path
     style="opacity:1;fill:url(#radialGradient3387);fill-opacity:1;fill-rule:nonzero;stroke:url(#linearGradient3389);stroke-width:0.71907854;stroke-linecap:butt;stroke-linejoin:round;marker:none;marker-start:none;marker-mid:none;marker-end:none;stroke-miterlimit:4;stroke-dasharray:none;stroke-dashoffset:0;stroke-opacity:1;visibility:visible;display:inline;overflow:visible"
     d="M 20.054621,15.502201 C 9.5059987,15.502201 0.94095575,21.420032 0.94095575,28.719334 C 0.94095575,36.018634 9.5059997,41.936465 20.054621,41.936467 C 20.710118,41.936467 21.329643,41.84762 21.968213,41.802961 L 37.143438,47.565986 L 31.847686,39.043828 C 36.267963,36.621138 39.168284,32.921373 39.168284,28.719334 C 39.168284,21.420033 30.603243,15.502201 20.054621,15.502201 z"
     id="path3317" />
  <g
     id="g873"
     transform="matrix(4.0801575e-2,-4.9311825e-2,4.9311825e-2,4.0801575e-2,1.7983699,29.412431)">
    <path
       d="M 44.703245,238.04988 C 24.626315,238.04988 24.804002,279.11606 44.703245,279.11606 L 780.19437,279.11606 C 800.49777,279.11606 799.17518,238.04988 780.19437,238.04988 L 44.703245,238.04988 z"
       id="path862"
       sodipodi:nodetypes="czzzz"
       style="fill:#ffffff;fill-rule:evenodd;stroke:#000000;stroke-width:1.04924173pt" />
    <path
       d="M 85.053607,238.36163 C 67.180355,238.36163 67.338539,278.80431 85.053607,278.80431 L 739.81598,278.80431 C 757.89084,278.80431 756.71342,238.36163 739.81598,238.36163 L 85.053607,238.36163 z"
       id="path871"
       sodipodi:nodetypes="czzzz"
       style="fill:url(#linearGradient17212);fill-rule:evenodd;stroke:#000000;stroke-width:0.98244114pt" />
  </g>
  <polygon
     d="M 144.23244,409.3259 L 123.13169,405.64684 L 108.13864,420.94341 L 105.11714,399.73852 L 85.936128,390.20618 L 105.16948,380.77989 L 108.30802,359.59201 L 123.21638,374.97114 L 144.33712,371.40864 L 134.31764,390.33975 L 144.23244,409.3259 z"
     id="polygon888"
     inkscape:flatsided="false"
     inkscape:randomized="0"
     inkscape:rounded="0"
     points="144.23244,409.32590 123.13169,405.64684 108.13864,420.94342 105.11714,399.73852 85.936128,390.20618 105.16949,380.77990 108.30802,359.59201 123.21638,374.97114 144.33712,371.40865 134.31764,390.33976 144.23244,409.32590 "
     sodipodi:arg1="0.63107939"
     sodipodi:arg2="1.2593979"
     sodipodi:cx="118.19047"
     sodipodi:cy="390.29523"
     sodipodi:r1="32.254463"
     sodipodi:r2="16.127232"
     sodipodi:sides="5"
     sodipodi:type="star"
     style="fill:url(#radialGradient17210);fill-opacity:1;fill-rule:evenodd;stroke:none;stroke-width:1pt"
     transform="matrix(8.6466767e-2,-1.9860001e-3,1.9860001e-3,8.6466767e-2,-0.6599281,2.5666489)" />
  <polygon
     d="M 163.26311,349.22904 L 150.50499,342.91611 L 138.07177,349.84706 L 140.13325,335.76256 L 129.69945,326.07965 L 143.73163,323.68788 L 149.71641,310.77257 L 156.3273,323.37887 L 170.45989,325.07968 L 160.51346,335.26257 L 163.26311,349.22904 z"
     id="polygon889"
     inkscape:flatsided="false"
     inkscape:randomized="0"
     inkscape:rounded="0"
     points="163.26311,349.22905 150.50498,342.91613 138.07177,349.84707 140.13324,335.76257 129.69945,326.07967 143.73163,323.68789 149.71640,310.77258 156.32730,323.37888 170.45989,325.07969 160.51346,335.26258 163.26311,349.22905 "
     sodipodi:arg1="0.9179497"
     sodipodi:arg2="1.5462682"
     sodipodi:cx="150.24213"
     sodipodi:cy="332.2016"
     sodipodi:r1="21.435478"
     sodipodi:r2="10.717739"
     sodipodi:sides="5"
     sodipodi:type="star"
     style="fill:url(#radialGradient17208);fill-opacity:1;fill-rule:evenodd;stroke:none;stroke-width:1pt"
     transform="matrix(8.2031141e-2,-2.7410555e-2,2.7410555e-2,8.2031141e-2,-9.7571114,5.7311756)" />
  <polygon
     d="M 170.27441,454.39854 L 159.86351,454.34451 L 153.9169,462.89013 L 150.75113,452.97207 L 140.78616,449.95725 L 149.24052,443.88159 L 149.02843,433.4727 L 157.41928,439.63579 L 167.25318,436.21756 L 163.98464,446.10223 L 170.27441,454.39854 z"
     id="polygon890"
     inkscape:flatsided="false"
     inkscape:randomized="0"
     inkscape:rounded="0"
     points="170.27440,454.39854 159.86350,454.34451 153.91689,462.89013 150.75113,452.97207 140.78615,449.95725 149.24051,443.88159 149.02842,433.47270 157.41927,439.63579 167.25317,436.21757 163.98464,446.10223 170.27440,454.39854 "
     sodipodi:arg1="0.46364761"
     sodipodi:arg2="1.0919661"
     sodipodi:cx="156.25182"
     sodipodi:cy="447.38724"
     sodipodi:r1="15.677741"
     sodipodi:r2="7.8388705"
     sodipodi:sides="5"
     sodipodi:type="star"
     style="fill:url(#radialGradient17206);fill-opacity:1;fill-rule:evenodd;stroke:none;stroke-width:1pt"
     transform="matrix(6.065303e-2,-6.1914627e-2,5.771664e-2,6.4414484e-2,-20.101467,20.491574)" />
  <polygon
     d="M 41.06618,370.26293 L 30.074258,367.52872 L 21.590394,375.03354 L 20.79409,363.73469 L 11.034926,357.98517 L 21.534705,353.7363 L 23.987074,342.67809 L 31.272598,351.351 L 42.547409,350.26616 L 36.550332,359.87518 L 41.06618,370.26293 z"
     id="polygon891"
     inkscape:flatsided="false"
     inkscape:randomized="0"
     inkscape:rounded="0"
     points="41.066180,370.26295 30.074258,367.52874 21.590393,375.03356 20.794089,363.73470 11.034925,357.98518 21.534704,353.73632 23.987073,342.67810 31.272597,351.35101 42.547410,350.26618 36.550332,359.87520 41.066180,370.26295 "
     sodipodi:arg1="0.70225693"
     sodipodi:arg2="1.3305755"
     sodipodi:cx="28.045197"
     sodipodi:cy="359.24518"
     sodipodi:r1="17.056873"
     sodipodi:r2="8.5284367"
     sodipodi:sides="5"
     sodipodi:type="star"
     style="fill:url(#radialGradient17204);fill-opacity:1;fill-rule:evenodd;stroke:none;stroke-width:1pt"
     transform="matrix(8.2031141e-2,-2.7410555e-2,2.7410555e-2,8.2031141e-2,7.5138249,9.103752)" />
  <polygon
     d="M 105.16949,309.16448 L 96.26901,304.65635 L 87.509503,309.43263 L 89.04659,299.57468 L 81.797247,292.71984 L 91.647697,291.13543 L 95.926863,282.12263 L 100.47769,291.00135 L 110.3717,292.28598 L 103.33382,299.35774 L 105.16949,309.16448 z"
     id="polygon892"
     inkscape:flatsided="false"
     inkscape:randomized="0"
     inkscape:rounded="0"
     points="105.16949,309.16449 96.269007,304.65636 87.509500,309.43263 89.046587,299.57468 81.797244,292.71985 91.647694,291.13543 95.926860,282.12264 100.47769,291.00136 110.37170,292.28598 103.33382,299.35775 105.16949,309.16449 "
     sodipodi:arg1="0.92729522"
     sodipodi:arg2="1.5556137"
     sodipodi:cx="96.154961"
     sodipodi:cy="297.14511"
     sodipodi:r1="15.024212"
     sodipodi:r2="7.5121059"
     sodipodi:sides="5"
     sodipodi:type="star"
     style="fill:url(#radialGradient17202);fill-opacity:1;fill-rule:evenodd;stroke:none;stroke-width:1pt"
     transform="matrix(8.2031141e-2,-2.7410555e-2,2.7410555e-2,8.2031141e-2,-9.6784873,6.5960405)" />
  <polygon
     d="M 133.21469,250.06925 L 126.39793,245.27448 L 118.58359,248.17172 L 121.0372,240.20694 L 115.86699,233.67035 L 124.20016,233.54262 L 128.81914,226.60554 L 131.51571,234.49139 L 139.5406,236.74062 L 132.87401,241.74207 L 133.21469,250.06925 z"
     id="polygon893"
     inkscape:flatsided="false"
     inkscape:randomized="0"
     inkscape:rounded="0"
     points="133.21468,250.06925 126.39793,245.27447 118.58358,248.17172 121.03719,240.20693 115.86699,233.67035 124.20015,233.54262 128.81913,226.60554 131.51570,234.49138 139.54060,236.74062 132.87400,241.74207 133.21468,250.06925 "
     sodipodi:arg1="1.0714496"
     sodipodi:arg2="1.6997681"
     sodipodi:cx="127.205"
     sodipodi:cy="239.0515"
     sodipodi:r1="12.550189"
     sodipodi:r2="6.275095"
     sodipodi:sides="5"
     sodipodi:type="star"
     style="fill:url(#radialGradient17200);fill-opacity:1;fill-rule:evenodd;stroke:none;stroke-width:1pt"
     transform="matrix(8.2031141e-2,-2.7410555e-2,2.7410555e-2,8.2031141e-2,-8.6089558,8.1567446)" />
  <polygon
     d="M 104.16787,350.23066 L 96.44486,348.10834 L 90.318252,353.26719 L 89.950155,345.26634 L 83.150565,341.03377 L 90.646079,338.21129 L 92.57031,330.43655 L 97.570889,336.69302 L 105.55972,336.12054 L 101.15473,342.80973 L 104.16787,350.23066 z"
     id="polygon894"
     inkscape:flatsided="false"
     inkscape:randomized="0"
     inkscape:rounded="0"
     points="104.16787,350.23067 96.444861,348.10835 90.318253,353.26720 89.950156,345.26635 83.150566,341.03378 90.646080,338.21130 92.570310,330.43656 97.570890,336.69303 105.55972,336.12055 101.15473,342.80974 104.16787,350.23067 "
     sodipodi:arg1="0.72664234"
     sodipodi:arg2="1.3549609"
     sodipodi:cx="95.153343"
     sodipodi:cy="342.21774"
     sodipodi:r1="12.061031"
     sodipodi:r2="6.0305161"
     sodipodi:sides="5"
     sodipodi:type="star"
     style="fill:url(#radialGradient17198);fill-opacity:1;fill-rule:evenodd;stroke:none;stroke-width:1pt"
     transform="matrix(8.2031141e-2,-2.7410555e-2,2.7410555e-2,8.2031141e-2,-9.6784873,6.5960405)" />
  <polygon
     d="M 179.28894,379.27747 L 167.72372,372.37581 L 159.03386,380.30541 L 159.22826,366.8388 L 148.0161,363.27797 L 159.77573,356.71302 L 157.25342,345.22259 L 168.81864,352.12425 L 177.5085,344.19465 L 177.3141,357.66126 L 188.52625,361.22209 L 176.76663,367.78704 L 179.28894,379.27747 z"
     id="polygon895"
     inkscape:flatsided="false"
     inkscape:randomized="0"
     inkscape:rounded="0"
     points="179.28893,379.27748 167.72371,372.37582 155.48179,377.99031 158.47181,364.85841 149.34915,354.95062 162.76230,353.73632 169.36610,341.99847 174.66587,354.37990 187.86991,357.03330 177.73219,365.89974 179.28893,379.27748 "
     sodipodi:arg1="0.9964915"
     sodipodi:arg2="1.62481"
     sodipodi:cx="168.27118"
     sodipodi:cy="362.25003"
     sodipodi:r1="20.281141"
     sodipodi:r2="10.140571"
     sodipodi:sides="6"
     sodipodi:type="star"
     style="fill:url(#radialGradient17196);fill-opacity:1;fill-rule:evenodd;stroke:none;stroke-width:1pt"
     transform="matrix(8.2031141e-2,-2.7410555e-2,2.7410555e-2,8.2031141e-2,-8.6356064,9.0131167)" />
</svg>
