<?xml version="1.0" encoding="UTF-8" standalone="no"?>
<!-- Created with Inkscape (http://www.inkscape.org/) -->
<svg
   xmlns:dc="http://purl.org/dc/elements/1.1/"
   xmlns:cc="http://web.resource.org/cc/"
   xmlns:rdf="http://www.w3.org/1999/02/22-rdf-syntax-ns#"
   xmlns:svg="http://www.w3.org/2000/svg"
   xmlns="http://www.w3.org/2000/svg"
   xmlns:xlink="http://www.w3.org/1999/xlink"
   xmlns:sodipodi="http://sodipodi.sourceforge.net/DTD/sodipodi-0.dtd"
   xmlns:inkscape="http://www.inkscape.org/namespaces/inkscape"
   width="48px"
   height="48px"
   id="svg19135"
   sodipodi:version="0.32"
   inkscape:version="0.45"
   sodipodi:docbase="/opt/cairo-dock/trunk/cairo-dock/data/themes/_Azur_/launchers"
   sodipodi:docname="audio-player.svg"
   inkscape:output_extension="org.inkscape.output.svg.inkscape"
   sodipodi:modified="true">
  <defs
     id="defs3">
    <linearGradient
       id="linearGradient2497">
      <stop
         style="stop-color:#ffffff;stop-opacity:0.60824740;"
         offset="0.0000000"
         id="stop2499" />
      <stop
         style="stop-color:#ffffff;stop-opacity:0;"
         offset="1"
         id="stop2501" />
    </linearGradient>
    <linearGradient
       id="linearGradient19474">
      <stop
         style="stop-color:#ffffff;stop-opacity:1.0000000;"
         offset="0.0000000"
         id="stop19476" />
      <stop
         style="stop-color:#939393;stop-opacity:1.0000000;"
         offset="1.0000000"
         id="stop19478" />
    </linearGradient>
    <linearGradient
       inkscape:collect="always"
       id="linearGradient19278">
      <stop
         style="stop-color:#000000;stop-opacity:1;"
         offset="0"
         id="stop19280" />
      <stop
         style="stop-color:#000000;stop-opacity:0;"
         offset="1"
         id="stop19282" />
    </linearGradient>
    <linearGradient
       id="linearGradient19270">
      <stop
         id="stop19272"
         offset="0.0000000"
         style="stop-color:#aaaaaa;stop-opacity:1.0000000;" />
      <stop
         id="stop19274"
         offset="1.0000000"
         style="stop-color:#505050;stop-opacity:1.0000000;" />
    </linearGradient>
    <linearGradient
       id="linearGradient19149">
      <stop
         style="stop-color:#adadad;stop-opacity:1.0000000;"
         offset="0.0000000"
         id="stop19151" />
      <stop
         style="stop-color:#747474;stop-opacity:1.0000000;"
         offset="1.0000000"
         id="stop19153" />
    </linearGradient>
    <radialGradient
       inkscape:collect="always"
       xlink:href="#linearGradient19149"
       id="radialGradient19155"
       gradientTransform="scale(1.347925,0.741881)"
       cx="16.331211"
       cy="34.833511"
       fx="16.331211"
       fy="34.833511"
       r="15.231354"
       gradientUnits="userSpaceOnUse" />
    <radialGradient
       inkscape:collect="always"
       xlink:href="#linearGradient19149"
       id="radialGradient19161"
       gradientUnits="userSpaceOnUse"
       gradientTransform="scale(1.347925,0.741881)"
       cx="25.940556"
       cy="41.706387"
       fx="25.940556"
       fy="41.706387"
       r="26.594908" />
    <linearGradient
       inkscape:collect="always"
       xlink:href="#linearGradient19270"
       id="linearGradient19175"
       gradientTransform="matrix(1.3744716,0,0,0.4751037,2.991869,-1.3958751)"
       x1="6.8835502"
       y1="56.288612"
       x2="16.294504"
       y2="68.766663"
       gradientUnits="userSpaceOnUse" />
    <linearGradient
       inkscape:collect="always"
       xlink:href="#linearGradient19149"
       id="linearGradient19243"
       gradientUnits="userSpaceOnUse"
       gradientTransform="matrix(1.1404345,0,0,0.5726036,2.8764271,-1.1071891)"
       x1="5.1625452"
       y1="50.805511"
       x2="26.171595"
       y2="50.805479" />
    <radialGradient
       inkscape:collect="always"
       xlink:href="#linearGradient19278"
       id="radialGradient19284"
       gradientTransform="scale(1.357519,0.736638)"
       cx="17.579761"
       cy="47.402553"
       fx="17.579761"
       fy="47.402553"
       r="16.798437"
       gradientUnits="userSpaceOnUse" />
    <radialGradient
       inkscape:collect="always"
       xlink:href="#linearGradient19474"
       id="radialGradient19480"
       gradientTransform="scale(1.287593,0.776643)"
       cx="30.873167"
       cy="31.265368"
       fx="30.873167"
       fy="31.265368"
       r="3.2488604"
       gradientUnits="userSpaceOnUse" />
    <radialGradient
       inkscape:collect="always"
       xlink:href="#linearGradient19474"
       id="radialGradient19488"
       gradientUnits="userSpaceOnUse"
       gradientTransform="scale(1.287593,0.776643)"
       cx="30.873167"
       cy="31.265368"
       fx="30.873167"
       fy="31.265368"
       r="3.2488604" />
    <radialGradient
       inkscape:collect="always"
       xlink:href="#linearGradient19474"
       id="radialGradient19494"
       gradientUnits="userSpaceOnUse"
       gradientTransform="scale(1.287593,0.776643)"
       cx="30.873167"
       cy="31.265368"
       fx="30.873167"
       fy="31.265368"
       r="3.2488604" />
    <radialGradient
       inkscape:collect="always"
       xlink:href="#linearGradient19474"
       id="radialGradient19496"
       gradientUnits="userSpaceOnUse"
       gradientTransform="scale(1.287593,0.776643)"
       cx="30.873167"
       cy="31.265368"
       fx="30.873167"
       fy="31.265368"
       r="3.2488604" />
    <linearGradient
       inkscape:collect="always"
       xlink:href="#linearGradient19149"
       id="linearGradient2479"
       gradientUnits="userSpaceOnUse"
       gradientTransform="matrix(1.1404346,0,0,0.5726036,2.8764271,0.3804996)"
       x1="5.1625452"
       y1="50.805511"
       x2="26.171595"
       y2="50.805479" />
    <linearGradient
       inkscape:collect="always"
       xlink:href="#linearGradient2497"
       id="linearGradient2503"
       gradientTransform="matrix(0.8667032,0,0,0.7534495,4.5070428,5.04002)"
       x1="11.562314"
       y1="8.0809259"
       x2="30.750120"
       y2="53.658985"
       gradientUnits="userSpaceOnUse" />
  </defs>
  <sodipodi:namedview
     id="base"
     pagecolor="#ffffff"
     bordercolor="#666666"
     borderopacity="0.20392157"
     inkscape:pageopacity="0.0"
     inkscape:pageshadow="2"
     inkscape:zoom="1.4142136"
     inkscape:cx="56.859724"
     inkscape:cy="26.388874"
     inkscape:current-layer="layer1"
     showgrid="false"
     inkscape:grid-bbox="true"
     inkscape:document-units="px"
     inkscape:window-width="910"
     inkscape:window-height="623"
     inkscape:window-x="207"
     inkscape:window-y="80"
     inkscape:showpageshadow="false" />
  <metadata
     id="metadata4">
    <rdf:RDF>
      <cc:Work
         rdf:about="">
        <dc:format>image/svg+xml</dc:format>
        <dc:type
           rdf:resource="http://purl.org/dc/dcmitype/StillImage" />
        <dc:title>Audio Card</dc:title>
        <dc:description>Audio Card Device</dc:description>
        <dc:source>http://jimmac.musichall.cz</dc:source>
        <dc:creator>
          <cc:Agent>
            <dc:title>Jakub Steiner</dc:title>
          </cc:Agent>
        </dc:creator>
        <cc:license
           rdf:resource="http://creativecommons.org/licenses/by-sa/2.0/" />
        <dc:subject>
          <rdf:Bag>
            <rdf:li>sound</rdf:li>
            <rdf:li>audio</rdf:li>
            <rdf:li>card</rdf:li>
            <rdf:li>device</rdf:li>
          </rdf:Bag>
        </dc:subject>
      </cc:Work>
      <cc:License
         rdf:about="http://creativecommons.org/licenses/by-sa/2.0/">
        <cc:permits
           rdf:resource="http://web.resource.org/cc/Reproduction" />
        <cc:permits
           rdf:resource="http://web.resource.org/cc/Distribution" />
        <cc:requires
           rdf:resource="http://web.resource.org/cc/Notice" />
        <cc:requires
           rdf:resource="http://web.resource.org/cc/Attribution" />
        <cc:permits
           rdf:resource="http://web.resource.org/cc/DerivativeWorks" />
        <cc:requires
           rdf:resource="http://web.resource.org/cc/ShareAlike" />
      </cc:License>
    </rdf:RDF>
  </metadata>
  <g
     id="layer1"
     inkscape:label="Layer 1"
     inkscape:groupmode="layer">
    <path
       sodipodi:nodetypes="cccccccscccccccccsccccccc"
       style="color:#000000;fill:url(#linearGradient2479);fill-opacity:1;fill-rule:evenodd;stroke:#4c4c4c;stroke-width:1.61618865;stroke-linecap:butt;stroke-linejoin:miter;marker:none;marker-start:none;marker-mid:none;marker-end:none;stroke-miterlimit:4;stroke-dashoffset:0;stroke-opacity:1;visibility:visible;display:inline;overflow:visible"
       d="M 23.547766,8.9463048 C 20.170453,8.9463048 17.022748,9.5995985 14.406199,10.688758 C 13.874004,10.438626 13.315748,10.183699 12.61324,10.183699 C 10.815641,10.183699 9.3556093,11.143106 9.3556093,12.3302 C 9.3556093,12.747881 9.5734895,13.136503 9.8859212,13.466582 C 8.090184,15.117862 7.0323376,17.389545 7.0323376,19.535212 C 7.0323376,21.160291 7.6772068,22.544735 8.7495385,23.912638 C 7.6988999,24.357047 6.9818317,25.098853 6.9818317,26.340511 C 6.9818317,27.720464 8.6548778,28.840553 10.744521,28.840552 C 11.046032,28.840552 11.321916,28.758336 11.603121,28.714288 C 11.513651,29.013793 11.42635,29.311417 11.42635,29.623394 C 11.42635,30.185657 11.42635,30.864985 11.42635,31.427248 C 11.42635,34.830754 16.945891,37.588967 23.724537,37.588968 C 30.503184,37.588969 35.99747,34.830753 35.99747,31.427248 C 35.99747,30.863617 35.99747,30.187026 35.99747,29.623394 C 35.99747,29.293431 35.920145,28.979689 35.820699,28.663782 C 36.247606,28.774052 36.698523,28.840552 37.184359,28.840552 C 39.274001,28.840552 41.043728,27.720464 41.043728,26.340511 C 41.043728,24.846999 39.944335,24.020115 38.522765,23.660108 C 39.477407,22.355328 40.037942,21.062901 40.037942,19.535212 C 40.037942,17.564989 39.123421,15.462345 37.588406,13.895883 C 38.202146,13.504699 38.598524,12.937543 38.598524,12.3302 C 38.598524,11.143106 37.13849,10.183699 35.340894,10.183699 C 34.425758,10.183699 33.609402,10.438494 33.017622,10.840276 C 30.331135,9.6566539 27.08215,8.9463048 23.547766,8.9463048 z "
       id="path19447" />
    <path
       sodipodi:type="arc"
       style="color:#000000;fill:url(#radialGradient19284);fill-opacity:1;fill-rule:evenodd;stroke:none;stroke-width:4;stroke-linecap:butt;stroke-linejoin:miter;marker:none;marker-start:none;marker-mid:none;marker-end:none;stroke-miterlimit:4;stroke-dashoffset:0;stroke-opacity:1;visibility:visible;display:inline;overflow:visible"
       id="path19276"
       sodipodi:cx="23.864855"
       sodipodi:cy="34.918526"
       sodipodi:rx="22.804193"
       sodipodi:ry="12.374369"
       d="M 46.669048 34.918526 A 22.804193 12.374369 0 1 1  1.0606613,34.918526 A 22.804193 12.374369 0 1 1  46.669048 34.918526 z"
       transform="matrix(0.8080944,0,0,0.8080944,4.3713686,3.9115585)" />
    <path
       style="color:#000000;fill:url(#linearGradient19243);fill-opacity:1;fill-rule:evenodd;stroke:none;stroke-width:2;stroke-linecap:butt;stroke-linejoin:miter;marker:none;marker-start:none;marker-mid:none;marker-end:none;stroke-miterlimit:4;stroke-dashoffset:0;stroke-opacity:1;visibility:visible;display:inline;overflow:visible"
       d="M 23.735363,21.771983 C 16.956716,21.771983 11.437177,24.530197 11.437177,27.933702 C 11.437177,28.495965 11.437177,30.603817 11.437177,31.16608 C 11.437177,34.569584 16.956716,37.327799 23.735363,37.3278 C 30.51401,37.3278 36.008297,34.569584 36.008297,31.16608 C 36.008297,30.602447 36.008297,28.497335 36.008297,27.933702 C 36.008297,24.530198 30.51401,21.771983 23.735363,21.771983 z "
       id="path19181"
       sodipodi:nodetypes="ccccccc" />
    <path
       transform="matrix(0.8080944,0,0,0.8080944,3.7119304,-1.0083535)"
       d="M 39.142858 35.142857 A 14.285714 6 0 1 1  10.571429,35.142857 A 14.285714 6 0 1 1  39.142858 35.142857 z"
       sodipodi:ry="6"
       sodipodi:rx="14.285714"
       sodipodi:cy="35.142857"
       sodipodi:cx="24.857143"
       id="path19268"
       style="color:#000000;fill:#ffffff;fill-opacity:0.5964912;fill-rule:evenodd;stroke:none;stroke-width:4;stroke-linecap:butt;stroke-linejoin:miter;marker:none;marker-start:none;marker-mid:none;marker-end:none;stroke-miterlimit:4;stroke-dashoffset:0;stroke-opacity:1;visibility:visible;display:inline;overflow:visible"
       sodipodi:type="arc" />
    <path
       sodipodi:type="arc"
       style="color:#000000;fill:#afafaf;fill-opacity:1;fill-rule:evenodd;stroke:none;stroke-width:4;stroke-linecap:butt;stroke-linejoin:miter;marker:none;marker-start:none;marker-mid:none;marker-end:none;stroke-miterlimit:4;stroke-dashoffset:0;stroke-opacity:1;visibility:visible;display:inline;overflow:visible"
       id="path19218"
       sodipodi:cx="24.857143"
       sodipodi:cy="35.142857"
       sodipodi:rx="14.285714"
       sodipodi:ry="6"
       d="M 39.142858 35.142857 A 14.285714 6 0 1 1  10.571429,35.142857 A 14.285714 6 0 1 1  39.142858 35.142857 z"
       transform="matrix(0.8080944,0,0,0.8080944,3.5690786,-1.222631)" />
    <path
       style="color:#000000;fill:url(#linearGradient19175);fill-opacity:1;fill-rule:evenodd;stroke:none;stroke-width:2;stroke-linecap:butt;stroke-linejoin:miter;marker:none;marker-start:none;marker-mid:none;marker-end:none;stroke-miterlimit:4;stroke-dashoffset:0;stroke-opacity:1;visibility:visible;display:inline;overflow:visible"
       d="M 39.240674,20.999884 L 34.622991,28.734501 C 29.889868,32.544089 18.922873,32.774973 12.919885,28.849943 L 8.3022033,21.692536 L 39.240674,20.999884 z "
       id="path19173"
       sodipodi:nodetypes="ccccc" />
    <path
       style="color:#000000;fill:#737373;fill-opacity:1;fill-rule:evenodd;stroke:none;stroke-width:2.23437405;stroke-linecap:butt;stroke-linejoin:miter;marker:none;marker-start:none;marker-mid:none;marker-end:none;stroke-miterlimit:4;stroke-dashoffset:0;stroke-opacity:1;visibility:visible;display:inline;overflow:visible"
       d="M 23.547766,9.5299678 C 14.435236,9.5299678 7.0323376,14.137837 7.0323376,19.83317 C 7.0323376,21.458248 7.6772068,22.985546 8.7495385,24.353447 C 7.6988999,24.797858 6.9818317,25.539662 6.9818317,26.424189 C 6.9818317,27.804142 8.6548778,28.924232 10.744521,28.924231 C 11.903508,28.924231 12.90352,28.557444 13.598104,28.015126 C 16.371385,29.334268 19.796314,30.161625 23.547766,30.161625 C 27.553197,30.161625 31.16799,29.222036 34.02774,27.737343 C 34.69751,28.44181 35.832671,28.924231 37.184359,28.924231 C 39.274001,28.924231 40.972301,27.804142 40.972301,26.424189 C 40.972301,25.359235 39.944335,24.460925 38.522765,24.100918 C 39.477407,22.796139 40.037942,21.360858 40.037942,19.83317 C 40.037942,14.137838 32.660296,9.5299678 23.547766,9.5299678 z "
       id="path19500" />
    <path
       transform="matrix(0.8080944,0,0,0.8080944,-24.028248,2.63502)"
       d="M 47.729706 28.819729 A 4.6845822 3.0935922 0 1 1  38.360542,28.819729 A 4.6845822 3.0935922 0 1 1  47.729706 28.819729 z"
       sodipodi:ry="3.0935922"
       sodipodi:rx="4.6845822"
       sodipodi:cy="28.819729"
       sodipodi:cx="43.045124"
       id="path19441"
       style="color:#000000;fill:#cbcbcb;fill-opacity:1;fill-rule:evenodd;stroke:none;stroke-width:2.23437405;stroke-linecap:butt;stroke-linejoin:miter;marker:none;marker-start:none;marker-mid:none;marker-end:none;stroke-miterlimit:4;stroke-dashoffset:0;stroke-opacity:1;visibility:visible;display:inline;overflow:visible"
       sodipodi:type="arc" />
    <path
       sodipodi:type="arc"
       style="color:#000000;fill:#cbcbcb;fill-opacity:1;fill-rule:evenodd;stroke:none;stroke-width:2.23437405;stroke-linecap:butt;stroke-linejoin:miter;marker:none;marker-start:none;marker-mid:none;marker-end:none;stroke-miterlimit:4;stroke-dashoffset:0;stroke-opacity:1;visibility:visible;display:inline;overflow:visible"
       id="path19443"
       sodipodi:cx="43.045124"
       sodipodi:cy="28.819729"
       sodipodi:rx="4.6845822"
       sodipodi:ry="3.0935922"
       d="M 47.729706 28.819729 A 4.6845822 3.0935922 0 1 1  38.360542,28.819729 A 4.6845822 3.0935922 0 1 1  47.729706 28.819729 z"
       transform="matrix(0.6951567,0,0,0.6951567,-17.319894,-7.6110778)" />
    <path
       d="M 43.857143 23.714285 A 18.285715 11.428572 0 1 1  7.2857132,23.714285 A 18.285715 11.428572 0 1 1  43.857143 23.714285 z"
       sodipodi:ry="11.428572"
       sodipodi:rx="18.285715"
       sodipodi:cy="23.714285"
       sodipodi:cx="25.571428"
       id="path19163"
       style="color:#000000;fill:#cbcbcb;fill-opacity:1;fill-rule:evenodd;stroke:none;stroke-width:2;stroke-linecap:butt;stroke-linejoin:miter;marker:none;marker-start:none;marker-mid:none;marker-end:none;stroke-miterlimit:4;stroke-dashoffset:0;stroke-opacity:1;visibility:visible;display:inline;overflow:visible"
       sodipodi:type="arc"
       transform="matrix(0.9027925,0,0,0.9027925,0.4548503,-2.0672335)" />
    <path
       sodipodi:type="arc"
       style="color:#000000;fill:#cbcbcb;fill-opacity:1;fill-rule:evenodd;stroke:none;stroke-width:2.23437405;stroke-linecap:butt;stroke-linejoin:miter;marker:none;marker-start:none;marker-mid:none;marker-end:none;stroke-miterlimit:4;stroke-dashoffset:0;stroke-opacity:1;visibility:visible;display:inline;overflow:visible"
       id="path19439"
       sodipodi:cx="43.045124"
       sodipodi:cy="28.819729"
       sodipodi:rx="4.6845822"
       sodipodi:ry="3.0935922"
       d="M 47.729706 28.819729 A 4.6845822 3.0935922 0 1 1  38.360542,28.819729 A 4.6845822 3.0935922 0 1 1  47.729706 28.819729 z"
       transform="matrix(0.8080944,0,0,0.8080944,2.4021944,2.63502)" />
    <path
       transform="matrix(0.6951567,0,0,0.6951567,5.4166814,-7.6110778)"
       d="M 47.729706 28.819729 A 4.6845822 3.0935922 0 1 1  38.360542,28.819729 A 4.6845822 3.0935922 0 1 1  47.729706 28.819729 z"
       sodipodi:ry="3.0935922"
       sodipodi:rx="4.6845822"
       sodipodi:cy="28.819729"
       sodipodi:cx="43.045124"
       id="path19445"
       style="color:#000000;fill:#cbcbcb;fill-opacity:1;fill-rule:evenodd;stroke:none;stroke-width:2.23437405;stroke-linecap:butt;stroke-linejoin:miter;marker:none;marker-start:none;marker-mid:none;marker-end:none;stroke-miterlimit:4;stroke-dashoffset:0;stroke-opacity:1;visibility:visible;display:inline;overflow:visible"
       sodipodi:type="arc" />
    <path
       sodipodi:type="arc"
       style="color:#000000;fill:url(#radialGradient19161);fill-opacity:1;fill-rule:evenodd;stroke:none;stroke-width:2;stroke-linecap:butt;stroke-linejoin:miter;marker:none;marker-start:none;marker-mid:none;marker-end:none;stroke-miterlimit:4;stroke-dashoffset:0;stroke-opacity:1;visibility:visible;display:inline;overflow:visible"
       id="path19145"
       sodipodi:cx="25.571428"
       sodipodi:cy="23.714285"
       sodipodi:rx="18.285715"
       sodipodi:ry="11.428572"
       d="M 43.857143 23.714285 A 18.285715 11.428572 0 1 1  7.2857132,23.714285 A 18.285715 11.428572 0 1 1  43.857143 23.714285 z"
       transform="matrix(0.8080944,0,0,0.8080944,2.8764271,0.1784761)" />
    <path
       sodipodi:type="arc"
       style="color:#000000;fill:url(#radialGradient19155);fill-opacity:1;fill-rule:evenodd;stroke:none;stroke-width:2;stroke-linecap:butt;stroke-linejoin:miter;marker:none;marker-start:none;marker-mid:none;marker-end:none;stroke-miterlimit:4;stroke-dashoffset:0;stroke-opacity:1;visibility:visible;display:inline;overflow:visible"
       id="path19147"
       sodipodi:cx="26.214285"
       sodipodi:cy="28.071428"
       sodipodi:rx="9.2142859"
       sodipodi:ry="5.0714288"
       d="M 35.428571 28.071428 A 9.2142859 5.0714288 0 1 1  16.999999,28.071428 A 9.2142859 5.0714288 0 1 1  35.428571 28.071428 z"
       transform="matrix(0.7282837,0,0,0.8308584,4.549584,-0.4165221)" />
    <path
       style="color:#000000;fill:#ffffff;fill-opacity:0.85964912;fill-rule:evenodd;stroke:none;stroke-width:2;stroke-linecap:butt;stroke-linejoin:miter;marker:none;marker-start:none;marker-mid:none;marker-end:none;stroke-miterlimit:4;stroke-dashoffset:0;stroke-opacity:1;visibility:visible;display:inline;overflow:visible"
       d="M 35.488804,13.957918 C 44.819431,23.09103 24.99208,34.332422 10.79142,23.932833 C 13.344079,26.701036 18.068268,28.579376 23.544159,28.579376 C 31.700833,28.579376 38.317134,24.434717 38.317135,19.336796 C 38.317135,17.317921 37.249516,15.478211 35.488804,13.957918 z "
       id="path19245"
       sodipodi:nodetypes="ccccc" />
    <path
       sodipodi:type="arc"
       style="color:#000000;fill:url(#radialGradient19480);fill-opacity:1;fill-rule:evenodd;stroke:none;stroke-width:4;stroke-linecap:butt;stroke-linejoin:miter;marker:none;marker-start:none;marker-mid:none;marker-end:none;stroke-miterlimit:4;stroke-dashoffset:0;stroke-opacity:1;visibility:visible;display:inline;overflow:visible"
       id="path19472"
       sodipodi:cx="40.614445"
       sodipodi:cy="25.195807"
       sodipodi:rx="2.7842331"
       sodipodi:ry="1.6793786"
       d="M 43.398678 25.195807 A 2.7842331 1.6793786 0 1 1  37.830212,25.195807 A 2.7842331 1.6793786 0 1 1  43.398678 25.195807 z"
       transform="matrix(0.6431034,0,0,0.7658819,11.795012,7.0564865)" />
    <path
       transform="matrix(0.6431034,0,0,0.7658819,-16.02893,7.0564865)"
       d="M 43.398678 25.195807 A 2.7842331 1.6793786 0 1 1  37.830212,25.195807 A 2.7842331 1.6793786 0 1 1  43.398678 25.195807 z"
       sodipodi:ry="1.6793786"
       sodipodi:rx="2.7842331"
       sodipodi:cy="25.195807"
       sodipodi:cx="40.614445"
       id="path19486"
       style="color:#000000;fill:url(#radialGradient19488);fill-opacity:1;fill-rule:evenodd;stroke:none;stroke-width:4;stroke-linecap:butt;stroke-linejoin:miter;marker:none;marker-start:none;marker-mid:none;marker-end:none;stroke-miterlimit:4;stroke-dashoffset:0;stroke-opacity:1;visibility:visible;display:inline;overflow:visible"
       sodipodi:type="arc" />
    <path
       transform="matrix(0.5435195,0,0,0.647286,13.949876,-4.4769887)"
       d="M 43.398678 25.195807 A 2.7842331 1.6793786 0 1 1  37.830212,25.195807 A 2.7842331 1.6793786 0 1 1  43.398678 25.195807 z"
       sodipodi:ry="1.6793786"
       sodipodi:rx="2.7842331"
       sodipodi:cy="25.195807"
       sodipodi:cx="40.614445"
       id="path19490"
       style="color:#000000;fill:url(#radialGradient19494);fill-opacity:1;fill-rule:evenodd;stroke:none;stroke-width:4;stroke-linecap:butt;stroke-linejoin:miter;marker:none;marker-start:none;marker-mid:none;marker-end:none;stroke-miterlimit:4;stroke-dashoffset:0;stroke-opacity:1;visibility:visible;display:inline;overflow:visible"
       sodipodi:type="arc" />
    <path
       sodipodi:type="arc"
       style="color:#000000;fill:url(#radialGradient19496);fill-opacity:1;fill-rule:evenodd;stroke:none;stroke-width:4;stroke-linecap:butt;stroke-linejoin:miter;marker:none;marker-start:none;marker-mid:none;marker-end:none;stroke-miterlimit:4;stroke-dashoffset:0;stroke-opacity:1;visibility:visible;display:inline;overflow:visible"
       id="path19492"
       sodipodi:cx="40.614445"
       sodipodi:cy="25.195807"
       sodipodi:rx="2.7842331"
       sodipodi:ry="1.6793786"
       d="M 43.398678 25.195807 A 2.7842331 1.6793786 0 1 1  37.830212,25.195807 A 2.7842331 1.6793786 0 1 1  43.398678 25.195807 z"
       transform="matrix(0.5435195,0,0,0.647286,-10.090931,-4.4769887)" />
    <path
       style="color:#000000;fill:none;fill-opacity:1;fill-rule:evenodd;stroke:url(#linearGradient2503);stroke-width:0.77585119;stroke-linecap:butt;stroke-linejoin:miter;marker:none;marker-start:none;marker-mid:none;marker-end:none;stroke-miterlimit:4;stroke-dashoffset:0;stroke-opacity:1;visibility:visible;display:inline;overflow:visible"
       d="M 23.564896,9.4179113 C 20.322338,9.4179113 17.098204,10.14615 14.586056,11.191852 C 14.075096,10.9517 13.539114,10.706946 12.864635,10.706946 C 11.138762,10.706946 9.8379967,11.527061 9.8379967,12.666789 C 9.8379967,13.067804 10.148196,13.440919 10.448161,13.757829 C 8.7240748,15.343222 7.4054012,17.24996 7.4054012,19.310014 C 7.4054012,20.870252 8.3275752,22.740657 9.3571207,24.053979 C 8.3484028,24.480657 7.3569104,25.192863 7.3569104,26.042098 C 7.3569104,27.36699 9.2662377,28.442388 11.272503,28.442387 C 11.561982,28.442387 11.826859,28.363452 12.096845,28.321161 C 12.010945,28.608717 11.927128,28.894464 11.927128,29.193994 C 11.927128,29.733822 11.927128,30.400472 11.927128,30.940301 C 11.927128,34.208006 17.226437,36.856165 23.734613,36.856166 C 30.24279,36.856167 35.517854,34.208005 35.517854,30.940301 C 35.517854,30.399159 35.517854,29.735136 35.517854,29.193994 C 35.517854,28.877197 35.443613,28.575972 35.348136,28.27267 C 35.758008,28.37854 36.190933,28.442387 36.657384,28.442387 C 38.66365,28.442387 40.597223,27.36699 40.597223,26.042098 C 40.597223,25.019635 39.307237,24.157167 37.942389,23.811526 C 38.858939,22.558807 39.599134,20.776747 39.599134,19.310014 C 39.599134,17.418403 38.519078,15.673961 37.04531,14.169999 C 37.634562,13.794424 38.015124,13.249898 38.015124,12.666789 C 38.015124,11.527061 37.118406,10.706946 35.392533,10.706946 C 34.513911,10.706946 33.730128,10.951573 33.161961,11.337324 C 30.582666,10.20093 26.958257,9.4179113 23.564896,9.4179113 z "
       id="path2495"
       sodipodi:nodetypes="ccccccccccccccccccccccccc" />
    <path
       d="M 652.53296 241.6442 A 213.32809 219.97153 0 1 1  225.87677,241.6442 A 213.32809 219.97153 0 1 1  652.53296 241.6442 z"
       id="path566"
       sodipodi:cx="439.20486"
       sodipodi:cy="241.6442"
       sodipodi:rx="213.32809"
       sodipodi:ry="219.97153"
       sodipodi:type="arc"
       style="font-size:12px;opacity:0.8;fill:none;fill-rule:evenodd;stroke:#bf0000;stroke-width:30.1856575;stroke-miterlimit:4;stroke-dasharray:none"
       transform="matrix(0.1029025,0,0,9.914879e-2,-21.131446,-5.9641186e-2)" />
    <path
       d="M 8.8938195,9.8513519 L 37.808872,40.226791"
       id="path567"
       sodipodi:nodetypes="cc"
       style="font-size:12px;opacity:0.8;fill:none;fill-rule:evenodd;stroke:#bf0000;stroke-width:3.04899955;stroke-miterlimit:4;stroke-dasharray:none" />
  </g>
</svg>
