<?xml version="1.0" encoding="UTF-8" standalone="no"?>
<!-- Created with Inkscape (http://www.inkscape.org/) -->
<svg
   xmlns:dc="http://purl.org/dc/elements/1.1/"
   xmlns:cc="http://creativecommons.org/ns#"
   xmlns:rdf="http://www.w3.org/1999/02/22-rdf-syntax-ns#"
   xmlns:svg="http://www.w3.org/2000/svg"
   xmlns="http://www.w3.org/2000/svg"
   xmlns:sodipodi="http://sodipodi.sourceforge.net/DTD/sodipodi-0.dtd"
   xmlns:inkscape="http://www.inkscape.org/namespaces/inkscape"
   width="64"
   height="64"
   id="svg2"
   sodipodi:version="0.32"
   inkscape:version="0.46"
   version="1.0"
   sodipodi:docname="icon-black-hole.svg"
   inkscape:output_extension="org.inkscape.output.svg.inkscape">
  <defs
     id="defs4">
    <inkscape:perspective
       sodipodi:type="inkscape:persp3d"
       inkscape:vp_x="0 : 526.18109 : 1"
       inkscape:vp_y="0 : 1000 : 0"
       inkscape:vp_z="744.09448 : 526.18109 : 1"
       inkscape:persp3d-origin="372.04724 : 350.78739 : 1"
       id="perspective10" />
  </defs>
  <sodipodi:namedview
     id="base"
     pagecolor="#ffffff"
     bordercolor="#666666"
     borderopacity="1.0"
     inkscape:pageopacity="0.0"
     inkscape:pageshadow="2"
     inkscape:zoom="5.6"
     inkscape:cx="33.294501"
     inkscape:cy="33.151979"
     inkscape:document-units="px"
     inkscape:current-layer="layer1"
     showgrid="false"
     inkscape:window-width="645"
     inkscape:window-height="726"
     inkscape:window-x="625"
     inkscape:window-y="0" />
  <metadata
     id="metadata7">
    <rdf:RDF>
      <cc:Work
         rdf:about="">
        <dc:format>image/svg+xml</dc:format>
        <dc:type
           rdf:resource="http://purl.org/dc/dcmitype/StillImage" />
      </cc:Work>
    </rdf:RDF>
  </metadata>
  <g
     inkscape:label="Calque 1"
     inkscape:groupmode="layer"
     id="layer1">
    <path
       sodipodi:type="spiral"
       style="fill:none;fill-rule:evenodd;stroke:#727898;stroke-width:1px;stroke-linecap:butt;stroke-linejoin:miter;stroke-opacity:1"
       id="path2383"
       sodipodi:cx="31.785715"
       sodipodi:cy="35.25"
       sodipodi:expansion="1"
       sodipodi:revolution="3.0135264"
       sodipodi:radius="35.469082"
       sodipodi:argument="-19.426355"
       sodipodi:t0="0"
       d="M 31.785715,35.25 C 33.26967,34.284533 33.819276,36.774015 33.390384,37.716431 C 32.228114,40.270321 28.704382,39.974529 26.852853,38.459338 C 23.540902,35.749017 24.162304,30.662954 26.971708,27.850706 C 31.094621,23.72362 37.92422,24.705059 41.65144,28.831324 C 46.619237,34.330985 45.262425,42.95667 39.80906,47.582156 C 32.946557,53.402858 22.502805,51.663896 16.987128,44.878014 C 10.306904,36.659402 12.431474,24.386279 20.553032,17.984982 C 30.124006,10.441274 44.233101,12.953428 51.517165,22.412648 C 59.926905,33.333691 57.025944,49.282955 46.227737,57.447881 C 33.958128,66.725388 16.165854,63.434811 7.1214033,51.296691 C -3.0251041,37.679554 0.65565068,18.042259 14.134356,8.119257 C 29.098273,-2.8971564 50.582068,1.17418 61.382889,15.993971 C 61.974218,16.805332 62.530866,17.641954 63.050981,18.500704" />
  </g>
</svg>
