<?xml version="1.0" encoding="UTF-8" standalone="no"?>
<!-- Created with Inkscape (http://www.inkscape.org/) -->
<svg
   xmlns:dc="http://purl.org/dc/elements/1.1/"
   xmlns:cc="http://creativecommons.org/ns#"
   xmlns:rdf="http://www.w3.org/1999/02/22-rdf-syntax-ns#"
   xmlns:svg="http://www.w3.org/2000/svg"
   xmlns="http://www.w3.org/2000/svg"
   xmlns:xlink="http://www.w3.org/1999/xlink"
   xmlns:sodipodi="http://sodipodi.sourceforge.net/DTD/sodipodi-0.dtd"
   xmlns:inkscape="http://www.inkscape.org/namespaces/inkscape"
   width="60.000000px"
   height="60.000000px"
   id="svg2"
   sodipodi:version="0.32"
   inkscape:version="0.46"
   sodipodi:docbase="/home/david/.icons/eXperience/normal/stock"
   sodipodi:docname="icon-evaporate.svg"
   inkscape:output_extension="org.inkscape.output.svg.inkscape">
  <defs
     id="defs3">
    <linearGradient
       id="linearGradient3178">
      <stop
         style="stop-color:#ffffff;stop-opacity:1;"
         offset="0"
         id="stop3180" />
      <stop
         style="stop-color:#3153ad;stop-opacity:1;"
         offset="1"
         id="stop3182" />
    </linearGradient>
    <inkscape:perspective
       sodipodi:type="inkscape:persp3d"
       inkscape:vp_x="0 : 30 : 1"
       inkscape:vp_y="0 : 1000 : 0"
       inkscape:vp_z="60 : 30 : 1"
       inkscape:persp3d-origin="30 : 20 : 1"
       id="perspective27" />
    <linearGradient
       id="linearGradient607">
      <stop
         id="stop608"
         offset="0"
         style="stop-color:#ffffff;stop-opacity:1.0000;" />
      <stop
         id="stop609"
         offset="1"
         style="stop-color:#ffffff;stop-opacity:0;" />
    </linearGradient>
    <linearGradient
       id="linearGradient617">
      <stop
         id="stop618"
         offset="0"
         style="stop-color:#ffff97;stop-opacity:1.0000;" />
      <stop
         id="stop619"
         offset="1"
         style="stop-color:#ffd200;stop-opacity:1.0000;" />
    </linearGradient>
    <linearGradient
       id="linearGradient621">
      <stop
         id="stop622"
         offset="0"
         style="stop-color:#ae7d00;stop-opacity:1.0000;" />
      <stop
         id="stop623"
         offset="1"
         style="stop-color:#ca7a00;stop-opacity:1.0000;" />
    </linearGradient>
    <radialGradient
       inkscape:collect="always"
       xlink:href="#linearGradient607"
       id="radialGradient3483"
       gradientUnits="userSpaceOnUse"
       gradientTransform="matrix(1.4388783e-3,0,0,2.6710474e-3,0.5440756,0.6363627)"
       cx="-224.78955"
       cy="16730.576"
       fx="-224.78955"
       fy="16730.576"
       r="15346.778" />
    <radialGradient
       inkscape:collect="always"
       xlink:href="#linearGradient607"
       id="radialGradient3486"
       gradientUnits="userSpaceOnUse"
       gradientTransform="matrix(3.6738348e-3,0,0,1.0461302e-3,0.5440756,0.6363627)"
       cx="12401.653"
       cy="14793.111"
       fx="12401.653"
       fy="14793.111"
       r="10278.286" />
    <radialGradient
       inkscape:collect="always"
       xlink:href="#linearGradient607"
       id="radialGradient3489"
       gradientUnits="userSpaceOnUse"
       gradientTransform="matrix(2.0537001e-3,0,0,1.8714097e-3,0.5440756,0.6363627)"
       cx="1181.6838"
       cy="1680.5630"
       fx="1181.6838"
       fy="1680.5630"
       r="19252.603" />
    <radialGradient
       inkscape:collect="always"
       xlink:href="#linearGradient617"
       id="radialGradient3492"
       gradientUnits="userSpaceOnUse"
       gradientTransform="matrix(1.9944971e-3,0,0,1.9269586e-3,0.5440756,0.6363627)"
       cx="16622.825"
       cy="24634.273"
       fx="16622.825"
       fy="24634.273"
       r="14495.664" />
    <linearGradient
       inkscape:collect="always"
       xlink:href="#linearGradient621"
       id="linearGradient3495"
       gradientUnits="userSpaceOnUse"
       gradientTransform="matrix(1.9960517e-3,0,0,1.9254561e-3,0.5440756,0.6363627)"
       x1="-3.9413268"
       y1="197.54069"
       x2="29468.303"
       y2="197.54069" />
    <radialGradient
       inkscape:collect="always"
       xlink:href="#linearGradient3178"
       id="radialGradient3176"
       cx="-13.660714"
       cy="3.6607146"
       fx="-13.660714"
       fy="3.6607146"
       r="2.6607144"
       gradientUnits="userSpaceOnUse" />
    <radialGradient
       inkscape:collect="always"
       xlink:href="#linearGradient3178"
       id="radialGradient3185"
       gradientUnits="userSpaceOnUse"
       cx="-13.660714"
       cy="3.6607146"
       fx="-13.660714"
       fy="3.6607146"
       r="2.6607144" />
    <radialGradient
       inkscape:collect="always"
       xlink:href="#linearGradient3178"
       id="radialGradient3189"
       gradientUnits="userSpaceOnUse"
       cx="-13.660714"
       cy="3.6607146"
       fx="-13.660714"
       fy="3.6607146"
       r="2.6607144" />
    <radialGradient
       inkscape:collect="always"
       xlink:href="#linearGradient3178"
       id="radialGradient3193"
       gradientUnits="userSpaceOnUse"
       cx="-13.660714"
       cy="3.6607146"
       fx="-13.660714"
       fy="3.6607146"
       r="2.6607144" />
    <radialGradient
       inkscape:collect="always"
       xlink:href="#linearGradient3178"
       id="radialGradient3197"
       gradientUnits="userSpaceOnUse"
       cx="-13.660714"
       cy="3.6607146"
       fx="-13.660714"
       fy="3.6607146"
       r="2.6607144" />
    <radialGradient
       inkscape:collect="always"
       xlink:href="#linearGradient3178"
       id="radialGradient3201"
       gradientUnits="userSpaceOnUse"
       cx="-13.660714"
       cy="3.6607146"
       fx="-13.660714"
       fy="3.6607146"
       r="2.6607144" />
    <radialGradient
       inkscape:collect="always"
       xlink:href="#linearGradient3178"
       id="radialGradient3205"
       gradientUnits="userSpaceOnUse"
       cx="-13.660714"
       cy="3.6607146"
       fx="-13.660714"
       fy="3.6607146"
       r="2.6607144" />
    <radialGradient
       inkscape:collect="always"
       xlink:href="#linearGradient3178"
       id="radialGradient3209"
       gradientUnits="userSpaceOnUse"
       cx="-13.660714"
       cy="3.6607146"
       fx="-13.660714"
       fy="3.6607146"
       r="2.6607144" />
    <radialGradient
       inkscape:collect="always"
       xlink:href="#linearGradient3178"
       id="radialGradient3213"
       gradientUnits="userSpaceOnUse"
       cx="-13.660714"
       cy="3.6607146"
       fx="-13.660714"
       fy="3.6607146"
       r="2.6607144" />
    <radialGradient
       inkscape:collect="always"
       xlink:href="#linearGradient3178"
       id="radialGradient3217"
       gradientUnits="userSpaceOnUse"
       cx="-13.660714"
       cy="3.6607146"
       fx="-13.660714"
       fy="3.6607146"
       r="2.6607144" />
    <radialGradient
       inkscape:collect="always"
       xlink:href="#linearGradient3178"
       id="radialGradient3221"
       gradientUnits="userSpaceOnUse"
       cx="-13.660714"
       cy="3.6607146"
       fx="-13.660714"
       fy="3.6607146"
       r="2.6607144" />
    <radialGradient
       inkscape:collect="always"
       xlink:href="#linearGradient3178"
       id="radialGradient3225"
       gradientUnits="userSpaceOnUse"
       cx="-13.660714"
       cy="3.6607146"
       fx="-13.660714"
       fy="3.6607146"
       r="2.6607144" />
  </defs>
  <sodipodi:namedview
     id="base"
     pagecolor="#ffffff"
     bordercolor="#666666"
     borderopacity="1.0"
     inkscape:pageopacity="0.0"
     inkscape:pageshadow="2"
     inkscape:zoom="5.6"
     inkscape:cx="37.927792"
     inkscape:cy="28.344739"
     inkscape:document-units="px"
     inkscape:current-layer="layer1"
     inkscape:window-width="869"
     inkscape:window-height="726"
     inkscape:window-x="177"
     inkscape:window-y="64"
     showgrid="false" />
  <metadata
     id="metadata4">
    <rdf:RDF>
      <cc:Work
         rdf:about="">
        <dc:format>image/svg+xml</dc:format>
        <dc:type
           rdf:resource="http://purl.org/dc/dcmitype/StillImage" />
      </cc:Work>
    </rdf:RDF>
  </metadata>
  <g
     inkscape:label="Layer 1"
     inkscape:groupmode="layer"
     id="layer1">
    <path
       class="fil0"
       d="M 38.950989,19.345368 C 44.351117,20.573386 55.102043,17.257802 58.25847,23.710662 C 58.813275,25.326062 59.153385,25.891373 57.769219,26.89696 L 44.530391,36.514861 L 49.914495,53.092588 C 50.40486,54.602437 49.441286,56.338797 48.357163,57.154338 C 47.282844,57.963998 44.864764,57.964371 43.775722,57.174492 L 29.92514,47.128665 L 17.107804,56.430937 C 15.282638,57.622882 13.253587,57.595436 11.853835,56.613256 C 10.481529,55.650682 9.8345851,53.788269 10.236475,52.159146 L 15.317926,36.514861 L 2.512354,27.196906 C 0.75017611,25.914663 0.21472227,23.889649 0.71463358,22.256606 L 20.897327,19.345368 L 38.950989,19.345368 z"
       id="path592"
       style="font-size:12px;opacity:1;fill:url(#linearGradient3495);fill-opacity:1;fill-rule:evenodd"
       sodipodi:nodetypes="ccscscscccccsccc" />
    <path
       class="fil1"
       d="M 37.999531,20.846739 C 40.790455,20.775532 62.763804,18.089138 56.983475,26.036446 L 42.92701,36.018185 L 48.792007,53.235522 C 49.564242,55.502532 46.73004,57.630685 44.522098,56.013481 L 30.022631,45.393364 L 16.251836,55.407216 C 13.815939,57.178548 10.671509,55.303744 11.628366,52.441272 L 17.118246,36.018185 L 3.0661086,25.854067 C 2.4189475,25.385954 1.5158411,24.124824 2.1005296,22.544535 L 22.047889,20.846739 L 37.999531,20.846739 z"
       id="path594"
       style="font-size:12px;opacity:1;fill:url(#radialGradient3492);fill-rule:evenodd"
       sodipodi:nodetypes="cccsscsscsccc" />
    <path
       class="fil1"
       d="M 26.236891,28.688465 C 22.574422,28.658863 22.727729,27.253308 15.202145,26.600896 C 6.7164475,26.075791 1.5158411,24.124824 2.1005296,22.544535 C 2.6857898,21.180484 3.8862533,20.551066 4.8447128,20.56667 L 22.047889,20.846739 L 27.426248,4.3338853 C 27.6853,3.5385086 28.528897,2.3791707 30.018298,2.3404736 C 31.896986,13.368028 31.174643,28.726478 26.236891,28.688465 z"
       id="path596"
       style="font-size:12px;opacity:1;fill:url(#radialGradient3489);fill-rule:evenodd"
       sodipodi:nodetypes="cscscscs" />
    <path
       class="fil1"
       d="M 22.578598,35.064099 C 20.30957,33.221719 19.338515,34.431898 17.054523,36.255672 L 11.631835,52.364854 C 11.364954,53.157655 11.902563,54.943689 13.104004,55.824809 C 17.621338,44.658555 25.593456,37.601511 22.578598,35.064099 z"
       id="path599"
       style="font-size:12px;opacity:1;fill:url(#radialGradient3483);fill-rule:evenodd"
       sodipodi:nodetypes="ccscs" />
    <path
       sodipodi:type="arc"
       style="opacity:1;fill:url(#radialGradient3185);fill-opacity:1;fill-rule:nonzero;stroke:none;stroke-width:0.5;stroke-miterlimit:4;stroke-dasharray:none;stroke-opacity:1"
       id="path3168"
       sodipodi:cx="-13.660714"
       sodipodi:cy="3.6607146"
       sodipodi:rx="2.4107144"
       sodipodi:ry="2.4107144"
       d="M -11.25,3.6607146 A 2.4107144,2.4107144 0 1 1 -16.071429,3.6607146 A 2.4107144,2.4107144 0 1 1 -11.25,3.6607146 z"
       transform="matrix(0.8952434,0,0,0.8952434,19.803632,3.761022)" />
    <path
       sodipodi:type="arc"
       style="opacity:1;fill:url(#radialGradient3189);fill-opacity:1;fill-rule:nonzero;stroke:none;stroke-width:0.5;stroke-miterlimit:4;stroke-dasharray:none;stroke-opacity:1"
       id="path3187"
       sodipodi:cx="-13.660714"
       sodipodi:cy="3.6607146"
       sodipodi:rx="2.4107144"
       sodipodi:ry="2.4107144"
       d="M -11.25,3.6607146 A 2.4107144,2.4107144 0 1 1 -16.071429,3.6607146 A 2.4107144,2.4107144 0 1 1 -11.25,3.6607146 z"
       transform="translate(57.05357,-0.625)" />
    <path
       sodipodi:type="arc"
       style="opacity:1;fill:url(#radialGradient3193);fill-opacity:1;fill-rule:nonzero;stroke:none;stroke-width:0.5;stroke-miterlimit:4;stroke-dasharray:none;stroke-opacity:1"
       id="path3191"
       sodipodi:cx="-13.660714"
       sodipodi:cy="3.6607146"
       sodipodi:rx="2.4107144"
       sodipodi:ry="2.4107144"
       d="M -11.25,3.6607146 A 2.4107144,2.4107144 0 1 1 -16.071429,3.6607146 A 2.4107144,2.4107144 0 1 1 -11.25,3.6607146 z"
       transform="matrix(0.6296296,0,0,0.7777778,25.744048,13.581349)" />
    <path
       sodipodi:type="arc"
       style="opacity:1;fill:url(#radialGradient3197);fill-opacity:1;fill-rule:nonzero;stroke:none;stroke-width:0.5;stroke-miterlimit:4;stroke-dasharray:none;stroke-opacity:1"
       id="path3195"
       sodipodi:cx="-13.660714"
       sodipodi:cy="3.6607146"
       sodipodi:rx="2.4107144"
       sodipodi:ry="2.4107144"
       d="M -11.25,3.6607146 A 2.4107144,2.4107144 0 1 1 -16.071429,3.6607146 A 2.4107144,2.4107144 0 1 1 -11.25,3.6607146 z"
       transform="matrix(0.8952434,0,0,0.8952434,69.803632,5.011022)" />
    <path
       sodipodi:type="arc"
       style="opacity:1;fill:url(#radialGradient3201);fill-opacity:1;fill-rule:nonzero;stroke:none;stroke-width:0.5;stroke-miterlimit:4;stroke-dasharray:none;stroke-opacity:1"
       id="path3199"
       sodipodi:cx="-13.660714"
       sodipodi:cy="3.6607146"
       sodipodi:rx="2.4107144"
       sodipodi:ry="2.4107144"
       d="M -11.25,3.6607146 A 2.4107144,2.4107144 0 1 1 -16.071429,3.6607146 A 2.4107144,2.4107144 0 1 1 -11.25,3.6607146 z"
       transform="matrix(0.4814815,0,0,0.4814815,52.291667,13.416005)" />
    <path
       sodipodi:type="arc"
       style="opacity:1;fill:url(#radialGradient3205);fill-opacity:1;fill-rule:nonzero;stroke:none;stroke-width:0.5;stroke-miterlimit:4;stroke-dasharray:none;stroke-opacity:1"
       id="path3203"
       sodipodi:cx="-13.660714"
       sodipodi:cy="3.6607146"
       sodipodi:rx="2.4107144"
       sodipodi:ry="2.4107144"
       d="M -11.25,3.6607146 A 2.4107144,2.4107144 0 1 1 -16.071429,3.6607146 A 2.4107144,2.4107144 0 1 1 -11.25,3.6607146 z"
       transform="translate(29.732143,-0.4464285)" />
    <path
       sodipodi:type="arc"
       style="opacity:1;fill:url(#radialGradient3209);fill-opacity:1;fill-rule:nonzero;stroke:none;stroke-width:0.5;stroke-miterlimit:4;stroke-dasharray:none;stroke-opacity:1"
       id="path3207"
       sodipodi:cx="-13.660714"
       sodipodi:cy="3.6607146"
       sodipodi:rx="2.4107144"
       sodipodi:ry="2.4107144"
       d="M -11.25,3.6607146 A 2.4107144,2.4107144 0 1 1 -16.071429,3.6607146 A 2.4107144,2.4107144 0 1 1 -11.25,3.6607146 z"
       transform="matrix(0.5925926,0,0,0.7407408,14.434524,15.949074)" />
    <path
       sodipodi:type="arc"
       style="opacity:1;fill:url(#radialGradient3213);fill-opacity:1;fill-rule:nonzero;stroke:none;stroke-width:0.5;stroke-miterlimit:4;stroke-dasharray:none;stroke-opacity:1"
       id="path3211"
       sodipodi:cx="-13.660714"
       sodipodi:cy="3.6607146"
       sodipodi:rx="2.4107144"
       sodipodi:ry="2.4107144"
       d="M -11.25,3.6607146 A 2.4107144,2.4107144 0 1 1 -16.071429,3.6607146 A 2.4107144,2.4107144 0 1 1 -11.25,3.6607146 z"
       transform="matrix(0.4444445,0,0,0.4444445,37.053571,17.390873)" />
    <path
       sodipodi:type="arc"
       style="opacity:1;fill:url(#radialGradient3217);fill-opacity:1;fill-rule:nonzero;stroke:none;stroke-width:0.5;stroke-miterlimit:4;stroke-dasharray:none;stroke-opacity:1"
       id="path3215"
       sodipodi:cx="-13.660714"
       sodipodi:cy="3.6607146"
       sodipodi:rx="2.4107144"
       sodipodi:ry="2.4107144"
       d="M -11.25,3.6607146 A 2.4107144,2.4107144 0 1 1 -16.071429,3.6607146 A 2.4107144,2.4107144 0 1 1 -11.25,3.6607146 z"
       transform="matrix(0.8428652,0,0,0.8428652,41.178661,4.9718901)" />
    <path
       sodipodi:type="arc"
       style="opacity:1;fill:url(#radialGradient3221);fill-opacity:1;fill-rule:nonzero;stroke:none;stroke-width:0.5;stroke-miterlimit:4;stroke-dasharray:none;stroke-opacity:1"
       id="path3219"
       sodipodi:cx="-13.660714"
       sodipodi:cy="3.6607146"
       sodipodi:rx="2.4107144"
       sodipodi:ry="2.4107144"
       d="M -11.25,3.6607146 A 2.4107144,2.4107144 0 1 1 -16.071429,3.6607146 A 2.4107144,2.4107144 0 1 1 -11.25,3.6607146 z"
       transform="matrix(0.4814815,0,0,0.4814815,56.934524,17.70172)" />
    <path
       sodipodi:type="arc"
       style="opacity:1;fill:url(#radialGradient3225);fill-opacity:1;fill-rule:nonzero;stroke:none;stroke-width:0.5;stroke-miterlimit:4;stroke-dasharray:none;stroke-opacity:1"
       id="path3223"
       sodipodi:cx="-13.660714"
       sodipodi:cy="3.6607146"
       sodipodi:rx="2.4107144"
       sodipodi:ry="2.4107144"
       d="M -11.25,3.6607146 A 2.4107144,2.4107144 0 1 1 -16.071429,3.6607146 A 2.4107144,2.4107144 0 1 1 -11.25,3.6607146 z"
       transform="matrix(0.769562,0,0,0.769562,47.825276,9.1374725)" />
  </g>
</svg>
