<?xml version="1.0" encoding="UTF-8" standalone="no"?>
<!-- Created with Inkscape (http://www.inkscape.org/) -->
<svg
   xmlns:dc="http://purl.org/dc/elements/1.1/"
   xmlns:cc="http://web.resource.org/cc/"
   xmlns:rdf="http://www.w3.org/1999/02/22-rdf-syntax-ns#"
   xmlns:svg="http://www.w3.org/2000/svg"
   xmlns="http://www.w3.org/2000/svg"
   xmlns:sodipodi="http://inkscape.sourceforge.net/DTD/sodipodi-0.dtd"
   xmlns:inkscape="http://www.inkscape.org/namespaces/inkscape"
   width="100"
   height="100"
   id="svg2"
   sodipodi:version="0.32"
   inkscape:version="0.43"
   version="1.0"
   sodipodi:docbase="/home/mirco/src/cairo-demo/cairo-candy/themes/fdo"
   sodipodi:docname="clock-face.svg">
  <defs
     id="defs4">
    <linearGradient
       id="linearGradient2202">
      <stop
         style="stop-color:#a5adad;stop-opacity:1;"
         offset="0"
         id="stop2204" />
      <stop
         style="stop-color:#e8f4ed;stop-opacity:1;"
         offset="1"
         id="stop2206" />
    </linearGradient>
  </defs>
  <sodipodi:namedview
     id="base"
     pagecolor="#ffffff"
     bordercolor="#666666"
     borderopacity="1.0"
     inkscape:pageopacity="0.0"
     inkscape:pageshadow="2"
     inkscape:zoom="9.96"
     inkscape:cx="50"
     inkscape:cy="50"
     inkscape:document-units="px"
     inkscape:current-layer="layer1"
     showguides="true"
     inkscape:guide-bbox="true"
     inkscape:window-width="1077"
     inkscape:window-height="980"
     inkscape:window-x="199"
     inkscape:window-y="76">
    <sodipodi:guide
       orientation="horizontal"
       position="50"
       id="guide1307" />
    <sodipodi:guide
       orientation="vertical"
       position="50"
       id="guide1309" />
    <sodipodi:guide
       orientation="horizontal"
       position="100"
       id="guide1311" />
    <sodipodi:guide
       orientation="vertical"
       position="0"
       id="guide1313" />
    <sodipodi:guide
       orientation="vertical"
       position="100"
       id="guide1315" />
    <sodipodi:guide
       orientation="horizontal"
       position="0"
       id="guide1317" />
    <sodipodi:guide
       orientation="horizontal"
       position="90.060241"
       id="guide1319" />
    <sodipodi:guide
       orientation="vertical"
       position="10.040161"
       id="guide1321" />
    <sodipodi:guide
       orientation="vertical"
       position="90.060241"
       id="guide1323" />
    <sodipodi:guide
       orientation="horizontal"
       position="10.040161"
       id="guide1325" />
  </sodipodi:namedview>
  <metadata
     id="metadata7">
    <rdf:RDF>
      <cc:Work
         rdf:about="">
        <dc:format>image/svg+xml</dc:format>
        <dc:type
           rdf:resource="http://purl.org/dc/dcmitype/StillImage" />
      </cc:Work>
    </rdf:RDF>
  </metadata>
  <g
     inkscape:label="Ebene 1"
     inkscape:groupmode="layer"
     id="layer1">
    <path
       sodipodi:type="arc"
       style="opacity:0.75;fill:#fff1f1;fill-opacity:1;fill-rule:nonzero;stroke:none;stroke-width:1;stroke-linecap:square;stroke-linejoin:miter;stroke-miterlimit:4;stroke-dasharray:none;stroke-dashoffset:0;stroke-opacity:1"
       id="path1327"
       sodipodi:cx="29.116467"
       sodipodi:cy="22.941767"
       sodipodi:rx="18.674698"
       sodipodi:ry="12.700803"
       d="M 47.791164 22.941767 A 18.674698 12.700803 0 1 1  10.441769,22.941767 A 18.674698 12.700803 0 1 1  47.791164 22.941767 z"
       transform="matrix(0,-2.142473,3.150198,0,-22.22091,112.331)" />
    <g
       transform="matrix(0.682653,0,0,0.682653,20.36422,25.08865)"
       style="opacity:1;fill:#ffffff;fill-rule:nonzero;stroke:#3b80ae;stroke-width:2.45880008;stroke-miterlimit:4"
       id="g37">
      <g
         id="g39">
        <path
           style="stroke:#bababa"
           d="M 85.277,40.796 C 87.335,48.68 82.61,56.738 74.726,58.795 L 27.143,71.21 C 19.259,73.267 11.2,68.543 9.143,60.658 L 1.695,32.108 C -0.362,24.224 4.362,16.166 12.246,14.109 L 59.83,1.695 C 67.714,-0.362 75.772,4.362 77.829,12.246 L 85.278,40.796 L 85.277,40.796 z "
           id="path41" />
        <path
           style="fill:#3b80ae;stroke:none"
           d="M 80.444,39.778 C 82.193,47.632 78.628,53.399 70.94,55.225 L 28.704,66.245 C 21.135,68.641 14.615,65.064 12.866,57.409 L 6.53,33.127 C 4.781,24.982 7.239,20.238 16.033,17.68 L 58.27,6.661 C 66.414,4.835 72.359,8.024 74.108,15.496 L 80.444,39.778 L 80.444,39.778 z "
           id="path43" />
      </g>
      <path
         style="opacity:0.5;fill:none;stroke:#ffffff"
         d="M 45.542,51.793 L 24.104,31.102 L 62.204,26.709 L 45.542,51.793 z "
         id="path45" />
      <path
         d="M 72.325,28.769 C 72.73,30.319 71.8,31.905 70.25,32.31 L 57.919,35.527 C 56.368,35.931 54.782,35.002 54.377,33.451 L 52.082,24.65 C 51.677,23.099 52.606,21.513 54.158,21.108 L 66.488,17.891 C 68.039,17.486 69.625,18.416 70.03,19.967 L 72.325,28.768 L 72.325,28.769 z "
         id="path47" />
      <path
         d="M 36.51,33.625 C 37.006,35.525 35.865,37.469 33.965,37.965 L 18.853,41.908 C 16.952,42.404 15.008,41.264 14.513,39.364 L 11.699,28.578 C 11.203,26.677 12.343,24.734 14.243,24.238 L 29.356,20.296 C 31.257,19.8 33.201,20.939 33.696,22.84 L 36.51,33.626 L 36.51,33.625 z "
         id="path49" />
      <path
         d="M 52.493,53.208 C 52.771,54.273 52.133,55.362 51.068,55.64 L 42.6,57.848 C 41.536,58.125 40.447,57.488 40.169,56.422 L 38.592,50.379 C 38.315,49.315 38.952,48.226 40.017,47.947 L 48.485,45.738 C 49.549,45.461 50.639,46.099 50.916,47.164 L 52.493,53.207 L 52.493,53.208 z "
         id="path51" />
    </g>
  </g>
</svg>
