<?xml version="1.0" encoding="UTF-8" standalone="no"?>
<!-- Created with Inkscape (http://www.inkscape.org/) -->
<svg
   xmlns:dc="http://purl.org/dc/elements/1.1/"
   xmlns:cc="http://creativecommons.org/ns#"
   xmlns:rdf="http://www.w3.org/1999/02/22-rdf-syntax-ns#"
   xmlns:svg="http://www.w3.org/2000/svg"
   xmlns="http://www.w3.org/2000/svg"
   xmlns:sodipodi="http://sodipodi.sourceforge.net/DTD/sodipodi-0.dtd"
   xmlns:inkscape="http://www.inkscape.org/namespaces/inkscape"
   width="16px"
   height="16px"
   id="svg4908"
   sodipodi:version="0.32"
   inkscape:version="0.46"
   sodipodi:docbase="/home/andreas/project/gossip/16x16"
   sodipodi:docname="user-invisible.svg"
   inkscape:output_extension="org.inkscape.output.svg.inkscape"
   inkscape:export-filename="/Users/kwwii/Desktop/user-invisible.png"
   inkscape:export-xdpi="270"
   inkscape:export-ydpi="270"
   sodipodi:modified="true">
  <defs
     id="defs4910" />
  <sodipodi:namedview
     id="base"
     pagecolor="#efebe7"
     bordercolor="#666666"
     borderopacity="1.0"
     inkscape:pageopacity="0"
     inkscape:pageshadow="2"
     inkscape:zoom="49.332695"
     inkscape:cx="8.0156251"
     inkscape:cy="8.0034278"
     inkscape:current-layer="layer1"
     showgrid="false"
     inkscape:grid-bbox="true"
     inkscape:document-units="px"
     inkscape:window-width="1343"
     inkscape:window-height="894"
     inkscape:window-x="18"
     inkscape:window-y="36"
     gridtolerance="10000">
    <inkscape:grid
       type="xygrid"
       id="grid2386"
       visible="true"
       enabled="true" />
  </sodipodi:namedview>
  <metadata
     id="metadata4913">
    <rdf:RDF>
      <cc:Work
         rdf:about="">
        <dc:format>image/svg+xml</dc:format>
        <dc:type
           rdf:resource="http://purl.org/dc/dcmitype/StillImage" />
      </cc:Work>
    </rdf:RDF>
  </metadata>
  <g
     id="layer1"
     inkscape:label="Layer 1"
     inkscape:groupmode="layer">
    <path
       style="opacity:0.6;fill:#ffffff;fill-opacity:1;fill-rule:evenodd;stroke:none;stroke-width:2;stroke-linecap:round;stroke-linejoin:round;marker:none;stroke-miterlimit:4;stroke-dasharray:none;stroke-dashoffset:0;stroke-opacity:1;visibility:visible;display:inline;overflow:visible;enable-background:accumulate"
       d="M 8,2 L 2,7 L 4,14 L 12,14 L 14,7 L 8,2 z M 8.03125,3.28125 L 12.875,7.34375 L 11.28125,13 L 4.75,13 L 3.15625,7.34375 L 8.03125,3.28125 z"
       id="path3169" />
    <path
       style="fill:#555753;fill-opacity:1;fill-rule:evenodd;stroke:none;stroke-width:1;stroke-linecap:round;stroke-linejoin:round;marker:none;stroke-miterlimit:4;stroke-dasharray:1, 24;stroke-dashoffset:0;stroke-opacity:1;visibility:visible;display:inline;overflow:visible;enable-background:accumulate"
       d="M 7.90625 1 C 7.7115832 1.0193883 7.5268771 1.0954437 7.375 1.21875 L 1.375 6.21875 C 1.0663414 6.4776493 0.94315913 6.8964687 1.0625 7.28125 L 3.0625 14.28125 C 3.1850026 14.699518 3.5642702 14.99029 4 15 L 12 15 C 12.447322 15.004039 12.842922 14.710529 12.96875 14.28125 L 14.96875 7.28125 C 15.088091 6.8964689 14.964909 6.4776491 14.65625 6.21875 L 8.65625 1.21875 C 8.4462475 1.047164 8.1755683 0.96821579 7.90625 1 z M 8 2 L 14 7 L 12 14 L 4 14 L 2 7 L 8 2 z "
       id="path2388" />
    <path
       style="opacity:0.38251367;fill:#ffffff;fill-opacity:1;fill-rule:evenodd;stroke:#ffffff;stroke-width:1;stroke-linecap:round;stroke-linejoin:round;marker:none;stroke-miterlimit:4;stroke-dasharray:none;stroke-dashoffset:0;stroke-opacity:1;visibility:visible;display:inline;overflow:visible;enable-background:accumulate"
       d="M 8,2 L 14,7 L 12,14 L 4,14 L 2,7 L 8,2 z"
       id="path3182" />
  </g>
</svg>
