<?xml version="1.0" encoding="UTF-8" standalone="no"?>
<svg
   xmlns:dc="http://purl.org/dc/elements/1.1/"
   xmlns:cc="http://web.resource.org/cc/"
   xmlns:rdf="http://www.w3.org/1999/02/22-rdf-syntax-ns#"
   xmlns:svg="http://www.w3.org/2000/svg"
   xmlns="http://www.w3.org/2000/svg"
   xmlns:xlink="http://www.w3.org/1999/xlink"
   xmlns:sodipodi="http://sodipodi.sourceforge.net/DTD/sodipodi-0.dtd"
   xmlns:inkscape="http://www.inkscape.org/namespaces/inkscape"
   version="1.1"
   id="Layer_1"
   width="128"
   height="128"
   viewBox="0 0 128 128"
   overflow="visible"
   enable-background="new 0 0 128 128"
   xml:space="preserve"
   sodipodi:version="0.32"
   inkscape:version="0.45"
   sodipodi:docname="pause.svg"
   sodipodi:docbase="/home/necropotame/.cairo-dock/themes/Fabounet/plug-ins/rhythmbox"
   inkscape:output_extension="org.inkscape.output.svg.inkscape"
   sodipodi:modified="true"><metadata
   id="metadata177"><rdf:RDF><cc:Work
       rdf:about=""><dc:format>image/svg+xml</dc:format><dc:type
         rdf:resource="http://purl.org/dc/dcmitype/StillImage" /></cc:Work></rdf:RDF></metadata><defs
   id="defs175"><linearGradient
     y2="-6.2254333"
     x2="-15.286263"
     y1="7.1375623"
     x1="-10.638614"
     gradientTransform="translate(22.43465,4.820297)"
     gradientUnits="userSpaceOnUse"
     id="linearGradient17223"
     xlink:href="#linearGradient9233"
     inkscape:collect="always" /><linearGradient
     id="linearGradient9233"><stop
       style="stop-color:#eeeeec;stop-opacity:1;"
       offset="0"
       id="stop9235" /><stop
       style="stop-color:#eeeeec;stop-opacity:0;"
       offset="1"
       id="stop9237" /></linearGradient></defs><sodipodi:namedview
   inkscape:window-height="975"
   inkscape:window-width="1280"
   inkscape:pageshadow="2"
   inkscape:pageopacity="0.0"
   guidetolerance="10.0"
   gridtolerance="10.0"
   objecttolerance="10.0"
   borderopacity="1.0"
   bordercolor="#666666"
   pagecolor="#ffffff"
   id="base"
   inkscape:zoom="4"
   inkscape:cx="171.12891"
   inkscape:cy="106.9613"
   inkscape:window-x="0"
   inkscape:window-y="48"
   inkscape:current-layer="Layer_1" />
<path
   d="M 63.572509,10.787379 C 33.948464,10.787379 9.8483233,34.887521 9.8483233,64.511566 C 9.8483233,94.137372 33.948464,118.23751 63.572509,118.23751 C 93.196553,118.23751 117.2967,94.137372 117.2967,64.511566 C 117.2967,34.887521 93.196553,10.787379 63.572509,10.787379 z M 63.572509,71.976585 C 59.457764,71.976585 56.10925,68.628952 56.10925,64.511566 C 56.10925,60.396821 59.456884,57.048307 63.572509,57.048307 C 67.687253,57.048307 71.035767,60.395941 71.035767,64.511566 C 71.035767,68.628952 67.687253,71.976585 63.572509,71.976585 z "
   id="path3"
   style="opacity:0.2;fill:#3d3d3d" />
<path
   d="M 63.572509,9.9066549 C 33.948464,9.9066549 9.8483233,34.006797 9.8483233,63.630841 C 9.8483233,93.256647 33.948464,117.35679 63.572509,117.35679 C 93.196553,117.35679 117.2967,93.256647 117.2967,63.630841 C 117.2967,34.006797 93.196553,9.9066549 63.572509,9.9066549 z M 63.572509,71.095861 C 59.457764,71.095861 56.10925,67.748228 56.10925,63.630841 C 56.10925,59.516097 59.456884,56.167583 63.572509,56.167583 C 67.687253,56.167583 71.035767,59.515216 71.035767,63.630841 C 71.035767,67.748228 67.687253,71.095861 63.572509,71.095861 z "
   id="path5"
   style="opacity:0.2;fill:#3d3d3d" />
<path
   d="M 63.480032,9.0259305 C 33.855988,9.0259305 9.7558463,33.126072 9.7558463,62.750117 C 9.7558463,92.374162 33.855988,116.4743 63.480032,116.4743 C 93.104077,116.4743 117.20422,92.374162 117.20422,62.750117 C 117.20422,33.126072 93.104077,9.0259305 63.480032,9.0259305 z M 63.480032,69.795912 C 59.595157,69.795912 56.434238,66.635873 56.434238,62.750117 C 56.434238,58.865242 59.595157,55.704322 63.480032,55.704322 C 67.364908,55.704322 70.525827,58.865242 70.525827,62.750117 C 70.525827,66.635873 67.364908,69.795912 63.480032,69.795912 z "
   id="path7"
   style="opacity:0.6;fill:#3d3d3d" />
<linearGradient
   id="XMLID_16_"
   gradientUnits="userSpaceOnUse"
   x1="11.998"
   y1="72.9668"
   x2="89.7672"
   y2="99.2332"
   gradientTransform="matrix(0.8807244,0,0,0.8807244,7.1136737,9.0259305)">
	<stop
   offset="0"
   style="stop-color:#CED1E3"
   id="stop10" />
	<stop
   offset="0.1854"
   style="stop-color:#E7E6F0"
   id="stop12" />
	<stop
   offset="0.618"
   style="stop-color:#E7E6F0"
   id="stop14" />
	<stop
   offset="0.8933"
   style="stop-color:#DBC0C4"
   id="stop16" />
	<stop
   offset="1"
   style="stop-color:#D8BDB6"
   id="stop18" />
</linearGradient>
<path
   d="M 71.166114,66.001751 C 69.899632,68.993572 66.935114,71.093219 63.480032,71.093219 C 58.871202,71.093219 55.13605,67.358067 55.13605,62.749236 C 55.13605,62.573972 55.151903,62.402231 55.162472,62.229609 L 11.734834,51.995592 C 11.016163,55.467407 10.636571,59.064285 10.636571,62.750117 C 10.636571,91.93468 34.29635,115.59358 63.480032,115.59358 C 88.002922,115.59358 108.61892,98.885357 114.58054,76.234888 L 71.166114,66.001751 z "
   id="path20"
   style="fill:url(#XMLID_16_)" />
<linearGradient
   id="XMLID_17_"
   gradientUnits="userSpaceOnUse"
   x1="18.7383"
   y1="20.0117"
   x2="119.072"
   y2="45.0119"
   gradientTransform="matrix(0.8807244,0,0,0.8807244,7.1136737,9.0259305)">
	<stop
   offset="0"
   style="stop-color:#BBDBD8"
   id="stop23" />
	<stop
   offset="0.3708"
   style="stop-color:#DFECDB"
   id="stop25" />
	<stop
   offset="0.6798"
   style="stop-color:#DFECDB"
   id="stop27" />
	<stop
   offset="1"
   style="stop-color:#E2E3C9"
   id="stop29" />
</linearGradient>
<path
   d="M 63.480032,9.9066549 C 37.981301,9.9066549 16.703,27.96855 11.734834,51.995592 L 55.163352,62.23049 C 55.432854,57.86562 59.047347,54.407015 63.480913,54.407015 C 68.089744,54.407015 71.824896,58.143048 71.824896,62.750998 C 71.824896,63.904747 71.590623,65.003891 71.166995,66.002632 L 114.5823,76.234888 C 115.71403,71.929026 116.3235,67.41091 116.3235,62.750117 C 116.3235,33.566434 92.663715,9.9066549 63.480032,9.9066549 z "
   id="path31"
   style="fill:url(#XMLID_17_)" />
<path
   d="M 13.683877,45.05108 L 56.283634,58.541135 C 56.548732,58.088443 56.853462,57.664814 57.196064,57.272011 L 21.583094,30.562284 C 18.238983,34.908658 15.555416,39.78611 13.683877,45.05108 z "
   id="path33"
   style="fill:#dce8eb" />
<path
   d="M 55.13605,62.750117 C 55.13605,62.196141 55.192416,61.655377 55.296342,61.131346 L 11.180858,55.212878 C 10.828569,57.676264 10.636571,60.189851 10.636571,62.750117 C 10.636571,65.504142 10.848825,68.207966 11.254839,70.847497 L 55.143976,62.891914 C 55.143096,62.844354 55.13605,62.798557 55.13605,62.750117 z "
   id="path35"
   style="fill:#e6e9f0" />
<path
   d="M 11.180858,55.212878 L 55.296342,61.131346 C 55.479532,60.202181 55.820373,59.332026 56.283634,58.542016 L 13.683877,45.05108 C 12.527486,48.304476 11.681991,51.702311 11.180858,55.212878 z "
   id="path37"
   style="fill:#bacbd8" />
<path
   d="M 112.90276,81.461987 L 70.746889,66.841962 C 70.462415,67.345737 70.125098,67.815163 69.745506,68.247598 L 104.61426,95.907628 C 108.09225,91.598243 110.90616,86.732241 112.90276,81.461987 z "
   id="path39"
   style="fill:#ebdfda" />
<path
   d="M 115.6427,71.203309 L 71.791428,63.404495 C 71.694549,64.648078 71.329048,65.812396 70.746889,66.842843 L 112.90276,81.462867 C 114.1437,78.184811 115.07111,74.75439 115.6427,71.203309 z "
   id="path41"
   style="fill:#d7c8b4" />
<path
   d="M 71.824015,62.750117 C 71.824015,62.971179 71.807281,63.187837 71.791428,63.404495 L 115.6427,71.203309 C 116.08482,68.450165 116.3235,65.628324 116.3235,62.750117 C 116.3235,60.753515 116.20284,58.785977 115.98706,56.847502 L 71.751796,61.712624 C 71.79407,62.052583 71.824015,62.397827 71.824015,62.750117 z "
   id="path43"
   style="fill:#f0eee3" />
<radialGradient
   id="XMLID_18_"
   cx="84.2275"
   cy="3.6353"
   r="29.1799"
   gradientUnits="userSpaceOnUse"
   gradientTransform="matrix(0.8807244,0,0,0.8807244,7.1136737,9.0259305)">
	<stop
   offset="0.4101"
   style="stop-color:#FFFFFF"
   id="stop46" />
	<stop
   offset="1"
   style="stop-color:#DFECDB"
   id="stop48" />
</radialGradient>
<path
   d="M 63.480032,9.9066549 C 60.26715,9.9066549 57.125606,10.209624 54.070373,10.759196 C 54.338114,21.760324 61.905297,32.601161 73.955368,37.557877 C 85.964045,42.49786 98.9195,40.152491 106.85747,32.587069 C 97.310417,18.882117 81.446809,9.9066549 63.480032,9.9066549 z "
   id="path50"
   style="fill:url(#XMLID_18_)" />
<radialGradient
   id="XMLID_19_"
   cx="28.3237"
   cy="111.8779"
   r="21.9056"
   gradientUnits="userSpaceOnUse"
   gradientTransform="matrix(0.8807244,0,0,0.8807244,7.1136737,9.0259305)">
	<stop
   offset="0"
   style="stop-color:#FFFFFF"
   id="stop53" />
	<stop
   offset="1"
   style="stop-color:#E7E6F0"
   id="stop55" />
</radialGradient>
<path
   d="M 51.978653,114.32357 C 54.288793,104.77212 49.236958,94.644669 39.717208,90.73073 C 32.9462,87.944999 25.573656,88.986896 20.051514,92.844468 C 27.498919,103.57081 38.812705,111.39957 51.978653,114.32357 z "
   id="path57"
   style="fill:url(#XMLID_19_)" />
<linearGradient
   id="XMLID_20_"
   gradientUnits="userSpaceOnUse"
   x1="47.1772"
   y1="40.708"
   x2="81.2175"
   y2="81.7672"
   gradientTransform="matrix(0.8807244,0,0,0.8807244,7.1136737,9.0259305)">
	<stop
   offset="0"
   style="stop-color:#879B95"
   id="stop60" />
	<stop
   offset="0.5056"
   style="stop-color:#8E8E9C"
   id="stop62" />
	<stop
   offset="1"
   style="stop-color:#9B8A91"
   id="stop64" />
</linearGradient>
<path
   d="M 63.480032,39.325491 C 50.543953,39.325491 40.055407,49.812276 40.055407,62.750117 C 40.055407,75.686196 50.543072,86.174743 63.480032,86.174743 C 76.416112,86.174743 86.904658,75.687077 86.904658,62.750117 C 86.904658,49.812276 76.416112,39.325491 63.480032,39.325491 z M 63.480032,71.534462 C 58.627241,71.534462 54.695688,67.602027 54.695688,62.750117 C 54.695688,57.899087 58.627241,53.965772 63.480032,53.965772 C 68.332824,53.965772 72.264377,57.898206 72.264377,62.750117 C 72.264377,67.602027 68.332824,71.534462 63.480032,71.534462 z "
   id="path66"
   style="opacity:0.2;fill:url(#XMLID_20_)" />
<linearGradient
   id="XMLID_21_"
   gradientUnits="userSpaceOnUse"
   x1="48.02"
   y1="41.7246"
   x2="80.3542"
   y2="80.726"
   gradientTransform="matrix(0.8807244,0,0,0.8807244,7.1136737,9.0259305)">
	<stop
   offset="0"
   style="stop-color:#879B95"
   id="stop69" />
	<stop
   offset="0.5056"
   style="stop-color:#8E8E9C"
   id="stop71" />
	<stop
   offset="1"
   style="stop-color:#9B8A91"
   id="stop73" />
</linearGradient>
<path
   d="M 63.480032,40.500377 C 51.193047,40.500377 41.230293,50.46137 41.230293,62.750117 C 41.230293,75.037983 51.193047,84.999856 63.480032,84.999856 C 75.767018,84.999856 85.729772,75.037983 85.729772,62.750117 C 85.729772,50.46137 75.767018,40.500377 63.480032,40.500377 z M 63.480032,71.0941 C 58.871202,71.0941 55.13605,67.358947 55.13605,62.750117 C 55.13605,58.142167 58.870321,54.406134 63.480032,54.406134 C 68.089744,54.406134 71.824015,58.142167 71.824015,62.750117 C 71.824015,67.358067 68.088863,71.0941 63.480032,71.0941 z "
   id="path75"
   style="fill:url(#XMLID_21_)" />
<linearGradient
   id="XMLID_22_"
   gradientUnits="userSpaceOnUse"
   x1="57.5889"
   y1="54.5889"
   x2="70.5428"
   y2="67.5428"
   gradientTransform="matrix(0.8807244,0,0,0.8807244,7.1136737,9.0259305)">
	<stop
   offset="0"
   style="stop-color:#BBDBD8"
   id="stop78" />
	<stop
   offset="1"
   style="stop-color:#D8BDB6"
   id="stop80" />
</linearGradient>
<path
   d="M 63.480032,53.942873 C 58.615792,53.942873 54.672789,57.885876 54.672789,62.750117 C 54.672789,67.613477 58.615792,71.557361 63.480032,71.557361 C 68.343392,71.557361 72.287276,67.613477 72.287276,62.750117 C 72.287276,57.885876 68.343392,53.942873 63.480032,53.942873 z M 63.480032,71.116998 C 58.857991,71.116998 55.113151,67.371278 55.113151,62.750117 C 55.113151,58.128956 58.857991,54.383235 63.480032,54.383235 C 68.102074,54.383235 71.846914,58.128956 71.846914,62.750117 C 71.846914,67.371278 68.102074,71.116998 63.480032,71.116998 z "
   id="path82"
   style="fill:url(#XMLID_22_)" />
<path
   d="M 41.501556,59.280944 C 41.32453,60.411794 41.230293,61.569946 41.230293,62.750117 C 41.230293,63.642291 41.288421,64.520373 41.391465,65.385244 L 55.143976,62.891914 C 55.143096,62.844354 55.136931,62.797676 55.136931,62.749236 C 55.136931,62.195261 55.193297,61.654496 55.297222,61.130465 L 41.501556,59.280944 z M 85.579168,60.191613 L 71.752676,61.712624 C 71.79407,62.052583 71.824015,62.397827 71.824015,62.750117 C 71.824015,62.971179 71.807281,63.187837 71.791428,63.404495 L 85.510472,65.844982 C 85.651388,64.83303 85.729772,63.800821 85.729772,62.750117 C 85.729772,61.884365 85.674286,61.031824 85.579168,60.191613 z M 69.745506,68.247598 L 80.651515,76.898073 C 82.006069,75.256403 83.128993,73.41657 83.972727,71.428775 L 70.746889,66.841962 C 70.462415,67.346617 70.125098,67.816043 69.745506,68.247598 z M 42.894862,54.302209 L 56.283634,58.542016 C 56.548732,58.089324 56.853462,57.665695 57.196064,57.272892 L 46.058424,48.919222 C 44.766401,50.544158 43.696321,52.352285 42.894862,54.302209 z "
   id="path84"
   style="opacity:0.07999998;fill:#ffffff" />
<path
   d="M 63.480032,9.9066549 C 34.29635,9.9066549 10.636571,33.566434 10.636571,62.750117 C 10.636571,81.175751 20.073532,97.390767 34.371212,106.84798 C 20.506849,97.410143 11.393113,81.440849 11.393113,63.327872 C 11.393113,34.331784 34.756088,10.823489 63.573389,10.823489 C 92.39069,10.823489 115.75279,34.330903 115.75279,63.327872 C 115.75279,78.607559 109.26185,92.357428 98.909812,101.95204 C 109.60269,92.283447 116.3235,78.301948 116.3235,62.750117 C 116.3235,33.566434 92.663715,9.9066549 63.480032,9.9066549 z "
   id="path86"
   style="opacity:0.5;fill:#ffffff" />


<path
   d="M 125.5,29.22202 C 125.5,42.678662 114.53097,53.587425 101,53.587425 C 87.469022,53.587425 76.499998,42.678662 76.499998,29.22202 C 76.499998,15.765379 87.469022,4.856615 101,4.856615 C 114.53097,4.856615 125.5,15.765379 125.5,29.22202 L 125.5,29.22202 z "
   style="fill:#0f61c2;fill-opacity:1;fill-rule:evenodd;stroke:none;stroke-width:1px;stroke-linecap:butt;stroke-linejoin:miter;stroke-opacity:1"
   id="path14961" /><g
   transform="matrix(3.4639881,0,0,3.4807706,73.480883,1.0816871)"
   id="g2901"><rect
     style="fill:none;fill-opacity:1;stroke:none;stroke-width:1.55158257;stroke-linecap:round;stroke-linejoin:round;stroke-miterlimit:4;stroke-dasharray:none;stroke-opacity:1"
     id="rect2942"
     width="5.4196706"
     height="3.3571696"
     x="1.8729681"
     y="7.4712706"
     transform="matrix(0.963005,-0.269485,0.269485,0.963005,0,0)" /><g
     inkscape:label="Layer 1"
     id="layer1"
     transform="translate(4.12207e-2,7.47524e-2)"><path
       sodipodi:nodetypes="cscssscc"
       id="path2394"
       d="M 7.9427597,0.86404707 C 4.0385897,0.86404707 0.84900969,4.0000455 0.84900969,7.8640471 C 0.84900969,8.0858123 0.86349668,8.4076816 0.88391068,8.6241956 C 1.3397607,8.3659402 1.7383699,8.0386301 2.2682039,7.8091296 C 3.7929949,7.1486588 5.5835057,6.4835094 7.5990097,6.1140471 C 9.6145137,5.7445847 11.805164,5.551547 14.13026,5.551547 C 14.274086,5.551547 14.393542,5.5812424 14.53651,5.582797 C 13.570792,2.8541184 11.028181,0.86404707 7.9427597,0.86404707 z "
       style="fill:url(#linearGradient17223);fill-opacity:1;fill-rule:evenodd;stroke:none;stroke-width:1px;stroke-linecap:butt;stroke-linejoin:miter;stroke-opacity:1" /></g></g><rect
   style="opacity:1;fill:#ffffff;fill-opacity:1;stroke:#ffffff;stroke-width:3.02417374;stroke-linecap:round;stroke-linejoin:round;stroke-miterlimit:4;stroke-dasharray:none;stroke-opacity:1"
   id="rect3610"
   width="20.41655"
   height="20.945204"
   x="91.371788"
   y="18.481102" /></svg>