/* XPM */
static char * bart_shock_xpm[] = {
"111 52 64 1",
" 	c None",
".	c #11080D",
"+	c #787315",
"@	c #ACAB0F",
"#	c #66CDFE",
"$	c #DCD907",
"%	c #0A72B9",
"&	c #EDEEEE",
"*	c #58AED7",
"=	c #313431",
"-	c #FECE02",
";	c #9897A4",
">	c #416F86",
",	c #ABABB2",
"'	c #463E13",
")	c #DCDCDC",
"!	c #524E22",
"~	c #EAE604",
"{	c #9D9810",
"]	c #A6A6A6",
"^	c #3D5F73",
"/	c #787971",
"(	c #CECC0A",
"_	c #ECBD02",
":	c #D2D2D2",
"<	c #788CAD",
"[	c #66B2E2",
"}	c #166493",
"|	c #9F880E",
"1	c #FCFC02",
"2	c #585652",
"3	c #ADAA84",
"4	c #7D7D59",
"5	c #898711",
"6	c #D5B204",
"7	c #645E18",
"8	c #191713",
"9	c #0B5286",
"0	c #558DAA",
"a	c #A7A7C7",
"b	c #BFBE0B",
"c	c #48788E",
"d	c #9F9870",
"e	c #782018",
"f	c #424039",
"g	c #DADAB2",
"h	c #275A6A",
"i	c #4A96D1",
"j	c #7D660C",
"k	c #272723",
"l	c #757685",
"m	c #0496D9",
"n	c #C19B04",
"o	c #AFAC54",
"p	c #8B8B8B",
"q	c #1F4B6F",
"r	c #615F3A",
"s	c #C0C2CA",
"t	c #BFAF08",
"u	c #77723C",
"v	c #5F6068",
"w	c #878A41",
"x	c #9A9A5A",
"y	c #6A6A1A",
"                                                                                                               ",
"                 8k                                                                                =           ",
"                 k{.                                     f' = 8                                   !!           ",
"             == fk1$+k=k                                 !t'@!                                f =!@r    k      ",
"              5b+$y1~$~('                               8@$]brr=                               =yabrrffk       ",
"              !b1$n'7j11$!f=                          78{1<)s,o|+                             yvl&s,@b(        ",
"             ==b15--6|'{~1@k                         =1~~4s&&ssbk                         8fkf52&&&:sb=        ",
"              j11j----_|y{1{=                       k(1@l&&&&&)a{                          5t+l&&&&&)a=        ",
"             f{1y-------6'51@f                     !1$7a&&&&&&&:;'                        ==~v&&&&&&&:;!       ",
"            'yb~+--------_|1~'                    8$@<&&&&&&&&&&c1k                   k  @~{/&&&&&&&&&v{k      ",
"            2117_---------ny1(                    .5x,,4u&&&&&&&a|!                   !t@b5s&&&&&&&&&&au       ",
"          '5|$7_-----------ny@                   71$=sw1~p&&&&:b55=                    @11+;p5/&&&&&&g5==      ",
"          ftbvl7-----------n51!                 kb$/;v1x1/&&&&u15!                    !t1tf,@1~l&&&&s5=k       ",
"        =k=@vss]f22|------n5('                 8~$p&]4o11l&&su~5                      r1(p,p1p1w&&&s{@         ",
"         851/s,2&&&un----651y                  =1(/&&&;p/s&,|1@                      51$;&;l(114&&,b!!         ",
"         k{1=uu;&v&&+----7$'f                   .@5lp];&:4l@$!                k      !1$;&&&lxv:&p(f  k        ",
"       =kk{17-6p&&&&4---7~7f               !     81(@vpf)f~17               k(@{+r!   '$yv,;:&)4pt|            ",
"       '(~11j+-+s&&/|--tt~k            +t@|~!y=ff =5(!pf)y11'              f(5o{111ty!p4~((u!2&4~8             ",
"        =t1j6---|ju6---+115           5@5r_111@(~{5(8=fbp$1{               +bs4!/sb@b~{y11@u;f,w1k             ",
"         =bn---------_7@@ry8         fb(fraplk<2x5t~ppvpv11+8             5($(!tto{vvu{t11kkk,;(+              ",
"        8@~5!l4]j6---n!|!   k        k$fby@111~{dplruyvy(111~.             ft@~$1{1b{opl2fw;2lp1'=             ",
"         k'b~tw!l2n--!|(!             855|$~yf111~vk2to~{t111(y!8            !!yk f5111ydd(!;d$11@+8           ",
"          =+11$!..8-|~11$=              'ky=  711+p:vfw{v<4o(11~b5+!               f{117=l+']5f1111{=+88       ",
"          k=b117.e.-j11117+rf                vb1|,2k7p:pf{7v8rb|f5$5               +~1$flyvv!;v!~11bt1~t7      ",
"          kk+155eee-!~1111bf                 51(2l]2lfpv511br2k8(y{1k             !11r,],vv]7vyyvp@t1kv@~k     ",
"           +11@7nt6j[^c75~~5f   f            51f,wu'];pv111{~$(~5_+b=             !~bpf@jvvf].t1bokk=2!fb      ",
"        8 'y~5c^ij!*####[c51(27@!           k(1(v=5/7wv@1~+ +@11(b~$k             !$1u,w~/yl2$11k@(t@@f~8      ",
"     ky=!@(1^##c####*[###q=~111r f           5114:;vv']$15    8f{{kf               |1{/fv214w117  k!f+{b{      ",
"   8+@b~~1~5^#*>#####q##[n_!+115{b8          y11;/)&&:=11'                         y1ps)s,28r1(k       8       ",
"   =@$+71t7_y#0i#####[q[q_--_!(bj{!          +1$p;s!sr$1'                         =$14rp::&85~k                ",
" k!@5||njt--n^^########!qn+6--|jj@t=        =~1{2r!;s@1@.                         {1@]/4s2]w1bk                ",
"  =1~76---n'@5[#########{11{j_--6|5t       k11@2{115f;(1!                       k7$(;d~~r2:u~1k                ",
"   =j|_-6+@11^##########w1111+_tn51r        51k/1$t$~]]$$k                       t1p41$1$~5;w11f               ",
"   =5{j6+111ti##[#######^17{~$7!5{1!        +$p51!.!({s!~k                       y@;b{{!k51b2@1=  f            ",
"    f@$jn$11{0######[###>~! k~6~11t5=       {5f~~=  +1';(~k k.                   {y217=  k!1k/1' 8k            ",
"     f5|!f{1@9i#########it$k {'+++ f       =1ol(b   ft{;518y$t.                 y~uk1y     57;(5fb@7           ",
"     =    =bymq^[######0=~ty8  8           f{@p$+    =~=d111=5=                7=1vf$78    +~lb1111~k          ",
"          fymmmm9hc>c>9%9$17             .(11@p1+     ybf1~5!b+              f{111fu1{     =(p51$@w{           ",
"        =+~qmmmmmmm%mmmmmq15'f           5ywpu=1'     y1+;]at(f             =t17p4k+5yk    r1r]sag(=           ",
"         +1$k9mmqw^hmmmmmq$1(7           k(+p;41y     r$tpp5(=               r++l!,unf     !$u;7((y            ",
"       k5$1@|6!ub1b~%m%qy+1+=              =1t(15k     @{{{r=                  yb1+v(8     f(@@@+=f            ",
"     f!ft11!--!11{k+{{7--|~=               =$11$8      !                        !{{~t!      ffk                ",
"    8t@@11r|-|b(fk  7!5n-|~{f               ==@(k                                  r+k                         ",
"     51~5h2,471yk    f(5-_!tk                 =k                                                               ",
"   ={1y}mmmqvt@     ='(!ju;@4=                                                                                 ",
"  k7~wv}mm^^%nt      '(r]pqy15'                                                                                ",
"    51up^}%}}(f      f1^}mmm7$7                                                                                ",
"   f~11bu/2fy5      =+~9/qmm%@$8                                                                               ",
"    k=kftb$~@!       k{^q9}}9k~k                                                                               ",
"        f f2          'td]<lp51+                                                                               ",
"                      k51$~(~5j58                                                                              ",
"                        8k!+!  f8                                                                              "};
