/* XPM */
static char * bart_dance_xpm[] = {
"294 48 64 1",
" 	c None",
".	c #050205",
"+	c #1C4B5B",
"@	c #D0A202",
"#	c #67CEFE",
"$	c #5F4A02",
"%	c #427CA1",
"&	c #735703",
"*	c #0565A1",
"=	c #08344E",
"-	c #B18C03",
";	c #E1B202",
">	c #3D473C",
",	c #0471B3",
"'	c #323202",
")	c #79797A",
"!	c #03253E",
"~	c #848B91",
"{	c #62BAE9",
"]	c #75640F",
"^	c #F0BE02",
"/	c #027EC0",
"(	c #7E8686",
"_	c #3B6881",
":	c #493608",
"<	c #737170",
"[	c #341802",
"}	c #A1A1A1",
"|	c #A07A02",
"1	c #151A0E",
"2	c #838481",
"3	c #028AD2",
"4	c #4E92B5",
"5	c #1B2422",
"6	c #FECE02",
"7	c #737169",
"8	c #5F4D13",
"9	c #253743",
"0	c #8A8276",
"a	c #626258",
"b	c #220E05",
"c	c #06548A",
"d	c #5E3B02",
"e	c #749CB5",
"f	c #5AA3CB",
"g	c #9A866E",
"h	c #029AD1",
"i	c #866604",
"j	c #10161C",
"k	c #C2C2CE",
"l	c #312506",
"m	c #BEA602",
"n	c #467991",
"o	c #0C1211",
"p	c #3E3E52",
"q	c #927710",
"r	c #021A47",
"s	c #BB9A02",
"t	c #029AE8",
"u	c #53514B",
"v	c #665703",
"w	c #335164",
"x	c #033D6E",
"y	c #8D7203",
"                                                               .:.                                                                                                                                                                     .8.                                                            ",
"                                                             5$-^;.                               .                                                                                   .                                              5$-^;.                                                           ",
"                                                           .$y6666|                             1'|                                                                                 1'|                                            .$y6666|                                                           ",
"                           .                              .s;666666l                           oi66:                                                                               oi66:                                          .s;666666l                                           .              ",
"                        l:d8                             [|666^66^6-                          :s666;.                                      .                                      :s666;.                                        [|666^66^6-                                        l:d8              ",
"                      b@s66;.                           [|6666666666v                        :666666|                                    b$sl                                    :666666|                                       [|6666666666v                                     b@s66;.             ",
"                    l8;66666]                          .566^66666666^]                      &;6^66666$                                  ';66@                                   &;6^66666$                                     .566^66666666^]                                  l8;66666]             ",
"                   l&6666666^'                          i6666^66^666m6sl                   ]6666^66666|i                              .y66666i                                 ]6666^66666|i                                    i6666^66^666m6sl                               l&6666666^'            ",
"                  .&66666^666|                           i666666666qd6@:                  [s666666666666s[                           'y666^666:                               [s666666666666s[                                   i666666666qd6@:                              .&66666^666|            ",
"                  $66^66666666&                           i66666@666;[|8                  &6^66666^66s&66-                          [y66666666;5                              &6^66666^66s&66-                                    i66666@666;[|8                              $66^66666666&           ",
"                  -666666666666i                           i6^66y6&$y:]@                  -6666^66666;|]i&.                         $66^6666666@8                             -6666^66666;|]i&.                                    i^66^|^&$y:]@                              -666666666666i          ",
"                  .;666^66^6;||@$                           i6^6|d;6;&66.                  &666666^666|ly&&                        .6666^666^66m;io                            &666666^666|ly&&                                     i666|d;6;&66.                             .;666^66^6;||@$         ",
"                   :^6666666;8|^y.                          1;66:-6666^i:                   &66666i6@v@|-6&                       .-6666666666y$6^:                             &66666i6@v@|-6&                                     1;66:-6666^i:                              :^6666666;8|^y.        ",
"                    -6666s66@ili|.                   $       :666-;666666$                   l6^66|-q66666-y                       [@6666^66666&-&q.                             l6^66|-q66666-y                             $       :666s;666666$                              -6666s66@ili|.        ",
"                    1^6^6i;dy;&&-&                 &i@:      d@6666666666v                    :^66|v^66666661                       bs66666i66y].:s&                              :^66|v^66666661                          &i@:      d@6666666666v                              1^6^6i;dy;&&-&        ",
"           88.$      d666&&^66;66:                :y-|6|b    iy^6^yiyi|].    d                 d666s|66^666y                          s6666i;$s6]6;d                               d666s|66^666y                          :y-|6|b    iy^6^yiyi|].    d                 88.$      d666&&^66;66:        ",
"          .&y^^.      @66-$66666y-l               ovs@666y[   $l6:p)a)      .^]vd               dy6666666;8       &.                   -666v]666;6^;'                               dy6666666;8       &.                  ovs@666y[   $l6:p)a)      .^]vd             .&y^^.      @66-$66666y-l       ",
"          5d@66-.     '&^6;6666666@1               '..d;6668wph_^:bb.l    .8-sdsi[              .s6@66@&$)       1@-sl                  i66;:s666666;.                              .s6@66@&$)       1@-sl                 '..d;6668wph_^:bb.l    .8-sdsi[            5d@66-.     '&^6;6666666@1      ",
"           8s666;:    ]|666666^666@' .&                .|6^+##4=-^--s@o1:y^666^;v1               &'$660}~ad    1i^@|-&                   s666^666666:                                &'$660}~ad    1i^@|-&                     .|6^+##4=-^--s@o1:y^666^;v1             8s666;:    ]|666666^666@' .&   ",
"             .8666i.  :@s66siiyq$[   &@ii                'i4##4n:;^6^>{#8666-'..1     $idb         d6^88|m[= dy666^;|&                   $@6666^6si[                      $idb         d6^88|m[= dy666^;|&                       'i4##4n:;^6^>{#8666-'..1                .8666i.  :@s66siiyq$[   &@ii ",
"               d666^'4wp @6a)2~}o  '|^&|&.                .{{#_{#n99w+##n6q[          dy^sb     wo  d666^lf{]6666-b.                     i-@6iq<lu          .             dy^sb     wo  d666^lf{]6666-b.                          .{{#_{{n99w+##n6q[                       d666^'4wp @6a)2~}o  '|^&|&.",
"                86669##4'i6y]id&.:@66^^-v:                 _f%_######%4#_b            d]s@6-&d.+##+o4>:p__f#%^6^$                         1sik~}p>       [ .l             d]s@6-&d.+##+o4>:p__f#%^6^$                              _f%_######%4#_b                          86669##4'i6y]id&.:@66^^-v:",
"                 :;@%###9&6666@u9^66;d...                     %#{####{w%+              &;66666|####_######9#4-|1                           @6iii-].+9    yi|d1             &;66666|####_######9#4-|1                                  %######{w%+                            :;@%###9&6666@u9^66;d... ",
"                  .'f##_f_8y@|!#{&;$.                         %#######.                 .[y^6^i#{#4%######_f{.                .&[          o@666-!f#41$dy^6@q               .[y^6^i#{#4%######_f{.                                    %#######.                               .'f##_f_8y@|!#{&;$.     ",
"                    %#f_###4%fw##>o                          5####{###+                    .[&:###n{#{#####9.                 8&ys8    +__9{9yqa4_{#fq66666|.                  .[&:###n{#{#####9.                                    5##{#####+                                 %#f_###4%fw##>o       ",
"                    ..j#######%##>                           _########{5                       p#_5#########+                 vi-6@&:d[_##w######{_#{q66^yd                        p#_5#########+                                    n###{####{5                                ..j#######%##>        ",
"                      4#######nw!                           .{#########4                        . w#########{5                's666666@_##_#######9#_.[''                           . w#########{5                                  .{#########4                                  4#######nw!         ",
"                     4###{####_                             w####{######=                         n##{###{###4                  .[y6666_#f4#######{5.                                 n##{###{###4                                  +#####{#####=                                4###{####_           ",
"                    _##{######_                             %#{####{####_                        .f###########o                    b&ii'a=#######{##%                                .f###########o                                 %#######{###_                               _##{######_           ",
"                   9#######{##_                            .###########4o                        .f#########{4r                          .###{#######4                               .f#########{4r                                .#{#########4o                              9#######{##_           ",
"                   e##########{.                            =4######{#%!=                        .###{##{###f!c                          .###########{r                              .###{##{###f!c                                 =4########%!=                              e##########{.          ",
"                  .{{##########+                            **=+_*___!*t.                        .{########%!hh*                          4###{######w,o                             .{########%!hh*                                **=+_*__w!*t.                             .{{##########+          ",
"                  !9##{###{####w                           =thhh3**,hhhhx                         oxn4f44w=*thh3!                         _#########4chh*c                            oxn4f44w=*thh3!                              =thhh3**,hhhhx                             !9##{###{####w          ",
"                  x3=4########f9                          o3hhhhhhhhhhhhc                         .t/**c*3thht*&6$                        +#####{##4=hhht91                           .t/**c*3thht*&6$                            o3hhhhhhhhhhhhc                             x3=4########f9          ",
"                 !3htx+4###{%+x.                          r3h3h,,h,/hhhhc                         .hhhhhhhh3hc&666'                       .+4{##{n!*hhhhcm68                          .hhhhhhhh3hc&666'                           r33hh,,h,/hhhhc                            !3htx+4###{%+x.          ",
"                .,hh3h3c!=jxch=.                          &',hht...,t3cx.                         .hhhhh/*co3xo@66&                        .*x==c,3hhhh/8666i                         .hhhhh/*co3xo@66&                           &',hht.../t3cx.                           .,hh3h3c!=jxch=.          ",
"                [9thhhhhttthhh3.                         .^6&+cx   o.:|6.                         .h3h3hc.  ...;6;.                         chhhhhht,,3=9|66;.                        .h3h3hc.  ...;6;.                          .^6&+xx   o.:|6.                           [9thhhhhttthhh3.          ",
"                i@=33trc**3hhh/.                         d66s        i66[                          .||d!=    oa-^d                         .3hhhhhc! .xrl;66y                          .||d!=    oa-^d                           d66s        i66[                           i@=33trc**3hhh/.          ",
"               .66s.xx  ..tt3x.                          .66$        v66d                          .66ir    =/9~<.                         .3//33tr   .=>-^&                           .66ir    =/9~<.                           .66$        v66d                          .66s.xx  ..tt3x.           ",
"               $66i.      ..y;.                           :v*+       d^6.                          .66i    .(+9**.                         .=:|y.c.  .,a!0p                            .66i    .(+9**.                            :v*+       d^6.                          $66i.      ..y;.           ",
"               l66u*.      .66.                          !,h+>>      [66.                          .66i     )*3ht.                           q6^r!   pcc3*=                            .66i     )*3ht.                           !,h+w>      [66.                          l66u*.      .66.           ",
"                igu>5      .66.                          chh,pj      u)g1                          .^6$      )ctt.                           y6^.     <,3h3.                           .^6$      )ctt.                           chh,p1      u)g1                           igu>5      .66.           ",
"               u=9*5u      l6^.                         .hht+a      =*w_9                          .7721      )(cr                           v66:      <chh.                           .7721      )(cr                          .hh3+a      =*w_9                          u=9*5u      l6^.           ",
"               .tt*)      .<0~.                         .t/pa       c1/t/.                         ocwx,!      5<                            .|s&>      ~((.                           ocwx,!      5<                           .t/pa       c1/t/.                         .tt*)      .<0~.           ",
"               .*_2       cr===                          w2a        )_c/tx                         *ht9c_                                    .(e(=       .5                            *ht9c_                                    _)a        )_c/tx                         .*_2       cr===           ",
"                2a       .cuch3.                         '9          a<}(>                        !//4e(o                                    ctt/u!                                   !//4e(o                                    '9          a<}(>                          2a       .cuch3.          ",
"                          <uc*c=                                       15                         u<<u.                                     ottt3c_.                                  u<<u.                                                    15                                     <uc*c=          ",
"                           ><)2u                                                                                                            p)()22>                                                                                                                                    ><)2u          "};
