/* XPM */
static char * bart_man_xpm[] = {
"368 48 64 1",
" 	c None",
".	c #060508",
"+	c #D3A702",
"@	c #0A7EBB",
"#	c #0569A4",
"$	c #5AA4C7",
"%	c #0D5482",
"&	c #A6870A",
"*	c #2B062D",
"=	c #2B4455",
"-	c #8B7A12",
";	c #DEAA06",
">	c #366880",
",	c #3A0839",
"'	c #0A4672",
")	c #CFA506",
"!	c #4B381C",
"~	c #538DA5",
"{	c #440742",
"]	c #675418",
"^	c #686436",
"/	c #0C3B5C",
"(	c #C1A106",
"_	c #5CB2DA",
":	c #E0B302",
"<	c #2B313A",
"[	c #4887A1",
"}	c #497089",
"|	c #0D2D44",
"1	c #47322C",
"2	c #4C064A",
"3	c #392F24",
"4	c #969595",
"5	c #28241C",
"6	c #42849F",
"7	c #A8A8A9",
"8	c #5FBCE8",
"9	c #EABC02",
"0	c #D4CFBD",
"a	c #14202F",
"b	c #3C5666",
"c	c #512E28",
"d	c #520450",
"e	c #A2A2A4",
"f	c #534421",
"g	c #3E85A4",
"h	c #3A2424",
"i	c #0292D3",
"j	c #886C0D",
"k	c #BEBBAC",
"l	c #291C1F",
"m	c #C29704",
"n	c #5B5560",
"o	c #151715",
"p	c #432A1F",
"q	c #62CDFD",
"r	c #EAEAEA",
"s	c #FCCC02",
"t	c #160717",
"u	c #7E827C",
"v	c #6C6D70",
"w	c #600260",
"x	c #B2B1B2",
"y	c #2E5265",
"                                                                                                                                                                                                                                                                                                                                                                                ",
"                             *                                             t                                            .                                              *                                            ..                                             .                                             *                                            t.                ",
"                          .tt{                                          .*t*t                                        totlh                                          tt**.                                        t,,dw*                                         .*t*t                                        ..tt*t                                        .***{t               ",
"                       .**dwdw.                                      t,,{dww,                                      tl{ddw,                                       .**dwww,                                     t{wwwwww{                                      tt*ddww{                                      .,*dwdw*                                      t2{wwww2               ",
"                     ..dwwwwww,                                    .*wwwwwwwd                                    h*wwwwwwwo                                    .t2dwwwwwd                                    t*wwwwwwwwt                                   .t{dwwwwwwt                                   .*{wwwwwwd                                    t*dwwwwwwd.              ",
"                    .*dwwwwwwww                                   t,wwwwwwwww*                                 t*wwwwwwwwwt                                   .*wwwwwwwww.                                  *{wwwwwwwww*                                  .twwwwwwwww*                                  o,wwwwwwwwwt                                  t,wwwwwwwww*              ",
"                   .dwwwwwwwwww*                                 t2wwwwwwwwww{                                5hwwwwwwwwww2                                  .*wwwwwwwwww{                                 *dwwwwwwwwwww.                                t*wwwwwwwwwwd                                 .{wwwwwwwwwwd                                 *2wwwwwwwwwww              ",
"                   {wwwwwwwwwwwd                                 ,wwwwwwwwwwwwt                               *wwwwwwwwwwwwt                                 {wwwwwwwwwwww.                                ,wwwwwwwwwwww*                                ,wwwwwwwwwwww*                                dwwwwwwwwwwwwt                                ,wwwwwwwwwwww*             ",
"                   twwwwwwwwwwww,.                               .wwwwwwwwwwww2t                               dwwwwwwwwwww2.                                .wwwwwwwwwwww*.                               .dwwwwwwwwwwww,t                              twwwwwwwwwwwwd.                               *wwwwwwwwwwww2t                               .wwwwwwwwwwwww*l           ",
"                    dwwwwwwwwwwww,.                               *wwwwwwwwwwdw2t                              *wwwwwwwwwwwddt                                ,wwwwwwdwwwwww.                               {wwwwwwwwwwwwdt                               *wwwwwwwwwwwwwt                               dwwwwwwwwwwww2.                               ,wwwwwwwwwwwwdl           ",
"                    twwwwwwwwwwwdnn                               twwwwwwwwwwwwfx                               dwwwdwwwwwww14                                .dwwwwwwwwww2nn                               .wwwwwwwwwwwdn0                               .wwwwwwwwwwwwh4                               *wwwwwwwwwwwdn7                               .dwwwwwwwwdwdv0=          ",
"                     wwwwwww1f,,*rk                                *wwwwwdcvnh,7k<                              hwwwwww{ch2d4k5                                *wwdwww{lh,,ku                                ,wwwwwwfuvf,4eo                               *wwwwww,**,dvk<                               dwwwwwwh15,,x7<                               ,wwwww2nuuvle03          ",
"                     twwwww!rrk4tee                                .dwwwwh0rr4bf4<                               {dwww20r04n4ko                                .wwwwwh00rutue.                               .wwwwwh0rr4<!uo                               .dwwww,x0071nxn                               twwwwwc0r0e<vu3                               .dwwww!rrruvhv5          ",
"                      2wwwwvrrreo&&                                 *wwww1rrre<-+p                               twwww1rrrev-;h                                 *wwwwfrrrk*-j                                 ,wwwwh0rrx5(;5                                *wwwwl0rr4nf&!                                2wwww!rr0k3&ml                                *wwwwcrrrx<&9f          ",
"                      .wwww,707<]:]                                  *www2uxe13:jt                                {www{7rr4l9)5                                 .{www*0rrnfs).                                 2wwwwnxe<!:m.                                 2www2u0kv5;:f                                 dwww2e0xn]+&o                                 {www{n44h]:j5          ",
"                       *d{hho5ofs::                                  t,hf!3l5]::m]                                lw2wf11<h;:(f                                  td2oolhaf:9m!                                 *dc]]]!1j9:+!                                 td{2**at3)+-]                                 *d*hh553js)m]                                 t{f]]]]]-ss9j          ",
"                       jj;99:::ssss]                                 j&:ss9:9ssssm                                f]::s99:9sss&                                  ]f;;::;+ssssj                                 -m9sssssssss&                                 ]]&;+;(m9sss;                                 jj)999:9ssss&                                 &)ssssssssss;          ",
"                      .msssssssssssj                                 &+9sssssssssm                                j(ssssssssss).                                o&9ssssssssss&                                 &;ssssssssssj                                 &;ssssssssss9                                 m:9sssssssssm                                 (;9ssssssss:-          ",
"                       m^sss&)mm--f                                  -j(ssm&mm(&fo                                ]-9ss+:)((&jl                                  &-sss;9+(mjj                                  53+ss&&m&j!!t                                 -&)ss:+;+(m&!                                 ]j;ss(mmm&j]o                                 33mssm-&-]f1.          ",
"                         ms;-::&t                                      -ss&m(&3                                     -ssj&mm!                    .,**.             o&ss]m&&5                                  o**o]s9&:+-t                                      jss-]j-]                                     .ms9]m&&p                                     of:s;:)&!             ",
"                      tt.pj+s;]h.                                   o.tl];:(]lt                                  o*.3^;9s&ft                     *wwd*t         ..oh&9s9jh.                                 22{2d2!(;&cot                                  **,*lmsssmf*                                  ottth&:s:j,t                                  t***,hj;jh**             ",
"                    .t==o{2{cl{<aa                                 a=y5*{lhdh><<                                o5=<{w2]!{=3o.                    dwww{lt     ao==lddf]!lb<t                              *22<g~=,wdl*h65/o                               ,,h=l,,c]c,p<5                                *,=b<,{h!hl=<=                                a=[$by3{,25}>}=           ",
"                   .=$qq$}>***yq>8[                               =$qq$=>*l*<8g_$|                             |}8qq=={l{*8}_6}                   *www{,*t**,,<~qq$b|*,*yqb_>                            ,wd>qqq_>},t*<$>8$5                             2l}8q$>b,*{l_~_6v                             ty$qq$66*{*3_}q~v                             o=qqqq6~llhl$$$8=          ",
"                   .<$qqq6<*=<*_=q$1                             o56qq8bb,b>,}$~8f3                           oy$qqq>${l>{g}_qbf                  twwdwwwwwww{b8qqqbbdy=,$}q81                          ,wwd3[qq_y},yb*6[_8]!                           ,{<$qqq}~*<},b$$qb                            ot=$qq_}y,=b,>}88b                             *3v8qq[={}_3>_$8j&         ",
"                   *&^$q$~<b88bqyqb9-l                           lj&[q$6>}8q~$_g6);p                          lf&gqq>[h8q>~8$$&;5                 .wwwwwwwwww{&u8q8>==88>$>q[;mp                       lwwwh)m~q~[6>qq~_$~[:9f                         twdj&[q8}}<$qg>_[_-+3                          *,&-_qg6=bq8~8[$~+;!                           h:)}q$6~~qq888}$(s&        ",
"                  .jss=q<8qqqqqqg>jss-                           ]ss]$=_qqqqqq8=jss:3                       l,{;s-8[~q8qqqqq>vss+.                .wwwwwdwww2]s9bqb$8qqqqq$[-ssm                      ,wwwd-ss^$y8qqqqqq8b-ss95                        *w19sj8}$q8qqqq8>v:s:!                         t-s9}8y_qqqqqq_>^ss;.                          -ss-~=$qqqqqqq>fsssj       ",
"                  .9ss3y>qqqqqqqq/fss9.                         .)ssfa=qqqqqqqq[5)ss]                   |l{dww^ss;y3qqqqqqqq8a:sso                 ,wwwwwwww,+ss]>>qqqqqqqqb]ssst                    owwwwp9s9!<bqqqqqqqq~l;ssf                        ,dmss-y=8qqqqqqq$5:ssj                         o9ss!|}qqqqqqqq}p9ssh                          :ss]t=qqqqqqqq_5(ss-       ",
"                  oss&t*8qqqqqqqq$lssm.                        ot:s)ol[qqqqqqqqq<mssp                ,,tdwwwww(ssn2>qqqqqqqqq=&sso                 ,wwwwwwwd,sssh,$qqqqqqqq$*ss9.                    dwwwwc9s(,,$qqqqqqqq8<:s:o                        ,l9ssp*[qqqqqqqqq<jss]                         fss)*l$qqqqqqqq8a+sso                         .9s9p,}8qqqqqqqq>&ss]       ",
"                  .ss9h<b[qqqqqqqq]ss]                       t,{t)s9f<][_qqqqqqq}+sm.              ,{l{wwwwwww&ssjh~~qqqqqqqq}:s;l                 twwwwwwww,9ssp=u$qqqqqqqq!ss-                    *wwwww2+ss^3u}_qqqqqqq>ss].                        *{9ssf56$qqqqqqqq}(s9l                         l9ss3<^68qqqqqqqbss-.                         .)ss&!-v~qqqqqqq$&s(.       ",
"                  .jss9ms&>qqqqqqqbs&.                     t*w2*wf9ss;s;uqqqqqqq$&:5.            t2*2wwwwwwwww!ss9&mm^qqqqqqq_&s!t                  dwwwwwwww]ss:-9m[qqqqqqq}s9h,                  ,wwwwwww!)ss;s)uqqqqqqq~m&o                         .djss9-mmv8qqqqqq$msf                          ,]9s9msm6qqqqqqq}))l                          tc;ssss9-8qqqqqq8-:3        ",
"                  .t]:sssm>qqqqqqq>]*,                    *wwwtwwdcmsss:vqqqqqqq_fp,,           t2odwwwwwwwwwww19ssss^8qqqqqqq]fdw2                 *wwwwwwwwwj9sss9uqqqqqqq~mhwww,               twwwwwwwww*j9ss:~qqqqqqq_f{*                          wwj9sss9vqqqqqqq8jj                          .*wc)sss+[qqqqqqq_]5                           *dc&9ss9vqqqqqqqqbpt        ",
"                 .*,w5&s9^8qqqqqqq}]*d                   *www{{wwwd*^;9-$qqqqqqq8fc*d*          dt{w{{wwwwwwwdwwh^9s9}qqqqqqqqncwwwd                 {wwwwwwdwdh)ssm$qqqqqqq~],,,{{{.            twwwwwwwwwww*n):(8qqqqqqq8fddt                         2wwc&ss+6qqqqqqqq=l.                         **wwl-99&$qqqqqqq8]l                          *,ww,^m:&$qqqqqqqq=l{        ",
"                 {*wwt6vv$qqqqqqqq>p2d*                 .wwww*wwwww{>b^6qqqqqqqq6oww*dt        ,*a     hwwwwwwwww@v-}8qqqqqqq85d****{                .dwwwwwwww,~&&~qqqqqqqq~!d{.               tdwwwwwwwwwww,6=}8qqqqqqqq}{ww{                         ,ww,}um~qqqqqqqq_5,*.                       t{*wwl}b^$qqqqqqqq~5**                         2,ww{y66$qqqqqqq8},,dt       ",
"               tdw,ww*/}8qqqqqqq~ytww,wo                ,www{,wwwww{%>~8qqqqq_6%|2wwd,,        o.        2wwwwwww|}8qqqqqqq8~/t      3                *wwwwwwww,%g_qqqqqqq8@add.                wwwwwwwwwwwww{%>$8qqqqq_[#awwww*                        ,ww{'~$qqqqqqq8$=l{,*                       ,*dww*#~8qqqqqq8$>ad{,                        *2{wwd'%>_88q88_}%|ww*,       ",
"              tww2,ww,##=>[$~6b%##,ww*w*                *www*wwwdww{'i#'>~}>y%@@.wwwd*2t       .          t{wwwww|@%>~88$~>%#a                         .{wwwwwwd%@%6$88$[y%@twt                *wwwwwwwwwwwwwd'i#%y>>b>#@%twwwww.                       ,www/@%}~$_$~>%%a,.,,                      tw*www{#@#>}[g}}'%%tww*.                      td,wwww/i@#%//=%#@#aww{*       ",
"             .www*www*/ii@#%##iii#tww{dw                ,wwd*dwwwwd,#iii@##@iii@'d{t. t,                    dwwwwtiii#%%%@ii#'                           {wwwwwd|ii@%#%#@ii@a,                 ww{,dwwwwwwwww*%iiiii@@iiii<wwwww*                       ,wwda@ii@####@i@|2*d*                      {2dwww,#iii@###iii@/ww,*                      *w*www2'@iiiiiiiiii%2ww,       ",
"             *wwwtwwwaiiiii@@'@iiiowww,w.               tww2. **dwdaiiiii@#%iiii'.     t                     *dd2#iiiiii#@iii%                           *wwwwwoiiiii@@%iiii|                 tt     *wwwwwww/iiiii#//iiii/dwww*{.                      {ww,@iiiiii#@iii%{*w,.                    tw*wwww|iiiiii#'@iii/www.                      d{{www|iiiii#'/#iii#{ww,t      ",
"             ,wwd{ww{%iiiii|t%iiii|w2*twl                dw*      ./iiiii#.|iiii#      .                        tiiiii@.tiiii'                            2wwww'iiiii%.'iiii'                 .       twwwwwd'iiii@#*%iiii'dw,.t .                      wwd'iii@i@a/iiii@{d2{*                    *,dwww,%iiiii%t%iiii/dww{                     tw*wwww|ii@ii#,aiiii%{ww2t      ",
"             ,ww2**2wt#iiiiod|@i@%**  .d,                *w*       *|#i@i|*.%##%t                               2|@iii# ,#@i%a                             *2dd*#iiii'w|i@i#.                          .{wwww{=#iiiawo'%%/,2t                          twww,#@iii#{l@@i#/dw,,.                    {*wwwww*'@i@i|wa##%',wwww.                    tw,wwwwd|@iii|w*/''<*2*tt.      ",
"              ww*   **&]#'/{w{tj&&.    ,,                 {*        mj<'|   .]m;o                                f-'@#a   f-mp                                 tjjy'/*w,tfjm.                            *,**h;&f//{ww{j+;t                           twwwdd]^#%%ow2*1]jhwww..                    *,wwwww,&]</|{wd,j&:2wwww*                    .dt t**t(m]aa{wwdj99h    .      ",
"              tw,    oss(*{dw,t&s).    **                 tt       l:s:5     fs9h                                &s9h     3ssj                                 t9ss.{www,jss.                                !ss(ldwww*]s95                          tdwwww,:ssc*wwww]sscwwww.                    .dd,***!ss;,wwwwd&s9l***,t                     ,     l:sm.*www,lssf           ",
"               2     ]ss!      5s9.                                fss&      h9s]                               lss+      <9sj                                 !ss- **** fsso                                jssf .tt  pss!                         .www,* !ss&*{wwwwcss]www2t                    .t     ]ss-.dwwdt]ss1                          .     fss]      c:s^           ",
"               .     jsm.      o&jl                                f(m3      3jjv                               a9s]      5]jj                                 js9f      o;m!                               t]j^l      !^-v                          .     ]ssf dwww2l&;ft                         .    .^;)!      5(-3                          .     ^jjo      fu-u           ",
"                    o4u3      5nnv=                               5uuvo      fv^}/                             .vuun      5uvv'                               t4v^t     5nvvb.                              au7v.      3uu'|                              .u^v5 **,.t!vuuo                              tv4ua      <^vb|                              /vuvo      abb%#          ",
"                   /@%%|      .%#ii%                             |@#%'       %%iiia                            =#%%/      y#%ii/                             .#%y=      .#%#i@                             'i##/       '%iiia                            |##y=       '%%@#|                            |@#%/      o##ii@.                            'ii@%       %%iii%         ",
"                  |iii/|      a'#iii|                           |@ii''      o%#iii#                           %ii@by     .#=iiiio                           a@ii#%.     o@>iii/                           /iii|/      o%#iii#.                          .@ii#%      a#/iii#                           |iii/'      a'%iii%                           |iii%/      <%#iiiia        ",
"                 5b''%/|      =u6#%>6.                          uy%''/      5uv>''y3                         5%%%/a3      uu%''/b                          on'#@@%.     n~%###>t                         5v}y'''      <^u$e_$f                          b%%@%'.     5u%##'%a                         !u|/%'/      vub%##'.                          vu}'y=      <vuu$u~f        ",
"                  fvvuuv        nvvvn                           o<vvvv        onvvv                           nuvuvf        nuuv                            bukuun        vvvvn                           .<^uvv        o55l5                           nu4444        vuu4vn                          .vvvuv        ^u4vv                           ..!vvv        .tal.         "};
