/* XPM */
static char * lisa_reader_xpm[] = {
"286 29 65 1",
" 	c None",
".	c #17140D",
"+	c #796107",
"@	c #AA8704",
"#	c #CC2D2D",
"$	c #888BEA",
"%	c #C09A02",
"&	c #7C221A",
"*	c #B2B2B2",
"=	c #665204",
"-	c #CDA402",
";	c #5E6AAE",
">	c #8A9AFA",
",	c #8384DE",
"'	c #D5AB02",
")	c #410E0E",
"!	c #6360A1",
"~	c #7A5904",
"{	c #304A6B",
"]	c #483A06",
"^	c #E4B602",
"/	c #8E9EFE",
"(	c #ACACAB",
"_	c #9A9897",
":	c #858AA3",
"<	c #FBFBFB",
"[	c #F1C102",
"}	c #716E62",
"|	c #521511",
"1	c #824D0A",
"2	c #575759",
"3	c #AB2524",
"4	c #866602",
"5	c #92928A",
"6	c #2E2602",
"7	c #898576",
"8	c #F9C602",
"9	c #4A160E",
"0	c #77400C",
"a	c #6B6447",
"b	c #46405D",
"c	c #535149",
"d	c #1F2024",
"e	c #BABABA",
"f	c #917405",
"g	c #93221F",
"h	c #293F5B",
"i	c #603B05",
"j	c #403E3A",
"k	c #FECD02",
"l	c #D9D9DA",
"m	c #625636",
"n	c #535382",
"o	c #661715",
"p	c #8E3616",
"q	c #8276CB",
"r	c #7B6923",
"s	c #767484",
"t	c #3C2905",
"u	c #8B3217",
"v	c #242C38",
"w	c #320A0A",
"x	c #5E2A0E",
"y	c #A07604",
"z	c #62562E",
"               i                         i                         i                         i                         i                         i                         i                         i                         i                         i                         i          ",
"              f[=  tt                   f[=  tt                   f[=  tt                   f[=  tt                   f[=  tt                   f[=  tt                   f[=  tt                   f[=  tt                   f[=  tt                   f[=  tt                   f[=  tt     ",
"             ]^k^@[8@                  ]^k^@[8@                  ]^k^@[8@                  ]^k^@[8@                  ]^k^@[8@                  ]^k^@[8@                  ]^k^@[8@                  ]^k^@[8@                  ]^k^@[8@                  ]^k^@[8@                  ]^k^@[8@     ",
"          ]%f-kkkkkk[6              ]%f-kkkkkk[6              ]%f-kkkkkk[6              ]%f-kkkkkk[6              ]%f-kkkkkk[6              ]%f-kkkkkk[6              ]%f-kkkkkk[6              ]%f-kkkkkk[6              ]%f-kkkkkk[6              ]%f-kkkkkk[6              ]%f-kkkkkk[6    ",
"          ][kkkkkkkk8@++            ][kkkkkkkk8@++            ][kkkkkkkk8@++            ][kkkkkkkk8@++            ][kkkkkkkk8@++            ][kkkkkkkk8@++            ][kkkkkkkk8@++            ][kkkkkkkk8@++            ][kkkkkkkk8@++            ][kkkkkkkk8@++            ][kkkkkkkk8@++  ",
"          =kkkkkk8kkkkk%            =kkkkkk8kkkkk%            =kkkkkk8kkkkk%            =kkkkkk8kkkkk%            =kkkkkk8kkkkk%            =kkkkkk8kkkkk%            =kkkkkk8kkkkk%            =kkkkkk8kkkkk%            =kkkkkk8kkkkk%            =kkkkkk8kkkkk%            =kkkkkk8kkkkk%  ",
"         =^kkk8kkkkkkkk@           =^kkk8kkkkkkkk@           =^kkk8kkkkkkkk@           =^kkk8kkkkkkkk@           =^kkk8kkkkkkkk@           =^kkk8kkkkkkkk@           =^kkk8kkkkkkkk@           =^kkk8kkkkkkkk@           =^kkk8kkkkkkkk@           =^kkk8kkkkkkkk@           =^kkk8kkkkkkkk@  ",
"         +8^^%-[k8kkkk8+           +8^^%-[k8kkkk8+           +8^^%-[k8kkkk8+           +8^^%-[k8kkkk8+           +8^^%-[k8kkkk8+           +8^^%-[k8kkkk8+           +8^^%-[k8kkkk8+           +8^^%-[k8kkkk8+           +88kkkkk8kkkk8+           +88kkkkk8kkkk8+           +8^^%-[k8kkkk8+  ",
"          4r77far@^kkkk-=           4r77far@^kkkk-=           4r77far@^kkkk-=           4r77far@^kkkk-=           4r77far@^kkkk-=           4r77far@^kkkk-=           4r77far@^kkkk-=           4r77far@^kkkk-=           4y^%@8-'kk8kk-=           4y^%y^-'kk8kk-=           4r77far@^kkkk-= ",
"           (<l(<<}%8kkkkk=           (<l(<<}%8kkkkk=           (<l(<<}%8kkkkk=           (<l(<<}%8kkkkk=           (<l(<<}%8kkkkk=           (<l(<<}%8kkkkk=           (<l(<<}%8kkkkk=           (<l(<<}%8kkkkk=           @k'@kkf[kkkkkk=           ]+if'%f[kkkkkk=           (<l(<<}%8kkkkk=",
"           se7<<<l~k8kkk^            se7<<<l~k8kkk^            se7<<<l~k8kkk^            se7<<<l~k8kkk^            se7<<<l~k8kkk^            se7<<<l~k8kkk^            se7<<<l~k8kkk^            se7<<<l~k8kkk^            4%~[8k'ykkkkk^            2_a}razi[kkkk^            se7<<<l~k8kkk' ",
"           =@+(l<*%k[kk8~            =@+(l<*%k[kk8~            =@+(l<*%k[kk8~            =@+(l<*%k[kk8~            =@+(l<*%k[kk8~            =@+(l<*%k[kk8~            =@+(l<*%k[kk8~            =@+(l<*%k[kk8~            t=+=+=ifk[kk8~            =@+(l<(%k[kk8~            =@+(l<*%k[kk8+ ",
"           4^8r_(@k8+%k[6        d   4^8r_(@k8+%k[6            4^8r_(@k8+%k[6            4^8r_(@k8+%k[6            4^8r_(@k8+%k[6            4^8r_(@k8+%k[6        d   4^8r_(@k8+%k[6            4^8r_(@k8+%k[6            4^[+%@y88+%k[6            r^8r5_@k8+%k[6            4^8r_(@k8+%k[6 ",
"      d2   @^8[%'kk84-kk=       v57  @^8[%'kk84-kk=         .j.@^8[%'kk84-kk=        ..d.@^8[%'kk84-kk=        ..d.@^8[%'kk84-kk=         .j.@^8[%'kk84-kk=       v57  @^8[%'kk84-kk=       d2   @^8[%'kk84-kk=       d2   @^88[8kk84-kk=       d2   @^88%^kk84-kk=       d2   @^8[%'kk84-k8= ",
"      }ls    ]4y8kk%@[f=       65l:d   ]4y8kk%@[f=        .j2!.  ]4y8kk%@[f=      ..dbnqv  ]4y8kk%@[f=      ..dbnqv  ]4y8kk%@[f=        .j2!.  ]4y8kk%@[f=       65l:d   ]4y8kk%@[f=        }ls    ]4y8kk%@[f=        }ls    ]4f8kk%@[f=        }ls    ]4f8kk%@[f=        }ls    ]4y8kk%@8f=  ",
"     2:s2d    6[kk8+-@        .jnn;n    6[kk8+-@         vnn;qn   6[kk8+-@        vqqq$,d   6[kk8+-@        vqqq$,d   6[kk8+-@         vnn;qn   6[kk8+-@        .jnn;n    6[kk8+-@         2:s2d    6[kk8+-@         2:s2d    68kk8+-@         2:s2d    6[kkk+-@         2:s2d    6[kk8+-@    ",
"    dn;!$!    v@8[%.          hnqq,qv   v@8[%.           v,qq,n   v@8[%.          v;,q2r=]  v@8[%.          v;,q2r=]  v@8[%.           v,qq,n   v@8[%.          hnqq,qv   v@8[%.          dn;!$!    v@8[%.          dn;!$!    v@8[%.          dn;!$!    v@8[%.          dn;!$!    v@8[%.      ",
"    {n$q$$d   jcma2c          v{$$$,b+  jcma2c           dq/!aa+  jcma2c          v!/$c^84  jcma2c          v!/$c^84  jcma2c           dq/!aa+  jcma2c          v{$$$,b+  jcma2c          {n$q$$d   jcma2c          {n$q$$d   j2ma2c          {n$q$$d   j2mm2c          {n$q$$d   jcma2c      ",
"    vn>>!am~ 9-fmr@]           h,/,]@[6x'fzr@]           v{$n%k-tx@fz+@]          d{,,b%kf]xf4jr@]          d{,,b%kf]xf4jr@]           v{$n%k-tx@fz+@]           h,/,]@[6x'fzr@]          vn>>!am~ 9-fmr@]          vn>>!am~ 9-fzr@]          vn>>!am~ 9-fmr@]          vn>>!am~ 9-fmr@]      ",
"    dh,!c@[+&3u+'kk=           vn;,j'8]3u+'kk=           tj!n~[k@g&=%kk=          vbqn!b@84&o+'k8]          vbqn!b@84&o+'k8]           tj!n~[k@g&=%kk=           vn;,j'8]3u+'kk=          dh,!c@[+&3u+'kk=          dh,!c@[+&3u+'kk=          dh,!c@[+&3u+'kk=          dh,!c@[+&3u+'kk=      ",
"    @v+&&%k'03u-k[%           %+=&&6=^84u-k[%           %f~&&vd4k@f^kk'           jh4&&bv4k^^kk8~           jh4&&bv4k^^kk8~           %f~&&vd4k@f^kk'           %+=&&6=^84u-k[%           @v+&&%k'03u-k[%           @v+&&%k'0gu-k[%           @v+&&%k'0gu-k[%           @v+&&%k'03u-k[%       ",
"   =-@^&#ui^k@fk8@9          =-@^&#gwx88^k8@9          =-@^&#g)3y8kk8%x          =@y'g#g)3y8k8-1o          =@y'g#g)3y8k8-1o          =-@^&#g)3y8kk8%x          =-@^&#gwx88^k8@9          =-@^&#ui^k@fk8@9          =-@^&#ui^k@yk8@9          =-@^&#ui^k@ykk@9          =-@^&#ui^k@fk8@9       ",
"   @f[1###g~kkkk'uo          @f[1###gg%8kk@3|          @f[1###g#3y[%0go          @f[1###g33141g#o          @f[1###g33141g#o          @f[1###g#3y[%0go          @f[1###gg%8kk@3o          @f[1###g~kkkk'uo          @f[13##g~kkkk'uo          @f[13##g~kkkk'uo          @f[1###g~kkkk'uo       ",
"  6%@k4g###3fk8'u3          6%@k43####p@^y33          6%@843#####3&g#3          6%@k4g#########3          6%@k4g#########3          6%@843#####3&g#3          6%@k43####p@^y33          6%@k4g###3fk8'u3          6%@k43###3fk8'u3          6%@k43###3fk8'u3          6%@k4g###3fk8'u3        ",
"  ]f[8~#####311g#o          ]f[k~######3&3#o          ]f[k13#########o          ]f[k1##########o          ]f[k1##########o          ]f[k13#########o          ]f[k~######3&3#o          ]f[8~#####311g#o          ]f[k~#####311g#o          ]f[k~#####311g#o          ]f[8~#####311g#o        ",
"  9+kkxg########g           9+88xg########g           9+k8ig########g           9~k8ig########g           9~k8ig########g           9+k8ig########g           9+88xg########g           9+kkxg########g           9+8kxg########g           9+8kxg########g           9+kkxg########g         ",
" tt&%k=o#######g           ttx-k=o#######g           tt&%k=o#######g           ttx%k=o#######g           ttx%k=o#######g           tt&%k=o#######g           ttx-k=o#######g           tt&%k=o#######g           tt&%k=o#######g           tt&%k=o#######g           tt&%k=o#######g          ",
")of&04t )3###3g           9of&0+t |g####g           9of&04t |g####g           9of&0+t )3####g           9of&0+t )3####g           9of&04t |g####g           9of&0+t |g####g           9of&04t )3###3g           9of&04t )3###3g           9of&04t )3###3g           9of&04t )3###3g           ",
" o)oo|  ww|oo)             o)oo|  ww|oow             o)oo|  ww|oow             o)oo|  ww)oow             o)oo|  ww)oow             o)oo|  ww|oow             o)oo|  ww|oow             o)oo|  ww|oo)             o)oo|  ww|oo)             o)oo|  ww|oo)             o)oo|  ww|oo)            "};
