/* XPM */
static char * lisa_shock_xpm[] = {
"102 46 65 1",
" 	c None",
".	c #090704",
"+	c #6C6609",
"@	c #9A9807",
"#	c #EEEEEE",
"$	c #C0BE03",
"%	c #CE3232",
"&	c #E5E5E5",
"*	c #D5D402",
"=	c #931E1D",
"-	c #302E0F",
";	c #C7C7C7",
">	c #A8A8A7",
",	c #737271",
"'	c #DFDE02",
")	c #D3CC02",
"!	c #BDBDBC",
"~	c #E7E602",
"{	c #43410D",
"]	c #686865",
"^	c #999996",
"/	c #7E1919",
"(	c #A88703",
"_	c #D4D4D4",
":	c #8B880B",
"<	c #DADADA",
"[	c #D4AC02",
"}	c #B6B6B6",
"|	c #575652",
"1	c #706D4F",
"2	c #6B1814",
"3	c #EDEC02",
"4	c #96968D",
"5	c #705109",
"6	c #B0AE04",
"7	c #5C5A0F",
"8	c #F2F202",
"9	c #8C7605",
"0	c #C69F02",
"a	c #742F0D",
"b	c #7A7608",
"c	c #55170A",
"d	c #BC292C",
"e	c #484641",
"f	c #E4B802",
"g	c #969685",
"h	c #1B1908",
"i	c #76753F",
"j	c #B59902",
"k	c #CDCC02",
"l	c #B6B6B2",
"m	c #878756",
"n	c #652C09",
"o	c #FBCC02",
"p	c #A6A404",
"q	c #87867F",
"r	c #FDFD02",
"s	c #514D11",
"t	c #807F63",
"u	c #5B5943",
"v	c #D2D2CE",
"w	c #747232",
"x	c #929274",
"y	c #67663F",
"z	c #513205",
"                                                                                                      ",
"                                                 . s  h                             +                 ",
"                                                h@b@ :+                         -b+:8b -h             ",
"                                              s+*'r'p~b7                       .6'r~r3p'{+.           ",
"                .7{h-                       hb3r*b:rr~@8b-                  -p:'3r@tkrr*6r)-          ",
"              h @@~k'7 s                  hs@k*'9of9$:(*3sz                 .'~)3'4#qp@>ir*           ",
"             .$@8r*b9''8@s               {6r$9(90oof0of@rr*h               s@8b4xt<##!_#t38@:{        ",
"            h6'7(p(ofb$9+9              .'rr)jooooooooo93rr:              b'rrw#########^krrrkh       ",
"           -:rk[o[ooofjoj@- h            prrp(ooooooooo09:3{             s:rrr:&########<qmp'-        ",
"         bpk88:ooooooooof$~k           h68@+jooooooooofo[@'-            .$rk:i4###&v&###!&;637        ",
"        h$r$b90ooooooooof9)8+         {6r89oooooo[ojff597)rb             {'$^#####|^;##<^!t~rp        ",
"        @8r$0ooooooooooooo9~s         -*rr*(ooooo0sy9+l;|k~-             @rr:v###}>#&v###}@rrp        ",
"        :rrr9oooooof[0o([0:r6.         6rrr:foooj|&&;t&lx:r@.           .*rr~q###;&;w:x#>h*rr~-       ",
"        brrr9ooooo0ugu(1^{6'-          +rr6(oooo[q#!#eq,m8r+             prr@v#####trr:<ts$rrkh       ",
"        @r8:[ooooow&#&e#&,k@           jrk9oooof(5;<>(f0b8$h            7rr$4######m$$ix1lw~r:        ",
"        pr)(ooooo01#x_|!]ik@.         {'r8@(fooooo(+jfj+(b7             sp'ktx<####&>>&ti&>6rs        ",
"        +rr':ooooo(t!]j(|6r:          {~rrr'9of9[ooowi]{@)$               brr@>######>e|eupr's        ",
"       .srrr:oo0(oo[9[o[+(r@           .$rrp[o((+oo9..@~rrb              h*rrw<#####&{tu$'rr{         ",
"        .'r@(oo++foooj([0+$b           {p'r69b[9+oo9cz53rr@              -prr@:u<^##&7y{prrr$.        ",
"         @r8*9f(5fo[cchs9$3              9rrr)(05[oo0[+8rr'b.            h6rrrr:>e,<#;>46rrrr6--h     ",
"         srrr'([9oofj(9*rrr:              krrr9@yz919s]$rrrr66:+.       .h+krrr'6r'yt]tmrrrrrr886b-   ",
"         -rrr8:6{[ooo[:rrrrkh             @rrrr'e|]^]usb*rr$@:*'-          :rrrrrrrbep7y$rrrrp$$r3{   ",
"         {rrrrrp1e-u9h78rrr'+-          -@rrrr)+ff[+[ff9(9k95bb$$.        h8rrrrr6u{]:{e{:$k~+b$$r'{  ",
"         6rrr~:([[(9y57rrrrrr~p:       h6rrrr6(ooooof(52(f(fo(+~*         :rrrr$iqth]|v|-qh|sgip:rr{  ",
"        :rrr6(ooooooooz9k33p+{bp       {rrrr@joof5an/dd%afoff98r@       .p)rrrkeey$|ee<^-wt-,7b$rr'-  ",
"       b3rr@0ooo(5(j(({[(:9[o({9      {k3+$j(oo(2d%%%%%%d5(:p+$87       {r3*r~e-y3ru--!>u~''8r'pr8:   ",
"      {ps$@0oo(a=d=====(ooooozb*bh   7)8*bj(of9@=%%%%%%%%28rr8p:.       @rk{k:h]6rr37]e@k8rrrrrr9-h   ",
"      :j+0jo0+2%%%%%%%d5999b++6r+    +r:9((oj:r:d%%%%%%%%d@rb@         -'7:y,-7*rr*$p-p$,wrrrr3+h     ",
"     +67(oo5p(d%%%%%%%d+~8rrr3@p-    @r~+jj99$r5%%%%%%%%%%a8b          br*:uw:{3rrw!te{q&q'rrrk       ",
"     +r99j5b*=%%%%%%%%%5rrrr~+       7~r+(6$p*$=%%%%%%%%%%d+$h         -6@7rrr8rr'q##;]evyrrrrr@      ",
"     -':)r*+a%%%%%%%%%%/3rrr@         @rr$*rrr5%%%%%%%%%%%d2:.          brrr*krrrrbtq#x7x4prrrr@      ",
"      :rrr85%%%%%%%%%%%=prrr{         s:{ h'r'/%%%%%%%%%%dn':.            :b h$rrrri},<}|!+rrr~h      ",
"      9p$8$a=%%%%%%%%%%%5rrr+              @r$5=%d%%ddd//s5r$.                7rrrrx!ww:6946rr8+      ",
"      - -{b~=%%%%%%%%%%%=*rr@              -6r8za=/daz/(9o+r*p{               brrr3tyr8rrp|7rrr's     ",
"          h*+b/=d%%%%%%d2+rrk                $rp$50sj~$9oo06rrk+              krrrp|:rrrrrw-@rrr){h   ",
"          .:rrb[5=c/c=nck'rrrh               *r(oo[prrr)9oo{5s:*$+          .+*rr3e,prrrrr$h{r'rr8+   ",
"           @rr:ofj6*p(o(krrrr@              7*r9oo+rrrrr9oj29==9r6         .s8rrrpe]'rrrrrrwy*{+3~{   ",
"          {3rr@oo(3r)[o[:'rrr~{           -bk$67ofprrrrrpj5==/:r6+.         b36rr:-trrrrrrrp-qu7~*    ",
"          :rrr9oo9rr~(o9=9z:88+          -@p/=acj9'rrrrr8n=/+'8+.           k*-91etkrkb*rrrp|@*8b-    ",
"         {3rrr+fobrrr:f/=5d/'~z          7rrad=/=+r3p)6rrk0~~+{             9~syl>{r8s -7*3*$6$b      ",
"         prrrpcc(br''@==//+$r@.          +rr3+=d=9r+ h b8r*)s               br~*$p$~+    h-  ..       ",
"         +*r3znc/+r+.@5j3rr3p.           s@'~r*@:$-.    -7..                 bk8rr:                   ",
"          73*2=2+$+- -$rr$+-h              hhp6@{h                            h{++                    ",
"           +$66)b      +b-                                                                            ",
"            .7@s                                                                                      ",
"             -                                                                                        "};
