/* XPM */
static char * lisa_solo_xpm[] = {
"186 39 57 1",
" 	c None",
".	c #BF9A00",
"+	c #403400",
"@	c #806700",
"#	c #FFCE00",
"$	c #273427",
"%	c #334C33",
"&	c #4C734C",
"*	c #669966",
"=	c #4E674E",
"-	c #000000",
";	c #759A75",
">	c #4E324E",
",	c #271927",
"'	c #787878",
")	c #4E4C4E",
"!	c #806600",
"~	c #223322",
"{	c #3C3C3C",
"]	c #7C6F3C",
"^	c #758075",
"/	c #374437",
"(	c #1E1E1E",
"_	c #EFEFEF",
":	c #676727",
"<	c #595959",
"[	c #777777",
"}	c #661616",
"|	c #733E0B",
"1	c #992121",
"2	c #330B0B",
"3	c #CC2C2C",
"4	c #1A261A",
"5	c #67673E",
"6	c #756575",
"7	c #754A75",
"8	c #9C989C",
"9	c #403300",
"0	c #5A3E32",
"a	c #674C27",
"b	c #334033",
"c	c #141414",
"d	c #101010",
"e	c #323218",
"f	c #482020",
"g	c #4E4E32",
"h	c #736727",
"i	c #404025",
"j	c #343427",
"k	c #5A3224",
"l	c #404034",
"m	c #734B4B",
"n	c #808080",
"o	c #677367",
"p	c #404040",
"q	c #9CB39C",
"r	c #400000",
"                                                                                                                                                                                          ",
"             .+                                                                                                                                                                           ",
"        @#.+.##                             .+                                                                                                                          .+                ",
"        @######.@@                      @+ +##+@#.                             +.                                                            +.                     @+ +##+@#.            ",
"     .###########.                      ##########                         .#@+##+                                                       .#@+##+                    ##########            ",
"     @###########@                      ##########.@                       #######@@@                                                    #######@@@                 ##########.@          ",
"      ############+                   @#############.                    ############                                                 +############               @#############.         ",
"    @#############.                   @############.                     .###########                                                  .###########               @############.          ",
"    +#####.##.@##@                     .###########.                    +############@                            +  +                +############@               .###########.          ",
"     @####+##.+#.+  $%&$              @#####@##..###.                  .##############.                          @#++#+              .##############.             @#####@##..###.         ",
"     #####.++..@@   &**=             +#####.+##+##..+                  +#####..######.                        @#@#####@              +#####..######.             +#####.+##+##..+         ",
"    @###.@#####.@  =$=*&              +##@.#.+++.#@                     .####+##.@###+                        @########@@+            .####+##.@###+              +##@.#.+++.#@           ",
"      @#@.#######. &-;*=               #@.######.+    %$                #.@.#.@@@####.                      +.###########@            #.@.#.@@@####.               #@.######.+    %$      ",
"      @#@@#@##@@>,&$$**$               @+@.#####@+  $%*%                @+.###.#@@#@@                       +#@.#########@            @+.###.#@@#@@                @+@.#####@+  $&*%      ",
"         @##.#.+>$$ ;*%                  @##@#.##.+ &-*&                  @#.#####+                        '-@.@#.#######.              @#.#####+                    @##@#.##.+ &-*&      ",
"         @###.+     ;)=+!-~%             @##.#@@>,-&$$*&                 @##@###.@+                     +.@'@@.##@@.######.            @##@###.@+                    @##.#@@>,-&$$*&      ",
"        '{]]]]{    @^$@+~~**&           ''.@##@+>$&$-**=                +'.###@@##+ =%%-               .##''#####+#########+          +'.###@@##+ =%%{              ''.@##@+>$*$-**{      ",
"        @]]]]{{   +=>+@+&&/(*          +.'+_+'      ^*%                ..''.#@.,>,-&&$*&              .###.+##@.#.@#.#####+          ..''.#@.,>,-&&$*&             +.'+_+'      ^*{       ",
"        .####@##@@@*;:.-%&<{*          .###@@'    +$>;=               .##.'@'   ,&&$-;*&             +##.#@_@#####@@@####@          .##.'@'   ,&&$-;*&             .###@@'    +$>;{       ",
"       +.##.@+####:^)=-;%%[{*         +.####@#+   +^=@$              +.####.'      $;**$             .##-##+.#.###.@#####@         +.####.'      $;**$            +.####@#+   +^=@$       ",
"       }@###|1+@@@=*;=$**{[/%         }@##@@@@#.@+;>+@!-~%           1@##+.@.     =***=             2##@3|#''+.+#@#@#####@         1@##+.@.     =***=             }@##@@@@#.@+;>+!!-=-    ",
"       31.###.@@@#@@;;;**{<&~         3|##.13|###=*;:+~~**&         13@##|12#.   @=)*%             1}##@31+.  +>.. +@.#+          13@##|12#.   @=)*&              3|##.13|###=4;:%--&*~   ",
"      }331.#######.$*)***&&&5        }31.##.|2+@$6)*=+&&/(*        233|###|1.##.:^*+@+            231.#.13}#   7-.    .          233|###|1.##.:^*+@+             }31.##.|2+@$6)*=-&%&%*-  ",
"      13331|.#####@.:)>)&*%*5        3331.####@.$);;-;%&<{*        1331.###|-@@:8)$!!- -          133@##}3@#+  =&                1331.###|-@@:4)$!9 %~           3331.####@.$);;-&%*{{*-  ",
"     23333331}2-$@.$,*))*-==        }33331@#####@@;=;*%%[{*        3333|######:^)*@%--&*~        {{44@##.|@#@   =&&=$            3333|######:^)*@-~&**~         }33331@#####@@;=;*%%[{*-  ",
"     133333333}-&*:=7=***{          3333333}|.##.;;&***{[/%       }33333|.####:;;;--&%&%*-     {&**&4@##.;;==$@=---;*{          }33333|.####:;;;-&%&{%%         3333333}|.##.;;&*&&/[{&   ",
"     3333333331-***==4=**$         }333333333$.+@@=^;**{<&~       33333331+##@@@*-=&%*{{*-    {&****6....66&6&=)**=**%          33333331+##@@@*-=%*/[%%        }333333333$.+@@=^;%*{[%%   ",
"    }3333333333=&&%4*=**=          }333333330=4.=/&&>**&&&5      }33333331=a..:==***%%[{*-    &*&%4*;:@::;);)==;*****b%        }33333331=a..:==**%*{[%%        }333333330=6.=,*>>%*//*-   ",
"    }3333333333=**%<&**&-         c333333331&4*;={{*;*&*%;5     d13333331=4^.$+;6;*&&/[{&     &**%<&$=$=;*==.@@:===ee-        d13333331&=4.$+;6;*%%[<&-       c333333331&4*;=/&&;%***~5   ",
"   c33333333333=**&{&**{          f133333330*&%4*&&**&=-g5      -3133331=**&;)/&&>*%*{[%%     -**&{&=^&&;=02+@hh              -3133331{&**;)/&&>*%%[/&i       f133333330***=*{{**~~%-5    ",
"   f13133333333-******{            j3133333=**%<&;;*&{           k}3133-***;=^{{*;*%*//*-     -&*;;*>>&>&***=$==               k}3133{***;=4{{*;*%*%*~         j3133333{*&%4*&&*&{        ",
"    j1l31}313}}}=***&{              }23}311&**&{&**&{             }mm32&*&%4*;&&***%***~       -=***;;;>;*==*;=*{               }mm32;*&%4*;&&***4*&~           }23}311&**%<&***{         ",
"      @|.|1n1|#+{==--                +|@1m1&***;;*&{                +|+&**%<&*****=~~%-          {=******=*{{{{^=                 +|+***%<&*****={-o             +|@1m1&**&{&**{          ",
"      @##@   @#@                     @##+ m-*****&-                 @#.&**&{&***=-                 -==**=*)[[[{*o                 @#.{**&{&***={                 @##+ m{*****&{           ",
"      .##n   .##n                    .##n   $=&=-                   .##$=*****=-                   .#.p=;{{{{{;o                  .##$&*****={                   .##n   -=&=-             ",
"     n##.   n#.||n                  n##.   n#.2|n                  n##. n-==$2+n                  n##.  ;*88q=p                  n##. -==&$r+n                  n##.   n#.2|n             ",
"     p#|1p  p@1}@1m                 p#|1p  p@1}@1m                 p#|1p  p@1}@1m                 }}}1p  ==}5@1m                 p#|1p  p@1}@1m                 p#|1p  p@1}@1m            ",
"     }}3|.m }333333m                }}3|.m }333333m                }}3|.m }333333m                231@.n }333333m                }}3|.m }333333m                }}3|.m }333333m           ",
"     }13|11  }}}}}}}                }13|11  }}}}}}}                }13|11  }}}}}}}                }m3}11  }}}}}}}                }13|11  }}}}}}}                }13|11  }}}}}}}           "};
