/* XPM */
static char * lisa_walker_xpm[] = {
"208 82 32 1",
" 	c None",
".	c #FFCC00",
"+	c #554400",
"@	c #000000",
"#	c #BF9900",
"$	c #806600",
"%	c #807340",
"&	c #808080",
"*	c #BFBFBF",
"=	c #FFFFFF",
"-	c #403300",
";	c #555555",
">	c #404040",
",	c #223322",
"'	c #669966",
")	c #4C734C",
"!	c #334C33",
"~	c #374437",
"{	c #59591A",
"]	c #800000",
"^	c #400000",
"/	c #550000",
"(	c #CC2C2C",
"_	c #BF0000",
":	c #803300",
"<	c #1A261A",
"[	c #3C3C3C",
"}	c #5E511E",
"|	c #777777",
"1	c #59261A",
"2	c #1E1E1E",
"3	c #595959",
"              +    @                                                                                                  +    @                                                                                    ",
"             +.# @$.@                                                                        +                       +.# @$.@                                                                        +          ",
"           @@#..#...@                    +    @                                             #.+ +#$                @@#..#...@                    +    @                                             #.+ +#$     ",
"          $.........$$$+                +.# @$.@                 #+  @$                  @@+...#..$               $.........$$$+                +.# @$.@                 #+  @$                  @@+...#..$     ",
"          @............@              @@#..#...@                $..+$..@                @.........#$$$            @............@              @@#..#...@                $..+$..@                @.........#$$$  ",
"          +...........#              $.........$$$+          +$$.......@@@               $...........$            +...........#              $.........$$$+          +$$.......@@@               $...........$  ",
"         +.##..#.#....#+             @............@          +............+              #...........+           +.##..#.#....#+             @............@          +............+              #...........+  ",
"          #%&%#&&##.....+            +...........#           @............@             ##.#..##.....$@           #%&%#&&##.....+            +...........#           @............@             ##.#..##.....$@ ",
"          @*==&*=&#....+            +.##..#.#....#+          #...........$              +#&&#%&%#.....#           @*==&*=&#....+            +.##..#.#....#+          #...........$              +#&&#%&%#.....# ",
"           *&%&==&.....+             #%&%#&&##.....+        +.$-#.-$#.....#+             &*=&*==-....#             *&%&==&.....+             #%&%#&&##.....+        +.$-#.-$#.....#+             &*=&*==-....#  ",
"           @..#&&#.$$..#             @*==&*=&#....+          +*=*%==%#....#              ;*&-===$....#             @..#&&#.$$..#             @*==&*=&#....+          +*=*%==%#....#              ;*&-===$....#  ",
"           +$......#$.$$              *&%&==&.....+          @*=*&*=&#....@               $..%&%.#$#..+            +$......#$.$$              *&%&==&.....+          @*=*&*=&#....@               $..%&%.#$#..+ ",
"           $....#..-#.@               @..#&&#.$$..#           ;$#%==%.$#..$               $#......#$#$+            $....#..-#.@               @..#&&#.$$..#           ;$#%==%.$#..$               $#......#$#$+ ",
"            @-$$#..@@$                +$......#$.$$           @$..$$..#$...@             +#...#..$$.$               @-$$#..@@$                +$......#$.$$           @$..$$..#$...@             +#...#..$$.$   ",
"   @@         +....>;                 $....#..-#.@            #.......$$.@@                @$$##.$@++      @@         +....>;                 $....#..-#.@            #.......$$.@@                @$$##.$@++   ",
"  ,''),       @.$#&>;                  @-$$#..@@$             @$$$$$..-$.@                  @#...$&       ,''),       @.$#&>;                  @-$$#..@@$             @$$$$$..-$.@                  @#...$&     ",
"  !'),',     @=@=-&+                     +....>;                +#....@ @        ,!!@        $##%>&       !'),',     @=@=-&+                     +....>;                +#....@ @        ,!!@        $##%>&     ",
"  !'',@)),    @$$...@         !!,        @.$#&>;                 @...$&&        @'')',      &&&&%%        !'',@)),    @$$...@         !!,        @.$#&>;                 @...$&&        @'')',      &&&&%%      ",
"   )''!@@     +$....$        !''))      @=@=-&+       !!,        &$&-=@         @'',,)!@     @##..$        )''!@@     +$....$        !''))      @=@=-&+       !!,        &$&-=@         @'',,)!@     @##..$     ",
"   @'''),    +$..$..$        !')@!),     @$$...@     !''))       &-&#$#          )'',@!!     -.....@       @'''),    +$..$..$        !')@!),     @$$...@     !''))       &-&#$#          )'',@!!     -.....@    ",
"    ,')~{+  +.$]^...-/       ,'')@,!,    @$....$     !')@!),      $....+          )'')@     #$.$...@        ,')~{+  +.$]^...-/       ,'')@,!,    @$....$     !')@!),      $....+          )'')@     #$.$...@    ",
"     $$!!)+#..]($..#_]        ,''',     @$..$..$     ,'')@,!,    +#.#..$          ,''))$   +.^]$..$:         $$!!)+#..]($..#_]        ,''',     @$..$..$     ,'')@,!,    +#.#..$          ,''))$   +.^]$..$:    ",
"   @ @$$~!!$$-^$...:(_         )''){+   #$]^...-/     ,''',     +$$$#..$           ,!2)< @$.#_]...:(@      @ @$$~!!$$-^$...:(_         )''){+   #$]^...-/     ,''',     +$$$#..$           ,!2)< @$.#_]...:(@   ",
"  ,')@@!!)~!#.....:(((/         !<~!, +#.:($..#_]      )''){+  +.$(:...^]          +$$!~!#..-_#..#_(]     ,')@@!!)~!#.....:(((/         !<~!, +#.:($..#_]      )''){+  +.$(:...^]          +$$!~!#..-_#..#_(]   ",
" @'!)!)@,')!#....:((((_         $${~!{..#_:...:((@      !<~!, $..:($..$(]        ,! -$!)!)-$$#...:((_    @'!)!)@,')!#....:((((_         $${~!{..#_:...:((@      !<~!, $..:($..$(]        ,! -$!)!)-$$#...:((_   ",
" @'[['!),!!#-..#^((((((]      !,@${!'!<$$$...#_((/      $${~!}..#]:...:((@      ,''),@<'~!!.....:((((/   @'[['!),!!#-..#^((((((]      !,@${!'!<$$$...#_((/      $${~!}..#]:...:((@      ,''),@<'~!!.....:((((/  ",
" @'[|!!'')!!#$#!1((((((_     )'',,,!)~)$....#_(((_    !,@${!'!<$$$...#_((]      !![)!)@,'{##..#:((((((@  @'[|!!'')!!#$#!1((((((_     )'',,,!)~)$....#_(((_    !,@${!'!<$$$...#_((]      !![)!)@,'{##..#:((((((@ ",
"  )[|~))'!!<{${<)1((((((/   @'2~)),@))$#...$_(((((/  )'',,,!)~)$....#_((((@     !!|~'!'!){<###<(((((((/   )[|~))'!!<{${<)1((((((/   @'2~)),@))$#...$_(((((/  )'',,,!)~)$....#_((((@     !!|~'!'!){<###<(((((((/ ",
"  !!|['!!|!)!!''!'1(((((_   @'[3)!')!){-#.{]((((((] @'2~)),@))$#...$_(((((_     !!|['!''!!$-.@)1((((((]   !!|['!!|!)!!''!'1(((((_   @'[3)!')!){-#.{]((((((] @'2~)),@))$#...$_(((((_     !!|['!''!!$-.@)1((((((] ",
"  @'~~'!'!'~[)!''')_((((^/  @'[|!!'''<<#$$<)_((((((@@'[3)!')!)}-#.{](((((((@    @)3|!!'~2'<!{'<)1((((((@  @'~~'!'!'~[)!''')_((((^/  @'[|!!'''<<#$$<)_((((((@@'[3)!')!)}-#.{](((((((@    @)3|!!'~2'<!{'<)1((((((@",
"   ,'''!'''~~'~<)''1((^(@    !~|['!)[!!!{))<)_(((((@@'[|!!'''<2#$$<)_((((((]     )~|!!'~~'~!)''''](((_]/   ,'''!'''~~'~<)''1((^(@    !~|['!)[!!!{))<)_(((((@@'[|!!'''<2#$$<)_((((((]     )~|!!'~~'~!)''''](((_]/",
"    @!,,)''''!|!'''!]]_^     ,)3['!)[))~!''''!(((_(] !~|['!)[!!!{))<)_((((_]     ,'!'!'''!|!)<!''!((^_+/    @!,,)''''!|!'''!]]_^     ,)3['!)[))~!''''!(((_(] !~|['!)[!!!{))<)_((((_]     ,'!'!'''!|!)<!''!((^_+/",
"         ,)'''!''''<__]       )))'!'''[['<!)'']_(]/] ,)3['!)[))~!''''!((_(@       ,)'<''''!'~[''''^_#$:]         ,)'''!''''<__]       )))'!'''[['<!)'']_(]/] ,)3['!)[))~!''''!((_(@       ,)'<''''!'~[''''^_#$:]",
"           ,)''''')$$(@        !')!''')))3!'''!:_@    )))'!'''[['<!)''](-_-         @ @!''''~~''''@@##_/           ,)''''')$$(@        !')!''')))3!'''!:_@    )))'!'''[['<!)''](-_-         @ @!''''~~''''@@##_/",
"             @!!!{#$__          @  ,)''')[)'''!.#$     !')!''')))3!'''!/##.+            @!''''''') @___              @!!!{#$__          @  ,)''')[)'''!.#$     !')!''')))3!'''!/##.+            @!''''''') @___ ",
"                $..$(@               ,)'''''''@..#      @  ,)''')[)'''! +..#              @!)'''!  $$]/                 $..$(@               ,)'''''''@..#      @  ,)''')[)'''! +..#              @!)'''!  $$]/ ",
"               @:..#/                 /<)'''), $..@          ,)'''''''@  #..^              @#$$@   /]_                 @:..#/                 /<)'''), $..@          ,)'''''''@  #..^              @#$$@   /]_  ",
"              @#_$..@                /(_:]]^ +]:..$        @@ @<!'''),   -$:(/            @]#..@   @_                 @#_$..@                /(_:]]^ +]:..$        @@ @<!'''),   -$:(/            @]#..@   @_   ",
"             /(]__]]]               @((((_]@/:$(]$$       ]((--$.-@@    $#_(_            @.]_$$+                     /(]__]]]               @((((_]@/:$(]$$       ]((--$.-@@    $#_(_            @.]_$$+        ",
"            @(((((]/                 @@@@  _(_]((((@       /_((_$+     __](]            /(]((((]                    @(((((]/                 @@@@  _(_]((((@       /_((_$+     __](]            /(]((((]        ",
"            /]]]@@                         ]]]]]/@@          @]((]    /]]]@             ]]]]@@@                     /]]]@@                         ]]]]]/@@          @]((]    /]]]@             ]]]]@@@         ",
"      @    +                                                                                                  @    +                                                                                            ",
"     @.$@ #.+                                                                           +                    @.$@ #.+                                                                           +               ",
"     @...#..#@@                @    +                                              $#+ +.#                   @...#..#@@                @    +                                              $#+ +.#              ",
"  +$$$.........$              @.$@ #.+                     $@  +#                  $..#...+@@             +$$$.........$              @.$@ #.+                     $@  +#                  $..#...+@@           ",
"  @............@              @...#..#@@                  @..$+..$              $$$#.........@            @............@              @...#..#@@                  @..$+..$              $$$#.........@          ",
"   #...........+           +$$$.........$               @@@.......$$+           $...........$              #...........+           +$$$.........$               @@@.......$$+           $...........$           ",
"  +#....#.#..##.+          @............@              +............+           +...........#             +#....#.#..##.+          @............@              +............+           +...........#           ",
" +.....##&&#%&%#            #...........+              @............@          @$.....##..#.##           +.....##&&#%&%#            #...........+              @............@          @$.....##..#.##          ",
"  +....#&=*&==*@           +#....#.#..##.+              $...........#          #.....#%&%#&&#+            +....#&=*&==*@           +#....#.#..##.+              $...........#          #.....#%&%#&&#+          ",
"  +.....&==&%&*           +.....##&&#%&%#             +#.....#$-.#-$.+          #....-==*&=*&             +.....&==&%&*           +.....##&&#%&%#             +#.....#$-.#-$.+          #....-==*&=*&           ",
"  #..$$.#&&#..@            +....#&=*&==*@              #....#%==%*=*+           #....$===-&*;             #..$$.#&&#..@            +....#&=*&==*@              #....#%==%*=*+           #....$===-&*;           ",
"  $$.$#......$+            +.....&==&%&*               @....#&=*&*=*@          +..#$#.%&%..$              $$.$#......$+            +.....&==&%&*               @....#&=*&*=*@          +..#$#.%&%..$            ",
"   @.#-..#....$            #..$$.#&&#..@               $..#$.%==%#$;           +$#$#......#$               @.#-..#....$            #..$$.#&&#..@               $..#$.%==%#$;           +$#$#......#$            ",
"    $@@..#$$-@             $$.$#......$+              @...$#..$$..$@             $.$$..#...#+               $@@..#$$-@             $$.$#......$+              @...$#..$$..$@             $.$$..#...#+           ",
"     ;>....+         @@     @.#-..#....$               @@.$$.......#             ++@$.##$$@                  ;>....+         @@     @.#-..#....$               @@.$$.......#             ++@$.##$$@             ",
"     ;>&#$.@       ,)'',     $@@..#$$-@                 @.$-..$$$$$@               &$...#@                   ;>&#$.@       ,)'',     $@@..#$$-@                 @.$-..$$$$$@               &$...#@              ",
"      +&-=@=@     ,',)'!      ;>....+                    @ @....#+                 &>%##$        @!!,         +&-=@=@     ,',)'!      ;>....+                    @ @....#+                 &>%##$        @!!,   ",
"     @...$$@    ,))@,''!      ;>&#$.@        ,!!          &&$...@                   %%&&&&      ,')''@       @...$$@    ,))@,''!      ;>&#$.@        ,!!          &&$...@                   %%&&&&      ,')''@  ",
"     $....$+     @@!'')        +&-=@=@      ))''!          @=-&$&        ,!!       $..##@     @!),,''@       $....$+     @@!'')        +&-=@=@      ))''!          @=-&$&        ,!!       $..##@     @!),,''@  ",
"     $..$..$+    ,)'''@       @...$$@     ,)!@)'!          #$#&-&       ))''!     @.....-     !!@,'')        $..$..$+    ,)'''@       @...$$@     ,)!@)'!          #$#&-&       ))''!     @.....-     !!@,'')   ",
"    /-...^]$.+  +{~)',        $....$@    ,!,@)'',         +....$      ,)!@)'!     @...$.$#     @)'')        /-...^]$.+  +{~)',        $....$@    ,!,@)'',         +....$      ,)!@)'!     @...$.$#     @)'')    ",
"    ]_#..$(]..#+)!!$$         $..$..$@     ,''',          $..#.#+    ,!,@)'',     :$..$]^.+   $))'',        ]_#..$(]..#+)!!$$         $..$..$@     ,''',          $..#.#+    ,!,@)'',     :$..$]^.+   $))'',    ",
"    _(:...$^-$$!!~$$@ @      /-...^]$#   +{)'')           $..#$$$+     ,''',     @(:...]_#.$@ <)2!,         _(:...$^-$$!!~$$@ @      /-...^]$#   +{)'')           $..#$$$+     ,''',     @(:...]_#.$@ <)2!,     ",
"   /(((:.....#!~)!!@@)',     ]_#..$(:.#+ ,!~<!           ]^...:($.+  +{)'')      ](_#..#_-..#!~!$$+        /(((:.....#!~)!!@@)',     ]_#..$(:.#+ ,!~<!           ]^...:($.+  +{)'')      ](_#..#_-..#!~!$$+     ",
"   _((((:....#!)',@)!)!'@   @((:...:_#..{!~{$$           ]($..$(:..$ ,!~<!       _((:...#$$-)!)!$- !,      _((((:....#!)',@)!)!'@   @((:...:_#..{!~{$$           ]($..$(:..$ ,!~<!       _((:...#$$-)!)!$- !,   ",
"  ]((((((^#..-#!!,)!'[['@   /((_#...$$$<!'!{$@,!        @((:...:]#..}!~{$$      /((((:.....!!~'<@,)'',    ]((((((^#..-#!!,)!'[['@   /((_#...$$$<!'!{$@,!        @((:...:]#..}!~{$$      /((((:.....!!~'<@,)'',  ",
"  _((((((1!#$#!!)''!!|['@   _(((_#....$)~)!,,,'')       ]((_#...$$$<!'!{$@,!   @((((((:#..##{',@)!)[!!    _((((((1!#$#!!)''!!|['@   _(((_#....$)~)!,,,'')       ]((_#...$$$<!'!{$@,!   @((((((:#..##{',@)!)[!!  ",
" /((((((1)<{${<!!'))~|[)   /(((((_$...#$))@,))~2'@     @((((_#....$)~)!,,,'')  /(((((((<###<{)!'!'~|!!   /((((((1)<{${<!!'))~|[)   /(((((_$...#$))@,))~2'@     @((((_#....$)~)!,,,'')  /(((((((<###<{)!'!'~|!!  ",
" _(((((1'!''!!)!|!!'[|!!   ]((((((]{.#-{)!)'!)3['@     _(((((_$...#$))@,))~2'@ ]((((((1)@.-$!!''!'[|!!   _(((((1'!''!!)!|!!'[|!!   ]((((((]{.#-{)!)'!)3['@     _(((((_$...#$))@,))~2'@ ]((((((1)@.-$!!''!'[|!!  ",
"/^((((_)'''!)[~'!'!'~~'@  @((((((_)<$$#<<'''!!|['@    @(((((((]{.#-})!)'!)3['@@((((((1)<'{!<'2~'!!|3)@  /^((((_)'''!)[~'!'!'~~'@  @((((((_)<$$#<<'''!!|['@    @(((((((]{.#-})!)'!)3['@@((((((1)<'{!<'2~'!!|3)@  ",
" @(^((1'')<~'~~'''!''',   @(((((_)<)){!!![)!'[|~!     ]((((((_)<$$#2<'''!!|['@/]_(((]'''')!~'~~'!!|~)    @(^((1'')<~'~~'''!''',   @(((((_)<)){!!![)!'[|~!     ]((((((_)<$$#2<'''!!|['@/]_(((]'''')!~'~~'!!|~)   ",
"  ^_]]!'''!|!''''),,!@    ](_(((!''''!~))[)!'[3),     ]_((((_)<)){!!![)!'[|~! /+_^((!''!<)!|!'''!'!',     ^_]]!'''!|!''''),,!@    ](_(((!''''!~))[)!'[3),     ]_((((_)<)){!!![)!'[|~! /+_^((!''!<)!|!'''!'!',   ",
"   ]__<''''!'''),         ]/](_]'')!<'[['''!')))       @(_((!''''!~))[)!'[3), ]:$#_^''''[~'!''''<'),       ]__<''''!'''),         ]/](_]'')!<'[['''!')))       @(_((!''''!~))[)!'[3), ]:$#_^''''[~'!''''<'),    ",
"   @($$)'''''),             @_:!'''!3)))'''!)'!        -_-(]'')!<'[['''!')))  /_##@@''''~~''''!@ @         @($$)'''''),             @_:!'''!3)))'''!)'!        -_-(]'')!<'[['''!')))  /_##@@''''~~''''!@ @      ",
"    __$#{!!!@               $#.!''')[)'''),  @        +.##/!'''!3)))'''!)'!    ___@ )'''''''!@              __$#{!!!@               $#.!''')[)'''),  @        +.##/!'''!3)))'''!)'!    ___@ )'''''''!@          ",
"    @($..$                  #..@'''''''),             #..+ !''')[)'''),  @     /]$$  !''')!@                @($..$                  #..@'''''''),             #..+ !''')[)'''),  @     /]$$  !''')!@            ",
"     /#..:@                @..$ ,)''')</             ^..#  @'''''''),           _]/   @$$#@                  /#..:@                @..$ ,)''')</             ^..#  @'''''''),           _]/   @$$#@             ",
"     @..$_#@               $..:]+ ^]]:_(/           /(:$-   ,)'''!<@ @@          _@   @..#]@                 @..$_#@               $..:]+ ^]]:_(/           /(:$-   ,)'''!<@ @@          _@   @..#]@            ",
"     ]]]__](/              $$]($:/@]_((((@           _(_#$    @@-.$--((]              +$$_].@                ]]]__](/              $$]($:/@]_((((@           _(_#$    @@-.$--((]              +$$_].@           ",
"      /](((((@            @((((]_(_  @@@@             ](]__     +$_((_/               ]((((](/                /](((((@            @((((]_(_  @@@@             ](]__     +$_((_/               ]((((](/          ",
"        @@]]]/             @@/]]]]]                    @]]]/    ]((]@                  @@@]]]]                  @@]]]/             @@/]]]]]                    @]]]/    ]((]@                  @@@]]]]          "};
