/* XPM */
static char * lisa_laugh_xpm[] = {
"260 43 65 1",
" 	c None",
".	c #020202",
"+	c #FECE02",
"@	c #B89A05",
"#	c #2A2C2A",
"$	c #3D403D",
"%	c #47460C",
"&	c #652638",
"*	c #6C5E58",
"=	c #96863B",
"-	c #722327",
";	c #9B2121",
">	c #807262",
",	c #685E0B",
"'	c #811B29",
")	c #771C19",
"!	c #74543B",
"~	c #94202C",
"{	c #8A3232",
"]	c #A06809",
"^	c #541E1F",
"/	c #F5BC02",
"(	c #806E3E",
"_	c #A22A2A",
":	c #944A0E",
"<	c #42151B",
"[	c #9F7909",
"}	c #DBB702",
"|	c #7F6E2A",
"1	c #060606",
"2	c #894736",
"3	c #C28D03",
"4	c #CE2E2E",
"5	c #645A2A",
"6	c #746A15",
"7	c #FE02FE",
"8	c #CC9F06",
"9	c #5B4911",
"0	c #AD8F09",
"a	c #4D3636",
"b	c #AA8E2A",
"c	c #7E5A2A",
"d	c #5A554D",
"e	c #B28104",
"f	c #B42E22",
"g	c #82610D",
"h	c #D7AB05",
"i	c #3E2D0F",
"j	c #560E26",
"k	c #502B2D",
"l	c #622D04",
"m	c #866642",
"n	c #724F12",
"o	c #BC1F2E",
"p	c #9F8513",
"q	c #542F13",
"r	c #5D4E29",
"s	c #1E1E1B",
"t	c #9B3219",
"u	c #7B2F16",
"v	c #CA6616",
"w	c #8C740E",
"x	c #2E2505",
"y	c #878276",
"z	c #7A5626",
"                                                                                                                                                                                                                                                                    ",
"                                                                                                                                                                                                                                                      xr            ",
"                                                                                                                                                                                                                                                     #h+e s5        ",
"          i                                                                                                                                                                                                               i                      9ww[h+++0/+s       ",
"         p+h5npr                  kk   k                                                                                                                                                                                 p+h5npr                 w++++++++++s       ",
"     a$$n++++++w                 5h+0k3hk                   w9  kk                    s                        x                         #s   s                    x                          w9  kk                 a$$n++++++w                 p++++++++++g       ",
"    $++++++++++p              $$6/++++++]                  8++3[}/k                  e/5asw5                  nhexx][%                  |++#xz+5                  nhexx][%                   8++3[}/k               $++++++++++p              sw3++++/++/+++/g      ",
"    $++++++++++/wa           a++++++/+++8kk             $$0+++++++e                 g+++h+++9                 8++}+++[                  8++8h+++5                 8++}+++[                $$0+++++++e               $++++++++++/wa            s+++++++++++++++d     ",
"    $++++/+++++++/i          %+++++++++/+++k           p+++++++++++[]            #s9/+++++++3s#            xxp++++++++zx             ii$++++++++,ss            xxp++++++++zx             p+++++++++++[]             $++++/+++++++/i           s++/++++++++8e8/s     ",
"   68+++++++}h@+@/$          p+++/++8[/hee}k           p+++++pzn83[e/k           p++++++h/+8@/w           %++++++++++80+x           a/+++++++++ww+w           %++++++++++80+x            p+++++pzn83[e/k           68+++++++}h@+@/$            p++++/+8e[e8+8z      ",
"  w+++++++3++8p3eg          nh+++++e3h]%]}g            p++/+33++wg[[9k           w++/+/p3p@p[6,           x+++++e[w3e%,,x           $++/++hp[60bh[w           x+++++e[w3e%,,x            p++/+33++wg[[9k          w+++++++3++8p3eg            :/+++++}3++h8[ex      ",
"  m++/+/+}[+hpi}+$         w++++++0//]n++z[           5h++++]+8n[+hwra           w++++0/+09}+*x           x++++/p+@90+[%i           $/++++0++p@+[g$           x++++/p+@90+[%i           5h++++]+8n[+hwra          m++/+/+}[+hpi}+$           %/++/+++[+8[en+e       ",
"  $++++++ph|}h}+30         n+++/++e0338+/++h         |/+++++[hh0+++++3          g/++++@+68++e+}5         ie+/++w/8p}+8@++]          n/++++@}gw+}/+/w         ie+/++w/8p}+8@++]         |/+++++[hh0+++++3          $++++++ph|}h}+30            gh++80+3[8++}3eg      ",
"  $++++++/gh[++++8p         [++++++8hh+he[ec         w++++++[[0++h[[]w         8++++++0083++/h83        9/+++++38%@++bwg@g         @++++++e6@/+83=p0        9/+++++38%@++bwg@g         w++++++[[0++h[[]w          $++++++/gh[++++8p            %+p8@[+3e8+/+},      ",
"  [++++++++8+h[(>=          3+++++++/g!*ymg#          h++/++h++e!!y*bn         p++/+++hp3/b=yy=9         8++++++,/+gdy>(w         $/++/+++3}/}=yd(}5         8++++++,/+gdy>(w           h++/++h++e!!y*bn          [++++++++8+h[(>=             ,w/@3[++8pp0(s       ",
"  6++/+++++8d>>$h$         5++++++++[....pa           p+++++++3$#s1gc           e+++++++/*d$s#5           8+++++++6d$1.px          |++++++++8$#1.gi           8+++++++6d$1.px           p+++++++3$#s1gc           6++/+++++8d>>$h$             %h++/g+[s>y*r  $$$   ",
"   r3++++++g1..sp          z/++/++++g....@k           [+++++++:1...@k           s+++++++p...1%s           [+++++++x....wx           p+++++++g.1..gl           [+++++++x....wx           [+++++++:1...@k            r3++++++g1..sp              w++@,8+e..16  @+++w  ",
"    p++h0/+@...$p           ^2+++e8+p....0k          s+++++88+p....nk           w++/++++0....%s          x/++/++++%....%#           3++/++++g..1.%,          x/++/++++%....%#          s+++++88+p....nk             p++h0/+@...$p              @+@ pp++|u.5  g++++w ",
"    p++0}h+@w6.sp            k++/ep//i^ss3]           9]+++@8/+i<j.6e          s+++++h3+/11k.i,          x++++83}+].<<98[          $+++++0}+81<),8@          x++++83}+].<<98[           9]+++@8/+i<j.6e             p++0}h+@w6.sp             $++p  $+++3[p  w(0p+p ",
"    |p[/0}w}+[6/9             [++80w+/30/ei             ]++8e[+/vghh!           9w}++@wh+e-gewr           xw8+88[/+g]eh3d           pp/++eh+++@3]9d#          xw8+88[/+g]eh3d             ]++8e[+/vghh!             |p[/0}w}+[6/9             $+++c  p+@pp$  6=p++w ",
"       @+[/++}%,#   sss       2wg++g[0w*rr5a$           s++++8e/w**>*a            s8++86}/wd$y$sd           [++8[g3wy>>*b[(           p++/@p/gy>y=@h[a          [++8[g3wy>>*b[(           s++++8e/w**>*a               @+[/++}%,#   sss       $}++/c>$=p=gig@/+++e  ",
"       96}+h5,,w88,@+++5         [g *ad|8+++/[2         k[[w++%>>b}h+/@2           w38++9>d[hh++85          [+w++hi==h+/h/+|          p+//+hg/|}+h30+/5         [+w++hi==h+/h/+|          k[[w++%>>b}h+/@2             96}+h5,,w88,@+++5       r/+++@>d>65@h++++w   ",
"        8+}0++++++[h+8++s           $p+++++}|++]           <+6*(/++/80++8:           x/8dmhh+@[e}+8%         x w+w]+p8tttu/+|          $$|+6[++w:;4o[++c         x w+w]+p8tttu/+|            <+6*(/++/80++8:            8+}0++++++[h+8++s       5@+++++++++}|+@*    ",
"       q++}++++++3gp@8+h            m+h++hp3+++]            c k}+/]uoo]h/+2           9 k++p2;44t3+hs           x w++wo44{3++w            $ g++/244;}++p            x w++wo44{3++w            c k}+/]uoo]h/+2          q++}++++++3gp@8+h          5eh++++++hai      ",
"        8+++peto;ofg8+[             e+hpu^}++[g               kh++]o4_g8++[             k/++e;4t8+++s             n+++eu_8+++w              ^/++/z-gpppr              n+++eu_8+++w              kh++]o4_g8++[           8+++peto;ofg8+[             $igwwn9~4-      ",
"         $#u;4oo44o;ws              [++/0[[eq^                ah+++]~3++++w             a3+++h2008@9              <e+++/3[[8%               s:++++/hhhc               <e+++/3[[8%               ah+++]~3++++w            $#u;4oo44o;ws               )44444444<     ",
"          s444444444'               g+++++8uo4j               kl}+++}]e]c&              k'8++++//hps              -'e++++++e&               j4{/+++++[)               -'e++++++e&               kl}+++}]e]c&              s444444444'                )44o44444fs    ",
"          s4444444444i               t8+8nu444~               k4:h+++++/:^              &4~w+++++8t'              -4;c/++}:o_               -44u]e[]uo4x              -4;c/++}:o_               k4:h+++++/:^              s4444444444i              s444444o444f    ",
"          ^44o44o444o~              ^4o;o444444^              k44;]/+/p24~              k44fte0[:o4'              -44o':{;444s              -4444444444-              -44o':{;444s              k44;]/+/p24~              ^44o44o444o~              <44444444444)   ",
"          )44444444444a             )44o4o44o44~              'o444_u_o444i             )4444ooo4444j             ~o444444444-              ~4o444o44o4_s             ~o444444444-              'o444_u_o444i             )44444444444a             -44o4o4444o44-  ",
"          _44o44444444_            so444444444o4x             )44444o444o4-             )44o44o44444)            a444444444o4_             s444444444444^            a444444444o4_              )44444o444o4-             _44o44444444_            s4444444o44444oi ",
"         s44444o4o44444q           so44444444444-             -o4o44444444o             )44444444o44'            s444444444444s            s444o44444o44-            s444444444444s             -o4o44444444o            s44444o4o44444q           j4444444444o444~ ",
"         ^444444444o444u           s44o444o44444os            ~444444o44444s            oo44444444444s           so44o4o44444o^            'o4444o444o444s           so44o4o44444o^             ~444444o44444s           ^444444444o444u          so4o44o4444444444s",
"         )4o44444444444oa          -444444444o444s           s444o4444o44o'j            o4444o44o4;4;j           -44444f4^;xo<^            -44o44u4~{-q4jj           -44444f4^;xo<^            s444o4444o44o'j           )4o44444444444oa         ^4444444o444o4;oo^",
"         -4444ooo4oooo4&i          -44ooo~o4uf)'js           s444-4''_,~'^)            s44of4);t0;n'             )o4;4)s)hw8i              ))ou~t'^8}p8a             )o4;4)s)hw8i              s444-4''_,~'^)            -4444ooo4oooo4&i         -444;44_^44'f4:<s<",
"        sfu4uuo<^o::jq)            ^k-pz)q)]}es              sx):8^< q+8x              s^l[zl k8+hw              <9l0ls 6++3               <sx8[e $+++w              <9l0ls 6++3               sx):8^< q+8x             sfu4uuo<^o::jq)           <^4_0u_%q;)8n^8$  ",
"         sl9/@il g/}x               q8+/[ k+++s               x++++$ [++[               s8+}c s+++%               w+++s w++w                s+++v $+++g               w+++s w++w                x++++$ [++[              sl9/@il g/}x               rh+}5 :w8++w#   ",
"          l+++:  e++x               k+++| ^+++s               x+++[  [++w               s+++5 s+++s               w++@  w++w                s+++& $+++$               w++@  w++w                x+++[  [++w               l+++:  e++x               p+++, ']v]s     ",
"          n+++l  3++%               n+++k k++hs               #+++w  w++,               r+++s s/+hs              $}++p  w++s                ,+++s $++hi              $}++p  w++s                #+++w  w++,               n+++l  3++%               p+++$ ~;3es     ",
"          ]+++a l//:k               ]++/i ^+e_:i              w+++x  [/uok              g++/s s+e~'(             $+++w  w/uoq               w/+8$ ]+e~'$             $+++w  w/uoq               w+++x  [/uok              ]+++a l//:k               p+++s <-ees     ",
"          [+/[l l/{o:%              [+eu^ k:;;}us             w+/:u5 n:oe3f             w+euk xv;;wu             2++:u$ l{ol]k             s[+euk 2]~;wu             2++:u$ l{ol]k              w+/:u5 n:oe3f             [+/[l l/{o:%              p+3lx  _4;s     ",
"         -0/2;g ^'o_uos            xfe_:3<^ufoo_x            s'v:_e:^~44oo_            sfeo:3)x)444_a            -v:feta-f4oo-             st]_:3)a)~o;'s            -v:feta-f4oo-             s'v:_e:^~44oo_            -0/2;g ^'o_uos            sfp;n[^  ss      ",
"         jf-4g:' sssss             x'f4tffs ssss              ~444_ou ssss             s;f4to4s ssss             q-4f:4{  sss              s'o4to4s ssss             q-4f:4{  sss               ~444_ou ssss             jf-4g:' sssss             s'o~wl;s         "};
