<?xml version="1.0" encoding="UTF-8" standalone="no"?>
<!-- Created with Inkscape (http://www.inkscape.org/) -->

<svg
   xmlns:dc="http://purl.org/dc/elements/1.1/"
   xmlns:cc="http://creativecommons.org/ns#"
   xmlns:rdf="http://www.w3.org/1999/02/22-rdf-syntax-ns#"
   xmlns:svg="http://www.w3.org/2000/svg"
   xmlns="http://www.w3.org/2000/svg"
   xmlns:xlink="http://www.w3.org/1999/xlink"
   xmlns:sodipodi="http://sodipodi.sourceforge.net/DTD/sodipodi-0.dtd"
   xmlns:inkscape="http://www.inkscape.org/namespaces/inkscape"
   version="1.0"
   width="48"
   height="48"
   id="svg6476"
   inkscape:version="0.48.2 r9819"
   sodipodi:docname="default2.svg"
   inkscape:export-filename="/opt/cairo-dock_bzr/cairo-dock-plug-ins/alsaMixer/data/icon8.png"
   inkscape:export-xdpi="180"
   inkscape:export-ydpi="180">
  <metadata
     id="metadata89">
    <rdf:RDF>
      <cc:Work
         rdf:about="">
        <dc:format>image/svg+xml</dc:format>
        <dc:type
           rdf:resource="http://purl.org/dc/dcmitype/StillImage" />
        <dc:title></dc:title>
      </cc:Work>
    </rdf:RDF>
  </metadata>
  <sodipodi:namedview
     pagecolor="#ffffff"
     bordercolor="#666666"
     borderopacity="1"
     objecttolerance="10"
     gridtolerance="10"
     guidetolerance="10"
     inkscape:pageopacity="0"
     inkscape:pageshadow="2"
     inkscape:window-width="712"
     inkscape:window-height="491"
     id="namedview87"
     showgrid="false"
     inkscape:zoom="4.9166667"
     inkscape:cx="24"
     inkscape:cy="23.59322"
     inkscape:window-x="0"
     inkscape:window-y="24"
     inkscape:window-maximized="0"
     inkscape:current-layer="svg6476" />
  <defs
     id="defs6478">
    <linearGradient
       id="linearGradient17123">
      <stop
         id="stop17125"
         style="stop-color:#000000;stop-opacity:1"
         offset="0" />
      <stop
         id="stop17127"
         style="stop-color:#000000;stop-opacity:0"
         offset="1" />
    </linearGradient>
    <linearGradient
       id="linearGradient6700">
      <stop
         id="stop6702"
         style="stop-color:#ffffff;stop-opacity:1"
         offset="0" />
      <stop
         id="stop6704"
         style="stop-color:#ffffff;stop-opacity:0"
         offset="1" />
    </linearGradient>
    <linearGradient
       id="linearGradient6628">
      <stop
         id="stop6630"
         style="stop-color:#000000;stop-opacity:1;"
         offset="0" />
      <stop
         offset="0.5"
         style="stop-color:#000000;stop-opacity:0.39215687;"
         id="stop3871" />
      <stop
         id="stop6632"
         style="stop-color:#000000;stop-opacity:1;"
         offset="1" />
    </linearGradient>
    <linearGradient
       id="linearGradient3844">
      <stop
         id="stop3846"
         style="stop-color:#e8e8e8;stop-opacity:1"
         offset="0" />
      <stop
         id="stop3848"
         style="stop-color:#a5a6a8;stop-opacity:1"
         offset="1" />
    </linearGradient>
    <linearGradient
       id="linearGradient6589-510-471-936">
      <stop
         id="stop5849"
         style="stop-color:#8b9187;stop-opacity:1;"
         offset="0" />
      <stop
         id="stop5851"
         style="stop-color:#3e3f3d;stop-opacity:1"
         offset="1" />
    </linearGradient>
    <linearGradient
       id="linearGradient6643">
      <stop
         id="stop6645"
         style="stop-color:#4c4c4c;stop-opacity:1"
         offset="0" />
      <stop
         id="stop6647"
         style="stop-color:#b7bdb1;stop-opacity:1;"
         offset="1" />
    </linearGradient>
    <linearGradient
       id="linearGradient4718">
      <stop
         id="stop4720"
         style="stop-color:#93998c;stop-opacity:1;"
         offset="0" />
      <stop
         id="stop4722"
         style="stop-color:#202120;stop-opacity:1"
         offset="1" />
    </linearGradient>
    <linearGradient
       id="linearGradient6573">
      <stop
         id="stop6575"
         style="stop-color:#ffffff;stop-opacity:1"
         offset="0" />
      <stop
         id="stop6577"
         style="stop-color:#ffffff;stop-opacity:0"
         offset="1" />
    </linearGradient>
    <linearGradient
       id="linearGradient6379">
      <stop
         id="stop6381"
         style="stop-color:#ffffff;stop-opacity:0"
         offset="0" />
      <stop
         id="stop21606"
         style="stop-color:#ffffff;stop-opacity:1"
         offset="0.5" />
      <stop
         id="stop6383"
         style="stop-color:#ffffff;stop-opacity:0"
         offset="1" />
    </linearGradient>
    <linearGradient
       id="linearGradient6651">
      <stop
         id="stop6653"
         style="stop-color:#ffffff;stop-opacity:1"
         offset="0" />
      <stop
         id="stop6655"
         style="stop-color:#ffffff;stop-opacity:0"
         offset="1" />
    </linearGradient>
    <linearGradient
       id="linearGradient5292">
      <stop
         id="stop5294"
         style="stop-color:#4b4b4b;stop-opacity:1"
         offset="0" />
      <stop
         id="stop5296"
         style="stop-color:#babdb6;stop-opacity:1"
         offset="1" />
    </linearGradient>
    <linearGradient
       id="linearGradient6633">
      <stop
         id="stop6635"
         style="stop-color:#eeeeec;stop-opacity:1"
         offset="0" />
      <stop
         id="stop6637"
         style="stop-color:#61635f;stop-opacity:1"
         offset="1" />
    </linearGradient>
    <linearGradient
       id="linearGradient6546-397-668-696-989">
      <stop
         id="stop4870"
         style="stop-color:#383937;stop-opacity:1"
         offset="0" />
      <stop
         id="stop4872"
         style="stop-color:#595b57;stop-opacity:1"
         offset="1" />
    </linearGradient>
    <linearGradient
       id="linearGradient6531">
      <stop
         id="stop6533"
         style="stop-color:#ffffff;stop-opacity:1"
         offset="0" />
      <stop
         id="stop6535"
         style="stop-color:#ffffff;stop-opacity:0"
         offset="1" />
    </linearGradient>
    <linearGradient
       id="linearGradient3858">
      <stop
         id="stop3860"
         style="stop-color:#a0a0a0;stop-opacity:1"
         offset="0" />
      <stop
         id="stop3862"
         style="stop-color:#4a4a4a;stop-opacity:1"
         offset="1" />
    </linearGradient>
    <linearGradient
       id="linearGradient5262">
      <stop
         id="stop5264"
         style="stop-color:#babdb6;stop-opacity:1"
         offset="0" />
      <stop
         id="stop5266"
         style="stop-color:#eeeeec;stop-opacity:1"
         offset="0.43738842" />
      <stop
         id="stop5268"
         style="stop-color:#555753;stop-opacity:1"
         offset="1" />
    </linearGradient>
    <radialGradient
       cx="11.402097"
       cy="36.863068"
       r="10.69499"
       fx="11.402097"
       fy="36.863068"
       id="radialGradient2484"
       xlink:href="#linearGradient17123"
       gradientUnits="userSpaceOnUse"
       gradientTransform="matrix(-1.3824103,-0.88688415,0.34626477,-0.45807258,28.860483,68.119619)" />
    <linearGradient
       x1="16.790216"
       y1="21.270329"
       x2="29.694229"
       y2="46.259285"
       id="linearGradient2518"
       xlink:href="#linearGradient6700"
       gradientUnits="userSpaceOnUse"
       gradientTransform="matrix(1.0967748,0,-8.099487e-8,1.1169811,1.1480894,-6.9163034)" />
    <linearGradient
       x1="34.497261"
       y1="16.446022"
       x2="34.171013"
       y2="24.312757"
       id="linearGradient2522"
       xlink:href="#linearGradient6628"
       gradientUnits="userSpaceOnUse"
       gradientTransform="matrix(0.90322576,3.0699306e-8,-6.1096716e-8,0.99622637,6.5351955,-3.542718)" />
    <radialGradient
       cx="30.685316"
       cy="42.261425"
       r="8.22791"
       fx="30.685316"
       fy="42.261425"
       id="radialGradient2525"
       xlink:href="#linearGradient3844"
       gradientUnits="userSpaceOnUse"
       gradientTransform="matrix(3.9866296,0.11699788,6.8668993e-8,-2.5300359,-97.785113,113.03276)" />
    <radialGradient
       cx="20.8839"
       cy="20.434256"
       r="3.9999843"
       fx="20.8839"
       fy="20.434256"
       id="radialGradient2528"
       xlink:href="#linearGradient6589-510-471-936"
       gradientUnits="userSpaceOnUse"
       gradientTransform="matrix(1.3093938,5.4227284e-8,-3.622685e-8,1.5604931,-1.5469888,-9.4951262)" />
    <radialGradient
       cx="22.866488"
       cy="29.023764"
       r="8.1890125"
       fx="22.866488"
       fy="29.023764"
       id="radialGradient2531"
       xlink:href="#linearGradient4718"
       gradientUnits="userSpaceOnUse"
       gradientTransform="matrix(2.0932359,0.0038227,-0.00589691,3.679922,-22.431091,-82.605848)" />
    <linearGradient
       x1="33.430557"
       y1="45.052155"
       x2="33.430557"
       y2="0.31037101"
       id="linearGradient2533"
       xlink:href="#linearGradient6643"
       gradientUnits="userSpaceOnUse"
       gradientTransform="matrix(1.2258058,0,-1.038849e-7,1.1773585,-2.1099455,-8.6030962)" />
    <linearGradient
       x1="19.240318"
       y1="4.8111696"
       x2="11.323519"
       y2="35.457581"
       id="linearGradient2536"
       xlink:href="#linearGradient6573"
       gradientUnits="userSpaceOnUse"
       gradientTransform="matrix(0.9034091,8.2668027e-8,-5.4560453e-8,0.87096779,9.6910795,5.1280666)" />
    <linearGradient
       x1="20.226221"
       y1="20.33363"
       x2="11.4375"
       y2="21.75"
       id="linearGradient2539"
       xlink:href="#linearGradient6379"
       gradientUnits="userSpaceOnUse"
       gradientTransform="matrix(0.66666671,4.1762322e-8,-3.6761578e-8,0.99999996,8.8416478,-0.7106431)" />
    <radialGradient
       cx="23.986883"
       cy="27.053167"
       r="7.75"
       fx="23.986883"
       fy="27.053167"
       id="radialGradient2542"
       xlink:href="#linearGradient6651"
       gradientUnits="userSpaceOnUse"
       gradientTransform="matrix(-0.32177615,0,2.5192311e-8,-1.2874455,28.053819,59.118832)" />
    <radialGradient
       cx="9.3203983"
       cy="18.817093"
       r="12.5"
       fx="9.3203983"
       fy="18.817093"
       id="radialGradient2545"
       xlink:href="#linearGradient6633"
       gradientUnits="userSpaceOnUse"
       gradientTransform="matrix(0.71324774,0.52214775,-0.9280778,1.1784894,29.35879,-6.4189424)" />
    <linearGradient
       x1="7.75"
       y1="33.046577"
       x2="4.6431866"
       y2="12.063652"
       id="linearGradient2547"
       xlink:href="#linearGradient5292"
       gradientUnits="userSpaceOnUse"
       gradientTransform="matrix(0.91145839,0,-3.622713e-8,0.87878786,9.5421687,4.956011)" />
    <linearGradient
       x1="80.693359"
       y1="31.561478"
       x2="77.125"
       y2="14"
       id="linearGradient2550"
       xlink:href="#linearGradient6546-397-668-696-989"
       gradientUnits="userSpaceOnUse"
       gradientTransform="translate(-63.158349,2.2893543)" />
    <linearGradient
       x1="9.883214"
       y1="14.05074"
       x2="5.1012387"
       y2="30.00112"
       id="linearGradient2553"
       xlink:href="#linearGradient6531"
       gradientUnits="userSpaceOnUse"
       gradientTransform="matrix(0.89374999,1.8950361e-8,-3.6761578e-8,0.99999996,8.1072731,2.2893567)" />
    <linearGradient
       x1="102.35701"
       y1="-41.092239"
       x2="82.681335"
       y2="-41.092239"
       id="linearGradient2556"
       xlink:href="#linearGradient5262"
       gradientUnits="userSpaceOnUse"
       gradientTransform="matrix(0,0.45783453,-0.43228598,-4.4997276e-8,-5.3851123,-22.571125)"
       spreadMethod="reflect" />
    <linearGradient
       x1="84.425995"
       y1="8.2933674"
       x2="102.42599"
       y2="8.2933674"
       id="linearGradient2558"
       xlink:href="#linearGradient3858"
       gradientUnits="userSpaceOnUse"
       gradientTransform="matrix(-3.6761578e-8,0.99999996,-0.99999996,-3.6761578e-8,23.072517,-69.136621)" />
    <filter
       inkscape:collect="always"
       id="filter3848"
       x="-0.17118336"
       width="1.3423667"
       y="-0.30420203"
       height="1.6084041">
      <feGaussianBlur
         inkscape:collect="always"
         stdDeviation="2.152338"
         id="feGaussianBlur3850" />
    </filter>
  </defs>
  <path
     d="m 11.082137,35.634909 c 1.665871,-3.578503 9.633704,-4.023085 17.796657,-0.993007 8.162955,3.030079 14.85361,1.675529 13.187742,5.254031 -1.66587,3.578502 -14.108277,4.836644 -22.271233,1.806566 -8.162953,-3.03008 -10.3790347,-2.489087 -8.713166,-6.06759 z"
     id="path16236"
     style="opacity:0.3;fill:url(#radialGradient2484);fill-opacity:1;stroke:none;display:inline;filter:url(#filter3848)"
     inkscape:connector-curvature="0"
     sodipodi:nodetypes="sssss" />
  <path
     d="m 14.341647,24.289368 c 10e-7,3.037566 -1.343146,5.500001 -3,5.5 -1.6568539,1e-6 -2.9999995,-2.462433 -2.9999995,-5.499999 3e-7,-3.037566 1.3431458,-5.5 3.0000005,-5.500001 1.656854,1e-6 2.999999,2.462435 2.999999,5.5 z"
     id="path5330"
     style="fill:#2e3436;fill-opacity:1;stroke:#555753;stroke-width:0.99999994;stroke-linecap:round;stroke-linejoin:miter;stroke-miterlimit:4;stroke-opacity:1;stroke-dasharray:none;stroke-dashoffset:0"
     inkscape:connector-curvature="0" />
  <path
     d="m 9.8103972,21.695606 c -1e-7,0.414214 -0.3357864,0.75 -0.7499999,0.75 -0.4142135,-1e-6 -0.75,-0.335786 -0.7499999,-0.75 0,-0.414214 0.3357862,-0.75 0.75,-0.750001 0.4142136,1e-6 0.7499998,0.335787 0.7499998,0.750001 z"
     id="path6659"
     style="fill:#babdb6;fill-opacity:1;stroke:none;display:inline"
     inkscape:connector-curvature="0" />
  <path
     d="m 12.966647,15.789371 c -2.000997,0 -3.624999,3.808021 -3.6249999,8.499999 -8e-7,4.691976 1.6240029,8.500001 3.6249989,8.5 l 3.625,0 c 2.000996,0 3.625,-3.808024 3.625001,-8.5 0,-4.691976 -1.624004,-8.499999 -3.625,-8.499999 l -3.625,0 z"
     id="path2766"
     style="fill:url(#linearGradient2556);fill-opacity:1;fill-rule:nonzero;stroke:url(#linearGradient2558);stroke-width:0.99999994;stroke-linecap:butt;stroke-linejoin:miter;stroke-miterlimit:4;stroke-opacity:1;stroke-dasharray:none;stroke-dashoffset:0;marker:none;visibility:visible;display:inline;overflow:visible;enable-background:accumulate"
     inkscape:connector-curvature="0" />
  <path
     d="m 13.022897,16.789356 c -0.470112,0 -1.131562,0.545895 -1.70371,1.90625 -0.572149,1.360355 -0.97754,3.37576 -0.97754,5.59375 0,2.21799 0.40539,4.233394 0.977539,5.59375 0.572149,1.360356 1.233599,1.90625 1.703711,1.90625 l 3.575,0 c 0.470111,0 1.131562,-0.545894 1.703711,-1.90625 0.57215,-1.360356 0.97754,-3.375762 0.977539,-5.59375 0,-2.217988 -0.405389,-4.233394 -0.977539,-5.59375 -0.572149,-1.360356 -1.233598,-1.90625 -1.703711,-1.90625 l -3.575,0 z"
     id="path5556"
     style="opacity:0.4;fill:none;stroke:url(#linearGradient2553);stroke-width:1;stroke-linecap:round;stroke-linejoin:miter;stroke-miterlimit:4;stroke-opacity:1;stroke-dasharray:none;stroke-dashoffset:0;display:inline"
     inkscape:connector-curvature="0" />
  <path
     d="m 16.538572,16.289357 c -2.040699,0 -3.696924,3.577019 -3.696926,7.984374 0,4.407354 1.656226,7.984376 3.696926,7.984375 l 0.6374,0 c 2.040698,0 3.696925,-3.577022 3.696925,-7.984375 0,-4.407354 -1.656226,-7.984374 -3.696925,-7.984374 l -0.6374,0 z"
     id="path6556"
     style="fill:url(#linearGradient2550);fill-opacity:1;stroke:none;display:inline"
     inkscape:connector-curvature="0" />
  <path
     d="m 15.466647,24.289356 c -10e-7,9.227273 9.186974,14.499999 14.875001,14.499999 3.9375,0 7,-6.496002 6.999999,-14.499998 10e-7,-8.003996 -3.062499,-14.4999988 -6.999999,-14.4999988 -5.688026,-1e-6 -14.875001,5.2727268 -14.875001,14.4999978 z"
     id="path1871"
     style="fill:url(#radialGradient2545);fill-opacity:1;stroke:url(#linearGradient2547);stroke-width:0.99999994;stroke-linecap:round;stroke-linejoin:miter;stroke-miterlimit:4;stroke-opacity:1;stroke-dasharray:none;stroke-dashoffset:0"
     inkscape:connector-curvature="0" />
  <path
     d="m 38.341647,24.289354 c 0,9.38884 -4.589082,16.999997 -10.250001,16.999997 -5.660918,0 -10.249999,-7.611159 -10.249999,-16.999997 0,-9.388839 4.589082,-16.9999973 10.25,-16.9999974 5.660919,3e-7 10.25,7.6111584 10.25,16.9999974 l 0,0 z"
     id="path6649"
     style="fill:url(#radialGradient2542);fill-opacity:1;stroke:none;display:inline"
     inkscape:connector-curvature="0" />
  <path
     d="m 22.866694,12.587317 c -2.583333,1.394678 -5.48338,5.272961 -8.025048,9.202039 2.69956,-1.126087 5.491292,-1.960473 8.000001,-1.749999 l 0.02505,-7.45204 z"
     id="path6639"
     style="opacity:0.7335907;fill:url(#linearGradient2539);fill-opacity:1;fill-rule:evenodd;stroke:none;display:inline"
     inkscape:connector-curvature="0" />
  <path
     d="m 30.300099,10.789359 c -2.52575,0 -6.074533,1.248369 -8.892934,3.565524 -2.818399,2.317154 -4.940518,5.643862 -4.940518,9.934475 -10e-7,4.290614 2.122118,7.617322 4.940518,9.934478 2.818397,2.317155 6.367183,3.565524 8.892932,3.565524 1.429644,0 2.920516,-1.257446 4.093573,-3.701612 1.173058,-2.444167 1.947976,-5.940685 1.947976,-9.798388 1e-6,-3.857702 -0.774917,-7.354221 -1.947975,-9.798387 -1.173057,-2.444167 -2.663928,-3.701614 -4.093572,-3.701614 z"
     id="path6567"
     style="opacity:0.4;fill:none;stroke:url(#linearGradient2536);stroke-width:1;stroke-linecap:round;stroke-linejoin:miter;stroke-miterlimit:4;stroke-opacity:1;stroke-dasharray:none;stroke-dashoffset:0;display:inline"
     inkscape:connector-curvature="0" />
  <path
     d="m 38.341644,24.289356 c -2e-6,10.769552 -4.253294,19.5 -9.499997,19.5 -5.246702,0 -9.499994,-8.730448 -9.499993,-19.5 0,-10.769553 4.253294,-19.4999996 9.499997,-19.4999995 5.246702,-2e-7 9.499994,8.7304475 9.499993,19.4999995 l 0,0 z"
     id="path1873"
     style="fill:url(#radialGradient2531);fill-opacity:1;stroke:url(#linearGradient2533);stroke-width:0.99999981999999998;stroke-linecap:round;stroke-linejoin:miter;stroke-miterlimit:4;stroke-opacity:1;stroke-dasharray:none;stroke-dashoffset:0"
     inkscape:connector-curvature="0" />
  <path
     d="m 28.457763,24.289365 c 0,2.483997 -2.382932,4.499982 -4.066383,4.499982 -1.683452,-1e-6 -3.049733,-2.015999 -3.049733,-4.499996 1e-6,-2.483997 1.36628,-4.499994 3.049734,-4.499994 1.683451,0 4.066382,2.01601 4.066382,4.500008 z"
     id="path3672"
     style="fill:url(#radialGradient2528);fill-opacity:1;stroke:#414141;stroke-width:1.00000047999999997;stroke-linecap:round;stroke-linejoin:miter;stroke-miterlimit:4;stroke-opacity:1;stroke-dashoffset:0"
     inkscape:connector-curvature="0" />
  <path
     d="m 28.841647,5.2893574 c -2.632448,-1e-7 -4.858028,2.2498268 -6.4375,5.6874996 -1.579472,3.437672 -2.531251,8.142624 -2.531251,13.3125 10e-7,5.169873 0.951778,9.874825 2.53125,13.312499 1.579471,3.437672 3.805052,5.6875 6.437499,5.6875 2.63245,0 4.858029,-2.249827 6.4375,-5.687499 0.987171,-2.148548 1.737112,-4.811219 2.15625,-7.750001 0.01321,-0.09267 0.01868,-0.187985 0.03125,-0.28125 0.0764,-0.566949 0.13573,-1.131492 0.1875,-1.71875 0.05088,-0.546413 0.09764,-1.093036 0.125,-1.65625 0.0015,-0.03096 -0.0014,-0.06274 5e-6,-0.09375 0.02747,-0.595847 0.03125,-1.200745 0.03125,-1.812499 -1e-6,-0.644361 -8.1e-4,-1.279619 -0.03125,-1.90625 -0.02585,-0.556623 -0.07726,-1.114717 -0.125,-1.65625 -0.05177,-0.587258 -0.111095,-1.151802 -0.1875,-1.71875 -0.01349,-0.09519 -0.01704,-0.186741 -0.03125,-0.28125 -0.419139,-2.938781 -1.16908,-5.601454 -2.156249,-7.75 -1.579473,-3.4376738 -3.805051,-5.6874997 -6.4375,-5.6875 z m 0.5,2 c 1.922274,2e-7 3.780368,1.7656498 5.1875,4.8437496 0.879456,1.923813 1.576878,4.335367 1.968749,7.03125 0.07837,0.539177 0.133595,1.09521 0.1875,1.65625 0.04746,0.525408 0.09908,1.053403 0.125,1.59375 0.03188,0.620494 0.0625,1.236156 0.0625,1.875 0,0.595745 -0.03472,1.170104 -0.0625,1.75 -0.0019,0.04096 0.002,0.0841 -2e-6,0.125 -0.02758,0.536772 -0.075,1.073298 -0.125,1.593749 -0.05391,0.561039 -0.109126,1.117073 -0.1875,1.656251 -0.391872,2.695882 -1.089293,5.107437 -1.968755,7.031248 -1.407133,3.078099 -3.265226,4.843749 -5.1875,4.843749 -1.922274,-2e-6 -3.780368,-1.765649 -5.1875,-4.84375 -1.407133,-3.078101 -2.34375,-7.390286 -2.34375,-12.156249 1e-6,-4.765965 0.936619,-9.07815 2.343752,-12.15625 1.40713,-3.0781008 3.265226,-4.8437495 5.187499,-4.8437495 z"
     id="path6605"
     style="fill:url(#radialGradient2525);fill-opacity:1;stroke:none;display:inline"
     inkscape:connector-curvature="0" />
  <path
     d="m 12.341647,19.101856 c 0,0.552285 -0.447714,1 -1,1 -0.552285,-1e-6 -1,-0.447715 -1,-1 10e-7,-0.552286 0.447715,-1 1,-1 0.552286,0 1,0.447714 1,1 z"
     id="path6661"
     style="fill:#ffffff;fill-opacity:1;stroke:none;display:inline"
     inkscape:connector-curvature="0" />
  <path
     d="m 37.341655,24.289356 c 0,10.217267 -3.805582,18.499999 -8.500006,18.499999 -4.694422,0 -8.500004,-8.282732 -8.500003,-18.499999 10e-7,-10.217268 3.805583,-18.4999994 8.500006,-18.4999995 4.694423,10e-8 8.500004,8.2827315 8.500003,18.4999995 l 0,0 z"
     id="path6698"
     style="opacity:0.4;fill:none;stroke:url(#linearGradient2518);stroke-width:0.99999982;stroke-linecap:round;stroke-linejoin:miter;stroke-miterlimit:4;stroke-opacity:1;stroke-dasharray:none;stroke-dashoffset:0;display:inline"
     inkscape:connector-curvature="0" />
  <path
     d="m 23.341647,11.914356 c 0,0.552286 -0.447715,1.000001 -0.999999,1.000001 -0.552286,0 -1.000001,-0.447715 -1.000001,-1 0,-0.552285 0.447715,-1.000001 1.000001,-1.000001 0.552284,1e-6 1,0.447716 0.999999,1 z"
     id="path5501"
     style="opacity:0.6;fill:#ffffff;fill-opacity:1;stroke:none;display:inline"
     inkscape:connector-curvature="0" />
  <path
     d="m 36.341644,24.289357 c -1e-6,9.112698 -3.134008,16.499999 -7.000001,16.499999 -3.865993,0 -6.999999,-7.387302 -6.999998,-16.499999 0,-9.112698 3.134007,-16.4999988 7,-16.4999988 3.865994,0 7,7.3873018 6.999999,16.4999988 l 0,0 z"
     id="path6615"
     style="opacity:0.54672897;fill:none;stroke:url(#linearGradient2522);stroke-width:0.99999994000000003;stroke-linecap:round;stroke-linejoin:miter;stroke-miterlimit:4;stroke-opacity:1;stroke-dasharray:none;stroke-dashoffset:0;display:inline"
     inkscape:connector-curvature="0" />
</svg>
