<?xml version="1.0" encoding="UTF-8" standalone="no"?>
<!-- Created with Inkscape (http://www.inkscape.org/) -->

<svg
   xmlns:dc="http://purl.org/dc/elements/1.1/"
   xmlns:cc="http://creativecommons.org/ns#"
   xmlns:rdf="http://www.w3.org/1999/02/22-rdf-syntax-ns#"
   xmlns:svg="http://www.w3.org/2000/svg"
   xmlns="http://www.w3.org/2000/svg"
   xmlns:xlink="http://www.w3.org/1999/xlink"
   xmlns:sodipodi="http://sodipodi.sourceforge.net/DTD/sodipodi-0.dtd"
   xmlns:inkscape="http://www.inkscape.org/namespaces/inkscape"
   id="svg2"
   height="48"
   width="48"
   version="1.0"
   inkscape:version="0.48.2 r9819"
   sodipodi:docname="icon.svg">
  <sodipodi:namedview
     pagecolor="#ffffff"
     bordercolor="#666666"
     borderopacity="1"
     objecttolerance="10"
     gridtolerance="10"
     guidetolerance="10"
     inkscape:pageopacity="0"
     inkscape:pageshadow="2"
     inkscape:window-width="1280"
     inkscape:window-height="936"
     id="namedview114"
     showgrid="false"
     inkscape:zoom="2.4583333"
     inkscape:cx="25.949323"
     inkscape:cy="41.258199"
     inkscape:window-x="0"
     inkscape:window-y="0"
     inkscape:window-maximized="1"
     inkscape:current-layer="svg2" />
  <defs
     id="defs4">
    <linearGradient
       id="linearGradient6958">
      <stop
         id="stop6960"
         style="stop-color:#729fcf"
         offset="0" />
      <stop
         id="stop6966"
         style="stop-color:#729fcf"
         offset="0.6" />
      <stop
         id="stop6962"
         style="stop-color:#729fcf;stop-opacity:0"
         offset="1" />
    </linearGradient>
    <linearGradient
       id="linearGradient6393"
       y2="32.629"
       gradientUnits="userSpaceOnUse"
       x2="16.188"
       gradientTransform="translate(-28)"
       y1="18.812"
       x1="17.25">
      <stop
         id="stop6389"
         style="stop-color:#fff"
         offset="0" />
      <stop
         id="stop6391"
         style="stop-color:#fff;stop-opacity:0"
         offset="1" />
    </linearGradient>
    <radialGradient
       id="radialGradient8199"
       gradientUnits="userSpaceOnUse"
       cy="22.5"
       cx="7.1396"
       gradientTransform="matrix(1.9148 -.50619 .65484 2.477 -48.624 -29.619)"
       r="6">
      <stop
         id="stop9088"
         offset="0" />
      <stop
         id="stop9090"
         style="stop-opacity:0"
         offset="1" />
    </radialGradient>
    <radialGradient
       id="radialGradient21684"
       gradientUnits="userSpaceOnUse"
       cy="21.844"
       cx="20.844"
       r="2.9063">
      <stop
         id="stop21624"
         style="stop-color:#3465a4;stop-opacity:0"
         offset="0" />
      <stop
         id="stop21630"
         style="stop-color:#3465a4;stop-opacity:0"
         offset=".85542" />
      <stop
         id="stop21626"
         style="stop-color:#3465a4"
         offset="1" />
    </radialGradient>
    <radialGradient
       id="radialGradient21686"
       gradientUnits="userSpaceOnUse"
       cy="21.844"
       cx="20.844"
       r="2.9063">
      <stop
         id="stop21664"
         style="stop-color:#3465a4;stop-opacity:0"
         offset="0" />
      <stop
         id="stop21666"
         style="stop-color:#3465a4;stop-opacity:0"
         offset=".81928" />
      <stop
         id="stop21668"
         style="stop-color:#3465a4"
         offset="1" />
    </radialGradient>
    <radialGradient
       id="radialGradient21688"
       gradientUnits="userSpaceOnUse"
       cy="21.844"
       cx="20.844"
       r="2.9063">
      <stop
         id="stop21646"
         style="stop-color:#3465a4;stop-opacity:0"
         offset="0" />
      <stop
         id="stop21648"
         style="stop-color:#3465a4;stop-opacity:0"
         offset=".73494" />
      <stop
         id="stop21650"
         style="stop-color:#3465a4"
         offset="1" />
    </radialGradient>
    <linearGradient
       id="linearGradient5545"
       y2="14.001"
       gradientUnits="userSpaceOnUse"
       x2="78.5"
       gradientTransform="matrix(.90625 0 0 1 -65.922 19)"
       y1="-4.0065"
       x1="78.5">
      <stop
         id="stop2795"
         style="stop-color:#babdb6"
         offset="0" />
      <stop
         id="stop2801"
         style="stop-color:#eeeeec"
         offset=".25301" />
      <stop
         id="stop2797"
         style="stop-color:#555753"
         offset="1" />
    </linearGradient>
    <linearGradient
       id="linearGradient5547"
       y2="-4.0088"
       gradientUnits="userSpaceOnUse"
       x2="80.062"
       gradientTransform="matrix(.90625 0 0 1 -65.922 19)"
       y1="14"
       x1="80.062">
      <stop
         id="stop5535"
         style="stop-color:#555753"
         offset="0" />
      <stop
         id="stop5537"
         style="stop-color:#babdb6"
         offset="1" />
    </linearGradient>
    <linearGradient
       id="linearGradient6537"
       y2="39.884"
       gradientUnits="userSpaceOnUse"
       x2="3.8449"
       y1="15.561"
       x1="3.8449">
      <stop
         id="stop6533"
         style="stop-color:#fff"
         offset="0" />
      <stop
         id="stop6535"
         style="stop-color:#fff;stop-opacity:0"
         offset="1" />
    </linearGradient>
    <linearGradient
       id="linearGradient6545"
       y2="12.064"
       gradientUnits="userSpaceOnUse"
       x2="4.6432"
       gradientTransform="matrix(.91146 0 0 .87879 2.7005 4.6667)"
       y1="33.047"
       x1="7.75">
      <stop
         id="stop6629"
         style="stop-color:#555753"
         offset="0" />
      <stop
         id="stop6631"
         style="stop-color:#babdb6"
         offset="1" />
    </linearGradient>
    <radialGradient
       id="radialGradient6553"
       gradientUnits="userSpaceOnUse"
       cy="18.817"
       cx="9.3204"
       gradientTransform="matrix(.71325 .52215 -.92808 1.1785 22.517 -6.7083)"
       r="12.5">
      <stop
         id="stop6635"
         style="stop-color:#eeeeec"
         offset="0" />
      <stop
         id="stop6637"
         style="stop-color:#61635f"
         offset="1" />
    </radialGradient>
    <linearGradient
       id="linearGradient6579"
       y2="47.497"
       gradientUnits="userSpaceOnUse"
       x2="12.198"
       y1="9.2597"
       x1="12.198">
      <stop
         id="stop6575"
         style="stop-color:#fff"
         offset="0" />
      <stop
         id="stop6577"
         style="stop-color:#fff;stop-opacity:0"
         offset="1" />
    </linearGradient>
    <radialGradient
       id="radialGradient6595"
       gradientUnits="userSpaceOnUse"
       cy="30.233"
       cx="23.165"
       gradientTransform="matrix(1.7346 -.16988 .32776 3.6175 -27.429 -73.697)"
       r="8.189">
      <stop
         id="stop6669"
         style="stop-color:#babdb6"
         offset="0" />
      <stop
         id="stop6671"
         style="stop-color:#555753"
         offset="1" />
    </radialGradient>
    <radialGradient
       id="radialGradient6603"
       gradientUnits="userSpaceOnUse"
       cy="20.434"
       cx="20.884"
       gradientTransform="matrix(1.3094 0 0 1.5605 -8.3886 -9.7845)"
       r="4">
      <stop
         id="stop6591"
         style="stop-color:#babdb6"
         offset="0" />
      <stop
         id="stop6593"
         style="stop-color:#555753"
         offset="1" />
    </radialGradient>
    <linearGradient
       id="linearGradient6641"
       y2="21.75"
       gradientUnits="userSpaceOnUse"
       x2="11.438"
       gradientTransform="matrix(.66667 0 0 1 2 -1)"
       y1="20.334"
       x1="20.226">
      <stop
         id="stop6381"
         style="stop-color:#fff;stop-opacity:0"
         offset="0" />
      <stop
         id="stop21606"
         style="stop-color:#fff"
         offset=".5" />
      <stop
         id="stop6383"
         style="stop-color:#fff;stop-opacity:0"
         offset="1" />
    </linearGradient>
    <radialGradient
       id="radialGradient6657"
       gradientUnits="userSpaceOnUse"
       cy="27.053"
       cx="23.987"
       gradientTransform="matrix(-.24329 0 0 -1.2543 25.221 61.871)"
       r="7.75">
      <stop
         id="stop6653"
         style="stop-color:#fff"
         offset="0" />
      <stop
         id="stop6655"
         style="stop-color:#fff;stop-opacity:0"
         offset="1" />
    </radialGradient>
    <linearGradient
       id="linearGradient6558"
       y2="14"
       gradientUnits="userSpaceOnUse"
       x2="77.125"
       gradientTransform="translate(-70,2)"
       y1="31.561"
       x1="80.693">
      <stop
         id="stop6548"
         style="stop-color:#555753"
         offset="0" />
      <stop
         id="stop6550"
         style="stop-color:#888a85"
         offset="1" />
    </linearGradient>
    <radialGradient
       id="radialGradient6625"
       gradientUnits="userSpaceOnUse"
       cy="42.261"
       cx="30.685"
       gradientTransform="matrix(3.9866 0.117 0 -2.53 -104.63 112.74)"
       r="8.2279">
      <stop
         id="stop6609"
         style="stop-color:#eeeeec"
         offset="0" />
      <stop
         id="stop6611"
         style="stop-color:#babdb6"
         offset="1" />
    </radialGradient>
    <linearGradient
       id="linearGradient6634"
       y2="26.354"
       gradientUnits="userSpaceOnUse"
       x2="29.893"
       y1="12.159"
       x1="23.238">
      <stop
         id="stop6630"
         offset="0" />
      <stop
         id="stop6632"
         style="stop-opacity:0"
         offset="1" />
    </linearGradient>
    <linearGradient
       id="linearGradient6706"
       y2="25.699"
       gradientUnits="userSpaceOnUse"
       x2="28.555"
       y1="25.587"
       x1="17.5">
      <stop
         id="stop6702"
         style="stop-color:#fff"
         offset="0" />
      <stop
         id="stop6704"
         style="stop-color:#fff;stop-opacity:0"
         offset="1" />
    </linearGradient>
    <linearGradient
       id="linearGradient6801"
       y2=".31037"
       gradientUnits="userSpaceOnUse"
       x2="33.431"
       y1="45.052"
       x1="33.431">
      <stop
         id="stop6645"
         style="stop-color:#555753"
         offset="0" />
      <stop
         id="stop6647"
         style="stop-color:#d3d7cf"
         offset="1" />
    </linearGradient>
    <radialGradient
       id="radialGradient6964"
       xlink:href="#linearGradient6958"
       gradientUnits="userSpaceOnUse"
       cy="22.844"
       cx="72.496"
       gradientTransform="matrix(2.6999 0 0 3.5714 -122.47 -58.74)"
       r="4.8202" />
    <radialGradient
       id="radialGradient6968"
       xlink:href="#linearGradient6958"
       gradientUnits="userSpaceOnUse"
       cy="22.844"
       cx="72.496"
       gradientTransform="matrix(2.6999 0 0 3.6828 -122.47 -61.286)"
       r="4.8202" />
    <radialGradient
       id="radialGradient6976"
       xlink:href="#linearGradient6958"
       gradientUnits="userSpaceOnUse"
       cy="22.734"
       cx="70.531"
       gradientTransform="matrix(1.8087 0 0 3.5234 -57.039 -57.369)"
       r="3.5975" />
    <radialGradient
       id="radialGradient6984"
       xlink:href="#linearGradient6958"
       gradientUnits="userSpaceOnUse"
       cy="22.656"
       cx="60.641"
       gradientTransform="matrix(2.1455 0 0 3.0192 -69.461 -45.747)"
       r="2.6194" />
    <radialGradient
       id="radialGradient7118"
       gradientUnits="userSpaceOnUse"
       cy="36.863"
       cx="11.402"
       gradientTransform="matrix(1 0 0 .33058 0 24.677)"
       r="10.695">
      <stop
         id="stop17125"
         offset="0" />
      <stop
         id="stop17127"
         style="stop-opacity:0"
         offset="1" />
    </radialGradient>
    <radialGradient
       inkscape:collect="always"
       xlink:href="#linearGradient23419"
       id="radialGradient3378"
       gradientUnits="userSpaceOnUse"
       gradientTransform="matrix(1,0,0,0.25,0,31.22703)"
       cx="23.334524"
       cy="41.63604"
       fx="23.334524"
       fy="41.63604"
       r="22.627417" />
    <linearGradient
       inkscape:collect="always"
       id="linearGradient23419">
      <stop
         style="stop-color:#000000;stop-opacity:1;"
         offset="0"
         id="stop23421" />
      <stop
         style="stop-color:#000000;stop-opacity:0;"
         offset="1"
         id="stop23423" />
    </linearGradient>
    <linearGradient
       inkscape:collect="always"
       xlink:href="#aigrd1"
       id="linearGradient3380"
       gradientUnits="userSpaceOnUse"
       gradientTransform="matrix(1.190476,0,0,1.190476,-4.224424,-2.5)"
       x1="14.9966"
       y1="11.1885"
       x2="32.511002"
       y2="34.307499" />
    <linearGradient
       id="aigrd1"
       gradientUnits="userSpaceOnUse"
       x1="14.9966"
       y1="11.1885"
       x2="32.511002"
       y2="34.307499">
      <stop
         offset="0"
         style="stop-color:#EBEBEB"
         id="stop3034" />
      <stop
         offset="0.5"
         style="stop-color:#FFFFFF"
         id="stop3036" />
      <stop
         offset="1"
         style="stop-color:#EBEBEB"
         id="stop3038" />
    </linearGradient>
    <linearGradient
       inkscape:collect="always"
       xlink:href="#aigrd2"
       id="linearGradient3382"
       gradientUnits="userSpaceOnUse"
       gradientTransform="matrix(1.190476,0,0,1.190476,-4.224424,-2.500001)"
       x1="12.2744"
       y1="32.4165"
       x2="35.391201"
       y2="14.2033" />
    <linearGradient
       id="aigrd2"
       gradientUnits="userSpaceOnUse"
       x1="12.2744"
       y1="32.4165"
       x2="35.391201"
       y2="14.2033">
      <stop
         offset="0"
         style="stop-color:#FBFBFB"
         id="stop3043" />
      <stop
         offset="0.5"
         style="stop-color:#B6B6B6"
         id="stop3045" />
      <stop
         offset="1"
         style="stop-color:#E4E4E4"
         id="stop3047" />
    </linearGradient>
    <linearGradient
       inkscape:collect="always"
       xlink:href="#linearGradient4236"
       id="linearGradient3384"
       gradientUnits="userSpaceOnUse"
       gradientTransform="matrix(1.25,0,0,1.25,-5.652995,-2.604165)"
       x1="21.125"
       y1="14.625"
       x2="29"
       y2="28" />
    <linearGradient
       id="linearGradient4236">
      <stop
         style="stop-color:#ffffff;stop-opacity:0.32673267;"
         offset="0.0000000"
         id="stop4238" />
      <stop
         style="stop-color:#ffffff;stop-opacity:0.60396039;"
         offset="1.0000000"
         id="stop4240" />
    </linearGradient>
    <linearGradient
       inkscape:collect="always"
       xlink:href="#linearGradient4236"
       id="linearGradient3386"
       gradientUnits="userSpaceOnUse"
       gradientTransform="matrix(1.25,0,0,1.25,-5.652995,-2.604165)"
       x1="21.125"
       y1="14.625"
       x2="29"
       y2="28" />
    <linearGradient
       id="linearGradient3284">
      <stop
         style="stop-color:#ffffff;stop-opacity:0.32673267;"
         offset="0.0000000"
         id="stop3286" />
      <stop
         style="stop-color:#ffffff;stop-opacity:0.60396039;"
         offset="1.0000000"
         id="stop3288" />
    </linearGradient>
    <linearGradient
       inkscape:collect="always"
       xlink:href="#linearGradient6036"
       id="linearGradient3388"
       gradientUnits="userSpaceOnUse"
       x1="10.50172"
       y1="3.6100161"
       x2="48.798885"
       y2="54.698483" />
    <linearGradient
       inkscape:collect="always"
       id="linearGradient6036">
      <stop
         style="stop-color:#ffffff;stop-opacity:1;"
         offset="0"
         id="stop6038" />
      <stop
         style="stop-color:#ffffff;stop-opacity:0;"
         offset="1"
         id="stop6040" />
    </linearGradient>
    <linearGradient
       inkscape:collect="always"
       xlink:href="#linearGradient6028"
       id="linearGradient3390"
       gradientUnits="userSpaceOnUse"
       x1="28.702885"
       y1="31.494707"
       x2="17.742729"
       y2="18.366575" />
    <linearGradient
       inkscape:collect="always"
       id="linearGradient6028">
      <stop
         style="stop-color:#ffffff;stop-opacity:1;"
         offset="0"
         id="stop6030" />
      <stop
         style="stop-color:#ffffff;stop-opacity:0;"
         offset="1"
         id="stop6032" />
    </linearGradient>
    <radialGradient
       inkscape:collect="always"
       xlink:href="#linearGradient3394"
       id="radialGradient3393"
       gradientUnits="userSpaceOnUse"
       gradientTransform="matrix(0.848684,0.95802,-0.782119,0.692834,18.69147,-20.52578)"
       cx="37.751469"
       cy="27.569166"
       fx="37.751469"
       fy="27.569166"
       r="21.333334" />
    <linearGradient
       y2="14.2033"
       x2="35.391201"
       y1="32.4165"
       x1="12.2744"
       gradientUnits="userSpaceOnUse"
       id="linearGradient3394">
      <stop
         id="stop3396"
         style="stop-color:#fff307;stop-opacity:1.0000000;"
         offset="0.0000000" />
      <stop
         id="stop3398"
         style="stop-color:#166eff;stop-opacity:1.0000000;"
         offset="0.50000000" />
      <stop
         id="stop3400"
         style="stop-color:#ffffff;stop-opacity:0.0000000;"
         offset="1.0000000" />
    </linearGradient>
    <radialGradient
       inkscape:collect="always"
       xlink:href="#linearGradient3406"
       id="radialGradient3395"
       gradientUnits="userSpaceOnUse"
       gradientTransform="matrix(0.769501,-1.2425,0.6703,0.415141,-21.77857,41.36563)"
       cx="26.137741"
       cy="38.807304"
       fx="26.137741"
       fy="38.807304"
       r="21.333334" />
    <linearGradient
       id="linearGradient3406"
       gradientUnits="userSpaceOnUse"
       x1="12.2744"
       y1="32.4165"
       x2="35.391201"
       y2="14.2033">
      <stop
         offset="0.0000000"
         style="stop-color:#b307ff;stop-opacity:0.82178217;"
         id="stop3408" />
      <stop
         offset="1.0000000"
         style="stop-color:#f0ff8b;stop-opacity:0.64356434;"
         id="stop3410" />
      <stop
         offset="1.0000000"
         style="stop-color:#ffffff;stop-opacity:0.0000000;"
         id="stop3412" />
    </linearGradient>
    <radialGradient
       inkscape:collect="always"
       xlink:href="#linearGradient3421"
       id="radialGradient3397"
       gradientUnits="userSpaceOnUse"
       gradientTransform="matrix(0.15845,-0.158988,0.432907,0.431441,-2.723645,15.00107)"
       cx="53.556889"
       cy="48.23827"
       fx="53.556889"
       fy="48.23827"
       r="21.333334" />
    <linearGradient
       y2="14.2033"
       x2="35.391201"
       y1="32.4165"
       x1="12.2744"
       gradientUnits="userSpaceOnUse"
       id="linearGradient3421">
      <stop
         id="stop3423"
         style="stop-color:#ffffff;stop-opacity:1.0000000;"
         offset="0.0000000" />
      <stop
         id="stop3427"
         style="stop-color:#b8c04c;stop-opacity:0.0000000;"
         offset="1.0000000" />
    </linearGradient>
    <radialGradient
       inkscape:collect="always"
       xlink:href="#linearGradient3435"
       id="radialGradient3399"
       gradientUnits="userSpaceOnUse"
       gradientTransform="matrix(0.00518427,-0.12286,0.544548,0.02297824,0.957234,26.30756)"
       cx="16.885271"
       cy="33.377594"
       fx="16.885271"
       fy="33.377594"
       r="21.333334" />
    <linearGradient
       id="linearGradient3435"
       gradientUnits="userSpaceOnUse"
       x1="12.2744"
       y1="32.4165"
       x2="35.391201"
       y2="14.2033">
      <stop
         offset="0.0000000"
         style="stop-color:#ffffc8;stop-opacity:1.0000000;"
         id="stop3437" />
      <stop
         offset="1.0000000"
         style="stop-color:#9a91ef;stop-opacity:0.0000000;"
         id="stop3439" />
    </linearGradient>
    <radialGradient
       inkscape:collect="always"
       xlink:href="#linearGradient3435"
       id="radialGradient3401"
       gradientUnits="userSpaceOnUse"
       gradientTransform="matrix(0.105916,-0.0191424,0.104789,0.579807,17.13693,7.115158)"
       cx="35.511295"
       cy="21.618015"
       fx="35.511295"
       fy="21.618015"
       r="21.333334" />
    <linearGradient
       id="linearGradient3317"
       gradientUnits="userSpaceOnUse"
       x1="12.2744"
       y1="32.4165"
       x2="35.391201"
       y2="14.2033">
      <stop
         offset="0.0000000"
         style="stop-color:#ffffc8;stop-opacity:1.0000000;"
         id="stop3319" />
      <stop
         offset="1.0000000"
         style="stop-color:#9a91ef;stop-opacity:0.0000000;"
         id="stop3321" />
    </linearGradient>
    <radialGradient
       inkscape:collect="always"
       xlink:href="#linearGradient3435"
       id="radialGradient3403"
       gradientUnits="userSpaceOnUse"
       gradientTransform="matrix(-0.0504822,0.01387847,-0.12844,-0.467196,35.41257,39.44172)"
       cx="133.84108"
       cy="23.914305"
       fx="133.84108"
       fy="23.914305"
       r="21.333334" />
    <linearGradient
       id="linearGradient3324"
       gradientUnits="userSpaceOnUse"
       x1="12.2744"
       y1="32.4165"
       x2="35.391201"
       y2="14.2033">
      <stop
         offset="0.0000000"
         style="stop-color:#ffffc8;stop-opacity:1.0000000;"
         id="stop3326" />
      <stop
         offset="1.0000000"
         style="stop-color:#9a91ef;stop-opacity:0.0000000;"
         id="stop3328" />
    </linearGradient>
    <radialGradient
       inkscape:collect="always"
       xlink:href="#linearGradient2072"
       id="radialGradient3405"
       gradientUnits="userSpaceOnUse"
       gradientTransform="matrix(1,0,0,0.398649,0,21.2728)"
       cx="23.25"
       cy="35.375"
       fx="23.25"
       fy="35.375"
       r="18.5" />
    <linearGradient
       id="linearGradient2072"
       inkscape:collect="always">
      <stop
         id="stop2074"
         offset="0"
         style="stop-color:#000000;stop-opacity:1;" />
      <stop
         id="stop2076"
         offset="1"
         style="stop-color:#000000;stop-opacity:0;" />
    </linearGradient>
    <radialGradient
       inkscape:collect="always"
       xlink:href="#linearGradient2315"
       id="radialGradient3407"
       gradientUnits="userSpaceOnUse"
       gradientTransform="matrix(1,0,0,0.509804,0,16.05392)"
       cx="4.3920336"
       cy="32.307854"
       fx="4.3920336"
       fy="32.307854"
       r="6.375" />
    <linearGradient
       id="linearGradient2315"
       inkscape:collect="always">
      <stop
         id="stop2317"
         offset="0"
         style="stop-color:#ffffff;stop-opacity:1;" />
      <stop
         id="stop2319"
         offset="1"
         style="stop-color:#ffffff;stop-opacity:0;" />
    </linearGradient>
    <radialGradient
       inkscape:collect="always"
       xlink:href="#linearGradient2315"
       id="radialGradient3409"
       gradientUnits="userSpaceOnUse"
       gradientTransform="matrix(1,0,0,0.509804,0,16.05392)"
       cx="4.3920336"
       cy="32.307854"
       fx="4.3920336"
       fy="32.307854"
       r="6.375" />
  </defs>
  <metadata
     id="metadata7">
    <rdf:RDF>
      <cc:Work
         rdf:about="">
        <dc:format>image/svg+xml</dc:format>
        <dc:type
           rdf:resource="http://purl.org/dc/dcmitype/StillImage" />
        <dc:creator>
          <cc:Agent>
            <dc:title>Ulisse Perusin</dc:title>
          </cc:Agent>
        </dc:creator>
        <cc:license
           rdf:resource="http://creativecommons.org/licenses/GPL/2.0/" />
        <dc:title></dc:title>
        <dc:contributor>
          <cc:Agent>
            <dc:title>Lapo Calamandrei</dc:title>
          </cc:Agent>
        </dc:contributor>
      </cc:Work>
      <cc:License
         rdf:about="http://creativecommons.org/licenses/GPL/2.0/">
        <cc:permits
           rdf:resource="http://web.resource.org/cc/Reproduction" />
        <cc:permits
           rdf:resource="http://web.resource.org/cc/Distribution" />
        <cc:requires
           rdf:resource="http://web.resource.org/cc/Notice" />
        <cc:permits
           rdf:resource="http://web.resource.org/cc/DerivativeWorks" />
        <cc:requires
           rdf:resource="http://web.resource.org/cc/ShareAlike" />
        <cc:requires
           rdf:resource="http://web.resource.org/cc/SourceCode" />
      </cc:License>
    </rdf:RDF>
  </metadata>
  <g
     id="layer3"
     style="display:none">
    <path
       id="path7288"
       style="opacity:.83012;fill:url(#radialGradient8199);display:inline;fill-rule:evenodd"
       d="m-8.2188 10.5l-12 12 12 12 0.0002-24z" />
    <path
       id="path2791"
       style="opacity:.76834;stroke:url(#linearGradient6393);stroke-width:1px;display:inline;fill:none"
       d="m-7 10.5l-12 12 12 12v-24z" />
    <path
       id="path21580"
       style="opacity:.63320;fill:#fce94f;display:inline;fill-rule:evenodd"
       d="m19.375 9c-0.174 0.053-0.306 0.1967-0.344 0.375-0.703 2.579-2.427 3.587-4.687 5.094-2.261 1.507-4.9847 3.474-7.2815 7.812-0.0672 0.138-0.0672 0.3 0 0.438 2.2968 4.338 5.0205 6.305 7.2815 7.812 2.26 1.507 3.984 2.515 4.687 5.094 0.08 0.221 0.302 0.357 0.535 0.327s0.413-0.218 0.434-0.452v-26c0.005-0.1574-0.064-0.308-0.187-0.4064-0.123-0.0983-0.286-0.133-0.438-0.0936z"
       transform="translate(-42)" />
    <path
       id="path21676"
       style="stroke:#000;stroke-width:1px;display:inline;fill:none"
       d="m-47.5 22.5l27.5-30.5v64l-27.5-33.5z" />
    <path
       id="path21678"
       style="stroke-linejoin:round;stroke-dashoffset:1.2;stroke:#204a87;stroke-linecap:round;stroke-width:.12515;display:inline;fill:url(#radialGradient21684)"
       d="m23.688 21.844a2.8438 2.8438 0 1 1 -5.688 0 2.8438 2.8438 0 1 1 5.688 0z"
       transform="matrix(7.9904 0 0 7.9904 -220.77 -152.04)" />
    <path
       id="path21680"
       style="stroke-linejoin:round;stroke-dashoffset:1.2;stroke:#204a87;stroke-linecap:round;stroke-width:.18087;display:inline;fill:url(#radialGradient21686)"
       d="m23.688 21.844a2.8438 2.8438 0 1 1 -5.688 0 2.8438 2.8438 0 1 1 5.688 0z"
       transform="matrix(5.5288 0 0 5.5288 -169.46 -98.271)" />
    <path
       id="path21682"
       style="stroke-linejoin:round;stroke-dashoffset:1.2;stroke:#204a87;stroke-linecap:round;stroke-width:.29249;display:inline;fill:url(#radialGradient21688)"
       d="m23.688 21.844a2.8438 2.8438 0 1 1 -5.688 0 2.8438 2.8438 0 1 1 5.688 0z"
       transform="matrix(3.419 0 0 3.419 -125.49 -52.183)" />
  </g>
  <g
     id="layer1">
    <path
       id="path16236"
       style="opacity:.2;fill:url(#radialGradient7118)"
       d="m22.097 36.863a10.695 3.5355 0 1 1 -21.39 0 10.695 3.5355 0 1 1 21.39 0z"
       transform="matrix(1.5366 0 0 2.42 -1.1723 -56.385)" />
    <path
       id="path5330"
       style="stroke:#555753;stroke-linecap:round;stroke-width:1.3027;fill:#2e3436"
       d="m8 25a4 7 0 1 1 -8 0 4 7 0 1 1 8 0z"
       transform="matrix(.75 0 0 .78571 1.5 4.3572)" />
    <path
       id="path6659"
       style="fill:#babdb6"
       d="m4.5 20.75a0.75 0.75 0 1 1 -1.5 0 0.75 0.75 0 1 1 1.5 0z"
       transform="translate(-1.5312 .65625)" />
    <path
       id="path2766"
       style="stroke:url(#linearGradient5547);stroke-linecap:round;fill:url(#linearGradient5545)"
       d="m6.125 15.5c-2.001 0-3.625 3.808-3.625 8.5s1.624 8.5 3.625 8.5h3.625c2.001 0 3.625-3.808 3.625-8.5s-1.624-8.5-3.625-8.5h-3.625z" />
    <path
       id="path5556"
       style="opacity:.6;stroke:url(#linearGradient6537);stroke-linecap:round;stroke-width:1.0578;fill:none"
       d="m5.5 14.5c-0.526 0-1.2661 0.546-1.9062 1.906-0.6402 1.361-1.0938 3.376-1.0938 5.594s0.4536 4.233 1.0938 5.594c0.6401 1.36 1.3802 1.906 1.9062 1.906h4c0.526 0 1.266-0.546 1.906-1.906 0.64-1.361 1.094-3.376 1.094-5.594s-0.454-4.233-1.094-5.594c-0.64-1.36-1.38-1.906-1.906-1.906h-4z"
       transform="matrix(.89375 0 0 1 1.2656 2)" />
    <path
       id="path6556"
       style="fill:url(#linearGradient6558)"
       d="m9.6969 16c-2.0407 0-3.6969 3.577-3.6969 7.984 0 4.408 1.6562 7.985 3.6969 7.985h0.6371c2.041 0 3.697-3.577 3.697-7.985 0-4.407-1.656-7.984-3.697-7.984h-0.6371z" />
    <path
       id="path1871"
       style="stroke:url(#linearGradient6545);stroke-linecap:round;fill:url(#radialGradient6553)"
       d="m8.625 24c0 9.227 9.187 14.5 14.875 14.5 3.938 0 7-6.496 7-14.5s-3.062-14.5-7-14.5c-5.688 0-14.875 5.273-14.875 14.5z" />
    <path
       id="path6649"
       style="fill:url(#radialGradient6657)"
       d="m33 27.938a7.75 16.562 0 1 1 -15.5 0 7.75 16.562 0 1 1 15.5 0z"
       transform="matrix(1.3226 0 0 1.0264 -12.145 -4.6755)" />
    <path
       id="path6639"
       style="opacity:.73359;fill:url(#linearGradient6641);fill-rule:evenodd"
       d="m16 13.375c-2.583 1.395-5.458 4.196-8 8.125 2.7-1.126 5.491-1.96 8-1.75v-6.375z" />
    <path
       id="path6567"
       style="opacity:.58621;stroke:url(#linearGradient6579);stroke-linecap:round;stroke-width:1.1273;fill:none"
       d="m22.812 6.5c-2.795 0-6.724 1.4333-9.843 4.094-3.12 2.66-5.469 6.48-5.469 11.406s2.349 8.746 5.469 11.406c3.119 2.661 7.048 4.094 9.843 4.094 1.583 0 3.233-1.444 4.532-4.25 1.298-2.806 2.156-6.821 2.156-11.25s-0.858-8.444-2.156-11.25c-1.299-2.8063-2.949-4.25-4.532-4.25z"
       transform="matrix(.90341 0 0 .87097 2.8494 4.8387)" />
    <path
       id="path1873"
       style="stroke:url(#linearGradient6801);stroke-linecap:round;stroke-width:.83241;fill:url(#radialGradient6595)"
       d="m33 27.938a7.75 16.562 0 1 1 -15.5 0 7.75 16.562 0 1 1 15.5 0z"
       transform="matrix(1.2258 0 0 1.1774 -8.9516 -8.8925)" />
    <path
       id="path3672"
       style="stroke:#555753;stroke-linecap:round;fill:url(#radialGradient6603)"
       d="m21.616 24c0 2.484-2.383 4.5-4.066 4.5-1.684 0-3.05-2.016-3.05-4.5s1.366-4.5 3.05-4.5c1.683 0 4.066 2.016 4.066 4.5z" />
    <path
       id="path6605"
       style="fill:url(#radialGradient6625)"
       d="m22 5c-2.632 0-4.858 2.2498-6.438 5.688-1.579 3.437-2.531 8.142-2.531 13.312s0.952 9.875 2.531 13.312c1.58 3.438 3.806 5.688 6.438 5.688s4.858-2.25 6.438-5.688c0.987-2.148 1.737-4.811 2.156-7.75 0.013-0.092 0.018-0.187 0.031-0.281 0.076-0.567 0.136-1.131 0.187-1.719 0.051-0.546 0.098-1.093 0.126-1.656 0.001-0.031-0.002-0.062 0-0.094 0.027-0.595 0.031-1.2 0.031-1.812 0-0.644-0.001-1.28-0.031-1.906-0.026-0.557-0.078-1.115-0.126-1.656-0.051-0.588-0.111-1.152-0.187-1.719-0.013-0.095-0.017-0.187-0.031-0.281-0.419-2.939-1.169-5.602-2.156-7.75-1.58-3.4382-3.806-5.688-6.438-5.688zm0.5 2c1.922 0 3.78 1.7656 5.188 4.844 0.879 1.924 1.576 4.335 1.968 7.031 0.079 0.539 0.134 1.095 0.188 1.656 0.047 0.526 0.099 1.054 0.125 1.594 0.032 0.62 0.062 1.236 0.062 1.875 0 0.596-0.034 1.17-0.062 1.75-0.002 0.041 0.002 0.084 0 0.125-0.028 0.537-0.075 1.073-0.125 1.594-0.054 0.561-0.109 1.117-0.188 1.656-0.392 2.696-1.089 5.107-1.968 7.031-1.408 3.078-3.266 4.844-5.188 4.844s-3.78-1.766-5.188-4.844c-1.407-3.078-2.343-7.39-2.343-12.156s0.936-9.078 2.343-12.156c1.408-3.0784 3.266-4.844 5.188-4.844z" />
    <path
       id="path6615"
       style="opacity:.36638;stroke:url(#linearGradient6634);stroke-linecap:round;stroke-width:1.0542;fill:none"
       d="m33 27.938a7.75 16.562 0 1 1 -15.5 0 7.75 16.562 0 1 1 15.5 0z"
       transform="matrix(.90323 0 0 .99623 -.30645 -3.8321)" />
    <path
       id="path6661"
       style="fill:#fff"
       d="m21.5 13.5a1 1 0 1 1 -2 0 1 1 0 1 1 2 0z"
       transform="translate(-16,5.3125)" />
    <path
       id="path6698"
       style="opacity:.65517;stroke:url(#linearGradient6706);stroke-linecap:round;stroke-width:.90348;fill:none"
       d="m33 27.938a7.75 16.562 0 1 1 -15.5 0 7.75 16.562 0 1 1 15.5 0z"
       transform="matrix(1.0968 0 0 1.117 -5.6936 -7.2057)" />
    <path
       id="path5501"
       style="fill:#fff"
       d="m21.5 13.5a1 1 0 1 1 -2 0 1 1 0 1 1 2 0z"
       transform="translate(-5,-1.875)" />
  </g>
  <g
     id="layer2">
    <g
       id="g26136"
       style="stroke:url(#radialGradient6964)"
       transform="matrix(.59494 0 0 1.2243 1.374 -4.2219)">
      <path
         id="path25249"
         style="stroke-linejoin:round;stroke-dashoffset:1.2;stroke:url(#radialGradient6968);stroke-linecap:round;stroke-width:1.1717;fill:none"
         d="m69.031 40.188c5.16-4.167 8.469-10.545 8.469-17.688 0-6.765-2.96-12.836-7.656-17" />
    </g>
    <g
       id="g27916"
       style="stroke:#729fcf"
       transform="matrix(.51647 0 0 1.2243 3.5434 -4.2219)">
      <path
         id="path21632"
         style="stroke-linejoin:round;stroke-dashoffset:1.2;stroke:url(#radialGradient6976);stroke-linecap:round;stroke-width:1.2576;fill:none"
         d="m67.562 34.781c3.614-2.881 5.938-7.303 5.938-12.281 0-4.706-2.064-8.93-5.344-11.812" />
    </g>
    <g
       id="g28807"
       style="stroke:#729fcf"
       transform="matrix(.35351 0 0 1.2243 13.436 -3.801)">
      <path
         id="path27920"
         style="stroke-linejoin:round;stroke-dashoffset:1.2;stroke:url(#radialGradient6984);stroke-linecap:round;stroke-width:1.5201;fill:none"
         d="m58.781 30.156c2.27-1.78 3.719-4.55 3.719-7.656 0-2.939-1.312-5.56-3.375-7.344" />
    </g>
  </g>
  <g
     id="g3355"
     transform="matrix(0.61355929,0,0,0.61355929,17.148682,-2.9032271)">
    <g
       id="g3333"
       transform="matrix(0.7971768,0,0,0.7971768,0.346241,9.6427971)">
      <path
         inkscape:connector-curvature="0"
         id="path3916"
         d="M 29.922111,5.6692337 26.325518,19.663896 c 1.124704,0.299517 2.024143,0.99547 2.635128,1.958542 l 12.39222,-7.549285 C 38.817618,9.9434382 34.748656,6.9050853 29.922111,5.6692337 z"
         style="fill:url(#linearGradient3384);fill-opacity:1;fill-rule:nonzero;stroke:none"
         inkscape:r_cx="true"
         inkscape:r_cy="true" />
    </g>
    <g
       id="g2556"
       inkscape:label="Layer 1"
       transform="matrix(0.798971,0,0,0.7989659,6.4504526,0.4223012)">
      <path
         inkscape:connector-curvature="0"
         style="fill:#2949b0;fill-opacity:1;fill-rule:nonzero;stroke:#001c7c;stroke-width:1;stroke-linecap:round;stroke-linejoin:round;stroke-miterlimit:4;stroke-opacity:1;stroke-dashoffset:0;marker:none;visibility:visible;display:block"
         d="m 41.625,7.7951523 c 0,0 -23.0625,2.8346457 -23.0625,2.8346457 l 0,21.78125 c -1.645955,-0.557651 -3.931785,-0.703429 -6.4375,-0.1875 -4.356314,0.896969 -7.4778602,3.299487 -7,5.34375 0.4778601,2.044263 4.393685,2.99072 8.75,2.09375 4.116641,-0.84762 7.684123,-3.037802 7.602633,-5 l 0.15625,-19.03125 c 0,0 16.930457,-2.895306 16.930457,-2.895306 l 0,17.284614 c -10.25,-1.5 -13.292201,2.893236 -12.81434,4.9375 0.47786,2.044263 4.393686,2.990719 8.75,2.09375 3.865376,-0.795885 6.63241,-2.763211 6.90625,-4.625 L 41.625,7.7951523 z"
         id="path7042"
         sodipodi:nodetypes="cccccccccccccc" />
      <path
         inkscape:connector-curvature="0"
         sodipodi:nodetypes="ccccccccccc"
         id="path2311"
         d="m 40.729036,8.8956383 c 0,0 -21.181769,2.8346457 -21.181769,2.8346457 l 0,21.838337 C 11.982012,31.663311 5.8141632,35.40303 6.2685944,37.347065 6.9730255,40.6661 20.646969,38.449299 20.569474,34.208305 l 0.148589,-19.473166 c 0,0 18.850374,-2.892332 18.850374,-2.892332 l 0,19.437166 c -7.566284,-1.926647 -13.265498,1.376384 -12.811066,3.32042 0.579431,3.194035 12.378226,2.113362 13.76364,-2.657146 L 40.729036,8.8956383 z"
         style="opacity:0.51176471;fill:none;stroke:#ffffff;stroke-width:1;stroke-linecap:butt;stroke-linejoin:miter;stroke-miterlimit:4;stroke-opacity:1;stroke-dasharray:none;stroke-dashoffset:0;marker:none;visibility:visible;display:block" />
      <path
         transform="matrix(0.734516,-0.111645,0.111645,0.734516,3.903362,12.22551)"
         d="M 12.25,32.75 C 12.25,34.544925 9.3958153,36 5.875,36 2.3541847,36 -0.5,34.544925 -0.5,32.75 c 0,-1.794925 2.8541847,-3.25 6.375,-3.25 3.5208153,0 6.375,1.455075 6.375,3.25 z"
         sodipodi:ry="3.25"
         sodipodi:rx="6.375"
         sodipodi:cy="32.75"
         sodipodi:cx="5.875"
         id="path2313"
         style="opacity:0.51176471;fill:url(#radialGradient3407);fill-opacity:1;fill-rule:nonzero;stroke:none;stroke-width:1;marker:none;visibility:visible;display:block;overflow:visible"
         sodipodi:type="arc" />
      <path
         sodipodi:type="arc"
         style="opacity:0.51176471;fill:url(#radialGradient3409);fill-opacity:1;fill-rule:nonzero;stroke:none;stroke-width:1;marker:none;visibility:visible;display:block;overflow:visible"
         id="path2323"
         sodipodi:cx="5.875"
         sodipodi:cy="32.75"
         sodipodi:rx="6.375"
         sodipodi:ry="3.25"
         d="M 12.25,32.75 C 12.25,34.544925 9.3958153,36 5.875,36 2.3541847,36 -0.5,34.544925 -0.5,32.75 c 0,-1.794925 2.8541847,-3.25 6.375,-3.25 3.5208153,0 6.375,1.455075 6.375,3.25 z"
         transform="matrix(0.734516,-0.111645,0.111645,0.734516,23.74587,9.390864)" />
    </g>
  </g>
</svg>
